<svg width="6" height="9" viewBox="0 0 6 9" fill="none" xmlns="http://www.w3.org/2000/svg">
<path d="M5.50163 4.96555C5.5016 5.09733 5.47552 5.22782 5.42489 5.34949C5.37427 5.47117 5.30009 5.58164 5.20663 5.67455L2.19662 8.66555C2.00752 8.84724 1.75461 8.94738 1.49238 8.94439C1.23015 8.9414 0.979591 8.83552 0.79468 8.64956C0.609769 8.4636 0.505307 8.21245 0.503801 7.9502C0.502294 7.68796 0.603863 7.43562 0.786625 7.24755L3.08762 4.95655L0.801626 2.65655C0.706412 2.56402 0.630576 2.45346 0.578541 2.33132C0.526506 2.20918 0.499314 2.0779 0.498552 1.94513C0.497789 1.81237 0.523471 1.68079 0.574099 1.55805C0.624727 1.43532 0.699287 1.3239 0.793432 1.23028C0.887576 1.13667 0.999419 1.06274 1.12244 1.01281C1.24545 0.962876 1.37718 0.937941 1.50994 0.939454C1.64269 0.940968 1.77382 0.968902 1.89567 1.02163C2.01751 1.07435 2.12764 1.15081 2.21962 1.24655L5.21063 4.25655C5.30337 4.34979 5.37681 4.4604 5.42674 4.58206C5.47668 4.70372 5.50212 4.83404 5.50163 4.96555Z" fill="#5D686F"/>
</svg>
