<svg width="447" height="466" viewBox="0 0 447 466" fill="none" xmlns="http://www.w3.org/2000/svg">
<path d="M71.2 299.755C71.2 298.855 70.5 298.155 69.7 298.255L35.7 303.555C34.9 303.655 34.2 304.355 34.1 305.355L30.2 336.555C30.1 337.455 30.8 338.255 31.7 338.155L69 332.555C69.6 332.455 70.1 331.955 70.1 331.255L71.2 299.755Z" fill="#FCA354"/>
<path d="M17.6996 310.355L31.9996 308.155C32.3996 308.055 32.6995 308.155 32.9995 308.455L37.4995 311.755C37.7994 311.955 38.1995 312.055 38.4995 312.055L58.2994 309.055C58.8993 308.955 59.3996 309.255 59.6996 309.755L71.6995 331.155C72.1995 331.955 71.6995 333.055 70.6995 333.255L30.8996 339.255C30.2996 339.355 29.6996 339.055 29.3996 338.455L16.4996 312.455C16.1996 311.455 16.6996 310.455 17.6996 310.355Z" fill="#F9C741"/>
<path d="M36.8997 322.155C36.2997 322.155 35.6997 321.655 35.5997 321.055C35.4997 320.355 35.9997 319.655 36.6997 319.555L49.0997 317.655C49.7997 317.555 50.4997 318.055 50.5997 318.755C50.6997 319.455 50.1997 320.155 49.4997 320.255L37.0997 322.155C36.9997 322.155 36.8997 322.155 36.8997 322.155Z" fill="white"/>
<path d="M84.6 284.255C71.6 292.055 75.4 303.055 76.3 329.555C76.6 337.255 74.5 344.055 74.5 344.055C74.5 344.055 84.2 346.455 89.8 346.555C97.7 346.655 105.1 348.355 105.4 338.055C105.8 327.755 109.3 269.655 84.6 284.255Z" fill="#F7576C"/>
<path d="M81.9003 403.955C68.1003 405.855 70.9003 411.155 70.9003 411.155H92.3C92.3 411.155 93.4 405.855 90.6003 402.655" fill="#D2854A"/>
<path d="M100.1 404.055C86.5999 405.855 89.3999 411.055 89.3999 411.055H110.4C110.4 411.055 111.5 405.855 108.8 402.755" fill="#E1A373"/>
<path d="M68.9004 295.855L53.6004 291.755C51.9004 290.855 50.8004 289.155 50.6004 287.255C50.4004 284.955 50.1004 281.555 49.7004 277.855C48.8004 269.555 47.3004 259.855 45.0004 258.655C40.9004 256.355 35.0004 250.455 42.0004 250.655C49.1004 250.955 53.1004 258.455 53.1004 258.455C53.1004 258.455 55.6004 250.455 56.1004 255.855C56.2004 256.455 55.2004 264.755 55.2004 264.755L58.6004 276.855L60.3004 282.855L64.9004 283.455L68.9004 295.855Z" fill="#F8D4AB"/>
<path d="M91.2002 284.055L60.3002 282.855L58.6002 276.855L49.7002 277.755C50.1002 281.455 50.4002 284.755 50.6002 287.155C50.7002 289.055 51.9002 290.755 53.6002 291.655L71.5002 296.455L73.7002 297.055L81.7002 299.155L91.2002 284.055Z" fill="#F7576C"/>
<path d="M74.8002 298.055C74.7002 298.055 74.7002 298.055 74.6002 298.055C73.9002 297.855 57.8002 294.155 53.2002 291.955C49.3002 290.055 49.0002 282.055 48.8002 275.655C48.7002 273.555 48.7002 271.755 48.5002 270.555C48.5002 270.255 48.4002 269.955 48.4002 269.655C47.8002 265.855 47.0002 260.155 39.7002 255.455C39.2002 255.155 39.1002 254.555 39.4002 254.055C39.7002 253.555 40.3002 253.455 40.8002 253.755C48.8002 258.955 49.8002 265.455 50.4002 269.355C50.4002 269.655 50.5002 269.955 50.5002 270.155C50.7002 271.455 50.8002 273.355 50.9002 275.555C51.1002 280.855 51.4002 288.755 54.2002 290.155C58.6002 292.255 75.0002 296.055 75.2002 296.055C75.7002 296.155 76.1002 296.755 76.0002 297.255C75.6002 297.755 75.2002 298.055 74.8002 298.055Z" fill="#21262A"/>
<path d="M81.8002 333.655C75.6002 372.155 78.4002 403.955 78.4002 403.955C78.4002 403.955 82.4002 406.455 92.6 404.655C92.6 404.655 87.2001 373.355 97.7 347.755C102 337.255 85.6002 335.755 85.6002 335.755" fill="#21262A"/>
<path d="M89.8997 337.655C87.0997 361.655 97.2 404.655 97.2 404.655C97.2 404.655 103.4 406.955 110 405.355C110 405.355 103.3 361.855 111.8 345.455" fill="#5D686F"/>
<path d="M99.4 275.555C95.6 281.355 86.2004 278.855 80.4004 274.955C74.6004 271.155 73.0004 263.355 76.8004 257.555C80.6004 251.755 88.4004 250.155 94.2 253.955C100.1 257.855 103.2 269.755 99.4 275.555Z" fill="#E2E9ED"/>
<path d="M105.9 285.755C103.9 288.855 99.6999 289.655 96.5999 287.655C93.4999 285.655 92.6999 281.455 94.6999 278.355C96.6999 275.255 100.9 274.455 104 276.455C107.1 278.555 107.9 282.655 105.9 285.755Z" fill="#D5DEE3"/>
<path d="M336 438.355C334.6 436.555 278.5 418.055 206.7 418.055H206.5C134.8 418.055 78.8002 436.455 77.4002 438.355C77.3002 438.455 77.3002 438.655 77.4002 438.755C77.5002 438.955 77.6002 439.055 78.0002 439.055C78.7002 439.055 80.3002 438.655 84.4002 437.755C101.4 433.855 146.4 423.655 206.5 423.555H206.7C266.9 423.555 312 433.855 329 437.755C335.5 439.255 335.7 439.255 336 438.755C336.1 438.655 336.1 438.455 336 438.355Z" fill="#DFDFD8"/>
<path d="M224.8 123.555C223.2 123.555 221.7 123.055 220.5 122.155C219.4 121.255 217.1 118.655 220 113.555C220.6 112.455 221.4 111.455 222.3 110.455C218.7 108.955 213.7 108.255 207.3 108.355C199.3 108.455 192 109.955 191.9 109.955C191.2 110.055 190.5 109.655 190.4 108.955C190.3 108.255 190.7 107.555 191.4 107.455C192.4 107.255 213.4 103.155 224.5 108.655C233.4 102.055 249.7 102.455 263.8 106.355C264.5 106.555 264.9 107.255 264.7 107.955C264.5 108.655 263.8 109.055 263.1 108.855C250.1 105.255 235.3 104.655 227 110.055C228 110.755 228.8 111.655 229.5 112.655C233 117.855 230.9 120.755 229.8 121.755C228.4 122.955 226.6 123.555 224.8 123.555ZM224.7 111.755C223.7 112.655 222.9 113.655 222.2 114.855C221.4 116.255 220.4 118.655 222.1 120.055C223.6 121.255 226.4 121.155 227.8 119.855C229.5 118.255 228.1 115.555 227.1 114.155C226.6 113.255 225.8 112.455 224.7 111.755Z" fill="#DFDFD8"/>
<path d="M65.4995 167.655C65.2995 167.655 64.9995 167.555 64.7995 167.455C64.1995 167.055 63.9995 166.255 64.3995 165.655C64.4995 165.455 67.0995 161.355 71.1995 157.755C74.7995 154.655 78.3995 152.955 81.9995 152.755C83.2995 142.655 93.5 134.955 113.3 129.255C114 129.055 114.7 129.455 114.9 130.155C115.1 130.855 114.7 131.555 114 131.755C95.5 137.055 85.8995 143.955 84.5995 152.855C85.6995 153.055 86.7995 153.355 87.8995 153.855C93.7 156.455 93.6 159.455 93.3 160.555C92.7 162.655 90.2995 163.955 87.7995 163.655C85.0995 163.355 82.0995 160.955 81.8995 155.355C73.4995 156.155 66.6995 166.955 66.6995 167.055C66.3995 167.455 65.9995 167.655 65.4995 167.655ZM84.4995 155.455C84.5995 158.755 85.9995 160.755 88.0995 161.055C89.3995 161.255 90.5995 160.555 90.7995 159.855C90.9995 159.055 90.0995 157.655 86.8995 156.255C86.0995 155.755 85.2995 155.555 84.4995 155.455Z" fill="#DFDFD8"/>
<path d="M33.0167 208.822L39.2167 172.622C39.3167 172.222 39.7167 171.922 40.1167 172.022L78.1167 178.622C78.5167 178.722 78.8167 179.122 78.7167 179.522C78.0167 185.022 73.1167 219.522 69.1167 224.922C64.7167 230.722 58.9167 223.922 57.6167 215.522L29.1167 210.122C29.1167 210.122 25.7167 214.122 33.6167 219.522C40.1167 224.022 65.0167 226.722 65.0167 226.722" fill="#DFDFD8"/>
<path d="M63.5001 224.655C63.4001 224.655 36.2001 223.155 29.8001 218.755C22.1001 213.455 26.8001 206.255 26.8001 206.255L57.4493 212.37C58.3493 218.17 60.4001 223.655 63.5001 224.655Z" fill="#DFDFD8"/>
<path d="M65.7209 227.031C64.3209 227.031 63.0209 226.531 61.9209 225.631C58.4209 222.731 57.8998 218.555 57.6998 215.955L26.082 207.755L26.682 205.255L60.0998 213.955V214.955C60.1998 217.255 60.7209 221.431 63.5209 223.631C64.3209 224.331 65.2209 224.531 66.2209 224.431C66.2209 224.431 67.0396 224.953 67.1683 225.494C67.3158 226.114 66.6209 227.031 66.6209 227.031C66.3209 227.031 66.0209 227.031 65.7209 227.031Z" fill="white"/>
<path d="M55.3 182.655C55.4 182.355 55.3 182.155 55.2 181.955C55.1 181.755 54.8 181.555 54.6 181.555C54.5 181.555 54.5 181.555 54.4 181.555C54 181.555 53.7 181.755 53.5 182.055L51.3 185.955L50.7 181.655C50.6 181.155 50.3 180.755 49.9 180.755H49.8C49.7 180.755 49.7 180.755 49.6 180.755C49.2 180.755 48.9 180.955 48.7 181.355L46.6 185.155L46 180.755C45.9 180.255 45.6 179.955 45.2 179.855C45.1 179.855 45.1 179.855 45 179.855C44.5 179.855 44.1 180.155 44 180.655C44 180.755 44 180.955 44 181.055L45 187.555C45.1 188.055 45.4 188.455 45.8 188.455H45.9C46 188.455 46 188.455 46.1 188.455C46.5 188.455 46.8 188.255 47 187.855L49.1 184.255L49.7 188.355C49.8 188.855 50.1 189.255 50.5 189.355H50.6C50.7 189.355 50.7 189.355 50.8 189.355C51.2 189.355 51.5 189.155 51.7 188.755L55.1 183.055C55.2 183.055 55.3 182.855 55.3 182.655Z" fill="white"/>
<path d="M67.0004 186.555C67.3004 185.055 66.4004 183.755 64.7004 183.455C64.4004 183.355 64.2004 183.355 63.9004 183.355C63.1004 183.355 62.4004 183.655 61.7004 184.255C61.5004 184.355 61.4004 184.655 61.4004 184.855C61.4004 185.055 61.4004 185.355 61.5004 185.555C61.6004 185.755 61.9004 185.955 62.1004 185.955C62.2004 185.955 62.2004 185.955 62.3004 185.955C62.5004 185.955 62.7004 185.855 62.9004 185.755C63.3004 185.355 63.6004 185.255 64.0004 185.255C64.1004 185.255 64.2004 185.255 64.3004 185.255C64.7004 185.355 65.1004 185.655 65.0004 186.255C64.9004 186.755 64.5004 187.155 63.4004 187.755L60.8004 189.255C60.4004 189.455 60.2004 189.755 60.2004 190.055C60.1004 190.355 60.2004 190.655 60.4004 190.855C60.6004 191.055 60.8004 191.155 61.1004 191.255L65.3004 192.055C65.4004 192.055 65.4004 192.055 65.5004 192.055C65.9004 192.055 66.3004 191.755 66.4004 191.355C66.4004 191.155 66.4004 190.855 66.3004 190.655C66.2004 190.455 65.9004 190.355 65.7004 190.255L63.6004 189.855L64.5004 189.355C65.8004 188.555 66.7004 187.955 67.0004 186.555Z" fill="white"/>
<path d="M58.9998 187.455L55.8998 186.855C55.6998 186.855 55.4998 186.655 55.5998 186.355L55.7998 185.355C55.7998 185.155 55.9998 184.955 56.2998 185.055L59.3998 185.655C59.5998 185.655 59.7998 185.855 59.6998 186.155L59.4998 187.155C59.3998 187.355 59.1998 187.455 58.9998 187.455Z" fill="white"/>
<path d="M67.7001 200.455C67.6001 200.455 67.5001 200.455 67.4001 200.455L42.1001 195.555C41.4001 195.455 40.9001 194.755 41.1001 194.055C41.3001 193.355 41.9001 192.855 42.6001 193.055L67.9001 197.955C68.6001 198.055 69.1001 198.755 68.9001 199.455C68.9001 199.955 68.4001 200.455 67.7001 200.455Z" fill="white"/>
<path d="M61.3995 205.255C61.2995 205.255 61.1995 205.255 61.1995 205.255L40.4995 201.255C39.7995 201.155 39.2995 200.455 39.4995 199.755C39.5995 199.055 40.2995 198.555 40.9995 198.755L61.6995 202.755C62.3995 202.855 62.8995 203.555 62.6995 204.255C62.5995 204.855 61.9995 205.255 61.3995 205.255Z" fill="white"/>
<path d="M337.3 149.755C335 161.355 319.8 171.755 302.8 168.355C290.8 166.855 267.4 161.255 267.4 161.255C276.5 129.155 280.9 84.455 280.9 84.455C305.8 89.455 345.4 97.355 345.4 97.355C344.8 127.555 337.3 149.755 337.3 149.755Z" fill="#DFDFD8"/>
<path d="M309.4 170.355C307.1 170.355 304.8 170.155 302.6 169.655C290.8 168.155 267.4 162.655 267.1 162.555C266.8 162.455 266.5 162.255 266.3 161.955C266.1 161.655 266.1 161.255 266.2 160.955C275.2 129.255 279.7 84.7549 279.7 84.3549C279.7 83.9549 279.9 83.6549 280.2 83.4549C280.5 83.2549 280.9 83.1549 281.2 83.2549L345.7 96.0549C346.3 96.1549 346.8 96.7549 346.8 97.3549C346.2 126.555 339.2 148.555 338.7 150.055C337.4 156.155 332.9 161.955 326.3 165.755C321.1 168.755 315.3 170.355 309.4 170.355ZM269 160.355C274.1 161.555 292.8 165.855 303 167.055C319.3 170.355 333.9 160.455 336.1 149.555C336.1 149.455 336.1 149.455 336.1 149.355C336.2 149.155 343.3 127.555 344.1 98.4549L282.1 86.0549C281.2 93.8549 276.9 131.855 269 160.355Z" fill="#DFDFD8"/>
<path d="M305.42 170.102C305.32 170.102 305.22 170.102 305.12 170.102C304.42 170.102 303.82 169.502 303.82 168.702C303.82 168.002 304.42 167.402 305.22 167.402C305.32 167.402 305.32 167.402 305.42 167.402C311.22 167.402 314.8 159.755 315.6 155.555C315.7 155.155 315.9 154.755 316.3 154.655C316.7 154.455 317.1 154.455 317.5 154.655C317.5 154.655 321.7 156.755 326.3 157.555C332.2 158.555 333.666 155.153 335.666 151.253C335.966 150.653 336.766 150.353 337.466 150.653C338.066 150.953 338.366 151.753 338.066 152.453C335.566 157.453 333 161.255 325.9 160.055C322.6 159.455 319.6 158.355 317.9 157.655C316.7 162.055 313.02 170.102 305.42 170.102Z" fill="white"/>
<path d="M330 130.955C329.9 130.955 329.8 130.955 329.7 130.955L287.6 122.555C287.3 122.455 287 122.255 286.8 121.955C286.6 121.655 286.5 121.355 286.6 120.955L288 114.055C288.1 113.355 288.8 112.855 289.5 113.055L331.6 121.455C331.9 121.555 332.2 121.755 332.4 122.055C332.6 122.355 332.7 122.655 332.6 123.055L331.2 129.955C331.1 130.555 330.6 130.955 330 130.955ZM289.4 120.155L328.9 128.055L329.8 123.755L290.3 115.855L289.4 120.155Z" fill="white"/>
<path d="M326.5 148.155C326.4 148.155 326.3 148.155 326.2 148.155L284.1 139.755C283.8 139.655 283.5 139.455 283.3 139.155C283.1 138.855 283 138.555 283.1 138.155L284.5 131.255C284.6 130.555 285.3 130.055 286 130.255L328.1 138.655C328.8 138.755 329.3 139.455 329.1 140.155L327.7 147.055C327.6 147.355 327.4 147.655 327.1 147.855C327 148.055 326.8 148.155 326.5 148.155ZM286 137.355L325.5 145.255L326.4 140.955L286.9 133.055L286 137.355Z" fill="white"/>
<path d="M289.4 92.6549C289.2 92.6549 289.1 92.6549 288.9 92.6549C288.7 92.6549 288.5 92.6549 288.3 92.6549L286.4 92.9549C285.9 93.0549 285.5 93.3549 285.4 93.8549C285.3 94.1549 285.4 94.4549 285.6 94.6549C285.8 94.9549 286 95.0549 286.3 95.1549C286.4 95.1549 286.5 95.1549 286.6 95.1549H286.7L287.8 95.0549L286.2 103.955C286.1 104.255 286.2 104.655 286.4 104.855C286.6 105.155 286.9 105.355 287.2 105.355C287.3 105.355 287.4 105.355 287.4 105.355C288 105.355 288.5 104.955 288.6 104.355L290.5 94.0549C290.5 93.4549 290.1 92.8549 289.4 92.6549Z" fill="white"/>
<path d="M298.4 94.2549C298.1 94.1549 297.7 94.1549 297.4 94.1549C294.6 94.1549 292.3 96.3549 291.7 99.7549C291 103.455 292.8 106.555 296 107.155C296.3 107.255 296.7 107.255 297 107.255C299.8 107.255 302.1 105.055 302.7 101.655C303 99.8549 302.8 98.1549 302 96.8549C301.3 95.4549 300 94.5549 298.4 94.2549ZM296.5 104.955C295.7 104.755 295 104.255 294.6 103.355C294.2 102.455 294.1 101.355 294.3 100.155C294.7 97.9549 296 96.4549 297.5 96.4549C297.6 96.4549 297.8 96.4549 297.9 96.4549C299.6 96.7549 300.5 98.7549 300.1 101.255C299.7 103.455 298.4 104.955 296.9 104.955C296.8 104.955 296.6 104.955 296.5 104.955Z" fill="white"/>
<path d="M313.4 105.155L312.6 105.055L313.8 98.355C313.9 98.055 313.8 97.755 313.6 97.455C313.4 97.155 313.1 97.055 312.8 96.955C312.7 96.955 312.5 96.955 312.4 96.955C311.9 96.955 311.6 97.155 311.2 97.455L304.2 103.155C303.8 103.555 303.5 103.855 303.5 104.255C303.4 104.555 303.5 104.955 303.7 105.155C303.9 105.455 304.2 105.555 304.5 105.655L309.8 106.655L309.5 108.255C309.4 108.555 309.5 108.855 309.7 109.155C309.9 109.455 310.2 109.555 310.5 109.655C310.6 109.655 310.7 109.655 310.7 109.655C311.3 109.655 311.8 109.255 311.9 108.655L312.2 107.055L313 107.155C313.1 107.155 313.1 107.155 313.2 107.155C313.7 107.155 314.1 106.755 314.2 106.255C314.4 105.855 314 105.255 313.4 105.155ZM306.8 103.955L311 100.455L310.2 104.655L306.8 103.955Z" fill="white"/>
<path d="M322.8 98.7549C322.5 98.6549 322.1 98.6549 321.8 98.6549C319 98.6549 316.7 100.855 316.1 104.255C315.8 106.055 316 107.755 316.7 109.055C317.5 110.455 318.8 111.355 320.3 111.655C320.6 111.755 321 111.755 321.3 111.755C324.1 111.755 326.4 109.555 327 106.155C327.8 102.455 326 99.3549 322.8 98.7549ZM320.9 109.355C320 109.155 319.4 108.655 319 107.755C318.6 106.855 318.5 105.755 318.7 104.555C319.1 102.355 320.4 100.855 321.9 100.855C322 100.855 322.2 100.855 322.3 100.855C324 101.155 324.9 103.155 324.5 105.655C324.1 107.855 322.8 109.355 321.3 109.355C321.2 109.455 321.1 109.455 320.9 109.355Z" fill="white"/>
<path d="M300.7 151.955C300.6 151.955 300.5 151.955 300.4 151.955L282.3 148.355C281.6 148.255 281.1 147.555 281.3 146.855C281.5 146.155 282.1 145.655 282.8 145.855L300.9 149.455C301.6 149.555 302.1 150.255 301.9 150.955C301.9 151.555 301.4 151.955 300.7 151.955Z" fill="white"/>
<path d="M305.601 159.155C305.501 159.155 305.401 159.155 305.301 159.155L281.201 154.355C280.501 154.255 280.001 153.555 280.201 152.855C280.301 152.155 281.001 151.655 281.701 151.855L305.801 156.655C306.501 156.755 307.001 157.455 306.801 158.155C306.701 158.755 306.201 159.155 305.601 159.155Z" fill="white"/>
<path d="M176 102.055C173.1 92.7549 159.6 85.4549 145.9 89.7549C136.1 92.0549 117.3 98.7549 117.3 98.7549C127.6 124.455 135.3 160.855 135.3 160.855C155.4 154.555 187.3 144.555 187.3 144.555C184.1 119.655 176 102.055 176 102.055Z" fill="#DFDFD8"/>
<path d="M135.3 162.155C135.1 162.155 134.8 162.055 134.6 161.955C134.3 161.755 134.1 161.455 134 161.055C133.9 160.655 126.3 124.455 116.1 99.155C116 98.855 116 98.455 116.1 98.155C116.2 97.855 116.5 97.555 116.9 97.455C117.7 97.155 135.9 90.755 145.6 88.455C152.2 86.355 159.3 86.755 165.5 89.555C171.3 92.155 175.6 96.555 177.2 101.555C177.8 102.855 185.5 120.455 188.6 144.355C188.7 144.955 188.3 145.555 187.7 145.755L135.7 162.055C135.6 162.155 135.5 162.155 135.3 162.155ZM119.1 99.555C128 122.055 134.8 152.355 136.3 159.155L185.9 143.555C182.7 119.755 174.9 102.755 174.9 102.555C174.9 102.555 174.9 102.455 174.8 102.355C172.1 93.655 159.3 86.855 146.3 90.955C138.1 92.955 123.5 98.055 119.1 99.555Z" fill="#DFDFD8"/>
<path d="M159.4 101.555C159.1 101.555 158.9 101.455 158.7 101.355C158.4 101.155 158.2 100.755 158.1 100.355C158.1 100.255 158 94.3549 153.9 91.2549C152.5 90.1549 150.8 89.855 148.7 90.355C148 90.555 147.3 90.055 147.1 89.355C146.9 88.655 147.4 87.9549 148.1 87.7549C150.9 87.0549 153.4 87.5549 155.5 89.0549C159.4 91.9549 160.2 95.555 160.6 98.555C165 97.355 172.4 97.155 177 101.355C177.5 101.855 177.6 102.655 177.1 103.255C176.6 103.755 175.8 103.855 175.2 103.355C171.6 99.955 164.2 100.255 159.9 101.555C159.7 101.555 159.5 101.555 159.4 101.555Z" fill="white"/>
<path d="M128.9 104.155C128.8 103.655 128.3 103.355 127.8 103.355C127.7 103.355 127.6 103.355 127.5 103.355C127.2 103.455 127 103.655 126.8 103.855C126.7 104.155 126.6 104.455 126.7 104.655L129.3 113.255C129.4 113.755 129.9 114.055 130.4 114.055C130.5 114.055 130.6 114.055 130.7 113.955C131 113.855 131.2 113.655 131.4 113.455C131.5 113.155 131.6 112.855 131.5 112.655L128.9 104.155Z" fill="white"/>
<path d="M141.9 108.855L139.4 107.055C140.7 106.155 141.1 104.755 140.7 103.255C140.4 102.355 139.9 101.655 139.1 101.155C138.6 100.855 138 100.755 137.3 100.755C136.8 100.755 136.2 100.855 135.7 101.055L132 102.155C131.7 102.255 131.5 102.455 131.3 102.655C131.1 102.855 131.1 103.255 131.2 103.555L133.7 112.055C133.8 112.555 134.3 112.855 134.8 112.855C134.9 112.855 135 112.855 135.1 112.755C135.4 112.655 135.6 112.455 135.8 112.255C135.9 111.955 136 111.655 135.9 111.455L135.1 108.855L137.1 108.255L140.5 110.655C140.8 110.855 141 110.955 141.3 110.955C141.4 110.955 141.5 110.955 141.7 110.855C142 110.755 142.2 110.555 142.4 110.355C142.5 110.155 142.6 109.855 142.5 109.555C142.4 109.155 142.2 108.955 141.9 108.855ZM137.1 106.155L134.6 106.855L133.7 103.755L136.2 103.055C136.5 102.955 136.8 102.955 137.1 102.955C137.9 102.955 138.4 103.355 138.6 104.055C138.9 104.955 138.3 105.755 137.1 106.155Z" fill="white"/>
<path d="M154.1 106.055C154.1 105.855 154 105.755 153.8 105.655L147.5 98.2549C147.2 97.8549 146.8 97.7549 146.4 97.7549C146.3 97.7549 146.1 97.7549 146 97.8549H145.9C145.3 98.0549 145 98.4549 144.9 99.0549L143.6 108.655C143.6 108.855 143.6 109.055 143.6 109.155C143.7 109.555 144.1 109.955 144.6 109.955C144.7 109.955 144.8 109.955 144.9 109.955C145.3 109.855 145.6 109.455 145.7 108.955L146 106.855L150.8 105.455L152.1 107.055C152.4 107.355 152.7 107.555 153 107.555C153.1 107.555 153.2 107.555 153.3 107.455C154 107.155 154.3 106.555 154.1 106.055ZM146.4 104.555L146.9 100.555L149.5 103.655L146.4 104.555Z" fill="white"/>
<path d="M162.499 122.255C161.899 122.255 161.399 121.855 161.199 121.355L159.499 115.655C159.399 115.355 159.399 114.955 159.599 114.655C159.799 114.355 159.999 114.155 160.399 114.055L170.699 110.955C171.399 110.755 172.099 111.155 172.299 111.855L173.999 117.555C174.099 117.855 174.099 118.255 173.899 118.555C173.699 118.855 173.499 119.055 173.099 119.155L162.799 122.255C162.799 122.155 162.599 122.255 162.499 122.255ZM162.399 116.055L163.399 119.255L171.199 116.955L170.199 113.755L162.399 116.055Z" fill="white"/>
<path d="M134.9 124.055C134.3 124.055 133.8 123.655 133.6 123.155C133.4 122.455 133.8 121.755 134.5 121.555L143.1 118.955C143.8 118.755 144.5 119.155 144.7 119.855C144.9 120.555 144.5 121.255 143.8 121.455L135.2 124.055C135.2 124.055 135.1 124.055 134.9 124.055Z" fill="white"/>
<path d="M136.2 129.355C135.6 129.355 135.1 128.955 134.9 128.455C134.7 127.755 135.1 127.055 135.8 126.855L154.7 120.955C155.4 120.755 156.1 121.155 156.3 121.855C156.5 122.555 156.1 123.255 155.4 123.455L136.5 129.355C136.5 129.355 136.4 129.355 136.2 129.355Z" fill="white"/>
<path d="M165.901 135.755C165.701 135.755 165.501 135.655 165.301 135.555C165.001 135.355 164.801 135.155 164.701 134.755L163.001 129.055C162.801 128.355 163.201 127.655 163.901 127.455L174.201 124.355C174.501 124.255 174.901 124.255 175.201 124.455C175.501 124.655 175.701 124.855 175.801 125.255L177.501 130.955C177.701 131.655 177.301 132.355 176.601 132.555L166.301 135.655C166.201 135.755 166.101 135.755 165.901 135.755ZM165.901 129.655L166.901 132.855L174.701 130.555L173.701 127.355L165.901 129.655Z" fill="white"/>
<path d="M138.4 137.655C137.8 137.655 137.3 137.255 137.1 136.755C136.9 136.055 137.3 135.355 138 135.155L146.6 132.555C147.3 132.355 148 132.755 148.2 133.455C148.4 134.155 148 134.855 147.3 135.055L138.7 137.655C138.6 137.655 138.5 137.655 138.4 137.655Z" fill="white"/>
<path d="M139.7 142.955C139.1 142.955 138.6 142.555 138.4 142.055C138.2 141.355 138.6 140.655 139.3 140.455L158.1 134.555C158.8 134.355 159.5 134.755 159.7 135.455C159.9 136.155 159.5 136.855 158.8 137.055L140 142.955C139.9 142.955 139.8 142.955 139.7 142.955Z" fill="white"/>
<path d="M141.4 148.955C140.8 148.955 140.3 148.555 140.1 148.055C139.9 147.355 140.3 146.655 141 146.455L159.8 140.555C160.5 140.355 161.2 140.755 161.4 141.455C161.6 142.155 161.2 142.855 160.5 143.055L141.7 148.955C141.6 148.955 141.5 148.955 141.4 148.955Z" fill="white"/>
<path d="M1.2998 413.255C11.2998 413.055 21.2998 412.955 31.2998 412.955C36.2998 412.955 41.2998 412.955 46.2998 412.855H61.2998H76.2998H83.7998H87.4998H91.1998C101.2 412.955 119.9 412.955 129.9 413.155C119.9 413.355 101.2 413.455 91.1998 413.455H87.4998H83.7998H76.2998H61.2998H46.2998C41.2998 413.455 36.2998 413.455 31.2998 413.355C21.2998 413.555 11.2998 413.455 1.2998 413.255Z" fill="#DFDFD8"/>
<path d="M61.3 414.955H46.3C41.3 414.955 36.3 414.955 31.3 414.855C23 414.755 12.1 414.755 1.3 414.555C0.6 414.555 0 413.955 0 413.255C0 412.555 0.6 411.955 1.3 411.955C12.3 411.755 23.1 411.655 31.3 411.655C34.3 411.655 37.3 411.655 40.3 411.655L61.3 411.555L96 411.655C106.1 411.755 121.4 411.755 130 411.955C130.7 411.955 131.3 412.555 131.3 413.255C131.3 413.955 130.7 414.555 130 414.555C121.4 414.755 106.1 414.755 96 414.855L76.3 414.955H61.3Z" fill="#DFDFD8"/>
<path d="M379.201 223.655C379.101 223.655 378.9 223.655 378.8 223.555C378.1 223.355 377.7 222.655 377.9 221.955C386.6 192.855 375.7 162.555 352 149.755C351.4 149.455 351.1 148.655 351.5 147.955C351.8 147.355 352.6 147.055 353.3 147.455C378.1 160.755 389.5 192.455 380.5 222.655C380.3 223.255 379.801 223.655 379.201 223.655Z" fill="#DFDFD8"/>
<path d="M303.2 203.855C303.2 207.955 299.9 211.255 295.8 211.255C291.7 211.255 288.4 207.955 288.4 203.855C288.4 199.755 291.7 196.455 295.8 196.455C299.9 196.555 303.2 199.855 303.2 203.855Z" fill="#F9C741"/>
<path d="M80.6 257.655C74.7 260.655 69.9 278.455 79.3 279.355C80.8 279.455 83.1 279.655 83.1 279.655L82.8 284.655C82.8 284.755 82.8 284.755 82.8 284.855L84.3 290.655L96.6 284.655L92.6 270.155C92.6 270.155 96.3 268.955 94.8 265.955C93.3 262.855 90.2 265.855 90.2 265.855C90.2 265.855 82.6 264.155 80.6 257.655Z" fill="#F8D4AB"/>
<path d="M86.4994 267.773C86.3994 268.273 85.7994 268.673 85.0994 268.573C84.3994 268.473 83.8994 267.973 83.8994 267.373C83.9994 266.873 84.5994 266.473 85.2994 266.573C86.0994 266.673 86.5994 267.173 86.4994 267.773Z" fill="#21262A"/>
<path d="M77.1559 267.25C77.1748 267.76 76.5404 268.117 75.8364 268.182C75.1091 268.15 74.5065 267.78 74.4876 267.271C74.4687 266.761 75.103 266.404 75.8071 266.339C76.5344 266.37 77.1369 266.74 77.1559 267.25Z" fill="#21262A"/>
<path d="M80.7997 274.355C80.6997 274.355 80.6997 274.355 80.5997 274.355C79.0997 273.955 78.3997 273.455 78.0997 272.755C77.7997 271.855 78.3997 271.155 79.0997 270.255C79.1997 270.055 79.3997 269.955 79.4997 269.755C79.7997 269.455 80.1997 269.355 80.5997 269.655C80.8997 269.955 80.9997 270.355 80.6997 270.755C80.4997 270.955 80.3997 271.155 80.2997 271.355C79.9997 271.755 79.5997 272.255 79.4997 272.455C79.4997 272.455 79.6997 272.655 80.8997 273.055C81.2997 273.155 81.4997 273.555 81.3997 273.955C81.3997 274.155 81.0997 274.355 80.7997 274.355Z" fill="#21262A"/>
<path d="M80.7996 277.255C80.2996 277.255 79.7996 277.155 79.4996 276.955C79.0996 276.755 78.9996 276.255 79.1996 275.955C79.3996 275.555 79.8996 275.455 80.1996 275.655C80.3996 275.755 81.7996 275.955 82.4996 274.855C82.6996 274.455 83.1996 274.355 83.4996 274.555C83.8996 274.755 83.9996 275.255 83.7996 275.555C83.0996 276.855 81.7996 277.255 80.7996 277.255Z" fill="#21262A"/>
<path d="M80.5 306.555C81.5 319.555 81 337.655 81 337.655C93.1 338.755 105 345.155 107.2 347.455C108.8 340.955 111.2 334.655 113.1 327.055" fill="white"/>
<path d="M84.5995 289.755C91.5995 282.855 99.9 281.755 107.8 291.055C115.7 300.355 110.2 312.955 114.9 328.655C119 342.455 107.2 347.455 107.2 347.455L95.8 322.755L89.7995 321.355L81.8995 315.655L80.4995 306.555C80.4995 306.555 78.5995 295.655 84.5995 289.755Z" fill="white"/>
<path d="M378.998 131.695C379.098 131.495 381.998 125.695 384.698 124.895C386.298 124.395 386.998 125.295 387.498 125.995C387.998 126.595 388.398 127.095 389.298 126.995C390.198 126.895 390.798 125.595 391.498 124.195C392.398 122.395 393.298 120.395 395.298 119.795C397.498 119.195 397.998 120.795 398.398 121.995C398.698 122.995 398.998 123.595 399.698 123.595C400.598 123.595 401.798 121.795 403.098 119.895C404.698 117.495 406.598 114.795 408.598 114.395C409.498 114.195 410.298 114.495 410.998 115.295C413.198 117.595 413.798 123.695 413.898 127.095C413.998 127.795 414.198 128.895 414.798 129.895C415.298 130.795 415.898 131.195 416.398 131.495H421.398C421.598 131.495 421.798 131.695 421.798 131.995C421.798 132.295 421.598 132.495 421.398 132.495H416.298H379.098C378.998 132.495 378.798 132.395 378.798 132.295C378.898 131.995 378.898 131.895 378.998 131.695Z" fill="#C5E1FF"/>
<path d="M379.298 133.295H421.598C422.298 133.295 422.798 132.695 422.798 131.995C422.798 131.295 422.198 130.695 421.598 130.695H416.798C416.498 130.495 416.098 130.095 415.698 129.495C415.198 128.595 414.998 127.695 414.898 126.995C414.698 122.695 413.998 117.095 411.698 114.695C410.798 113.795 409.698 113.395 408.498 113.595C405.998 113.995 404.098 116.895 402.398 119.495C401.598 120.695 400.198 122.695 399.698 122.795C399.498 122.695 399.298 122.095 399.198 121.795C398.798 120.695 397.998 118.195 394.998 119.095C392.698 119.795 391.598 122.095 390.698 123.895C390.198 124.895 389.598 126.195 389.198 126.195C388.798 126.295 388.698 126.195 388.198 125.495C387.598 124.795 386.598 123.395 384.398 123.995C381.498 124.795 378.898 129.795 378.198 131.195C377.998 131.495 377.998 131.995 378.098 132.295C378.398 132.995 378.798 133.295 379.298 133.295ZM415.098 131.595H380.098C381.498 128.995 383.498 126.295 384.998 125.795C385.998 125.495 386.298 125.895 386.898 126.595C387.398 127.295 388.098 128.195 389.598 127.895C390.998 127.695 391.698 126.195 392.398 124.595C393.198 122.895 394.098 121.095 395.598 120.695C396.798 120.395 397.098 120.795 397.598 122.295C397.898 123.295 398.298 124.595 399.798 124.495C401.098 124.395 402.198 122.895 403.898 120.395C405.398 118.195 407.198 115.595 408.898 115.295C409.498 115.195 409.998 115.395 410.498 115.895C411.998 117.395 412.898 121.495 413.198 127.095C413.298 127.995 413.498 129.195 414.198 130.295C414.498 130.895 414.798 131.195 415.098 131.595Z" fill="#C5E1FF"/>
<path d="M50.2 65.8549C50.4 65.5549 56.2 57.6549 61.6 56.4549C64.7 55.8549 66.1 57.0549 67.2 58.0549C68.2 58.9549 69 59.6549 70.9 59.3549C72.7 59.1549 73.9 57.4549 75.3 55.4549C77 52.9549 78.9 50.2549 82.8 49.4549C87.1 48.5549 88.2 50.8549 89 52.4549C89.7 53.8549 90.1 54.6549 91.7 54.6549C93.6 54.5549 96 52.1549 98.5 49.5549C101.7 46.2549 105.4 42.5549 109.6 41.9549C111.4 41.7549 113 42.1549 114.4 43.1549C118.8 46.3549 120 54.6549 120.2 59.3549C120.4 60.3549 120.8 61.8549 122 63.2549C123.1 64.4549 124.3 65.0549 125.2 65.4549H135.3C135.7 65.4549 136 65.7549 136 66.0549C136 66.4549 135.7 66.6549 135.3 66.6549H125.1H50.8C50.5 66.6549 50.3 66.5549 50.2 66.3549C50.1 66.3549 50.1 66.0549 50.2 65.8549Z" fill="#C5E1FF"/>
<path d="M135.3 67.7551H50.7998C50.1998 67.7551 49.6998 67.4551 49.3998 67.0551C49.0998 66.5551 49.0998 65.9551 49.3998 65.4551C49.6998 65.0551 55.4998 56.9551 61.3998 55.7551C64.9998 55.0551 66.6998 56.5551 67.7998 57.5551C68.6998 58.3551 69.2998 58.8551 70.7998 58.6551C72.2998 58.4551 73.2998 56.9551 74.4998 55.1551C76.1998 52.6551 78.2998 49.6551 82.5998 48.7551C87.5998 47.7551 88.8998 50.5551 89.6998 52.2551C90.3998 53.6551 90.5998 53.9551 91.5998 53.9551C93.1 53.9551 95.4 51.5551 97.7 49.1551L97.8 49.0551C101.1 45.6551 104.9 41.7551 109.4 41.2551C111.4 41.0551 113.3 41.4551 114.8 42.5551C119.5 45.9551 120.7 54.5551 121 59.4551C121.1 60.2551 121.5 61.5551 122.6 62.8551C123.3 63.6551 124.2 64.3551 125.3 64.7551H135.2C136.1 64.7551 136.8 65.4551 136.8 66.2551C136.8 67.0551 136.2 67.7551 135.3 67.7551ZM51.1998 65.9551H123.9C122.9 65.4551 122.1 64.7551 121.3 63.9551C119.9 62.4551 119.4 60.7551 119.3 59.6551C119 55.0551 117.9 46.9551 113.8 44.0551C112.6 43.1551 111.2 42.8551 109.6 43.0551C105.7 43.5551 102.2 47.1551 99.1 50.3551H99C96.2 53.1551 93.9 55.5551 91.6998 55.6551C89.4998 55.7551 88.8998 54.3551 88.1998 52.9551C87.3998 51.3551 86.5998 49.7551 82.9998 50.4551C79.3998 51.1551 77.6998 53.6551 75.9998 56.0551C74.5998 58.1551 73.2998 60.0551 70.9998 60.2551C68.6998 60.5551 67.6998 59.5551 66.6998 58.6551C65.5998 57.7551 64.4998 56.7551 61.7998 57.2551C57.2998 58.3551 52.4998 64.3551 51.1998 65.9551Z" fill="#C5E1FF"/>
<path d="M374.3 221.055L383.6 223.755C384.2 223.955 384.4 224.755 384 225.255L377.3 231.955C376.8 232.455 376 232.255 375.8 231.555L373.1 222.255C373.1 221.455 373.7 220.855 374.3 221.055Z" fill="#DFDFD8"/>
<path d="M280.1 325.155C280.1 325.055 280.1 325.055 280.1 325.155C280 325.155 280 325.155 280 325.155C259.3 347.855 269.6 350.055 269.6 350.055C269.6 350.055 262.4 366.155 280 366.255H280.2C297.8 366.155 290.6 350.055 290.6 350.055C290.6 350.055 300.8 347.855 280.1 325.155Z" fill="#00B797"/>
<path d="M279.4 373.755C278.7 373.755 278.1 373.155 278.1 372.455V338.555C278.1 337.855 278.7 337.255 279.4 337.255C280.1 337.255 280.7 337.855 280.7 338.555V372.455C280.8 373.155 280.2 373.755 279.4 373.755Z" fill="#A6FDE2"/>
<path d="M279.4 347.455C279.3 347.455 279.2 347.455 279.2 347.455C273.5 346.455 271.8 342.155 271.7 341.955C271.4 341.255 271.8 340.555 272.4 340.255C273.1 339.955 273.8 340.355 274.1 340.955C274.1 341.055 275.4 344.055 279.6 344.855C280.3 344.955 280.8 345.655 280.7 346.355C280.6 347.055 280 347.455 279.4 347.455Z" fill="#A6FDE2"/>
<path d="M433.4 325.155C433.4 325.055 433.4 325.055 433.4 325.155C433.3 325.155 433.3 325.155 433.3 325.155C412.6 347.855 422.9 350.055 422.9 350.055C422.9 350.055 415.7 366.155 433.3 366.255H433.5C451 366.055 443.8 350.055 443.8 350.055C443.8 350.055 454.1 347.855 433.4 325.155Z" fill="#00B797"/>
<path d="M432.8 373.755C432.1 373.755 431.5 373.155 431.5 372.455V338.555C431.5 337.855 432.1 337.255 432.8 337.255C433.5 337.255 434.1 337.855 434.1 338.555V372.455C434.1 373.155 433.5 373.755 432.8 373.755Z" fill="#A6FDE2"/>
<path d="M433.1 357.855C432.6 357.855 432.1 357.555 431.9 357.055C431.6 356.355 432 355.655 432.7 355.355C436.8 353.755 438.8 348.255 438.8 348.155C439 347.455 439.8 347.155 440.5 347.355C441.2 347.555 441.5 348.355 441.3 349.055C441.2 349.355 438.9 355.755 433.7 357.755C433.4 357.855 433.3 357.855 433.1 357.855Z" fill="#A6FDE2"/>
<path d="M258.9 374.955C273.3 374.855 287.7 374.755 302.1 374.655C309.3 374.655 316.5 374.655 323.7 374.555H345.3H366.9H377.7H383.1H388.5C402.9 374.655 429.7 374.655 444.1 374.855C429.7 374.955 402.9 375.055 388.5 375.155H383.1H377.7H366.9H345.3H323.7C316.5 375.155 309.3 375.155 302.1 375.055C287.7 375.155 273.3 375.155 258.9 374.955Z" fill="#DFDFD8"/>
<path d="M345.3 374.655H317C312 374.655 307 374.655 302 374.655C286.2 374.655 272 374.555 258.8 374.355C258.1 374.355 257.5 373.755 257.5 373.055C257.5 372.355 258.1 371.755 258.8 371.755C274.1 371.655 289.2 371.555 302 371.455C306.8 371.455 311.6 371.455 316.4 371.455H345.2L397.2 371.555C412 371.555 432.2 371.655 444.1 371.755C444.8 371.755 445.4 372.355 445.4 373.055C445.4 373.755 444.8 374.355 444.1 374.355C432.3 374.455 412 374.555 397.2 374.555L366.8 374.655H345.3Z" fill="#DFDFD8"/>
<path d="M94.9 283.055C93.3 283.055 91.8 283.855 90.8 285.155C82.5 295.955 91.8 321.655 92.3 329.655C93 339.455 91.8 346.655 91.8 346.655C91.8 346.655 100.6 346.455 107.6 349.755C114.6 353.055 117.9 340.555 116.7 330.655C113.2 302.855 112.8 282.655 94.9 283.055Z" fill="#F7576C"/>
<path d="M76.0003 271.055C75.3003 271.055 74.6003 270.855 74.0003 270.555C72.0003 269.455 71.3003 266.955 72.4003 264.955C73.5003 262.955 76.0003 262.255 78.0003 263.455C79.0003 263.955 79.7003 264.855 80.0003 265.955C80.3003 266.955 80.2003 268.055 79.7003 269.055C78.8003 270.355 77.4003 271.055 76.0003 271.055ZM75.9003 264.455C75.0003 264.455 74.1003 264.955 73.6003 265.755C72.9003 266.955 73.4003 268.555 74.7003 269.255C76.0003 269.955 77.6003 269.555 78.3003 268.255C78.6003 267.655 78.7003 266.955 78.5003 266.355C78.3003 265.655 77.8003 265.155 77.2003 264.755C76.8003 264.555 76.3003 264.455 75.9003 264.455Z" fill="#21262A"/>
<path d="M84.8001 271.755C84.1001 271.755 83.4001 271.555 82.8001 271.255C80.8001 270.155 80.1001 267.555 81.2001 265.555C81.7001 264.555 82.6001 263.855 83.7001 263.555C84.8001 263.255 85.9001 263.355 86.8001 263.955C88.8001 265.055 89.5001 267.655 88.4001 269.655C87.9001 270.655 87.0001 271.355 85.9001 271.655C85.6001 271.655 85.2001 271.755 84.8001 271.755ZM84.9001 264.855C84.7001 264.855 84.4001 264.855 84.2001 264.955C83.5001 265.155 82.9001 265.655 82.6001 266.255C81.9001 267.555 82.3001 269.155 83.6001 269.855C84.2001 270.155 84.9001 270.255 85.6001 270.055C86.3001 269.855 86.9001 269.355 87.2001 268.755C87.9001 267.455 87.5001 265.855 86.2001 265.155C85.8001 264.955 85.3001 264.855 84.9001 264.855Z" fill="#21262A"/>
<path d="M82.0004 266.155C81.8004 266.155 81.5004 266.055 81.4004 265.855C81.4004 265.855 81.1004 265.455 80.5004 265.455C80.0004 265.455 79.7004 265.855 79.6004 265.955L78.4004 265.155C78.6004 264.855 79.3004 263.955 80.5004 263.955C81.8004 263.955 82.5004 264.855 82.6004 265.055C82.8004 265.355 82.8004 265.855 82.4004 266.055C82.3004 266.155 82.1004 266.155 82.0004 266.155Z" fill="#21262A"/>
<path d="M87.9002 266.255C87.5002 266.255 87.2002 265.955 87.2002 265.555C87.2002 265.155 87.5002 264.755 87.9002 264.755L90.4002 264.655C90.8002 264.655 91.2002 264.955 91.2002 265.355C91.2002 265.755 90.9002 266.155 90.5002 266.155L87.9002 266.255Z" fill="#21262A"/>
<path d="M110 412.055H70.9004C70.3004 412.055 69.9004 411.655 69.9004 411.055C69.9004 410.455 70.3004 410.055 70.9004 410.055H109C109.1 408.455 110.4 407.955 109.2 405.355C109 404.855 109.2 404.255 109.7 404.055C110.2 403.855 110.8 404.055 111 404.555C112.9 408.455 111 410.955 111 411.255C110.9 411.655 110.5 412.055 110 412.055Z" fill="#21262A"/>
<path d="M95 270.855C95.1 271.855 94.3 272.655 93.4 272.655C92.4 272.755 91.6003 271.955 91.6003 271.055C91.5003 270.055 92.3 269.255 93.2 269.255C94.1 269.155 94.9 269.855 95 270.855Z" fill="white"/>
<path d="M91.8003 315.555C91.8003 315.555 80.5003 322.455 77.2003 323.855C74.5003 324.955 72.7003 323.355 70.4003 325.555C68.2003 326.455 64.9003 325.155 63.6003 327.255C62.7003 328.555 65.6003 328.755 67.7003 328.755C64.7003 331.155 59.3003 331.155 58.0003 332.455C56.5003 333.955 61.0003 335.155 64.3003 335.455C67.6003 335.755 70.5003 334.455 73.7003 331.555C73.7003 331.555 73.7003 331.555 73.8003 331.555H73.7003C73.7003 331.555 91.7003 328.255 95.9 327.055L91.8003 315.555Z" fill="#F8D4AB"/>
<path d="M42.5003 246.555C41.9003 246.555 41.3003 246.055 41.2003 245.455C40.2003 237.755 41.2003 229.955 41.2003 229.655C41.3003 228.955 42.0003 228.455 42.7003 228.555C43.4003 228.655 43.9003 229.355 43.8003 230.055C43.8003 230.155 42.8003 237.855 43.8003 245.155C43.9003 245.855 43.4003 246.555 42.7003 246.655C42.6003 246.555 42.5003 246.555 42.5003 246.555Z" fill="#DFDFD8"/>
<path d="M51.2 245.955C50.6 245.955 50 245.555 49.9 244.855C48.8 239.555 49.9 234.055 49.9 233.855C50 233.155 50.7 232.655 51.4 232.855C52.1 232.955 52.6 233.655 52.4 234.355C52.4 234.455 51.4 239.555 52.4 244.355C52.5 245.055 52.1 245.755 51.4 245.855C51.4 245.955 51.3 245.955 51.2 245.955Z" fill="#DFDFD8"/>
<path d="M91.7998 315.555L95.9 313.155C95.9 313.155 93 303.655 93.1 297.055C93.2 290.455 100 283.655 106 294.155C106 294.155 108.5 300.855 108.2 303.155C107.9 305.455 107.2 316.955 106.7 320.555C106.2 324.055 101.2 324.855 101.2 324.855L95.9 327.155L91.7998 315.555Z" fill="#F7576C"/>
<path d="M65.6999 336.455C63.3999 336.455 60.6999 335.855 57.3999 334.255C56.8999 334.055 56.6999 333.455 56.8999 332.955C57.0999 332.455 57.6999 332.255 58.1999 332.455C67.4999 337.055 71.2999 332.655 72.7999 331.055C72.9999 330.855 73.1999 330.655 73.4999 330.655C79.0999 329.955 84.7999 328.855 90.1999 327.355C94.7 326.055 99.3 324.555 103.6 322.755C105.1 321.855 106.2 319.555 106.3 317.055C106.4 316.155 106.4 315.255 106.5 314.355C106.9 308.855 107.2 303.255 105.7 296.355C105.6 295.855 105.9 295.255 106.5 295.155C107 295.055 107.6 295.355 107.7 295.955C109.3 303.155 108.9 309.155 108.6 314.555C108.5 315.455 108.5 316.355 108.4 317.255C108.2 320.555 106.8 323.355 104.6 324.655C104.6 324.655 104.5 324.655 104.5 324.755C100 326.555 95.4 328.155 90.7999 329.455C85.3999 330.955 79.6999 332.055 74.0999 332.755C72.8999 333.855 70.2999 336.455 65.6999 336.455Z" fill="#21262A"/>
<path d="M84.5997 289.755L82.7997 284.655C82.7997 284.655 79.6997 293.155 80.2997 302.655" fill="white"/>
<path d="M27.4341 412.454C32.9341 401.154 29.5341 380.254 40.1341 384.454C49.2341 388.054 39.1341 412.654 27.4341 412.454Z" fill="#00B797"/>
<path d="M29.0215 412.055C21.1215 393.955 27.6215 361.655 10.9215 367.555C-3.37857 372.555 10.9215 411.655 29.0215 412.055Z" fill="#00B797"/>
<path d="M30.3003 412.455C30.0003 412.455 29.7003 412.355 29.5003 412.155C28.9003 411.655 28.9003 410.855 29.3003 410.355C29.4003 410.255 34.6003 403.955 37.0003 393.755C37.2003 393.055 37.9003 392.655 38.6003 392.755C39.3003 392.955 39.7003 393.655 39.6003 394.355C37.0003 405.155 31.6003 411.755 31.3003 412.055C31.1003 412.255 30.7003 412.455 30.3003 412.455Z" fill="#A6FDE2"/>
<path d="M25.8002 411.955C25.4002 411.955 24.9002 411.755 24.7002 411.355C14.5002 394.955 14.2002 381.855 14.2002 381.355C14.2002 380.655 14.8002 380.055 15.5002 380.055C16.2002 380.055 16.8002 380.655 16.8002 381.355C16.8002 381.455 17.1002 394.255 26.9002 410.055C27.3002 410.655 27.1002 411.455 26.5002 411.855C26.3002 411.955 26.0002 411.955 25.8002 411.955Z" fill="#A6FDE2"/>
<path d="M301.2 305.455H219.1C218 305.455 217.3 304.355 217.7 303.355L254.6 210.755C254.8 210.155 255.4 209.855 256 209.855H338.1C339.2 209.855 339.9 210.955 339.5 211.955L302.6 304.555C302.4 305.055 301.9 305.455 301.2 305.455Z" fill="#F5CD91"/>
<path d="M229.5 297.255L261.1 218.055H327.8L300.3 287.155C296.5 289.655 289.8 294.755 286.1 297.255H229.5Z" fill="white"/>
<path d="M300.3 287.155L287.2 286.255L286.1 297.255L300.3 287.155Z" fill="#DFDFD8"/>
<path d="M295.9 206.755C294.3 206.755 293 205.455 293 203.855C293 202.255 294.3 200.955 295.9 200.955C297.5 200.955 298.8 202.255 298.8 203.855C298.7 205.455 297.4 206.755 295.9 206.755Z" fill="white"/>
<path d="M296.8 208.255H280.9C277.5 208.255 276 208.955 274.6 211.255L270.2 222.455H311L316.6 211.655C317.4 210.055 315.8 208.255 313.4 208.255H296.8Z" fill="#F9C741"/>
<path d="M310.4 237.055H276.9C276.3 237.055 275.9 236.655 275.9 236.055C275.9 235.455 276.3 235.055 276.9 235.055H310.4C311 235.055 311.4 235.455 311.4 236.055C311.4 236.655 311 237.055 310.4 237.055Z" fill="#21262A"/>
<path d="M305.2 252.755H271.7C271.1 252.755 270.7 252.355 270.7 251.755C270.7 251.155 271.1 250.755 271.7 250.755H305.2C305.8 250.755 306.2 251.155 306.2 251.755C306.2 252.355 305.7 252.755 305.2 252.755Z" fill="#21262A"/>
<path d="M298.9 269.455H265.4C264.8 269.455 264.4 269.055 264.4 268.455C264.4 267.855 264.8 267.455 265.4 267.455H298.9C299.5 267.455 299.9 267.855 299.9 268.455C299.9 269.055 299.4 269.455 298.9 269.455Z" fill="#21262A"/>
<path d="M166.2 397.355L160.7 404.055L152.4 396.355L159.855 384.377L166.2 397.355Z" fill="#E1A373"/>
<path d="M159.6 401.655C164.5 397.055 168.9 399.555 163.4 405.255L163.9 413.355C163.9 413.355 177 415.555 171.1 422.255L163.8 421.255C159.6 420.655 155.7 418.955 152.4 416.155L143.9 408.855L145.5 404.655C145.5 404.655 145.7 395.899 152.4 396.299L159.6 401.655Z" fill="#3C4348"/>
<path d="M241.05 397.255L244.25 405.255L233.45 408.755L222.35 397.255H241.05Z" fill="#E1A373"/>
<path d="M301.9 306.855H229C228.4 306.855 228 306.455 228 305.855C228 305.255 228.4 304.855 229 304.855H300.6L338.7 211.555C338.9 211.055 339.5 210.755 340 211.055C340.5 211.255 340.8 211.855 340.5 212.355L301.9 306.855Z" fill="#21262A"/>
<path d="M221.1 255.755C228.7 248.955 244.5 224.855 248.9 225.455L246.3 231.955C246.3 231.955 248.2 232.755 253.5 232.255C258.9 231.755 249.3 237.855 243.9 238.155L231.4 270.055L221.1 255.755Z" fill="#E1A373"/>
<path d="M221.9 319.255C226.7 328.855 219.2 344.855 202.9 351.355C202.9 351.355 186.5 382.255 164.8 398.855L152.5 386.955C152.5 386.955 174.7 356.455 180.1 328.055L221.9 319.255Z" fill="#2B77CC"/>
<path d="M180.101 328.155C168.001 345.055 224.301 404.555 224.301 404.555L242.001 397.355L211.401 317.755L190.901 318.855L180.101 328.155Z" fill="#3492EF"/>
<path d="M224.099 405.355C223.799 405.355 223.599 405.255 223.399 405.055C221.099 402.555 166.699 344.755 179.099 327.355C179.399 326.955 179.999 326.755 180.499 327.155C180.899 327.455 181.099 328.055 180.699 328.555C175.999 335.055 182.099 350.055 198.299 371.855C209.399 386.955 221.899 400.455 224.399 403.155L240.599 396.955C241.099 396.755 241.699 397.055 241.899 397.555C242.099 398.055 241.799 398.655 241.299 398.855L224.399 405.255C224.399 405.255 224.199 405.355 224.099 405.355Z" fill="#21262A"/>
<path d="M201.8 231.955C202.6 226.955 198.4 224.855 195.3 225.555C195.3 225.555 190 221.955 186.6 225.555C186.6 225.555 180.3 225.555 180.2 231.955C180.2 231.955 175.2 234.855 177.6 239.055C177.6 239.055 173.9 244.255 179.4 247.755C179.4 247.755 178.4 253.355 185.7 253.355C185.7 253.355 186.5 256.955 193 253.355L201.8 231.955Z" fill="#3C4348"/>
<path d="M183.7 227.655C185.2 224.955 182.9 222.855 180.7 222.555C180.7 222.555 178.7 219.255 175.1 220.755C175.1 220.755 171.1 219.455 169.8 223.055C169.8 223.055 166.1 223.655 166.8 226.555C166.8 226.555 163.4 228.755 166.3 231.855C166.3 231.855 165.3 235.355 169.9 236.855C169.9 236.855 172.3 240.855 177.9 237.655L183.7 227.655Z" fill="#3C4348"/>
<path d="M204 255.755C203.8 255.755 203.6 255.855 203.4 255.855C203.4 255.855 203.6 256.355 203.9 256.955C204.5 258.155 205 260.755 208.6 260.755C211.1 260.755 207.7 271.855 207.7 271.855L186.5 267.155L183.1 263.855C191.9 260.955 185.7 251.255 185.7 251.255C185.7 251.255 180.9 252.055 180.9 248.255C180.9 244.455 183.7 245.155 184.7 245.955C184.7 245.955 186.5 250.055 186.9 247.655C187.3 245.255 185.7 242.955 187.3 241.455L189.4 239.555C190 238.955 190.1 238.055 189.6 237.455C188.8 236.455 188 234.955 189 233.955C190.6 232.455 196.2 230.155 200.3 230.955C200.3 230.955 204.3 235.455 206.7 240.055C208.9 244.255 213.6 253.955 204 255.755Z" fill="#E1A373"/>
<path d="M181.5 291.655L172.9 290.555C170.6 283.255 169.7 268.555 183.2 263.855C186.1 262.855 209.4 273.855 208.6 260.755C208.6 260.755 216.1 259.955 223.5 253.355C223.5 253.355 228.2 265.555 234.3 269.955L221.1 280.155C221.1 280.155 233 297.655 232.3 306.455C231.6 315.255 227.2 319.855 224.4 322.555C222.2 324.655 209.4 322.955 202.6 323.355C186.2 324.355 180.6 334.955 174.2 333.455C171.2 332.755 176.4 323.455 175 319.355C173.2 314.255 174.7 307.855 176.7 303.155C178.6 298.355 181.5 291.655 181.5 291.655Z" fill="#3C4348"/>
<path d="M169.7 242.055C169.2 242.055 168.7 241.655 168.7 241.055C168.7 240.455 169.1 240.055 169.7 240.055C173.9 239.855 176 237.355 176.1 237.255C176.4 236.855 177.1 236.755 177.5 237.155C177.9 237.455 178 238.155 177.7 238.555C177.5 238.655 174.9 241.855 169.7 242.055Z" fill="#3C4348"/>
<path d="M173.199 244.655C172.799 244.655 172.499 244.455 172.299 244.055C172.099 243.555 172.299 242.955 172.799 242.755C172.999 242.655 176.699 240.755 175.699 237.955C175.499 237.455 175.799 236.855 176.299 236.655C176.799 236.455 177.399 236.755 177.599 237.255C178.899 240.855 175.599 243.555 173.699 244.455C173.399 244.655 173.299 244.655 173.199 244.655Z" fill="#3C4348"/>
<path d="M203.133 251.223C203.533 251.123 203.933 251.023 204.233 250.823C204.533 250.723 204.633 250.323 204.533 250.023C204.433 249.723 204.033 249.623 203.733 249.723C203.233 250.023 202.633 250.123 202.033 250.123C201.233 250.123 200.533 249.723 200.133 249.523C199.833 249.323 199.533 249.423 199.333 249.723C199.133 250.023 199.233 250.423 199.533 250.523C200.333 251.023 201.133 251.323 202.033 251.323C202.333 251.323 202.733 251.223 203.133 251.223Z" fill="#21262A"/>
<path d="M193.899 242.955C194.199 243.655 195.199 243.855 195.899 243.455C196.699 243.055 197.099 242.155 196.699 241.555C196.399 240.855 195.399 240.655 194.699 241.055C193.899 241.355 193.599 242.255 193.899 242.955Z" fill="#21262A"/>
<path d="M202.3 240.155C202.6 240.855 203.6 241.055 204.3 240.655C205.1 240.255 205.5 239.355 205.1 238.755C204.8 238.055 203.8 237.855 203.1 238.255C202.3 238.655 201.9 239.555 202.3 240.155Z" fill="#21262A"/>
<path d="M203.4 255.855C203.4 255.855 203.6 256.355 203.9 256.955C202.3 257.355 200.7 257.555 199.2 257.555C196.7 257.555 194.9 257.155 194.7 257.055C194.4 256.955 194.2 256.655 194.3 256.355C194.4 256.055 194.7 255.855 195 255.955C195.1 255.855 199.2 256.855 203.4 255.855Z" fill="#21262A"/>
<path fill-rule="evenodd" clip-rule="evenodd" d="M259.2 268.055C259.2 271.155 256.7 273.655 253.6 273.655C250.5 273.655 248 271.155 248 268.055C248 264.955 250.5 262.455 253.6 262.455C256.7 262.355 259.2 264.955 259.2 268.055Z" fill="#DFDFD8"/>
<path d="M230.5 267.755L236.9 261.555L254.1 282.655L254.7 289.255L247.2 287.355L230.5 267.755Z" fill="#F9C741"/>
<path d="M230.499 267.755L228.699 265.355C227.699 263.955 227.799 262.055 228.999 260.855L230.299 259.555C231.699 258.055 234.199 258.155 235.499 259.755L236.899 261.555L230.499 267.755Z" fill="#F7576C"/>
<path d="M255.2 291.055C254.9 291.055 254.6 290.955 254.4 290.655L253.5 289.455C253.2 289.055 253.2 288.355 253.7 288.055C254.1 287.755 254.8 287.755 255.1 288.255L256 289.455C256.3 289.855 256.3 290.555 255.8 290.855C255.6 291.055 255.4 291.055 255.2 291.055Z" fill="#21262A"/>
<path d="M248.9 282.055C248.6 282.055 248.3 281.955 248.1 281.655L236.2 267.755C235.8 267.355 235.9 266.655 236.3 266.355C236.7 265.955 237.3 266.055 237.7 266.455L249.6 280.355C250 280.755 249.9 281.455 249.5 281.755C249.4 281.955 249.2 282.055 248.9 282.055Z" fill="#21262A"/>
<path d="M230.6 268.955C230.3 268.955 230.1 268.855 229.9 268.655C229.5 268.255 229.5 267.655 229.9 267.255L236.5 260.855C236.9 260.455 237.5 260.455 237.9 260.855C238.3 261.255 238.3 261.855 237.9 262.255L231.3 268.655C231.1 268.855 230.9 268.955 230.6 268.955Z" fill="#21262A"/>
<path d="M251.5 278.855C251.5 278.955 251.4 279.155 251.4 279.255C251 280.655 250.1 282.255 248.3 283.555C247.3 284.255 246.4 284.855 245.6 285.255C241.6 287.155 238.9 286.255 238.9 286.255L233.1 289.655L228.4 292.355L220.1 297.155L206.9 304.855C205.7 305.555 204.3 305.855 202.9 305.755C200.7 305.655 197.1 305.255 193.1 304.455C191.6 304.155 190 303.755 188.4 303.155H188.3C188.2 303.155 188.1 303.155 188.1 303.055C186.5 302.555 184.9 301.855 183.4 301.155C181.8 300.355 180.2 299.455 178.8 298.255C178.2 297.855 177.7 297.355 177.2 296.855C176.8 296.455 176.4 296.055 176 295.555C174.7 294.055 173.7 292.355 173.1 290.455L193.4 283.955C196.6 286.655 203.5 291.455 203.5 291.455C207.7 287.255 211.8 285.555 220.3 283.055C221.2 282.755 222.1 282.455 222.9 282.255C224.2 281.755 225.5 281.355 226.6 280.855C229.2 279.855 231.6 278.855 234.4 278.355C234.4 277.855 234.5 276.955 235 275.955C235.4 275.055 236 274.455 236.4 274.055C236.4 274.055 236.4 274.055 236.5 273.955C237.3 274.855 237.9 275.655 238.4 276.255C238.9 276.855 239.3 277.355 239.5 277.555L239.6 277.655C241.3 276.355 242.9 275.455 244.2 274.755C245.3 274.255 246.3 273.955 247.1 273.755C247.2 273.755 247.2 273.755 247.3 273.655C249.8 273.055 251.2 273.455 251.2 273.455C251.2 273.455 252.1 276.155 251.5 278.855Z" fill="#E1A373"/>
<path d="M241.55 405.155C239.95 398.555 244.25 395.955 246.55 403.555L253.95 407.055C253.95 407.055 263.85 404.155 266.85 412.555L240.35 422.255L237.45 418.855C238.108 419.538 230.5 415.151 233.299 408.619L241.55 405.155Z" fill="#3C4348"/>
<path fill-rule="evenodd" clip-rule="evenodd" d="M265.2 250.755C265.2 253.855 262.7 256.355 259.6 256.355C256.5 256.355 254 253.855 254 250.755C254 247.655 256.5 245.155 259.6 245.155C262.7 245.155 265.2 247.655 265.2 250.755Z" fill="#A6FDE2"/>
<path fill-rule="evenodd" clip-rule="evenodd" d="M270.6 234.755C270.6 237.955 268 240.455 264.9 240.455C261.7 240.455 259.2 237.855 259.2 234.755C259.2 231.555 261.8 229.055 264.9 229.055C268 229.055 270.6 231.555 270.6 234.755Z" fill="#A6FDE2"/>
<path d="M263.746 238.167C263.451 238.115 263.271 237.981 263.109 237.749L261.005 234.734C260.681 234.27 260.786 233.68 261.25 233.356C261.714 233.032 262.304 233.137 262.628 233.601L263.923 235.456C265.107 233.94 267.468 231.516 270.898 230.501C271.443 230.293 271.999 230.595 272.207 231.14C272.415 231.685 272.113 232.24 271.568 232.448C267.262 233.816 264.836 237.752 264.836 237.752C264.685 238.029 264.354 238.174 264.041 238.22C263.844 238.185 263.746 238.167 263.746 238.167Z" fill="#00B797"/>
<path d="M209 281.455C208.3 281.455 207.9 280.955 206.9 279.955C205.5 278.455 202.9 275.655 197.3 271.155C194.7 269.055 192.4 267.755 190.6 266.655C187.4 264.755 185.1 263.455 185.8 259.955C185.9 259.455 186.4 259.055 187 259.155C187.5 259.255 187.9 259.755 187.8 260.355C187.4 262.355 188.3 263.055 191.6 264.955C193.5 266.055 195.8 267.455 198.5 269.555C204.2 274.155 206.9 277.055 208.3 278.655C208.4 278.855 208.6 278.955 208.7 279.155C210.3 274.655 206.6 264.355 204.9 260.655C204.7 260.155 204.9 259.555 205.4 259.355C205.9 259.155 206.5 259.355 206.7 259.855C207.4 261.455 213.3 275.255 210.1 280.755C210 280.955 209.7 281.555 209 281.555C209.1 281.455 209.1 281.455 209 281.455Z" fill="#F9C741"/>
<path d="M164.801 399.855C164.501 399.855 164.301 399.755 164.101 399.555L151.801 387.655C151.501 387.355 151.401 386.755 151.701 386.355C151.901 386.055 174.401 352.255 177.401 337.455C177.501 336.955 178.001 336.555 178.601 336.655C179.101 336.755 179.501 337.255 179.401 337.855C176.501 351.955 157.201 381.655 153.801 386.755L165.501 398.055C165.901 398.455 165.901 399.055 165.501 399.455C165.301 399.755 165.001 399.855 164.801 399.855Z" fill="#21262A"/>
<path d="M189.1 299.755C189.4 299.455 189.4 298.855 189.2 298.455C188.7 297.855 188 297.555 187.2 297.655C186.4 297.755 186 298.255 185.8 298.955C185.3 300.555 186.3 302.455 187.9 303.055C186.3 302.555 184.7 301.855 183.2 301.155C182.5 299.355 182.5 297.555 183.1 295.755C183.2 295.555 183.2 295.355 183.4 294.955C183.2 295.055 183 295.155 182.8 295.255C181.7 295.755 180.5 296.255 179.3 296.555C178.7 296.655 178.2 296.855 177.6 296.855C177.4 296.855 177.2 296.855 177 296.855C176.6 296.455 176.2 296.055 175.8 295.555C177.1 295.255 178.3 294.655 179.4 293.955C179.9 293.655 180.4 293.255 180.9 292.855C181.3 292.555 181.7 292.255 182.1 292.055C183.9 290.755 185.9 290.655 188 291.355C188.4 291.455 188.5 291.755 188.1 292.155C187.5 292.855 186.9 293.555 186.2 294.255C186.1 294.355 186 294.555 185.9 294.755C186.1 294.755 186.3 294.655 186.5 294.655C188.4 294.455 190.4 295.455 191.2 297.155C191.9 298.455 191.6 300.055 190.5 301.055C189.5 301.955 187.9 301.655 187.6 300.355C187.5 300.155 187.6 299.855 187.7 299.655C187.9 299.655 188.1 299.655 188.3 299.755C188.6 299.955 188.9 300.055 189.1 299.755Z" fill="#21262A"/>
<path d="M206 298.255C205.4 299.055 204.5 299.655 203.5 299.955C201.8 300.655 200 300.555 198.2 300.155C197.3 299.955 196.5 299.655 195.6 299.355C195.7 300.655 195.5 301.855 194.7 302.955C194.2 303.555 193.6 304.155 192.9 304.555C191.4 304.255 189.8 303.855 188.2 303.255C190.4 303.855 192.6 302.355 192.9 300.055C193.3 297.255 191.1 294.155 188.3 293.655C188.1 293.655 187.9 293.455 187.7 293.355C187.8 293.155 187.9 292.855 188.1 292.655C189.8 291.455 191.5 291.355 193.3 292.255C194.7 292.955 196.1 293.555 197.6 293.955C198.5 294.255 199.6 294.255 200.5 294.355C200.7 294.355 201 294.555 201 294.655C201 294.855 200.9 295.055 200.7 295.255C198.9 296.455 197 296.755 195 295.855C194.8 295.755 194.5 295.555 194.3 295.455L194.2 295.555C194.4 295.755 194.7 296.055 194.9 296.155C198.2 297.755 201.7 298.455 205.3 297.555C205.5 297.555 205.8 297.555 205.8 297.655C206.1 297.855 206.1 298.155 206 298.255Z" fill="#21262A"/>
<path d="M200.161 246.927C200.831 247.03 201.553 246.953 202.181 246.746C202.8 246.549 203.41 246.205 203.788 245.715C203.986 245.466 204.132 245.165 204.175 244.812C204.218 244.46 204.141 244.107 203.969 243.781C203.625 243.145 202.903 242.595 201.846 242.105L201.304 243.274C202.275 243.721 202.688 244.125 202.834 244.391C202.903 244.511 202.903 244.597 202.903 244.658C202.894 244.726 202.86 244.812 202.783 244.915C202.611 245.13 202.267 245.362 201.794 245.517C201.33 245.663 200.814 245.715 200.367 245.646L200.161 246.927ZM201.837 242.113C201.51 241.967 201.132 242.105 200.986 242.431C200.84 242.758 200.977 243.136 201.304 243.282L201.837 242.113ZM200.35 245.655C199.997 245.603 199.671 245.844 199.619 246.196C199.568 246.549 199.808 246.875 200.161 246.927L200.35 245.655Z" fill="#21262A"/>
<path d="M258.769 254.019C258.473 253.969 258.293 253.836 258.13 253.605L255.927 250.486C255.6 250.024 255.702 249.433 256.164 249.107C256.626 248.78 257.218 248.882 257.544 249.344L258.931 251.308C260.106 249.785 262.454 247.348 265.994 246.232C266.538 246.021 267.095 246.32 267.306 246.864C267.517 247.407 267.218 247.965 266.674 248.175C262.376 249.567 259.856 253.598 259.856 253.598C259.707 253.876 259.377 254.023 259.064 254.07C258.867 254.036 258.769 254.019 258.769 254.019Z" fill="#00B797"/>
<path d="M338.229 337.005H381.229V367.055H366.03L366.13 349.355C366.13 346.1 363.53 343.455 360.33 343.455H359.33C356.13 343.455 353.53 346.1 353.53 349.355V367.055H338.229V337.005Z" fill="#ADBAC2"/>
<path d="M407.4 335.155H311.8C308.5 335.155 305.5 333.555 304.5 331.155L302.6 327.055H416.7L414.8 331.155C413.7 333.555 410.7 335.155 407.4 335.155Z" fill="#ADBAC2"/>
<path d="M385.9 303.155H333.2C330.3 303.155 327.7 301.555 326.7 299.155L325 295.055H394L392.3 299.155C391.5 301.555 388.9 303.155 385.9 303.155Z" fill="#ADBAC2"/>
<path d="M402 337.055H395V367.055H402V337.055Z" fill="white"/>
<path d="M385.3 305.455H333.9V328.655H385.3V305.455Z" fill="#ADBAC2"/>
<path d="M332.6 299.355C332.6 284.155 345 271.755 360.2 271.755C375.4 271.755 387.8 284.155 387.8 299.355" fill="#ADBAC2"/>
<path d="M366.8 318.655C366.8 322.455 363.7 325.555 359.9 325.555C356.1 325.555 353 322.455 353 318.655C353 314.855 356.1 311.755 359.9 311.755C363.7 311.755 366.8 314.755 366.8 318.655Z" fill="white"/>
<path d="M361.3 254.155H358.7V277.455H361.3V254.155Z" fill="#859299"/>
<path d="M383.7 252.255C383.7 252.255 372 260.055 373.5 253.455C375 246.855 364.6 250.655 360 254.655V265.955C364.6 261.955 375.1 258.155 373.5 264.755C372 271.355 383.7 263.555 383.7 263.555C383.7 263.555 387.2 259.455 383.7 252.255Z" fill="#F7576C"/>
<path d="M415 366.955H304.2V374.755H415V366.955Z" fill="#ADBAC2"/>
<path d="M332.243 337.005H325V366.955H332.243V337.005Z" fill="#ADBAC2"/>
<path d="M394 337.005H386.757V366.955H394V337.005Z" fill="#ADBAC2"/>
<path d="M318.585 337.005H309.7V366.955H318.585V337.005Z" fill="#ADBAC2"/>
<path d="M409.3 337.005H400.415V366.955H409.3V337.005Z" fill="#ADBAC2"/>
<path d="M422.2 378.655H297V386.455H422.2V378.655Z" fill="#ADBAC2"/>
</svg>
