<svg width="313" height="184" viewBox="0 0 313 184" fill="none" xmlns="http://www.w3.org/2000/svg">
<path d="M50.2231 143.828C53.4768 137.374 59.3433 107.074 49.7301 95.8907C42.5325 87.5153 30.6515 93.4273 38.3421 110.03C47.6102 130.033 50.5189 144.419 50.5189 144.419C50.5189 144.419 50.9626 119.391 45.1946 104.512L50.2231 143.828Z" fill="#00B797"/>
<path d="M50.9621 152.795C50.7156 152.696 50.4691 152.597 50.2226 152.45C38.736 146.833 26.6086 124.614 32.2286 119.933C36.8134 116.091 44.2575 132.447 46.4266 139.394C48.0042 144.419 49.5818 149.1 50.3705 151.317C50.5677 151.858 50.6663 152.203 50.7649 152.45L50.9621 152.795Z" fill="#00B797"/>
<path d="M58.4065 136.438C58.4065 136.438 53.5753 148.705 49.8286 152.006C49.8286 152.006 51.1596 147.917 52.3921 143.434C53.6246 138.95 58.1108 128.309 61.118 130.673C64.8647 133.629 57.1248 148.656 49.73 152.055L58.4065 136.438Z" fill="#00B797"/>
<path d="M59.9839 134.96C59.7867 135.945 59.4416 136.832 59.0473 137.719C58.6529 138.605 58.2585 139.492 57.8148 140.33C57.3711 141.167 56.8781 142.005 56.3851 142.842C55.8921 143.68 55.3499 144.468 54.6597 145.207C54.5118 145.404 54.216 145.404 54.0188 145.257C53.8709 145.109 53.8216 144.912 53.9202 144.715C54.3146 143.877 54.8076 143.04 55.3006 142.251C55.7442 141.414 56.1879 140.576 56.6316 139.739C57.0753 138.901 57.4697 138.064 57.8641 137.226C58.2585 136.388 58.7022 135.551 59.1458 134.713C59.2444 134.516 59.5402 134.418 59.7374 134.566C59.9346 134.615 59.9839 134.812 59.9839 134.96Z" fill="#A6FDE2"/>
<path d="M47.8079 157.573C50.2235 157.672 50.6672 153.041 48.3994 151.218C48.3994 151.218 50.1742 145.897 49.484 140.182L51.4067 140.33C51.4067 140.33 50.9137 146.193 51.8996 149.296C52.8856 152.4 53.5758 157.031 51.6039 157.82L47.8079 157.573Z" fill="#00B797"/>
<path d="M50.0253 132.644C49.7295 129.688 49.483 126.683 49.0886 123.727C48.7928 120.771 48.3984 117.815 47.8561 114.859C47.3139 111.903 46.7223 108.996 45.8349 106.188C44.9968 103.33 43.9122 100.571 42.6305 97.9109C42.5319 97.7138 42.6305 97.4182 42.8277 97.3197C43.0249 97.2212 43.2714 97.3197 43.4193 97.4675C44.9968 100.079 46.1307 102.936 47.0181 105.794C47.9054 108.7 48.6449 111.607 49.1379 114.612C49.6802 117.568 50.0746 120.574 50.3704 123.579C50.6662 126.584 50.8634 129.59 50.8634 132.595C50.8634 132.841 50.6662 133.038 50.4197 133.038C50.2225 133.038 50.0253 132.891 50.0253 132.644Z" fill="#A6FDE2"/>
<path d="M37.7502 129.836C38.4404 131.363 39.1799 132.89 39.9686 134.418C40.7081 135.945 41.5462 137.423 42.3843 138.901C43.2224 140.379 44.1097 141.857 44.9971 143.286C45.8845 144.714 46.8212 146.192 47.6592 147.621C47.7578 147.818 47.7085 148.114 47.5113 148.212C47.3141 148.311 47.0676 148.262 46.9198 148.114C45.8352 146.784 44.8492 145.355 43.9125 143.926C42.9759 142.497 42.0392 141.019 41.2011 139.541C40.3137 138.063 39.525 136.536 38.7362 134.96C37.9967 133.383 37.3065 131.806 36.8628 130.082C36.8135 129.836 36.9614 129.589 37.1586 129.54C37.4544 129.54 37.6516 129.639 37.7502 129.836Z" fill="#A6FDE2"/>
<path d="M63.2372 166.729C63.2372 171.673 59.2295 174.314 54.2838 174.434C51.3024 174.506 48.0855 174.574 45.2251 174.585C40.5611 174.604 37.2568 170.924 37.2568 166.263C37.2568 160.784 41.7015 156.342 47.1843 156.342H54.2796C59.2268 156.342 63.2372 161.785 63.2372 166.729Z" fill="#F7576C"/>
<path d="M96.2858 64.6579C92.2991 64.5735 88.3887 63.5474 84.874 61.6634C83.9077 61.0199 80.1904 59.3896 81.4776 57.887C81.5924 57.7625 81.7356 57.6677 81.895 57.6106C82.0544 57.5535 82.2252 57.5359 82.3929 57.5592C83.6785 57.7562 84.9488 58.0424 86.1945 58.4158C89.8925 59.4305 93.4596 60.8728 96.8238 62.7133C97.0139 62.835 97.16 63.0143 97.2407 63.225C97.3214 63.4358 97.3326 63.6668 97.2724 63.8843C97.2122 64.1018 97.084 64.2944 96.9065 64.4337C96.7289 64.5729 96.5115 64.6517 96.2859 64.6583L96.2858 64.6579Z" fill="#F88A42"/>
<path d="M101 53.3023C96.4149 49.5063 92.2829 45.1943 88.6857 40.4517C87.4574 38.8816 86.3337 37.2325 85.3216 35.515C85.2024 35.3085 85.1584 35.0671 85.1969 34.8318C85.2355 34.5965 85.3542 34.3818 85.5331 34.2241C85.7119 34.0664 85.9398 33.9755 86.178 33.9668C86.4162 33.958 86.6501 34.032 86.84 34.1762C91.4469 37.9485 95.5753 42.2702 99.1332 47.045C100.357 48.6165 101.487 50.2588 102.518 51.9634C102.64 52.1698 102.686 52.4122 102.648 52.6488C102.61 52.8855 102.491 53.1016 102.312 53.2601C102.132 53.4185 101.903 53.5094 101.663 53.5171C101.424 53.5248 101.189 53.4489 101 53.3023Z" fill="#F88A42"/>
<path d="M111.155 49.3159C109.552 45.3997 109.137 41.0984 109.962 36.9479C110.018 36.7359 110.137 36.546 110.304 36.4032C110.47 36.2604 110.676 36.1715 110.894 36.1482C111.112 36.1249 111.332 36.1683 111.525 36.2727C111.718 36.3771 111.874 36.5376 111.974 36.7329C112.448 37.7009 112.807 38.7214 113.042 39.7732C113.511 41.2328 114.607 50.7498 111.895 50.0299C111.723 49.9793 111.566 49.888 111.437 49.7637C111.308 49.6393 111.211 49.4857 111.155 49.3159H111.155Z" fill="#F88A42"/>
<path d="M278.637 109.452H195.403V63.6052H278.637V109.452ZM275.147 69.5616L199.948 69.1265V103.503H275.147V69.5616Z" fill="#E1A373"/>
<path fill-rule="evenodd" clip-rule="evenodd" d="M199.004 67.9386H275.428V105.127H199.004V67.9386ZM200.584 69.5175V103.548H273.848V69.5175H200.584Z" fill="#F5CD91"/>
<path d="M200.959 96.3827C241.013 84.1209 225.833 104.729 273.831 93.8228V103.519H201.031L200.959 96.3827Z" fill="#00D5B0"/>
<path fill-rule="evenodd" clip-rule="evenodd" d="M264.526 87.8638V100.678H263.021V87.8638H264.526Z" fill="#00D5B0"/>
<path fill-rule="evenodd" clip-rule="evenodd" d="M255.057 88.4526V99.4848H253.551V88.4526H255.057Z" fill="#00D5B0"/>
<path d="M267.636 82.3616C267.636 87.4608 265.976 91.5907 263.922 91.5907C261.867 91.5907 260.208 87.4608 260.208 82.3616C260.208 77.2625 261.867 73.1326 263.922 73.1326C265.976 73.1326 267.636 77.2625 267.636 82.3616Z" fill="#00D5B0"/>
<path d="M256.954 84.5161C256.954 88.005 255.815 90.8378 254.408 90.8378C253.002 90.8378 251.863 88.005 251.863 84.5161C251.863 81.0273 253.002 78.1945 254.408 78.1945C255.815 78.1945 256.954 81.0198 256.954 84.5161Z" fill="#00D5B0"/>
<path fill-rule="evenodd" clip-rule="evenodd" d="M246.14 91.3599V98.8958H244.634V91.3599H246.14Z" fill="#00D5B0"/>
<path d="M248.037 88.4673C248.037 91.1809 246.898 93.38 245.491 93.38C244.084 93.38 242.946 91.1809 242.946 88.4673C242.946 85.7537 244.084 83.5546 245.491 83.5546C246.898 83.5546 248.037 85.7537 248.037 88.4673Z" fill="#00D5B0"/>
<path d="M131.531 70.7477C146.888 62.1585 169.1 64.6764 184.992 71.9057C207.407 96.9354 197.601 152.15 194.491 174.379C194.491 174.379 143.768 175.559 112.401 173.054C112.401 173.054 112.14 81.5932 131.531 70.7477Z" fill="#3492EF"/>
<path d="M145.835 86.8739C145.776 87.0028 108.008 125.652 108.008 125.652L137.211 147.924L128.445 157.577C128.445 157.577 127.874 157.419 126.844 157.089L126.484 156.975C124.984 156.493 122.698 155.697 119.923 154.564C119.694 154.478 119.455 154.382 119.217 154.275C118.63 154.034 118.015 153.771 117.379 153.497C117.022 153.332 116.665 153.177 116.298 153.011C115.534 152.667 114.751 152.302 113.949 151.915C113.633 151.762 113.306 151.609 112.979 151.446C111.584 150.767 110.152 150.017 108.683 149.198C107.757 148.68 106.812 148.142 105.878 147.573C105.327 147.243 104.778 146.902 104.228 146.562C104.218 146.551 104.208 146.55 104.199 146.539C103.688 146.222 103.189 145.895 102.679 145.557C100.257 143.966 97.9302 142.232 95.7123 140.366C95.2953 140.024 94.8889 139.672 94.4826 139.32C94.4146 139.265 94.3569 139.21 94.2991 139.155C93.7867 138.705 93.2954 138.245 92.7939 137.786C92.7736 137.755 92.7475 137.729 92.7171 137.709C92.2072 137.218 91.7076 136.728 91.2092 136.217C91.1906 136.206 91.1742 136.191 91.1609 136.174C90.7299 135.728 90.2988 135.283 89.8792 134.818C89.7738 134.709 89.6785 134.601 89.5833 134.494C89.1441 134.017 88.7257 133.532 88.308 133.036C87.1528 131.659 86.3712 130.008 86.0383 128.242C85.7826 126.869 85.7982 125.459 86.0844 124.093C90.4609 103.596 109.161 73.0553 141.446 66.8808C151.8 64.9 150.448 77.3893 145.835 86.8739Z" fill="#3492EF"/>
<path fill-rule="evenodd" clip-rule="evenodd" d="M114.562 62.4115C111.368 62.7178 108.968 65.6407 109.26 68.9906C109.553 72.3405 112.42 74.7582 115.614 74.4519C118.807 74.1456 121.208 71.2227 120.915 67.8728C120.623 64.5228 117.756 62.1051 114.562 62.4115ZM107.373 69.1716C106.994 64.8292 110.112 60.9346 114.397 60.5236C118.683 60.1125 122.424 63.3492 122.803 67.6917C123.182 72.0342 120.064 75.9287 115.779 76.3398C111.493 76.7508 107.752 73.5141 107.373 69.1716Z" fill="#FEDB5E"/>
<path d="M124.354 85.3405C128.691 84.9245 131.892 80.9707 131.502 76.5094C131.112 72.0482 127.28 68.7689 122.942 69.1849C118.605 69.601 115.404 73.5548 115.794 78.016C116.184 82.4773 120.016 85.7565 124.354 85.3405Z" fill="#F9C741"/>
<path d="M155.417 163.877C180.54 161.468 199.076 138.568 196.819 112.73C194.563 86.8912 172.367 67.8983 147.244 70.3078C122.121 72.7174 103.585 95.617 105.841 121.456C108.098 147.294 130.294 166.287 155.417 163.877Z" fill="#FEDB5E"/>
<path d="M162.39 155.419C155.014 157.695 147.156 157.672 139.809 155.353C132.461 153.034 125.954 148.523 121.111 142.391C116.268 136.259 113.306 128.781 112.6 120.902C111.894 113.024 113.475 105.099 117.143 98.1294C120.812 91.1601 126.403 85.4595 133.21 81.7484C140.017 78.0374 147.734 76.4825 155.385 77.2806C163.036 78.0786 170.277 81.1937 176.193 86.2318C182.109 91.27 186.435 98.005 188.622 105.585C191.543 115.75 190.421 126.705 185.504 136.047C180.586 145.39 172.273 152.356 162.39 155.419Z" fill="white"/>
<path fill-rule="evenodd" clip-rule="evenodd" d="M136.46 91.4481C137.02 91.3893 137.558 91.6654 137.834 92.1527L138.714 93.7037C140.335 92.7526 142.055 91.9787 143.847 91.399C147.618 90.1791 151.606 89.8519 155.511 90.442C159.415 91.032 163.134 92.5235 166.388 94.8017C169.641 97.0798 172.346 100.085 174.301 103.591C176.257 107.096 177.414 111.012 177.687 115.046C177.96 119.08 177.342 123.129 175.877 126.892C174.413 130.655 172.14 134.034 169.226 136.776C167.812 138.106 166.836 138.888 165.762 139.534C164.933 140.032 164.051 140.442 162.931 140.963C162.658 141.09 162.371 141.224 162.066 141.367C161.354 141.702 160.509 141.398 160.181 140.687C159.852 139.977 160.163 139.129 160.875 138.794C161.222 138.631 161.536 138.485 161.822 138.352C162.918 137.842 163.627 137.512 164.314 137.099C165.139 136.603 165.945 135.974 167.289 134.711C169.887 132.266 171.919 129.248 173.23 125.879C174.541 122.51 175.096 118.88 174.851 115.262C174.606 111.644 173.569 108.133 171.817 104.994C170.066 101.854 167.647 99.1692 164.745 97.1373C161.843 95.1056 158.533 93.7793 155.063 93.255C151.593 92.7307 148.051 93.0213 144.7 94.1052C141.35 95.1891 138.276 97.0391 135.709 99.5192C135.237 99.9752 134.518 100.053 133.966 99.7081C133.414 99.3631 133.172 98.6839 133.378 98.0619L135.249 92.4247C135.426 91.8897 135.901 91.507 136.46 91.4481Z" fill="#DFDFD8"/>
<path fill-rule="evenodd" clip-rule="evenodd" d="M149.988 117.507C150.213 118.258 149.786 119.054 149.035 119.286L131.458 124.71C130.706 124.942 129.914 124.522 129.689 123.772C129.463 123.021 129.89 122.225 130.642 121.993L148.218 116.568C148.97 116.336 149.762 116.757 149.988 117.507Z" fill="#21262A"/>
<path d="M151.677 121.062C153.809 120.858 155.382 118.915 155.19 116.722C154.999 114.53 153.116 112.919 150.984 113.123C148.852 113.328 147.28 115.271 147.471 117.463C147.663 119.655 149.546 121.267 151.677 121.062Z" fill="#21262A"/>
<path fill-rule="evenodd" clip-rule="evenodd" d="M125.139 99.0845C125.598 98.4436 126.486 98.2922 127.123 98.7465L148.807 114.222C149.444 114.676 149.587 115.564 149.128 116.205C148.669 116.846 147.781 116.997 147.144 116.543L125.46 101.067C124.823 100.613 124.679 99.7255 125.139 99.0845Z" fill="#21262A"/>
<path d="M145.09 37.1238C142.804 31.6452 135.682 32.055 136.738 37.9636C137.87 44.3028 132.348 48.0163 139.002 50.6419C145.727 53.2954 145.09 37.1238 145.09 37.1238Z" fill="#F8D4AB"/>
<path d="M186.957 46.3166C186.8 47.1788 186.633 48.0393 186.461 48.8683C181.086 75.1259 170.377 86.9622 150.279 79.0404C136.668 73.6804 137.156 60.0449 140.251 42.7876C140.719 40.1394 141.263 37.3992 141.818 34.5885C145.589 15.5871 151.868 9.14601 169.071 11.8093C184.303 14.1646 191.61 21.2703 186.957 46.3166Z" fill="#F8D4AB"/>
<path d="M147.721 24.54C147.561 24.576 147.394 24.5626 147.242 24.5014C147.09 24.4403 146.96 24.3343 146.87 24.1975C146.779 24.0608 146.732 23.8998 146.736 23.7359C146.739 23.5719 146.792 23.4129 146.887 23.2798C148.413 20.6985 154.273 19.1215 158.381 22.7293C158.499 22.8522 158.576 23.0083 158.602 23.1766C158.628 23.3448 158.601 23.5169 158.526 23.6694C158.451 23.822 158.33 23.9476 158.181 24.0292C158.031 24.1108 157.861 24.1445 157.691 24.1256C154.382 23.4765 150.965 23.6185 147.721 24.54Z" fill="#21262A"/>
<path d="M180.952 29.1737C181.095 29.2593 181.26 29.2994 181.426 29.2887C181.592 29.278 181.751 29.2171 181.882 29.114C182.013 29.0109 182.109 28.8704 182.158 28.7113C182.208 28.5522 182.207 28.3819 182.157 28.223C181.506 25.2454 176.351 21.8585 171.237 24.0339C171.085 24.1152 170.961 24.2414 170.882 24.3956C170.804 24.5498 170.774 24.7243 170.799 24.8956C170.823 25.0668 170.899 25.2265 171.017 25.3528C171.135 25.4791 171.29 25.5659 171.459 25.6015C174.861 26.0279 178.113 27.2519 180.952 29.1737Z" fill="#21262A"/>
<path d="M185.069 40.169C188.827 35.572 195.534 37.9987 192.834 43.3595C189.937 49.1109 194.167 54.2466 187.04 54.8625C179.838 55.4848 185.069 40.169 185.069 40.169Z" fill="#F8D4AB"/>
<path d="M186.669 48.9077C181.245 75.4001 170.441 87.3416 150.163 79.3491C136.432 73.9412 136.924 60.1844 140.046 42.7727C140.124 42.5971 140.2 42.4317 140.284 42.2779C143.452 46.1036 143.947 50.8892 143.273 55.5043C143.273 55.5043 148.526 47.9649 161.349 50.354C168.725 51.7309 175.648 61.264 175.648 61.264C175.648 61.264 176.152 48.9208 186.662 48.8756C186.662 48.8866 186.664 48.8975 186.669 48.9077Z" fill="#21262A"/>
<path fill-rule="evenodd" clip-rule="evenodd" d="M152.721 57.8125C153.123 57.4771 153.721 57.5308 154.057 57.9325C155.712 59.9129 157.985 61.1317 160.43 61.3739C162.494 61.5367 164.571 60.9857 166.36 59.7869C166.795 59.4955 167.384 59.6117 167.676 60.0463C167.967 60.481 167.851 61.0696 167.416 61.361C165.281 62.7916 162.777 63.4624 160.27 63.2622L160.253 63.2607C157.29 62.9699 154.563 61.4952 152.601 59.1471C152.266 58.7455 152.319 58.1479 152.721 57.8125Z" fill="white"/>
<path fill-rule="evenodd" clip-rule="evenodd" d="M145.05 28.4159C143.651 29.4192 142.732 31.287 142.258 34.5408L142.258 34.5408C141.782 37.7946 142.128 39.8468 143.183 41.2079C144.246 42.5794 146.214 43.4934 149.608 43.9883C153.003 44.4832 155.151 44.1694 156.561 43.1585C157.961 42.1553 158.879 40.2874 159.354 37.0336C159.829 33.7798 159.483 31.7276 158.428 30.3664C157.366 28.9949 155.397 28.0809 152.003 27.586C148.609 27.0912 146.461 27.4051 145.05 28.4159ZM143.945 26.8759C145.971 25.4244 148.746 25.196 152.277 25.7107C155.808 26.2255 158.402 27.2368 159.928 29.206C161.461 31.1856 161.729 33.8895 161.23 37.307C160.731 40.7245 159.702 43.2393 157.666 44.6985C155.641 46.1501 152.865 46.3784 149.335 45.8636C145.804 45.3488 143.209 44.3376 141.684 42.3684C140.15 40.3888 139.882 37.6849 140.381 34.2674L141.319 34.4041L140.381 34.2674C140.88 30.8499 141.91 28.3351 143.945 26.8759Z" fill="#9AA7B0"/>
<path fill-rule="evenodd" clip-rule="evenodd" d="M168.385 31.819C166.985 32.8222 166.067 34.69 165.592 37.9438L164.654 37.8071L165.592 37.9438C165.117 41.1977 165.463 43.2499 166.518 44.611C167.58 45.9825 169.549 46.8965 172.943 47.3914C176.338 47.8863 178.485 47.5725 179.896 46.5616C181.295 45.5583 182.214 43.6904 182.689 40.4366C183.164 37.1828 182.818 35.1307 181.763 33.7695C180.7 32.398 178.732 31.484 175.338 30.9891C171.943 30.4942 169.795 30.8081 168.385 31.819ZM164.654 37.8071L163.716 37.6704C164.215 34.2529 165.244 31.7381 167.28 30.2789C169.305 28.8274 172.081 28.5991 175.611 29.1138C179.142 29.6286 181.737 30.6399 183.262 32.6091C184.796 34.5886 185.064 37.2925 184.565 40.71C184.066 44.1275 183.036 46.6424 181.001 48.1016C178.976 49.5531 176.2 49.7815 172.669 49.2667C169.139 48.7519 166.544 47.7407 165.018 45.7715C163.485 43.7919 163.217 41.088 163.716 37.6704L164.654 37.8071Z" fill="#9AA7B0"/>
<path fill-rule="evenodd" clip-rule="evenodd" d="M166.447 33.2729L159.884 32.3161L160.158 30.4406L166.721 31.3975L166.447 33.2729Z" fill="#9AA7B0"/>
<path fill-rule="evenodd" clip-rule="evenodd" d="M162.568 38.5173C163.066 38.6808 163.336 39.2163 163.173 39.7134C162.389 42.0954 161.849 43.7998 161.539 45.0389C161.216 46.3276 161.195 46.9285 161.269 47.2097C161.293 47.3042 161.32 47.3285 161.341 47.3461C161.382 47.38 161.481 47.4407 161.715 47.5054C162.067 47.6031 162.497 47.6583 163.093 47.735C163.38 47.7719 163.706 47.8138 164.081 47.8678C164.599 47.9426 164.958 48.423 164.884 48.941C164.809 49.4589 164.328 49.8182 163.81 49.7435C163.544 49.7051 163.278 49.6708 163.017 49.6372C162.337 49.5496 161.697 49.4671 161.208 49.3316C160.843 49.2304 160.457 49.0764 160.127 48.8017C159.778 48.5108 159.549 48.1328 159.433 47.6861C159.225 46.8846 159.382 45.8468 159.699 44.5791C160.029 43.2619 160.591 41.4924 161.371 39.1212C161.535 38.6241 162.071 38.3537 162.568 38.5173Z" fill="#21262A"/>
<path fill-rule="evenodd" clip-rule="evenodd" d="M182.662 35.4836C182.816 34.9833 183.346 34.7021 183.847 34.8555L188.883 36.3991C189.384 36.5526 189.665 37.0825 189.512 37.5828C189.358 38.0831 188.828 38.3643 188.327 38.2109L183.291 36.6673C182.79 36.5139 182.509 35.9839 182.662 35.4836Z" fill="#9AA7B0"/>
<path fill-rule="evenodd" clip-rule="evenodd" d="M152.575 37.0054C153.095 36.9559 153.474 36.4921 153.423 35.9695C153.266 34.3757 152.384 33.2544 151.069 33.1035C149.865 32.9654 148.711 33.7115 148.104 34.8557C147.859 35.3179 148.033 35.8943 148.494 36.1429C148.955 36.3915 149.527 36.2184 149.773 35.7561C150.102 35.1359 150.593 34.9612 150.862 34.9921C150.986 35.0063 151.109 35.0619 151.224 35.202C151.347 35.3513 151.491 35.6387 151.541 36.149C151.593 36.6716 152.056 37.055 152.575 37.0054Z" fill="#21262A"/>
<path fill-rule="evenodd" clip-rule="evenodd" d="M176.303 40.476C176.822 40.4264 177.202 39.9626 177.15 39.4401C176.993 37.8462 176.112 36.725 174.796 36.5741C173.592 36.436 172.439 37.1821 171.832 38.3263C171.586 38.7885 171.761 39.3648 172.221 39.6135C172.682 39.8621 173.255 39.6889 173.5 39.2267C173.829 38.6064 174.32 38.4318 174.59 38.4627C174.713 38.4769 174.837 38.5325 174.952 38.6725C175.074 38.8218 175.219 39.1092 175.269 39.6196C175.32 40.1422 175.783 40.5256 176.303 40.476Z" fill="#21262A"/>
<path d="M165.024 161.787C164.98 161.584 164.894 161.393 164.772 161.225C164.651 161.058 164.495 160.917 164.317 160.812C164.138 160.707 163.939 160.64 163.734 160.616C163.528 160.591 163.319 160.609 163.121 160.669C161.595 161.137 161.588 160.932 162.171 160.739C162.547 160.615 162.859 160.347 163.039 159.995C163.22 159.642 163.254 159.232 163.135 158.855L163.091 158.717C163.033 158.527 162.937 158.351 162.81 158.199C162.682 158.047 162.526 157.921 162.35 157.83C162.174 157.738 161.982 157.683 161.784 157.666C161.586 157.649 161.387 157.672 161.199 157.733C160.498 157.99 159.78 158.197 159.05 158.352C159.247 158.326 159.438 158.262 159.61 158.163C159.782 158.064 159.933 157.932 160.054 157.774C160.175 157.617 160.264 157.437 160.315 157.245C160.366 157.053 160.379 156.853 160.353 156.656L160.345 156.6C160.294 156.221 160.102 155.876 159.806 155.634C159.51 155.391 159.133 155.271 158.751 155.296C156.156 155.462 150.671 155.697 148.393 154.893C145.357 153.823 146.732 151.783 149.463 151.857C152.681 151.943 154.57 150.926 152.565 149.555C146.81 145.621 141.523 151.387 135.451 149.246L107.119 127.665C96.2023 120.684 87.7857 128.735 85.2885 131.248C85.7012 132.997 86.5569 134.611 87.7733 135.934C88.2131 136.41 88.653 136.876 89.1134 137.332C89.2135 137.436 89.3135 137.539 89.4237 137.643C89.864 138.089 90.3148 138.514 90.7656 138.939C90.7797 138.956 90.7967 138.97 90.8158 138.981C91.3368 139.468 91.8582 139.936 92.3898 140.403C92.4211 140.422 92.4483 140.446 92.47 140.476C92.9919 140.912 93.5035 141.349 94.0358 141.776C94.096 141.827 94.1562 141.879 94.2266 141.932C94.6484 142.265 95.0703 142.598 95.5025 142.921C97.8028 144.685 100.205 146.311 102.698 147.791C103.222 148.105 103.736 148.41 104.26 148.704C104.271 148.714 104.28 148.715 104.29 148.725C104.856 149.04 105.42 149.355 105.985 149.66C106.943 150.186 107.912 150.681 108.861 151.156C110.365 151.905 111.829 152.589 113.254 153.207C113.588 153.356 113.921 153.494 114.245 153.632C115.063 153.982 115.862 154.311 116.641 154.62C117.015 154.769 117.379 154.918 117.742 155.057C118.39 155.302 119.017 155.537 119.614 155.751C119.857 155.847 120.1 155.932 120.333 156.008C123.156 157.014 125.475 157.706 126.995 158.119L127.36 158.217C128.404 158.499 128.982 158.632 128.982 158.632L129.702 157.763C136.531 162.504 144.517 165.306 152.811 165.871C156.741 165.993 160.644 165.173 164.192 163.479C164.503 163.334 164.754 163.087 164.906 162.779C165.057 162.472 165.099 162.121 165.024 161.787Z" fill="#F8D4AB"/>
<path fill-rule="evenodd" clip-rule="evenodd" d="M87.3732 121.178C87.8491 121.396 88.058 121.959 87.8397 122.434C85.9045 126.651 86.3511 130.463 88.3828 133.978C90.4455 137.546 94.1604 140.827 98.7865 143.801C108.027 149.739 120.538 154.223 129.484 157.279C129.835 157.385 130.162 157.557 130.449 157.786C134.8 161.172 139.9 163.466 145.321 164.474C145.836 164.57 146.176 165.065 146.08 165.579C145.984 166.094 145.489 166.433 144.974 166.338C139.253 165.273 133.871 162.852 129.279 159.277L129.268 159.269C129.166 159.187 129.05 159.127 128.925 159.09C128.913 159.086 128.9 159.082 128.888 159.078C119.962 156.029 107.228 151.479 97.7608 145.394C93.0301 142.354 89.0236 138.874 86.7409 134.926C84.4271 130.923 83.9042 126.463 86.1161 121.644C86.3344 121.169 86.8972 120.96 87.3732 121.178Z" fill="#21262A"/>
<path d="M217.909 130.734C218.554 126.862 218.723 122.926 218.411 119.014C217.061 105.521 211.221 84.9825 184.977 71.9046C187.114 81.196 199.142 99.3647 198.297 119.575C198.252 120.969 198.132 122.37 197.949 123.777L174.518 127.924C168.378 128.468 166.087 122.992 159.73 125.543C157.476 126.447 158.927 128.091 162.26 128.46C165.46 128.815 165.844 131.268 162.649 131.657C160.25 131.949 154.946 130.533 152.448 129.809C152.081 129.702 151.687 129.738 151.346 129.911C151.004 130.083 150.741 130.379 150.609 130.738L150.59 130.79C150.522 130.976 150.491 131.175 150.5 131.373C150.508 131.572 150.556 131.767 150.64 131.947C150.724 132.127 150.843 132.288 150.989 132.422C151.136 132.556 151.308 132.66 151.495 132.727C150.816 132.418 150.159 132.061 149.531 131.658C149.36 131.558 149.171 131.493 148.974 131.466C148.778 131.44 148.578 131.453 148.386 131.504C148.194 131.555 148.015 131.644 147.858 131.765C147.7 131.886 147.569 132.037 147.471 132.209L147.399 132.335C147.2 132.677 147.145 133.085 147.245 133.468C147.345 133.851 147.592 134.18 147.932 134.383C148.459 134.697 148.408 134.896 147.02 134.109C146.687 133.924 146.297 133.871 145.927 133.962C145.558 134.052 145.236 134.279 145.026 134.597C144.817 134.915 144.735 135.3 144.798 135.676C144.861 136.051 145.063 136.389 145.365 136.621C148.463 139.043 152.096 140.688 155.959 141.418C163.176 142.508 170.552 141.723 177.378 139.137C192.846 142.698 216.619 140.79 217.909 130.734Z" fill="#F8D4AB"/>
<path fill-rule="evenodd" clip-rule="evenodd" d="M218.156 130.88C218.655 131.037 218.933 131.568 218.776 132.068C217.949 134.704 215.647 136.585 212.699 137.912C209.735 139.245 205.958 140.095 201.883 140.583C193.726 141.56 184.153 141.115 176.944 140.01C176.426 139.931 176.071 139.447 176.15 138.93C176.229 138.413 176.713 138.058 177.231 138.137C184.305 139.221 193.703 139.654 201.658 138.701C205.638 138.224 209.203 137.407 211.92 136.184C214.654 134.954 216.375 133.388 216.967 131.501C217.124 131.001 217.656 130.723 218.156 130.88Z" fill="#21262A"/>
<path d="M218.417 119.009C218.417 119.009 211.985 122.042 197.956 123.778C198.795 103.567 187.11 81.1996 184.97 71.9087C211.218 84.9797 217.026 105.52 218.417 119.009Z" fill="#3492EF"/>
<path d="M272.171 175.645C264.951 175.743 257.467 175.841 249.895 175.841C199.355 176.233 141.244 176.037 93.0821 176.135C83.4849 176.135 73.8877 176.037 64.3786 176.037C54.077 175.939 43.6874 175.841 33.3859 175.645C30.0401 175.547 29.864 173.782 33.3859 173.684C42.0145 173.488 51.6998 173.389 61.8252 173.389C92.0255 173.193 126.54 173.193 152.778 173.193C181.57 173.291 220.047 173.193 252.096 173.488C259.14 173.586 265.919 173.586 272.171 173.684C275.605 173.684 275.781 175.547 272.171 175.645Z" fill="#DFDFD8"/>
</svg>
