<svg width="16" height="17" viewBox="0 0 16 17" fill="none" xmlns="http://www.w3.org/2000/svg">
<path d="M4.36 4.27474C4.4 4.86807 4.5 5.44807 4.66 6.00141L3.86 6.80141C3.58667 6.00141 3.41333 5.15474 3.35333 4.27474H4.36ZM10.9333 12.2881C11.5 12.4481 12.08 12.5481 12.6667 12.5881V13.5814C11.7867 13.5214 10.94 13.3481 10.1333 13.0814L10.9333 12.2881ZM5 2.94141H2.66667C2.3 2.94141 2 3.24141 2 3.60807C2 9.86807 7.07333 14.9414 13.3333 14.9414C13.7 14.9414 14 14.6414 14 14.2747V11.9481C14 11.5814 13.7 11.2814 13.3333 11.2814C12.5067 11.2814 11.7 11.1481 10.9533 10.9014C10.8872 10.8774 10.817 10.8661 10.7467 10.8681C10.5733 10.8681 10.4067 10.9347 10.2733 11.0614L8.80667 12.5281C6.91695 11.5617 5.37974 10.0245 4.41333 8.13474L5.88 6.66807C6.06667 6.48141 6.12 6.22141 6.04667 5.98807C5.79377 5.22011 5.66548 4.4166 5.66667 3.60807C5.66667 3.24141 5.36667 2.94141 5 2.94141Z" fill="#205EA3"/>
</svg>
