<svg width="16" height="17" viewBox="0 0 16 17" fill="none" xmlns="http://www.w3.org/2000/svg">
<path d="M7.99992 8.60775C7.55789 8.60775 7.13397 8.43215 6.82141 8.11959C6.50885 7.80703 6.33325 7.38311 6.33325 6.94108C6.33325 6.49905 6.50885 6.07513 6.82141 5.76257C7.13397 5.45001 7.55789 5.27441 7.99992 5.27441C8.44195 5.27441 8.86587 5.45001 9.17843 5.76257C9.49099 6.07513 9.66659 6.49905 9.66659 6.94108C9.66659 7.15995 9.62348 7.37668 9.53972 7.57889C9.45596 7.7811 9.33319 7.96483 9.17843 8.11959C9.02367 8.27436 8.83993 8.39712 8.63772 8.48088C8.43552 8.56464 8.21879 8.60775 7.99992 8.60775ZM7.99992 2.27441C6.76224 2.27441 5.57526 2.76608 4.70009 3.64125C3.82492 4.51642 3.33325 5.7034 3.33325 6.94108C3.33325 10.4411 7.99992 15.6077 7.99992 15.6077C7.99992 15.6077 12.6666 10.4411 12.6666 6.94108C12.6666 5.7034 12.1749 4.51642 11.2998 3.64125C10.4246 2.76608 9.2376 2.27441 7.99992 2.27441Z" fill="#205EA3"/>
</svg>
