<svg width="60" height="60" viewBox="0 0 60 60" fill="none" xmlns="http://www.w3.org/2000/svg">
<path d="M54.6725 6H5.32749C4.04205 6 3 7.12123 3 8.50435V51.4957C3 52.8788 4.04205 54 5.32749 54H54.6725C55.958 54 57 52.8788 57 51.4957V8.50435C57 7.12123 55.958 6 54.6725 6Z" fill="white"/>
<path fill-rule="evenodd" clip-rule="evenodd" d="M12 51C12 51 26.9509 51 27.5 51L25.5 37L21.0648 37.7765C21.0648 37.7765 17.3905 38.8098 14.9449 42.0826L13.1522 44.7367L12.0003 50.012L12 51Z" fill="#DFDFD8"/>
<path fill-rule="evenodd" clip-rule="evenodd" d="M48 51C48 51 33.0967 51 32.5 51L34.966 37L38.4089 37.7767C38.4089 37.7767 42.4016 38.8104 45.0592 42.0842C47.0751 45.4257 47.8703 46.7238 48 51Z" fill="#DFDFD8"/>
<path fill-rule="evenodd" clip-rule="evenodd" d="M33.8763 36.6655C34.061 36.145 34.6327 35.8729 35.1532 36.0577C35.5537 36.1999 36.0011 36.3447 36.4828 36.5007C39.2739 37.4046 43.2169 38.6815 45.8718 41.9699C47.3498 43.8007 48.1269 45.7905 48.5359 47.3069C48.7412 48.0679 48.8561 48.7182 48.9199 49.1829C48.9519 49.4154 48.9712 49.6023 48.9827 49.7342C48.9884 49.8001 48.9922 49.8524 48.9946 49.8898L48.9973 49.9347L48.998 49.9485L48.9982 49.9533L48.9983 49.9551L48.9983 49.9558C48.9983 49.9562 48.9983 49.9565 47.9993 50L48.9983 49.9565C49.0224 50.5083 48.5946 50.975 48.0428 50.9991C47.4917 51.0231 47.0254 50.5964 47.0003 50.0456C47.0003 50.0455 47.0003 50.0454 47.0003 50.0453C47.0003 50.0453 47.0003 50.0453 47.0003 50.0453C47.0003 50.045 47.0003 50.0448 47.0003 50.0446L47.0003 50.0441M47.0003 50.0441C47.0003 50.0439 47.0003 50.0437 47.0002 50.0436L47.0002 50.0421L46.9987 50.0183C46.9972 49.9952 46.9946 49.9578 46.9902 49.9072C46.9814 49.806 46.9657 49.6524 46.9386 49.4553C46.8843 49.0605 46.7848 48.4945 46.6049 47.8277C46.2437 46.4887 45.568 44.7775 44.3156 43.2263C42.0697 40.4444 38.7894 39.368 35.9799 38.4461C35.4622 38.2762 34.9604 38.1115 34.4841 37.9424C33.9636 37.7576 33.6915 37.1859 33.8763 36.6655" fill="#21262A"/>
<path fill-rule="evenodd" clip-rule="evenodd" d="M25.946 36.6655C25.7612 36.145 25.1895 35.8729 24.6691 36.0577C24.2685 36.1999 23.8211 36.3447 23.3394 36.5007C20.5483 37.4046 16.6054 38.6815 13.9505 41.9699C12.4649 43.81 11.7315 45.8107 11.3676 47.3351C11.185 48.0999 11.0932 48.7535 11.047 49.2206C11.0239 49.4545 11.012 49.6425 11.006 49.7754C11.003 49.8418 11.0014 49.8946 11.0006 49.9324L10.9999 49.978L10.9997 49.9921L10.9997 49.997L10.9997 49.9989C10.9997 49.9993 10.9997 50.0004 11.9997 50L10.9997 50.0004C11 50.5527 11.4478 51.0003 12.0001 51C12.5517 50.9998 12.9987 50.5531 12.9997 50.0019C12.9997 50.0016 12.9997 50.0012 12.9997 50.0009C12.9997 50.0007 12.9997 50.001 12.9997 50.0009L13.0001 49.9757C13.0006 49.953 13.0017 49.9161 13.004 49.866C13.0085 49.7658 13.0179 49.6134 13.0373 49.4175C13.0761 49.0252 13.1546 48.4625 13.3129 47.7996C13.6307 46.4684 14.2617 44.7682 15.5066 43.2263C17.7526 40.4444 21.0329 39.368 23.8423 38.4461C24.3601 38.2762 24.8618 38.1115 25.3382 37.9424C25.8587 37.7576 26.1308 37.1859 25.946 36.6655Z" fill="#21262A"/>
<path fill-rule="evenodd" clip-rule="evenodd" d="M25.4432 40.6798C25.7635 40.2299 26.3879 40.1248 26.8378 40.4451L26.2579 41.2598C26.8378 40.4451 26.838 40.4453 26.8378 40.4451L26.8364 40.4441C26.8359 40.4438 26.8361 40.4439 26.8364 40.4441L26.8434 40.449C26.8516 40.4546 26.8661 40.4644 26.8863 40.4777C26.9268 40.5043 26.9904 40.545 27.0743 40.5952C27.2427 40.6957 27.489 40.8322 27.7911 40.9688C28.4065 41.2471 29.1954 41.5 30.0001 41.5C30.3377 41.5 31.2648 41.4958 32.6741 40.4553C33.1185 40.1273 33.7446 40.2215 34.0726 40.6658C34.4006 41.1102 34.3064 41.7363 33.862 42.0643C32.0343 43.4137 30.6625 43.5 30.0001 43.5C28.8047 43.5 27.7225 43.1328 26.9669 42.791C26.5834 42.6176 26.2692 42.4439 26.0484 42.312C25.9377 42.2458 25.8496 42.1896 25.787 42.1485C25.7557 42.1279 25.7307 42.111 25.7125 42.0985L25.6901 42.083L25.6827 42.0778L25.68 42.0759L25.6789 42.0751C25.6787 42.075 25.6779 42.0744 26.2579 41.2598L25.6779 42.0744C25.228 41.7541 25.1229 41.1298 25.4432 40.6798Z" fill="#21262A"/>
<path fill-rule="evenodd" clip-rule="evenodd" d="M34.9819 31.4814L35.0007 32.4813C35.1354 39.625 34.7994 43.3117 33.4688 50.19C33.3639 50.7323 32.8394 51.0868 32.2971 50.9819C31.7549 50.877 31.4003 50.3524 31.5052 49.8102C32.8097 43.0669 33.1331 39.52 33.0011 32.519L32.9822 31.5191L34.9819 31.4814ZM27.0196 32.0191L27.0007 33.019C26.8683 40.0412 26.9694 43.0142 28.5092 49.7782C28.6318 50.3167 28.2946 50.8526 27.7561 50.9752C27.2176 51.0978 26.6817 50.7606 26.5591 50.2221C24.9718 43.2497 24.8668 40.1039 25.0011 32.9813L25.0199 31.9814L27.0196 32.0191Z" fill="#21262A"/>
<path fill-rule="evenodd" clip-rule="evenodd" d="M2 9.91837C2 7.21693 4.15983 5 6.85714 5H53.1429C55.8402 5 58 7.21693 58 9.91837V50.0816C58 52.7831 55.8402 55 53.1429 55H6.85714C4.15983 55 2 52.7831 2 50.0816V9.91837ZM6.85714 7C5.29398 7 4 8.29169 4 9.91837V50.0816C4 51.7083 5.29398 53 6.85714 53H53.1429C54.706 53 56 51.7083 56 50.0816V9.91837C56 8.29169 54.706 7 53.1429 7H6.85714Z" fill="#21262A"/>
<path d="M38.6719 46.5C39.7764 46.5 40.6719 45.6046 40.6719 44.5C40.6719 43.3954 39.7764 42.5 38.6719 42.5C37.5673 42.5 36.6719 43.3954 36.6719 44.5C36.6719 45.6046 37.5673 46.5 38.6719 46.5Z" fill="#F7576C"/>
<path fill-rule="evenodd" clip-rule="evenodd" d="M26.8241 26.6552C27.2147 26.2647 27.8478 26.2647 28.2384 26.6552C28.6667 27.0836 29.2555 27.3569 29.9795 27.3569C30.7036 27.3569 31.2924 27.0836 31.7207 26.6552C32.1113 26.2647 32.7444 26.2647 33.1349 26.6552C33.5255 27.0457 33.5255 27.6789 33.1349 28.0694C32.3392 28.8652 31.2448 29.3569 29.9795 29.3569C28.7143 29.3569 27.6199 28.8652 26.8241 28.0694C26.4336 27.6789 26.4336 27.0457 26.8241 26.6552Z" fill="#21262A"/>
<path fill-rule="evenodd" clip-rule="evenodd" d="M16.8203 33.023L16.4888 33.9665C16.1986 33.8645 15.9714 33.6346 15.8729 33.3431C15.7744 33.0516 15.8156 32.731 15.9846 32.4739C17.1702 30.6698 17.6571 28.4409 17.9117 25.9805C18.0211 24.9229 18.0856 23.8507 18.1509 22.7646C18.1613 22.5907 18.1718 22.4165 18.1825 22.2419C18.2591 20.9889 18.3464 19.7216 18.5175 18.5092C18.8576 16.0988 19.548 13.7423 21.3166 12.0068C23.1026 10.2542 25.8145 9.2998 29.8269 9.2998H30.2094C34.2218 9.2998 36.9337 10.2542 38.7197 12.0068C40.4883 13.7423 41.1787 16.0988 41.5188 18.5092C41.6899 19.7216 41.7772 20.9889 41.8538 22.2419C41.8645 22.4165 41.875 22.5908 41.8855 22.7647C41.9507 23.8507 42.0152 24.9229 42.1246 25.9805C42.3792 28.4409 42.8662 30.6698 44.0517 32.4739C44.2207 32.731 44.2619 33.0516 44.1634 33.3431C44.0649 33.6346 43.8378 33.8645 43.5475 33.9665L43.216 33.023C43.5475 33.9665 43.5473 33.9666 43.5471 33.9666L43.5467 33.9668L43.5456 33.9672L43.5427 33.9682L43.5338 33.9712L43.5038 33.9815C43.4785 33.9901 43.4425 34.0021 43.3965 34.017C43.3046 34.0468 43.1724 34.0884 43.0046 34.1378C42.6694 34.2364 42.1907 34.3667 41.6063 34.4965C40.4417 34.7553 38.8354 35.0177 37.0953 35.0177C36.543 35.0177 36.0953 34.5699 36.0953 34.0177C36.0953 33.4654 36.543 33.0177 37.0953 33.0177C38.645 33.0177 40.0991 32.7827 41.1724 32.5442C41.3683 32.5006 41.5508 32.4571 41.718 32.4152C40.7553 30.474 40.3547 28.3072 40.1352 26.1863C40.021 25.0824 39.9537 23.9624 39.8887 22.8791C39.8783 22.7064 39.868 22.5346 39.8576 22.364C39.7809 21.111 39.6973 19.9145 39.5384 18.7886C39.2186 16.5223 38.6131 14.7043 37.319 13.4344C36.0423 12.1816 33.9245 11.2998 30.2094 11.2998H29.8269C26.1118 11.2998 23.994 12.1816 22.7174 13.4344C21.4232 14.7043 20.8177 16.5223 20.4979 18.7886C20.339 19.9145 20.2554 21.111 20.1787 22.364C20.1683 22.5346 20.158 22.7064 20.1476 22.879C20.0826 23.9624 20.0153 25.0823 19.9011 26.1863C19.6816 28.3072 19.281 30.474 18.3183 32.4152C18.4855 32.4571 18.668 32.5006 18.8639 32.5442C19.9372 32.7827 21.3913 33.0177 22.9411 33.0177C23.4933 33.0177 23.9411 33.4654 23.9411 34.0177C23.9411 34.5699 23.4933 35.0177 22.9411 35.0177C21.2009 35.0177 19.5946 34.7553 18.43 34.4965C17.8456 34.3667 17.3669 34.2364 17.0317 34.1378C16.8639 34.0884 16.7318 34.0468 16.6398 34.017C16.5938 34.0021 16.5578 33.9901 16.5325 33.9815L16.5025 33.9712L16.4936 33.9682L16.4907 33.9672L16.4896 33.9668L16.4892 33.9666C16.489 33.9666 16.4888 33.9665 16.8203 33.023Z" fill="#21262A"/>
<path fill-rule="evenodd" clip-rule="evenodd" d="M26.2601 16.1692L26.2599 16.1691L26.2599 16.1691L26.2599 16.1691C25.8278 15.9345 25.2892 16.0489 24.9897 16.4389C24.7561 16.7431 24.2041 17.277 23.5791 17.7932C23.2763 18.0433 22.9767 18.2723 22.7174 18.451C22.4389 18.6427 22.2671 18.7341 22.2039 18.758C21.8155 18.9054 21.5586 19.2776 21.5586 19.693V25.8144C21.5586 28.1054 22.7125 30.1327 24.1894 31.5912M26.2601 16.1692L26.261 16.1697L26.2667 16.1727L26.2924 16.1865C26.3156 16.1989 26.351 16.2176 26.3973 16.2419C26.4901 16.2904 26.6267 16.3608 26.7986 16.4464C27.1428 16.6179 27.6251 16.8491 28.1764 17.0871C29.308 17.5755 30.6237 18.0452 31.6244 18.1494C32.5998 18.2509 33.9431 18.1268 35.1025 17.9585C35.6696 17.8761 36.1706 17.7867 36.5294 17.7179C36.7086 17.6835 36.8517 17.6544 36.9491 17.6341C36.9978 17.624 37.0351 17.616 37.0597 17.6107L37.0869 17.6048L37.0931 17.6034L37.0942 17.6032L37.0943 17.6032L37.0944 17.6031C37.3904 17.5374 37.7003 17.6095 37.9369 17.7993C38.1735 17.9891 38.3112 18.276 38.3112 18.5793V25.8144C38.3112 28.0998 37.1572 30.1202 35.6892 31.5763L35.6881 31.5773C34.0405 33.2068 31.8171 34.3307 29.9353 34.3307C28.0487 34.3307 25.8328 33.215 24.1896 31.5914M36.3112 19.7907C36.0349 19.8387 35.7234 19.8893 35.3898 19.9377C34.2074 20.1094 32.6555 20.2675 31.4172 20.1386C30.0934 20.0007 28.5401 19.4224 27.3838 18.9233C26.8452 18.6908 26.3696 18.4652 26.0107 18.2881C25.6634 18.6375 25.2501 19.007 24.8527 19.3353C24.5169 19.6126 24.1702 19.8788 23.8518 20.0981C23.7571 20.1633 23.6586 20.2289 23.5586 20.2916V25.8144C23.5586 27.4213 24.3771 28.9658 25.5949 30.1683L25.5951 30.1685C26.9981 31.5548 28.7374 32.3307 29.9353 32.3307C31.1246 32.3307 32.8709 31.5503 34.2811 30.1559C35.4944 28.9524 36.3112 27.4139 36.3112 25.8144V19.7907Z" fill="#21262A"/>
</svg>