<svg width="60" height="60" viewBox="0 0 60 60" fill="none" xmlns="http://www.w3.org/2000/svg">
<path d="M8.5 1H47.5C48.1667 1 49.8 1.3 51 2.5C52.2 3.7 52.1667 6.33333 52 7.5V59H12.5C10.9 59 10.1667 57.3333 10 56.5V3.5C10 2.7 9 1.5 8.5 1Z" fill="white"/>
<path d="M4 10V4C4 3.20435 4.31607 2.44129 4.87868 1.87868C5.44129 1.31607 6.20435 1 7 1C7.79565 1 8.55871 1.31607 9.12132 1.87868C9.68393 2.44129 10 3.20435 10 4V10H4Z" fill="#DFDFD8"/>
<path d="M25.0498 18.36C25.0498 16.48 23.0498 15.64 21.3698 15.07C19.9398 14.59 19.2898 14.07 19.2898 13.43C19.2898 12.97 19.8298 12.43 20.8398 12.43C21.7014 12.532 22.5341 12.804 23.2898 13.23C23.4022 13.271 23.5256 13.2703 23.6375 13.2281C23.7494 13.1859 23.8425 13.105 23.8998 13L24.5698 12.17C24.5988 12.1333 24.6193 12.0907 24.63 12.0452C24.6407 11.9997 24.6413 11.9524 24.6318 11.9067C24.6222 11.8609 24.6028 11.8178 24.5748 11.7804C24.5468 11.743 24.511 11.7121 24.4698 11.69C23.6709 11.2198 22.7876 10.9107 21.8698 10.78V9.44C21.8699 9.32502 21.8249 9.21459 21.7445 9.13236C21.6641 9.05012 21.5548 9.00261 21.4398 9H20.5598C20.4431 9 20.3312 9.04636 20.2487 9.12887C20.1662 9.21139 20.1198 9.3233 20.1198 9.44V10.81C17.9198 11.07 16.9798 12.39 16.9798 13.55C16.9798 15.27 18.6398 16.15 20.2898 16.7C21.7698 17.2 22.5298 17.7 22.5298 18.45C22.5298 19.2 21.8398 19.57 20.9298 19.57C19.9885 19.4658 19.081 19.1588 18.2698 18.67C18.1742 18.6129 18.0614 18.5915 17.9515 18.6098C17.8416 18.6282 17.7418 18.6849 17.6698 18.77L17.0298 19.68C16.8798 19.91 16.9598 19.98 17.1198 20.11C18.0031 20.7375 19.0398 21.1142 20.1198 21.2V22.56C20.1198 22.6767 20.1662 22.7886 20.2487 22.8711C20.3312 22.9536 20.4431 23 20.5598 23H21.4398C21.5548 22.9974 21.6641 22.9499 21.7445 22.8676C21.8249 22.7854 21.8699 22.675 21.8698 22.56V21.19C23.8398 20.91 25.0498 19.68 25.0498 18.36Z" fill="#00B797"/>
<path fill-rule="evenodd" clip-rule="evenodd" d="M6 1C6 0.447715 6.44772 0 7 0H48C49.3261 0 50.5979 0.526784 51.5355 1.46447C52.4732 2.40215 53 3.67392 53 5V48.42C53 48.9723 52.5523 49.42 52 49.42C51.4477 49.42 51 48.9723 51 48.42V5C51 4.20435 50.6839 3.44129 50.1213 2.87868C49.5587 2.31607 48.7957 2 48 2H7C6.44772 2 6 1.55228 6 1Z" fill="#21262A"/>
<path d="M10 56C10 56.7956 10.3161 57.5587 10.8787 58.1213C11.4413 58.6839 12.2044 59 13 59C13.7956 59 14.5587 58.6839 15.1213 58.1213C15.6839 57.5587 16 56.7956 16 56V52H57V56C57 56.7956 56.6839 57.5587 56.1213 58.1213C55.5587 58.6839 54.7957 59 54 59H13" fill="#DFDFD8"/>
<path fill-rule="evenodd" clip-rule="evenodd" d="M15 52C15 51.4477 15.4477 51 16 51H57C57.5523 51 58 51.4477 58 52V56C58 57.0609 57.5786 58.0783 56.8284 58.8284C56.0783 59.5786 55.0609 60 54 60H13C11.9391 60 10.9217 59.5786 10.1716 58.8284C9.42143 58.0783 9 57.0609 9 56H11C11 56.5304 11.2107 57.0391 11.5858 57.4142C11.9609 57.7893 12.4696 58 13 58C13.5304 58 14.0391 57.7893 14.4142 57.4142C14.7893 57.0391 15 56.5304 15 56V52ZM16.4641 58H54C54.5304 58 55.0391 57.7893 55.4142 57.4142C55.7893 57.0391 56 56.5304 56 56V53H17V56C17 56.7082 16.8122 57.3971 16.4641 58Z" fill="#21262A"/>
<path fill-rule="evenodd" clip-rule="evenodd" d="M7 2C6.46957 2 5.96086 2.21071 5.58579 2.58579C5.21071 2.96086 5 3.46957 5 4V9H9V4C9 3.46957 8.78929 2.96086 8.41421 2.58579C8.03914 2.21071 7.53043 2 7 2ZM9 11V56H11V4C11 2.93913 10.5786 1.92172 9.82843 1.17157C9.07828 0.421427 8.06087 0 7 0C5.93913 0 4.92172 0.421427 4.17157 1.17157C3.42143 1.92172 3 2.93913 3 4V10C3 10.5523 3.44772 11 4 11H9Z" fill="#21262A"/>
<path fill-rule="evenodd" clip-rule="evenodd" d="M29 14C29 13.4477 29.4477 13 30 13H40C40.5523 13 41 13.4477 41 14C41 14.5523 40.5523 15 40 15H30C29.4477 15 29 14.5523 29 14Z" fill="#21262A"/>
<path fill-rule="evenodd" clip-rule="evenodd" d="M29 18C29 17.4477 29.4477 17 30 17H45C45.5523 17 46 17.4477 46 18C46 18.5523 45.5523 19 45 19H30C29.4477 19 29 18.5523 29 18Z" fill="#21262A"/>
<path d="M25.0498 38.36C25.0498 36.48 23.0498 35.64 21.3698 35.07C19.9398 34.59 19.2898 34.07 19.2898 33.43C19.2898 32.97 19.8298 32.43 20.8398 32.43C21.7014 32.532 22.5341 32.804 23.2898 33.23C23.4022 33.271 23.5256 33.2703 23.6375 33.2281C23.7494 33.1859 23.8425 33.105 23.8998 33L24.5698 32.17C24.5988 32.1333 24.6193 32.0907 24.63 32.0452C24.6407 31.9997 24.6413 31.9524 24.6318 31.9067C24.6222 31.8609 24.6028 31.8178 24.5748 31.7804C24.5468 31.743 24.511 31.7121 24.4698 31.69C23.6709 31.2198 22.7876 30.9107 21.8698 30.78V29.44C21.8699 29.325 21.8249 29.2146 21.7445 29.1324C21.6641 29.0501 21.5548 29.0026 21.4398 29H20.5598C20.4431 29 20.3312 29.0464 20.2487 29.1289C20.1662 29.2114 20.1198 29.3233 20.1198 29.44V30.81C17.9198 31.07 16.9798 32.39 16.9798 33.55C16.9798 35.27 18.6398 36.15 20.2898 36.7C21.7698 37.2 22.5298 37.7 22.5298 38.45C22.5298 39.2 21.8398 39.57 20.9298 39.57C19.9885 39.4658 19.081 39.1588 18.2698 38.67C18.1742 38.6128 18.0614 38.5915 17.9515 38.6098C17.8416 38.6282 17.7418 38.6849 17.6698 38.77L17.0298 39.68C16.8798 39.91 16.9598 39.98 17.1198 40.11C18.0031 40.7375 19.0398 41.1142 20.1198 41.2V42.56C20.1198 42.6767 20.1662 42.7886 20.2487 42.8711C20.3312 42.9536 20.4431 43 20.5598 43H21.4398C21.5548 42.9974 21.6641 42.9499 21.7445 42.8676C21.8249 42.7854 21.8699 42.675 21.8698 42.56V41.19C23.8398 40.91 25.0498 39.68 25.0498 38.36Z" fill="#00B797"/>
<path fill-rule="evenodd" clip-rule="evenodd" d="M29 34C29 33.4477 29.4477 33 30 33H40C40.5523 33 41 33.4477 41 34C41 34.5523 40.5523 35 40 35H30C29.4477 35 29 34.5523 29 34Z" fill="#21262A"/>
<path fill-rule="evenodd" clip-rule="evenodd" d="M29 38C29 37.4477 29.4477 37 30 37H45C45.5523 37 46 37.4477 46 38C46 38.5523 45.5523 39 45 39H30C29.4477 39 29 38.5523 29 38Z" fill="#21262A"/>
</svg>