<svg width="60" height="60" viewBox="0 0 60 60" fill="none" xmlns="http://www.w3.org/2000/svg">
<path d="M18.5 23.5L4.5 26.5L9 29L3 35.5L7 39.5L13 33.5L15.5 38L18.5 23.5Z" fill="white"/>
<path d="M11 7H55V49L50 54H11V7Z" fill="white"/>
<path fill-rule="evenodd" clip-rule="evenodd" d="M49.2369 53.1852H48.6348V47.7407H54.1095V48.2725L49.2369 53.1852ZM11.8095 13.2593V8.72222C11.8095 8.22133 12.2136 7.81481 12.7095 7.81481H53.2095C53.7054 7.81481 54.1095 8.22133 54.1095 8.72222V13.2593H11.8095ZM53.2095 6H12.7095C11.2209 6 10.0095 7.22137 10.0095 8.72222V21.4259C10.0095 21.9277 10.4127 22.3333 10.9095 22.3333C11.4063 22.3333 11.8095 21.9277 11.8095 21.4259V15.0741H54.1095V45.9259H47.7348C47.2371 45.9259 46.8348 46.3315 46.8348 46.8333V53.1852H11.8095V39.5741C11.8095 39.0723 11.4063 38.6667 10.9095 38.6667C10.4127 38.6667 10.0095 39.0723 10.0095 39.5741V54.0926C10.0095 54.5944 10.4127 55 10.9095 55H49.6095C49.848 55 50.0775 54.9047 50.2458 54.7341L55.6458 49.2897C55.815 49.12 55.9095 48.8895 55.9095 48.6481V8.72222C55.9095 7.22137 54.6981 6 53.2095 6Z" fill="#21262A"/>
<path fill-rule="evenodd" clip-rule="evenodd" d="M15.4094 11.4445H14.5094C14.0126 11.4445 13.6094 11.0388 13.6094 10.537C13.6094 10.0352 14.0126 9.62964 14.5094 9.62964H15.4094C15.9062 9.62964 16.3094 10.0352 16.3094 10.537C16.3094 11.0388 15.9062 11.4445 15.4094 11.4445Z" fill="#21262A"/>
<path fill-rule="evenodd" clip-rule="evenodd" d="M19.0095 11.4445H18.1095C17.6127 11.4445 17.2095 11.0388 17.2095 10.537C17.2095 10.0352 17.6127 9.62964 18.1095 9.62964H19.0095C19.5063 9.62964 19.9095 10.0352 19.9095 10.537C19.9095 11.0388 19.5063 11.4445 19.0095 11.4445Z" fill="#21262A"/>
<path fill-rule="evenodd" clip-rule="evenodd" d="M22.6096 11.4445H21.7096C21.2128 11.4445 20.8096 11.0388 20.8096 10.537C20.8096 10.0352 21.2128 9.62964 21.7096 9.62964H22.6096C23.1064 9.62964 23.5096 10.0352 23.5096 10.537C23.5096 11.0388 23.1064 11.4445 22.6096 11.4445Z" fill="#21262A"/>
<path fill-rule="evenodd" clip-rule="evenodd" d="M40.6095 20.5186H24.4095C23.9127 20.5186 23.5095 20.9242 23.5095 21.426V24.1482C23.5095 24.65 23.9127 25.0556 24.4095 25.0556H40.6095C41.1063 25.0556 41.5095 24.65 41.5095 24.1482V21.426C41.5095 20.9242 41.1063 20.5186 40.6095 20.5186Z" fill="#00B797"/>
<path fill-rule="evenodd" clip-rule="evenodd" d="M42.4095 29.5925H24.4095C23.9127 29.5925 23.5095 29.9981 23.5095 30.4999V31.4073C23.5095 31.9091 23.9127 32.3148 24.4095 32.3148H42.4095C42.9063 32.3148 43.3095 31.9091 43.3095 31.4073V30.4999C43.3095 29.9981 42.9063 29.5925 42.4095 29.5925Z" fill="#DFDFD8"/>
<path fill-rule="evenodd" clip-rule="evenodd" d="M44.2096 35.9443H21.7096C21.2128 35.9443 20.8096 36.3499 20.8096 36.8517V37.7592C20.8096 38.2609 21.2128 38.6666 21.7096 38.6666H44.2096C44.7064 38.6666 45.1096 38.2609 45.1096 37.7592V36.8517C45.1096 36.3499 44.7064 35.9443 44.2096 35.9443Z" fill="#DFDFD8"/>
<path fill-rule="evenodd" clip-rule="evenodd" d="M42.4096 42.2964H21.7096C21.2128 42.2964 20.8096 42.702 20.8096 43.2038V44.1112C20.8096 44.613 21.2128 45.0186 21.7096 45.0186H42.4096C42.9064 45.0186 43.3096 44.613 43.3096 44.1112V43.2038C43.3096 42.702 42.9064 42.2964 42.4096 42.2964Z" fill="#DFDFD8"/>
<path fill-rule="evenodd" clip-rule="evenodd" d="M4.1726 35.6333L6.7187 38.1995L12.4454 32.4247C12.6506 32.2178 12.944 32.1244 13.2266 32.1707C13.5119 32.2169 13.7576 32.4002 13.8872 32.6607L15.2912 35.4909L17.633 24.6283L6.8591 26.9903L9.6662 28.4049C9.9254 28.5356 10.1054 28.7833 10.1522 29.0719C10.1981 29.3595 10.1045 29.6517 9.9002 29.8586L4.1726 35.6333ZM6.7187 40.39C6.4883 40.39 6.2579 40.3019 6.0824 40.1241L2.2637 36.2749C2.0945 36.1052 2 35.8747 2 35.6333C2 35.392 2.0945 35.1615 2.2637 34.9918L7.7447 29.4657L3.7703 27.4621C3.4283 27.2906 3.2321 26.9195 3.2798 26.5384C3.3275 26.1564 3.6083 25.846 3.9818 25.7635L18.6185 22.5549C18.9164 22.4913 19.2296 22.5812 19.4465 22.7999C19.6625 23.0186 19.7543 23.3325 19.6895 23.6347L16.5071 38.3928C16.4261 38.7684 16.1183 39.0524 15.7403 39.0996C15.3614 39.1441 14.9933 38.9499 14.8223 38.6051L12.8351 34.598L7.355 40.1241C7.1786 40.3019 6.9482 40.39 6.7187 40.39Z" fill="#21262A"/>
</svg>