<svg width="146" height="24" viewBox="0 0 146 24" fill="none" xmlns="http://www.w3.org/2000/svg">
    <g clip-path="url(#clip0_1212_71038)">
        <path d="M12 24C18.6278 24 24 18.6278 24 12C24 5.37215 18.6278 0 12 0C5.37216 0 0 5.3736 0 12C0 18.6264 5.37216 24 12 24Z"
              fill="#D52B1E"/>
        <path d="M9.32185 16.4007C7.94294 15.406 6.61765 14.3446 5.34894 13.2194C4.88205 14.2431 4.463 15.2914 4.09326 16.363C6.11742 18.0798 8.82451 20.0488 10.6791 21.1551C13.0875 14.9203 16.8443 10.8546 20.4388 8.01694C19.9777 7.04112 19.3513 6.15519 18.5959 5.40118C14.765 8.33881 11.5867 12.0943 9.32185 16.4007Z"
              fill="white"/>
        <path d="M27.396 17.262V15.7772H28.6952V13.6284H30.5192V15.7772H32.3752V17.262H30.5192V20.71C30.5192 21.3741 30.6744 21.854 31.4921 21.854C31.7401 21.854 32.0649 21.8091 32.281 21.6989L32.3418 23.1518C32.017 23.275 31.5226 23.3518 31.105 23.3518C29.1403 23.3518 28.6923 22.1469 28.6923 20.7231V17.262H27.396Z"
              fill="black"/>
        <path d="M40.4499 23.1996H38.6867V22.0077H38.6548C38.3301 22.7487 37.4499 23.4156 36.3508 23.4156C34.418 23.4156 33.6118 21.9309 33.6118 20.4156V15.7757H35.4678V19.8907C35.4678 20.7738 35.6679 21.87 36.8598 21.87C38.0357 21.87 38.5925 20.8492 38.5925 19.8588V15.7757H40.4484V23.1996H40.4499Z"
              fill="black"/>
        <path d="M42.3696 15.638H44.1473V16.8748H44.1792C44.5823 16.0237 45.3711 15.422 46.3455 15.422C46.4832 15.422 46.6703 15.4379 46.7935 15.4669V17.1677C46.5456 17.1068 46.3904 17.0909 46.2193 17.0909C44.5504 17.0909 44.2256 18.5438 44.2256 19.0861V23.0619H42.3696V15.638Z"
              fill="black"/>
        <path d="M49.8545 11.507V16.7197H49.8994C50.2866 16.2398 51.0275 15.5597 52.3905 15.5597C54.5104 15.5597 55.9936 17.2605 55.9936 19.4587C55.9936 21.6235 54.6016 23.4186 52.3426 23.4186C51.3059 23.4186 50.2996 22.9387 49.7907 22.0875H49.7588V23.2025H47.9956V11.5099H49.8545V11.507ZM51.9714 17.075C50.6114 17.075 49.7907 18.3277 49.7907 19.4877C49.7907 20.6477 50.6099 21.8686 51.9714 21.8686C53.4084 21.8686 54.1044 20.6158 54.1044 19.4558C54.1073 18.2958 53.4113 17.075 51.9714 17.075Z"
              fill="black"/>
        <path d="M60.8352 15.5597C63.0782 15.5597 64.8732 17.1227 64.8732 19.4587C64.8732 21.7946 63.0782 23.4185 60.8352 23.4185C58.5934 23.4185 56.7983 21.7946 56.7983 19.4587C56.7983 17.1227 58.5934 15.5597 60.8352 15.5597ZM60.8352 21.87C62.3058 21.87 62.9843 20.6172 62.9843 19.4572C62.9843 18.2973 62.3042 17.0764 60.8352 17.0764C59.3663 17.0764 58.6867 18.2973 58.6867 19.4572C58.6867 20.6158 59.3663 21.87 60.8352 21.87Z"
              fill="black"/>
        <path d="M65.2559 17.262V15.7772H66.5535V13.6284H68.378V15.7772H70.2337V17.262H68.378V20.71C68.378 21.3741 68.5329 21.854 69.3506 21.854C69.5988 21.854 69.9233 21.8091 70.1393 21.6989L70.2004 23.1518C69.8759 23.275 69.3828 23.3518 68.9633 23.3518C66.9986 23.3518 66.5508 22.1469 66.5508 20.7231V17.262H65.2559Z"
              fill="black"/>
        <path d="M76.3466 22.2557H76.3019C75.931 22.9067 75.049 23.3837 73.9979 23.3837C72.806 23.3837 71.2139 22.811 71.2139 21.0797C71.2139 18.8685 73.9979 18.5597 76.3177 18.5597V18.3727C76.3177 17.4606 75.5448 17.0126 74.617 17.0126C73.8266 17.0126 73.07 17.3837 72.59 17.8637L71.63 16.7356C72.4651 15.9628 73.6411 15.5597 74.7691 15.5597C77.4299 15.5597 78.0779 17.1996 78.0779 18.6844V23.2011H76.3455V22.2542H76.3466V22.2557ZM76.315 19.8139H75.896C74.72 19.8139 73.0668 19.9531 73.0668 21.0507C73.0668 21.7627 73.7311 21.9788 74.366 21.9788C75.6348 21.9788 76.315 21.2509 76.315 20.0778V19.8139Z"
              fill="black"/>
        <path d="M81.6216 19.2557L78.9467 15.7757H81.1738L82.7818 18.0797L84.4377 15.7757H86.5705L83.9098 19.2557L86.9419 23.1996H84.6827L82.7496 20.4925L80.8012 23.1996H78.603L81.6216 19.2557Z"
              fill="black"/>
        <path d="M47.7318 5.57082C47.7318 7.45291 49.2383 8.82893 51.1537 8.82893C53.0677 8.82893 54.5772 7.4558 54.5772 5.57082V1.24844H52.7212V5.34897C52.7212 6.36538 52.0411 7.04546 51.148 7.04546C50.2519 7.04546 49.5748 6.36538 49.5748 5.34897V1.24844H47.7217L47.7318 5.57082Z"
              fill="black"/>
        <path d="M59.5312 2.98407H61.7458V8.67958H63.5987V2.98407H65.81V1.24844H59.5329V2.98407H59.5312Z" fill="black"/>
        <path d="M58.3339 1.25137H56.4805V8.6825H58.3339V1.25137Z" fill="black"/>
        <path d="M40.2441 2.98407H42.4582V8.67958H44.3113V2.98407H46.5225V1.24844H40.2456V2.98407H40.2441Z"
              fill="black"/>
        <path d="M30.5191 1.25137H28.666V8.6825H30.5191V4.96911V1.25137Z" fill="black"/>
        <path d="M39.2681 4.35865C39.2681 2.47658 37.7588 1.10056 35.8448 1.10056C33.9308 1.10056 32.4214 2.47368 32.4214 4.35865V8.68101H34.2745V4.57904C34.2745 3.56261 34.9545 2.88258 35.8477 2.88258C36.7409 2.88258 37.4209 3.56261 37.4209 4.57904V8.67959H39.274L39.2681 4.35865Z"
              fill="black"/>
    </g>
    <path d="M145.346 20.7022C145.346 22.2351 144.181 23.3375 142.658 23.3375C141.136 23.3375 139.981 22.2351 139.981 20.7022C139.981 19.1692 141.136 18.0878 142.658 18.0878C144.181 18.0878 145.346 19.1692 145.346 20.7022ZM144.317 20.7022C144.317 19.7572 143.729 18.9068 142.658 18.9068C141.598 18.9068 140.999 19.7572 140.999 20.7022C140.999 21.6471 141.598 22.508 142.658 22.508C143.729 22.508 144.317 21.6471 144.317 20.7022Z"
          fill="#D52B1E"/>
    <path d="M136.818 19.2952C136.818 19.0327 136.807 18.5497 136.776 18.2243H137.71C137.731 18.4762 137.752 18.8542 137.752 19.0642H137.784C138.057 18.4867 138.634 18.0878 139.306 18.0878C139.443 18.0878 139.579 18.0983 139.695 18.1298L139.653 19.0432C139.527 19.0117 139.359 18.9907 139.201 18.9907C138.256 18.9907 137.805 19.7572 137.805 20.5866V23.201H136.818V19.2952Z"
          fill="#D52B1E"/>
    <path d="M131.239 23.201V15.7674H133.507C135.114 15.7674 136.163 16.3869 136.163 17.8358C136.163 19.3267 134.998 19.9357 133.455 19.9357H132.279V23.201H131.239ZM132.279 16.6494V19.0537H133.381C134.4 19.0537 135.114 18.7178 135.114 17.8358C135.114 16.9434 134.379 16.6494 133.402 16.6494H132.279Z"
          fill="#D52B1E"/>
    <path d="M126.129 22.4136C125.751 23.0121 125.037 23.3376 124.334 23.3376C122.801 23.3376 121.824 22.1617 121.824 20.7022C121.824 19.2323 122.832 18.0879 124.323 18.0879C125.132 18.0879 125.751 18.4869 126.097 18.9698H126.118V15.2635H127.105V23.2011H126.15V22.4136H126.129ZM122.853 20.7022C122.853 21.6367 123.42 22.5081 124.502 22.5081C125.509 22.5081 126.181 21.6682 126.181 20.7127C126.181 19.7573 125.509 18.9068 124.502 18.9068C123.42 18.9068 122.853 19.7678 122.853 20.7022Z"
          fill="#D52B1E"/>
    <path d="M116.955 20.2716H119.916C119.895 19.4842 119.433 18.8647 118.52 18.8647C117.669 18.8647 117.018 19.4947 116.955 20.2716ZM120.913 20.6706C120.913 20.7756 120.913 20.8911 120.903 21.0066H116.955C116.987 21.8571 117.701 22.5185 118.572 22.5185C119.244 22.5185 119.738 22.1825 120.021 21.7626L120.714 22.319C120.179 23.012 119.454 23.3375 118.572 23.3375C117.06 23.3375 115.947 22.2875 115.947 20.7231C115.947 19.1692 117.06 18.0878 118.52 18.0878C119.99 18.0878 120.913 19.0852 120.913 20.6706Z"
          fill="#D52B1E"/>
    <path d="M112.716 18.2243V19.0328H111.561V23.2011H110.574V19.0328H109.587V18.2243H110.574V17.1849C110.574 16.0195 111.089 15.1375 112.433 15.1375C112.664 15.1375 112.863 15.1585 113.052 15.211L112.937 16.0615C112.79 16.0195 112.632 15.988 112.443 15.988C111.698 15.988 111.561 16.5759 111.561 17.1849V18.2243H112.716ZM114.68 18.2243V23.2011H113.693V18.2243H114.68ZM114.848 16.4289C114.848 16.7859 114.543 17.0589 114.186 17.0589C113.829 17.0589 113.535 16.7754 113.535 16.4289C113.535 16.072 113.829 15.7885 114.186 15.7885C114.543 15.7885 114.848 16.0615 114.848 16.4289Z"
          fill="#D52B1E"/>
    <path d="M108.786 18.2244V23.2011H107.799V18.2244H108.786ZM108.954 16.429C108.954 16.786 108.65 17.059 108.293 17.059C107.936 17.059 107.642 16.7755 107.642 16.429C107.642 16.072 107.936 15.7885 108.293 15.7885C108.65 15.7885 108.954 16.0615 108.954 16.429Z"
          fill="#D52B1E"/>
    <path d="M104.116 19.2952C104.116 19.0327 104.106 18.5498 104.074 18.2243H105.009C105.03 18.4763 105.051 18.8543 105.051 19.0642H105.082C105.355 18.4868 105.933 18.0878 106.605 18.0878C106.741 18.0878 106.878 18.0983 106.993 18.1298L106.951 19.0432C106.825 19.0117 106.657 18.9907 106.5 18.9907C105.555 18.9907 105.103 19.7572 105.103 20.5867V23.201H104.116V19.2952Z"
          fill="#D52B1E"/>
    <path d="M98.9113 20.2717H101.872C101.851 19.4842 101.389 18.8648 100.476 18.8648C99.6252 18.8648 98.9743 19.4947 98.9113 20.2717ZM102.87 20.6707C102.87 20.7756 102.87 20.8911 102.859 21.0066H98.9113C98.9428 21.8571 99.6567 22.5185 100.528 22.5185C101.2 22.5185 101.694 22.1826 101.977 21.7626L102.67 22.3191C102.135 23.012 101.41 23.3375 100.528 23.3375C99.0163 23.3375 97.9033 22.2876 97.9033 20.7231C97.9033 19.1692 99.0163 18.0878 100.476 18.0878C101.946 18.0878 102.87 19.0852 102.87 20.6707Z"
          fill="#D52B1E"/>
    <path d="M92.3478 15.7675L94.5842 21.8571H94.6157L96.852 15.7675H97.9755L95.0566 23.2011H94.0907L91.1929 15.7675H92.3478Z"
          fill="#D52B1E"/>
    <defs>
        <clipPath id="clip0_1212_71038">
            <rect width="87.2" height="24" fill="white"/>
        </clipPath>
    </defs>
</svg>
