<svg width="24" height="24" viewBox="0 0 24 24" fill="none" xmlns="http://www.w3.org/2000/svg">
    <path d="M6.78701 1.39999C6.66384 1.39999 6.54753 1.45674 6.47173 1.55383C6.39593 1.65092 6.36908 1.77751 6.39895 1.89701L6.58143 2.62691L5.18954 14.9551C5.1874 14.974 5.18662 14.9931 5.1872 15.0121L5.3872 21.6121C5.39374 21.8282 5.57082 22 5.78701 22H6.78701C6.95918 22 7.11204 21.8898 7.16649 21.7265L7.36649 21.1265L7.37101 21.112C7.37676 21.1622 7.37685 21.2115 7.37318 21.2595C7.353 21.523 7.21067 21.7868 7.07972 21.9439C6.98036 22.0632 6.95894 22.2291 7.02478 22.3697C7.09061 22.5102 7.2318 22.6 7.38701 22.6H8.18701C8.84953 22.6 9.26604 22.2566 9.49948 21.8897C9.7178 21.5467 9.78701 21.1713 9.78701 21C9.78701 20.7689 9.78502 20.2323 9.26985 19.7172C9.2065 19.6538 9.15561 19.5319 9.14071 19.3477C9.13646 19.2953 9.13561 19.2429 9.13714 19.1926L18.1955 18.9999C18.3381 18.9969 18.4682 18.9182 18.5372 18.7934C18.6061 18.6685 18.6034 18.5165 18.53 18.3942C18.4282 18.2245 18.2656 17.9603 18.1073 17.7169C18.0283 17.5954 17.9487 17.4765 17.8773 17.3762C17.8384 17.3215 17.7965 17.2647 17.7552 17.2136C17.7752 17.1246 17.82 17.0009 17.8812 16.8538C17.9183 16.7649 17.9511 16.6907 17.9839 16.6165C18.01 16.5574 18.0362 16.4981 18.0645 16.4314C18.0921 16.3667 18.1193 16.2997 18.1401 16.2387C18.1561 16.1919 18.187 16.0981 18.187 16C18.187 15.8179 18.1149 15.6621 18.0578 15.5639C18.0353 15.5253 18.0113 15.4889 17.987 15.4556V14.0115C18.0653 13.9572 18.1523 13.8956 18.2381 13.8329C18.3911 13.721 18.5651 13.5876 18.6699 13.4828C18.7914 13.3612 18.8203 13.2093 18.811 13.0907C18.8026 12.9841 18.7642 12.8932 18.7319 12.8305C18.6662 12.7029 18.5642 12.5771 18.4683 12.4713C18.3104 12.2972 18.1145 12.1189 17.9525 11.9826L15.9798 1.72445C15.9436 1.53612 15.7788 1.39999 15.587 1.39999H6.78701Z" fill="#21262A"/>
</svg>
