<svg width="60" height="60" viewBox="0 0 60 60" fill="none" xmlns="http://www.w3.org/2000/svg">
<path d="M38.1403 4.5H18.2471C17.5965 4.5 17.1192 5.11139 17.2769 5.74254L17.4225 6.32476C17.4515 6.44065 17.4594 6.56079 17.446 6.67949L13.9743 37.429C13.969 37.4763 13.967 37.5239 13.9685 37.5714L14.4369 53.0303C14.4533 53.5705 14.896 54 15.4365 54H16.2456C16.676 54 17.0581 53.7246 17.1942 53.3162L17.415 52.6539C17.449 52.552 17.4663 52.4452 17.4663 52.3377V50.8838C17.4663 50.6718 17.6381 50.5 17.8501 50.5C17.9259 50.5 18.0016 50.523 18.0636 50.5666C19.3962 51.5041 19.5873 52.6988 19.3517 53.7257C19.1741 54.4998 19.6721 55.5 20.4663 55.5C22.9663 55.5 23.4663 53 23.4663 52.5C23.4663 52 23.4663 51 22.4663 50C21.8969 49.4306 21.8003 48.4896 21.8521 47.7541C21.8837 47.3043 22.2791 46.9933 22.7299 46.9838L43.7435 46.5367C44.5112 46.5203 44.9723 45.6821 44.5572 45.0362C44.1261 44.3653 43.6884 43.722 43.4663 43.5C42.9663 43 44.4663 40.5 44.4663 40C44.4663 39.7658 44.3521 39.5203 44.2239 39.3234C44.0792 39.1012 43.9663 38.851 43.9663 38.5858V35.0352C43.9663 34.7008 44.1337 34.3894 44.4083 34.1987C44.9508 33.8221 45.6616 33.3047 45.9663 33C46.3242 32.6421 45.1075 31.4568 44.2505 30.7338C44.0687 30.5804 43.9416 30.3717 43.8967 30.1382L39.1223 5.31115C39.0318 4.84031 38.6198 4.5 38.1403 4.5Z" fill="#21262A"/>
<path d="M30.3548 36.4999L26.8268 28.0039H24.8348L21.2708 36.4999H23.5028L24.1268 34.8319H27.4148L28.0748 36.4999H30.3548ZM26.8508 33.1879H24.7148L25.7948 30.2719L26.8508 33.1879Z" fill="#21262A"/>
<path d="M36.4089 36.4999V34.7119H33.1209V28.0039H31.0569V36.4999H36.4089Z" fill="#21262A"/>
<path fill-rule="evenodd" clip-rule="evenodd" d="M16.1798 3.88459C16.3693 3.64187 16.6601 3.5 16.968 3.5H38.968C39.4475 3.5 39.8595 3.84031 39.95 4.31115L44.8818 29.9566C45.2867 30.2974 45.7766 30.743 46.1713 31.1783C46.4111 31.4427 46.6659 31.7574 46.8303 32.0761C46.9111 32.2329 47.0071 32.4602 47.028 32.7268C47.0513 33.0234 46.9791 33.4031 46.6751 33.7071C46.4131 33.9691 45.9781 34.3026 45.5958 34.5822C45.3813 34.739 45.1638 34.8929 44.968 35.0287V38.639C45.0286 38.7223 45.0888 38.8132 45.145 38.9099C45.2877 39.1552 45.468 39.5449 45.468 40C45.468 40.2454 45.3908 40.4798 45.3508 40.5968C45.2988 40.7492 45.2306 40.9166 45.1618 41.0786C45.0909 41.2455 45.0255 41.3934 44.9603 41.5411C44.8782 41.7268 44.7963 41.9122 44.7036 42.1346C44.5504 42.5022 44.439 42.8097 44.3889 43.032C44.3888 43.0327 44.3886 43.0333 44.3885 43.034C44.4918 43.1616 44.5964 43.3038 44.6937 43.4404C44.8722 43.6913 45.0713 43.9885 45.2688 44.2923C45.6645 44.9007 46.071 45.5614 46.3255 45.9855C46.5089 46.2912 46.5157 46.6714 46.3434 46.9834C46.1711 47.2955 45.8457 47.4922 45.4893 47.4998L22.8433 47.9816C22.8395 48.1072 22.8416 48.2382 22.8523 48.3694C22.8895 48.8299 23.0167 49.1345 23.1751 49.2929C24.463 50.5808 24.468 51.9223 24.468 52.5C24.468 52.9283 24.295 53.8667 23.7492 54.7244C23.1656 55.6414 22.1243 56.5 20.468 56.5H18.468C18.08 56.5 17.727 56.2755 17.5624 55.9242C17.3978 55.5728 17.4514 55.1579 17.6998 54.8598C18.0272 54.467 18.383 53.8075 18.4334 53.1486C18.4426 53.0289 18.4424 52.9056 18.428 52.78C18.4245 52.7921 18.4207 52.8042 18.4167 52.8162L17.9167 54.3162C17.7806 54.7246 17.3984 55 16.968 55H14.468C13.9275 55 13.4848 54.5705 13.4685 54.0303L12.9685 37.5303C12.967 37.4827 12.969 37.4351 12.9743 37.3878L16.4541 6.5673L15.9979 4.74254C15.9232 4.44379 15.9903 4.1273 16.1798 3.88459ZM18.2488 5.5L18.4382 6.25746C18.4671 6.37335 18.4751 6.49349 18.4617 6.61219L14.9697 37.5412L15.4382 53H16.2473L16.468 52.3377V50.5C16.468 49.9477 16.9157 49.5 17.468 49.5H17.968C18.1654 49.5 18.3585 49.5584 18.5227 49.6679C20.0286 50.6719 20.5256 52.022 20.4276 53.3014C20.3952 53.7241 20.2995 54.1278 20.1669 54.5H20.468C21.3117 54.5 21.7704 54.1086 22.0619 53.6506C22.2174 53.4062 22.3228 53.1409 22.3884 52.9082C22.4208 52.7933 22.4417 52.6927 22.4542 52.6148C22.465 52.5468 22.4674 52.5089 22.4679 52.5008C22.468 52.4989 22.468 52.4986 22.468 52.5V52.4913C22.4681 52.0687 22.4681 51.4143 21.7609 50.7071C21.1193 50.0655 20.9132 49.2034 20.8588 48.5306C20.803 47.8408 20.892 47.181 20.9979 46.7575C21.1072 46.32 21.4959 46.0098 21.9467 46.0002L43.6924 45.5376C43.659 45.4856 43.6255 45.4339 43.5922 45.3827C43.4023 45.0907 43.2201 44.8192 43.0642 44.6002C42.8956 44.3632 42.7949 44.2411 42.7609 44.2071C42.4553 43.9015 42.3832 43.5258 42.3691 43.2848C42.3546 43.0359 42.3928 42.7928 42.4377 42.593C42.5283 42.1903 42.6981 41.7478 42.8574 41.3654C42.9449 41.1555 43.0559 40.9029 43.1536 40.6807C43.2192 40.5315 43.2788 40.396 43.3211 40.2964C43.3783 40.1618 43.4205 40.0566 43.4488 39.9772C43.4404 39.9594 43.4296 39.9386 43.416 39.9151C43.3896 39.8697 43.3584 39.8245 43.3271 39.7843C43.2951 39.7431 43.2703 39.7165 43.2609 39.7071C43.0734 39.5196 42.968 39.2652 42.968 39V34.5C42.968 34.1656 43.1351 33.8534 43.4133 33.6679C43.6535 33.5079 44.0414 33.2412 44.4153 32.9678C44.5615 32.8609 44.6969 32.7592 44.8164 32.6665C44.7788 32.6218 44.7367 32.5735 44.6897 32.5217C44.293 32.0843 43.7377 31.5964 43.3433 31.2809C43.1576 31.1323 43.0309 30.9224 42.986 30.6888L38.142 5.5H18.2488ZM45.0606 33.0096C45.0605 33.0096 45.0595 33.0075 45.058 33.0035C45.0599 33.0076 45.0607 33.0096 45.0606 33.0096ZM43.479 39.8823C43.479 39.8823 43.4788 39.8835 43.4782 39.8858C43.4787 39.8834 43.479 39.8822 43.479 39.8823Z" fill="#21262A"/>
</svg>
