<svg width="24" height="24" viewBox="0 0 24 24" fill="none" xmlns="http://www.w3.org/2000/svg">
    <path fill-rule="evenodd" clip-rule="evenodd" d="M21.3023 17.8043C21.3425 17.8041 21.3836 17.8009 21.4256 17.794C21.6264 17.7611 21.7955 17.6538 21.9359 17.5134C22.1673 17.282 22.3522 16.9842 22.2744 16.6419C22.2031 16.3281 21.9413 16.1416 21.7516 16.0332C21.5445 15.9149 21.2893 15.8169 21.0634 15.7314L21.0113 15.7117C20.7926 15.6291 20.5964 15.5549 20.432 15.4727C20.2925 15.403 20.0929 15.2422 19.8467 14.999C19.6081 14.7634 19.3538 14.4793 19.1049 14.193C19.0225 14.0982 18.9399 14.0023 18.8588 13.9081C18.7 13.7237 18.547 13.546 18.4127 13.3971C18.3103 13.2835 18.2119 13.1788 18.1231 13.094C18.043 13.0175 17.9402 12.9269 17.832 12.8727C17.5142 12.7138 17.2366 12.8762 17.0935 13.0008C16.9494 13.1263 16.8295 13.3011 16.7406 13.4408C16.6969 13.5096 16.6548 13.5794 16.6173 13.6416L16.6093 13.655C16.5831 13.6985 16.5596 13.7373 16.538 13.772L16.4901 13.7522C16.3358 13.6875 16.1339 13.5964 15.9122 13.493C15.5401 13.3195 15.1226 13.1162 14.8022 12.9574L12.8436 4.14375C12.8002 3.94848 12.6192 3.81529 12.4199 3.8319C12.0203 3.8652 11.4109 3.91515 10.8818 3.95675C10.6171 3.97756 10.3731 3.99623 10.1857 4.00967C10.0919 4.0164 10.0132 4.02176 9.95353 4.02541C9.92363 4.02724 9.89944 4.02858 9.88099 4.02946L9.86218 4.03025C9.85299 4.02713 9.83774 4.02052 9.81916 4.00972C9.80098 3.99915 9.7829 3.98667 9.76681 3.97416C9.75037 3.96137 9.73969 3.95142 9.73596 3.94768C9.72872 3.94044 9.7212 3.93348 9.71343 3.92681C8.92317 3.24945 8.16264 3.12304 7.54018 3.18232C7.23845 3.21106 6.97749 3.2825 6.78053 3.34062L6.69179 3.36706C6.63177 3.38504 6.58304 3.39964 6.53714 3.41179C6.48368 3.42593 6.45961 3.4294 6.45372 3.43024C6.32748 3.43024 6.21069 3.46803 6.12094 3.50627C6.0266 3.54646 5.93269 3.60004 5.84377 3.65811C5.66585 3.7743 5.47918 3.92747 5.3068 4.0866C5.13326 4.24678 4.96597 4.42063 4.82708 4.58322C4.70806 4.72257 4.59508 4.87074 4.52068 5.00383C4.488 4.99809 4.4462 4.98526 4.39947 4.96494C4.35029 4.94355 4.3061 4.91844 4.27499 4.8977C4.18672 4.83885 4.07869 4.81748 3.97466 4.83828C3.63341 4.90654 3.34625 5.09236 3.25196 5.43326C3.17211 5.72193 3.26731 6.01398 3.36564 6.22467C3.53338 6.58412 3.82496 6.94388 4.04036 7.17772C3.62138 7.02531 3.23011 7.19835 2.97372 7.37782C2.73795 7.54287 2.51948 7.784 2.41864 7.8953C2.39648 7.91975 2.38 7.93794 2.37027 7.94767C2.25433 8.06361 2.21983 8.20819 2.20911 8.30399C2.19747 8.40797 2.2068 8.51455 2.22618 8.61357C2.26521 8.81307 2.35538 9.03487 2.49164 9.24682C2.76669 9.67468 3.25742 10.1034 3.98735 10.2251C4.2691 10.272 4.45943 10.3276 4.5845 10.3818C4.70835 10.4356 4.74535 10.4781 4.75226 10.4875C4.75226 10.4875 4.75217 10.4917 4.75184 10.4951C4.74946 10.5198 4.73747 10.5649 4.70179 10.6385C4.69735 10.643 4.6881 10.6518 4.67172 10.6646C4.63352 10.6944 4.57554 10.7311 4.49518 10.7733C4.33438 10.8578 4.12274 10.9444 3.88983 11.0302C3.70933 11.0967 3.52617 11.1591 3.35298 11.2181L3.20761 11.2678C3.00687 11.3367 2.80325 11.4082 2.67422 11.4727C2.5318 11.544 2.36345 11.6633 2.29975 11.8863C2.24992 12.0607 2.28926 12.2373 2.31117 12.3357L2.31263 12.3423C2.31882 12.3701 2.32556 12.3991 2.33262 12.4294C2.38417 12.6511 2.45311 12.9475 2.45311 13.4305C2.45311 13.7649 2.5342 14.1244 2.86981 14.2828C2.97627 14.3331 3.08274 14.3483 3.17366 14.3494C3.18059 14.3495 3.18759 14.3495 3.19465 14.3494C3.21993 14.3491 3.24384 14.3478 3.26601 14.3459C3.37188 14.3371 3.47485 14.3124 3.55012 14.2936L3.59905 14.2812L3.65328 14.2676C3.65809 14.7947 3.76569 15.1763 3.95262 15.438C4.14502 15.7074 4.40565 15.8244 4.63482 15.8303C4.6387 15.8311 4.64468 15.8325 4.65302 15.8347C4.6808 15.8419 4.7193 15.8539 4.77025 15.8714C4.83786 15.8946 4.91141 15.9218 4.99426 15.9524C5.04009 15.9693 5.08933 15.9875 5.14141 16.0064C5.28091 16.0572 5.43646 16.1115 5.58621 16.1533C5.67653 16.1785 5.77611 16.2025 5.87627 16.2169C5.61438 16.59 5.25974 16.9251 4.85742 17.2257C4.32977 17.62 3.7423 17.9387 3.22421 18.1977C3.06291 18.2784 2.91498 18.3501 2.77625 18.4172C2.6885 18.4598 2.60397 18.5007 2.52254 18.5408C2.32565 18.6377 2.13925 18.7331 2.00901 18.8219C1.94864 18.8631 1.86229 18.9276 1.79906 19.0166C1.7653 19.0642 1.72268 19.1401 1.71041 19.2404C1.69686 19.3512 1.72457 19.4588 1.78356 19.5473C1.88052 19.6928 2.03408 19.7462 2.10105 19.7673C2.18996 19.7953 2.29385 19.8137 2.40348 19.8274C2.46416 19.835 2.52583 19.8392 2.58831 19.8404C2.61295 19.8409 2.63793 19.8409 2.6632 19.8403C3.10882 19.8313 3.59194 19.6742 4.05171 19.4671C4.61558 19.2132 5.20559 18.8555 5.75175 18.4871C6.29966 18.1176 6.81368 17.7304 7.22546 17.4129C7.35605 17.3122 7.47388 17.2206 7.57836 17.1393C7.81384 16.9561 7.98166 16.8256 8.07498 16.7633C8.45033 16.5131 8.6531 16.2023 8.6531 15.8305C8.6531 15.556 8.53462 15.2996 8.44588 15.1215C8.45755 15.111 8.47159 15.0986 8.48842 15.0842L8.51947 15.0577C8.60639 14.9837 8.71882 14.888 8.83738 14.7572C8.83732 14.7672 8.83737 14.7772 8.83753 14.7872C8.84206 15.0587 8.93769 15.3677 9.23122 15.5633C9.52927 15.762 9.8503 15.6755 10.0646 15.5644C10.2828 15.4513 10.4914 15.2666 10.6726 15.0765C10.9134 14.8239 11.1454 14.5194 11.3354 14.2417C11.4196 14.2231 11.5078 14.2174 11.5921 14.2234C11.7247 14.2548 11.8658 14.276 12.0085 14.2909C12.2434 14.3154 12.5044 14.3247 12.7703 14.3283C12.9359 14.3306 13.1065 14.3306 13.278 14.3306C13.4582 14.3306 13.6395 14.3306 13.8173 14.3332C14.062 14.3369 14.294 14.3455 14.5049 14.3661C14.8838 14.4031 15.109 14.4725 15.2131 14.5505C15.6768 14.8983 16.195 15.0701 16.6535 15.1274C16.755 15.1401 16.8561 15.1475 16.9553 15.1495C16.9925 15.1504 17.029 15.1504 17.0648 15.1496C17.309 15.1448 17.537 15.1067 17.7237 15.0356L17.7494 15.0658C17.9396 15.2877 18.2483 15.5839 18.9266 15.81C19.1354 15.8796 19.3435 16.0374 19.5631 16.2685C19.73 16.4442 19.8803 16.6358 20.0352 16.8334C20.0863 16.8985 20.1379 16.9643 20.1908 17.0304C20.3822 17.2697 20.618 17.551 20.8899 17.696C21.0076 17.7588 21.1459 17.8041 21.2985 17.8043L21.3023 17.8043ZM2.3293 18.9997C2.3293 18.9997 2.33319 19.0007 2.33918 19.0035C2.332 19.0012 2.3293 18.9997 2.3293 18.9997ZM16.7104 13.8359C16.7133 13.8365 16.7138 13.8367 16.7138 13.8367L16.7104 13.8359Z" fill="#21262A"/>
</svg>
