<svg width="60" height="60" viewBox="0 0 60 60" fill="none" xmlns="http://www.w3.org/2000/svg">
<path d="M36.03 33.6118L31.3226 12.4285C31.2141 11.9403 30.7622 11.6074 30.2638 11.6484C28.134 11.8238 24.9815 12.0764 24.6332 12.0764C24.2332 12.0764 23.7999 11.7431 23.6332 11.5764C20.1332 8.5764 17.1332 10.5764 16.1332 10.5764C15.1332 10.5764 12.6332 13.0764 12.1332 14.0764C11.8129 14.717 11.0437 14.5454 10.4932 14.2804C10.2542 14.1654 9.98093 14.0925 9.73535 14.1926C7.92824 14.9297 10.1933 17.6365 11.1332 18.5764C12.1332 19.5764 14.6332 20.5764 13.1332 21.0764C11.6332 21.5764 11.6332 21.0764 10.1332 20.0764C8.63324 19.0764 7.13324 21.0764 6.63324 21.5764C6.13324 22.0764 7.13324 25.0764 10.1332 25.5764C13.1332 26.0764 13.1332 27.0764 12.6332 28.0764C12.1332 29.0764 8.13324 30.0764 7.13324 30.5764C6.13324 31.0764 7.13324 31.5764 7.13324 34.5764C7.13324 37.5764 10.1332 34.0764 10.1332 36.5764C10.1332 39.0764 11.1332 39.5764 11.6332 39.5764C12.1332 39.5764 14.1332 40.5764 15.1332 40.5764C15.6549 40.5764 15.9214 40.7181 16.0438 40.863C16.1439 40.9816 16.0981 41.1491 16.0244 41.2858C12.8774 47.1231 2.18011 49.0823 6.13321 49.5764C10.1332 50.0764 18.1332 43.0764 19.6332 42.0764C21.1332 41.0764 20.6332 40.0764 20.1332 39.0764C19.6332 38.0764 21.1332 38.0764 22.1332 36.0764C23.1332 34.0764 26.1332 34.5764 25.1332 34.5764C24.1332 34.5764 22.1332 38.0764 23.6332 39.0764C24.6047 39.724 26.2971 37.7939 27.437 36.1509C27.8079 35.6164 28.6468 35.4611 29.282 35.6018C31.8129 36.1621 36.9642 35.3246 38.6332 36.5764C40.6332 38.0764 43.1332 38.0764 44.1332 37.5764C45.1332 37.0764 44.6332 38.5764 47.6332 39.5764C50.6332 40.5764 52.1332 46.0764 54.1332 44.0764C56.1332 42.0764 52.6332 41.5764 50.6332 40.5764C48.6332 39.5764 45.1332 34.5764 44.1332 34.0764C43.1332 33.5764 42.1332 36.5764 41.6332 36.5764C41.2648 36.5764 38.3228 35.1623 36.5583 34.288C36.2885 34.1543 36.0953 33.9057 36.03 33.6118Z" fill="#21262A"/>
<path d="M35.4126 50.0761L31.8846 41.5801H29.8926L26.3286 50.0761H28.5606L29.1846 48.4081H32.4726L33.1326 50.0761H35.4126ZM31.9086 46.7641H29.7726L30.8526 43.8481L31.9086 46.7641Z" fill="#21262A"/>
<path d="M43.9868 50.0761L40.1108 45.4921L43.7708 41.5801H41.2028L38.1668 45.0361H38.1308V41.5801H36.1148V50.0761H38.1308V46.1641H38.1548L41.3108 50.0761H43.9868Z" fill="#21262A"/>
<path fill-rule="evenodd" clip-rule="evenodd" d="M16.1674 10.5759C16.155 10.5795 16.1287 10.5878 16.0867 10.6056C15.9925 10.6458 15.864 10.715 15.7035 10.8198C15.3827 11.0293 15.0056 11.3339 14.624 11.6861C14.2454 12.0356 13.8824 12.4135 13.5889 12.757C13.282 13.1163 13.0967 13.3854 13.0277 13.5235C12.8178 13.9433 12.4841 14.2409 12.0776 14.3954C11.6981 14.5397 11.3208 14.5351 11.0219 14.4901C10.6719 14.4374 10.3378 14.3155 10.0572 14.1802C10.0589 14.2026 10.0624 14.2312 10.0693 14.2668C10.0912 14.3807 10.1406 14.531 10.2269 14.7159C10.5896 15.493 11.365 16.3938 11.8404 16.8692C12.0187 17.0475 12.2932 17.252 12.6459 17.495C12.7229 17.548 12.8053 17.604 12.8903 17.6617C13.1564 17.8424 13.4485 18.0407 13.6847 18.2244C13.8451 18.3492 14.0181 18.4958 14.1655 18.659C14.2993 18.8072 14.4968 19.06 14.5714 19.4029C14.6639 19.8284 14.5367 20.2467 14.2442 20.5548C14.0048 20.807 13.6974 20.9423 13.4495 21.025C12.6083 21.3053 11.9157 21.398 11.186 21.0332C10.9013 20.8908 10.6406 20.6909 10.4231 20.5242L10.4155 20.5183C10.3994 20.506 10.3833 20.4937 10.3671 20.4812C10.1426 20.3089 9.89862 20.1217 9.57856 19.9083C9.33923 19.7488 9.07221 19.7397 8.58172 20.083C8.20428 20.3472 7.92061 20.6579 7.65708 20.9466C7.61071 20.9973 7.56496 21.0474 7.51944 21.0965C7.52189 21.1128 7.52494 21.1306 7.52871 21.1499C7.57176 21.3699 7.69008 21.6904 7.91194 22.0355C8.3493 22.7159 9.12248 23.394 10.2977 23.5899C11.0933 23.7225 11.7424 23.8962 12.2579 24.1199C12.7707 24.3424 13.2118 24.6408 13.5095 25.0575C14.1717 25.9846 13.8047 26.9695 13.5277 27.5235C13.3694 27.8401 13.1204 28.0744 12.909 28.2391C12.6861 28.4128 12.4287 28.5671 12.1687 28.7037C11.6488 28.9769 11.0217 29.2291 10.4165 29.4521C9.93961 29.6278 9.45026 29.7946 9.01425 29.9432C8.89466 29.9839 8.77909 30.0233 8.66888 30.0612C8.24758 30.2058 7.93328 30.3185 7.73035 30.4032C7.73167 30.4093 7.73304 30.4155 7.73445 30.4218C7.74818 30.4837 7.7639 30.551 7.78098 30.6241C7.91514 31.1988 8.13326 32.133 8.13326 33.5763C8.13326 33.6926 8.13855 33.7821 8.14579 33.8498C8.21174 33.8369 8.29146 33.8185 8.39072 33.7936C8.41686 33.7871 8.44532 33.7799 8.47563 33.7721C8.62821 33.7333 8.82768 33.6825 9.01432 33.6504C9.23521 33.6123 9.56363 33.575 9.90704 33.6608C10.3027 33.7597 10.6575 34.0074 10.8809 34.4144C11.078 34.7733 11.1333 35.1844 11.1333 35.5763C11.1333 36.7106 11.3627 37.2271 11.5095 37.4325C11.5817 37.5336 11.6373 37.5669 11.6587 37.5765C11.8457 37.58 12.0231 37.6214 12.1393 37.6518C12.2789 37.6883 12.4287 37.7365 12.5748 37.7866C12.7651 37.8518 12.9884 37.9343 13.2117 38.0168C13.3216 38.0574 13.4315 38.098 13.5375 38.1365C13.8763 38.2597 14.2061 38.3738 14.5036 38.4568C14.8159 38.544 15.0226 38.5763 15.1333 38.5763C16.121 38.5763 17.1333 39.0526 17.1332 40.0763C17.1332 40.2316 17.0971 40.3847 17.0277 40.5235C16.4352 41.7083 15.5797 42.7311 14.6195 43.6118C15.4282 43.0296 16.1836 42.4567 16.843 41.9484C17.1175 41.7367 17.3807 41.5319 17.6265 41.3407C18.2618 40.8465 18.7806 40.4428 19.0785 40.2442C19.6336 39.8742 19.6333 39.652 19.6332 39.5788L19.6332 39.5763C19.6332 39.3583 19.5178 39.0815 19.2388 38.5235C19.0073 38.0604 18.942 37.5352 19.1998 37.0197C19.3848 36.6497 19.709 36.3724 19.8974 36.2114C19.9051 36.2047 19.9127 36.1983 19.9199 36.192C19.9419 36.1732 19.9639 36.1544 19.9861 36.1355C20.4052 35.7774 20.858 35.3906 21.2388 34.6291C21.9489 33.2089 23.3379 32.7367 24.2188 32.5899C24.6704 32.5146 25.0722 32.5089 25.3265 32.5344C25.3827 32.54 25.4821 32.5517 25.5864 32.5813C25.5871 32.5815 25.5881 32.5818 25.5893 32.5821C25.6177 32.5899 25.7907 32.6372 25.9575 32.7709C26.0414 32.8382 26.2994 33.0671 26.3315 33.4771C26.3671 33.934 26.0997 34.221 25.9727 34.3269C25.8455 34.4329 25.7227 34.4814 25.6755 34.4991C25.6152 34.5216 25.5636 34.5345 25.5312 34.5417C25.4662 34.5561 25.4088 34.5629 25.3719 34.5665C25.3338 34.5702 25.2946 34.5726 25.2553 34.5741C25.2005 34.6134 25.1174 34.6859 25.0144 34.8021C24.7866 35.0591 24.5436 35.4368 24.3619 35.8521C24.1769 36.2749 24.0894 36.6588 24.094 36.9346C24.0962 37.0653 24.116 37.1402 24.1372 37.1837C24.1639 37.1732 24.1985 37.1578 24.2419 37.1353C24.4965 37.0034 24.8375 36.7276 25.2344 36.3113C26.0151 35.4924 26.7969 34.3599 27.2758 33.5618C27.4342 33.2977 27.7054 33.1214 28.0111 33.0838C28.3167 33.0461 28.6226 33.1514 28.8404 33.3692C28.8679 33.3967 28.9703 33.4741 29.2302 33.555C29.4817 33.6333 29.814 33.6946 30.2292 33.7379C31.0652 33.8252 32.0863 33.8263 33.1957 33.8263H33.2257C33.9748 33.8263 34.7615 33.8263 35.5119 33.8598C35.3338 33.7186 35.2073 33.5192 35.1571 33.2932L30.3463 11.6449C29.4387 11.7196 28.3453 11.8084 27.3616 11.8857C26.0714 11.9871 24.8848 12.0763 24.6333 12.0763C24.1781 12.0763 23.7885 11.8959 23.5431 11.7533C23.3028 11.6135 23.0981 11.4493 22.9584 11.315C21.4439 10.027 20.1038 9.84551 19.0406 9.94677C18.4824 9.99993 17.9785 10.1338 17.5178 10.2698C17.4596 10.2869 17.3993 10.305 17.3383 10.3233C17.1732 10.3728 17.0028 10.4238 16.8548 10.4629C16.6687 10.5122 16.4196 10.571 16.1674 10.5759ZM42.7895 35.8681C43.213 35.8438 43.5247 35.7625 43.686 35.6819C43.8753 35.5872 44.1156 35.4946 44.3922 35.4792C44.699 35.4621 44.9726 35.544 45.2016 35.6839C45.3106 35.7506 45.4035 35.827 45.4798 35.8988C45.1436 35.5084 44.8316 35.1477 44.5467 34.8318C44.3027 34.5611 44.0955 34.3423 43.927 34.1813C43.9194 34.174 43.912 34.167 43.9047 34.1602C43.8027 34.282 43.6811 34.453 43.5394 34.6757C43.4437 34.8261 43.3504 34.9809 43.254 35.141L43.2369 35.1694C43.1381 35.3335 43.0323 35.5086 42.9299 35.6645C42.8877 35.7287 42.8407 35.7981 42.7895 35.8681ZM51.932 41.1918C51.9683 41.2377 52.004 41.2827 52.0391 41.3266C52.5605 41.9783 52.9085 42.3377 53.1663 42.4752C53.2071 42.4969 53.2325 42.5057 53.2456 42.509C53.2681 42.4995 53.3283 42.467 53.4261 42.3692C53.5853 42.21 53.6631 42.1012 53.7002 42.0365C53.6522 41.992 53.5595 41.918 53.3871 41.8195C53.0298 41.6154 52.5429 41.4229 51.9512 41.1991C51.9448 41.1966 51.9384 41.1942 51.932 41.1918ZM53.7325 41.9627C53.7329 41.9627 53.7324 41.9662 53.7301 41.9735C53.7309 41.9664 53.7321 41.9628 53.7325 41.9627ZM53.2567 42.5108C53.2568 42.511 53.2552 42.511 53.2516 42.5103C53.2548 42.5103 53.2566 42.5106 53.2567 42.5108ZM24.0614 37.2048C24.0617 37.2042 24.0669 37.2031 24.0762 37.2033C24.0657 37.2055 24.0611 37.2054 24.0614 37.2048ZM24.1844 37.2419C24.1856 37.2427 24.1868 37.2434 24.1879 37.2442C24.1875 37.2439 24.187 37.2436 24.1864 37.2432C24.1858 37.2428 24.1851 37.2424 24.1844 37.2419ZM25.301 34.5455C25.301 34.5457 25.2985 34.5471 25.2937 34.5491C25.2986 34.5464 25.3011 34.5453 25.301 34.5455ZM5.82375 47.4992C5.82449 47.4989 5.83345 47.5018 5.84844 47.5088C5.8305 47.503 5.823 47.4995 5.82375 47.4992ZM11.6683 37.5799C11.6682 37.58 11.6668 37.5797 11.6641 37.5787C11.667 37.5793 11.6683 37.5798 11.6683 37.5799ZM7.94862 33.8732C7.94864 33.8732 7.94929 33.8732 7.95051 33.8734L7.94862 33.8732ZM8.17767 34.0185C8.18431 34.0293 8.18669 34.0361 8.18623 34.0368C8.18576 34.0376 8.18244 34.0322 8.17767 34.0185ZM10.0274 14.1657C10.0249 14.1687 10.0244 14.1705 10.0253 14.1708C10.0261 14.1712 10.0283 14.1702 10.0312 14.1676C10.03 14.167 10.0287 14.1663 10.0274 14.1657ZM18.8509 7.95578C20.4071 7.80758 22.3084 8.12361 24.284 9.81702C24.3035 9.83368 24.3223 9.85108 24.3404 9.86918C24.3497 9.87853 24.3764 9.9034 24.4175 9.93538C24.4577 9.96665 24.5029 9.99786 24.5484 10.0243C24.5948 10.0513 24.6309 10.0671 24.6539 10.0749C24.6546 10.0752 24.6553 10.0754 24.6559 10.0756C24.667 10.0752 24.6824 10.0746 24.703 10.0736C24.7491 10.0714 24.8096 10.0681 24.8843 10.0635C25.0335 10.0544 25.2303 10.041 25.4648 10.0242C25.9333 9.99056 26.5432 9.94389 27.2049 9.89186C28.5278 9.78786 30.0512 9.66299 31.0502 9.57973C31.5486 9.5382 32.001 9.87118 32.1094 10.3593L37.0059 32.3936C37.8071 32.7906 38.8508 33.2987 39.781 33.7325C40.3351 33.991 40.8399 34.2188 41.2258 34.3805C41.2676 34.398 41.3075 34.4145 41.3454 34.43C41.3995 34.3433 41.4582 34.2463 41.5237 34.1375L41.5435 34.1046C41.6373 33.9489 41.7425 33.7741 41.8521 33.6019C42.0743 33.2527 42.374 32.8157 42.7343 32.5019C43.0919 32.1904 43.7859 31.7846 44.5805 32.1819C44.851 32.3171 45.108 32.5437 45.3083 32.7349C45.5303 32.947 45.7763 33.2087 46.0323 33.4927C46.368 33.8651 46.7502 34.309 47.1472 34.7699C47.35 35.0054 47.5566 35.2454 47.7629 35.4826C48.3851 36.1981 49.0206 36.9085 49.6171 37.4975C50.2328 38.1056 50.7318 38.5075 51.0805 38.6819C51.4914 38.8873 51.9821 39.0727 52.5288 39.2793C52.5719 39.2955 52.6153 39.3119 52.659 39.3285C53.2236 39.5421 53.8617 39.7872 54.3794 40.083C54.8537 40.3541 55.5082 40.8203 55.6865 41.6047C55.881 42.4604 55.4188 43.205 54.8404 43.7834C54.4893 44.1345 54.0665 44.4027 53.5646 44.485C53.0564 44.5683 52.5994 44.4395 52.2252 44.2399C51.5455 43.8774 50.956 43.1743 50.4774 42.576C50.3453 42.4108 50.2163 42.2464 50.0887 42.0837C49.7012 41.5896 49.3255 41.1105 48.9082 40.6713C48.3593 40.0935 47.839 39.699 47.317 39.525C45.6213 38.9597 44.8495 38.2193 44.374 37.6646C44.3493 37.6357 44.3282 37.6109 44.3097 37.589C43.5879 37.8639 42.6185 37.9416 41.6342 37.8186C40.4881 37.6753 39.1924 37.2456 38.0332 36.3763C37.7731 36.1812 37.21 36.0077 36.2627 35.9153C35.3598 35.8272 34.3025 35.8263 33.1957 35.8263H33.1604C32.0929 35.8263 30.9721 35.8263 30.0216 35.7271C29.5384 35.6767 29.0621 35.5974 28.6359 35.4647C28.5811 35.4477 28.526 35.4294 28.4706 35.4096C27.9732 36.1536 27.3408 37.0002 26.6821 37.6913C26.2289 38.1666 25.7075 38.6284 25.1621 38.911C24.6262 39.1887 23.8237 39.4051 23.0785 38.9083C22.3447 38.4191 22.1056 37.6468 22.0943 36.9679C22.0939 36.943 22.0938 36.918 22.0939 36.8929C21.7975 37.22 21.5165 37.4593 21.2992 37.6443C21.2723 37.6672 21.2464 37.6892 21.2215 37.7105C21.1795 37.7466 21.1444 37.7774 21.1152 37.8036C21.337 38.249 21.6332 38.89 21.6332 39.5763C21.6332 40.5058 21.1263 41.2827 20.1879 41.9083C19.9546 42.0639 19.5354 42.39 18.9467 42.848C18.6854 43.0512 18.3908 43.2805 18.0641 43.5323C17.0347 44.326 15.7496 45.2941 14.3799 46.2178C13.0145 47.1387 11.5394 48.033 10.1298 48.6678C8.75286 49.2878 7.29216 49.7289 6.0092 49.5686C5.73512 49.5343 5.47538 49.4882 5.25311 49.4182C5.08568 49.3655 4.70179 49.2319 4.45938 48.8683C4.31192 48.6471 4.24265 48.378 4.27652 48.1011C4.3072 47.8503 4.41375 47.6605 4.49814 47.5416C4.65621 47.3189 4.87208 47.1576 5.02302 47.0547C5.34861 46.8327 5.81462 46.5942 6.30685 46.3519C6.51059 46.2516 6.72093 46.1498 6.9405 46.0434C7.28749 45.8753 7.65753 45.6961 8.06102 45.4944C9.35624 44.8467 10.8249 44.0499 12.144 43.0643C13.1498 42.3127 14.0364 41.475 14.6912 40.5422C14.4408 40.5062 14.1918 40.4462 13.966 40.3832C13.5916 40.2787 13.2028 40.1429 12.854 40.0161C12.7234 39.9686 12.6013 39.9235 12.4864 39.881C12.2792 39.8044 12.0952 39.7364 11.9261 39.6785C11.7987 39.6348 11.7025 39.6048 11.633 39.5867C11.6122 39.5812 11.5972 39.5778 11.5875 39.5757C11.0146 39.5609 10.363 39.2684 9.88203 38.595C9.4147 37.9408 9.14571 36.9867 9.13368 35.6691C9.09232 35.6793 9.04763 35.6906 8.9981 35.7031C8.96036 35.7127 8.91981 35.7229 8.87579 35.7339C8.68761 35.781 8.43019 35.8428 8.16552 35.8648C7.90111 35.8869 7.53804 35.8785 7.175 35.7071C6.33598 35.3109 6.13326 34.4123 6.13326 33.5763C6.13326 32.3687 5.9609 31.6277 5.83203 31.0736C5.81438 30.9977 5.79754 30.9253 5.78207 30.8557L5.77842 30.8393C5.72363 30.5933 5.62528 30.1517 5.74986 29.7156C5.90911 29.1583 6.32999 28.8599 6.68604 28.6819C7.00861 28.5206 7.51767 28.3418 8.01951 28.1695C8.13803 28.1288 8.25929 28.0875 8.38258 28.0455C8.81567 27.8978 9.27368 27.7417 9.72505 27.5754C10.3073 27.3609 10.8364 27.1444 11.2384 26.9332C11.4393 26.8277 11.5843 26.7359 11.6798 26.6615C11.7207 26.6296 11.7439 26.6076 11.755 26.5963C11.8442 26.4123 11.8741 26.2994 11.8801 26.2378C11.8809 26.2293 11.8811 26.2231 11.8811 26.2188C11.8639 26.1954 11.7714 26.0889 11.4617 25.9546C11.1491 25.8189 10.6732 25.6801 9.96886 25.5627C8.14404 25.2585 6.91722 24.1867 6.22958 23.117C5.88894 22.5871 5.66351 22.0327 5.56593 21.5339C5.51749 21.2864 5.49416 21.0199 5.52325 20.76C5.55006 20.5205 5.63632 20.159 5.92615 19.8692C5.95049 19.8448 5.99168 19.7994 6.04708 19.7382C6.29918 19.46 6.84535 18.8572 7.4348 18.4445C8.07576 17.9959 9.05393 17.5633 10.1014 17.9443C9.56289 17.3597 8.83393 16.4603 8.41458 15.5617C8.16877 15.0349 7.93077 14.3048 8.13038 13.5831C8.36611 12.7309 9.08401 12.2663 9.93714 12.0957C10.1972 12.0437 10.4673 12.0971 10.688 12.2442C10.7657 12.2961 10.8762 12.3589 10.9992 12.4123C11.116 12.4631 11.2205 12.4952 11.3022 12.5096C11.4882 12.1768 11.7706 11.8064 12.0682 11.458C12.4154 11.0516 12.8336 10.6169 13.2675 10.2165C13.6984 9.81866 14.1651 9.43574 14.6099 9.14526C14.8322 9.00008 15.067 8.86614 15.3028 8.76567C15.5272 8.67007 15.8177 8.57628 16.1333 8.57628C16.13 8.57628 16.1303 8.57624 16.1348 8.57559C16.1495 8.57347 16.2097 8.56481 16.3433 8.52946C16.4581 8.49909 16.5799 8.4626 16.73 8.41764C16.7975 8.39739 16.8708 8.37543 16.9518 8.35154C17.4442 8.20624 18.0966 8.02762 18.8509 7.95578ZM12.6964 20.018C12.6961 20.0179 12.6936 20.015 12.6896 20.0091C12.6946 20.015 12.6966 20.018 12.6964 20.018ZM12.8874 19.1004C12.8894 19.0993 12.8905 19.0987 12.8906 19.0987C12.8906 19.0987 12.8896 19.0993 12.8874 19.1004ZM44.6098 37.4574C44.6099 37.4574 44.609 37.4577 44.6072 37.4583C44.6089 37.4577 44.6098 37.4574 44.6098 37.4574ZM41.7745 34.5893C41.7752 34.5895 41.7759 34.5896 41.7765 34.5898C41.7818 34.5912 41.7846 34.5918 41.7849 34.5918C41.7854 34.5918 41.7818 34.5908 41.7745 34.5893Z" fill="#21262A"/>
</svg>
