<svg width="60" height="60" viewBox="0 0 60 60" fill="none" xmlns="http://www.w3.org/2000/svg">
<path d="M48.943 6.56804C37.4327 7.27237 21.9581 6.82342 15.4896 6.5C14.4896 6.5 16.4896 11.5 15.4896 13.5C14.4896 15.5 12.4896 11 10.9896 14.5C9.48962 18 13.4896 29 13.4896 30C13.4896 31 12.4896 35 10.9896 37C9.48962 39 10.9896 41 10.9896 42.5C10.9896 43.0989 10.7406 43.7226 10.4289 44.2594C10.0629 44.8899 10.2688 45.7886 10.9525 46.0418L36.3048 55.4315C36.4268 55.4767 36.5565 55.4977 36.6866 55.4932L50.004 55.034C50.5505 55.0151 50.9806 54.5607 50.9693 54.014L50.0113 7.54922C49.9995 6.97812 49.5131 6.53315 48.943 6.56804Z" fill="#21262A"/>
<path d="M32.4863 33.4999L28.9583 25.0039H26.9663L23.4023 33.4999H25.6343L26.2583 31.8319H29.5463L30.2063 33.4999H32.4863ZM28.9823 30.1879H26.8463L27.9263 27.2719L28.9823 30.1879Z" fill="#21262A"/>
<path d="M39.4765 33.4999V31.7239H35.2525L39.3925 26.6479V25.0039H32.8765V26.7439H36.8245L32.7805 31.7239V33.4999H39.4765Z" fill="#21262A"/>
<path fill-rule="evenodd" clip-rule="evenodd" d="M50.4248 4.76198C50.6267 4.94659 50.7442 5.20586 50.7498 5.47939L51.7498 53.9794C51.7611 54.5262 51.331 54.9806 50.7845 54.9994L36.2845 55.4994C36.1544 55.5039 36.0247 55.483 35.9027 55.4378L8.9027 45.4378C8.58319 45.3194 8.34592 45.0465 8.27312 44.7137C8.20031 44.3808 8.30199 44.0338 8.54291 43.7929C8.73671 43.5991 9.05726 43.217 9.32301 42.7599C9.59704 42.2886 9.75002 41.8449 9.75002 41.5C9.75002 41.2711 9.69063 40.9787 9.57432 40.5522C9.55008 40.4633 9.52295 40.3673 9.49428 40.2659C9.39866 39.9275 9.286 39.5289 9.20694 39.1336C8.98897 38.0438 8.96473 36.7137 9.95002 35.4C10.5982 34.5358 11.1825 33.164 11.6096 31.8218C11.819 31.1635 11.9825 30.5385 12.0925 30.0248C12.2011 29.5181 12.245 29.1779 12.2496 29.0255C12.2476 29.0127 12.2419 28.9761 12.2272 28.9071C12.2033 28.7943 12.1658 28.6412 12.1142 28.4456C12.011 28.0548 11.864 27.5409 11.6872 26.924L11.6737 26.8771C11.3245 25.6587 10.8726 24.0821 10.4663 22.4257C10.0558 20.752 9.68445 18.9679 9.51346 17.3638C9.34778 15.8095 9.346 14.2375 9.83087 13.1061C10.2511 12.1256 10.8359 11.3909 11.7071 11.1772C12.523 10.9771 13.2509 11.3359 13.6616 11.557C13.7769 11.6191 13.8887 11.6832 13.987 11.7397L13.9973 11.7456C14.0952 11.8018 14.1788 11.8499 14.2595 11.8937C14.3116 11.922 14.3564 11.9451 14.3948 11.9638C14.5021 11.6873 14.5586 11.24 14.5321 10.6041C14.5037 9.92259 14.3887 9.16501 14.2636 8.4144C14.2465 8.31183 14.229 8.2082 14.2114 8.10426C14.1072 7.48756 14.001 6.85982 13.9707 6.37488C13.9539 6.10543 13.9489 5.74948 14.0476 5.42653C14.1 5.25504 14.2036 5.01808 14.4209 4.81912C14.6606 4.59963 14.9583 4.5 15.25 4.5C15.2667 4.5 15.2833 4.50042 15.3 4.50125C21.9558 4.83404 38.1417 5.2982 49.6812 4.50237C49.9542 4.48355 50.2229 4.57737 50.4248 4.76198ZM14.3073 12.1341C14.3073 12.1341 14.3077 12.1336 14.3086 12.1326C14.3077 12.1336 14.3073 12.1341 14.3073 12.1341ZM16.5304 10.5209C16.5633 11.3116 16.5121 12.2119 16.1444 12.9472C15.9602 13.3158 15.6869 13.6677 15.2714 13.8715C14.8447 14.0808 14.4227 14.0585 14.0985 13.9792C13.7918 13.9042 13.5129 13.7641 13.305 13.6512C13.2025 13.5956 13.0998 13.5366 13.0079 13.4838L12.9908 13.4739C12.8906 13.4164 12.8012 13.3653 12.7134 13.318C12.3117 13.1016 12.1958 13.1167 12.1836 13.1197C12.1828 13.1198 12.1814 13.1202 12.1787 13.1213C12.176 13.1225 12.1705 13.125 12.1621 13.1302C12.1456 13.1404 12.1128 13.164 12.0662 13.2143C11.9687 13.3193 11.8286 13.522 11.6692 13.8939C11.404 14.5125 11.3398 15.628 11.5022 17.1518C11.6593 18.6259 12.0068 20.3105 12.4087 21.9493C12.8058 23.5679 13.2488 25.1136 13.5993 26.3364L13.6097 26.3729C13.7845 26.9825 13.9382 27.5194 14.048 27.9352C14.1028 28.143 14.1498 28.3322 14.1837 28.492C14.2123 28.6267 14.25 28.8211 14.25 29C14.25 29.3625 14.1674 29.8875 14.0481 30.4439C13.9238 31.024 13.7435 31.7115 13.5154 32.4282C13.0675 33.836 12.4018 35.4642 11.55 36.6C11.0353 37.2863 11.0111 37.9562 11.1681 38.7414C11.2304 39.053 11.3127 39.3446 11.4033 39.6656C11.436 39.7812 11.4696 39.9005 11.5038 40.0259C11.6219 40.4589 11.75 40.9789 11.75 41.5C11.75 42.3551 11.403 43.1614 11.052 43.7651C10.9975 43.8588 10.9415 43.9502 10.8844 44.039L36.4125 53.4938L49.7299 53.0346L48.7718 6.56572C37.6513 7.2467 22.8769 6.85599 15.9932 6.53691C16.0314 6.86677 16.0997 7.27261 16.1806 7.75318C16.1987 7.86028 16.2173 7.97109 16.2364 8.0856C16.3613 8.83499 16.4963 9.70242 16.5304 10.5209Z" fill="#21262A"/>
</svg>
