<svg width="24" height="24" viewBox="0 0 24 24" fill="none" xmlns="http://www.w3.org/2000/svg">
    <path fill-rule="evenodd" clip-rule="evenodd" d="M20.2997 2.19174C20.2975 2.08233 20.2505 1.97862 20.1697 1.90478C20.089 1.83094 19.9815 1.79341 19.8723 1.80094C15.2565 2.11927 8.78214 1.93361 6.11979 1.80049C6.11313 1.80016 6.10647 1.79999 6.09981 1.79999C5.98313 1.79999 5.86404 1.83984 5.76816 1.92764C5.68125 2.00722 5.63979 2.102 5.61883 2.1706C5.57936 2.29978 5.58135 2.44216 5.58809 2.54994C5.60021 2.74391 5.64267 2.99501 5.68438 3.24169L5.70525 3.36575C5.7553 3.66599 5.8013 3.96902 5.81266 4.24164C5.82326 4.49597 5.80065 4.67491 5.75771 4.78551C5.74236 4.77802 5.72446 4.7688 5.70362 4.75747C5.67134 4.73994 5.6379 4.72073 5.59876 4.69825L5.5946 4.69586C5.55529 4.67328 5.51057 4.64763 5.46445 4.6228C5.30015 4.53433 5.00901 4.39083 4.68265 4.47088C4.33418 4.55635 4.10023 4.85024 3.93215 5.24242C3.7382 5.69497 3.73892 6.32381 3.80519 6.94551C3.87359 7.58713 4.02211 8.30078 4.18633 8.97028C4.34884 9.63283 4.52961 10.2635 4.66929 10.7508L4.67467 10.7696C4.7454 11.0164 4.80422 11.2219 4.84548 11.3782C4.86613 11.4565 4.88112 11.5177 4.8907 11.5628C4.89631 11.5893 4.89863 11.6039 4.89954 11.6095C4.89768 11.6705 4.88025 11.8072 4.83682 12.0099C4.79279 12.2154 4.72742 12.4654 4.64364 12.7287C4.47282 13.2656 4.23908 13.8143 3.97981 14.16C3.5857 14.6855 3.59539 15.2175 3.68258 15.6534C3.7142 15.8116 3.75927 15.971 3.79752 16.1063C3.80898 16.1469 3.81984 16.1853 3.82953 16.2209C3.87606 16.3915 3.89981 16.5084 3.89981 16.6C3.89981 16.7379 3.83862 16.9154 3.72901 17.1039C3.62271 17.2868 3.49449 17.4396 3.41697 17.5171C3.3206 17.6135 3.27993 17.7523 3.30905 17.8855C3.33817 18.0186 3.43308 18.1278 3.56089 18.1751L14.3609 22.1751C14.4097 22.1932 14.4616 22.2015 14.5136 22.1998L14.6248 22.1959C14.6412 22.1974 14.6577 22.1978 14.6742 22.1973L20.0012 22.0136C20.018 22.013 20.0345 22.0114 20.0507 22.0088L20.3136 21.9998C20.5322 21.9922 20.7042 21.8105 20.6997 21.5917L20.2997 2.19174Z" fill="#21262A"/>
</svg>
