<svg width="60" height="60" viewBox="0 0 60 60" fill="none" xmlns="http://www.w3.org/2000/svg">
<path d="M50.1404 8.50035C48.8522 8.53977 29.3738 9.44659 6.85761 8.54684C6.24805 8.52248 5.75513 9.04343 5.8179 9.65023L7.19098 22.9234C7.19619 22.9737 7.19767 23.0224 7.1952 23.073C6.86069 29.9312 6.19881 43.6005 6.19881 43.999C6.19881 44.3221 8.15602 44.4495 9.69914 44.4865C10.2513 44.4998 10.6988 44.9468 10.6988 45.499V50.0161C10.6988 50.5617 11.1361 51.0066 11.6816 51.016L38.965 51.4864C39.4017 51.4939 39.7928 51.2171 39.9309 50.8028L40.0606 50.4136C40.1476 50.1526 40.3524 49.9478 40.6133 49.8609C41.16 49.6786 41.38 49.0244 41.1302 48.5051C39.1993 44.4908 41.595 40.5944 42.5966 38.2458C42.6653 38.0847 42.6844 37.9077 42.665 37.7336C42.3955 35.3107 43.4166 34.5855 44.0762 34.5065C44.1573 34.4968 44.2389 34.5096 44.3207 34.5113C44.5506 34.5162 45.0925 34.4473 45.8293 33.8369C46.0717 33.6361 46.1648 33.3148 46.157 33.0001C46.0773 29.7605 49.747 27.4268 50.6988 25.999C51.6988 24.499 50.1988 21.499 51.1988 20.999C52.0685 20.5642 52.56 20.1294 52.3445 19.0368C52.2774 18.697 52.3362 18.3363 52.5531 18.0664C54.6926 15.4033 54.5745 14.5239 52.1988 14.999C48.1988 15.399 47.8655 14.8324 48.1988 14.499C52.5109 10.187 51.4125 8.72419 50.2688 8.51056C50.2223 8.50187 50.1877 8.4989 50.1404 8.50035Z" fill="#21262A"/>
<path d="M26.8789 33.4999L23.3509 25.0039H21.3589L17.7949 33.4999H20.0269L20.6509 31.8319H23.9389L24.5989 33.4999H26.8789ZM23.3749 30.1879H21.2389L22.3189 27.2719L23.3749 30.1879Z" fill="#21262A"/>
<path d="M34.5291 33.4999L32.3091 29.8639C33.4011 29.5279 34.0731 28.7119 34.0731 27.5719C34.0731 25.6279 32.4531 25.0039 30.8211 25.0039H27.5811V33.4999H29.5971V30.1279H30.2931L32.1291 33.4999H34.5291ZM32.0451 27.6079C32.0451 28.4719 31.2171 28.6399 30.5571 28.6399H29.5851V26.6599H30.6771C31.2891 26.6599 32.0451 26.8159 32.0451 27.6079Z" fill="#21262A"/>
<path fill-rule="evenodd" clip-rule="evenodd" d="M5.08432 7.81462C5.28345 7.60306 5.56474 7.48855 5.85502 7.50091C27.0399 8.40239 45.7194 7.67634 49.5912 7.52585C50.0105 7.50955 50.2561 7.5 50.3125 7.5C50.3598 7.5 50.4071 7.50336 50.4539 7.51005C50.9042 7.57438 51.4352 7.76978 51.8428 8.20765C52.2759 8.6728 52.4682 9.30297 52.3947 10.0151C52.3247 10.6941 52.0175 11.4428 51.487 12.2697C51.1281 12.829 50.6509 13.449 50.0349 14.1375C50.5469 14.1357 51.2404 14.101 52.1658 14.0097C52.7949 13.8868 53.4211 13.8221 53.9383 13.9385C54.221 14.0021 54.553 14.1378 54.814 14.4282C55.0888 14.7338 55.1875 15.1018 55.1875 15.4375C55.1875 16.0203 54.8917 16.6192 54.5704 17.1413C54.285 17.6051 53.8963 18.1357 53.4155 18.7321C53.561 19.382 53.5534 20.0043 53.2694 20.5722C52.9654 21.1803 52.4279 21.5416 51.9537 21.7945C51.9532 21.8034 51.9527 21.8129 51.9523 21.8229C51.9411 22.0914 51.9865 22.455 52.0527 22.984L52.0548 23.001C52.1162 23.4925 52.1898 24.0982 52.1714 24.6875C52.153 25.2745 52.0422 25.9582 51.6446 26.5547C51.3249 27.0341 50.8011 27.5502 50.3188 28.0251C50.2915 28.0519 50.2642 28.0788 50.2368 28.1058C49.7453 28.5894 49.2326 29.094 48.7619 29.6476C47.7537 30.8339 47.1148 32.0448 47.3025 33.3586C47.347 33.6702 47.2422 33.9845 47.0196 34.2071C46.3195 34.9073 45.6759 35.2576 45.1372 35.4115C44.8702 35.4878 44.6401 35.5125 44.4563 35.5125C44.3931 35.5125 44.336 35.5096 44.2853 35.505C44.2337 35.5185 44.1164 35.5676 44.0006 35.7455C43.8383 35.9949 43.6221 36.596 43.8025 37.8586C43.8272 38.032 43.806 38.2088 43.741 38.3714C43.5819 38.7692 43.3618 39.2432 43.1354 39.731C42.9973 40.0286 42.8568 40.3312 42.7263 40.6249C42.3609 41.447 42.0123 42.3241 41.7826 43.2425C41.3293 45.0561 41.3444 46.9951 42.6446 48.9453C42.8174 49.2046 42.8595 49.5297 42.7584 49.8245C42.6572 50.1193 42.4244 50.3501 42.1287 50.4487L41.1031 50.7906L40.7612 51.8162C40.6231 52.2306 40.232 52.5074 39.7953 52.4999L10.7953 51.9999C10.2498 51.9904 9.8125 51.5456 9.8125 51V45.4878C9.20366 45.4735 8.52701 45.4454 7.92026 45.3968C7.44 45.3584 6.96507 45.3044 6.59414 45.2245C6.41735 45.1864 6.20228 45.1299 6.00959 45.0369C5.91472 44.9911 5.76859 44.9099 5.63373 44.7729C5.49114 44.6279 5.3125 44.3661 5.3125 44C5.3125 43.5691 5.97688 29.8566 6.30999 23.0272L4.81781 8.6029C4.78792 8.3139 4.88519 8.02619 5.08432 7.81462ZM51.9701 21.6709C51.9704 21.6714 51.9692 21.677 51.9657 21.6865C51.9681 21.6752 51.9698 21.6704 51.9701 21.6709ZM6.92613 9.5468C18.2648 10 28.8321 9.99597 36.7029 9.87488C40.7723 9.81228 44.122 9.71836 46.4862 9.64008C47.6684 9.60093 48.6039 9.5657 49.2595 9.54026C49.4351 9.53345 49.5887 9.52741 49.7218 9.52218C49.8391 9.51757 49.9405 9.51359 50.0271 9.51024C50.1151 9.50685 50.1844 9.50424 50.2358 9.50246C50.3244 9.52455 50.3674 9.55796 50.379 9.57048C50.383 9.57478 50.3896 9.58215 50.3964 9.60429C50.4038 9.62872 50.4175 9.69156 50.4053 9.80991C50.3795 10.0601 50.2429 10.5051 49.8037 11.1897C49.3697 11.866 48.6736 12.7247 47.6054 13.7929C47.4094 13.9889 47.0022 14.5468 47.34 15.2222C47.4792 15.5007 47.6981 15.673 47.8772 15.7763C48.0588 15.8811 48.2571 15.9489 48.4485 15.996C49.1719 16.1741 50.4069 16.1956 52.412 15.995C52.4444 15.9918 52.4767 15.987 52.5086 15.9806C52.6937 15.9436 52.8494 15.9187 52.9792 15.9026C52.947 15.9601 52.9099 16.0235 52.8671 16.0931C52.591 16.5417 52.1569 17.1246 51.5443 17.8598C51.3226 18.1259 51.2543 18.4877 51.3638 18.8162C51.5812 19.4684 51.4926 19.6536 51.4806 19.6778C51.4521 19.7348 51.3517 19.8624 50.8653 20.1056C50.0883 20.4941 49.9722 21.3031 49.954 21.7396C49.9356 22.1817 50.0011 22.7008 50.0567 23.1414C50.0613 23.1778 50.0658 23.2137 50.0702 23.249C50.1338 23.7575 50.1852 24.2143 50.1724 24.625C50.1595 25.038 50.0828 25.2918 49.9805 25.4453C49.8001 25.7159 49.4489 26.0748 48.9156 26.5999C48.8845 26.6305 48.8531 26.6615 48.8212 26.6928C48.3402 27.166 47.7685 27.7283 47.2381 28.3524C46.216 29.5548 45.1986 31.1554 45.273 33.0941C44.9466 33.3582 44.7107 33.4534 44.5878 33.4885C44.5261 33.5061 44.4855 33.5108 44.4672 33.512C44.4161 33.504 44.3644 33.5 44.3125 33.5C43.6454 33.5 42.853 33.8422 42.3244 34.6545C41.8353 35.4061 41.6287 36.4646 41.7869 37.8633C41.6633 38.1535 41.5204 38.4602 41.3607 38.8034C41.2194 39.1068 41.0649 39.4387 40.8987 39.8126C40.5141 40.678 40.1127 41.6759 39.8424 42.7575C39.3757 44.6241 39.2964 46.7638 40.341 48.9364L39.9963 49.0513C39.6977 49.1509 39.4634 49.3852 39.3638 49.6838L39.0959 50.4875L11.8125 50.0171V44.5C11.8125 43.9477 11.3648 43.5 10.8125 43.5C10.0771 43.5 8.98096 43.4753 8.07975 43.4032C7.79571 43.3805 7.54578 43.3541 7.34004 43.3251C7.3403 43.3192 7.34056 43.3132 7.34083 43.3071C7.35966 42.8803 7.38695 42.284 7.4208 41.5575C7.48847 40.1045 7.5822 38.1332 7.68636 35.9604C7.89467 31.6149 8.14466 26.4652 8.31132 23.0487C8.31378 22.9982 8.31241 22.9475 8.3072 22.8971L6.92613 9.5468ZM44.5483 33.5282C44.5485 33.5282 44.5486 33.5283 44.5488 33.5283L44.5485 33.5282L44.5483 33.5282Z" fill="#21262A"/>
</svg>
