<svg width="24" height="24" viewBox="0 0 24 24" fill="none" xmlns="http://www.w3.org/2000/svg">
    <path fill-rule="evenodd" clip-rule="evenodd" d="M2.34181 3.00036C2.2257 2.99542 2.11318 3.04122 2.03353 3.12585C1.95388 3.21048 1.91497 3.32556 1.92693 3.44116L2.5238 9.2109C2.39056 11.9427 2.12481 17.4276 2.12481 17.6C2.12481 17.7464 2.19626 17.8512 2.2533 17.9091C2.30724 17.964 2.36569 17.9964 2.40364 18.0148C2.48072 18.052 2.56674 18.0746 2.63746 18.0898C2.78583 18.1217 2.9758 18.1434 3.16791 18.1587C3.41061 18.1781 3.68127 18.1894 3.92481 18.1951V20.4C3.92481 20.6182 4.09972 20.7962 4.31791 20.7999L15.9179 20.9999C16.0926 21.003 16.249 20.8922 16.3043 20.7265L16.441 20.3162L16.8513 20.1795C16.9696 20.1401 17.0627 20.0477 17.1032 19.9298C17.1436 19.8119 17.1268 19.6819 17.0576 19.5781C16.5376 18.7981 16.5315 18.0224 16.7129 17.297C16.8047 16.9296 16.9442 16.5788 17.0903 16.25C17.1425 16.1325 17.1987 16.0115 17.2539 15.8925C17.3445 15.6974 17.4325 15.5077 17.4962 15.3486C17.5222 15.2835 17.5307 15.2128 17.5208 15.1434C17.4486 14.6384 17.5351 14.398 17.6001 14.2982C17.6464 14.227 17.6933 14.2074 17.7139 14.202C17.7342 14.2038 17.757 14.205 17.7823 14.205C17.8558 14.205 17.9479 14.1951 18.0547 14.1646C18.2701 14.1031 18.5276 13.9629 18.8076 13.6828C18.8967 13.5938 18.9386 13.4681 18.9208 13.3434C18.8457 12.8179 19.1013 12.3335 19.5046 11.8591C19.6928 11.6376 19.8979 11.4358 20.0945 11.2423L20.1273 11.21C20.3203 11.0201 20.5298 10.8136 20.6576 10.6219C20.8167 10.3833 20.861 10.1098 20.8684 9.87499C20.8757 9.63928 20.8463 9.39701 20.8217 9.20039L20.8209 9.19361C20.7944 8.982 20.7762 8.83655 20.7807 8.72915L20.7813 8.71781C20.971 8.61665 21.186 8.47214 21.3076 8.22889C21.4212 8.00174 21.4242 7.75282 21.366 7.49283C21.5583 7.25429 21.7138 7.04203 21.828 6.85651C21.9565 6.6477 22.0748 6.40812 22.0748 6.175C22.0748 6.04073 22.0353 5.89353 21.9254 5.77127C21.821 5.65513 21.6882 5.60083 21.5751 5.57538C21.3683 5.52884 21.1178 5.55471 20.8661 5.60386C20.496 5.64042 20.2186 5.65426 20.0138 5.65499C20.2602 5.37959 20.4511 5.13159 20.5946 4.90789C20.8068 4.57712 20.9297 4.27762 20.9577 4.00604C20.9871 3.72119 20.9102 3.46912 20.7369 3.28306C20.5739 3.10791 20.3615 3.02975 20.1814 3.00402C20.1626 3.00134 20.1437 3 20.1248 3C20.1023 3 20.0041 3.00381 19.8366 3.01033C18.2879 3.07052 10.8158 3.36096 2.34181 3.00036Z" fill="#21262A"/>
</svg>
