<svg width="60" height="60" viewBox="0 0 60 60" fill="none" xmlns="http://www.w3.org/2000/svg">
<path d="M25.5571 5.92081L10.8456 5.46108C10.6376 5.45458 10.4096 5.49678 10.2871 5.66505C9.6462 6.54607 13.3056 7.28148 10.5259 11.4511C7.52586 15.9511 11.5259 13.4511 11.5259 18.4511C11.5259 23.4511 15.0259 24.9511 16.0259 25.4511C17.0259 25.9511 18.5259 28.4511 17.5259 28.4511C16.5259 28.4511 18.0259 32.9511 18.5259 33.9511C19.0259 34.9511 23.0259 38.9511 23.5259 40.9511C24.0259 42.9511 24.5259 44.9511 27.0259 45.4511C29.5259 45.9511 31.5259 47.4511 33.5259 48.4511C35.5259 49.4511 37.5259 53.9511 38.5259 54.4511C39.5259 54.9511 51.0259 52.9511 49.5259 51.9511C48.0259 50.9511 49.0259 48.9511 49.0259 47.4511C49.0259 45.9511 50.0259 45.9511 50.5259 45.4511C50.9157 45.0613 49.4379 42.7406 48.591 41.5428C48.5476 41.4814 48.4975 41.4259 48.4412 41.376L26.8626 22.2495C26.6484 22.0597 26.5259 21.7873 26.5259 21.5012V6.92032C26.5259 6.3802 26.097 5.93768 25.5571 5.92081Z" fill="#21262A"/>
<path d="M39.7836 22.2843L38.3556 20.9403C37.9956 21.4443 37.3596 21.8043 36.5556 21.8043C35.1396 21.8043 34.1436 20.7483 34.1436 19.2003C34.1436 17.7003 35.1636 16.5963 36.5916 16.5963C37.2396 16.5963 37.9236 16.8483 38.3076 17.3763L39.6996 15.9843C38.9916 15.1683 37.7076 14.7363 36.5196 14.7363C33.9276 14.7363 31.9116 16.4763 31.9116 19.2003C31.9116 21.8643 33.8676 23.6883 36.4836 23.6883C37.9116 23.6883 39.0396 23.1483 39.7836 22.2843Z" fill="#21262A"/>
<path d="M48.5625 23.4603L45.0345 14.9643H43.0425L39.4785 23.4603H41.7105L42.3345 21.7923H45.6225L46.2825 23.4603H48.5625ZM45.0585 20.1483H42.9225L44.0025 17.2323L45.0585 20.1483Z" fill="#21262A"/>
<path fill-rule="evenodd" clip-rule="evenodd" d="M9.97114 4.6284C10.1443 4.51298 10.3491 4.45444 10.5571 4.46094L26.5571 4.96094C27.0969 4.97781 27.5258 5.42033 27.5258 5.96045V21.5105L49.1891 40.7121C49.2454 40.762 49.2959 40.818 49.3396 40.8792C49.7689 41.4803 50.3922 42.414 50.8629 43.2631C51.0949 43.6815 51.313 44.1203 51.4453 44.5067C51.51 44.6955 51.5735 44.9261 51.5873 45.1639C51.5992 45.3716 51.586 45.8145 51.2329 46.1676C51.0028 46.3977 50.7375 46.5493 50.5789 46.6399L50.5437 46.66C50.3742 46.7568 50.2893 46.8053 50.213 46.8663C50.1524 46.9148 50.1212 46.9543 50.0969 47.0066C50.0696 47.0654 50.0258 47.1966 50.0258 47.4604C50.0258 47.9304 49.9484 48.4138 49.8789 48.8232C49.8694 48.8789 49.8601 48.9334 49.851 48.9868C49.788 49.3543 49.7338 49.6704 49.7104 49.9746C49.6584 50.6508 49.7809 50.9286 50.0805 51.1284C50.3015 51.2757 50.6771 51.6184 50.66 52.1887C50.6451 52.6881 50.3277 53.0033 50.1788 53.132C49.8532 53.4135 49.3647 53.6225 48.9216 53.7833C47.9665 54.1298 46.5791 54.4696 45.1594 54.7535C43.7291 55.0396 42.2159 55.2788 40.9878 55.4153C40.3758 55.4833 39.8177 55.5277 39.3687 55.5374C39.1454 55.5422 38.9306 55.5389 38.7404 55.5217C38.5849 55.5076 38.32 55.4756 38.0786 55.3549C37.7784 55.2048 37.5348 54.962 37.3599 54.766C37.1689 54.5521 36.9759 54.2963 36.7877 54.0303C36.5418 53.6828 36.2678 53.2651 35.9889 52.8398C35.8492 52.6267 35.7081 52.4117 35.5688 52.2026C35.1356 51.5529 34.6931 50.921 34.248 50.3969C33.7906 49.8583 33.396 49.5136 33.0786 49.3549C32.552 49.0915 32.031 48.7982 31.5233 48.5092C31.4615 48.474 31.3999 48.4389 31.3384 48.4039C30.8887 48.1475 30.4479 47.8963 29.9954 47.6567C28.9702 47.114 27.9432 46.6637 26.8297 46.441C25.293 46.1337 24.312 45.3334 23.6742 44.297C23.0924 43.3516 22.8105 42.2232 22.5731 41.2726L22.5557 41.203C22.4758 40.8833 22.2185 40.3805 21.7749 39.7227C21.3477 39.0893 20.8082 38.3986 20.2519 37.7187C19.9138 37.3055 19.5876 36.9178 19.2787 36.5507C19.07 36.3026 18.8691 36.0638 18.6777 35.8328C18.4487 35.5564 18.2382 35.2968 18.0664 35.0699C17.9053 34.8571 17.7386 34.622 17.6314 34.4077C17.3378 33.8205 16.8162 32.3702 16.4932 31.078C16.3326 30.4356 16.2 29.752 16.1901 29.1971C16.1854 28.9346 16.2039 28.5834 16.3424 28.261C16.4111 28.1011 16.525 27.9117 16.7138 27.7533C16.6938 27.713 16.6719 27.6707 16.6479 27.6268C16.4956 27.3475 16.2874 27.0479 16.0689 26.7973C15.8355 26.5295 15.6563 26.3937 15.5786 26.3549C15.5394 26.3353 15.4946 26.3134 15.4447 26.289C14.8921 26.0189 13.7198 25.4459 12.6726 24.3333C11.5041 23.0918 10.5258 21.2239 10.5258 18.4604C10.5258 17.3483 10.3051 16.7577 10.0935 16.4101C9.91006 16.1087 9.71661 15.9404 9.45033 15.7087C9.38257 15.6497 9.31009 15.5866 9.23187 15.5162C9.05768 15.3595 8.81859 15.1298 8.64598 14.8133C8.45682 14.4665 8.37927 14.0785 8.42126 13.6516C8.49515 12.9004 8.94687 12.0261 9.69378 10.9057C10.3799 9.87654 10.5659 9.18096 10.5811 8.73145C10.5954 8.30662 10.4611 7.9988 10.2661 7.71716C10.1614 7.56586 10.0434 7.42822 9.90537 7.27065C9.89563 7.25953 9.8854 7.24789 9.87475 7.23578C9.75867 7.10371 9.59297 6.91521 9.47122 6.72389C9.33607 6.51151 9.12975 6.107 9.24221 5.60301C9.3515 5.11328 9.70027 4.80897 9.97114 4.6284ZM11.8566 6.50252C11.8746 6.5275 11.8926 6.55291 11.9105 6.57874C12.278 7.1096 12.6125 7.83303 12.5799 8.79882C12.5482 9.73994 12.1717 10.7944 11.3579 12.0151C10.6048 13.1448 10.4315 13.6455 10.4117 13.8474C10.4108 13.8562 10.4103 13.8629 10.4101 13.8678C10.4153 13.8748 10.4233 13.8848 10.4351 13.8981C10.4633 13.93 10.5046 13.971 10.5698 14.0297C10.606 14.0622 10.6496 14.0996 10.6991 14.1419C10.9772 14.3798 11.4402 14.7759 11.8019 15.3702C12.2466 16.1007 12.5258 17.0726 12.5258 18.4604C12.5258 20.697 13.2976 22.0791 14.129 22.9626C14.9164 23.7992 15.789 24.2288 16.3339 24.4971C16.383 24.5214 16.4295 24.5443 16.473 24.566C16.8954 24.7772 17.2787 25.1414 17.5765 25.483C17.8893 25.8418 18.181 26.2609 18.4037 26.6691C18.6097 27.0468 18.8218 27.532 18.8519 27.9976C18.867 28.2323 18.8458 28.6151 18.5855 28.9574C18.4713 29.1075 18.3372 29.2169 18.196 29.2946C18.2188 29.6135 18.3012 30.0639 18.4335 30.5929C18.7354 31.8007 19.2138 33.1004 19.4203 33.5132C19.4381 33.5489 19.5057 33.6576 19.661 33.8627C19.8057 34.0538 19.9936 34.2863 20.2177 34.5568C20.387 34.7612 20.581 34.9918 20.7879 35.2378C21.1086 35.6191 21.4604 36.0374 21.7998 36.4522C22.3685 37.1473 22.954 37.8941 23.433 38.6044C23.8957 39.2904 24.3259 40.0376 24.496 40.7179C24.7548 41.7532 24.9735 42.5924 25.3775 43.2489C25.7397 43.8375 26.2587 44.2872 27.2219 44.4799C28.6084 44.7572 29.8314 45.3069 30.9312 45.8892C31.4133 46.1444 31.8829 46.4121 32.33 46.667C32.3914 46.7019 32.4523 46.7367 32.5127 46.7711C33.0207 47.0602 33.4997 47.3293 33.973 47.566C34.6557 47.9073 35.2611 48.5001 35.7724 49.1022C36.296 49.7187 36.7911 50.4305 37.2329 51.0933C37.3942 51.3352 37.5459 51.5667 37.6901 51.7865C37.9547 52.1903 38.1939 52.5551 38.4202 52.875C38.5914 53.1168 38.7343 53.3024 38.8519 53.4342C38.8911 53.478 38.922 53.5096 38.9449 53.5318C39.032 53.5384 39.1577 53.5415 39.3255 53.5378C39.691 53.5299 40.1837 53.4923 40.767 53.4275C41.9295 53.2983 43.385 53.0688 44.7672 52.7924C46.1011 52.5256 47.3212 52.224 48.134 51.9407C47.7107 51.2557 47.6661 50.4739 47.7163 49.8213C47.7474 49.4163 47.8193 48.9993 47.8809 48.6411C47.8899 48.5889 47.8987 48.5379 47.9071 48.4883C47.9782 48.0696 48.0258 47.7405 48.0258 47.4604C48.0258 46.9743 48.1071 46.543 48.2829 46.1643C48.4618 45.7791 48.7118 45.5061 48.9636 45.3046C49.1444 45.16 49.3382 45.0449 49.4795 44.9643C49.3955 44.766 49.2719 44.5181 49.1138 44.2328C48.7149 43.5133 48.176 42.6977 47.7769 42.1329L25.8625 22.7088C25.6484 22.519 25.5258 22.2466 25.5258 21.9604V6.92969L11.8566 6.50252Z" fill="#21262A"/>
</svg>
