<svg width="24" height="24" viewBox="0 0 24 24" fill="none" xmlns="http://www.w3.org/2000/svg">
    <path d="M4.22302 1.78437C4.13983 1.78178 4.0579 1.80519 3.98865 1.85136C3.8803 1.92359 3.74079 2.04531 3.69708 2.2412C3.65209 2.4428 3.73462 2.6046 3.78868 2.68955C3.83738 2.76608 3.90366 2.84149 3.9501 2.89431L3.96234 2.90826C4.01754 2.97129 4.06475 3.02634 4.10665 3.08686C4.18464 3.19952 4.23836 3.32265 4.23263 3.49258C4.22657 3.67238 4.15216 3.95062 3.87771 4.3623C3.57894 4.81045 3.39826 5.16015 3.3687 5.46065C3.35191 5.63139 3.38292 5.78661 3.45859 5.92533C3.52763 6.05191 3.62327 6.14379 3.69294 6.2065C3.72423 6.23466 3.75322 6.25989 3.78033 6.28347C3.88684 6.37615 3.96422 6.44348 4.0376 6.56403C4.12223 6.70307 4.21053 6.93933 4.21053 7.38418C4.21053 8.48955 4.60184 9.2367 5.06925 9.73333C5.48811 10.1784 5.95702 10.4075 6.17809 10.5156C6.19803 10.5253 6.21595 10.5341 6.23164 10.542C6.26271 10.5575 6.3344 10.6118 6.42777 10.7189C6.51515 10.8191 6.59844 10.939 6.65937 11.0507C6.66896 11.0683 6.67773 11.0852 6.6857 11.1013C6.61019 11.1647 6.56463 11.2405 6.53716 11.3044C6.48175 11.4334 6.47434 11.5739 6.47622 11.6788C6.48018 11.9008 6.53323 12.1742 6.59747 12.4312C6.72669 12.9481 6.93532 13.5282 7.05276 13.7631C7.09563 13.8488 7.16232 13.9428 7.22676 14.028C7.29547 14.1187 7.37966 14.2226 7.47127 14.3331C7.54782 14.4255 7.62818 14.521 7.71169 14.6203C7.83524 14.7671 7.96571 14.9222 8.10094 15.0875C8.32347 15.3595 8.53928 15.6357 8.71015 15.8891C8.88759 16.1522 8.9905 16.3533 9.02247 16.4812L9.02943 16.509C9.1244 16.8893 9.23715 17.3407 9.46986 17.7188C9.72498 18.1334 10.1174 18.4535 10.7321 18.5764C11.1775 18.6655 11.5883 18.8456 11.9984 19.0627C12.1794 19.1585 12.3557 19.259 12.5356 19.3615L12.6095 19.4037C12.8126 19.5193 13.021 19.6366 13.2316 19.742C13.3586 19.8054 13.5164 19.9433 13.6994 20.1587C13.8774 20.3684 14.0544 20.6212 14.2277 20.8811C14.2835 20.9647 14.3399 21.0507 14.3958 21.1359C14.5073 21.306 14.6169 21.4731 14.7153 21.6121C14.7906 21.7185 14.8678 21.8208 14.9442 21.9064C15.0141 21.9848 15.1116 22.0819 15.2316 22.142C15.3282 22.1902 15.4341 22.203 15.4964 22.2087C15.5724 22.2156 15.6584 22.2169 15.7477 22.2149C15.9273 22.2111 16.1505 22.1933 16.3953 22.1661C16.8866 22.1115 17.4918 22.0158 18.064 21.9014C18.6318 21.7878 19.1868 21.6519 19.5688 21.5133C19.7461 21.449 19.9415 21.3654 20.0717 21.2528C20.1313 21.2013 20.2582 21.0752 20.2642 20.8755C20.271 20.6474 20.1208 20.5103 20.0324 20.4514C19.9125 20.3714 19.8635 20.2603 19.8843 19.9899C19.8937 19.8681 19.9154 19.7417 19.9406 19.5947L19.9518 19.5293C19.9796 19.3655 20.0105 19.1721 20.0105 18.9842C20.0105 18.8786 20.028 18.8262 20.039 18.8026C20.0487 18.7817 20.0612 18.7659 20.0854 18.7465C20.1159 18.7221 20.1499 18.7027 20.2177 18.664L20.2318 18.656C20.2952 18.6197 20.4013 18.5591 20.4934 18.467C20.6346 18.3258 20.6399 18.1486 20.6351 18.0656C20.6296 17.9705 20.6042 17.8782 20.5783 17.8027C20.5254 17.6481 20.4382 17.4726 20.3454 17.3052C20.1571 16.9656 19.9078 16.5921 19.736 16.3517C19.7185 16.3272 19.6984 16.3048 19.6758 16.2848L11.0105 8.60421V2.38418C11.0105 2.16813 10.839 1.99112 10.623 1.98437L4.22302 1.78437Z" fill="#21262A"/>
</svg>
