<svg width="24" height="24" viewBox="0 0 24 24" fill="none" xmlns="http://www.w3.org/2000/svg">
    <path d="M2.66098 4.8L2.69395 4.40136L2.75723 4.40652L2.94091 4.4212C3.10103 4.43386 3.33395 4.45196 3.62479 4.47369C4.20653 4.51714 5.01971 4.57509 5.9453 4.63303C7.79882 4.74906 10.0944 4.86451 11.8845 4.86451C13.6747 4.86451 15.9702 4.74906 17.8237 4.63303C18.7493 4.57509 19.5625 4.51714 20.1442 4.47369C20.4351 4.45196 20.668 4.43386 20.8281 4.4212L21.0118 4.40652L21.0749 4.40137L21.108 4.8C21.0751 4.40136 21.0749 4.40137 21.0749 4.40137C21.1829 4.39244 21.2902 4.42773 21.3717 4.49921C21.4533 4.57068 21.5023 4.67219 21.5076 4.78049L22.1993 18.9481C22.2045 19.0548 22.1669 19.1591 22.0947 19.2378C22.0226 19.3166 21.922 19.3632 21.8153 19.3673L21.5411 19.3776C21.3641 19.3841 21.1068 19.3934 20.7857 19.4046C20.1436 19.4269 19.2461 19.4566 18.2246 19.4861C16.1828 19.545 13.6413 19.6032 11.6533 19.5999C9.80071 19.5968 7.43248 19.5385 5.52989 19.4812C4.57806 19.4526 3.74178 19.4241 3.14343 19.4028C2.84424 19.3921 2.60451 19.3833 2.43953 19.377L2.18521 19.3673L2.19981 18.9676C2.18412 19.3673 2.18516 19.3673 2.18521 19.3673C1.96551 19.3587 1.79287 19.1743 1.80002 18.9546L2.2612 4.78698C2.26476 4.67749 2.31308 4.57424 2.39487 4.50136C2.47666 4.42847 2.58477 4.39233 2.69395 4.40136C2.69392 4.40135 2.69395 4.40136 2.66098 4.8Z" fill="#21262A"/>
</svg>
