<svg width="60" height="60" viewBox="0 0 60 60" fill="none" xmlns="http://www.w3.org/2000/svg">
<path d="M54.419 46.3314L52.7893 12.9545C52.7617 12.3896 52.2764 11.9592 51.7126 12.0031C48.3173 12.2674 37.2344 13.0827 29.68 13.0827C22.1375 13.0827 11.0776 12.27 7.66349 12.0043C7.09331 11.96 6.60557 12.4005 6.58696 12.9721L5.50054 46.3476C5.48266 46.897 5.91059 47.3576 6.45989 47.378C9.86853 47.5045 21.322 47.908 29.1035 47.9211C37.4991 47.9351 49.8786 47.5084 53.4624 47.3779C54.0183 47.3576 54.4461 46.887 54.419 46.3314Z" fill="#21262A"/>
<path d="M29.641 33.8239L28.213 32.4799C27.853 32.9839 27.217 33.3439 26.413 33.3439C24.997 33.3439 24.001 32.2879 24.001 30.7399C24.001 29.2399 25.021 28.1359 26.449 28.1359C27.097 28.1359 27.781 28.3879 28.165 28.9159L29.557 27.5239C28.849 26.7079 27.565 26.2759 26.377 26.2759C23.785 26.2759 21.769 28.0159 21.769 30.7399C21.769 33.4039 23.725 35.2279 26.341 35.2279C27.769 35.2279 28.897 34.6879 29.641 33.8239Z" fill="#21262A"/>
<path d="M39.2359 30.7159C39.2359 27.9919 37.2679 26.2759 34.6039 26.2759C31.9519 26.2759 29.9839 27.9919 29.9839 30.7159C29.9839 33.4039 31.9519 35.2279 34.6039 35.2279C37.2679 35.2279 39.2359 33.4039 39.2359 30.7159ZM37.0399 30.7159C37.0399 32.2519 36.0319 33.3559 34.6039 33.3559C33.1759 33.3559 32.1799 32.2519 32.1799 30.7159C32.1799 29.2279 33.1639 28.1239 34.6039 28.1239C36.0439 28.1239 37.0399 29.2279 37.0399 30.7159Z" fill="#21262A"/>
<path fill-rule="evenodd" clip-rule="evenodd" d="M6.73537 11.0034L6.65295 12C6.73537 11.0034 6.73529 11.0034 6.73537 11.0034L6.89356 11.0163C6.99801 11.0248 7.15264 11.0372 7.35278 11.053C7.75306 11.0847 8.33537 11.1299 9.06247 11.1842C10.5168 11.2929 12.5498 11.4377 14.8637 11.5826C19.4975 11.8727 25.2364 12.1613 29.7118 12.1613C34.1871 12.1613 39.926 11.8727 44.5598 11.5826C46.8738 11.4377 48.9067 11.2929 50.3611 11.1842C51.0882 11.1299 51.6705 11.0847 52.0708 11.053C52.2709 11.0372 52.4255 11.0248 52.53 11.0163L52.6876 11.0034C52.6877 11.0034 52.6882 11.0034 52.7706 12L52.6876 11.0034C52.9578 10.9811 53.226 11.0693 53.4298 11.248C53.6336 11.4267 53.7562 11.6805 53.7694 11.9512L55.4988 47.3703C55.5118 47.6369 55.4177 47.8977 55.2373 48.0946C55.057 48.2914 54.8054 48.408 54.5386 48.4183L54.5 47.419C54.5386 48.4183 54.5387 48.4183 54.5386 48.4183L53.8534 48.444C53.4107 48.4603 52.7675 48.4836 51.9648 48.5115C50.3595 48.5673 48.1157 48.6415 45.562 48.7151C40.4575 48.8624 34.1037 49.008 29.1336 48.9997C24.5023 48.9919 18.5817 48.8464 13.8252 48.7031C11.4456 48.6314 9.35493 48.5602 7.85906 48.5069C7.11109 48.4803 6.51177 48.4581 6.09932 48.4426L5.46352 48.4184L5.4615 48.4183C5.46138 48.4183 5.4608 48.4183 5.50001 47.419L5.4615 48.4183C4.91225 48.3967 4.48266 47.9359 4.50054 47.3865L5.65348 11.9675C5.66239 11.6937 5.78319 11.4356 5.98767 11.2534C6.19215 11.0712 6.46241 10.9808 6.73537 11.0034ZM6.53184 46.4574C6.90621 46.4713 7.37752 46.4885 7.93024 46.5082C9.42334 46.5614 11.5103 46.6325 13.8854 46.704C18.6384 46.8472 24.5354 46.992 29.137 46.9997C34.075 47.0079 40.4036 46.8632 45.5043 46.716C48.0533 46.6424 50.293 46.5684 51.8954 46.5127C52.5163 46.4911 53.0415 46.4723 53.4519 46.4573L51.8221 13.0787C51.465 13.1065 51.0234 13.1403 50.5101 13.1787C49.0497 13.2878 47.0085 13.4332 44.6848 13.5787C40.0432 13.8693 34.2527 14.1613 29.7118 14.1613C25.1708 14.1613 19.3803 13.8693 14.7388 13.5787C12.4151 13.4332 10.3739 13.2878 8.91348 13.1787C8.4082 13.1409 7.97237 13.1075 7.61833 13.08L6.53184 46.4574Z" fill="#21262A"/>
</svg>
