<svg width="60" height="60" viewBox="0 0 60 60" fill="none" xmlns="http://www.w3.org/2000/svg">
<path d="M27.3287 16.4659L11.5044 16.0004C10.97 15.9847 10.5177 16.3921 10.4778 16.9252L9.07299 35.6555C9.05753 35.8617 9.10634 36.0675 9.2127 36.2448L10.0283 37.6042C10.315 38.0819 10.1559 38.7018 9.67472 38.9825L5.51894 41.4067C5.00247 41.708 4.86286 42.3936 5.25238 42.8472C5.60074 43.2529 5.97778 43.6492 6.25949 43.8453C6.43055 43.9643 6.63936 43.9058 6.81363 43.7915C9.69431 41.9019 15.1256 40.7955 17.5492 40.4723H19.0138C19.3482 40.4723 19.6573 40.3021 19.8927 40.0647C20.7383 39.2119 22.49 38.1311 23.9667 37.3104C24.5819 36.9684 25.0515 38.4701 25.5492 37.9723C26.0492 37.4723 33.0492 36.9723 36.0492 36.9723C38.9091 36.9723 43.1323 35.6092 43.9536 35.4819C44.0187 35.4718 44.0826 35.4792 44.1473 35.4913C46.5885 35.9462 48.0558 34.9723 48.5492 34.9723C49.0492 34.9723 53.0492 34.4723 54.0492 32.4723C54.8004 30.9701 54.4348 22.2976 54.1115 17.3811C54.0776 16.8658 53.6575 16.464 53.1412 16.4535C45.0542 16.2892 30.3194 16.0873 29.5492 16.4723C28.88 16.807 28.1641 16.6984 27.7528 16.5564C27.6155 16.5089 27.474 16.4701 27.3287 16.4659Z" fill="#21262A"/>
<path d="M32.7521 29.8239L31.3241 28.4799C30.9641 28.9839 30.3281 29.3439 29.5241 29.3439C28.1081 29.3439 27.1121 28.2879 27.1121 26.7399C27.1121 25.2399 28.1321 24.1359 29.5601 24.1359C30.2081 24.1359 30.8921 24.3879 31.2761 24.9159L32.6681 23.5239C31.9601 22.7079 30.6761 22.2759 29.4881 22.2759C26.8961 22.2759 24.8801 24.0159 24.8801 26.7399C24.8801 29.4039 26.8361 31.2279 29.4521 31.2279C30.8801 31.2279 32.0081 30.6879 32.7521 29.8239Z" fill="#21262A"/>
<path d="M39.5973 24.2559V22.5039H32.7453V24.2559H35.1453V30.9999H37.1973V24.2559H39.5973Z" fill="#21262A"/>
<path fill-rule="evenodd" clip-rule="evenodd" d="M10.0319 15.9252C10.0718 15.3921 10.5241 14.9847 11.0585 15.0004L28.0585 15.5004C28.2037 15.5047 28.3463 15.5406 28.4763 15.6056C28.5268 15.6308 28.7023 15.6968 28.9352 15.7158C29.1594 15.7341 29.3836 15.7047 29.5818 15.6056C29.7268 15.5331 29.8709 15.5006 29.9419 15.4857C30.0328 15.4666 30.1303 15.4519 30.2262 15.44C30.419 15.4159 30.6585 15.3964 30.9302 15.3801C31.4767 15.3473 32.2089 15.324 33.0747 15.308C34.8093 15.276 37.122 15.2729 39.6473 15.2875C44.7001 15.3167 50.6307 15.4168 54.5503 15.5002C55.0667 15.5112 55.4897 15.9136 55.5265 16.4288C55.694 18.7737 55.8951 22.3923 55.9539 25.6319C55.9832 27.25 55.9774 28.7892 55.9121 30.0337C55.8794 30.655 55.8312 31.219 55.7617 31.6904C55.6966 32.1324 55.5995 32.5952 55.4235 32.9472C55.0629 33.6683 54.4636 34.1965 53.8493 34.5817C53.2303 34.9696 52.5355 35.2506 51.8927 35.4536C50.6866 35.8345 49.5143 35.9858 49.0862 35.999C49.0805 36.0005 49.0736 36.0024 49.0654 36.0047C49.0038 36.022 48.9215 36.0495 48.7916 36.0941C48.778 36.0988 48.7641 36.1036 48.7499 36.1085C48.5073 36.192 48.1712 36.3077 47.7716 36.4076C46.9451 36.6143 45.8508 36.7538 44.5055 36.5133C44.4774 36.5191 44.4397 36.5272 44.3908 36.5386C44.2291 36.5761 44.013 36.6314 43.7424 36.702C43.6579 36.7241 43.5687 36.7474 43.4754 36.7719C42.9803 36.9016 42.3676 37.0622 41.6999 37.2224C40.1325 37.5986 38.1573 38 36.5291 38C35.0668 38 32.597 38.1229 30.427 38.3089C29.3425 38.4018 28.3512 38.509 27.6086 38.6215C27.2347 38.6782 26.9444 38.7332 26.7442 38.7834C26.6852 38.7982 26.6412 38.8108 26.6098 38.8207C26.4839 38.9206 26.2804 39.0446 26.0099 39.0725C25.7618 39.0981 25.5008 39.0369 25.2807 38.8779C25.0827 38.7349 24.9791 38.5575 24.9267 38.4424C24.8973 38.3778 24.8754 38.3136 24.8591 38.2529C24.3313 38.5475 23.7709 38.8745 23.2346 39.2102C22.6548 39.5731 22.1173 39.9373 21.6844 40.2747C21.2308 40.6282 20.9676 40.895 20.8611 41.0547C20.6756 41.3329 20.3634 41.5 20.0291 41.5H18.0961C16.8816 41.6654 14.9127 42.0287 12.9107 42.5881C10.8472 43.1647 8.86249 43.9193 7.6103 44.8137C7.4407 44.9349 7.23748 45 7.02906 45C6.7302 45 6.49236 44.886 6.37051 44.8196C6.22807 44.7421 6.09802 44.6469 5.98871 44.5583C5.76861 44.3801 5.5414 44.1537 5.33429 43.931C4.91558 43.4808 4.49269 42.9515 4.22906 42.6C4.05789 42.3718 3.99235 42.0813 4.04892 41.8017C4.10548 41.5221 4.27877 41.28 4.52519 41.1362L9.65068 38.1464L8.67157 36.5145C8.56521 36.3372 8.5164 36.1314 8.53186 35.9252L10.0319 15.9252ZM27.0105 36.6916C27.1072 36.6754 27.2068 36.6596 27.3089 36.6441C28.1132 36.5223 29.1531 36.4107 30.2562 36.3162C32.4611 36.1272 34.9914 36 36.5291 36C37.9008 36 39.6756 35.6514 41.2332 35.2776C41.8787 35.1227 42.4688 34.9681 42.964 34.8383C43.0588 34.8135 43.15 34.7896 43.2376 34.7668C43.5061 34.6967 43.747 34.6348 43.9388 34.5903C44.0832 34.5568 44.3288 34.5 44.5291 34.5C44.5949 34.5 44.6606 34.5065 44.7252 34.5194C45.8007 34.7345 46.648 34.627 47.2865 34.4674C47.6001 34.389 47.8642 34.2981 48.1102 34.2135L48.1415 34.2028C48.2616 34.1615 48.3981 34.1147 48.5239 34.0793C48.6376 34.0474 48.8241 34 49.0291 34C49.0257 34 49.0435 33.9999 49.0896 33.9965C49.1321 33.9935 49.1886 33.9883 49.2582 33.9807C49.3972 33.9653 49.5793 33.9407 49.7916 33.9047C50.218 33.8324 50.7499 33.7171 51.2904 33.5464C51.8351 33.3744 52.359 33.1554 52.787 32.8871C53.2195 32.616 53.4952 32.3317 53.6346 32.0528C53.6586 32.0048 53.722 31.8135 53.7831 31.3987C53.8399 31.0133 53.8839 30.5179 53.9148 29.9288C53.9766 28.7525 53.9832 27.2667 53.9542 25.6681C53.9034 22.8667 53.7442 19.767 53.5939 17.4808C49.7105 17.4019 44.2965 17.3144 39.6358 17.2875C37.1153 17.2729 34.8217 17.2761 33.1116 17.3077C32.255 17.3235 31.5552 17.3462 31.0501 17.3765C30.7962 17.3918 30.6051 17.4082 30.4738 17.4246C30.4371 17.4291 30.4091 17.4332 30.3885 17.4366C29.3894 17.8972 28.3788 17.7101 27.8109 17.494L11.9548 17.0277L10.55 35.758L11.8866 37.9855C12.0241 38.2148 12.0641 38.4896 11.9977 38.7485C11.9312 39.0075 11.7639 39.2291 11.5329 39.3638L6.53771 42.2777C6.62444 42.3776 6.71225 42.4759 6.79883 42.569C6.88088 42.6572 6.95747 42.7361 7.02735 42.8045C8.53079 41.8875 10.5113 41.182 12.3724 40.6619C14.5093 40.0648 16.6054 39.681 17.8969 39.5088C17.9407 39.5029 17.9849 39.5 18.0291 39.5H19.5551C19.818 39.218 20.1348 38.9467 20.455 38.6972C20.9617 38.3023 21.5617 37.8978 22.1735 37.5148C23.3981 36.7484 24.7269 36.033 25.5818 35.6056C25.9311 35.4309 26.3502 35.4756 26.6548 35.72C26.9458 35.9534 27.0816 36.3283 27.0105 36.6916ZM26.546 38.8442C26.5456 38.8441 26.5502 38.8418 26.5609 38.8376C26.5516 38.8422 26.5463 38.8442 26.546 38.8442Z" fill="#21262A"/>
</svg>
