<svg width="24" height="24" viewBox="0 0 24 24" fill="none" xmlns="http://www.w3.org/2000/svg">
    <path fill-rule="evenodd" clip-rule="evenodd" d="M4.42358 6.00018C4.20982 5.99389 4.02893 6.15684 4.01294 6.37009L3.41294 14.3701C3.40675 14.4525 3.42628 14.5349 3.46882 14.6058L3.86047 15.2585L1.81027 16.4545C1.7117 16.512 1.64239 16.6088 1.61976 16.7207C1.59713 16.8325 1.62335 16.9487 1.69182 17.04C1.79727 17.1806 1.96643 17.3923 2.13391 17.5724C2.21675 17.6615 2.30764 17.752 2.39568 17.8233C2.43941 17.8587 2.49142 17.8968 2.5484 17.9279C2.59714 17.9544 2.69228 18 2.81182 18C2.89519 18 2.97647 17.974 3.04431 17.9255C3.54519 17.5677 4.33908 17.2659 5.16447 17.0352C5.96526 16.8115 6.75283 16.6662 7.23865 16.6H8.01182C8.14556 16.6 8.27045 16.5332 8.34464 16.4219C8.38722 16.358 8.49252 16.2513 8.67396 16.1099C8.8471 15.9749 9.06211 15.8292 9.29403 15.6841C9.50857 15.5498 9.73273 15.419 9.94385 15.3011C9.95037 15.3255 9.95912 15.3511 9.97089 15.377C9.99183 15.423 10.0333 15.4939 10.1125 15.5512C10.2005 15.6148 10.3049 15.6392 10.4042 15.629C10.5124 15.6178 10.5937 15.5683 10.6441 15.5283C10.6567 15.5243 10.6743 15.5193 10.6979 15.5134C10.7779 15.4933 10.8941 15.4713 11.0436 15.4486C11.3407 15.4036 11.7372 15.3607 12.171 15.3235C13.039 15.2491 14.0269 15.2 14.6118 15.2C15.2631 15.2 16.0532 15.0394 16.6802 14.889C16.9472 14.8249 17.1923 14.7606 17.3904 14.7087L17.4972 14.6808C17.6054 14.6526 17.6918 14.6304 17.7565 14.6154C17.7761 14.6109 17.7912 14.6076 17.8024 14.6053C18.3405 14.7015 18.7782 14.6457 19.1088 14.5631C19.2687 14.5231 19.4031 14.4768 19.5001 14.4434L19.5169 14.4377C19.5688 14.4198 19.6017 14.4088 19.6264 14.4019L19.6347 14.3996C19.8059 14.3943 20.2748 14.3338 20.7573 14.1814C21.0144 14.1002 21.2923 13.9879 21.5399 13.8327C21.7856 13.6786 22.0254 13.4673 22.1696 13.1789C22.24 13.0381 22.2788 12.8529 22.3049 12.6762C22.3327 12.4876 22.352 12.262 22.365 12.0135C22.3911 11.5157 22.3935 10.9 22.3818 10.2528C22.3583 8.9569 22.2778 7.50946 22.2108 6.5715C22.1961 6.36544 22.0269 6.20449 21.8203 6.20009C20.2525 6.16673 17.8802 6.12669 15.8591 6.11501C14.849 6.10917 13.9239 6.1104 13.2301 6.1232C12.8837 6.12958 12.5909 6.13892 12.3723 6.15205C12.2636 6.15858 12.1678 6.16636 12.0907 6.17598C12.0523 6.18077 12.0133 6.18665 11.977 6.19428C11.9485 6.20025 11.8909 6.21325 11.8329 6.24223C11.7536 6.28188 11.6639 6.29362 11.5743 6.28632C11.4811 6.27874 11.4109 6.25233 11.3907 6.24223C11.3387 6.21624 11.2817 6.20188 11.2236 6.20018L4.42358 6.00018ZM10.6202 15.5368L10.6186 15.5377C10.6186 15.5377 10.6209 15.5369 10.6245 15.535C10.6226 15.5358 10.6202 15.5368 10.6202 15.5368Z" fill="#21262A"/>
</svg>
