<svg width="24" height="24" viewBox="0 0 24 24" fill="none" xmlns="http://www.w3.org/2000/svg">
    <path fill-rule="evenodd" clip-rule="evenodd" d="M14.1578 17.1517C14.2228 17.2375 14.2483 17.342 14.2359 17.4423C14.2363 17.4566 14.2372 17.4777 14.2388 17.5067C14.2431 17.586 14.2515 17.7034 14.2635 17.8523C14.2874 18.1492 14.3245 18.5597 14.3674 19.0168C14.4533 19.9305 14.5625 21.0241 14.6369 21.7525C14.6383 21.766 14.639 21.7796 14.639 21.7932V22.1932C14.639 22.3012 14.5953 22.4046 14.5179 22.4799C14.4404 22.5552 14.3358 22.596 14.2279 22.593L7.02786 22.393C6.82151 22.3873 6.65341 22.2255 6.63983 22.0195L5.43983 3.81949C5.43455 3.73939 5.45349 3.65956 5.49419 3.59037C6.33598 2.15933 7.29687 1.53918 8.2151 1.42617C9.11539 1.31537 9.87694 1.7053 10.308 2.0972C10.4357 2.21323 10.4745 2.39801 10.4045 2.55563C10.2691 2.86021 10.0553 3.31865 9.8532 3.70395C9.75295 3.89512 9.65062 4.07786 9.55908 4.21659C9.51435 4.28439 9.46375 4.3547 9.41025 4.4124C9.38387 4.44085 9.34659 4.47743 9.29958 4.50961C9.26233 4.53511 9.17945 4.58561 9.06474 4.5924C9.05924 4.59362 9.04542 4.59679 9.02164 4.60402C8.97718 4.61752 8.91604 4.63969 8.84517 4.67119C8.70173 4.73494 8.53745 4.82843 8.39928 4.94687C8.26005 5.06621 8.16718 5.19352 8.12776 5.32255C8.09926 5.41581 8.09101 5.53375 8.14302 5.68697C8.4691 5.85028 8.66097 6.12326 8.72944 6.43139C8.80381 6.76607 8.72761 7.11029 8.59674 7.37205C8.58401 7.39751 8.56984 7.47658 8.61331 7.62736C8.65057 7.75658 8.71402 7.88054 8.76134 7.95519C9.09598 8.35706 9.58986 8.9599 10.0034 9.48595C10.2129 9.75237 10.4047 10.0028 10.5452 10.1987C10.615 10.2959 10.6762 10.3855 10.7216 10.4596C10.7439 10.496 10.7668 10.5359 10.7854 10.5754L10.7866 10.5777C10.7975 10.6007 10.839 10.6876 10.839 10.7932C10.839 10.8717 10.8215 10.947 10.8087 10.9956C10.7941 11.0514 10.7749 11.1114 10.7548 11.1698C10.7287 11.2459 10.6958 11.3352 10.6628 11.4246C10.6466 11.4684 10.6303 11.5126 10.6149 11.5549C10.5656 11.6904 10.52 11.8223 10.4867 11.9413C10.4519 12.0662 10.439 12.1489 10.439 12.1932C10.439 12.3495 10.4817 12.6659 10.5537 12.9782C10.589 13.1309 10.6284 13.2701 10.6677 13.3776C10.696 13.455 10.7166 13.494 10.7244 13.5087C10.7268 13.5134 10.728 13.5156 10.7277 13.5158C10.7275 13.5159 10.7269 13.5154 10.7258 13.5143C10.7248 13.5134 10.7235 13.512 10.7218 13.5103C10.7262 13.5147 10.7387 13.5258 10.7724 13.5514L10.8039 13.5749C10.8306 13.5949 10.8647 13.6203 10.8939 13.643C10.9919 13.7193 11.1139 13.8237 11.2297 13.9726C11.4568 14.2646 11.6217 14.6771 11.6377 15.2938C11.9984 15.9739 12.5192 16.4462 12.9745 16.7281C13.2117 16.8749 13.4209 16.9637 13.5682 17.0047C13.6164 17.0181 13.652 17.0248 13.6759 17.0279C13.8442 16.9526 14.0446 17.0022 14.1578 17.1517ZM13.7051 17.0303C13.711 17.0296 13.7144 17.0296 13.7146 17.0298C13.7148 17.03 13.7119 17.0303 13.7051 17.0303Z" fill="#21262A"/>
</svg>
