<svg width="60" height="60" viewBox="0 0 60 60" fill="none" xmlns="http://www.w3.org/2000/svg">
<path d="M24.5122 5.536C22.4348 4.1103 18.3385 3.32323 14.7396 9.21435C14.635 9.3856 14.5858 9.58979 14.599 9.79003L17.5189 54.0741C17.5528 54.5891 17.9731 54.9936 18.4889 55.0079L34.5791 55.4549C35.1267 55.4701 35.5788 55.0304 35.5788 54.4827C35.4719 53.436 34.2338 45.4093 34.0969 44.0176C33.7902 43.956 29.2702 41.5984 28.784 39.6833C28.5725 39.373 28.3722 39.0432 28.1872 38.6934C28.1146 38.5562 28.0798 38.401 28.0756 38.2458C27.9987 35.4557 26.5653 34.9692 26.0788 34.4827C25.5788 33.9827 25.0788 31.4827 25.0788 30.4827C25.0788 29.4827 26.0788 27.4827 26.0788 26.9827C26.0788 26.5827 22.7454 22.4827 21.0788 20.4827C20.7454 19.9827 20.1788 18.7827 20.5788 17.9827C21.0323 17.0755 21.0745 15.757 19.9587 15.1466C19.726 15.0194 19.5041 14.8498 19.4138 14.6005C18.4194 11.8553 22.1005 10.4827 22.5788 10.4827C22.9263 10.4827 24.0538 8.21815 24.7809 6.6403C24.9613 6.24865 24.8677 5.78002 24.5122 5.536Z" fill="#21262A"/>
<path d="M39.1139 32.246C39.1139 29.03 36.6659 28.022 34.2539 28.022H31.1819V36.518H34.3499C36.6899 36.518 39.1139 35.234 39.1139 32.246ZM36.9779 32.246C36.9779 34.142 35.6219 34.742 34.1579 34.742H33.1859V29.774H34.2059C35.6219 29.774 36.9779 30.338 36.9779 32.246Z" fill="#21262A"/>
<path d="M46.4029 36.518V34.766H42.4549V33.002H45.9829V31.358H42.4549V29.762H46.1869V28.022H40.4749V36.518H46.4029Z" fill="#21262A"/>
<path fill-rule="evenodd" clip-rule="evenodd" d="M15.6153 9.729L18.5349 54.0085L34.5888 54.4545C34.4031 52.6321 34.1373 49.9669 33.9269 47.7292C33.8192 46.5842 33.7257 45.5471 33.6648 44.7913C33.6567 44.6905 33.6491 44.594 33.6421 44.5026C33.5554 44.4839 33.4689 44.4622 33.3832 44.4384C32.7984 44.2754 32.1026 43.9661 31.3831 43.5206C29.9402 42.6275 28.2987 41.1226 27.2025 38.9301C27.1331 38.7912 27.0969 38.6381 27.0969 38.4829C27.0969 37.1633 26.7724 36.5158 26.4951 36.1593C26.347 35.969 26.1833 35.8238 26.0064 35.6863C25.945 35.6385 25.897 35.6028 25.844 35.5634C25.8077 35.5364 25.7691 35.5076 25.7222 35.4721C25.6288 35.4012 25.5039 35.3041 25.3898 35.19C25.094 34.8942 24.9083 34.4529 24.7906 34.1311C24.6546 33.7593 24.5344 33.3259 24.435 32.8952C24.2402 32.0509 24.0969 31.092 24.0969 30.4829C24.0969 30.0936 24.1896 29.6752 24.29 29.3156C24.3945 28.9413 24.5303 28.5524 24.6571 28.2036C24.7046 28.073 24.7497 27.9509 24.7922 27.836C24.8688 27.6288 24.9368 27.4448 24.9947 27.2757C25.0156 27.215 25.0333 27.1613 25.0481 27.1142C24.9733 26.9979 24.8697 26.8469 24.7375 26.6627C24.4119 26.2088 23.9538 25.6099 23.4358 24.9509C22.402 23.6359 21.1585 22.1188 20.3287 21.1231C20.3059 21.0957 20.2846 21.0672 20.2649 21.0376C20.0516 20.7176 19.7775 20.1999 19.6111 19.6224C19.4531 19.0743 19.3343 18.272 19.7025 17.5357C19.8753 17.1901 19.9348 16.8006 19.8707 16.5123C19.821 16.2883 19.6932 16.0691 19.2807 15.9316C19.0291 15.8477 18.8211 15.6673 18.7025 15.4301C18.2241 14.4734 18.1523 13.5529 18.4062 12.7219C18.6514 11.9195 19.1692 11.3003 19.6961 10.8486C20.2257 10.3947 20.815 10.0659 21.3002 9.85032C21.5449 9.74157 21.7748 9.65635 21.9723 9.59637C22.0257 9.58012 22.0882 9.56208 22.156 9.54525C22.177 9.51569 22.2009 9.48078 22.2279 9.43995C22.4011 9.1774 22.6203 8.79052 22.8613 8.33094C23.2022 7.68101 23.5619 6.93344 23.8594 6.29018C23.0812 5.78573 21.9914 5.40152 20.7816 5.55042C19.3266 5.72949 17.4603 6.71134 15.6153 9.729ZM22.0549 9.67494C22.0549 9.67488 22.0557 9.67399 22.0574 9.67238C22.0557 9.6742 22.0548 9.67501 22.0549 9.67494ZM35.5894 43.6057C35.6203 43.355 35.5566 43.0936 35.3941 42.8791C35.1111 42.5054 34.6099 42.3815 34.1892 42.5697C34.1296 42.562 34.0404 42.5453 33.9201 42.5118C33.5517 42.4091 33.0287 42.1872 32.4358 41.8201C31.2974 41.1154 29.9956 39.9348 29.0937 38.2345C29.0538 36.6927 28.6415 35.6614 28.0738 34.9314C27.7843 34.5593 27.4793 34.2982 27.2343 34.1076C27.1612 34.0508 27.076 33.9871 27.0093 33.9373C26.9779 33.9139 26.9506 33.8936 26.9306 33.8784C26.8463 33.8145 26.8149 33.7867 26.804 33.7758C26.8133 33.785 26.818 33.79 26.8188 33.7895C26.8218 33.7873 26.762 33.6986 26.6689 33.444C26.5705 33.1752 26.4719 32.8273 26.3838 32.4455C26.2037 31.6648 26.0969 30.8737 26.0969 30.4829C26.0969 30.3722 26.1292 30.1655 26.2164 29.8532C26.2994 29.5558 26.4135 29.2259 26.5367 28.8871C26.5752 28.7812 26.6158 28.6713 26.6564 28.5614C26.7389 28.3381 26.8214 28.1147 26.8866 27.9244C26.9367 27.7783 26.9849 27.6285 27.0214 27.489C27.0532 27.3675 27.0969 27.1792 27.0969 26.9829C27.0969 26.719 26.9932 26.5016 26.9659 26.4443C26.9648 26.4421 26.9639 26.4402 26.9631 26.4384C26.9165 26.3398 26.8592 26.24 26.8035 26.1489C26.6901 25.9636 26.5369 25.7398 26.3626 25.4968C26.0111 25.007 25.5317 24.3809 25.0081 23.7148C23.9742 22.3997 22.7395 20.8926 21.9029 19.888C21.7846 19.7013 21.6259 19.3914 21.5328 19.0684C21.4241 18.6914 21.4595 18.4937 21.4914 18.4301C21.8185 17.7757 22.009 16.9151 21.8231 16.0784C21.6519 15.3081 21.1723 14.6257 20.3571 14.2174C20.227 13.8343 20.2477 13.5395 20.3189 13.3063C20.4175 12.9838 20.6496 12.6655 20.9977 12.3671C21.3431 12.0711 21.7538 11.8373 22.1124 11.6779C22.2896 11.5992 22.4425 11.5438 22.5536 11.51C22.6131 11.492 22.6476 11.484 22.6614 11.481C22.9481 11.464 23.1553 11.3377 23.2485 11.274C23.366 11.1935 23.4592 11.1021 23.5251 11.031C23.6589 10.8867 23.7854 10.7109 23.8972 10.5414C24.1261 10.1946 24.3819 9.73776 24.6325 9.25984C25.1377 8.2966 25.6723 7.1505 26.0107 6.38905C26.1859 5.99499 26.0887 5.53304 25.7696 5.24297C24.6919 4.26321 22.788 3.28839 20.5373 3.5654C18.2417 3.84793 15.8395 5.3983 13.735 8.97589C13.6332 9.14886 13.5859 9.34845 13.5991 9.5487L16.5991 55.0487C16.633 55.5636 17.0533 55.9682 17.5692 55.9825L35.5692 56.4825C35.8391 56.49 36.1006 56.388 36.2941 56.1997C36.4877 56.0115 36.5969 55.7529 36.5969 55.4829V54.4829C36.5969 54.449 36.5952 54.4151 36.5918 54.3813C36.4059 52.5603 36.1329 49.8262 35.9181 47.542C35.8106 46.3991 35.7181 45.3729 35.6584 44.6308C35.6284 44.2584 35.6072 43.9651 35.5964 43.7666C35.5925 43.6942 35.5903 43.6415 35.5894 43.6057ZM34.2624 42.5757C34.2771 42.5738 34.2856 42.5739 34.2861 42.5744C34.2866 42.5749 34.2792 42.5758 34.2624 42.5757Z" fill="#21262A"/>
</svg>
