<svg width="60" height="60" viewBox="0 0 60 60" fill="none" xmlns="http://www.w3.org/2000/svg">
<path d="M23.7898 5.77875L8.80787 20.1673C8.47056 20.4913 8.4029 21.0054 8.64224 21.4072C9.21688 22.3719 9.99905 23.7104 10.3285 24.3643C10.723 25.1474 13.3131 27.2194 14.7833 28.3291C14.955 28.4587 15.1642 28.5275 15.3793 28.5275H18.0436C18.4516 28.5275 18.8186 28.7753 18.9711 29.1537L19.5984 30.7099C19.7059 30.9767 19.6857 31.2758 19.616 31.5549C19.5067 31.9926 19.4693 32.6194 19.7675 33.2112C20.1105 33.892 21.4117 35.0831 22.3527 35.8741C22.6839 36.1527 23.1581 36.1721 23.5191 35.9333L23.869 35.7017C24.2361 35.4589 24.7199 35.4833 25.0494 35.7751C26.1455 36.7457 27.6334 38.2344 27.6334 38.9357C27.6334 39.9765 28.6821 40.4969 28.6821 42.0582C28.6821 43.6194 27.6334 48.3031 27.6334 49.8643C27.6334 51.4255 27.6334 52.4663 28.6821 52.4663C28.9531 52.4663 29.0855 52.7196 29.1288 53.1034C29.2372 54.0635 30.3338 54.8343 31.0987 54.2439L32.6605 53.0384C33.0775 52.7165 33.1733 52.1264 32.8796 51.6891L32.8009 51.572C32.5392 51.1825 32.5836 50.6634 32.9077 50.3239L50.547 31.8461C50.9257 31.4493 50.9142 30.8214 50.521 30.4388L25.1799 5.78327C24.7935 5.40734 24.1786 5.40534 23.7898 5.77875Z" fill="#21262A"/>
<path fill-rule="evenodd" clip-rule="evenodd" d="M24.0634 3.77875C24.4523 3.40534 25.0671 3.40733 25.4535 3.78326L52.1974 29.8037C52.5906 30.1862 52.6021 30.8141 52.2234 31.2109L33.9001 50.4052L34.5008 51.2995C34.7946 51.7368 34.6988 52.3269 34.2818 52.6488L29.5623 56.2916C29.22 56.5558 28.7468 56.5701 28.3892 56.3271C28.0316 56.0841 27.8707 55.6388 27.9903 55.2233C28.1559 54.6482 28.3465 53.8087 28.4002 53.1429C28.4114 53.0035 28.4152 52.8877 28.4143 52.794C28.1648 52.7317 27.9239 52.6196 27.7076 52.4407C27.351 52.1458 27.1707 51.7589 27.0726 51.4182C26.9015 50.824 26.902 50.0503 26.9024 49.3578C26.9024 49.3233 26.9025 49.2891 26.9025 49.2551C26.9025 48.3899 27.1732 46.7783 27.4216 45.2997L27.4407 45.1864C27.7117 43.5728 27.9512 42.1228 27.9512 41.449C27.9512 40.9288 27.7908 40.5919 27.5602 40.1916C27.5383 40.1535 27.5136 40.112 27.487 40.0673C27.2688 39.701 26.9222 39.119 26.9033 38.3888C26.9012 38.3836 26.8986 38.3775 26.8955 38.3705C26.8686 38.3096 26.8175 38.2167 26.7318 38.091C26.5603 37.8391 26.3046 37.5339 25.9935 37.2026C25.5768 36.7587 25.099 36.3082 24.6779 35.9345L23.7347 36.5585C23.3738 36.7973 22.9001 36.7768 22.5612 36.5077C22.1068 36.1469 21.4027 35.5558 20.753 34.9425C20.4282 34.636 20.1072 34.3148 19.8344 34.0074C19.5742 33.7143 19.3087 33.3798 19.1436 33.052C18.6719 32.1158 18.7736 31.1573 18.9631 30.5321L18.3127 28.9184H15.3171C15.102 28.9184 14.8926 28.849 14.72 28.7206C14.0091 28.1914 12.9168 27.3455 11.9441 26.5218C11.4586 26.1107 10.9915 25.6956 10.6131 25.3225C10.2688 24.9829 9.89288 24.5789 9.70453 24.205C9.30599 23.414 8.17475 21.507 7.64427 20.6296C7.40231 20.2294 7.47004 19.7149 7.80735 19.391L24.0634 3.77875ZM26.9115 38.4118C26.9114 38.4118 26.9111 38.4108 26.9107 38.409C26.9113 38.4109 26.9115 38.4118 26.9115 38.4118ZM28.3864 52.5082C28.3865 52.5081 28.3871 52.5098 28.3881 52.5134C28.3869 52.5101 28.3864 52.5083 28.3864 52.5082ZM9.76757 20.2814C10.3459 21.2521 11.1449 22.6189 11.4906 23.3052C11.4906 23.3051 11.4907 23.3052 11.4908 23.3054C11.4932 23.3094 11.5266 23.366 11.6266 23.4841C11.723 23.5979 11.8537 23.737 12.0175 23.8985C12.3449 24.2214 12.7693 24.6 13.2365 24.9955C14.0566 25.6899 14.9736 26.4074 15.6504 26.9184H18.9878C19.3958 26.9184 19.7628 27.1662 19.9153 27.5445L20.9641 30.1466C21.0716 30.4133 21.0591 30.7135 20.9297 30.9704C20.901 31.0273 20.8306 31.2143 20.8104 31.4608C20.7909 31.6985 20.822 31.9384 20.9297 32.1521C20.9743 32.2406 21.0977 32.4178 21.3302 32.6798C21.5501 32.9276 21.8256 33.2048 22.1257 33.4881C22.5004 33.8417 22.8982 34.1904 23.2463 34.4835L24.2043 33.8497C24.5715 33.6068 25.0542 33.6325 25.3934 33.9131C25.9398 34.3649 26.7595 35.0964 27.4516 35.8337C27.7961 36.2006 28.1303 36.5913 28.3848 36.9651C28.5122 37.1522 28.6331 37.3544 28.725 37.5625C28.8126 37.7607 28.9025 38.0275 28.9025 38.3265C28.9025 38.5146 28.9737 38.6383 29.2772 39.1654L29.2935 39.1936C29.5873 39.704 29.9512 40.4079 29.9512 41.449C29.9512 42.3142 29.6805 43.9258 29.4321 45.4044L29.413 45.5177C29.1421 47.1312 28.9025 48.5813 28.9025 49.2551C28.9025 49.6525 28.9027 49.9825 28.9175 50.2687C28.9322 50.5534 28.9593 50.739 28.9925 50.8577C29.3541 50.8682 29.6822 51.0162 29.9268 51.2702C30.1532 51.5054 30.2624 51.7823 30.3198 51.9947C30.4155 52.3492 30.4258 52.7498 30.4065 53.1135L32.3186 51.6376L31.7919 50.8535C31.5302 50.464 31.5746 49.9449 31.8986 49.6054L50.0927 30.5464L24.7516 5.89082L9.76757 20.2814ZM29.0239 50.9444C29.0239 50.9444 29.0237 50.944 29.0232 50.9432L29.0239 50.9444Z" fill="#21262A"/>
<path d="M15.9838 43.2279C15.9838 40.0119 13.5358 39.0039 11.1238 39.0039H8.05176V47.4999H11.2198C13.5598 47.4999 15.9838 46.2159 15.9838 43.2279ZM13.8478 43.2279C13.8478 45.1239 12.4918 45.7239 11.0278 45.7239H10.0558V40.7559H11.0758C12.4918 40.7559 13.8478 41.3199 13.8478 43.2279Z" fill="#21262A"/>
<path d="M24.8207 46.3239L23.3927 44.9799C23.0327 45.4839 22.3967 45.8439 21.5927 45.8439C20.1767 45.8439 19.1807 44.7879 19.1807 43.2399C19.1807 41.7399 20.2007 40.6359 21.6287 40.6359C22.2767 40.6359 22.9607 40.8879 23.3447 41.4159L24.7367 40.0239C24.0287 39.2079 22.7447 38.7759 21.5567 38.7759C18.9647 38.7759 16.9487 40.5159 16.9487 43.2399C16.9487 45.9039 18.9047 47.7279 21.5207 47.7279C22.9487 47.7279 24.0767 47.1879 24.8207 46.3239Z" fill="#21262A"/>
</svg>
