<svg width="24" height="24" viewBox="0 0 24 24" fill="none" xmlns="http://www.w3.org/2000/svg">
    <path d="M10.1814 1.5133C10.0268 1.36293 9.7809 1.36213 9.62538 1.5115L3.12294 7.75639C2.98802 7.88597 2.96092 8.09176 3.05771 8.25184C3.2699 8.60281 3.7224 9.3656 3.88181 9.68201C3.95715 9.83155 4.10751 9.99314 4.24526 10.129C4.39659 10.2783 4.58342 10.4443 4.77763 10.6087C5.16674 10.9382 5.60364 11.2766 5.88801 11.4882C5.95704 11.5396 6.04079 11.5673 6.12684 11.5673H7.32509L7.58525 12.2128C7.50944 12.4629 7.46876 12.8463 7.65742 13.2208C7.72348 13.3519 7.82969 13.4857 7.93377 13.603C8.04288 13.7259 8.17129 13.8544 8.30119 13.977C8.56108 14.2223 8.84271 14.4588 9.02447 14.6031C9.16005 14.7107 9.3495 14.7189 9.49389 14.6234L9.87117 14.3738C10.0396 14.5233 10.2307 14.7035 10.3974 14.881C10.5218 15.0135 10.6241 15.1357 10.6927 15.2364C10.727 15.2867 10.7475 15.3238 10.7582 15.3482L10.7613 15.3555C10.7689 15.6476 10.9075 15.8804 10.9948 16.0269C11.0054 16.0448 11.0153 16.0614 11.0241 16.0766C11.1163 16.2368 11.1805 16.3715 11.1805 16.5796C11.1805 16.8491 11.0847 17.4291 10.9763 18.0746L10.9687 18.1199C10.8693 18.7113 10.761 19.356 10.761 19.702L10.761 19.7431C10.7608 20.0201 10.7606 20.3296 10.829 20.5673C10.8683 20.7035 10.9404 20.8583 11.083 20.9763C11.1695 21.0478 11.2659 21.0927 11.3657 21.1176C11.3661 21.1551 11.3646 21.2014 11.3601 21.2571C11.3386 21.5235 11.2624 21.8593 11.1961 22.0893C11.1483 22.2555 11.2126 22.4336 11.3557 22.5308C11.4987 22.628 11.688 22.6223 11.8249 22.5166L13.7127 21.0595C13.8795 20.9308 13.9178 20.6947 13.8003 20.5198L13.56 20.1621L20.8893 12.4844C21.0409 12.3256 21.0362 12.0745 20.8789 11.9215L10.1814 1.5133Z" fill="#21262A"/>
</svg>
