<svg width="24" height="24" viewBox="0 0 24 24" fill="none" xmlns="http://www.w3.org/2000/svg">
    <path d="M2.19981 3.20001C2.07123 3.20001 1.95049 3.26182 1.87531 3.36613C1.80013 3.47044 1.77967 3.60452 1.82033 3.7265C1.85013 3.8159 1.86231 3.9279 1.86231 4.08126C1.86231 4.15715 1.85949 4.23572 1.85632 4.32389C1.85324 4.40929 1.84981 4.50452 1.84981 4.60001C1.84981 4.98818 1.9047 5.47059 2.31696 5.88285C2.43871 6.0046 2.6247 6.03478 2.77869 5.95778C4.20696 5.24365 5.65067 5.78133 6.17793 6.13283C6.27521 6.19769 6.36915 6.29585 6.47994 6.43579C6.52573 6.49363 6.57027 6.55315 6.61887 6.61808L6.64934 6.65876C6.70836 6.73746 6.77297 6.82263 6.84252 6.90609C7.12825 7.24896 7.53 7.60001 8.19981 7.60001C8.32571 7.60001 8.44427 7.54073 8.51981 7.44001C8.91734 6.90997 9.47054 6.68172 10.0305 6.6174C10.5617 6.55637 11.075 6.64726 11.3988 6.7537C11.8225 7.11425 12.8419 8.05556 13.8988 9.26341C14.5194 9.97265 14.5275 10.4899 14.4368 10.853C14.3865 11.054 14.2998 11.2307 14.2102 11.4036L14.1936 11.4355C14.156 11.5079 14.1142 11.5884 14.0822 11.6616C14.0481 11.7394 13.9998 11.8627 13.9998 12C13.9998 12.4071 14.1615 12.8178 14.242 12.9789C14.3098 13.1144 14.4483 13.2 14.5998 13.2H14.7881C14.7555 13.2573 14.7251 13.3166 14.6988 13.3769C14.6472 13.4953 14.5998 13.6429 14.5998 13.8C14.5998 13.9638 14.6609 14.1414 14.7166 14.2789C14.7783 14.4313 14.8606 14.5979 14.9475 14.7594C15.1216 15.0832 15.3286 15.4143 15.467 15.6219C15.5412 15.7332 15.6661 15.8 15.7998 15.8H16.0217C16.0362 15.8601 16.0538 15.921 16.0731 15.9815C16.1493 16.2206 16.2689 16.5035 16.4024 16.7893C16.6709 17.3638 17.0172 17.9951 17.2543 18.4016C17.326 18.5244 17.4575 18.6 17.5998 18.6C17.6834 18.6 17.9531 18.6298 18.2004 18.7477C18.2026 18.7502 18.2052 18.7534 18.2084 18.7574C18.2285 18.7824 18.2558 18.8237 18.2887 18.885C18.3545 19.0075 18.4242 19.1748 18.4927 19.3685C18.6291 19.7539 18.745 20.1974 18.8093 20.4868C18.85 20.6698 19.0123 20.8 19.1998 20.8H20.3998C20.5538 20.8 20.6592 20.7166 20.6855 20.6957C20.7288 20.6614 20.7654 20.6222 20.7925 20.5909C20.8481 20.5264 20.9065 20.4442 20.9634 20.3582C21.0792 20.1832 21.2174 19.948 21.3588 19.6955C21.6429 19.1881 21.956 18.5821 22.1576 18.1789C22.1904 18.1133 22.2045 18.0399 22.1984 17.9668C22.1307 17.1536 21.9998 15.4983 21.9998 15.2C21.9998 15.0939 21.9647 14.9636 21.9372 14.8686C21.9041 14.7538 21.8576 14.6127 21.8024 14.4548C21.6917 14.1382 21.5396 13.7367 21.3723 13.3092C21.0784 12.5584 20.7334 11.717 20.4726 11.093L20.8827 10.6829C21.0268 10.5387 21.0395 10.3093 20.9122 10.1501C20.3733 9.47654 19.2405 8.03997 18.9326 7.57813C18.8937 7.51969 18.8256 7.34961 18.7448 7.04971C18.6689 6.76812 18.5936 6.41915 18.5228 6.04557C18.3815 5.29928 18.2627 4.47791 18.1967 3.9504C18.1717 3.75023 18.0015 3.60001 17.7998 3.60001H16.3998C16.2043 3.60001 16.0374 3.74138 16.0053 3.93425L15.9243 4.41988C15.8955 4.41045 15.8656 4.40426 15.835 4.40156L9.22616 3.81843L8.93263 3.37813C8.85844 3.26685 8.73355 3.20001 8.59981 3.20001H2.19981Z" fill="#21262A"/>
</svg>
