<svg width="60" height="60" viewBox="0 0 60 60" fill="none" xmlns="http://www.w3.org/2000/svg">
<path d="M20.8398 9H6.76243C6.07987 9 5.54128 9.68959 5.52974 10.372C5.5126 11.386 5.3653 12.4768 5.93207 13.4334C6.15148 13.8037 6.63348 13.8647 7.03203 13.7021C10.8058 12.1629 14.4572 13.5548 15.875 14.5C17.2694 15.4296 17.7997 17.6556 19.8759 17.9643C20.1872 18.0105 20.4829 17.8474 20.6912 17.6114C23.0602 14.929 26.8809 15.3336 28.7104 15.9427C28.8201 15.9793 28.9195 16.0367 29.0076 16.1116C30.0983 17.0384 32.6907 19.4322 35.375 22.5C38.875 26.5 35.875 29 35.875 30C35.875 30.5417 36.0278 31.1139 36.1783 31.5305C36.2843 31.8242 36.5723 32 36.8846 32C37.6191 32 38.0187 32.9301 37.6694 33.5763C37.4935 33.9017 37.375 34.2246 37.375 34.5C37.375 35.2247 38.4693 37.0985 39.1708 38.1881C39.2969 38.3839 39.5149 38.5 39.7478 38.5C40.2657 38.5 40.8416 39.1058 40.9953 39.6003C41.4439 41.0432 42.6981 43.4338 43.5893 45.0033C43.7649 45.3126 44.0951 45.4972 44.4463 45.5532C44.8515 45.6178 45.3762 45.7506 45.875 46C46.5534 46.3392 47.2798 48.6201 47.6882 50.2203C47.8041 50.6744 48.2083 51 48.677 51H50.875C51.259 51 53.2095 47.314 54.2497 45.2496C54.3323 45.0858 54.367 44.9047 54.3519 44.7219C54.1795 42.6348 53.875 38.7646 53.875 38C53.875 37.2492 51.526 31.4479 50.135 28.1198C49.9782 27.7447 50.063 27.312 50.3505 27.0245L50.7421 26.6329C51.1024 26.2726 51.1342 25.6992 50.8172 25.3003C49.3647 23.4725 47.0761 20.5517 46.375 19.5C45.6544 18.4191 44.8797 13.7412 44.4894 10.8744C44.4214 10.3747 43.9965 10 43.4922 10H41.7221C41.2333 10 40.8161 10.3534 40.7357 10.8356L40.5709 11.8249C40.4889 12.3168 39.8852 12.5102 39.5326 12.1576C39.4308 12.0558 39.2964 11.9931 39.153 11.9804L22.853 10.5422C22.5508 10.5155 22.2771 10.3531 22.1088 10.1007L21.6719 9.4453C21.4864 9.1671 21.1742 9 20.8398 9Z" fill="#21262A"/>
<path d="M25.3527 24.2559V22.5039H19.7607V30.9999H21.7887V27.6999H25.0767V26.0079H21.7887V24.2559H25.3527Z" fill="#21262A"/>
<path d="M32.0268 30.9999V29.2119H28.7388V22.5039H26.6748V30.9999H32.0268Z" fill="#21262A"/>
<path fill-rule="evenodd" clip-rule="evenodd" d="M4.68877 8.41529C4.87672 8.15452 5.17856 8 5.50001 8H21.5C21.8344 8 22.1466 8.1671 22.3321 8.4453L23.0659 9.54605L39.5879 11.0039C39.6644 11.0106 39.7393 11.0261 39.8113 11.0497L40.0136 9.8356C40.094 9.35341 40.5112 9 41 9H44.5C45.0043 9 45.4297 9.37554 45.4923 9.87597C45.6571 11.1947 45.9541 13.2482 46.3075 15.1139C46.4845 16.0479 46.6728 16.9203 46.8625 17.6243C47.0644 18.374 47.2347 18.7992 47.3321 18.9453C48.1018 20.0999 50.9337 23.6913 52.2809 25.3753C52.5992 25.7732 52.5674 26.3468 52.2071 26.7071L51.1819 27.7323C51.834 29.2926 52.6965 31.3958 53.4312 33.273C53.8495 34.3417 54.2296 35.3455 54.5065 36.1371C54.6445 36.5318 54.7606 36.8846 54.8435 37.1715C54.9121 37.4089 55 37.7347 55 38C55 38.7458 55.3271 42.884 55.4966 44.917C55.5118 45.0997 55.4765 45.2832 55.3944 45.4472C54.8904 46.4552 54.1078 47.9702 53.3975 49.2386C53.044 49.8699 52.6984 50.458 52.409 50.8955C52.2668 51.1105 52.1207 51.3159 51.9816 51.4772C51.9141 51.5555 51.8235 51.6526 51.7152 51.7384L51.7142 51.7392C51.6484 51.7914 51.3851 52 51 52H48C47.5313 52 47.1255 51.6745 47.0238 51.2169C46.8631 50.4935 46.5733 49.3847 46.2323 48.4211C46.0609 47.9369 45.8868 47.5186 45.7222 47.2123C45.6399 47.0592 45.5716 46.9559 45.5215 46.8934C45.5136 46.8835 45.5069 46.8755 45.5014 46.8693C44.8833 46.5744 44.2091 46.5 44 46.5C43.6443 46.5 43.3154 46.3111 43.1362 46.0039C42.5434 44.9876 41.6776 43.4096 41.0065 41.9733C40.6726 41.2587 40.3737 40.5514 40.1832 39.9537C40.135 39.8026 40.091 39.6501 40.0547 39.5H39.5C39.1657 39.5 38.8534 39.3329 38.668 39.0547C38.3219 38.5357 37.8045 37.7081 37.3692 36.8985C37.1521 36.4947 36.9462 36.0783 36.7919 35.6972C36.6526 35.3534 36.5 34.9096 36.5 34.5C36.5 34.1072 36.6184 33.7382 36.7475 33.4423C36.8133 33.2914 36.8892 33.1431 36.9706 33H36.5C36.1212 33 35.775 32.786 35.6056 32.4472C35.4042 32.0444 35 31.0176 35 30C35 29.6568 35.1207 29.3486 35.2059 29.1539C35.2859 28.971 35.3905 28.7699 35.4846 28.5888C35.4987 28.5617 35.5126 28.535 35.5261 28.5089C35.7499 28.0768 35.9668 27.6349 36.0924 27.1325C36.3193 26.2248 36.2989 24.9316 34.7474 23.1585C32.1053 20.1389 29.5567 17.7856 28.4975 16.8842C27.6879 16.6181 26.4046 16.3909 25.0766 16.5435C23.6768 16.7043 22.2938 17.2749 21.3 18.6C21.1112 18.8518 20.8148 19 20.5 19C18.8255 19 17.8211 18.1224 17.1068 17.2652C16.9329 17.0565 16.7714 16.8436 16.6238 16.6469C16.5979 16.6124 16.5726 16.5785 16.5477 16.5452C16.4262 16.3828 16.3148 16.234 16.2003 16.0895C15.9234 15.7396 15.6885 15.4942 15.4453 15.3321C14.1272 14.4533 10.5179 13.1091 6.94722 14.8944C6.56223 15.0869 6.09726 15.0115 5.7929 14.7071C4.76225 13.6765 4.62501 12.4704 4.62501 11.5C4.62501 11.2613 4.6335 11.0257 4.64119 10.8122L4.64128 10.8097C4.64922 10.5893 4.65626 10.3928 4.65626 10.2031C4.65626 9.81973 4.62582 9.53971 4.55132 9.31623C4.44967 9.01128 4.50081 8.67606 4.68877 8.41529ZM40.0428 37.5H41C41.3466 37.5 41.6685 37.6795 41.8507 37.9743C42.004 38.2224 42.04 38.5225 41.9552 38.7961C41.956 38.8035 41.9569 38.8119 41.9581 38.8211C41.9723 38.9322 42.0119 39.1055 42.0887 39.3463C42.2409 39.8236 42.4982 40.4413 42.8185 41.1267C43.3654 42.2971 44.0574 43.5841 44.6054 44.5474C45.117 44.6181 45.7954 44.7797 46.4472 45.1056C46.7306 45.2472 46.9388 45.4636 47.0824 45.643C47.2341 45.8323 47.3674 46.0486 47.484 46.2658C47.7174 46.7001 47.9308 47.2256 48.1177 47.7539C48.3824 48.5016 48.6145 49.3138 48.789 50H50.5984C50.6396 49.9425 50.6871 49.8735 50.741 49.792C50.9891 49.417 51.306 48.8801 51.6525 48.2614C52.2865 47.1293 52.9861 45.7832 53.4802 44.8026C53.3107 42.7514 53.0042 38.8687 53 38.017C53 38.0222 52.9999 38.0249 52.9995 38.0249C52.997 38.0252 52.9844 37.9421 52.9221 37.7266C52.854 37.4907 52.7514 37.1771 52.6186 36.7973C52.3537 36.0399 51.9839 35.0625 51.5688 34.002C50.7395 31.8832 49.743 29.4666 49.0784 27.8881C48.9206 27.5133 49.0054 27.0804 49.2929 26.7929L50.1611 25.9247C48.7107 24.0996 46.3951 21.1454 45.668 20.0547C45.3654 19.6008 45.1272 18.8718 44.9313 18.1445C44.723 17.3714 44.5239 16.4438 44.3425 15.4861C44.0507 13.946 43.7978 12.2904 43.6223 11H41.8471L41.4864 13.1644C41.4248 13.5339 41.1619 13.838 40.8052 13.9523C40.4485 14.0666 40.0578 13.972 39.7929 13.7071L39.05 12.9642L22.4121 11.4961C22.1099 11.4695 21.8362 11.3071 21.668 11.0547L20.9648 10H6.65393C6.65559 10.069 6.65626 10.1368 6.65626 10.2031C6.65626 10.4303 6.64803 10.6586 6.64047 10.8681L6.63998 10.8817C6.63208 11.1012 6.62501 11.3021 6.62501 11.5C6.62501 12.0018 6.67172 12.4059 6.83015 12.7554C10.9872 11.083 14.9714 12.6124 16.5547 13.6679C17.0615 14.0058 17.4516 14.4479 17.7684 14.848C17.9014 15.016 18.032 15.1905 18.1536 15.353C18.1774 15.3848 18.2008 15.4162 18.2238 15.4469C18.3693 15.6408 18.5046 15.8185 18.6432 15.9848C19.0759 16.504 19.4825 16.8468 20.0578 16.9594C21.4261 15.4033 23.204 14.7454 24.8484 14.5565C26.6204 14.353 28.3018 14.682 29.3418 15.0602C29.4504 15.0997 29.5514 15.1578 29.6402 15.2318C30.6797 16.098 33.4174 18.6012 36.2526 21.8415C38.2011 24.0684 38.4307 26.0252 38.0326 27.6175C37.8458 28.3651 37.5314 28.9857 37.3021 29.4286C37.2867 29.4582 37.272 29.4866 37.2579 29.5138C37.159 29.7045 37.0893 29.8387 37.0382 29.9555C37.018 30.0017 37.0067 30.0324 37.0006 30.0502C37.0085 30.3647 37.088 30.7102 37.1793 31H39C39.4045 31 39.7691 31.2436 39.9239 31.6173C40.0787 31.991 39.9931 32.4211 39.7071 32.7071C39.4934 32.9208 39.1616 33.2971 38.8911 33.6974C38.7564 33.8967 38.6502 34.0825 38.5807 34.242C38.5464 34.3206 38.5249 34.3839 38.5126 34.432C38.5011 34.4765 38.5001 34.498 38.5 34.5M41.9528 38.7455C41.953 38.7456 41.9531 38.7502 41.9525 38.7587C41.9522 38.7495 41.9525 38.7453 41.9528 38.7455Z" fill="#21262A"/>
</svg>
