<svg width="24" height="24" viewBox="0 0 24 24" fill="none" xmlns="http://www.w3.org/2000/svg">
    <path fill-rule="evenodd" clip-rule="evenodd" d="M3.49174 2.345C3.56773 2.25317 3.68071 2.20001 3.79991 2.20001H12.3999C12.5551 2.20001 12.6963 2.2898 12.7621 2.43035C12.828 2.5709 12.8066 2.73685 12.7072 2.85609L12.0094 3.69344C12.2596 3.84666 12.5411 4.03063 12.8021 4.22296C13.0128 4.37813 13.2184 4.54469 13.3855 4.70995C13.5416 4.86431 13.7079 5.05905 13.7794 5.27352C13.8562 5.50387 13.9032 5.68684 13.9446 5.84797C14.0291 6.17657 14.0902 6.41438 14.3327 6.77813C14.3894 6.8631 14.5005 6.9656 14.6762 7.08366C14.8474 7.19877 15.0492 7.30882 15.2621 7.4215C15.2903 7.43646 15.3189 7.45155 15.3478 7.46675C15.5273 7.56142 15.7148 7.66027 15.8707 7.75733C15.9625 7.8145 16.0545 7.87775 16.1348 7.94721C16.2121 8.01418 16.2994 8.10458 16.3577 8.22113C16.3577 8.22113 16.3667 8.23764 16.3948 8.27891C16.4204 8.31651 16.4549 8.36443 16.4981 8.4225C16.5845 8.53853 16.6988 8.68571 16.8327 8.85537C16.9478 9.00133 17.0875 9.17643 17.2349 9.36134C17.4096 9.58032 17.5952 9.81307 17.7641 10.0275C18.0893 10.4402 18.4085 10.8549 18.6349 11.1815C18.7467 11.3428 18.8449 11.4955 18.9097 11.6216C18.9407 11.682 18.9751 11.7574 18.9944 11.8358C19.0039 11.8748 19.015 11.9352 19.0093 12.0057C19.0044 12.0653 18.9855 12.1505 18.9271 12.231C18.9259 12.2413 18.9249 12.2559 18.9249 12.275C18.9249 12.3511 18.941 12.4583 18.9794 12.5735C19.0627 12.8235 19.2014 12.9789 19.3264 13.0205C19.505 13.0801 19.659 13.1775 19.7689 13.3198C19.8795 13.4629 19.9233 13.6226 19.9295 13.7678C19.9331 13.8509 19.9247 13.9315 19.9087 14.0072L20.3788 14.2422C20.5613 14.3335 20.6459 14.5476 20.575 14.7389C20.2413 15.64 19.7306 17.0019 19.283 18.1593C19.0593 18.7376 18.8506 19.2672 18.6872 19.6632C18.6057 19.8607 18.5341 20.0285 18.4768 20.1537C18.4483 20.2159 18.4214 20.272 18.3971 20.3178C18.3851 20.3405 18.3716 20.3648 18.3571 20.3878C18.3462 20.4051 18.3207 20.4449 18.2827 20.4829C18.176 20.5896 18.0466 20.628 17.9563 20.643C17.8622 20.6587 17.7677 20.6563 17.6851 20.648C17.5192 20.6314 17.338 20.5843 17.1734 20.5295C17.1017 20.5056 17.03 20.4791 16.9602 20.4511C16.9563 20.4908 16.9519 20.5311 16.9472 20.5717C16.9213 20.7918 16.88 21.0442 16.8099 21.2505C16.7756 21.3516 16.7252 21.4697 16.6467 21.5699C16.5668 21.6718 16.4192 21.8 16.1999 21.8C15.8104 21.8 15.5734 21.4887 15.4634 21.3083C15.4 21.2043 15.3476 21.0929 15.306 20.9876L6.38253 20.5996C6.26529 20.5945 6.15621 20.5382 6.08416 20.4456C5.84477 20.1378 5.49465 19.6542 5.22214 19.2012C5.08685 18.9763 4.96251 18.7455 4.88201 18.5407C4.84198 18.4389 4.80704 18.3292 4.79082 18.2212C4.77593 18.122 4.76808 17.9692 4.84213 17.8211C4.92615 17.6531 5.06386 17.2884 5.13176 16.9263C5.1656 16.7458 5.17827 16.5855 5.16712 16.4606C5.15545 16.3299 5.1227 16.2885 5.11706 16.2829C4.93047 16.0963 4.83653 15.8105 4.78871 15.568C4.73723 15.3069 4.72291 15.0105 4.7521 14.7331C4.78033 14.465 4.85429 14.1659 5.01957 13.9374C5.10576 13.8183 5.22536 13.707 5.38577 13.6417C5.46942 13.6076 5.55608 13.5894 5.64376 13.5854C5.63413 13.5448 5.62196 13.5 5.60715 13.4512C5.48891 13.0616 5.24404 12.5496 5.04875 12.1916C5.02656 12.1509 5.0116 12.1066 5.00456 12.0608L4.20564 6.86787L3.40697 2.67486C3.38467 2.55777 3.41575 2.43683 3.49174 2.345Z" fill="#21262A"/>
</svg>
