<svg width="60" height="60" viewBox="0 0 60 60" fill="none" xmlns="http://www.w3.org/2000/svg">
<path d="M29.6568 6.5H11.5003C10.873 6.5 10.4006 7.07088 10.518 7.68711L12.2919 17L14.2652 29.8269C14.2828 29.9414 14.3202 30.0514 14.3748 30.1536C15.3767 32.0247 16.8483 35.3891 15.2919 35C13.2919 34.5 13.2919 39 14.2919 40C15.2919 41 14.2919 44 13.7919 45C13.422 45.7397 15.3035 48.5313 16.5115 50.1337C16.6881 50.3679 16.9608 50.5073 17.2539 50.5201L39.0462 51.4676C39.4885 51.4868 39.8582 51.7985 40.0299 52.2065C40.2936 52.8329 40.726 53.5 41.2919 53.5C42.0608 53.5 42.2385 50.8394 42.2795 49.8371C42.2904 49.5721 42.3977 49.6065 42.6246 49.7437C43.4767 50.2591 45.3646 50.9273 45.7919 50.5C46.1683 50.1235 49.2317 42.0407 50.9803 37.3394C51.1582 36.8612 50.9463 36.3272 50.4899 36.099L50.305 36.0066C49.7671 35.7376 49.6561 35.0338 49.6153 34.4337C49.5896 34.0565 49.377 33.695 48.7919 33.5C47.2919 33 46.7919 30.5 47.2919 30C47.7919 29.5 41.2919 22 40.7919 21C40.2919 20 36.7919 19 35.7919 17.5C34.7919 16 34.7919 15 34.2919 13.5C33.9707 12.5366 31.9095 11.0792 30.333 10.1107C29.7987 9.78244 29.6636 9.05392 30.065 8.57219L30.425 8.14018C30.9678 7.48886 30.5047 6.5 29.6568 6.5Z" fill="#21262A"/>
<path d="M28.9416 36.9839V32.4839H25.4376V34.1399H27.0576V35.6879C26.6976 35.8439 26.2536 35.9159 25.7736 35.9159C24.1056 35.9159 23.1816 34.7999 23.1816 33.2399C23.1816 31.7159 24.2376 30.5879 25.6776 30.5879C26.5056 30.5879 27.1896 30.9239 27.5856 31.3799L28.8816 29.9039C28.1736 29.2199 26.9376 28.7759 25.6056 28.7759C23.0136 28.7759 20.9976 30.5159 20.9976 33.2399C20.9976 35.9159 22.9536 37.7159 25.6656 37.7159C26.9736 37.7159 28.1136 37.4159 28.9416 36.9839Z" fill="#21262A"/>
<path d="M38.6562 37.4999L35.1282 29.0039H33.1362L29.5722 37.4999H31.8042L32.4282 35.8319H35.7162L36.3762 37.4999H38.6562ZM35.1522 34.1879H33.0162L34.0962 31.2719L35.1522 34.1879Z" fill="#21262A"/>
<path fill-rule="evenodd" clip-rule="evenodd" d="M8.72958 5.86247C8.91956 5.63289 9.20202 5.5 9.50001 5.5H31C31.388 5.5 31.741 5.72446 31.9056 6.07584C32.0702 6.42723 32.0166 6.8421 31.7682 7.14018L30.0237 9.23357C30.6494 9.61663 31.3529 10.0766 32.0056 10.5574C32.5322 10.9453 33.0462 11.3617 33.464 11.7748C33.8543 12.1607 34.27 12.6476 34.4487 13.1838C34.6407 13.7597 34.7582 14.2171 34.8618 14.6199C35.073 15.4414 35.2258 16.0359 35.8321 16.9453C35.9737 17.1577 36.2515 17.414 36.6907 17.7091C37.1188 17.9969 37.6233 18.272 38.1554 18.5537C38.226 18.5911 38.2976 18.6288 38.3697 18.6668C38.8186 18.9035 39.2873 19.1506 39.677 19.3933C39.9066 19.5362 40.1366 19.6943 40.3372 19.868C40.5306 20.0354 40.7487 20.2614 40.8944 20.5528C40.8941 20.5521 40.9169 20.5941 40.9873 20.6972C41.0513 20.7912 41.1375 20.9111 41.2455 21.0562C41.4614 21.3463 41.7473 21.7143 42.082 22.1384C42.3699 22.5033 42.7189 22.941 43.0876 23.4033C43.5242 23.9508 43.9882 24.5326 44.4105 25.0686C45.2234 26.1004 46.0215 27.1372 46.5875 27.9538C46.8669 28.357 47.1125 28.7386 47.2744 29.054C47.3519 29.205 47.4381 29.3934 47.4861 29.5894C47.5101 29.687 47.5378 29.838 47.5235 30.0141C47.5113 30.1632 47.4639 30.3763 47.318 30.5774C47.3151 30.6032 47.3125 30.6396 47.3125 30.6875C47.3125 30.8778 47.3527 31.1457 47.4487 31.4338C47.657 32.0586 48.0037 32.4471 48.3162 32.5513C48.7628 32.7002 49.1477 32.9437 49.4226 33.2996C49.699 33.6573 49.8085 34.0564 49.8241 34.4195C49.833 34.6273 49.812 34.8286 49.7719 35.0179L50.9472 35.6056C51.4036 35.8337 51.615 36.3689 51.4378 36.8473C50.6035 39.0999 49.3267 42.5047 48.2077 45.3982C47.6485 46.844 47.1266 48.1679 46.7182 49.1579C46.5145 49.6517 46.3354 50.0712 46.1921 50.3843C46.121 50.5397 46.0537 50.68 45.9931 50.7944C45.963 50.8512 45.9292 50.9119 45.8929 50.9695C45.8658 51.0126 45.8021 51.1122 45.7071 51.2071C45.4403 51.474 45.1166 51.5699 44.891 51.6075C44.6558 51.6467 44.4195 51.6407 44.213 51.62C43.7982 51.5786 43.3452 51.4608 42.9338 51.3237C42.7545 51.2639 42.5752 51.1978 42.4008 51.1278C42.391 51.227 42.3801 51.3278 42.3682 51.4293C42.3034 51.9795 42.2002 52.6105 42.025 53.1263C41.9392 53.3791 41.8133 53.6743 41.6171 53.9246C41.4172 54.1796 41.0482 54.5 40.5 54.5C39.5263 54.5 38.9338 53.7216 38.6588 53.2708C38.5001 53.0107 38.3692 52.7323 38.2652 52.469L15.9566 51.4991C15.6635 51.4863 15.3908 51.3455 15.2107 51.1139C14.6122 50.3444 13.7369 49.1355 13.0556 48.003C12.7174 47.4407 12.4065 46.8638 12.2053 46.3518C12.1052 46.0972 12.0178 45.823 11.9773 45.5529C11.9401 45.3048 11.9204 44.9231 12.1056 44.5528C12.3156 44.1327 12.6599 43.221 12.8296 42.3157C12.9142 41.8645 12.9459 41.4636 12.918 41.1514C12.8889 40.8248 12.807 40.7212 12.7929 40.7071C12.3264 40.2406 12.0916 39.5262 11.972 38.92C11.8433 38.2673 11.8075 37.5262 11.8805 36.8328C11.9511 36.1624 12.136 35.4147 12.5492 34.8436C12.7647 34.5457 13.0636 34.2674 13.4647 34.1041C13.6738 34.019 13.8904 33.9734 14.1096 33.9635C14.0856 33.862 14.0552 33.75 14.0181 33.6279C13.7225 32.654 13.1103 31.3739 12.6221 30.4789C12.5666 30.3771 12.5293 30.2666 12.5116 30.1521L10.5143 17.1696L8.51767 6.68711C8.46191 6.39439 8.53961 6.09205 8.72958 5.86247ZM14.7605 34.0337C14.7606 34.0337 14.7591 34.0335 14.7559 34.0329C14.7589 34.0333 14.7605 34.0336 14.7605 34.0337ZM40.5 49.4724V49.4733C40.4999 49.4691 40.5 49.4682 40.5 49.4724ZM10.7085 7.5L12.4823 16.8129C12.4846 16.8245 12.4866 16.8362 12.4884 16.8479L14.4621 29.6768C14.9628 30.6116 15.5966 31.9422 15.9319 33.0471C16.0955 33.5861 16.2518 34.2638 16.1412 34.8353C16.0793 35.1549 15.9048 35.5796 15.4623 35.8384C15.0381 36.0865 14.5857 36.0522 14.2575 35.9701C14.2385 35.9654 14.2247 35.9631 14.2153 35.9621C14.2054 35.9713 14.1899 35.9878 14.1696 36.0158C14.0515 36.179 13.9239 36.5251 13.8695 37.0422C13.8175 37.5363 13.8442 38.0765 13.9342 38.5331C13.979 38.7601 14.0358 38.9479 14.0953 39.0891C14.1247 39.1588 14.1519 39.2105 14.1743 39.2464C14.1951 39.2801 14.2074 39.2932 14.2074 39.2932L14.2071 39.2929C14.693 39.7788 14.8611 40.4252 14.9101 40.9736C14.9604 41.5364 14.8983 42.1355 14.7954 42.6843C14.6061 43.6939 14.2463 44.698 13.964 45.303C13.9792 45.3719 14.0101 45.4764 14.0666 45.6201C14.2081 45.98 14.4535 46.4468 14.7694 46.972C15.2999 47.854 15.9719 48.8065 16.5103 49.5212L39.0434 50.5009C39.4858 50.5202 39.8628 50.828 39.9701 51.2575C40.0224 51.4666 40.1215 51.7576 40.2524 52.0215C40.3034 51.7764 40.3467 51.4945 40.3819 51.1957C40.4405 50.6973 40.4703 50.2079 40.4854 49.8697C40.4928 49.7018 40.4965 49.5735 40.4984 49.5024C40.499 49.4802 40.5 49.4358 40.5008 49.4181L40.5019 49.3974L40.5038 49.3725C40.5049 49.3603 40.5092 49.3248 40.5127 49.3014C40.525 49.2385 40.7814 48.7657 41.1842 48.5123C41.5603 48.5386 41.8792 48.7128 42.1076 48.8924L42.2071 48.7929C42.1942 48.78 42.2177 48.8047 42.3085 48.8622C42.3905 48.9141 42.5004 48.9759 42.6347 49.0431C42.9037 49.1776 43.2349 49.3159 43.5662 49.4263C43.8685 49.5271 44.1377 49.5935 44.3414 49.6215C44.3517 49.5995 44.3624 49.5764 44.3735 49.552C44.5011 49.2733 44.6689 48.8811 44.8693 48.3952C45.2692 47.4259 45.7848 46.1185 46.3423 44.6768C47.3252 42.1352 48.4317 39.1939 49.2503 36.9932L48.0528 36.3944C47.7962 36.2662 47.6071 36.0339 47.5335 35.7567C47.4599 35.4794 47.5089 35.184 47.668 34.9453C47.7079 34.8854 47.754 34.7984 47.7868 34.7043C47.818 34.6146 47.8263 34.5495 47.8261 34.5131C47.8043 34.4984 47.7611 34.4745 47.6838 34.4487C46.4963 34.0529 45.843 32.9414 45.5513 32.0662C45.3973 31.6043 45.3125 31.1222 45.3125 30.6875C45.3125 30.4703 45.3336 30.2389 45.3931 30.0158C45.4058 29.9683 45.4211 29.9177 45.4399 29.865C45.3334 29.6752 45.1678 29.4164 44.9437 29.0931C44.416 28.3316 43.6516 27.3371 42.8395 26.3064C42.3861 25.7309 41.9555 25.1913 41.5435 24.6749C41.1866 24.2276 40.8436 23.7978 40.5118 23.3772C40.1746 22.9498 39.8745 22.5639 39.6412 22.2504C39.434 21.972 39.2261 21.6815 39.1145 21.4647C39.1079 21.4568 39.0838 21.4283 39.0281 21.38C38.9377 21.3018 38.8044 21.206 38.6199 21.0911C38.2963 20.8896 37.9011 20.681 37.4453 20.4405C37.3716 20.4016 37.2964 20.3619 37.2196 20.3213C36.6892 20.0405 36.1 19.7219 35.575 19.369C35.061 19.0235 34.5263 18.5923 34.168 18.0547C33.3671 16.8534 33.0959 15.8125 32.8456 14.8516C32.7532 14.4969 32.6636 14.1531 32.5513 13.8162C32.5301 13.7524 32.4082 13.5434 32.0578 13.197C31.7351 12.8779 31.3053 12.5255 30.8194 12.1676C29.8495 11.4532 28.7374 10.7758 28.0144 10.3742C27.754 10.2295 27.5716 9.97627 27.517 9.68344C27.4623 9.3906 27.5411 9.08866 27.7318 8.85982L28.865 7.5H10.7085ZM47.8448 34.5279C47.8447 34.5278 47.844 34.5272 47.8428 34.5258C47.8443 34.5272 47.8449 34.5279 47.8448 34.5279ZM13.9522 45.2257C13.9524 45.2259 13.9528 45.2299 13.9527 45.2373C13.9519 45.2293 13.952 45.2256 13.9522 45.2257ZM14.2276 35.9521C14.2277 35.9521 14.2273 35.9524 14.2264 35.9529L14.2276 35.9521ZM14.2025 35.9613C14.2003 35.9617 14.1992 35.9617 14.1991 35.9616L14.2025 35.9613Z" fill="#21262A"/>
</svg>
