<svg width="60" height="60" viewBox="0 0 60 60" fill="none" xmlns="http://www.w3.org/2000/svg">
<path d="M12.3395 9C11.8478 8.01666 8.93877 8.48376 5.98943 10.4013C5.89024 10.4658 5.80048 10.5468 5.74008 10.6486C5.60614 10.8742 5.51712 11.1776 5.83951 11.5C6.33951 12 5.83951 12 7.83951 13C9.83951 14 12.3395 12.5 11.8395 12C11.3395 11.5 12.8395 10 12.3395 9Z" fill="#21262A"/>
<path d="M15.4861 13.4303C15.0212 13.8641 14.4305 14.3214 13.7737 14.6483C13.2793 14.8944 12.9472 15.434 13.0958 15.966C13.4752 17.3247 14.0225 18.9998 14.3395 18.9998C14.8395 18.9998 16.8395 18.9998 17.3395 19.4998C17.5808 19.7411 18.4407 19.7519 19.3046 19.6859C20.0282 19.6307 20.3707 18.8215 19.863 18.303C19.5415 17.9746 19.1843 17.6722 18.8395 17.4998C18.3115 17.2358 18.3353 16.6669 18.5083 16.1668C18.6531 15.7483 18.645 15.2664 18.3615 14.9262L17.149 13.4712C16.7358 12.9754 15.958 12.99 15.4861 13.4303Z" fill="#21262A"/>
<path d="M37.3396 24C37.0226 23.683 35.8472 23.9732 34.9583 24.2731C34.5792 24.401 34.1562 24.3167 33.8733 24.0338L33.3396 23.5002C31.2419 21.7521 30.7739 23.1871 30.8006 24.4666C30.8076 24.8009 31.0185 25.0902 31.319 25.2366C32.3967 25.7617 33.9958 26.5002 34.3396 26.5002C34.8396 26.5002 33.8396 28.5002 34.3396 29.0002C34.6496 29.3102 35.3802 29.44 35.926 29.4827C36.1904 29.5034 36.443 29.3928 36.6421 29.2175C36.9807 28.9195 37.4327 28.5772 37.7416 28.5114C37.8061 28.4977 37.873 28.4937 37.9374 28.4799C40.3657 27.9609 41.3396 26.4936 41.3396 26.0002C41.3396 25.5002 37.8396 24.5 37.3396 24Z" fill="#21262A"/>
<path d="M43.2792 31.9193C43.2792 31.514 40.6503 30.78 39.3885 30.5166C39.0177 30.4393 38.6678 30.6364 38.6054 31.01C38.5266 31.4818 38.5237 32.153 38.7792 32.9193C39.2791 34.4193 38.7792 34.9193 38.7792 35.4193C38.7792 35.9193 34.7791 38.4193 35.7791 39.4193C36.5115 40.1516 37.8583 42.3364 38.5923 43.5958C38.7139 43.8044 38.7524 44.0489 38.709 44.2864C38.3877 46.0436 38.0341 49.0468 38.7792 49.4193C39.3313 49.6954 40.3914 50.3048 41.2693 50.8204C41.8003 51.1322 42.4927 50.9037 42.7698 50.3537C43.2983 49.3047 44.1578 47.8211 45.2792 46.4193C46.6333 44.7267 48.7992 44.8247 50.1401 45.1979C50.534 45.3075 50.9685 45.2306 51.2553 44.9393C52.4332 43.743 54.0564 42.0313 54.292 41.5498C54.3393 41.4532 54.226 41.4043 54.1294 41.3571C52.53 40.5762 48.7792 35.4035 48.7792 34.9193C48.7792 34.4193 43.2792 32.4193 43.2792 31.9193Z" fill="#21262A"/>
<path d="M23.3395 20.4998C21.8057 20.193 21.7423 21.0429 22.0216 21.8317C22.1685 22.2466 22.6311 22.426 23.06 22.327C23.7434 22.1693 24.5543 21.9998 24.8395 21.9998C25.3395 21.9998 25.8395 22.4998 27.8395 22.4998C28.8272 22.4998 29.2306 22.1187 29.3555 21.7094C29.4811 21.2977 29.05 21.0005 28.6197 20.9903C27.2416 20.9575 25.0025 20.8323 23.3395 20.4998Z" fill="#21262A"/>
<path d="M27.4187 37.4999V29.0039H25.3667V32.2199H22.0547V29.0039H20.0027V37.4999H22.0547V33.9479H25.3667V37.4999H27.4187Z" fill="#21262A"/>
<path d="M31.2307 37.4999V29.0039H29.1667V37.4999H31.2307Z" fill="#21262A"/>
<path fill-rule="evenodd" clip-rule="evenodd" d="M6.79338 11.0753C6.84821 11.1482 6.89029 11.2125 6.92546 11.2678C6.97833 11.3509 6.98011 11.3522 6.98272 11.3541C6.98313 11.3544 6.98356 11.3547 6.98422 11.3554C7.04087 11.412 7.27209 11.5982 8.28683 12.1056C8.95861 12.4414 9.77519 12.3764 10.4181 12.1291C10.5534 12.0771 10.666 12.0225 10.7559 11.9719C10.7039 11.6489 10.769 11.355 10.8131 11.195C10.8895 10.918 11.0278 10.6107 11.1313 10.3807C11.147 10.3456 11.162 10.3124 11.1758 10.2813C11.302 9.99743 11.3865 9.78583 11.4247 9.60896C11.4314 9.57787 11.4358 9.55168 11.4387 9.52983C11.4217 9.52625 11.4022 9.52264 11.38 9.51915C11.1446 9.48224 10.7601 9.49258 10.2331 9.60353C9.28931 9.80223 8.06578 10.2859 6.79338 11.0753ZM11.5414 9.56208C11.5412 9.56225 11.538 9.56083 11.5328 9.55733C11.5391 9.56017 11.5417 9.56192 11.5414 9.56208ZM11.4411 9.43746C11.4405 9.43588 11.4404 9.43503 11.4404 9.43499C11.4405 9.43496 11.4407 9.43575 11.4411 9.43746ZM11.012 11.7872C11.0122 11.7872 11.0103 11.7896 11.0059 11.7944C11.0096 11.7895 11.0118 11.7871 11.012 11.7872ZM11.6899 7.54332C12.2292 7.62792 12.8991 7.88297 13.234 8.55277C13.5 9.08472 13.4676 9.62407 13.3795 10.0316C13.2928 10.4329 13.1272 10.815 13.0034 11.0936C12.9854 11.1342 12.9683 11.1725 12.9522 11.2085C12.8722 11.3881 12.8161 11.5138 12.7787 11.6135C12.9223 11.9022 12.9338 12.2213 12.8561 12.498C12.7658 12.8193 12.5689 13.0599 12.4139 13.2149C12.0895 13.5393 11.6262 13.8073 11.1361 13.9958C10.154 14.3735 8.72062 14.5585 7.3924 13.8944C6.40714 13.4018 5.88836 13.0879 5.57001 12.7696C5.40182 12.6014 5.30284 12.4442 5.25061 12.3613C5.24611 12.3541 5.24196 12.3476 5.23814 12.3415C5.20414 12.2881 5.18622 12.2608 5.13251 12.2071C4.72011 11.7947 4.55386 11.2818 4.64129 10.7681C4.71256 10.3494 4.94071 10.0358 5.02865 9.91488L5.03088 9.91181C5.10046 9.81613 5.18648 9.73356 5.28491 9.66793C6.87146 8.61023 8.48826 7.92703 9.8211 7.64644C10.4816 7.50739 11.1284 7.45523 11.6899 7.54332ZM12.7303 11.7757C12.7299 11.776 12.7305 11.77 12.7336 11.7564C12.7323 11.7685 12.7308 11.7753 12.7303 11.7757Z" fill="#21262A"/>
<path fill-rule="evenodd" clip-rule="evenodd" d="M16.314 11.5003C16.6196 11.4925 16.9121 11.6249 17.1078 11.8598L19.6078 14.8598C19.8913 15.2 19.9173 15.6862 19.6716 16.0547C19.6198 16.1325 19.557 16.2429 19.5035 16.3659C19.4528 16.4826 19.4207 16.587 19.4063 16.6687C19.9237 16.9559 20.3937 17.3996 20.7488 17.7836C21.1457 18.2128 21.478 18.6549 21.6716 18.9453C21.8599 19.2276 21.8921 19.5862 21.7572 19.8975C21.6223 20.2089 21.3387 20.4306 21.004 20.4864C20.4772 20.5742 19.6594 20.6803 18.9062 20.7116C18.5327 20.7272 18.1417 20.726 17.7972 20.6853C17.6252 20.6649 17.4371 20.6317 17.2562 20.5732C17.0988 20.5223 16.8716 20.4289 16.6708 20.2439C16.6547 20.2367 16.5973 20.2102 16.4743 20.1776C16.2809 20.1264 16.0269 20.0862 15.7401 20.0575C15.1697 20.0005 14.5892 20 14.3396 20C14.033 20 13.8048 19.8736 13.6774 19.7822C13.5474 19.6888 13.4529 19.5829 13.3905 19.5042C13.2656 19.3467 13.1648 19.1638 13.0862 19.0042C12.9239 18.6746 12.7637 18.251 12.6178 17.8219C12.3225 16.9533 12.0399 15.9245 11.8694 15.2425C11.7355 14.7067 12.0613 14.1638 12.5971 14.0299C13.2048 13.8779 13.8248 13.5127 14.3761 13.0702C14.9228 12.6313 15.3394 12.1669 15.5396 11.9C15.723 11.6554 16.0083 11.5082 16.314 11.5003ZM16.3101 14.0267C16.1051 14.2258 15.8763 14.4306 15.6281 14.6298C15.1806 14.9891 14.6421 15.353 14.0402 15.6295C14.1803 16.1351 14.3451 16.6891 14.5114 17.1781C14.6257 17.5144 14.733 17.7969 14.826 18.0044C15.1366 18.0109 15.5361 18.0272 15.9391 18.0675C16.2773 18.1013 16.6483 18.1548 16.9861 18.2442C17.2478 18.3135 17.6193 18.4357 17.9242 18.6828C17.9502 18.6878 17.9857 18.6936 18.032 18.6991C18.225 18.7219 18.4964 18.727 18.823 18.7134C18.8292 18.7131 18.8354 18.7128 18.8416 18.7126C18.6745 18.5679 18.5212 18.4588 18.3924 18.3944C17.9726 18.1845 17.6749 17.8508 17.5205 17.4443C17.3762 17.0648 17.3807 16.6876 17.4257 16.3886C17.4662 16.1199 17.5475 15.8606 17.6442 15.6276L16.3101 14.0267ZM17.8715 18.6702C17.864 18.6678 17.8652 18.6676 17.8731 18.6707C17.8725 18.6705 17.872 18.6703 17.8715 18.6702Z" fill="#21262A"/>
<path fill-rule="evenodd" clip-rule="evenodd" d="M31.7996 24.3583C32.2335 24.5693 32.7469 24.8123 33.2222 25.0245C33.3632 25.0874 33.4988 25.1468 33.6265 25.2012L32.6657 24.2404C32.2788 23.9222 32.021 23.7835 31.8742 23.7261C31.8506 23.8039 31.8301 23.9055 31.8165 24.0301C31.8052 24.1346 31.7998 24.2455 31.7996 24.3583ZM34.402 25.4981C34.4087 25.5 34.4145 25.5015 34.4195 25.5029C34.6055 25.5157 34.8137 25.5748 35.0055 25.7146C35.2189 25.8701 35.3346 26.0692 35.3955 26.227C35.5021 26.5031 35.4871 26.7734 35.477 26.9002C35.4568 27.1521 35.3872 27.4615 35.3348 27.6947C35.3281 27.7243 35.3217 27.7527 35.3157 27.7795C35.2645 28.0102 35.2263 28.1975 35.2076 28.3483C35.2869 28.3732 35.3825 28.3971 35.4921 28.4183C35.6507 28.449 35.8147 28.4696 35.9637 28.4824C36.1167 28.347 36.2915 28.2023 36.4722 28.0695C36.6383 27.9473 36.8306 27.8194 37.0305 27.7179C37.1823 27.6408 37.4238 27.5337 37.7068 27.5065C38.7547 27.2863 39.4467 26.8725 39.8627 26.5027C39.9383 26.4355 40.0042 26.3702 40.0612 26.3085C39.8066 26.1925 39.4969 26.065 39.1556 25.9285C39.0449 25.8842 38.9307 25.8389 38.8153 25.7932C38.4597 25.6521 38.0926 25.5065 37.7794 25.3713C37.5701 25.2811 37.3643 25.1868 37.1863 25.0923C37.0822 25.0371 36.9459 24.9607 36.8142 24.8627C36.6806 24.8655 36.4793 24.8929 36.2204 24.9509C35.6927 25.069 35.0958 25.2745 34.711 25.4285C34.6106 25.4686 34.5063 25.4916 34.402 25.4981ZM36.9167 24.8679C36.9161 24.8685 36.9071 24.8678 36.8919 24.8642C36.9097 24.8656 36.9174 24.8674 36.9167 24.8679ZM40.5693 26.5766C40.572 26.5788 40.5715 26.5786 40.5685 26.576L40.5693 26.5766ZM35.1984 28.5685C35.1979 28.569 35.1964 28.5621 35.1956 28.5458C35.1985 28.5598 35.1989 28.5679 35.1984 28.5685ZM34.4439 25.5087C34.444 25.5088 34.4424 25.5085 34.4389 25.5077C34.4422 25.5083 34.4439 25.5087 34.4439 25.5087ZM32.0702 21.7157C32.6959 21.8153 33.3313 22.1916 33.9798 22.7319C34.003 22.7512 34.0253 22.7716 34.0466 22.793L34.5943 23.3406C34.9611 23.2154 35.3797 23.0895 35.7837 22.9991C36.1116 22.9258 36.474 22.8655 36.8104 22.8625C37.0672 22.8603 37.6101 22.8817 38.0174 23.2645C38.0277 23.2711 38.0597 23.2917 38.1237 23.3256C38.2328 23.3835 38.3825 23.4533 38.5716 23.5349C38.8551 23.6572 39.1812 23.7866 39.5289 23.9245C39.6498 23.9725 39.7733 24.0215 39.8985 24.0716C40.3634 24.2576 40.8576 24.4609 41.2404 24.6567C41.4273 24.7524 41.634 24.8692 41.8071 25.0056C41.8933 25.0735 42.0061 25.1732 42.1048 25.3071C42.1998 25.4358 42.3396 25.6751 42.3396 26.0001C42.3396 26.3945 42.1689 26.7706 41.999 27.0503C41.8092 27.363 41.5392 27.6884 41.1914 27.9975C40.4908 28.6203 39.4523 29.1974 38.0357 29.4807C38.0075 29.4863 37.9791 29.4907 37.9506 29.4939C37.9462 29.496 37.9414 29.4984 37.9361 29.5011C37.8693 29.535 37.7742 29.5946 37.657 29.6808C37.4235 29.8524 37.1868 30.0671 37.0467 30.2072C36.8591 30.3948 36.6048 30.5001 36.3396 30.5001C36.0382 30.5001 35.5733 30.4712 35.112 30.3819C34.8805 30.3371 34.6267 30.2727 34.3851 30.1778C34.1539 30.0871 33.8688 29.9436 33.6325 29.7072C33.1724 29.2471 33.1839 28.6157 33.2008 28.3381C33.2219 27.9892 33.303 27.6173 33.3634 27.3457C33.3666 27.3313 33.3697 27.3173 33.3727 27.3035C33.376 27.2889 33.3792 27.2746 33.3823 27.2606C33.0931 27.1502 32.7527 27.0051 32.4069 26.8508C31.6896 26.5305 30.9008 26.1488 30.3924 25.8945C30.0933 25.745 29.8888 25.4559 29.8473 25.1241C29.7984 24.733 29.7789 24.2676 29.8282 23.8139C29.8749 23.3848 29.9959 22.839 30.3288 22.3978C30.5059 22.1631 30.7506 21.9489 31.0737 21.8177C31.3975 21.6863 31.7388 21.6629 32.0702 21.7157ZM33.4841 26.72C33.4844 26.7197 33.4845 26.7248 33.4837 26.7361C33.4835 26.7259 33.4839 26.7203 33.4841 26.72ZM37.9829 29.4802C37.9829 29.4803 37.9801 29.4815 37.9747 29.4831C37.9803 29.4808 37.983 29.48 37.9829 29.4802Z" fill="#21262A"/>
<path fill-rule="evenodd" clip-rule="evenodd" d="M37.9452 30.0528C38.1146 29.714 38.4609 29.5 38.8396 29.5C39.0041 29.5 39.2051 29.533 39.3538 29.5598C39.5309 29.5917 39.744 29.6362 39.9761 29.6891C40.4409 29.7951 41.0078 29.9409 41.5593 30.1031C42.1045 30.2635 42.6641 30.4484 43.1007 30.6355C43.3132 30.7266 43.5404 30.8365 43.7299 30.9656C43.823 31.0291 43.9474 31.124 44.0582 31.2551C44.0998 31.3043 44.1541 31.3759 44.2039 31.4682C44.3047 31.5318 44.4545 31.6161 44.657 31.7204C45.1459 31.9723 45.808 32.2735 46.5034 32.5896L46.5214 32.5978C47.1955 32.9042 47.9007 33.2247 48.4382 33.5017C48.7057 33.6394 48.9662 33.7838 49.1703 33.9243C49.2691 33.9924 49.3924 34.0848 49.5015 34.1992L49.5016 34.1993C49.5558 34.2561 49.7523 34.4622 49.8181 34.7851C49.8324 34.814 49.8542 34.8556 49.8856 34.9113C49.98 35.0788 50.1263 35.3127 50.3184 35.599C50.7005 36.1683 51.2315 36.8971 51.8112 37.6293C52.3922 38.3633 53.008 39.0828 53.5592 39.6413C53.8353 39.9211 54.0826 40.1476 54.2914 40.3121C54.3953 40.3939 54.4815 40.4539 54.55 40.4955C54.5837 40.516 54.6101 40.5302 54.6294 40.5396C54.63 40.5399 54.6307 40.5402 54.6313 40.5405C54.7362 40.5703 54.8519 40.6208 54.9656 40.7055C55.229 40.9015 55.3399 41.1729 55.3708 41.3883C55.4169 41.7099 55.2982 41.9678 55.2705 42.0281C55.2697 42.0298 55.269 42.0314 55.2683 42.0328C55.1841 42.2172 55.0514 42.4024 54.9461 42.5414C54.7121 42.8502 54.3615 43.253 53.9792 43.673C53.2061 44.5227 52.2189 45.535 51.5467 46.2071C51.2576 46.4962 50.8216 46.5802 50.4457 46.4191C49.9814 46.2202 49.162 46.0091 48.3128 46.0607C47.4847 46.1109 46.699 46.4016 46.1205 47.1247C44.5912 49.0363 43.5709 51.1144 43.2681 51.8714C43.1593 52.1435 42.9366 52.3541 42.6589 52.4477C42.3812 52.5412 42.0764 52.5083 41.8251 52.3575C40.9818 51.8515 39.1509 50.7737 38.3924 50.3944C38.0145 50.2054 37.805 49.8864 37.69 49.6398C37.5723 49.3876 37.507 49.1132 37.4674 48.8616C37.388 48.3563 37.3855 47.7573 37.416 47.1728C37.4694 46.1516 37.6328 45.022 37.7875 44.1777C37.4609 43.6175 37.01 42.8693 36.5491 42.1543C35.9738 41.2616 35.4449 40.5195 35.1325 40.2071C34.7841 39.8587 34.6488 39.4143 34.6848 38.979C34.7168 38.5927 34.878 38.2555 35.0337 38.0013C35.3452 37.4924 35.8407 36.9915 36.2842 36.5797C36.5715 36.3129 36.8942 36.033 37.172 35.7922C37.3197 35.6641 37.4547 35.547 37.5649 35.4488C37.6988 35.3295 37.7993 35.2357 37.8704 35.164C37.8931 35.0336 37.9237 34.9235 37.9449 34.8472L37.9464 34.8417C37.9519 34.8219 37.9572 34.803 37.9623 34.785C37.9983 34.656 38.0228 34.5685 38.0407 34.4606C38.0743 34.2594 38.0937 33.9244 37.891 33.3162C37.4088 31.8698 37.6575 30.6282 37.9452 30.0528ZM49.8012 34.7494C49.7874 34.7179 49.7919 34.7212 49.8017 34.7505C49.8015 34.7501 49.8014 34.7498 49.8012 34.7494ZM39.6188 31.6592C39.6171 31.9465 39.659 32.2957 39.7883 32.6838C40.0856 33.5756 40.105 34.2406 40.0135 34.7894C39.9765 35.0117 39.9217 35.2059 39.8865 35.3307C39.8818 35.3474 39.8774 35.3629 39.8735 35.377C39.8478 35.4694 39.8411 35.5052 39.8396 35.512C39.8361 35.8301 39.6942 36.0652 39.6406 36.1502C39.5672 36.2664 39.4814 36.3682 39.4097 36.4471C39.2644 36.6069 39.0783 36.779 38.8956 36.9418C38.743 37.0779 38.5886 37.2116 38.4318 37.3472C38.1763 37.5685 37.9147 37.795 37.6451 38.0453C37.2287 38.432 36.9189 38.7647 36.7565 39.0183C37.2088 39.5344 37.7491 40.3244 38.2302 41.0707C38.8083 41.9677 39.3676 42.9083 39.7079 43.5039C39.8277 43.7135 39.8676 43.9594 39.8202 44.1961C39.6593 45.0009 39.4683 46.2249 39.4133 47.2772C39.3855 47.8094 39.3955 48.2479 39.4431 48.5509C39.453 48.614 39.4634 48.6633 39.4728 48.7009C40.0931 49.025 41.083 49.5959 41.8933 50.0723C42.447 48.9606 43.3591 47.3749 44.5588 45.8753C45.5803 44.5984 46.9612 44.1391 48.1915 44.0643C49.0733 44.0108 49.9134 44.15 50.576 44.346C51.1819 43.7312 51.91 42.9753 52.5 42.327C52.671 42.1391 52.8262 41.9648 52.9611 41.8088C52.6924 41.5891 52.4134 41.3276 52.1357 41.0462C51.515 40.4172 50.8495 39.6367 50.2431 38.8707C49.6352 38.1029 49.0726 37.3317 48.6577 36.7135C48.4514 36.406 48.2735 36.1243 48.1433 35.8934C48.0791 35.7795 48.0173 35.6618 47.9686 35.5504C47.9679 35.5486 47.967 35.5467 47.9661 35.5447C47.9631 35.5377 47.9593 35.5291 47.955 35.519C47.8548 35.457 47.7115 35.3771 47.5223 35.2796C47.0334 35.0277 46.3713 34.7265 45.6758 34.4104L45.6579 34.4022C44.9838 34.0958 44.2786 33.7753 43.7411 33.4983C43.4736 33.3606 43.2131 33.2162 43.009 33.0757C42.9101 33.0076 42.7869 32.9152 42.6778 32.8008L42.6777 32.8007C42.6462 32.7676 42.5664 32.6841 42.4923 32.5563C42.4469 32.5336 42.3877 32.5059 42.3129 32.4738C41.984 32.3329 41.5123 32.174 40.995 32.0219C40.5185 31.8817 40.0281 31.7545 39.6188 31.6592ZM42.6079 32.6214C42.6078 32.6214 42.6066 32.6205 42.6043 32.6188C42.6068 32.6205 42.6079 32.6214 42.6079 32.6214ZM39.5041 48.7976C39.5041 48.7977 39.5036 48.7968 39.5028 48.7949C39.5037 48.7966 39.5041 48.7976 39.5041 48.7976Z" fill="#21262A"/>
<path fill-rule="evenodd" clip-rule="evenodd" d="M21.8534 19.6169C22.3615 19.3845 22.9543 19.4028 23.5359 19.5192C25.4371 19.8994 28.1911 19.9998 29.3398 19.9998C29.7702 19.9998 30.1523 20.2752 30.2884 20.6835C30.4304 21.1095 30.5057 21.8202 30.0996 22.4683C29.6558 23.1765 28.8404 23.4997 27.8398 23.4997C26.7475 23.4997 26.03 23.362 25.5025 23.2113C25.3363 23.1638 25.1618 23.1058 25.0435 23.0664C24.9989 23.0516 24.9622 23.0394 24.9371 23.0315C24.8758 23.0121 24.8426 23.0039 24.8284 23.0007C24.8162 23.0016 24.7952 23.0035 24.7638 23.0073C24.7059 23.0142 24.6311 23.0252 24.5402 23.0406C24.3584 23.0712 24.136 23.1149 23.897 23.1655C23.42 23.2666 22.9072 23.3887 22.5823 23.4699C22.1553 23.5766 21.7087 23.3917 21.4823 23.0142C21.3275 22.7563 21.1685 22.4357 21.0551 22.0957C20.9473 21.7722 20.85 21.3406 20.9119 20.8984C20.9819 20.3993 21.2637 19.8868 21.8534 19.6169Z" fill="#21262A"/>
</svg>
