<svg width="24" height="24" viewBox="0 0 24 24" fill="none" xmlns="http://www.w3.org/2000/svg">
    <path d="M4.67566 3.01733C4.8914 3.05117 5.15936 3.15319 5.29332 3.42111C5.39971 3.63389 5.38677 3.84963 5.35152 4.01265C5.31681 4.17316 5.2506 4.32602 5.20108 4.43745L5.1806 4.48342C5.1486 4.55521 5.12616 4.60553 5.11118 4.6454C5.16862 4.76086 5.17322 4.88851 5.14213 4.99918C5.10602 5.12773 5.02726 5.22397 4.96527 5.28596C4.8355 5.41573 4.65017 5.52294 4.45414 5.59833C4.06132 5.74942 3.48795 5.82341 2.95667 5.55776C2.56256 5.36071 2.35505 5.23518 2.22771 5.10784C2.16043 5.04056 2.12084 4.97769 2.09995 4.94452L2.09496 4.93662C2.08136 4.91525 2.0742 4.90432 2.05271 4.88284C1.88775 4.71788 1.82125 4.51272 1.85622 4.30725C1.88473 4.13976 1.97599 4.01431 2.01117 3.96595L2.01206 3.96473C2.03989 3.92645 2.0743 3.89342 2.11367 3.86717C2.74829 3.44409 3.39501 3.17081 3.92815 3.05857C4.19234 3.00295 4.45105 2.98209 4.67566 3.01733Z" fill="#21262A"/>
    <path d="M6.5252 4.60014C6.64746 4.597 6.76444 4.64998 6.84273 4.74393L7.84273 5.94393C7.95614 6.08002 7.96653 6.27449 7.86827 6.42189C7.84753 6.453 7.82241 6.49719 7.80102 6.54637C7.78073 6.59305 7.7679 6.63481 7.76215 6.66747C7.96908 6.78238 8.15708 6.95983 8.29913 7.11343C8.4579 7.28514 8.59083 7.46197 8.66827 7.57813C8.72247 7.65943 8.74433 7.75653 8.73219 7.85101L8.74128 7.84678C8.94452 7.7538 9.18161 7.76114 9.41425 7.80766C10.1747 7.95976 11.2764 7.9999 11.7358 7.9999C11.908 7.9999 12.0608 8.11007 12.1153 8.27341C12.1721 8.4438 12.2022 8.72809 12.0397 8.9873C11.8622 9.27059 11.5361 9.3999 11.1358 9.3999C10.6989 9.3999 10.4119 9.34479 10.2009 9.28451C10.1344 9.26551 10.0645 9.24225 10.0172 9.22652C9.99947 9.22064 9.9847 9.21573 9.97473 9.21258C9.95023 9.20485 9.93695 9.20157 9.93124 9.20028C9.92638 9.20065 9.91799 9.20141 9.90543 9.20292C9.88225 9.20569 9.85234 9.2101 9.81598 9.21622C9.74327 9.22846 9.6543 9.24596 9.55871 9.26621C9.36792 9.30663 9.16277 9.35547 9.03282 9.38795C8.86202 9.43065 8.68339 9.35666 8.59281 9.20569C8.5309 9.10252 8.4673 8.97427 8.42196 8.83826C8.37883 8.70886 8.33988 8.53625 8.36468 8.35936C8.37249 8.30367 8.38689 8.24755 8.40872 8.19324L8.40121 8.19456C8.1905 8.22968 7.86335 8.27211 7.5621 8.28466C7.41271 8.29088 7.25628 8.2904 7.11849 8.27412C7.04968 8.26598 6.97445 8.25268 6.90207 8.22928C6.83915 8.20893 6.7475 8.17122 6.6672 8.09724C6.65982 8.09394 6.63679 8.08362 6.58934 8.07106C6.51198 8.05059 6.41038 8.03449 6.29564 8.02302C6.0675 8.00021 5.8353 8.00001 5.73545 8.00001C5.61279 8.00001 5.52153 7.94943 5.47059 7.91287C5.41857 7.87554 5.38076 7.83317 5.3558 7.80169C5.30583 7.73869 5.26552 7.66555 5.23408 7.60168C5.16917 7.46984 5.10509 7.30039 5.04674 7.12877C4.9286 6.78131 4.81559 6.36981 4.74739 6.09702C4.69381 5.8827 4.82411 5.66553 5.03843 5.61195C5.28151 5.55118 5.52955 5.40508 5.75005 5.22807C5.96872 5.05254 6.13538 4.86676 6.21545 4.76001C6.28883 4.66216 6.40294 4.60327 6.5252 4.60014Z" fill="#21262A"/>
    <path d="M12.8277 8.68627C13.078 8.72611 13.3321 8.87662 13.5915 9.09276C13.6795 9.16606 13.7564 9.25535 13.8373 9.33624C13.9841 9.28618 14.1515 9.23582 14.3131 9.19965C14.4442 9.17031 14.5892 9.14621 14.7238 9.14502C14.8265 9.1441 15.044 9.15287 15.2069 9.306C15.219 9.31373 15.3092 9.3626 15.4283 9.41398C15.5416 9.46289 15.6729 9.51498 15.812 9.57014C15.8601 9.58922 15.9092 9.60872 15.959 9.62864C16.145 9.70303 16.3426 9.78435 16.4958 9.86269C16.5705 9.90096 16.6532 9.9477 16.7224 10.0023C16.7569 10.0294 16.802 10.0693 16.8415 10.1228C16.8795 10.1743 16.9354 10.27 16.9354 10.4C16.9354 10.5578 16.8672 10.7082 16.7992 10.8201C16.7233 10.9452 16.6153 11.0754 16.4762 11.199C16.1959 11.4481 15.7805 11.679 15.2139 11.7923C15.157 11.8037 15.1089 11.8381 15.0624 11.8723C14.969 11.941 14.8743 12.0268 14.8183 12.0829C14.7433 12.1579 14.6415 12.2 14.5354 12.2C14.4149 12.2 14.2289 12.1885 14.0444 12.1528C13.9518 12.1348 13.8503 12.1091 13.7537 12.0711C13.6612 12.0348 13.5471 11.9774 13.4526 11.8829C13.2686 11.6989 13.2732 11.4463 13.2799 11.3352C13.2888 11.1894 13.3209 11.0464 13.3525 10.9042C13.2368 10.8601 13.1007 10.802 12.9624 10.7403C12.6755 10.6122 12.3599 10.4595 12.1566 10.3578C12.0369 10.298 11.9551 10.1824 11.9385 10.0497C11.919 9.89322 11.9112 9.70706 11.9309 9.52557C11.9496 9.35391 11.998 9.13561 12.1311 8.95912C12.202 8.86522 12.2998 8.77957 12.4291 8.72709C12.5586 8.67451 12.6951 8.66517 12.8277 8.68627Z" fill="#21262A"/>
    <path fill-rule="evenodd" clip-rule="evenodd" d="M15.536 11.8C15.3844 11.8 15.2459 11.8856 15.1782 12.0211C15.0631 12.2513 14.9636 12.7479 15.1565 13.3265C15.2376 13.5698 15.2298 13.7038 15.2164 13.7842C15.2077 13.8367 15.1923 13.8877 15.1781 13.9389C15.1696 13.9694 15.1573 14.0134 15.1482 14.0656C15.1198 14.0943 15.0796 14.1318 15.0261 14.1795C14.982 14.2188 14.928 14.2656 14.8689 14.3169C14.7578 14.4132 14.6287 14.5252 14.5138 14.6319C14.3364 14.7966 14.1382 14.997 14.0136 15.2005C13.9513 15.3022 13.8868 15.4371 13.874 15.5916C13.8596 15.7657 13.9137 15.9435 14.0531 16.0828C14.4919 16.5216 14.8046 17.1385 15.1151 17.6711C15.0532 18.0088 14.9878 18.4606 14.9665 18.8691C14.9543 19.1029 14.9553 19.3425 14.9871 19.5446C15.0029 19.6453 15.029 19.755 15.0761 19.8559C15.1221 19.9546 15.2059 20.0822 15.3571 20.1578C15.6605 20.3095 16.3928 20.7406 16.7302 20.943C16.8307 21.0033 16.9526 21.0165 17.0637 20.9791C17.1747 20.9417 17.2638 20.8574 17.3073 20.7486C17.4285 20.4457 17.8366 19.6145 18.4483 18.8499C18.6797 18.5606 18.994 18.4444 19.3252 18.4243C19.6649 18.4036 19.9927 18.4881 20.1784 18.5677C20.3287 18.6321 20.5031 18.5985 20.6188 18.4828C20.8876 18.214 21.2825 17.8091 21.5918 17.4692C21.7447 17.3012 21.8849 17.1401 21.9785 17.0166C22.0206 16.961 22.0737 16.8869 22.1074 16.8131L22.1083 16.8112C22.1194 16.7871 22.1669 16.684 22.1484 16.5553C22.136 16.4692 22.0917 16.3606 21.9864 16.2822C21.9346 16.2437 21.8739 16.2309 21.8201 16.1982C21.7927 16.1816 21.7582 16.1576 21.7167 16.1248C21.6331 16.059 21.5342 15.9684 21.4238 15.8565C20.8727 15.2981 20.1425 14.2984 19.9543 13.9645C19.8997 13.8677 19.8811 13.764 19.8007 13.6797C19.7571 13.634 19.7078 13.5969 19.6682 13.5697C19.5866 13.5135 19.4824 13.4558 19.3754 13.4007C19.1219 13.2701 18.861 13.1538 18.6015 13.0359C18.3233 12.9094 18.0585 12.7889 17.8629 12.6882C17.7819 12.6465 17.722 12.6127 17.6816 12.5873C17.6617 12.5504 17.64 12.5217 17.6234 12.502C17.579 12.4496 17.5293 12.4116 17.4921 12.3862C17.4163 12.3346 17.3254 12.2906 17.2404 12.2542C17.0657 12.1794 16.8419 12.1054 16.6238 12.0413C16.4032 11.9764 16.1765 11.918 15.9905 11.8756C15.8977 11.8545 15.8124 11.8367 15.7416 11.8239C15.6821 11.8132 15.6017 11.8 15.536 11.8ZM19.9206 13.8998C19.9151 13.8872 19.9167 13.8881 19.9206 13.8998V13.8998Z" fill="#21262A"/>
</svg>
