<svg width="60" height="60" viewBox="0 0 60 60" fill="none" xmlns="http://www.w3.org/2000/svg">
<path d="M19.1439 7H17.3386C16.8013 7 16.36 7.42263 16.34 7.95958C16.1657 12.628 15.8763 21.2733 15.8763 25C15.8763 27.745 16.8182 29.3911 17.7324 30.2616C18.2234 30.7291 18.4673 31.5593 18.0797 32.1156C16.2299 34.7708 13.8356 38.6531 14.8763 39C16.0252 39.3829 15.7381 41.324 15.419 42.3663C15.3917 42.4557 15.3744 42.5474 15.3705 42.6409L14.9185 53.4877C14.8953 54.0446 15.3319 54.513 15.8891 54.5289L32.3763 55L44.3508 54.5394C44.9128 54.5178 45.3465 54.0371 45.3103 53.4758L44.3847 39.1291C44.3791 39.0434 44.3629 38.9591 44.3348 38.8779C43.983 37.8618 43.2605 36.2316 42.8763 37C42.5153 37.7221 38.5963 38.227 36.1206 38.441C35.6792 38.4792 35.2715 38.2162 35.1048 37.8057C33.9745 35.0223 31.7143 30.6324 29.8763 31C27.3763 31.5 27.3763 29 28.3763 28C29.3763 27 28.3763 22.5 23.3763 19.5C19.8306 17.3726 19.6899 11.6831 20.1679 8.21259C20.2546 7.58336 19.7791 7 19.1439 7Z" fill="#21262A"/>
<path d="M26.5071 48.9999V40.5039H24.4431V48.9999H26.5071Z" fill="#21262A"/>
<path d="M36.1954 44.7279C36.1954 41.5119 33.7474 40.5039 31.3354 40.5039H28.2634V48.9999H31.4314C33.7714 48.9999 36.1954 47.7159 36.1954 44.7279ZM34.0594 44.7279C34.0594 46.6239 32.7034 47.2239 31.2394 47.2239H30.2674V42.2559H31.2874C32.7034 42.2559 34.0594 42.8199 34.0594 44.7279Z" fill="#21262A"/>
<path fill-rule="evenodd" clip-rule="evenodd" d="M15.377 5.96157C15.3976 5.42463 15.8389 5 16.3763 5H20.3763C20.6776 5 20.9629 5.13591 21.1528 5.36992C21.3427 5.60394 21.4169 5.91111 21.3548 6.20601C21.0394 7.70425 20.8027 10.111 21.117 12.4016C21.4357 14.724 22.2814 16.6769 23.8908 17.6425C26.5552 19.2412 28.1963 21.2656 29.0342 23.0809C29.451 23.984 29.6796 24.859 29.7187 25.6207C29.755 26.3295 29.6342 27.1563 29.0834 27.7071C28.9739 27.8166 28.8639 28 28.801 28.2275C28.738 28.4554 28.7405 28.6601 28.7785 28.7994C28.812 28.9222 28.8624 28.9712 28.9182 29.001C28.989 29.0389 29.2042 29.1146 29.6801 29.0194C30.6554 28.8244 31.5048 29.3445 32.1061 29.8834C32.7382 30.4497 33.3274 31.2394 33.848 32.068C34.7284 33.4692 35.5062 35.1345 36.0373 36.4445C37.1221 36.3506 38.4857 36.2002 39.6877 36.001C40.4383 35.8766 41.0941 35.7382 41.5712 35.5922C41.8103 35.519 41.971 35.4539 42.0658 35.4041C42.1803 35.224 42.3637 35.0166 42.6516 34.8945C43.0696 34.7174 43.4587 34.8202 43.707 34.9541C43.9335 35.0762 44.0984 35.2477 44.2055 35.3756C44.3211 35.5137 44.4227 35.6662 44.5101 35.8127C44.8487 36.3805 45.1506 37.1609 45.3249 37.6838C45.3521 37.7653 45.3687 37.8499 45.3742 37.9356L46.3742 53.4356C46.3915 53.7048 46.2994 53.9695 46.1188 54.1698C45.9381 54.3701 45.6842 54.4889 45.4147 54.4993L32.4147 54.9993C32.3924 55.0001 32.37 55.0002 32.3477 54.9996L14.8477 54.4996C14.5803 54.492 14.3272 54.3775 14.1448 54.1819C13.9624 53.9862 13.866 53.7256 13.8771 53.4584L14.3771 41.4584C14.381 41.3649 14.398 41.2725 14.4276 41.1838C14.5721 40.7502 14.7146 40.0953 14.7015 39.5488C14.695 39.2759 14.6509 39.1012 14.6062 39.0082C14.5774 38.9483 14.565 38.9486 14.561 38.9487C14.5606 38.9488 14.5603 38.9488 14.56 38.9487C14.286 38.8573 14.0459 38.683 13.8767 38.4345C13.7173 38.2004 13.6553 37.9518 13.6339 37.7485C13.5935 37.364 13.6808 36.9675 13.781 36.6401C13.9893 35.9595 14.3992 35.1294 14.8671 34.2973C15.6105 32.9754 16.5858 31.5001 17.42 30.3141C16.1564 29.3265 14.8763 27.3155 14.8763 24C14.8763 19.9768 15.2106 10.2891 15.377 5.96157ZM42.1268 35.3673C42.1273 35.3674 42.1234 35.3705 42.1141 35.3765C42.1217 35.3703 42.1263 35.3673 42.1268 35.3673ZM17.3391 7C17.1647 11.6708 16.8763 20.2953 16.8763 24C16.8763 27.6486 18.6711 28.8775 19.1925 29.0513C19.4956 29.1524 19.7322 29.3922 19.8292 29.6967C19.9261 30.0012 19.8716 30.3337 19.6827 30.5914C18.7781 31.8249 17.5038 33.689 16.6104 35.2777C16.1575 36.083 15.8361 36.7593 15.6934 37.2255C15.6873 37.2456 15.6817 37.2646 15.6766 37.2826C16.5081 37.8239 16.6852 38.8386 16.701 39.5012C16.7197 40.2875 16.545 41.1091 16.3698 41.6765L15.9176 52.5293L32.3713 52.9995L44.3123 52.5402L43.3869 38.1966C43.274 37.8717 43.1271 37.4992 42.9763 37.1849C42.7301 37.3119 42.445 37.4164 42.1564 37.5047C41.5543 37.6889 40.7976 37.8443 40.0148 37.974C38.441 38.2349 36.6332 38.4128 35.4475 38.4975C35.0055 38.529 34.5955 38.266 34.4399 37.8511C33.9542 36.556 33.1068 34.6477 32.1545 33.132C31.6751 32.369 31.2019 31.7586 30.7714 31.3729C30.3102 30.9596 30.0972 30.9756 30.0724 30.9806C29.2983 31.1354 28.576 31.0861 27.9749 30.7646C27.3588 30.4351 27.003 29.8903 26.849 29.3256C26.5641 28.2812 26.9237 27.0457 27.6598 26.3022C27.6584 26.3036 27.6576 26.3042 27.6573 26.3041C27.6535 26.3016 27.7436 26.1566 27.7213 25.7231C27.6979 25.266 27.5515 24.641 27.2183 23.9191C26.5562 22.4844 25.1973 20.7588 22.8618 19.3575C20.4711 17.9231 19.4835 15.2093 19.1355 12.6734C18.8592 10.6599 18.9615 8.59994 19.1879 7H17.3391ZM42.6581 36.6441C42.6581 36.644 42.6597 36.6455 42.6627 36.6489C42.6596 36.6459 42.6581 36.6442 42.6581 36.6441Z" fill="#21262A"/>
</svg>
