<svg width="24" height="24" viewBox="0 0 24 24" fill="none" xmlns="http://www.w3.org/2000/svg">
    <path fill-rule="evenodd" clip-rule="evenodd" d="M6.5507 2C6.33577 2 6.15925 2.16985 6.15099 2.38463C6.08442 4.11563 5.9507 7.99071 5.9507 9.6C5.9507 10.9262 6.46277 11.7306 6.96821 12.1256C6.63453 12.6 6.2444 13.1902 5.94704 13.7189C5.75987 14.0518 5.59593 14.3838 5.51259 14.6561C5.47251 14.787 5.43758 14.9456 5.45375 15.0994C5.4623 15.1807 5.4871 15.2801 5.55088 15.3738C5.61855 15.4732 5.7146 15.5429 5.82421 15.5795C5.82421 15.5795 5.83117 15.5793 5.84268 15.6033C5.86056 15.6405 5.87821 15.7104 5.88081 15.8195C5.88602 16.0381 5.82904 16.3001 5.77123 16.4735C5.7594 16.509 5.7526 16.546 5.75105 16.5833L5.55105 21.3833C5.54659 21.4902 5.58515 21.5945 5.6581 21.6727C5.73106 21.751 5.83232 21.7968 5.93927 21.7998L12.9393 21.9998C12.943 21.9999 12.9468 22 12.9505 22C12.9556 22 12.961 21.9999 12.9661 21.9997L18.1661 21.7997C18.2739 21.7956 18.3754 21.748 18.4477 21.6679C18.52 21.5878 18.5568 21.4819 18.5499 21.3742L18.1499 15.1742C18.1477 15.14 18.141 15.1061 18.1302 15.0735C18.0605 14.8644 17.9397 14.5522 17.8042 14.3251C17.7693 14.2665 17.7286 14.2055 17.6824 14.1503C17.6395 14.0991 17.5736 14.0305 17.483 13.9817C17.3837 13.9281 17.228 13.8869 17.0608 13.9578C16.9457 14.0066 16.8723 14.0896 16.8265 14.1617C16.7886 14.1816 16.7243 14.2076 16.6287 14.2369C16.4378 14.2953 16.1755 14.3506 15.8753 14.4004C15.3945 14.4801 14.849 14.5402 14.4151 14.5778C14.2027 14.0538 13.8915 13.3877 13.5394 12.8272C13.3311 12.4957 13.0955 12.1799 12.8426 11.9534C12.6021 11.7378 12.2623 11.5298 11.8723 11.6078C11.6819 11.6458 11.5958 11.6156 11.5675 11.6004C11.5452 11.5885 11.525 11.5689 11.5116 11.5198C11.4964 11.4641 11.4954 11.3821 11.5206 11.291C11.5458 11.2 11.5897 11.1266 11.6335 11.0828C11.8539 10.8625 11.9022 10.5318 11.8877 10.2483C11.872 9.94359 11.7806 9.59359 11.6139 9.23238C11.2787 8.50622 10.6223 7.69647 9.5565 7.057C8.91277 6.67076 8.57446 5.88961 8.44698 4.96062C8.32126 4.04438 8.41595 3.0817 8.54212 2.4824C8.56695 2.36445 8.53726 2.24158 8.46131 2.14797C8.38536 2.05436 8.27124 2 8.1507 2H6.5507Z" fill="#21262A"/>
</svg>
