<svg width="24" height="24" viewBox="0 0 24 24" fill="none" xmlns="http://www.w3.org/2000/svg">
    <path d="M16.7351 2.1212C16.6904 1.9275 16.5103 1.79601 16.3122 1.81252L13.9367 2.01048L8.96136 1.81146C8.8939 1.80876 8.82687 1.82318 8.76649 1.85337C8.62255 1.92533 8.39488 2.11676 8.41622 2.44231C8.43569 2.73917 8.6586 2.96737 8.92349 3.14396C8.95307 3.16368 8.98515 3.17937 9.01888 3.19061C9.42181 3.32493 9.6115 3.6525 9.67439 4.09271C9.73796 4.53774 9.65299 5.01833 9.5687 5.27611C9.56846 5.27595 9.56751 5.27686 9.56553 5.27875C9.55382 5.28996 9.50607 5.33565 9.35655 5.39973C9.16861 5.48028 8.92318 5.54804 8.64012 5.62524L8.62385 5.62967C8.36087 5.70138 8.06355 5.78245 7.81905 5.88723C7.59522 5.98316 7.27606 6.15413 7.16589 6.48465C7.14092 6.55957 7.13868 6.6402 7.15946 6.71639C7.30734 7.25861 7.35856 7.58116 7.36102 7.77558C7.36221 7.8696 7.35154 7.91733 7.34479 7.9378C7.34166 7.94729 7.33929 7.95112 7.33904 7.95153C7.33887 7.95181 7.33866 7.95216 7.33752 7.9533C7.33333 7.95749 7.32028 7.96885 7.27576 7.99344C7.26943 7.99694 7.25671 8.00364 7.24037 8.01226C7.19838 8.03438 7.13241 8.06914 7.08904 8.09472C6.9183 8.19542 6.73018 8.3471 6.5876 8.63226L6.5829 8.64199C5.83522 10.2442 5.97972 11.4705 6.41031 12.3604C6.75994 13.0829 7.30146 13.568 7.55506 13.7952C7.60154 13.8368 7.63834 13.8698 7.66253 13.894C7.77845 14.0099 7.98649 14.3277 8.2188 14.7309C8.44071 15.1159 8.65697 15.5288 8.7876 15.79C8.87056 15.956 9.05672 16.0431 9.23727 16.0004C9.41782 15.9578 9.54537 15.7967 9.54537 15.6111C9.54537 15.5744 9.54715 15.5308 9.55093 15.4863C9.59868 15.5111 9.62304 15.5342 9.63496 15.5485C9.65633 15.5741 9.67937 15.6209 9.67139 15.7326C9.66298 15.8504 9.6227 15.9952 9.55989 16.1687C9.53966 16.2246 9.5121 16.2956 9.48323 16.37C9.44041 16.4804 9.39472 16.5982 9.3659 16.6847C9.24883 17.0358 9.17623 17.4903 9.37398 17.9847C9.56925 18.4729 10.0012 18.9323 10.7469 19.3584C11.3122 19.6814 11.5193 20.1586 11.6312 20.6288C11.6597 20.7481 11.6815 20.8653 11.7018 20.9809L11.7132 21.0461C11.7291 21.1377 11.7456 21.2321 11.7635 21.3164C11.7855 21.4194 11.8156 21.5374 11.8653 21.644C11.9153 21.7512 12.0042 21.8878 12.1665 21.9689C12.288 22.0297 12.4048 22.0733 12.5235 22.0911C12.6509 22.1102 12.7555 22.0959 12.8424 22.0742C12.8963 22.0607 12.933 22.0493 12.9628 22.04C13.0234 22.0211 13.0553 22.0111 13.1454 22.0111C13.1978 22.0111 13.2949 22.0264 13.456 22.0593L13.5478 22.0783C13.6739 22.1046 13.8198 22.135 13.9595 22.1565C14.1317 22.183 14.3361 22.2033 14.5252 22.1757C14.7163 22.1477 14.97 22.0563 15.1031 21.79C15.1929 21.6105 15.3293 21.3834 15.4861 21.1817C15.6495 20.9716 15.805 20.8285 15.9243 20.7689C16.1963 20.6329 16.2936 20.3422 16.3388 20.1678C16.3911 19.9661 16.4187 19.7236 16.4429 19.5053L16.447 19.4682C16.4711 19.2509 16.4939 19.0457 16.5314 18.8583C16.5717 18.6565 16.6217 18.5177 16.6782 18.433C17.0979 17.8035 17.7454 16.5246 17.7454 15.2111C17.7454 14.7479 17.7777 14.4406 17.8135 14.25C17.8314 14.1545 17.8492 14.0942 17.8613 14.0613L17.8651 14.0516C17.9169 13.9826 17.9454 13.8984 17.9454 13.8111V6.61114C17.9454 6.21943 17.8258 5.79939 17.6942 5.45382C17.5731 5.13571 17.4301 4.8506 17.3214 4.66155L16.7351 2.1212Z" fill="#21262A"/>
</svg>
