<svg width="60" height="60" viewBox="0 0 60 60" fill="none" xmlns="http://www.w3.org/2000/svg">
<path d="M34.8634 6.01856L22.6205 5.52884C22.4519 5.5221 22.271 5.54668 22.1609 5.67454C21.9537 5.91499 21.922 6.352 22.753 6.94261C22.8255 6.9941 22.908 7.03259 22.9912 7.06375C25.849 8.13357 25.3562 12.0402 24.8634 13.5186C24.3947 14.9247 19.9717 15.0127 19.008 16.2538C18.8869 16.4097 18.893 16.6255 18.9432 16.8165C20.2897 21.9459 18.3449 20.0556 17.3634 22.0186C13.8634 29.5186 18.8634 33.0186 19.8634 34.0186C20.4308 34.5859 21.3669 36.1926 22.1012 37.5547C22.2963 37.9167 22.9315 37.5594 23.3408 37.5197C23.3621 37.5176 23.3753 37.5205 23.3964 37.5242C26.3524 38.037 24.8616 40.5241 24.3634 42.0186C23.8634 43.5186 23.8634 45.5186 27.3634 47.5186C30.8634 49.5186 29.8634 53.5186 30.8634 54.0186C31.8634 54.5186 31.8634 54.0186 32.8634 54.0186C33.8634 54.0186 36.3634 55.0186 36.8634 54.0186C37.3634 53.0186 38.3634 51.5186 39.3634 51.0186C40.3634 50.5186 39.8634 47.0186 40.8634 45.5186C41.8634 44.0186 43.3634 41.0186 43.3634 38.0186C43.3634 36.3311 43.5282 35.3687 43.684 34.888C43.7658 34.6357 43.8634 34.3721 43.8634 34.1069V16.5186C43.8634 14.9995 42.962 13.0598 42.4429 12.1543C42.3908 12.0634 42.3514 11.9666 42.3279 11.8645L41.0581 6.36215C40.9463 5.87789 40.4959 5.54919 40.0007 5.59046L34.8634 6.01856Z" fill="#21262A"/>
<path d="M30.0083 31.5277V23.0317H27.9443V31.5277H30.0083Z" fill="#21262A"/>
<path d="M37.1166 31.5277V29.7397H33.8286V23.0317H31.7646V31.5277H37.1166Z" fill="#21262A"/>
<path fill-rule="evenodd" clip-rule="evenodd" d="M40.7804 4.53132C41.2756 4.49005 41.7261 4.81875 41.8378 5.30301L43.3034 11.6539C43.5752 12.1265 43.9327 12.8393 44.2355 13.6346C44.5644 14.4985 44.8634 15.5486 44.8634 16.5279V34.5279C44.8634 34.7459 44.7922 34.9566 44.6627 35.1289C44.6599 35.1358 44.6568 35.1439 44.6533 35.1533C44.623 35.2356 44.5786 35.3863 44.5337 35.6251C44.4442 36.1014 44.3634 36.8699 44.3634 38.0279C44.3634 41.3114 42.7447 44.5087 41.6955 46.0826C41.5544 46.2942 41.4293 46.6413 41.3284 47.1459C41.2347 47.6142 41.1778 48.1273 41.1176 48.6704C41.1142 48.7013 41.1108 48.7322 41.1073 48.7633C41.0467 49.3091 40.9778 49.9152 40.847 50.4195C40.734 50.8556 40.4908 51.5822 39.8106 51.9223C39.5126 52.0713 39.1238 52.429 38.7153 52.9543C38.3231 53.4585 37.9822 54.0263 37.7579 54.4751C37.425 55.1408 36.7908 55.3693 36.3129 55.4392C35.8403 55.5084 35.3291 55.4574 34.8989 55.3912C34.5495 55.3375 34.1848 55.2615 33.8695 55.1958C33.7895 55.1791 33.7126 55.1631 33.64 55.1483C33.2372 55.0661 32.9945 55.0279 32.8634 55.0279C32.6382 55.0279 32.5585 55.0527 32.407 55.1C32.3326 55.1232 32.2408 55.1518 32.106 55.1855C31.8887 55.2398 31.6273 55.2755 31.3088 55.2277C31.0119 55.1832 30.72 55.0742 30.4162 54.9223C30.0105 54.7195 29.7883 54.3779 29.6633 54.1099C29.5389 53.8435 29.4637 53.5486 29.4088 53.291C29.3639 53.0802 29.3229 52.8443 29.283 52.6152C29.2735 52.5604 29.264 52.5059 29.2545 52.4523C29.2036 52.1632 29.1492 51.8704 29.0781 51.572C28.7982 50.3964 28.2805 49.2036 26.8673 48.3961C25.0029 47.3308 23.9231 46.1822 23.4349 44.9618C22.9406 43.7258 23.1221 42.5896 23.4147 41.7116C23.4868 41.4955 23.601 41.2011 23.7081 40.9251C23.7802 40.7391 23.8492 40.5614 23.8997 40.4218C24.0568 39.9881 24.1574 39.626 24.1785 39.3316C24.1984 39.0523 24.1408 38.9353 24.0874 38.8712C24.0576 38.8354 23.9967 38.7777 23.8773 38.7159C23.8679 38.827 23.8634 38.936 23.8634 39.0279C23.8634 39.4916 23.5445 39.8946 23.0932 40.0011C22.6418 40.1077 22.1764 39.8899 21.969 39.4751C21.6424 38.8219 21.1018 37.7899 20.547 36.8272C19.9662 35.8194 19.4461 35.0248 19.1563 34.735C19.0959 34.6745 19.0038 34.5921 18.8876 34.488C18.2536 33.9201 16.8999 32.7074 16.0258 30.9009C14.9493 28.6762 14.588 25.6104 16.4572 21.605C16.461 21.5968 16.465 21.5887 16.469 21.5807C16.8254 20.8678 17.2957 20.4886 17.7226 20.2368C17.831 20.1729 17.9958 20.0861 18.1007 20.0308C18.1417 20.0092 18.1735 19.9924 18.1894 19.9836C18.3007 19.9221 18.3333 19.8937 18.3438 19.8833C18.3466 19.8804 18.3472 19.8795 18.3476 19.8788C18.3482 19.8778 18.3541 19.8682 18.362 19.8445C18.3788 19.7933 18.4055 19.674 18.4025 19.439C18.3964 18.9529 18.2683 18.1465 17.8986 16.791C17.8467 16.6005 17.8523 16.3989 17.9147 16.2116C18.1902 15.3854 18.9881 14.9579 19.5476 14.7181C20.1589 14.4561 20.9022 14.2535 21.5596 14.0742L21.6003 14.0631C22.3079 13.8701 22.9215 13.7007 23.3914 13.4993C23.8284 13.312 23.9177 13.1876 23.9217 13.1903C23.9217 13.1903 23.9218 13.1903 23.9217 13.1903C24.1325 12.5458 24.3449 11.3444 24.186 10.2318C24.0288 9.13128 23.5545 8.31233 22.5472 7.97655C22.4629 7.94845 22.3827 7.90922 22.3087 7.85992C21.6465 7.41845 21.0892 6.84793 21.0406 6.1058C20.9872 5.29191 21.5564 4.81335 21.9162 4.63344C22.0672 4.55797 22.2348 4.52192 22.4034 4.52867L34.8418 5.0262L40.7804 4.53132ZM22.761 36.6845C22.9241 36.5921 23.1239 36.5279 23.3634 36.5279C23.4185 36.5279 23.4735 36.5324 23.5278 36.5415C24.4097 36.6885 25.1407 37.0111 25.6238 37.5908C26.1173 38.1829 26.2159 38.8784 26.1734 39.4741C26.1319 40.0548 25.9513 40.6302 25.7803 41.1027C25.686 41.363 25.6061 41.5658 25.5346 41.7474C25.4524 41.956 25.3813 42.1366 25.3121 42.3441C25.1048 42.9661 25.0363 43.5799 25.2919 44.219C25.5537 44.8735 26.2239 45.725 27.8596 46.6596C29.9464 47.8521 30.6786 49.6593 31.0237 51.1087C31.1089 51.4666 31.1716 51.8066 31.2242 52.1054C31.2357 52.1704 31.2465 52.2324 31.2568 52.2918C31.2959 52.5163 31.3286 52.7039 31.3649 52.8741C31.3978 53.0283 31.4263 53.1311 31.4495 53.1979C31.5411 53.2365 31.5876 53.2468 31.6026 53.2494C31.6066 53.2486 31.6125 53.2473 31.6209 53.2452C31.6344 53.2418 31.6568 53.2346 31.6872 53.2248C31.8609 53.1688 32.2983 53.0279 32.8634 53.0279C33.2323 53.0279 33.6771 53.1146 34.0399 53.1887C34.1296 53.207 34.2181 53.2254 34.3055 53.2436C34.6148 53.3079 34.9111 53.3696 35.203 53.4145C35.5852 53.4733 35.8553 53.4849 36.0233 53.4603C36.0259 53.4599 36.0284 53.4595 36.0308 53.4592C36.3041 52.9311 36.6886 52.3024 37.1366 51.7264C37.5819 51.1538 38.1593 50.5424 38.8216 50.1828C38.8404 50.1433 38.8734 50.0627 38.9111 49.9175C38.9991 49.578 39.0552 49.1217 39.1195 48.5424C39.1237 48.5047 39.1279 48.4666 39.1322 48.4281C39.1899 47.9067 39.2557 47.3112 39.3672 46.7536C39.485 46.1645 39.6725 45.5115 40.0314 44.9732C40.9821 43.547 42.3634 40.7443 42.3634 38.0279C42.3634 36.7859 42.4493 35.8876 42.5681 35.2556C42.6274 34.9403 42.6976 34.6763 42.7766 34.4619C42.7993 34.4003 42.8277 34.3286 42.8634 34.2528V16.5279C42.8634 15.9072 42.6625 15.1239 42.3664 14.3462C42.0759 13.5831 41.7272 12.9111 41.5059 12.5424C41.452 12.4525 41.4126 12.3548 41.389 12.2527L40.0837 6.59631L34.9465 7.02441C34.9056 7.02782 34.8645 7.02871 34.8235 7.02707L24.2553 6.60434C25.4663 7.42454 25.9926 8.73628 26.1659 9.94895C26.3801 11.449 26.0991 12.9831 25.8121 13.8441C25.5367 14.6704 24.7388 15.0978 24.1792 15.3376C23.5679 15.5996 22.8247 15.8023 22.1672 15.9815L22.1265 15.9926C21.4189 16.1856 20.8053 16.355 20.3355 16.5564C20.1573 16.6327 20.0369 16.6987 19.9565 16.7498C20.2502 17.8967 20.394 18.755 20.4024 19.4137C20.4123 20.1946 20.2311 20.8244 19.758 21.2975C19.5497 21.5057 19.3245 21.6414 19.1565 21.7342C19.0541 21.7908 18.9901 21.8238 18.9358 21.8518C18.872 21.8846 18.8218 21.9105 18.7386 21.9595C18.5584 22.0658 18.4054 22.1849 18.2634 22.4641C16.6398 25.9516 17.0286 28.3816 17.8261 30.0298C18.5047 31.4323 19.4788 32.3177 20.1498 32.9276C20.31 33.0733 20.453 33.2032 20.5705 33.3208C21.0807 33.8309 21.7273 34.8697 22.2799 35.8286C22.4433 36.1122 22.6052 36.4008 22.761 36.6845Z" fill="#21262A"/>
</svg>
