<svg width="60" height="60" viewBox="0 0 60 60" fill="none" xmlns="http://www.w3.org/2000/svg">
<path d="M25.9874 6.59348C24.9528 7.13426 22.9775 7.86376 21.0666 7.73329C20.3856 7.68679 19.7074 8.17316 19.7074 8.85571V33.9735C19.7074 34.4735 19.7074 36.2235 18.7074 36.9735C17.7074 37.7235 20.2074 39.9735 19.7074 41.9735C19.374 43.1401 18.1074 46.1735 15.7074 48.9735C14.4075 50.49 14.1246 51.6838 14.2707 52.539C14.4016 53.3052 15.7623 53.1874 16.506 52.9612C16.9983 52.8115 17.492 52.6889 17.7074 52.4735C18.2074 51.9735 20.2074 52.4735 20.7074 52.9735C21.2074 53.4735 22.7074 53.9735 23.2074 53.4735C23.7074 52.9735 25.2074 51.9735 26.2074 51.9735C27.2074 51.9735 29.7074 55.4735 29.7074 52.4735C29.7074 49.4735 30.7074 50.4735 31.2074 50.9735C31.7074 51.4735 34.2074 51.9735 35.2074 50.4735C36.2074 48.9735 37.7074 46.4735 38.7074 46.4735C39.7074 46.4735 39.2074 42.4735 40.2074 42.9735C40.6226 43.1811 41.6845 43.0385 42.8196 42.7833C43.7573 42.5726 45.0168 40.1895 45.2642 39.2609C45.369 38.8676 45.4985 38.491 45.623 38.1778C45.677 38.0422 45.705 37.8979 45.7004 37.752L44.7385 6.96877C44.7213 6.4184 44.2624 5.9855 43.7119 6.00037L26.4584 6.46668C26.2936 6.47114 26.1335 6.5171 25.9874 6.59348Z" fill="#21262A"/>
<path d="M28.5254 30.9999V22.5039H26.4614V30.9999H28.5254Z" fill="#21262A"/>
<path d="M38.0097 30.9999V22.5039H36.0177L36.0657 28.0479H36.0297L32.6217 22.5039H30.2817V30.9999H32.2737L32.2257 25.4439H32.2617L35.6817 30.9999H38.0097Z" fill="#21262A"/>
<path fill-rule="evenodd" clip-rule="evenodd" d="M44.7088 5.00037C45.2592 4.9855 45.7181 5.4184 45.7353 5.96877L46.7353 37.9688C46.7399 38.1147 46.7124 38.2598 46.655 38.3939C46.4268 38.9263 46.1654 39.7255 46.0924 40.3957C46.0554 40.7365 46.0774 40.9567 46.113 41.0699C46.1135 41.0715 46.114 41.073 46.1145 41.0745C46.4882 41.2272 46.7358 41.5919 46.7358 42C46.7358 42.4304 46.4604 42.8126 46.052 42.9487C45.2791 43.2063 44.0685 43.5673 42.9367 43.8145C42.3729 43.9376 41.8026 44.0383 41.3039 44.0794C41.055 44.1 40.8024 44.1075 40.5654 44.0896C40.5375 44.2535 40.5091 44.4542 40.477 44.6947C40.4737 44.7196 40.4703 44.7451 40.4669 44.7709C40.4103 45.1977 40.339 45.7345 40.2098 46.1683C40.1417 46.397 40.0324 46.6892 39.8369 46.9416C39.6297 47.209 39.2829 47.4771 38.7987 47.4986C38.7738 47.5114 38.6972 47.5528 38.5634 47.6691C38.3405 47.8627 38.0752 48.1614 37.7784 48.5472C37.3286 49.132 36.8841 49.8112 36.4678 50.4473C36.3312 50.656 36.1976 50.8601 36.0679 51.0547C35.3039 52.2007 34.0231 52.5 33.0483 52.5C32.5447 52.5 32.0596 52.4233 31.6502 52.3035C31.3647 52.2199 31.0315 52.0912 30.7537 51.8951C30.7426 52.063 30.7358 52.263 30.7358 52.5C30.7358 52.9266 30.6938 53.3343 30.5651 53.6847C30.4296 54.0536 30.1612 54.4436 29.6807 54.6238C29.2386 54.7896 28.8221 54.697 28.5557 54.6019C28.2788 54.503 28.0203 54.3498 27.8061 54.2071C27.5343 54.0258 27.2131 53.774 26.9417 53.5611C26.8151 53.4619 26.6994 53.3711 26.6046 53.3C26.4278 53.1675 26.2935 53.0767 26.193 53.0216C26.1804 53.0147 26.1693 53.009 26.1599 53.0043C25.9145 53.0298 25.5126 53.1707 25.0339 53.4367C24.5281 53.7177 24.1099 54.0401 23.9429 54.2071C23.5805 54.5695 23.1186 54.6761 22.7758 54.7006C22.42 54.726 22.0596 54.6742 21.7433 54.5951C21.143 54.4451 20.4526 54.131 20.0287 53.7071C20.0327 53.7111 20.0315 53.7104 20.0241 53.7055C20.0011 53.6905 19.9183 53.6364 19.7457 53.5653C19.5442 53.4823 19.294 53.4064 19.0397 53.3556C18.7806 53.3038 18.5579 53.2861 18.4039 53.2952C18.3779 53.2967 18.3568 53.2987 18.3401 53.3009C18.0411 53.5504 17.6697 53.6803 17.4505 53.7534C17.3082 53.8008 17.1585 53.8452 17.025 53.8848L17.0094 53.8894C16.8656 53.932 16.7368 53.9704 16.6145 54.0112C16.419 54.0764 16.2951 54.1307 16.2209 54.1722C16.17 54.4638 15.9913 54.7214 15.7285 54.8702C15.415 55.0477 15.0302 55.0429 14.7213 54.8575C14.0606 54.4611 13.3777 53.6395 13.2769 52.4468C13.1758 51.2518 13.6719 49.8713 14.9765 48.3492C17.2611 45.6839 18.4631 42.7997 18.7692 41.7431C18.8309 41.4817 18.8088 41.1642 18.6906 40.763C18.5687 40.3491 18.3705 39.9273 18.1478 39.466C18.1342 39.4379 18.1203 39.4092 18.1062 39.38C17.9139 38.9829 17.6787 38.4972 17.5698 38.0564C17.5082 37.8075 17.4626 37.4865 17.5329 37.146C17.6099 36.7728 17.8134 36.4419 18.1358 36.2C18.3447 36.0434 18.5247 35.7111 18.6323 35.2003C18.734 34.7169 18.7358 34.2453 18.7358 34V7.50001C18.7358 7.17856 18.8903 6.87672 19.1511 6.68877C19.4119 6.50081 19.7471 6.44967 20.052 6.55132C21.0125 6.87147 22.143 6.81995 23.2277 6.57464C24.305 6.33102 25.2375 5.91869 25.7397 5.63176C25.8828 5.54996 26.044 5.50483 26.2088 5.50037L44.7088 5.00037ZM40.6781 43.6341C40.6783 43.6344 40.6761 43.6395 40.6712 43.6483C40.6755 43.6381 40.6779 43.6337 40.6781 43.6341ZM26.5041 7.49312C25.8271 7.84981 24.8133 8.26657 23.6689 8.52538C22.7786 8.72671 21.76 8.84357 20.7358 8.73177L20.7358 34.009C20.7358 34.2698 20.7359 34.9163 20.5894 35.6123C20.4591 36.231 20.1805 37.0512 19.529 37.6407C19.5939 37.8567 19.7324 38.1479 19.9489 38.5965C20.1637 39.0415 20.4342 39.604 20.6091 40.1979C20.7857 40.7972 20.8899 41.5066 20.7059 42.2426C20.7033 42.2533 20.7004 42.2641 20.6973 42.2747C20.3283 43.5663 18.9975 46.7313 16.4951 49.6508C15.3997 50.9287 15.2291 51.7982 15.2697 52.2782C15.2734 52.3219 15.279 52.3639 15.2861 52.4042C15.5294 52.2731 15.7783 52.1817 15.9821 52.1138C16.141 52.0608 16.3013 52.0133 16.4407 51.9719C16.5866 51.9287 16.7081 51.8927 16.818 51.856C16.9882 51.7993 17.0521 51.7645 17.0607 51.7619C17.4513 51.3945 17.9672 51.3174 18.2865 51.2986C18.6637 51.2764 19.066 51.3213 19.4319 51.3944C19.8026 51.4686 20.1774 51.5802 20.5072 51.716C20.8102 51.8407 21.1764 52.0264 21.4429 52.2929C21.4647 52.3147 21.5499 52.3828 21.7143 52.465C21.8689 52.5423 22.0503 52.6104 22.2283 52.6549C22.4013 52.6981 22.5351 52.7101 22.6184 52.7065C22.9603 52.3882 23.4958 52.0033 24.0627 51.6884C24.6558 51.3588 25.4687 51 26.2358 51C26.6188 51 26.9495 51.1557 27.1536 51.2674C27.3812 51.3921 27.6063 51.5513 27.8046 51.7C27.9803 51.8318 28.1343 51.9532 28.2775 52.0661C28.4387 52.1932 28.5863 52.3096 28.736 52.418C28.7403 51.6727 28.8037 51.0781 28.9466 50.6275C29.0883 50.1808 29.4084 49.5957 30.1022 49.4569C30.6945 49.3385 31.1718 49.645 31.3717 49.7878C31.6015 49.952 31.8054 50.1553 31.9234 50.2733C31.9231 50.2729 31.9233 50.2735 31.9234 50.2733C31.9252 50.2708 32.0047 50.3234 32.212 50.384C32.4433 50.4517 32.7394 50.5 33.0483 50.5C33.6985 50.5 34.1678 50.2993 34.4038 49.9453C34.5138 49.7802 34.6339 49.5967 34.7616 49.4015C35.185 48.7543 35.6918 47.9795 36.1932 47.3278C36.5214 46.9011 36.8811 46.4811 37.252 46.159C37.5058 45.9386 37.8676 45.6716 38.3047 45.5569C38.3799 45.2849 38.4311 44.9061 38.4946 44.4303L38.4997 44.3922C38.5562 43.9676 38.63 43.4131 38.779 42.9981C38.8506 42.7987 39.0007 42.4445 39.3343 42.2001C39.5235 42.0616 39.7606 41.9671 40.0296 41.9575C40.269 41.949 40.478 42.0095 40.6443 42.0869C40.657 42.0891 40.6802 42.0925 40.7161 42.0953C40.8128 42.1026 40.9529 42.1016 41.1396 42.0862C41.5128 42.0554 41.9862 41.9749 42.5099 41.8605C43.0529 41.742 43.6219 41.5932 44.1453 41.4437C44.0526 41.0174 44.0614 40.5723 44.1042 40.1793C44.1956 39.3392 44.4766 38.4489 44.7296 37.8165L43.7674 7.02655L26.5041 7.49312Z" fill="#21262A"/>
</svg>
