<svg width="24" height="24" viewBox="0 0 24 24" fill="none" xmlns="http://www.w3.org/2000/svg">
    <path fill-rule="evenodd" clip-rule="evenodd" d="M18.2941 2.38751C18.2872 2.16736 18.1037 1.9942 17.8835 2.00015L10.4835 2.20015C10.4176 2.20193 10.3531 2.21999 10.2959 2.25271C10.095 2.36748 9.72199 2.53241 9.29109 2.62986C8.85719 2.72798 8.40499 2.74859 8.02081 2.62053C7.89883 2.57987 7.76475 2.60033 7.66044 2.67551C7.55613 2.75069 7.49432 2.87143 7.49432 3V13.6C7.49432 13.6981 7.49361 13.8868 7.4529 14.0801C7.40989 14.2844 7.33787 14.4173 7.25433 14.48C7.12536 14.5767 7.04396 14.7091 7.01314 14.8584C6.98504 14.9946 7.0033 15.123 7.02791 15.2226C7.07149 15.3989 7.16555 15.5931 7.24248 15.752L7.25912 15.7864C7.3482 15.9709 7.42749 16.1397 7.47626 16.3052C7.52352 16.4657 7.53236 16.5927 7.50767 16.6972C7.38522 17.1199 6.90446 18.2735 5.99062 19.3397C5.46877 19.9485 5.27032 20.5007 5.31075 20.9787C5.35109 21.4558 5.62426 21.7844 5.88852 21.943C6.0121 22.0171 6.166 22.0191 6.2914 21.9481C6.39652 21.8886 6.46798 21.7855 6.48836 21.6689C6.51804 21.6523 6.56758 21.6306 6.64581 21.6045C6.69473 21.5882 6.74625 21.5728 6.80375 21.5558L6.81 21.5539C6.86341 21.5381 6.92326 21.5203 6.98019 21.5014C7.06789 21.4721 7.21643 21.4202 7.33605 21.3203C7.34272 21.3195 7.35115 21.3187 7.36156 21.3181C7.42316 21.3144 7.51223 21.3215 7.61588 21.3422C7.7176 21.3626 7.81768 21.3929 7.89827 21.4261C7.9673 21.4545 8.00044 21.4762 8.00965 21.4822C8.0126 21.4841 8.01309 21.4845 8.01148 21.4828C8.18103 21.6524 8.45721 21.778 8.69731 21.8381C8.82382 21.8697 8.96799 21.8904 9.11032 21.8802C9.24743 21.8704 9.4322 21.8278 9.57717 21.6828C9.64397 21.616 9.81125 21.4871 10.0136 21.3747C10.2051 21.2683 10.3658 21.2119 10.464 21.2017L10.4772 21.2087C10.5174 21.2307 10.5711 21.267 10.6418 21.32C10.6798 21.3485 10.726 21.3848 10.7767 21.4245C10.8852 21.5096 11.0137 21.6104 11.1224 21.6828C11.2081 21.7399 11.3115 21.8012 11.4223 21.8408C11.5288 21.8788 11.6955 21.9158 11.8723 21.8495C12.0645 21.7775 12.1718 21.6214 12.226 21.4739C12.2775 21.3337 12.2943 21.1706 12.2943 21C12.2943 20.9052 12.2971 20.8252 12.3015 20.758C12.4126 20.8365 12.5459 20.888 12.6601 20.9214C12.8238 20.9693 13.0179 21 13.2193 21C13.6093 21 14.1215 20.8803 14.4271 20.4219C14.479 20.3442 14.5323 20.2626 14.5869 20.1793C14.7534 19.9248 14.9314 19.6528 15.1114 19.4189C15.2301 19.2646 15.3362 19.1451 15.4253 19.0676C15.4789 19.0211 15.5095 19.0046 15.5195 18.9994C15.7132 18.9908 15.8519 18.8836 15.9347 18.7766C16.0129 18.6757 16.0567 18.5588 16.0839 18.4673C16.1356 18.2938 16.1641 18.0791 16.1868 17.9084L16.1908 17.8779C16.2036 17.7817 16.215 17.7014 16.2261 17.6358C16.321 17.643 16.422 17.64 16.5216 17.6318C16.721 17.6153 16.9492 17.575 17.1747 17.5258C17.6274 17.4269 18.1116 17.2825 18.4208 17.1795C18.5842 17.125 18.6943 16.9722 18.6943 16.8C18.6943 16.6368 18.5953 16.4909 18.4458 16.4298L18.4452 16.428C18.431 16.3827 18.4221 16.2946 18.437 16.1583C18.4661 15.8902 18.5707 15.5705 18.662 15.3576C18.685 15.3039 18.696 15.2459 18.6941 15.1875L18.2941 2.38751Z" fill="#21262A"/>
</svg>
