<svg width="60" height="60" viewBox="0 0 60 60" fill="none" xmlns="http://www.w3.org/2000/svg">
<path d="M44.8044 14.5035C32.859 15.5009 16.2827 14.9728 7.96789 14.5025C7.23414 14.461 6.65119 15.22 6.70376 15.953C6.83454 17.7767 6.39 20.0641 6.01569 21.4563C5.93832 21.744 5.9848 22.0502 6.14114 22.3039C6.47863 22.8514 6.88772 23.5943 6.88772 23.9076C6.88772 24.4076 8.38772 28.9076 9.38772 29.4076C10.1007 29.7641 10.3371 31.2061 10.3801 32.1055C10.3895 32.3027 10.3257 32.4933 10.2338 32.6681C9.94309 33.2212 9.70743 34.0675 10.3877 34.4076C11.3877 34.9076 11.8877 40.4076 11.3877 41.4076C10.8877 42.4076 11.3877 43.4076 11.8877 43.4076C12.3877 43.4076 29.3877 43.9076 33.3877 43.9076C36.3794 43.9076 40.1869 43.6163 42.0318 43.4422C42.2623 43.4204 42.493 43.4778 42.6856 43.6063L42.9627 43.791C43.7549 44.3191 45.954 43.5869 46.5497 42.844C47.2377 41.986 48.0148 41.1165 48.2871 40.394C48.3981 40.0994 48.2297 39.8045 48.0174 39.572C46.5298 37.9434 47.5251 34.9076 49.3877 34.9076C51.3877 34.9076 52.3877 33.9076 52.3877 33.4076C52.3877 32.9076 52.3877 31.4076 53.3877 30.9076C54.3877 30.4076 53.8877 28.4076 52.8877 27.9076C51.8877 27.4076 50.8877 25.4076 50.3877 23.9076C49.8877 22.4076 47.3877 22.4076 46.8877 21.9076C46.3877 21.4076 45.8877 19.4076 46.3877 18.4076C46.8877 17.4076 46.8877 16.9076 46.3877 16.4076L46.178 16.198C45.992 16.012 45.8877 15.7599 45.8877 15.4968C45.8877 14.9125 45.3867 14.4549 44.8044 14.5035Z" fill="#21262A"/>
<path d="M26.1377 33.4999V25.0039H24.0737V33.4999H26.1377Z" fill="#21262A"/>
<path d="M35.934 33.4999L32.406 25.0039H30.414L26.85 33.4999H29.082L29.706 31.8319H32.994L33.654 33.4999H35.934ZM32.43 30.1879H30.294L31.374 27.2719L32.43 30.1879Z" fill="#21262A"/>
<path fill-rule="evenodd" clip-rule="evenodd" d="M5.66923 13.9133C5.87055 13.6354 6.20028 13.4802 6.54271 13.502C14.3657 14.0014 33.1675 14.6967 45.8857 13.5044C46.1659 13.4781 46.4442 13.5711 46.6523 13.7606C46.8604 13.9501 46.979 14.2186 46.979 14.5V15.5858L47.0272 15.6339L47.029 15.6358L47.0309 15.6377L47.104 15.7108L47.1189 15.7256L47.1253 15.7321L47.1428 15.7496L47.163 15.7698L47.1745 15.7813L47.1861 15.7929C47.5728 16.1796 47.854 16.6706 47.854 17.3125C47.854 17.8692 47.6373 18.4194 47.3734 18.9472C47.2715 19.1511 47.2242 19.6334 47.3379 20.2586C47.3897 20.5434 47.4661 20.8064 47.5481 21.0114C47.5985 21.1373 47.6404 21.2151 47.6652 21.2568C47.7279 21.2828 47.82 21.3145 47.9539 21.3547C48.032 21.3781 48.1338 21.4067 48.2488 21.439C48.4887 21.5064 48.786 21.5899 49.0452 21.6763C49.805 21.9296 51.0106 22.4324 51.4277 23.6838C51.6597 24.3797 52.008 25.19 52.4053 25.8711C52.8329 26.6042 53.2089 26.9969 53.4262 27.1056C54.2974 27.5412 54.7985 28.4987 54.9596 29.3039C55.1116 30.064 55.0538 31.3307 53.9262 31.8944C53.8089 31.9531 53.6698 32.11 53.5742 32.4925C53.4822 32.8604 53.479 33.2488 53.479 33.5C53.479 33.9303 53.2805 34.2973 53.0869 34.5514C52.8774 34.8264 52.5941 35.0761 52.259 35.2855C51.5831 35.7079 50.6454 36 49.479 36C49.1409 36 48.6493 36.3296 48.4524 37.1665C48.2682 37.9497 48.4766 38.7482 49.079 39.2C49.3308 39.3889 49.479 39.6852 49.479 40C49.479 40.7071 49.0917 41.3682 48.7656 41.8454C48.4731 42.2735 48.1036 42.725 47.7652 43.1385C47.6978 43.2209 47.6317 43.3017 47.5676 43.3806C47.157 43.886 46.8217 44.3213 46.613 44.7007C46.415 45.0607 46.4302 45.1916 46.4302 45.1916C46.561 45.5947 46.4233 46.0371 46.086 46.2947C45.7465 46.554 45.2798 46.569 44.9243 46.3321L42.2209 44.5298C40.3614 44.7053 36.5169 45 33.479 45C31.4627 45 26.1963 44.8745 21.3905 44.7497C19.0932 44.69 16.8956 44.6303 15.199 44.5843L14.9597 44.5778C14.0963 44.5543 13.376 44.5348 12.8561 44.5211C12.596 44.5143 12.3867 44.509 12.235 44.5053C12.159 44.5035 12.0983 44.5021 12.0532 44.5012L11.9992 44.5003C11.9844 44.5 11.979 44.5 11.979 44.5C11.511 44.5 11.1462 44.2689 10.9125 44.0352C10.6742 43.7969 10.5075 43.4979 10.4053 43.1912C10.1985 42.5707 10.2132 41.7956 10.5846 41.0528C10.5822 41.0576 10.5807 41.0601 10.5807 41.0601C10.5807 41.0601 10.6048 40.9886 10.629 40.8033C10.6545 40.6076 10.6708 40.3505 10.6744 40.0429C10.6816 39.4293 10.638 38.6767 10.5486 37.9317C10.4587 37.1825 10.3269 36.4779 10.1693 35.9503C10.0898 35.6843 10.0134 35.4962 9.95023 35.3795C9.9411 35.3626 9.93309 35.3488 9.92628 35.3376C9.56189 35.1266 9.30107 34.8159 9.15987 34.4443C9.01563 34.0648 9.02015 33.6876 9.06515 33.3886C9.13024 32.9563 9.30098 32.5482 9.47205 32.2353C9.45528 31.8964 9.40665 31.4685 9.30927 31.0816C9.2468 30.8335 9.17351 30.64 9.09979 30.5081C9.05547 30.4288 9.02448 30.3954 9.0147 30.3857C8.70308 30.2251 8.46651 29.9701 8.30188 29.7632C8.12017 29.5347 7.95026 29.2664 7.79493 28.9903C7.48348 28.4366 7.18365 27.7667 6.92553 27.1214C6.66575 26.472 6.43836 25.8225 6.27453 25.2983C6.19279 25.0367 6.12439 24.7984 6.07527 24.6019C6.04144 24.4666 5.99168 24.2588 5.98105 24.0697C5.97589 24.0528 5.96474 24.0187 5.94276 23.9644C5.89394 23.8439 5.81861 23.6884 5.72323 23.511C5.53348 23.1581 5.30095 22.7857 5.14696 22.5547C4.98167 22.3068 4.93556 21.9981 5.02118 21.7127C5.25681 20.9272 5.56822 19.6106 5.72302 18.261C5.88295 16.8669 5.8517 15.6243 5.55053 14.8714C5.4231 14.5528 5.4679 14.1911 5.66923 13.9133ZM45.2719 16.7071C45.0844 16.5196 44.979 16.2652 44.979 16V15.5924C32.8422 16.6056 16.0003 16.0536 7.75494 15.5791C7.86761 16.5278 7.81683 17.5576 7.70999 18.489C7.56616 19.7429 7.30208 20.9608 7.06415 21.8399C7.20067 22.0602 7.34989 22.3131 7.48478 22.564C7.59774 22.7741 7.70991 22.9999 7.79651 23.2137C7.86803 23.3903 7.97901 23.6905 7.97901 24C7.97901 23.9692 7.97798 23.9509 7.97798 23.9509C7.97798 23.9509 7.98593 23.9983 8.01556 24.1168C8.05238 24.2641 8.10898 24.4633 8.18349 24.7017C8.33216 25.1775 8.54226 25.7781 8.78249 26.3786C9.02437 26.9833 9.28704 27.5634 9.53808 28.0097C9.664 28.2336 9.77535 28.4028 9.86708 28.5181C9.91775 28.5818 9.94953 28.6126 9.96118 28.6235C10.3876 28.8484 10.6656 29.2102 10.8457 29.5325C11.0345 29.8704 11.1612 30.2457 11.2488 30.5934C11.4236 31.2881 11.479 32.0233 11.479 32.5C11.479 32.6974 11.4206 32.8904 11.3111 33.0547C11.2592 33.1325 11.1964 33.243 11.143 33.3659C11.0915 33.4844 11.0592 33.5902 11.0451 33.6724C11.3802 33.8821 11.5864 34.2007 11.709 34.4272C11.8626 34.7109 11.9854 35.0423 12.0856 35.3779C12.2874 36.0534 12.4368 36.88 12.5344 37.6934C12.6325 38.5108 12.6827 39.3519 12.6743 40.0665C12.6701 40.423 12.6511 40.7635 12.6122 41.062C12.5766 41.335 12.5134 41.6673 12.3734 41.9472C12.2608 42.1724 12.2581 42.3729 12.2881 42.5062C12.8052 42.5186 13.9117 42.5486 15.364 42.588C17.0509 42.6338 19.2044 42.6922 21.4425 42.7503C26.2617 42.8755 31.4954 43 33.479 43C36.6302 43 40.7255 42.6704 42.3795 42.505C42.6099 42.4819 42.8411 42.5395 43.0337 42.668L44.8019 43.8467C44.8214 43.8091 44.841 43.7724 44.8606 43.7368C45.1676 43.1787 45.6135 42.6141 46.0154 42.1194C46.0901 42.0274 46.1635 41.9376 46.2353 41.8498C46.5732 41.4364 46.8752 41.067 47.1143 40.7171C47.2166 40.5674 47.2963 40.4368 47.3555 40.3239C46.4116 39.2822 46.2341 37.8624 46.5056 36.7085C46.8087 35.4204 47.8171 34 49.479 34C50.3127 34 50.8749 33.7921 51.199 33.5895C51.3443 33.4987 51.4327 33.4149 51.4794 33.3599C51.4819 33.0617 51.5003 32.5419 51.6339 32.0075C51.7863 31.3976 52.1404 30.5674 52.9998 30.1219C53.001 30.1182 53.0025 30.1137 53.004 30.1085C53.0251 30.0369 53.0381 29.8947 52.9984 29.6961C52.9598 29.503 52.8812 29.309 52.7801 29.1526C52.6758 28.9914 52.5796 28.9183 52.5318 28.8944C51.7492 28.5031 51.1251 27.6459 50.6777 26.8789C50.2001 26.06 49.7984 25.1203 49.5303 24.3162C49.4474 24.0676 49.153 23.8204 48.4128 23.5737C48.1893 23.4992 47.9967 23.4456 47.7935 23.389C47.6634 23.3527 47.5289 23.3153 47.3792 23.2703C47.2118 23.2201 47.0266 23.1599 46.8548 23.0855C46.6958 23.0166 46.4665 22.9017 46.2719 22.7071C46.0034 22.4386 45.8175 22.0701 45.6912 21.7542C45.5544 21.4124 45.4434 21.0191 45.3701 20.6164C45.2338 19.8666 45.1865 18.8489 45.5846 18.0528C45.8207 17.5806 45.854 17.3808 45.854 17.3125C45.854 17.3096 45.8538 17.3055 45.8538 17.3055C45.8485 17.2959 45.8286 17.2638 45.7719 17.2071L45.7375 17.1727L45.7353 17.1705L45.6651 17.1003L45.6631 17.0983L45.6551 17.0903L45.5984 17.0336L45.5721 17.0073L45.5704 17.0056L45.5455 16.9807L45.5439 16.9791L45.5281 16.9633L45.4983 16.9335C45.4896 16.9249 45.504 16.9392 45.4954 16.9306L45.4773 16.9125L45.4628 16.898L45.4615 16.8967L45.4589 16.8941L45.4576 16.8928L45.4564 16.8916L45.4551 16.8903L45.4439 16.8791L45.4344 16.8696L45.4251 16.8603L45.424 16.8592L45.4218 16.857L45.4206 16.8558L45.4195 16.8547L45.4173 16.8525L45.4024 16.8376L45.4014 16.8366L45.3983 16.8335L45.3904 16.8256L45.3894 16.8246L45.3828 16.818L45.3791 16.8143L45.3702 16.8054L45.3659 16.8011L45.365 16.8002L45.3625 16.7977L45.3617 16.7969L45.36 16.7953L45.3592 16.7944L45.3576 16.7928L45.3568 16.792L45.3552 16.7904L45.3432 16.7784L45.3424 16.7777L45.341 16.7762L45.3322 16.7674L45.3309 16.7661L45.3296 16.7648L45.3283 16.7635L45.3271 16.7623L45.3234 16.7586L45.3223 16.7575L45.3211 16.7563L45.3199 16.7551L45.3188 16.754L45.3177 16.7529L45.3166 16.7518L45.3155 16.7507L45.3144 16.7496L45.3133 16.7486L45.3123 16.7475L45.3113 16.7465L45.3103 16.7455L45.3093 16.7445L45.3073 16.7425L45.3063 16.7416L45.3054 16.7406L45.3045 16.7397L45.3036 16.7388L45.3027 16.7379L45.3009 16.7361L45.3001 16.7353L45.2992 16.7345L45.2984 16.7336L45.2976 16.7328L45.2968 16.732L45.296 16.7312M51.5174 33.3072C51.5174 33.3072 51.5161 33.3104 51.5121 33.3167C51.5151 33.3104 51.5174 33.3072 51.5174 33.3072Z" fill="#21262A"/>
</svg>
