<svg width="24" height="24" viewBox="0 0 24 24" fill="none" xmlns="http://www.w3.org/2000/svg">
    <path fill-rule="evenodd" clip-rule="evenodd" d="M2.61718 5.40081C2.48021 5.39207 2.34832 5.45416 2.26779 5.5653C2.18726 5.67645 2.16934 5.82112 2.22031 5.94855C2.34078 6.24972 2.35328 6.74673 2.28931 7.30441C2.22739 7.84423 2.10282 8.37089 2.00857 8.68506C1.97432 8.79922 1.99277 8.92271 2.05888 9.02188C2.12048 9.11427 2.21349 9.26323 2.28939 9.40441C2.32754 9.47537 2.35767 9.53755 2.3772 9.58577C2.38599 9.60748 2.39045 9.62112 2.39252 9.62789C2.39677 9.70352 2.41667 9.78663 2.43021 9.84076C2.44985 9.91935 2.47721 10.0147 2.50991 10.1193C2.57544 10.329 2.6664 10.5888 2.77031 10.8486C2.87356 11.1067 2.99349 11.3746 3.11807 11.5961C3.1802 11.7066 3.24817 11.8139 3.32085 11.9053C3.3867 11.988 3.48133 12.09 3.60598 12.1543C3.60989 12.1582 3.62229 12.1715 3.64001 12.2032C3.6695 12.256 3.69882 12.3334 3.7238 12.4326C3.76276 12.5874 3.78221 12.7586 3.78892 12.8941C3.72049 13.0193 3.65219 13.1825 3.62616 13.3555C3.60816 13.475 3.60635 13.6259 3.66405 13.7777C3.72053 13.9263 3.82485 14.0506 3.97061 14.135C3.97333 14.1395 3.97654 14.145 3.98019 14.1518C4.00547 14.1985 4.03603 14.2737 4.06781 14.3801C4.13085 14.5911 4.18359 14.873 4.21955 15.1727C4.25531 15.4707 4.27274 15.7717 4.26985 16.0172C4.26841 16.1402 4.26191 16.243 4.2517 16.3213C4.24203 16.3955 4.23237 16.424 4.23237 16.424L4.23393 16.4211C4.08536 16.7182 4.07948 17.0283 4.16223 17.2765C4.20312 17.3992 4.26977 17.5188 4.36511 17.6141C4.45857 17.7076 4.60451 17.8 4.7917 17.8L4.79977 17.8001L4.82137 17.8005L4.89409 17.8021L5.14253 17.8085C5.35052 17.8139 5.6386 17.8217 5.98397 17.8311L6.08142 17.8337C6.75982 17.8522 7.63815 17.876 8.55631 17.8999C10.4786 17.9498 12.5852 18 13.3917 18C14.6069 18 16.1447 17.8821 16.8884 17.8119L17.9698 18.5328C18.112 18.6276 18.2987 18.6216 18.4345 18.5179C18.5694 18.4148 18.6245 18.2379 18.5722 18.0766C18.5722 18.0766 18.5661 18.0243 18.6453 17.8803C18.7288 17.7285 18.8629 17.5544 19.0271 17.3522L19.1062 17.2554C19.2415 17.09 19.3893 16.9094 19.5063 16.7382C19.6368 16.5473 19.7917 16.2828 19.7917 16C19.7917 15.8741 19.7324 15.7555 19.6317 15.68C19.3908 15.4993 19.3074 15.1799 19.3811 14.8666C19.4598 14.5319 19.6565 14.4 19.7917 14.4C20.2582 14.4 20.6333 14.2832 20.9037 14.1142C21.0377 14.0304 21.1511 13.9306 21.2349 13.8205C21.3123 13.7189 21.3917 13.5721 21.3917 13.4C21.3917 13.2995 21.393 13.1442 21.4298 12.997C21.468 12.844 21.5237 12.7812 21.5706 12.7578C22.0216 12.5323 22.0447 12.0256 21.9839 11.7215C21.9195 11.3995 21.7191 11.0165 21.3706 10.8422C21.2836 10.7988 21.1333 10.6417 20.9622 10.3484C20.8033 10.076 20.664 9.75187 20.5712 9.47351C20.4043 8.97297 19.9221 8.77183 19.6182 8.67052C19.5145 8.63596 19.3956 8.60257 19.2997 8.57561C19.2537 8.5627 19.2129 8.55125 19.1816 8.54187C19.1281 8.5258 19.0912 8.51312 19.0662 8.50273C19.0563 8.48604 19.0395 8.45493 19.0193 8.40456C18.9865 8.32254 18.956 8.21737 18.9352 8.10344C18.8898 7.85335 18.9087 7.66043 18.9495 7.57888C19.055 7.36777 19.1417 7.14769 19.1417 6.925C19.1417 6.66825 19.0292 6.47184 18.8745 6.31715L18.7917 6.23431V5.8C18.7917 5.68742 18.7443 5.58005 18.661 5.50425C18.5778 5.42845 18.4665 5.39123 18.3544 5.40174C13.2671 5.87867 5.74637 5.60054 2.61718 5.40081ZM17.902 17.5261L17.9209 17.5387C17.9245 17.5316 17.9282 17.5246 17.9319 17.5176C17.9219 17.5205 17.912 17.5234 17.902 17.5261Z" fill="#21262A"/>
</svg>
