<svg width="24" height="24" viewBox="0 0 24 24" fill="none" xmlns="http://www.w3.org/2000/svg">
    <path fill-rule="evenodd" clip-rule="evenodd" d="M2.83708 6.40016C2.61871 6.39448 2.43616 6.56503 2.42702 6.78328L2.00035 16.9666C1.9959 17.0729 2.03399 17.1766 2.1062 17.2548C2.17841 17.3329 2.27906 17.3791 2.3854 17.383L2.63869 17.3922C2.80249 17.3981 3.04051 17.4064 3.33755 17.4164C3.93163 17.4365 4.76194 17.4632 5.70696 17.4901C7.59598 17.5438 9.94718 17.5981 11.7863 17.6C13.7089 17.6019 16.167 17.5476 18.1419 17.4929C19.1299 17.4656 19.9979 17.4381 20.619 17.4175C20.9296 17.4072 21.1784 17.3986 21.3496 17.3925L21.6147 17.383C21.8346 17.3749 22.0066 17.1909 21.9998 16.971L21.7865 10.0377C21.7834 9.937 21.7424 9.84117 21.6717 9.76937L21.245 9.33604C21.1665 9.25629 21.0923 9.20139 21.0144 9.16185C20.9955 9.15224 20.9779 9.14435 20.9632 9.13818C20.9491 9.11535 20.9256 9.07455 20.8922 9.00667C20.7577 8.73349 20.6165 8.58934 20.525 8.49646L20.5155 8.4867L20.5181 8.47599C20.5282 8.43553 20.5435 8.3869 20.5628 8.33367C20.6015 8.22681 20.6487 8.12124 20.6789 8.06003C20.7198 7.97679 20.7792 7.84403 20.8295 7.70534C20.8739 7.58257 20.9333 7.39719 20.9333 7.23336C20.9333 7.14187 20.9102 7.02065 20.8209 6.91433C20.7308 6.80702 20.6147 6.76413 20.5251 6.75013C20.3697 6.72586 20.2246 6.77537 20.1428 6.8086C20.0531 6.84506 19.959 6.89635 19.8698 6.9559C19.8609 6.93317 19.8531 6.91144 19.8467 6.89196C19.7924 6.72655 19.6372 6.61526 19.4631 6.61671L19.2395 6.61844C19.0946 6.61951 18.884 6.621 18.621 6.62265C18.0952 6.62595 17.3602 6.62991 16.5237 6.63255C14.8503 6.63784 12.7729 6.63783 11.1519 6.61673C9.04734 6.58933 7.54658 6.54212 5.86409 6.48918C4.95057 6.46044 3.98347 6.43002 2.83708 6.40016ZM2.4 16.9833L2.3854 17.383C2.3854 17.383 2.38512 17.383 2.4 16.9833Z" fill="#21262A"/>
</svg>
