<svg width="60" height="60" viewBox="0 0 60 60" fill="none" xmlns="http://www.w3.org/2000/svg">
<path d="M28.8255 17.5158C21.0352 17.4144 16.5295 17.204 9.01151 17.0004C8.4656 16.9856 8.00716 17.412 7.9843 17.9576L7.0009 41.4286C6.9777 41.9822 7.40684 42.4489 7.9606 42.4684C11.3661 42.5881 22.7128 42.9663 30.4255 42.9741C38.5316 42.9822 50.4778 42.589 53.9678 42.4676C54.5173 42.4485 54.9452 41.9886 54.9283 41.4389L54.4376 25.4908C54.4298 25.239 54.3274 24.9995 54.1507 24.82L53.3588 24.0158C52.8255 23.4741 52.8255 24.0158 52.2922 22.9325C51.7588 21.8492 51.2255 21.8492 51.2255 21.3075C51.2255 20.8742 51.5811 20.0436 51.7588 19.6825C51.9366 19.3214 52.2922 18.4908 52.2922 18.0575C52.2922 17.5158 51.2255 18.0575 50.6922 18.5992C50.4197 18.8759 50.1327 18.5782 49.9146 18.1859C49.7031 17.8055 49.3375 17.5182 48.9023 17.5214C46.1029 17.5417 35.7897 17.6065 28.8255 17.5158Z" fill="#21262A"/>
<path fill-rule="evenodd" clip-rule="evenodd" d="M6.06754 16.9581C6.09041 16.4125 6.54678 15.9861 7.0927 16.0003C9.95869 16.075 12.3764 16.151 14.6602 16.2229C18.8664 16.3552 22.6183 16.4733 27.8797 16.5418C31.9323 16.5945 37.1256 16.5945 41.3093 16.5813C43.4004 16.5747 45.2379 16.5648 46.5526 16.5566C47.2099 16.5524 47.7365 16.5487 48.0987 16.546L48.6578 16.5417C48.6579 16.5417 48.6583 16.5417 48.6667 17.5417L48.6578 16.5417C49.093 16.5381 49.4811 16.8163 49.6168 17.2298C49.6328 17.2786 49.6522 17.3329 49.6744 17.3897C49.8976 17.2408 50.1326 17.1126 50.357 17.0215C50.5615 16.9384 50.9243 16.8146 51.3127 16.8753C51.5367 16.9103 51.8269 17.0175 52.0522 17.2858C52.2755 17.5516 52.3333 17.8546 52.3333 18.0833C52.3333 18.4929 52.1847 18.9564 52.0736 19.2633C51.9481 19.61 51.7996 19.9419 51.6972 20.15C51.6218 20.303 51.5037 20.567 51.407 20.8341C51.3588 20.9672 51.3204 21.0888 51.2951 21.1899C51.2928 21.1993 51.2906 21.2083 51.2887 21.2167C51.296 21.2242 51.304 21.2324 51.3126 21.2411C51.5412 21.4733 51.8943 21.8337 52.2305 22.5166C52.314 22.6863 52.3727 22.7883 52.4081 22.8454C52.4448 22.8608 52.4888 22.8805 52.5361 22.9046C52.7308 23.0034 52.9163 23.1407 53.1126 23.34L54.1792 24.4234C54.356 24.6029 54.4585 24.8424 54.4662 25.0942L54.9995 42.4275C55.0164 42.9771 54.5864 43.4373 54.0368 43.4575L54 42.4582C54.0368 43.4575 54.037 43.4575 54.0368 43.4575L53.3741 43.4813C52.946 43.4963 52.3239 43.5179 51.5475 43.5437C49.9948 43.5952 47.8246 43.6639 45.3547 43.7323C40.4174 43.8689 34.2723 44.0047 29.4657 43.9999C24.8679 43.9953 18.9899 43.8595 14.2674 43.7252C11.9048 43.658 9.82908 43.5911 8.34389 43.541C7.60126 43.5159 7.00622 43.4951 6.59673 43.4805L5.96349 43.4576C5.96337 43.4575 5.96279 43.4575 6 42.4582L5.96349 43.4576C5.69765 43.4477 5.44601 43.3322 5.26549 43.1368C5.08497 42.9414 4.98974 42.6821 5.00088 42.4164L6.06754 16.9581ZM7.04124 41.495C7.40996 41.5079 7.87154 41.5239 8.41132 41.5421C9.89384 41.5921 11.966 41.6589 14.3243 41.726C19.0434 41.8602 24.8987 41.9953 29.4677 41.9999C34.2442 42.0047 40.3657 41.8696 45.2993 41.733C47.7648 41.6648 49.9312 41.5962 51.4811 41.5448C52.0733 41.5251 52.5754 41.5079 52.9699 41.4942L52.4792 25.5474L51.6874 24.7432C51.6562 24.7115 51.6359 24.6942 51.6256 24.6861C51.6213 24.6844 51.6152 24.6819 51.6068 24.6787L51.5998 24.676C51.5702 24.6646 51.4932 24.635 51.4139 24.5947C50.9562 24.3623 50.7014 23.9387 50.4362 23.4C50.2408 23.0031 50.062 22.8215 49.8919 22.6489L49.8874 22.6443C49.8781 22.6348 49.8679 22.6246 49.8571 22.6138C49.6651 22.4212 49.2667 22.0218 49.2667 21.3333C49.2667 20.9237 49.4153 20.4603 49.5264 20.1534C49.5809 20.0028 49.6398 19.855 49.6973 19.7189C49.4678 19.7538 49.2515 19.7211 49.0672 19.6535C48.682 19.5122 48.4339 19.2202 48.3039 19.0452C48.1893 18.891 48.0884 18.7184 48.002 18.5468C47.6459 18.5494 47.1587 18.5528 46.5651 18.5565C45.2489 18.5648 43.4093 18.5747 41.3157 18.5813C37.1299 18.5945 31.9233 18.5946 27.8537 18.5416C22.5757 18.4729 18.794 18.3539 14.5746 18.2212C12.561 18.1579 10.4477 18.0914 8.02457 18.0258L7.04124 41.495Z" fill="#21262A"/>
<path d="M29.9374 35.0001L26.0614 30.4161L29.7214 26.5041H27.1534L24.1174 29.9601H24.0814V26.5041H22.0654V35.0001H24.0814V31.0881H24.1054L27.2614 35.0001H29.9374Z" fill="#21262A"/>
<path d="M36.3927 27.3321C35.6487 26.6481 34.5687 26.2881 33.6087 26.2881C32.0247 26.2881 30.3207 27.0681 30.3207 28.9521C30.3207 30.4881 31.4127 31.0401 32.4927 31.3881C33.6087 31.7481 34.2567 31.9521 34.2567 32.6001C34.2567 33.2841 33.7047 33.5241 33.0807 33.5241C32.4087 33.5241 31.6527 33.1401 31.2447 32.6241L29.9007 33.9921C30.6447 34.7721 31.8687 35.2161 33.0807 35.2161C34.7607 35.2161 36.3327 34.3401 36.3327 32.3841C36.3327 30.6921 34.8447 30.2001 33.6927 29.8281C32.8887 29.5761 32.3847 29.3961 32.3847 28.8321C32.3847 28.1601 33.0447 27.9801 33.5727 27.9801C34.1007 27.9801 34.7367 28.2681 35.0847 28.7121L36.3927 27.3321Z" fill="#21262A"/>
</svg>
