<svg width="60" height="60" viewBox="0 0 60 60" fill="none" xmlns="http://www.w3.org/2000/svg">
<path d="M42.8531 25.7592C41.1125 25.324 39.3719 22.9953 37.3017 22.069C36.7976 21.8434 36.2666 22.1987 36.1304 22.7339C35.9212 23.5559 35.6292 24.4831 35.3531 24.7592C35.0331 25.0792 33.838 25.2072 32.9463 25.2456C32.5806 25.2613 32.2443 25.4583 32.0703 25.7802C31.0191 27.7247 29.3531 30.8941 29.3531 31.2592C29.3531 31.5925 28.1957 31.0231 27.3277 30.5346C27.0297 30.367 26.668 30.3518 26.3622 30.5047L24.9729 31.1993C24.8934 31.239 24.809 31.268 24.7218 31.2854L22.4432 31.7412C22.3833 31.7532 22.3246 31.7706 22.2679 31.7933L20.8378 32.3653C20.3036 32.579 19.6997 32.2989 19.5178 31.7531L19.4278 31.4831C19.3787 31.3359 19.2987 31.1971 19.1754 31.1028C17.6304 29.9207 15.5864 32.771 14.7428 34.3426C14.4816 34.8292 13.91 35.3697 13.4857 35.7233C13.277 35.8973 13.0544 36.1105 12.828 36.3458C12.1536 37.0469 9.36228 37.2591 8.39569 37.3692C7.81109 37.4357 7.35315 37.7166 7.35315 38.2592C7.35315 39.0853 6.72121 40.5908 6.10991 41.8293C5.7809 42.4959 6.22645 43.3077 6.96869 43.3489L13.6578 43.7206C14.0354 43.7415 14.3531 43.441 14.3531 43.0628C14.3531 42.647 14.7335 42.3352 15.1411 42.4168L16.7664 42.7418C16.8241 42.7534 16.8803 42.7597 16.9392 42.761C24.9715 42.9282 41.4617 43.2592 43.8531 43.2592C46.8531 43.2592 55.3531 35.7592 54.3531 35.2592C53.3531 34.7592 50.3531 30.7592 50.8531 28.7592C51.3531 26.7592 48.8531 24.7592 48.8531 25.2592C48.8531 25.7592 44.8531 26.2592 42.8531 25.7592Z" fill="#21262A"/>
<path d="M22.144 26.9999L18.268 22.4159L21.928 18.5039H19.36L16.324 21.9599H16.288V18.5039H14.272V26.9999H16.288V23.0879H16.312L19.468 26.9999H22.144Z" fill="#21262A"/>
<path d="M30.8449 18.5039H28.4449L26.6329 21.6479L24.8209 18.5039H22.3369L25.5289 23.3999V26.9999H27.5809V23.3999L30.8449 18.5039Z" fill="#21262A"/>
<path fill-rule="evenodd" clip-rule="evenodd" d="M35.0194 20.8041C35.1277 20.2625 35.6546 19.9113 36.1961 20.0196C37.7297 20.3263 39.0397 21.3771 40.0732 22.2283C40.1584 22.2984 40.2418 22.3674 40.3237 22.4351C40.771 22.805 41.1731 23.1375 41.5699 23.4183C42.0395 23.7506 42.42 23.9494 42.7425 24.0301C43.5757 24.2383 44.9401 24.2512 46.1505 24.1302C46.745 24.0707 47.249 23.9841 47.5838 23.894C47.6295 23.8816 47.67 23.8698 47.7053 23.8587C47.7711 23.7682 47.8566 23.6821 47.9669 23.6074C48.2927 23.3865 48.6258 23.4155 48.7639 23.4375C49.0496 23.483 49.2925 23.6278 49.4308 23.7184C49.7599 23.934 50.1302 24.2746 50.4615 24.6795C51.0956 25.4545 51.8353 26.7819 51.4701 28.2427C51.4145 28.4654 51.4382 28.8697 51.6417 29.4664C51.8366 30.0375 52.1569 30.671 52.5378 31.2863C52.9168 31.8986 53.3383 32.4645 53.7158 32.899C53.9047 33.1164 54.0747 33.2919 54.2157 33.4204C54.2859 33.4844 54.3436 33.5319 54.3882 33.5651C54.4352 33.6002 54.4541 33.6092 54.4472 33.6058C54.6675 33.7159 54.8613 33.9002 54.9763 34.1524C55.0833 34.3871 55.0906 34.6111 55.0751 34.7697C55.0464 35.0627 54.9218 35.316 54.8301 35.4786C54.6309 35.8319 54.3077 36.2328 53.9431 36.6338C53.1962 37.4554 52.0938 38.4741 50.8821 39.4626C49.6688 40.4524 48.3144 41.4376 47.0556 42.1814C46.4265 42.5532 45.8043 42.8748 45.2234 43.106C44.6573 43.3314 44.0594 43.5002 43.5 43.5002C41.0863 43.5002 24.4697 43.1664 16.4792 43C16.4203 42.9987 16.3616 42.9923 16.3039 42.9808L15 42.72V43.0002C15 43.275 14.8869 43.5378 14.6872 43.7266C14.4876 43.9155 14.219 44.0139 13.9445 43.9987L4.94453 43.4987C4.59849 43.4794 4.28707 43.2824 4.1215 42.9779C3.95592 42.6735 3.95981 42.305 4.13176 42.0041C4.45112 41.4452 4.934 40.5275 5.33357 39.6125C5.53337 39.155 5.70582 38.7129 5.82667 38.3257C5.95314 37.9205 6 37.6467 6 37.5002C6 36.6294 6.55399 36.0721 7.15296 35.8154C7.70338 35.5795 8.34055 35.5565 8.89142 35.6352C9.45117 35.7152 10.0489 35.9179 10.5344 36.2646C10.5403 36.2688 10.5462 36.2731 10.5522 36.2774C10.8569 35.8967 11.1911 35.5003 11.5266 35.1356C11.8779 34.7538 12.2532 34.382 12.6136 34.0978C12.7936 33.9558 12.9917 33.8183 13.1988 33.7124C13.2044 33.7095 13.2101 33.7066 13.2158 33.7038C13.2166 33.7019 13.2174 33.7001 13.2182 33.6983C13.3202 33.4678 13.4607 33.1905 13.6288 32.8922C13.964 32.2971 14.4358 31.5708 14.9851 30.9186C15.5168 30.2871 16.2012 29.6278 16.9795 29.2926C17.3838 29.1186 17.8543 29.0145 18.3558 29.0879C18.8685 29.163 19.3249 29.4109 19.7071 29.7931C19.8169 29.9029 19.8996 30.0367 19.9487 30.184L20.1133 30.6778L21.6286 30.0717C21.6853 30.049 21.744 30.0316 21.8039 30.0196L24.1726 29.5459L26.0528 28.6058C26.3586 28.4529 26.7213 28.4668 27.0145 28.6427C27.3823 28.8634 27.9076 29.1579 28.3565 29.3715C28.3773 29.3256 28.3988 29.2787 28.4209 29.2311C28.6322 28.7754 28.9204 28.1963 29.2349 27.582C29.8652 26.3508 30.6196 24.9426 31.1221 24.0213C31.2973 23.7001 31.6341 23.5002 32 23.5002C32.3872 23.5002 32.9938 23.4765 33.5376 23.408C33.8111 23.3736 34.0418 23.3311 34.2106 23.2839C34.2496 23.273 34.2804 23.2632 34.304 23.255C34.3224 23.2196 34.3484 23.1662 34.3807 23.0899C34.4606 22.9013 34.5456 22.6549 34.6299 22.3747C34.7977 21.8165 34.9406 21.1983 35.0194 20.8041ZM28.9342 29.6048C28.9328 29.6045 28.9313 29.6042 28.9298 29.6038C28.949 29.6064 28.952 29.6086 28.9342 29.6048ZM13 41.9431V41.5002C13 41.2006 13.1343 40.9168 13.366 40.7269C13.5977 40.5369 13.9023 40.4609 14.1961 40.5196L16.6093 41.0023C24.6518 41.1697 41.1225 41.5002 43.5 41.5002C43.6906 41.5002 44.0146 41.4346 44.4836 41.2479C44.9379 41.067 45.4641 40.7988 46.0381 40.4596C47.1856 39.7815 48.4562 38.8605 49.6179 37.9128C50.7812 36.9638 51.8038 36.0138 52.4632 35.2885C52.6107 35.1261 52.732 34.9838 52.829 34.8623C52.6133 34.6624 52.4016 34.4358 52.2061 34.2108C51.7555 33.6922 51.2707 33.0392 50.8372 32.339C50.4056 31.6418 50.0072 30.8692 49.7489 30.1122C49.4993 29.3807 49.3355 28.5349 49.5299 27.7577C49.6647 27.2184 49.4044 26.5459 48.9135 25.9459C48.818 25.8292 48.7238 25.7281 48.6374 25.644C48.4653 25.7192 48.2794 25.7779 48.1037 25.8252C47.626 25.9538 47.005 26.0547 46.3495 26.1202C45.0599 26.2492 43.4243 26.262 42.2575 25.9703C41.58 25.801 40.9605 25.4373 40.4145 25.0508C39.9507 24.7226 39.4809 24.3338 39.0361 23.9657C38.9572 23.9004 38.879 23.8357 38.8018 23.7721C38.0575 23.1592 37.3837 22.6391 36.7239 22.309C36.669 22.521 36.6089 22.7386 36.5451 22.9507C36.4502 23.2664 36.3415 23.5886 36.2224 23.8699C36.1189 24.1141 35.9553 24.4591 35.7071 24.7073C35.4106 25.0038 35.0028 25.1392 34.7488 25.2102C34.4477 25.2943 34.1097 25.3518 33.7874 25.3924C33.3866 25.4428 32.9684 25.4721 32.602 25.4871C32.1285 26.363 31.5286 27.4904 31.0151 28.4934C30.7046 29.0999 30.4303 29.6521 30.2353 30.0725C30.1372 30.2841 30.065 30.45 30.0192 30.5669C30.0063 30.6 29.9971 30.625 29.9909 30.6429C29.9685 30.8173 29.902 31.013 29.7569 31.1914C29.5765 31.4131 29.3511 31.514 29.1865 31.5583C28.8999 31.6353 28.636 31.5861 28.5189 31.5612C28.2359 31.5011 27.9179 31.3708 27.6476 31.2476C27.2621 31.0718 26.8344 30.8448 26.4644 30.636L24.9472 31.3946C24.8677 31.4344 24.7833 31.4633 24.6961 31.4808L22.2861 31.9628L19.8714 32.9287C19.6157 33.031 19.3291 33.0232 19.0793 32.9074C18.8294 32.7915 18.6384 32.5777 18.5513 32.3164L18.1433 31.0922C18.1081 31.0745 18.0824 31.0692 18.0661 31.0668C18.0207 31.0601 17.9287 31.0615 17.7705 31.1296C17.4238 31.2789 16.9832 31.6508 16.5149 32.2068C16.0642 32.7421 15.661 33.3595 15.3712 33.8738C15.2268 34.1302 15.1173 34.3489 15.0474 34.5072C15.0184 34.5727 14.9997 34.6199 14.9889 34.65C14.9218 35.0967 14.5592 35.4467 14.1064 35.4946C14.0548 35.5214 13.9702 35.575 13.852 35.6682C13.6114 35.858 13.3179 36.1425 12.9984 36.4897C12.3636 37.1798 11.7146 38.0202 11.3137 38.5814C11.0611 38.9352 10.6088 39.0852 10.1948 38.9525C9.78528 38.8212 9.50603 38.4431 9.5001 38.0141C9.48965 37.9953 9.45782 37.9534 9.37189 37.8921C9.20106 37.77 8.92383 37.6602 8.60858 37.6151C8.33269 37.5757 8.11933 37.5985 7.99667 37.6341C7.97642 38.0517 7.86613 38.5041 7.73583 38.9216C7.58585 39.4021 7.3833 39.9163 7.16643 40.4129C6.99104 40.8145 6.80201 41.2144 6.61609 41.5884L13 41.9431ZM9.50448 38.0256C9.50399 38.0256 9.50246 38.0226 9.50133 38.0164C9.50439 38.0224 9.50496 38.0255 9.50448 38.0256ZM14.1377 35.4802C14.1376 35.4803 14.1355 35.4813 14.1313 35.4827C14.1356 35.4808 14.1378 35.4801 14.1377 35.4802ZM14.9763 34.6891C14.976 34.6893 14.9773 34.6842 14.981 34.6729C14.9784 34.6832 14.9766 34.6889 14.9763 34.6891ZM29.9811 30.6724C29.9813 30.6717 29.9816 30.6708 29.9819 30.6698C29.9781 30.6856 29.9765 30.6878 29.9811 30.6724ZM48.2916 25.3658C48.2915 25.3655 48.295 25.3671 48.3024 25.3713C48.2954 25.3681 48.2917 25.366 48.2916 25.3658ZM53.1125 34.4478C53.1127 34.4477 53.1119 34.4497 53.1099 34.4541C53.1114 34.45 53.1124 34.4479 53.1125 34.4478Z" fill="#21262A"/>
</svg>
