<svg width="24" height="24" viewBox="0 0 24 24" fill="none" xmlns="http://www.w3.org/2000/svg">
    <path fill-rule="evenodd" clip-rule="evenodd" d="M14.4785 8.00778C14.2619 7.96446 14.0512 8.10495 14.0079 8.32157C13.9763 8.47927 13.9192 8.72653 13.852 8.94983C13.8183 9.06189 13.7843 9.16048 13.7524 9.2359C13.7395 9.2664 13.7291 9.28777 13.7217 9.30195C13.7123 9.30523 13.7 9.30916 13.6843 9.31352C13.6168 9.33238 13.5245 9.34938 13.4151 9.36315C13.1976 9.39053 12.955 9.40002 12.8001 9.40002C12.6537 9.40002 12.519 9.47997 12.4489 9.60848C12.2479 9.97699 11.9462 10.5403 11.694 11.0327C11.5683 11.2785 11.453 11.5101 11.3685 11.6924L11.3427 11.7485C11.1631 11.6631 10.953 11.5453 10.8059 11.457C10.6886 11.3867 10.5435 11.3811 10.4212 11.4422L9.66912 11.8183L8.72165 12.0078C8.69769 12.0126 8.67423 12.0196 8.65154 12.0286L8.04542 12.2711L7.97957 12.0735C7.95993 12.0146 7.92685 11.9611 7.88294 11.9172C7.73005 11.7643 7.54748 11.6651 7.34243 11.6351C7.14183 11.6057 6.95361 11.6474 6.79191 11.717C6.48057 11.851 6.20683 12.1148 5.99413 12.3674C5.77442 12.6283 5.58569 12.9188 5.4516 13.1568C5.38437 13.2761 5.32816 13.3871 5.2874 13.4793L5.28643 13.4814L5.27963 13.4849C5.19676 13.5273 5.11755 13.5823 5.04554 13.639C4.90138 13.7527 4.75125 13.9014 4.61072 14.0542C4.47654 14.2001 4.34287 14.3586 4.22097 14.5109L4.21384 14.5058C4.01967 14.3671 3.78056 14.286 3.55667 14.254C3.33632 14.2226 3.08145 14.2318 2.86128 14.3261C2.6217 14.4288 2.4001 14.6517 2.4001 15C2.4001 15.0586 2.38135 15.1681 2.33076 15.3302C2.28242 15.4851 2.21345 15.6619 2.13352 15.8449C1.9737 16.2109 1.78055 16.578 1.6528 16.8016C1.58402 16.9219 1.58247 17.0693 1.6487 17.1911C1.71493 17.3129 1.83949 17.3917 1.97791 17.3994L5.57791 17.5994C5.68768 17.6055 5.79512 17.5661 5.87498 17.4906C5.95485 17.415 6.0001 17.31 6.0001 17.2V17.0879L6.52165 17.1922C6.54475 17.1969 6.56821 17.1994 6.59177 17.1999C9.78797 17.2665 16.4346 17.4 17.4001 17.4C17.6238 17.4 17.863 17.3325 18.0895 17.2424C18.3218 17.1498 18.5707 17.0212 18.8223 16.8725C19.3258 16.575 19.8676 16.1809 20.3529 15.785C20.8376 15.3896 21.2786 14.9821 21.5773 14.6535C21.7232 14.493 21.8525 14.3327 21.9321 14.1914C21.9688 14.1263 22.0187 14.025 22.0301 13.9078C22.0363 13.8444 22.0334 13.7548 21.9906 13.6609C21.9446 13.56 21.8671 13.4863 21.779 13.4422C21.7817 13.4436 21.7742 13.44 21.7554 13.426C21.7375 13.4127 21.7145 13.3937 21.6864 13.3681C21.63 13.3167 21.562 13.2465 21.4864 13.1595C21.3354 12.9857 21.1668 12.7594 21.0152 12.5145C20.8628 12.2684 20.7347 12.0149 20.6568 11.7865C20.5754 11.5478 20.5659 11.3861 20.5882 11.297C20.7342 10.7127 20.4383 10.1817 20.1847 9.87172C20.0522 9.70976 19.904 9.57353 19.7724 9.48731C19.7171 9.45106 19.6199 9.39315 19.5056 9.37493C19.4504 9.36612 19.3172 9.35454 19.1868 9.44289C19.1428 9.47277 19.1086 9.50723 19.0822 9.54342C19.0681 9.54787 19.0519 9.55259 19.0336 9.55752C18.8997 9.59358 18.6981 9.62822 18.4603 9.652C17.9761 9.70042 17.4304 9.69527 17.0971 9.61196C16.9681 9.57971 16.8159 9.50019 16.628 9.36726C16.4693 9.25495 16.3085 9.12196 16.1296 8.97401L16.0294 8.89124C15.616 8.55079 15.092 8.13047 14.4785 8.00778ZM11.5738 11.8419L11.572 11.8415C11.5797 11.8425 11.5809 11.8434 11.5738 11.8419Z" fill="#21262A"/>
</svg>
