<svg width="60" height="60" viewBox="0 0 60 60" fill="none" xmlns="http://www.w3.org/2000/svg">
<path d="M33.1545 8.16357H6.83154C5.83153 8.16357 5.83156 16.6636 6.83154 19.6636C7.83153 22.6636 9.83156 22.1636 10.8316 28.1636C11.8316 34.1636 7.83156 34.6636 8.83154 37.1636C9.83153 39.6636 8.83154 42.6636 8.33154 42.6636C7.83154 42.6636 4.83154 45.6636 8.83154 45.1636C12.8315 44.6636 19.8315 45.6636 21.3315 46.6636C22.8315 47.6636 23.3315 47.1636 25.8315 47.1636C28.3315 47.1636 25.3315 45.6636 24.3315 45.6636C23.3315 45.6636 22.8315 42.6636 27.3315 43.6636C31.8315 44.6636 31.8315 47.6636 32.3315 49.1636C32.8315 50.6636 34.8315 51.6636 38.8315 50.1636C42.8315 48.6636 40.8315 50.6636 42.8315 51.1636C44.8315 51.6636 43.3315 47.6636 45.8315 47.6636C48.3315 47.6636 47.8315 49.1636 50.8315 51.1636C53.8315 53.1636 55.3315 50.1636 53.8315 49.1636C52.3315 48.1636 48.3315 46.6636 47.8315 45.6636C47.3315 44.6636 51.3315 43.6636 52.3315 43.6636C53.3315 43.6636 52.3315 39.6636 49.8315 41.1636C47.3315 42.6636 46.8315 42.6636 46.8315 41.6636C46.8315 40.6636 48.3315 37.1636 46.8315 36.1636C45.8407 35.503 45.6907 35.0242 45.7624 34.7836C45.7889 34.6945 45.8557 34.6203 45.9004 34.5389C47.8199 31.0427 47.3257 30.1636 46.8315 30.1636C41.9982 30.3302 31.9315 30.6636 30.3315 30.6636C28.3315 30.6636 30.3315 24.6636 30.3315 23.1636C30.3315 21.6636 31.3315 22.1636 33.8315 18.6636C36.3315 15.1636 32.8315 13.6636 33.8315 12.1636C34.4668 11.2107 34.3034 9.77449 34.0422 8.8061C33.9358 8.4113 33.5634 8.16357 33.1545 8.16357Z" fill="#21262A"/>
<path fill-rule="evenodd" clip-rule="evenodd" d="M6.83154 12.7886C6.83155 15.2746 7.08474 18.0109 7.53023 19.3474C7.84668 20.2967 8.23026 20.7627 8.75237 21.3969C8.94256 21.628 9.15114 21.8814 9.38154 22.1886C10.2415 23.3352 11.0457 24.8656 11.568 27.9992C11.8367 29.6116 11.7768 30.903 11.5237 31.9786C11.2704 33.0553 10.8353 33.8637 10.427 34.5101C10.3051 34.7032 10.1699 34.9051 10.051 35.0827C9.98607 35.1797 9.92596 35.2695 9.8755 35.3467C9.71445 35.5929 9.60221 35.7824 9.52661 35.9525C9.40208 36.2327 9.37348 36.4508 9.51002 36.7922C10.0989 38.2644 10.088 39.8393 9.87882 41.0249C9.77371 41.6205 9.61131 42.1602 9.41854 42.5762C9.32432 42.7795 9.20442 42.9936 9.05229 43.1742C8.96346 43.2796 8.72013 43.5494 8.33146 43.6362C8.26808 43.6802 8.17733 43.7527 8.07343 43.851C7.96186 43.9565 7.85029 44.0774 7.75468 44.2004C7.74967 44.2068 7.74474 44.2132 7.73989 44.2196C7.92104 44.2217 8.15667 44.2089 8.45751 44.1713C10.576 43.9065 13.4198 44.0417 15.8962 44.3592C17.142 44.5189 18.3206 44.728 19.2949 44.9654C20.225 45.1921 21.1001 45.4741 21.6362 45.8315C22.236 46.2314 22.5452 46.2886 22.9565 46.2886C22.9961 46.2886 23.0362 46.288 23.0774 46.2869C22.847 46.0894 22.6811 45.8418 22.5807 45.6141C22.3541 45.1005 22.3236 44.4434 22.6246 43.8414C23.2747 42.5413 24.9758 42.1712 27.2985 42.6874C29.7881 43.2406 31.1624 44.3913 31.9435 45.7191C32.3187 46.3569 32.5342 46.9974 32.6859 47.5451C32.7471 47.7662 32.8006 47.9826 32.8476 48.1729C32.8581 48.2153 32.8682 48.2564 32.8781 48.296C32.9348 48.524 32.9814 48.7008 33.0302 48.8473C33.1613 49.2405 33.4937 49.6377 34.2481 49.8152C35.0453 50.0027 36.3311 49.9395 38.2304 49.2272C39.2404 48.8485 39.9952 48.6397 40.5744 48.6174C40.8806 48.6057 41.1993 48.6426 41.4997 48.7824C41.815 48.9292 42.0236 49.1489 42.1636 49.3589C42.2741 49.5247 42.3532 49.706 42.3956 49.8031C42.3997 49.8125 42.4034 49.821 42.4068 49.8287C42.458 49.9448 42.4825 49.9935 42.5073 50.0308C42.5079 50.0317 42.5086 50.0328 42.5094 50.0341C42.5207 50.0527 42.5568 50.1124 42.7413 50.1703C42.7536 50.1315 42.7672 50.0846 42.7817 50.028C42.8185 49.884 42.8491 49.7298 42.8867 49.5395C42.8952 49.4966 42.9041 49.4518 42.9135 49.405C43.0022 48.9611 43.1389 48.2847 43.5046 47.7302C43.9332 47.0803 44.6229 46.6636 45.5815 46.6636C46.3062 46.6636 46.906 46.7723 47.4348 47.0308C47.9596 47.2874 48.3281 47.651 48.6373 47.9946C48.7425 48.1114 48.8453 48.2308 48.9506 48.353C49.45 48.9328 50.0056 49.5778 51.1362 50.3315C51.7626 50.7491 52.2179 50.844 52.4979 50.8359C52.7669 50.8281 52.9296 50.7265 53.0257 50.6196C53.2715 50.3465 53.1624 50.086 53.0268 49.9956C52.5275 49.6627 51.7154 49.2666 50.7956 48.8178C50.4611 48.6547 50.1124 48.4846 49.7593 48.308C49.1298 47.9932 48.4979 47.662 47.984 47.3365C47.7268 47.1736 47.4785 46.9993 47.2668 46.8161C47.0674 46.6434 46.8359 46.4083 46.6871 46.1108C46.4643 45.6651 46.5108 45.2019 46.7016 44.8321C46.8671 44.5112 47.1266 44.2802 47.3426 44.1222C47.7827 43.8001 48.3778 43.5427 48.9362 43.3456C49.5135 43.1419 50.1331 42.9747 50.6757 42.8579C50.9293 42.8032 51.1836 42.7557 51.4194 42.7214C51.3872 42.5981 51.3365 42.4606 51.2636 42.3252C51.116 42.0511 50.9447 41.9067 50.8108 41.8556C50.7217 41.8216 50.5116 41.7718 50.096 42.0211C49.4629 42.4009 48.9346 42.6992 48.4983 42.9131C48.0816 43.1173 47.6674 43.2865 47.2855 43.341C46.8688 43.4005 46.281 43.3396 45.8923 42.8096C45.6 42.4111 45.5815 41.9294 45.5815 41.6636C45.5815 41.275 45.7096 40.7461 45.8126 40.3204L45.8205 40.2878C45.8306 40.2463 45.8407 40.2046 45.8508 40.1627C45.9623 39.7032 46.0784 39.2247 46.1576 38.7492C46.2454 38.2228 46.273 37.7801 46.2247 37.4479C46.1779 37.1254 46.0815 37.0321 46.0268 36.9956C45.3611 36.5518 44.8987 36.0952 44.6659 35.6054C44.4462 35.1433 44.4103 34.5537 44.7517 34.0979C45.571 32.6114 45.8926 31.698 45.9919 31.1844C40.9771 31.3562 31.637 31.6636 30.0815 31.6636C29.5418 31.6636 29.0665 31.443 28.7336 31.0363C28.4375 30.6748 28.3104 30.2357 28.2504 29.8606C28.1305 29.1117 28.2158 28.1834 28.3423 27.3295C28.4562 26.5611 28.6197 25.7567 28.7617 25.0579C28.7817 24.9598 28.8012 24.8638 28.8201 24.7702C28.9856 23.9512 29.0815 23.4138 29.0815 23.1636C29.0815 22.667 29.1668 22.2213 29.4221 21.8008C29.6423 21.4382 29.9583 21.1573 30.2151 20.9291L30.2297 20.9162C30.2529 20.8956 30.2765 20.8746 30.3008 20.8531C30.8381 20.3767 31.6313 19.6735 32.7678 18.0823C33.3061 17.3288 33.4716 16.7559 33.4974 16.3229C33.5235 15.8847 33.413 15.4875 33.2279 15.0644C33.1445 14.8737 33.0536 14.694 32.953 14.4952C32.9384 14.4662 32.9235 14.4368 32.9084 14.4069C32.7976 14.1872 32.6688 13.9281 32.572 13.663C32.3664 13.1004 32.2526 12.3542 32.7495 11.6089C32.968 11.2811 33.0607 10.7573 33.0096 10.104C32.9835 9.77043 32.9231 9.44546 32.8521 9.16357H7.10575C7.07346 9.29813 7.03996 9.47099 7.00824 9.68512C6.89336 10.4606 6.83154 11.5625 6.83154 12.7886ZM26.0205 46.1323C26.0193 46.1326 26.0179 46.1329 26.0165 46.1333C26.0407 46.1243 26.0458 46.1256 26.0205 46.1323ZM5.65065 7.60416C5.81566 7.41412 6.1267 7.16357 6.58154 7.16357H33.5815C33.9904 7.16357 34.3582 7.41253 34.51 7.79218C34.7091 8.28977 34.9363 9.08862 35.0035 9.9481C35.0691 10.7865 34.9951 11.8461 34.4136 12.7183C34.4133 12.7187 34.4127 12.7191 34.4119 12.7196C34.4028 12.7253 34.367 12.7481 34.4505 12.9766C34.5021 13.1178 34.5803 13.2805 34.6941 13.5062C34.7075 13.5328 34.7214 13.5602 34.7357 13.5884C34.8346 13.7837 34.9526 14.0168 35.0602 14.2628C35.3126 14.8396 35.5459 15.5675 35.4938 16.4417C35.4415 17.3212 35.107 18.2484 34.3953 19.2448C33.1296 21.0168 32.2127 21.8303 31.6223 22.3543C31.6005 22.3736 31.5793 22.3925 31.5584 22.411C31.2552 22.6805 31.1729 22.7709 31.1316 22.8388C31.1313 22.8394 31.1308 22.8401 31.1304 22.8409C31.1184 22.8601 31.0815 22.9195 31.0815 23.1636C31.0815 23.6633 30.9275 24.4384 30.7805 25.1663C30.7609 25.2631 30.7411 25.361 30.721 25.4597C30.578 26.1637 30.4261 26.9113 30.3207 27.6226C30.1972 28.4562 30.1576 29.1217 30.2252 29.5446C30.2328 29.5922 30.241 29.6312 30.2488 29.6627C32.2657 29.6435 41.8464 29.3263 46.5471 29.1642C46.5586 29.1638 46.5701 29.1636 46.5815 29.1636C47.0411 29.1636 47.4961 29.3896 47.7708 29.839C48.0146 30.238 48.056 30.7111 48.0148 31.1558C47.9363 32.0037 47.514 33.2024 46.5934 34.8984C46.5979 34.903 46.6025 34.9077 46.6072 34.9125C46.7118 35.0185 46.8786 35.1598 47.1362 35.3315C47.8315 35.7951 48.1102 36.5142 48.204 37.1605C48.2964 37.797 48.2302 38.4794 48.1304 39.078C48.0385 39.6297 47.9052 40.1783 47.796 40.6279C47.7852 40.6723 47.7747 40.7157 47.7644 40.7581C47.735 40.8797 47.7095 40.9875 47.6877 41.0826C48.0387 40.9066 48.4892 40.6528 49.067 40.3061C49.9015 39.8054 50.7538 39.693 51.5242 39.9872C52.2497 40.2642 52.7346 40.8386 53.0245 41.377C53.3139 41.9145 53.4763 42.5372 53.4641 43.0842C53.4582 43.3501 53.4091 43.6942 53.2226 44.0068C53.0073 44.3679 52.6111 44.6636 52.0815 44.6636C51.9429 44.6636 51.5914 44.7065 51.0968 44.813C50.6237 44.9149 50.0871 45.0603 49.6019 45.2316C49.3153 45.3327 49.0709 45.4345 48.8766 45.5305C48.9309 45.5675 48.99 45.6063 49.0541 45.6469C49.4776 45.9151 50.0333 46.2089 50.6538 46.5191C50.9372 46.6609 51.2387 46.8078 51.5447 46.957C52.5079 47.4264 53.5146 47.9171 54.1362 48.3315C55.5007 49.2412 55.3916 50.9806 54.5123 51.9575C54.046 52.4757 53.3649 52.8116 52.5558 52.835C51.7577 52.8582 50.9005 52.578 50.0268 51.9956C48.6532 51.0799 47.9228 50.2283 47.4153 49.6365C47.3202 49.5256 47.233 49.4239 47.1507 49.3325C46.8975 49.0511 46.7347 48.9148 46.5564 48.8276C46.382 48.7423 46.1068 48.6636 45.5815 48.6636C45.2901 48.6636 45.2299 48.7468 45.1741 48.8314C45.0555 49.0112 44.9733 49.3036 44.8746 49.7972C44.8675 49.8328 44.8602 49.87 44.8526 49.9083C44.8148 50.1001 44.7712 50.3208 44.7193 50.5237C44.6572 50.7665 44.5648 51.0627 44.4038 51.3356C44.2345 51.6228 43.9662 51.9217 43.5505 52.0864C43.1433 52.2478 42.7222 52.2295 42.339 52.1337C41.6124 51.9521 41.1457 51.5938 40.8432 51.1401C40.7131 50.9449 40.6286 50.7532 40.5781 50.6385L40.5708 50.6219C40.3109 50.6491 39.821 50.7668 38.9327 51.0999C36.832 51.8876 35.1178 52.0744 33.79 51.762C32.4194 51.4395 31.5018 50.5866 31.1329 49.4798C31.0567 49.2514 30.9939 49.0063 30.9373 48.7792C30.9259 48.7332 30.9146 48.6877 30.9035 48.6425C30.8568 48.4538 30.8115 48.2704 30.7584 48.0789C30.6289 47.611 30.4694 47.1578 30.2196 46.7331C29.7506 45.9359 28.875 45.0865 26.8646 44.6398C25.825 44.4087 25.1803 44.4346 24.8131 44.5251C24.6349 44.5691 24.5347 44.625 24.4831 44.6629C24.4682 44.6738 24.4565 44.6839 24.4471 44.6929C24.7836 44.7428 25.1359 44.8497 25.4342 44.9593C25.8676 45.1185 26.3341 45.3384 26.6987 45.5815C26.8739 45.6983 27.0824 45.8575 27.2459 46.059C27.3761 46.2196 27.7058 46.6968 27.4745 47.2916C27.2616 47.839 26.745 48.0095 26.5313 48.066C26.2543 48.1391 25.9286 48.1636 25.5815 48.1636C24.9915 48.1636 24.5189 48.1929 24.1085 48.2233C24.0434 48.2282 23.9781 48.2332 23.9129 48.2382C23.5845 48.2634 23.2574 48.2886 22.9565 48.2886C22.1179 48.2886 21.4271 48.0958 20.5268 47.4956C20.313 47.353 19.7506 47.135 18.8213 46.9086C17.9363 46.6929 16.8336 46.4957 15.6419 46.343C13.2433 46.0354 10.587 45.9207 8.70558 46.1559C8.1594 46.2241 7.68357 46.2395 7.27784 46.1933C6.88164 46.1481 6.47106 46.0351 6.1348 45.7757C5.76219 45.4882 5.56621 45.086 5.5362 44.6631C5.50922 44.2829 5.61826 43.9412 5.73368 43.6873C5.9641 43.1803 6.36094 42.7179 6.69903 42.398C6.87443 42.2321 7.06168 42.0783 7.24225 41.9584C7.33169 41.899 7.43643 41.8366 7.54978 41.7855C7.56095 41.7805 7.57372 41.7748 7.58798 41.7688C7.59305 41.7584 7.59837 41.7473 7.60392 41.7353C7.70802 41.5107 7.82686 41.1442 7.90925 40.6773C8.07504 39.7378 8.06418 38.5628 7.65306 37.535C7.28962 36.6263 7.38602 35.8444 7.69899 35.1402C7.84215 34.8181 8.02678 34.5194 8.20168 34.252C8.27819 34.135 8.3487 34.0299 8.41755 33.9273C8.52247 33.7709 8.62353 33.6203 8.73607 33.4421C9.07782 32.901 9.39274 32.3031 9.57689 31.5205C9.76132 30.7367 9.82643 29.7156 9.59517 28.328C9.11743 25.4615 8.42157 24.2419 7.78155 23.3886C7.6422 23.2028 7.4882 23.0167 7.32668 22.8216C6.74973 22.1246 6.07683 21.3117 5.63286 19.9798C5.07836 18.3163 4.83155 15.3025 4.83154 12.7886C4.83154 11.5147 4.89472 10.304 5.02983 9.39203C5.09602 8.94526 5.18736 8.5129 5.32285 8.16854C5.38911 8.00013 5.48999 7.7892 5.65065 7.60416Z" fill="#21262A"/>
<path d="M18.0402 21.1635V19.3755H14.7522V12.6675H12.6882V21.1635H18.0402Z" fill="#21262A"/>
<path d="M27.5246 21.1635L23.9966 12.6675H22.0046L18.4406 21.1635H20.6726L21.2966 19.4955H24.5846L25.2446 21.1635H27.5246ZM24.0206 17.8515H21.8846L22.9646 14.9355L24.0206 17.8515Z" fill="#21262A"/>
</svg>
