<svg width="24" height="24" viewBox="0 0 24 24" fill="none" xmlns="http://www.w3.org/2000/svg">
    <path fill-rule="evenodd" clip-rule="evenodd" d="M2.63262 2.86543C2.45068 2.86543 2.32626 2.96565 2.26026 3.04167C2.196 3.11568 2.15564 3.20005 2.12914 3.26742C2.07494 3.40516 2.03841 3.57811 2.01193 3.75681C1.95789 4.12162 1.93262 4.60586 1.93262 5.11543C1.93262 6.12102 2.03135 7.32652 2.25314 7.99192C2.43073 8.52469 2.69989 8.84986 2.93067 9.12865C2.99527 9.20669 3.05689 9.28112 3.11262 9.35543C3.36863 9.69678 3.64697 10.1846 3.83807 11.3312C3.93057 11.8862 3.90453 12.2947 3.83076 12.6082C3.75709 12.9213 3.63113 13.1604 3.49443 13.3768C3.44941 13.4481 3.40899 13.5084 3.36702 13.5709C3.33948 13.612 3.31127 13.654 3.28067 13.7008C3.21071 13.8078 3.13686 13.9273 3.0796 14.0561C2.95441 14.3378 2.91585 14.6505 3.06123 15.014C3.22567 15.4251 3.23002 15.8951 3.1637 16.2709C3.13075 16.4577 3.08321 16.6043 3.04157 16.6941L3.03519 16.7075L3.01991 16.7142C2.97457 16.7347 2.93268 16.7596 2.8969 16.7834C2.82467 16.8313 2.74977 16.8929 2.67961 16.9592C2.54438 17.0871 2.38564 17.2721 2.29347 17.4749C2.24731 17.5765 2.20369 17.7132 2.21448 17.8652C2.22648 18.0344 2.30488 18.1953 2.45392 18.3103C2.58843 18.414 2.75266 18.4592 2.91114 18.4773C3.07343 18.4958 3.26376 18.4897 3.48223 18.4623C4.23482 18.3683 5.29731 18.4142 6.25675 18.5372C6.73343 18.5983 7.17451 18.6772 7.52854 18.7634C7.90023 18.854 8.12518 18.9412 8.21074 18.9983C8.57083 19.2383 8.84716 19.3154 9.18262 19.3154C9.30296 19.3154 9.43379 19.3054 9.56514 19.2953L9.64342 19.2893C9.80757 19.2772 9.99662 19.2654 10.2326 19.2654C10.3714 19.2654 10.5017 19.2557 10.6125 19.2264C10.698 19.2038 10.9046 19.1356 10.9898 18.9167C11.0823 18.6787 10.9504 18.4878 10.8984 18.4236C10.833 18.343 10.7495 18.2793 10.6795 18.2326C10.5336 18.1354 10.347 18.0474 10.1737 17.9837C10.0544 17.9399 9.91346 17.8971 9.77886 17.8771C9.78259 17.8735 9.78729 17.8695 9.79323 17.8652C9.81389 17.85 9.85396 17.8276 9.92525 17.8101C10.0721 17.7738 10.33 17.7635 10.7458 17.8559C11.55 18.0346 11.9003 18.3743 12.0878 18.6932C12.1878 18.8631 12.2515 19.0444 12.3034 19.2316C12.3246 19.3082 12.3427 19.3815 12.3614 19.4569L12.3749 19.5117C12.3975 19.6025 12.4227 19.7006 12.4531 19.7919C12.6007 20.2346 12.9678 20.5758 13.516 20.7048C14.0471 20.8298 14.7328 20.7551 15.5731 20.44C15.9284 20.3067 16.1244 20.2596 16.2283 20.2488L16.2312 20.2554C16.2514 20.3013 16.2852 20.378 16.3373 20.4561C16.4583 20.6375 16.6449 20.7808 16.9356 20.8535C17.0889 20.8918 17.2573 20.8991 17.4202 20.8346C17.5865 20.7687 17.6938 20.6491 17.7615 20.5343C17.8259 20.4251 17.8629 20.3066 17.8877 20.2095C17.9085 20.1283 17.9259 20.04 17.941 19.9633L17.9499 19.9189C17.9893 19.7214 18.0222 19.6045 18.0697 19.5325C18.092 19.4987 18.1161 19.4654 18.2326 19.4654C18.4427 19.4654 18.5528 19.4969 18.6226 19.531C18.6939 19.5659 18.759 19.6205 18.8603 19.733C18.8932 19.7695 18.9281 19.8102 18.9661 19.8546C19.1691 20.0913 19.4613 20.432 20.0107 20.7983C20.3602 21.0312 20.7031 21.1433 21.0223 21.134C21.346 21.1246 21.6184 20.9903 21.8049 20.783C22.1566 20.3922 22.2003 19.6965 21.6545 19.3326C21.4059 19.1669 21.0032 18.9706 20.618 18.7828C20.4956 18.7232 20.3749 18.6643 20.2615 18.6077C20.0133 18.4836 19.7911 18.3661 19.6216 18.2588C19.596 18.2425 19.5724 18.227 19.5506 18.2122C19.6284 18.1738 19.7261 18.1331 19.8407 18.0926C20.0349 18.0241 20.2495 17.966 20.4387 17.9252C20.6366 17.8826 20.7771 17.8654 20.8326 17.8654C21.0445 17.8654 21.2029 17.7472 21.2891 17.6027C21.3636 17.4777 21.3833 17.34 21.3856 17.2337C21.3905 17.0149 21.3256 16.7658 21.2098 16.5508C21.0938 16.3354 20.8999 16.1057 20.6097 15.9949C20.3015 15.8772 19.9606 15.9222 19.6268 16.1224C19.3957 16.2611 19.2155 16.3627 19.0751 16.433C19.0838 16.395 19.094 16.3519 19.1058 16.3032L19.1184 16.2512C19.1621 16.0713 19.2154 15.8518 19.2522 15.6312C19.2921 15.3918 19.3186 15.1188 19.2816 14.8642C19.2441 14.6057 19.1326 14.318 18.8545 14.1326C18.7515 14.0639 18.6847 14.0074 18.6429 13.965L18.6374 13.9594C19.0056 13.281 19.1745 12.8015 19.2059 12.4623C19.2224 12.2844 19.2058 12.0952 19.1083 11.9356C18.9984 11.7558 18.8165 11.6654 18.6326 11.6654L18.6188 11.6657C16.7386 11.7305 12.9063 11.8574 12.0995 11.8651C12.0964 11.8525 12.0931 11.8369 12.0901 11.8179C12.063 11.6487 12.0789 11.3825 12.1283 11.0491C12.1705 10.7645 12.2312 10.4655 12.2884 10.1839L12.3122 10.0665C12.371 9.77537 12.4326 9.46533 12.4326 9.26543C12.4326 9.16781 12.4474 9.14404 12.4522 9.13634C12.4686 9.10917 12.5021 9.07221 12.6234 8.9644L12.6489 8.94172C12.8851 8.73214 13.2518 8.40672 13.7581 7.69793C14.0428 7.29935 14.1766 6.92849 14.1975 6.5767C14.2184 6.22699 14.125 5.93585 14.0241 5.70511C13.981 5.60674 13.9338 5.51352 13.8943 5.43541L13.8777 5.40248C13.8321 5.31222 13.8008 5.24714 13.7802 5.19066C13.7468 5.09922 13.7611 5.09014 13.7647 5.08784C13.9973 4.73895 14.0276 4.3146 14.0014 3.97924C13.9745 3.63545 13.8836 3.31591 13.804 3.11688C13.7433 2.96501 13.5962 2.86543 13.4326 2.86543H2.63262ZM10.4066 18.4533L10.4082 18.4529C10.4124 18.4518 10.4145 18.4511 10.4148 18.4508C10.4153 18.4505 10.4123 18.4512 10.4066 18.4533Z" fill="#21262A"/>
</svg>
