<svg width="60" height="60" viewBox="0 0 60 60" fill="none" xmlns="http://www.w3.org/2000/svg">
<path d="M27.3177 10.1219C26.1461 9.33917 25.4943 7.57599 25.2761 6.64589C25.2499 6.53447 25.2087 6.42011 25.1405 6.32817C23.5935 4.24167 21.5693 12.7471 20.0431 13.7666C18.4843 14.808 18.4843 20.0148 17.4451 22.0976C16.4059 24.1803 14.3274 30.4285 12.7686 29.9078C11.2097 29.3871 10.1705 30.9492 10.6901 32.5112C11.2097 34.0733 11.2097 49.1731 11.2097 51.2558C11.2097 53.3385 12.7686 55.4212 13.8078 55.9419C14.847 56.4626 14.847 53.3385 15.3666 52.2972C15.8862 51.2558 16.4059 46.5696 19.0039 47.611C21.602 48.6524 29.3962 43.9662 27.8374 42.9249C26.7398 42.1917 26.9034 41.4047 27.1945 40.9899C27.2676 40.8857 27.3806 40.8142 27.4989 40.7672C30.9727 39.3846 31.4922 42.413 32.5139 42.9249C33.5531 43.4455 33.5531 41.3628 34.0727 40.3215C34.5923 39.2801 35.6316 39.2801 40.8277 37.718C46.0238 36.156 42.3865 31.4699 41.3473 31.9905C40.5678 32.3811 39.7274 32.1919 39.34 32.0237C39.2921 32.0028 39.2433 31.9724 39.2011 31.9415C35.7298 29.3936 43.3994 29.8979 39.2689 28.3458C35.1119 26.7837 36.1512 21.5769 36.1512 16.3701C36.1512 11.1632 35.6316 11.6839 34.0727 8.03914C32.5139 4.39436 28.8766 11.1632 27.3177 10.1219Z" fill="#21262A"/>
<path d="M42.7639 54.9999V46.5039H39.7999L37.9519 51.9519H37.9039L35.9719 46.5039H33.0559V54.9999H34.9879L34.9399 48.9879H34.9759L37.1239 54.9999H38.5639L40.7719 48.9879H40.8079L40.7599 54.9999H42.7639Z" fill="#21262A"/>
<path d="M50.4448 54.9999V53.2479H46.4968V51.4839H50.0248V49.8399H46.4968V48.2439H50.2288V46.5039H44.5168V54.9999H50.4448Z" fill="#21262A"/>
<path fill-rule="evenodd" clip-rule="evenodd" d="M21.4995 12.5753C21.2773 12.9331 20.9813 13.3425 20.5986 13.5982C20.4953 13.6672 20.2918 13.9154 20.0687 14.5476C19.8601 15.1386 19.6928 15.8885 19.5313 16.7301C19.4765 17.0158 19.4216 17.3164 19.3659 17.6213C19.2641 18.1789 19.1597 18.7509 19.0481 19.2728C18.8756 20.0793 18.6602 20.9021 18.3399 21.5441C18.1122 22.0003 17.8245 22.6862 17.4796 23.5081C17.459 23.5572 17.4382 23.6067 17.4172 23.6568C17.0527 24.5254 16.6376 25.5075 16.203 26.4121C15.7747 27.3035 15.2975 28.1838 14.7956 28.8196C14.5468 29.1348 14.2459 29.45 13.8897 29.6642C13.5164 29.8886 13.0063 30.0415 12.4517 29.8563C12.242 29.7862 12.1021 29.8011 12.0148 29.8287C11.9241 29.8574 11.8324 29.9183 11.7505 30.0277C11.5794 30.2562 11.4702 30.6882 11.639 31.1956C11.7475 31.5219 11.8101 32.0497 11.8578 32.5923C11.9093 33.1798 11.9527 33.9224 11.9895 34.7624C12.0632 36.4444 12.1121 38.5545 12.1446 40.6729C12.2097 44.9111 12.2097 49.2128 12.2097 50.2553V50.2558C12.2097 51.0599 12.5165 51.9209 12.9712 52.6613C13.2337 53.0888 13.5148 53.4273 13.7621 53.6677C13.7768 53.6106 13.792 53.5484 13.8075 53.4809C13.865 53.2315 13.9117 52.9886 13.9614 52.7297C13.9951 52.5549 14.0301 52.3728 14.0707 52.1764C14.1577 51.7567 14.2759 51.2434 14.4718 50.8507C14.4962 50.8018 14.5409 50.6851 14.6092 50.4618C14.6573 50.3046 14.7067 50.1297 14.7632 49.9301C14.7835 49.8584 14.8047 49.7834 14.8271 49.705C14.9897 49.1347 15.2007 48.4237 15.4917 47.7676C15.774 47.1311 16.1864 46.416 16.8218 45.9507C17.535 45.4284 18.4208 45.3 19.3759 45.6828C19.6923 45.8096 20.3802 45.8044 21.4222 45.5038C22.4031 45.2208 23.5002 44.7349 24.4884 44.1778C25.4867 43.6151 26.3041 43.0193 26.7621 42.5468C26.8008 42.5069 26.8347 42.4701 26.8643 42.4365C26.3173 41.9534 26.0103 41.3776 25.981 40.7476C25.9476 40.0272 26.2908 39.4555 26.6099 39.1358C26.6998 39.0457 26.8061 38.9735 26.9231 38.9233C27.9481 38.4831 28.8507 38.3313 29.6577 38.4452C30.4775 38.5609 31.0945 38.936 31.5635 39.3632C31.9698 39.7333 32.287 40.1668 32.5154 40.4787C32.5378 40.5094 32.5594 40.5389 32.5802 40.5671C32.5942 40.5861 32.6078 40.6045 32.621 40.6223C32.6503 40.5171 32.6794 40.405 32.7112 40.2824C32.7355 40.1889 32.7614 40.0894 32.7901 39.9822C32.8796 39.6477 32.9985 39.2346 33.1779 38.875C33.379 38.472 33.6518 38.1413 34.055 37.8676C34.4236 37.6174 34.8711 37.4364 35.3797 37.2665C35.883 37.0984 36.5637 36.9061 37.4479 36.6562C38.2876 36.419 39.3108 36.1298 40.5398 35.7604C41.6841 35.4164 42.1737 34.9523 42.3798 34.5932C42.5828 34.2394 42.6058 33.8213 42.4678 33.3601C42.3261 32.887 42.0337 32.4475 41.742 32.1668C41.6617 32.0897 41.5928 32.0354 41.5394 31.9988C40.4104 32.4434 39.2961 32.1227 38.8209 31.8846C38.7741 31.8612 38.7293 31.8341 38.6868 31.8037C38.1895 31.4478 37.7847 31.0761 37.538 30.6659C37.2645 30.211 37.1671 29.6635 37.4075 29.1309C37.6108 28.6806 37.9877 28.4068 38.2506 28.2485C38.3328 28.1989 38.4178 28.1527 38.503 28.1096C37.4738 27.6375 36.7134 26.9418 36.1771 26.0731C35.585 25.114 35.2976 23.9955 35.1584 22.8448C35.0191 21.6937 35.0214 20.4441 35.0541 19.1922C35.0649 18.7774 35.0789 18.3647 35.0929 17.9525C35.1221 17.0945 35.1512 16.2386 35.1512 15.3701C35.1512 12.7739 35.0171 11.7446 34.7476 10.9345C34.6095 10.5192 34.4276 10.1366 34.1576 9.58741C34.1387 9.54888 34.1194 9.5097 34.0998 9.46981C33.8427 8.9475 33.5263 8.30456 33.1533 7.43239C33.0027 7.08037 32.8786 6.9797 32.8488 6.96005C32.8486 6.9599 32.8483 6.95963 32.848 6.95929C32.8445 6.95574 32.8328 6.94367 32.7568 6.95741C32.6442 6.97779 32.4611 7.04837 32.196 7.21607C31.938 7.37936 31.6546 7.60062 31.3436 7.86552C31.1552 8.02601 30.9448 8.21432 30.7253 8.41087C30.2881 8.80214 29.8146 9.22604 29.4052 9.52799C29.0836 9.76524 28.7005 10.0086 28.2887 10.1367C27.8517 10.2727 27.2858 10.3032 26.7622 9.95341C25.9265 9.3951 25.3533 8.51941 24.9777 7.75229C24.751 7.28934 24.5765 6.82507 24.4506 6.41713C24.1915 6.8194 23.8907 7.41647 23.5529 8.16598C23.3746 8.56159 23.1818 9.00967 22.986 9.46476C22.7196 10.0839 22.4476 10.716 22.199 11.2466C21.9736 11.7274 21.7392 12.1894 21.4995 12.5753ZM24.8295 5.95031C24.8295 5.95063 24.8262 5.95315 24.8196 5.9569C24.8262 5.95186 24.8295 5.94999 24.8295 5.95031ZM39.7331 28.6594C39.7329 28.6594 39.7307 28.6576 39.7267 28.6542C39.7313 28.6576 39.7333 28.6594 39.7331 28.6594ZM41.4244 31.9353C41.4243 31.9351 41.4273 31.9359 41.4335 31.9384C41.4276 31.9367 41.4245 31.9355 41.4244 31.9353ZM13.5771 54.1951C13.5771 54.195 13.5779 54.1937 13.5796 54.1914C13.578 54.194 13.5771 54.1951 13.5771 54.1951ZM24.6567 4.00045C25.3805 4.01805 25.8378 4.53021 26.0972 4.96339C26.156 5.06158 26.1975 5.16914 26.2199 5.28138C26.291 5.63749 26.4727 6.25757 26.7739 6.87273C27.0526 7.44198 27.3893 7.91552 27.7551 8.20427C27.8535 8.16201 28.0049 8.07564 28.218 7.91848C28.5594 7.66663 28.8952 7.36484 29.2747 7.02372C29.5111 6.81121 29.7645 6.58343 30.0468 6.34296C30.3853 6.05463 30.7515 5.76335 31.1267 5.52596C31.4949 5.29297 31.9289 5.07474 32.4008 4.98936C32.902 4.89867 33.4481 4.95995 33.9489 5.28977C34.4224 5.60165 34.753 6.08674 34.9921 6.64592C35.3437 7.46794 35.6396 8.06919 35.8956 8.58952C35.9148 8.6285 35.9338 8.66704 35.9525 8.70517C36.2185 9.24619 36.4587 9.74217 36.6454 10.3032C37.0254 11.4456 37.1512 12.7595 37.1512 15.3701C37.1512 16.2724 37.1201 17.1877 37.0904 18.0641C37.0767 18.4674 37.0633 18.8625 37.0534 19.2443C37.0211 20.4819 37.0234 21.6079 37.1439 22.6046C37.2645 23.6017 37.4967 24.4033 37.8789 25.0225C38.2474 25.6194 38.7844 26.0955 39.6206 26.4097C40.1542 26.6102 40.5955 26.8116 40.9036 27.037C41.0562 27.1486 41.2567 27.3231 41.3895 27.5807C41.547 27.8859 41.5779 28.2522 41.4323 28.5971C41.3105 28.8856 41.1039 29.0651 40.9767 29.16C40.8387 29.2631 40.6915 29.3416 40.5709 29.3997C40.3882 29.4879 40.1634 29.5765 39.9749 29.6507C39.9256 29.6702 39.8787 29.6886 39.8357 29.7059C39.6898 29.7644 39.5656 29.817 39.4612 29.8669C39.538 29.9373 39.6395 30.0218 39.7726 30.1204C39.859 30.1534 40.0151 30.1995 40.2075 30.2151C40.4454 30.2346 40.6856 30.2036 40.8993 30.0965C41.413 29.8391 41.9261 29.9728 42.2323 30.1048C42.5642 30.2478 42.8693 30.4762 43.1285 30.7255C43.6486 31.2258 44.1357 31.9579 44.3837 32.7865C44.6354 33.627 44.6584 34.6408 44.1145 35.5886C43.5736 36.5313 42.5693 37.2387 41.1156 37.6757C39.7789 38.0776 38.745 38.3688 37.9245 38.5999C37.1041 38.831 36.4969 39.002 36.0133 39.1635C35.5476 39.319 35.3131 39.4309 35.1783 39.5224C35.0781 39.5904 35.0262 39.6503 34.9675 39.7679C34.8871 39.929 34.8111 40.1667 34.722 40.4994C34.7033 40.5694 34.6835 40.6457 34.6627 40.7259C34.5966 40.9803 34.5206 41.2732 34.437 41.5246C34.3365 41.8269 34.1574 42.2997 33.7903 42.6288C33.5793 42.8179 33.2962 42.9694 32.9486 43.0011C32.6135 43.0316 32.3119 42.9422 32.0659 42.8189C31.78 42.6757 31.5619 42.4701 31.4031 42.2963C31.2425 42.1205 31.0945 41.9224 30.9699 41.7532C30.9526 41.7297 30.9355 41.7065 30.9186 41.6835C30.6707 41.3464 30.4678 41.0705 30.2166 40.8417C29.9712 40.6181 29.7113 40.4726 29.3782 40.4256C29.0726 40.3824 28.6261 40.4113 27.9789 40.6537C27.9789 40.6541 27.9789 40.6545 27.9789 40.6549C27.9791 40.6585 27.9794 40.6895 28.0206 40.7531C28.0655 40.8223 28.1682 40.9433 28.3928 41.0934C28.6504 41.2654 28.8742 41.5225 28.9799 41.8681C29.0816 42.2007 29.0432 42.5148 28.9682 42.7603C28.8284 43.2175 28.506 43.6213 28.1981 43.9389C27.5519 44.6054 26.5506 45.3113 25.4705 45.9201C24.3803 46.5346 23.1391 47.09 21.9766 47.4254C20.8752 47.7431 19.6145 47.9331 18.6318 47.5392C18.288 47.4014 18.1345 47.4683 18.0034 47.5643C17.7944 47.7173 17.5572 48.0435 17.32 48.5785C17.0913 49.094 16.9126 49.6847 16.7505 50.2534C16.7312 50.3209 16.7119 50.3891 16.6927 50.457C16.6343 50.6633 16.5765 50.8675 16.5218 51.0464C16.4521 51.2747 16.3669 51.5322 16.2614 51.7436C16.1975 51.8716 16.1209 52.1393 16.0292 52.582C16.001 52.7182 15.9703 52.8766 15.938 53.0437C15.8813 53.337 15.8194 53.6569 15.7565 53.9297C15.6601 54.3486 15.5161 54.8844 15.2537 55.2858C15.116 55.4964 14.8806 55.7724 14.5025 55.914C14.0868 56.0697 13.6809 55.9969 13.3598 55.836C12.6091 55.4599 11.8378 54.6376 11.2669 53.708C10.6823 52.7561 10.2097 51.5344 10.2097 50.2558C10.2097 49.2148 10.2097 44.9258 10.1449 40.7036C10.1124 38.5915 10.0639 36.5036 9.99144 34.8499C9.95517 34.0222 9.9133 33.3126 9.86542 32.7672C9.84145 32.4941 9.81673 32.2711 9.79189 32.0997C9.7795 32.0143 9.7679 31.9474 9.7576 31.8971C9.74829 31.8516 9.74222 31.8305 9.74124 31.8271C9.74107 31.8265 9.74106 31.8264 9.7412 31.8269C9.39037 30.7722 9.54092 29.6421 10.1493 28.8293C10.7635 28.0087 11.7894 27.6 12.9176 27.9084C12.9866 27.853 13.0906 27.7517 13.2258 27.5804C13.5845 27.126 13.9842 26.4118 14.4003 25.5459C14.81 24.6931 15.2069 23.7553 15.5731 22.8828C15.5986 22.822 15.624 22.7613 15.6494 22.7008C15.9794 21.9139 16.2917 21.1692 16.5503 20.6511C16.7496 20.2517 16.9238 19.6426 17.0923 18.8545C17.1986 18.3577 17.2922 17.844 17.3895 17.3103C17.4464 16.9982 17.5046 16.6794 17.5672 16.3531C17.7304 15.5025 17.9204 14.6253 18.1827 13.882C18.4305 13.18 18.8115 12.3868 19.4876 11.9351C19.4864 11.936 19.4858 11.9364 19.4858 11.9364C19.4856 11.9362 19.5156 11.9132 19.5732 11.8441C19.6358 11.7691 19.7118 11.6629 19.8005 11.5201C19.979 11.2327 20.1748 10.8527 20.3879 10.3979C20.6369 9.86665 20.874 9.31402 21.12 8.74069C21.3142 8.28799 21.514 7.82239 21.7295 7.34421C22.1729 6.36039 22.6867 5.31434 23.2506 4.69694C23.5178 4.40443 23.9949 3.98435 24.6567 4.00045Z" fill="#21262A"/>
</svg>
