<svg width="24" height="24" viewBox="0 0 24 24" fill="none" xmlns="http://www.w3.org/2000/svg">
    <path fill-rule="evenodd" clip-rule="evenodd" d="M7.3111 18.9845C7.26365 18.986 7.23117 19.004 7.20154 19.0257C7.11796 19.0869 7.02307 19.2174 6.92816 19.4314C6.83671 19.6376 6.76523 19.8739 6.70037 20.1014L6.67726 20.1828C6.65391 20.2653 6.63079 20.347 6.60892 20.4186C6.58101 20.5099 6.54694 20.6129 6.50474 20.6975C6.4792 20.7487 6.44853 20.8557 6.41185 21.0328C6.40058 21.0873 6.38831 21.1506 6.37538 21.2175C6.35269 21.3348 6.32793 21.4628 6.30279 21.5719C6.26421 21.7394 6.20663 21.9538 6.10165 22.1143C6.04657 22.1986 5.95241 22.309 5.80119 22.3656C5.63492 22.4279 5.47256 22.3988 5.34411 22.3344C5.04384 22.184 4.73531 21.8551 4.50693 21.4832C4.27312 21.1025 4.08406 20.6138 4.08406 20.1023C4.08406 19.6859 4.08406 17.9703 4.05813 16.2815C4.04516 15.4366 4.02574 14.6014 3.99676 13.94C3.98225 13.6089 3.9655 13.325 3.94635 13.1069C3.93676 12.9976 3.92688 12.9085 3.91694 12.8399C3.91198 12.8057 3.90734 12.779 3.90322 12.7588C3.8995 12.7406 3.89668 12.7308 3.89668 12.7308C3.75635 12.309 3.81655 11.8569 4.0599 11.5317C4.30558 11.2035 4.71593 11.04 5.16721 11.1634C5.19481 11.1412 5.23643 11.1007 5.29052 11.0322C5.434 10.8504 5.59388 10.5647 5.7603 10.2184C5.9242 9.87726 6.08294 9.50211 6.22941 9.15313L6.25994 9.08034C6.39195 8.76557 6.51688 8.46768 6.62029 8.26045C6.7 8.10069 6.7697 7.85706 6.83711 7.54183C6.87961 7.34311 6.91707 7.13762 6.95599 6.92417C6.97874 6.79934 7.002 6.67176 7.02705 6.54126C7.09234 6.20101 7.16833 5.85012 7.27326 5.5528C7.37237 5.27199 7.5248 4.95473 7.79524 4.77406C7.79745 4.77219 7.80885 4.7624 7.82948 4.73767C7.8545 4.70766 7.88492 4.66516 7.92039 4.60803C7.99179 4.49309 8.07011 4.34108 8.15536 4.15917C8.25494 3.94667 8.34978 3.72562 8.44818 3.49629C8.52587 3.31521 8.60578 3.12896 8.69199 2.93769C8.86934 2.54416 9.07485 2.12574 9.30042 1.87878C9.40728 1.76178 9.59813 1.59375 9.86286 1.60019C10.1524 1.60723 10.3353 1.81209 10.4391 1.98536C10.4626 2.02464 10.4792 2.06766 10.4882 2.11256C10.5166 2.255 10.5892 2.50303 10.7097 2.7491C10.8212 2.9768 10.9559 3.16621 11.1022 3.28171C11.1416 3.26481 11.2022 3.23026 11.2874 3.1674C11.424 3.06666 11.5582 2.94594 11.71 2.80949C11.8046 2.72449 11.906 2.63338 12.0189 2.53719C12.1543 2.42186 12.3008 2.30535 12.4509 2.21039C12.5982 2.11719 12.7717 2.0299 12.9605 1.99575C13.161 1.95947 13.3794 1.98399 13.5797 2.11591C13.7691 2.24066 13.9014 2.4347 13.997 2.65837C14.1377 2.98718 14.256 3.22768 14.3584 3.43581L14.3812 3.48207C14.4876 3.69848 14.5837 3.89687 14.6583 4.12129C14.8103 4.57826 14.8606 5.10379 14.8606 6.14804C14.8606 6.50894 14.8482 6.87504 14.8364 7.22558C14.8309 7.38689 14.8255 7.54504 14.8215 7.69774C14.8086 8.19276 14.8095 8.64318 14.8577 9.04186C14.906 9.4407 14.9989 9.76133 15.1518 10.009C15.2991 10.2478 15.5139 10.4382 15.8484 10.5639C16.0618 10.6441 16.2384 10.7246 16.3616 10.8148C16.4226 10.8595 16.5028 10.9293 16.556 11.0323C16.619 11.1544 16.6314 11.3009 16.5731 11.4389C16.5244 11.5543 16.4417 11.626 16.3909 11.664C16.3357 11.7053 16.2768 11.7366 16.2286 11.7599C16.1555 11.7952 16.0655 11.8306 15.9902 11.8603L15.9345 11.8823C15.8761 11.9058 15.8264 11.9268 15.7847 11.9468C15.8154 11.9749 15.856 12.0087 15.9092 12.0482C15.9438 12.0614 16.0062 12.0798 16.0832 12.0861C16.1784 12.0938 16.2744 12.0814 16.3599 12.0386C16.5654 11.9357 16.7706 11.9891 16.8931 12.0419C17.0259 12.0991 17.1479 12.1905 17.2516 12.2902C17.4596 12.4903 17.6544 12.7831 17.7537 13.1146C17.8543 13.4508 17.8635 13.8563 17.646 14.2355C17.4296 14.6125 17.0279 14.8955 16.4464 15.0703C15.9118 15.231 15.4983 15.3475 15.1701 15.4399C14.842 15.5323 14.5989 15.6008 14.4055 15.6654C14.2192 15.7276 14.1254 15.7724 14.0715 15.809C14.0314 15.8362 14.0107 15.8601 13.9872 15.9072C13.955 15.9716 13.9246 16.0667 13.889 16.1998C13.8815 16.2277 13.8736 16.2581 13.8653 16.2901C13.8389 16.3918 13.8084 16.5093 13.775 16.6098C13.7348 16.7308 13.6631 16.9199 13.5163 17.0515C13.4319 17.1272 13.3187 17.1878 13.1796 17.2004C13.0456 17.2127 12.9249 17.1769 12.8265 17.1276C12.7122 17.0703 12.6249 16.988 12.5614 16.9185C12.4972 16.8482 12.438 16.769 12.3881 16.7013L12.3676 16.6734C12.2685 16.5386 12.1873 16.4282 12.0868 16.3367C11.9886 16.2473 11.8847 16.189 11.7515 16.1702C11.6292 16.153 11.4506 16.1645 11.1917 16.2615C11.1917 16.2615 11.1919 16.2758 11.2084 16.3012C11.2264 16.3289 11.2674 16.3773 11.3573 16.4373C11.4603 16.5062 11.5498 16.609 11.5921 16.7473C11.6328 16.8803 11.6175 17.0059 11.5875 17.1041C11.5316 17.287 11.4026 17.4485 11.2794 17.5756C11.021 17.8422 10.6204 18.1245 10.1884 18.3681C9.7523 18.6139 9.25583 18.836 8.79081 18.9702C8.53561 19.0438 8.25902 19.1003 7.99505 19.1041C7.97341 19.1045 7.9521 19.1045 7.93116 19.104C7.7623 19.1008 7.59984 19.0746 7.45292 19.0157C7.40108 18.9949 7.36005 18.9858 7.32625 18.9845" fill="#21262A"/>
</svg>
