<svg width="24" height="24" viewBox="0 0 24 24" fill="none" xmlns="http://www.w3.org/2000/svg">
    <path fill-rule="evenodd" clip-rule="evenodd" d="M2.00498 6.40002C1.89805 6.39872 1.79506 6.44028 1.71898 6.51543C1.64291 6.59058 1.6001 6.69306 1.6001 6.79999V9.59999C1.6001 9.82091 1.77918 9.99999 2.0001 9.99999C2.14103 9.99999 2.26622 9.95015 2.35522 9.90539C2.45055 9.85744 2.54443 9.79453 2.63176 9.72859C2.80668 9.59651 2.99058 9.42519 3.15794 9.25784C3.32704 9.08874 3.4882 8.9146 3.61765 8.77252C3.66061 8.72537 3.69865 8.68336 3.73191 8.64664C3.80473 8.56624 3.85463 8.51114 3.88294 8.48284C3.95469 8.41108 4.16603 8.24122 4.39062 8.13914C4.65015 8.02117 4.71395 8.07953 4.71726 8.08284C5.07497 8.44055 5.56673 8.39565 5.89711 8.31305C6.24004 8.22732 6.5723 8.06114 6.76818 7.96317L6.77898 7.95777C6.89792 7.8983 7.12541 7.84999 7.4501 7.84999C7.76433 7.84999 8.1317 7.8952 8.50308 7.98805C8.71835 8.04187 8.84674 8.19553 8.95176 8.46859C9.00333 8.60267 9.04089 8.74429 9.08139 8.89701L9.08774 8.92097C9.12485 9.06088 9.17174 9.2377 9.24233 9.37888C9.32297 9.54017 9.45873 9.62973 9.56718 9.67953C9.67597 9.72947 9.79319 9.75623 9.89488 9.77287C10.0495 9.79816 10.2319 9.80856 10.3826 9.81716C10.4241 9.81952 10.4631 9.82175 10.4985 9.82411C10.5186 9.82545 10.5379 9.82683 10.5563 9.82827C10.5386 9.90134 10.5322 9.97684 10.5379 10.0536C10.5498 10.2148 10.6125 10.3529 10.6838 10.4623C10.8207 10.6722 11.0357 10.8456 11.2176 10.9755C11.3487 11.0691 11.4941 11.1612 11.6122 11.2361C11.6593 11.2659 11.7021 11.293 11.7378 11.3163C11.7843 11.3466 11.8183 11.37 11.8423 11.3876C11.8712 11.4484 11.9099 11.4943 11.9419 11.5247C11.9987 11.5789 12.0601 11.6113 12.0998 11.6297C12.181 11.6673 12.2746 11.6927 12.3508 11.7109C12.4359 11.7313 12.5549 11.7544 12.6665 11.7761C12.7402 11.7905 12.8108 11.8042 12.8663 11.8161L12.876 11.8182C12.785 11.9469 12.6873 12.0971 12.5914 12.2517C12.392 12.5733 12.1734 12.959 11.9923 13.3211C11.8172 13.6713 11.6574 14.0379 11.6021 14.3068C11.5876 14.377 11.5762 14.4587 11.5799 14.542C11.5832 14.6185 11.6014 14.7489 11.6963 14.8646C11.8081 15.0009 11.9642 15.044 12.0943 15.0385C12.2075 15.0337 12.3067 14.9939 12.379 14.9578C12.4581 14.9182 12.5218 14.9188 12.6105 14.9561C12.72 15.0023 12.8456 15.0979 13.0038 15.2439C13.0468 15.2837 13.0956 15.3305 13.1473 15.3802C13.258 15.4866 13.3824 15.6063 13.494 15.6974C13.6576 15.8309 13.9018 16 14.2001 16C14.2538 16 14.3596 16.0269 14.533 16.1121C14.6828 16.1857 14.8414 16.281 15.0142 16.3849L15.0693 16.418C15.2522 16.5277 15.4591 16.6502 15.6509 16.7292C15.8166 16.7975 16.1072 16.8937 16.379 16.7578C16.5904 16.652 16.6657 16.4543 16.6791 16.2987C16.6911 16.1591 16.6598 16.0206 16.6264 15.9114C16.5603 15.6946 16.4376 15.4435 16.3172 15.2136C16.3334 15.2287 16.3506 15.2431 16.3687 15.257C16.4929 15.3518 16.6417 15.4 16.8001 15.4C17.0163 15.4 17.2534 15.4739 17.4712 15.5828C17.6497 15.672 17.7912 15.7726 17.8722 15.8417C17.8745 15.8551 17.8769 15.8723 17.8792 15.8936C17.889 15.9876 17.8909 16.1175 17.8854 16.2705C17.8744 16.5738 17.8362 16.9191 17.8041 17.1434C17.7858 17.2719 17.8309 17.4014 17.9252 17.4906C18.0195 17.5798 18.1513 17.6177 18.2785 17.5922L21.2785 16.9922C21.4193 16.9641 21.5342 16.8627 21.5796 16.7265L22.3796 14.3265C22.4202 14.2045 22.3998 14.0704 22.3246 13.9661C22.2494 13.8618 22.1287 13.8 22.0001 13.8H19.3682L18.7987 6.96678C18.7816 6.76132 18.6111 6.60254 18.405 6.60002L2.00498 6.40002ZM16.0259 14.225C16.0157 14.3881 16.0214 14.5663 16.0596 14.7346C16.017 14.6556 15.9764 14.579 15.938 14.5034C15.8871 14.4029 15.8487 14.3205 15.8237 14.2563C15.8084 14.2168 15.8026 14.1952 15.8006 14.1877L15.7999 14.1854C15.7978 14.0835 15.7739 13.9837 15.7517 13.9054C15.727 13.8182 15.694 13.7233 15.6613 13.6315L15.6377 13.5653C15.5765 13.3942 15.5125 13.2154 15.4619 13.0232C15.3469 12.5862 15.326 12.1677 15.5431 11.8058C15.7294 11.4953 15.8025 11.1951 15.7936 10.9154C15.7849 10.6395 15.6972 10.4093 15.6013 10.2335C15.5858 10.2051 15.5698 10.1777 15.5538 10.1515C15.7119 10.0395 15.8985 9.89073 16.0871 9.72727C16.2772 9.56253 16.4805 9.37315 16.6653 9.18164C16.5747 9.42278 16.5172 9.68945 16.4795 9.94066C16.4001 10.4702 16.4001 10.994 16.4001 11.1967V11.2C16.4001 11.2096 16.3936 11.2567 16.3467 11.3531C16.3028 11.4434 16.2402 11.5437 16.1673 11.6531C16.1464 11.6844 16.1234 11.7182 16.0998 11.753C16.049 11.8278 15.9952 11.907 15.954 11.9734C15.9222 12.0246 15.8883 12.0831 15.8613 12.1428C15.8382 12.194 15.8001 12.2883 15.8001 12.4C15.8001 12.5933 15.9168 12.7176 15.9659 12.7645C16.0249 12.8209 16.0928 12.8648 16.1425 12.895C16.1893 12.9234 16.2412 12.9521 16.2859 12.9768L16.3018 12.9856C16.3409 13.0072 16.3759 13.0267 16.4078 13.0458C16.3038 13.1879 16.2258 13.3567 16.1694 13.5179C16.092 13.7391 16.0407 13.9877 16.0259 14.225Z" fill="#21262A"/>
</svg>
