<svg width="60" height="60" viewBox="0 0 60 60" fill="none" xmlns="http://www.w3.org/2000/svg">
<path d="M4 18V22.9877C4 23.54 4.44707 23.8972 4.89384 23.5725C6.05175 22.731 7.61593 20.8718 8 20.4877C8.5 19.9877 10.5 18.4877 11.5 19.4877C12.5 20.4877 14.5 19.4877 15.5 18.9877C16.5 18.4877 18.5 18.4877 20.5 18.9877C22.5 19.4877 22.5 21.9877 23 22.9877C23.5 23.9877 27.5 22.9877 26.5 24.4877C25.5 25.9877 29.5 27.4877 29.5 27.9877C29.5 28.4877 33.5 28.4877 32.5 29.4877C31.5 30.4877 27.5 37.4877 29.5 36.4877C31.5 35.4877 33 38.9877 34.5 38.9877C36 38.9877 38.5 41.4877 39.5 40.9877C40.5 40.4877 37.5 36.4877 37.5 35.4877C37.5 34.4877 35.5 31.4877 37 28.9877C38.5 26.4877 36 24.9877 36.5 24.9877C37 24.9877 40 22.4877 41 20.9877C42 19.4877 44 20.9877 42.5 21.9877C41 22.9877 41 26.9877 41 27.9877C41 28.9877 39.5 30.4877 39.5 30.9877C39.5 31.4877 42 31.9877 41 32.9877C40 33.9877 39.5 37.4877 41 37.4877C42.5 37.4877 44 38.4877 44.5 38.9877C44.7717 39.2595 44.7512 40.4696 44.6578 41.5835C44.6002 42.271 45.2094 42.8459 45.886 42.7105L51.4309 41.6015C51.7828 41.5312 52.07 41.2776 52.1835 40.9372L53.5613 36.804C53.7771 36.1564 53.2951 35.4877 52.6126 35.4877H47.4201C46.9 35.4877 46.4668 35.0891 46.4236 34.5708L45.0755 18.3935C45.0327 17.8799 44.6065 17.4829 44.0911 17.4766L5.01219 17.0001C4.45518 16.9933 4 17.4429 4 18Z" fill="#21262A"/>
<path d="M16.707 36.9999V28.5039H13.743L11.895 33.9519H11.847L9.91502 28.5039H6.99902V36.9999H8.93102L8.88302 30.9879H8.91902L11.067 36.9999H12.507L14.715 30.9879H14.751L14.703 36.9999H16.707Z" fill="#21262A"/>
<path d="M26.392 32.7279C26.392 29.5119 23.944 28.5039 21.532 28.5039H18.46V36.9999H21.628C23.968 36.9999 26.392 35.7159 26.392 32.7279ZM24.256 32.7279C24.256 34.6239 22.9 35.2239 21.436 35.2239H20.464V30.2559H21.484C22.9 30.2559 24.256 30.8199 24.256 32.7279Z" fill="#21262A"/>
<path fill-rule="evenodd" clip-rule="evenodd" d="M4.29722 16.2886C4.4874 16.1007 4.74488 15.9968 5.01219 16.0001L46.0122 16.5001C46.5276 16.5064 46.9537 16.9033 46.9965 17.417L48.4201 34.5H55C55.3214 34.5 55.6233 34.6545 55.8112 34.9153C55.9992 35.1761 56.0503 35.5113 55.9487 35.8162L53.9487 41.8162C53.8352 42.1567 53.548 42.4102 53.1961 42.4806L45.6961 43.9806C45.3779 44.0442 45.0485 43.9495 44.8128 43.7265C44.577 43.5034 44.4642 43.1799 44.5101 42.8586C44.5902 42.2977 44.6856 41.4346 44.7132 40.6763C44.727 40.2938 44.7223 39.969 44.6977 39.7341C44.692 39.6807 44.686 39.6378 44.6803 39.6042C44.4778 39.4316 44.1241 39.1801 43.6778 38.9569C43.1333 38.6847 42.5406 38.5 42 38.5C41.6039 38.5 41.2321 38.3796 40.9215 38.1425C40.8762 38.1079 40.8332 38.0717 40.7927 38.0341C41.0936 38.6088 41.4005 39.2365 41.5659 39.7785C41.6492 40.0516 41.7275 40.3978 41.6975 40.7467C41.6641 41.1358 41.4758 41.6301 40.9472 41.8944C40.2677 42.2342 39.5414 41.9937 39.1271 41.8231C38.6474 41.6256 38.1303 41.3194 37.673 41.045C37.6267 41.0172 37.5808 40.9896 37.5353 40.9623C37.1033 40.7026 36.7069 40.4644 36.3323 40.2803C35.8988 40.0672 35.6344 40 35.5 40C34.7543 40 34.1438 39.5773 33.7348 39.2434C33.4558 39.0157 33.1448 38.7167 32.868 38.4506C32.7387 38.3263 32.6169 38.2092 32.5092 38.1098C32.1138 37.7448 31.7998 37.5057 31.526 37.3904C31.3041 37.297 31.1449 37.2956 30.9472 37.3944C30.7666 37.4847 30.5184 37.5842 30.2356 37.5963C29.9102 37.6101 29.52 37.5024 29.2404 37.1614C29.0033 36.8723 28.9579 36.5462 28.9495 36.355C28.9403 36.1469 28.9688 35.9424 29.0049 35.7671C29.1434 35.0947 29.5428 34.1784 29.9806 33.3028C30.4332 32.3975 30.9797 31.4334 31.4782 30.6293C31.7179 30.2427 31.9622 29.8671 32.1897 29.5455C32.1817 29.5438 32.1736 29.542 32.1655 29.5403C32.0267 29.5106 31.8503 29.4762 31.666 29.4404C31.3869 29.386 31.0896 29.3281 30.8768 29.2773C30.6862 29.2317 30.4523 29.1683 30.2493 29.0742C30.1501 29.0282 29.9965 28.9474 29.8545 28.8119C29.7746 28.7356 29.6777 28.6209 29.6054 28.4691C29.5455 28.4249 29.4606 28.3665 29.3444 28.2907C29.2549 28.2324 29.148 28.1647 29.0303 28.0902C28.7351 27.9031 28.3716 27.6729 28.0438 27.4387C27.5891 27.114 27.0516 26.6805 26.7093 26.1556C26.5309 25.8822 26.3742 25.5371 26.3445 25.134C26.3304 24.9421 26.3463 24.7534 26.3905 24.5707C26.3445 24.5671 26.2963 24.5636 26.246 24.5603C26.1575 24.5544 26.0599 24.5488 25.9564 24.5429C25.5794 24.5214 25.1234 24.4954 24.7369 24.4322C24.4827 24.3906 24.1897 24.3237 23.9177 24.1988C23.6466 24.0743 23.3072 23.8504 23.1056 23.4472C22.9291 23.0943 22.8119 22.6522 22.7191 22.3024L22.7032 22.2426C22.602 21.8608 22.5081 21.5067 22.3792 21.1715C22.1166 20.4888 21.7956 20.1047 21.2575 19.9701C20.329 19.738 19.4106 19.625 18.625 19.625C17.8133 19.625 17.2446 19.7458 16.9472 19.8944L16.9202 19.9079C16.4305 20.1529 15.5999 20.5683 14.7425 20.7826C13.9166 20.9891 12.6872 21.1014 11.7929 20.2071C11.7846 20.1988 11.6251 20.0529 10.9763 20.3479C10.4148 20.6031 9.88649 21.0277 9.70711 21.2071C9.63634 21.2779 9.51161 21.4156 9.32957 21.6166C9.24641 21.7084 9.15128 21.8134 9.04388 21.9313C8.72026 22.2865 8.31736 22.7219 7.89461 23.1446C7.47621 23.563 7.01645 23.9913 6.57917 24.3215C6.36083 24.4863 6.12612 24.6436 5.8878 24.7635C5.66532 24.8754 5.35233 25 5 25C4.44772 25 4 24.5523 4 24V17C4 16.7327 4.10704 16.4765 4.29722 16.2886ZM26.6954 23.8987C26.6957 23.8986 26.6942 23.9021 26.6901 23.9095C26.6931 23.9024 26.6951 23.8988 26.6954 23.8987ZM40.1487 36.8365C40.0532 36.4157 40.039 35.9703 40.0644 35.5626C40.1015 34.9692 40.2297 34.3478 40.4233 33.7946C40.5644 33.3917 40.7592 32.9699 41.0193 32.6144C40.9394 32.5668 40.8519 32.5179 40.7543 32.464C40.7413 32.4568 40.728 32.4494 40.7144 32.4419C40.6027 32.3802 40.4729 32.3086 40.356 32.2376C40.2317 32.1621 40.0619 32.0523 39.9145 31.9113C39.7918 31.7941 39.5 31.4832 39.5 31C39.5 30.7208 39.5953 30.485 39.6531 30.357C39.7204 30.2078 39.8053 30.0616 39.8847 29.9336C39.9877 29.7676 40.1219 29.5701 40.2489 29.3831C40.3081 29.2959 40.3658 29.2111 40.4179 29.1328C40.6004 28.8592 40.7566 28.6084 40.8664 28.3828C40.9836 28.1418 41 28.024 41 28V27.9919C41 27.485 41 26.1756 41.1986 24.8517C41.2928 24.2236 41.4365 23.557 41.6631 22.9541C41.2011 23.4329 40.6926 23.9063 40.2174 24.3182C39.7459 24.7269 39.2795 25.0987 38.8842 25.3788C38.9243 25.4443 38.9642 25.5127 39.0029 25.5836C39.2427 26.0234 39.462 26.5986 39.4839 27.2886C39.5061 27.9877 39.3233 28.7382 38.8575 29.5145C38.3147 30.4192 38.3671 31.4655 38.6546 32.558C38.7811 33.0387 38.9409 33.4854 39.0939 33.9132C39.1138 33.9687 39.1335 34.0239 39.153 34.0787C39.2348 34.3084 39.3173 34.5455 39.3791 34.7635C39.4346 34.9592 39.4943 35.2089 39.4996 35.4635C39.5026 35.4736 39.5152 35.5279 39.559 35.6407C39.6214 35.8012 39.7175 36.0073 39.8449 36.2584C39.9408 36.4475 40.0423 36.639 40.1487 36.8365ZM38.31 24.584C38.3049 24.5766 38.3063 24.5779 38.3118 24.5865C38.3111 24.5856 38.3106 24.5848 38.31 24.584ZM6 18.0123V22.1936C6.15626 22.0492 6.31746 21.8933 6.48039 21.7304C6.87014 21.3406 7.24849 20.9322 7.56549 20.5843C7.64442 20.4977 7.72224 20.4118 7.79674 20.3295C8.00363 20.101 8.18488 19.9009 8.29289 19.7929C8.61351 19.4723 9.33516 18.8969 10.1487 18.5271C10.8749 18.1971 12.2154 17.8012 13.2071 18.7929C13.3128 18.8986 13.5834 19.0109 14.2575 18.8424C14.8612 18.6914 15.4905 18.3862 15.9956 18.1342L6 18.0123ZM22.2795 18.2108C23.3774 18.6857 23.931 19.635 24.2458 20.4535C24.4148 20.8928 24.5337 21.3421 24.6289 21.7016C24.6348 21.7237 24.6406 21.7456 24.6462 21.767C24.7248 22.0629 24.7825 22.267 24.8346 22.4101C24.8864 22.425 24.9599 22.4421 25.0599 22.4584C25.3323 22.503 25.637 22.5206 25.9916 22.5411C26.1145 22.5482 26.2434 22.5557 26.379 22.5647C26.6205 22.5808 26.8831 22.6028 27.1275 22.6434C27.357 22.6814 27.6559 22.7484 27.9261 22.8966C28.2186 23.057 28.5822 23.3787 28.6496 23.9229C28.7054 24.3726 28.5247 24.7557 28.3568 25.0169C28.3636 25.0295 28.3726 25.0449 28.3845 25.0631C28.5109 25.257 28.7859 25.511 29.2062 25.8113C29.4876 26.0122 29.7656 26.1882 30.0412 26.3626C30.1736 26.4464 30.3055 26.5298 30.4369 26.6155C30.6187 26.7341 30.8188 26.8698 30.9797 27.0073C31.0593 27.0753 31.1639 27.1726 31.2559 27.2956C31.2602 27.3014 31.2648 27.3076 31.2696 27.3142C31.292 27.3199 31.3161 27.3259 31.3419 27.3321C31.5413 27.3798 31.7364 27.4171 31.9579 27.4594C32.1425 27.4947 32.3454 27.5335 32.5845 27.5847C32.9949 27.6726 33.579 27.8101 33.9882 28.0692C34.1914 28.198 34.5728 28.4948 34.6484 29.0289C34.7269 29.5847 34.4216 29.9926 34.2071 30.2071C34.0516 30.3626 33.6709 30.8883 33.178 31.6832C32.7078 32.4416 32.1918 33.3525 31.7694 34.1972C31.5605 34.615 31.3857 34.995 31.2513 35.3204C31.6211 35.3243 31.9747 35.4093 32.3021 35.5471C32.919 35.8068 33.4487 36.2552 33.8658 36.6402C34.0462 36.8067 34.2018 36.9569 34.345 37.0952C34.5783 37.3204 34.7788 37.5138 34.9996 37.6941C35.1606 37.8256 35.2856 37.9083 35.3819 37.9562C35.4758 38.0029 35.5095 38 35.5 38C36.1156 38 36.7262 38.2453 37.2146 38.4854C37.6702 38.7093 38.1421 38.9932 38.5603 39.2449C38.6083 39.2737 38.6556 39.3021 38.702 39.33C38.9623 39.4862 39.1958 39.6238 39.4056 39.7379C39.2915 39.4885 39.1505 39.2081 38.9901 38.9032C38.8731 38.6811 38.7411 38.4374 38.6078 38.1915C38.4142 37.8341 38.2179 37.4719 38.0614 37.1635C37.9232 36.8911 37.7926 36.6168 37.6949 36.3652C37.6085 36.143 37.5 35.8233 37.5 35.5C37.5 35.5021 37.5 35.5033 37.4999 35.5033C37.4994 35.5033 37.4946 35.4489 37.4549 35.3088C37.4131 35.1615 37.3512 34.9807 37.2688 34.7494C37.2506 34.6982 37.2316 34.645 37.2118 34.59C37.0606 34.1678 36.8705 33.6372 36.7204 33.067C36.3829 31.7845 36.1853 30.0808 37.1425 28.4855C37.4267 28.0118 37.4939 27.6373 37.4849 27.352C37.4755 27.0576 37.3823 26.7891 37.2471 26.5414C37.1208 26.3098 36.9773 26.1272 36.8361 25.9477C36.8209 25.9284 36.8057 25.9091 36.7906 25.8897C36.7547 25.8438 36.7092 25.785 36.668 25.7258C36.6359 25.6796 36.5599 25.5688 36.5056 25.427C36.4713 25.3375 36.2918 24.8397 36.6668 24.3829C36.8743 24.1302 37.1354 24.0442 37.311 24.015C37.3139 24.0134 37.317 24.0118 37.3202 24.01C37.4044 23.9645 37.5312 23.8852 37.6988 23.7675C38.0303 23.5348 38.4561 23.1981 38.9076 22.8068C39.8309 22.0066 40.7458 21.0785 41.1679 20.4453C41.9852 19.2194 43.3773 19.112 44.2687 19.7488C44.6967 20.0545 45.0586 20.58 45.0386 21.2412C45.018 21.9197 44.6063 22.4643 44.0547 22.8321C43.9246 22.9188 43.7409 23.1378 43.5622 23.5878C43.3904 24.0206 43.2643 24.5628 43.1764 25.1483C43.0011 26.3173 43 27.5008 43 28C43 28.476 42.8289 28.9207 42.6649 29.2578C42.4934 29.6103 42.2746 29.9533 42.0821 30.2422C42.0042 30.359 41.9337 30.4626 41.8692 30.5575C41.8278 30.6183 41.7889 30.6755 41.7521 30.7303C41.8742 30.798 42.0163 30.8778 42.155 30.9645C42.406 31.1213 42.8585 31.4229 43.089 31.9032C43.2243 32.1849 43.283 32.526 43.1933 32.888C43.1088 33.2288 42.9149 33.4994 42.7071 33.7071C42.609 33.8052 42.4525 34.0512 42.311 34.4554C42.1765 34.8397 42.086 35.2808 42.0606 35.6874C42.0362 36.0769 42.0767 36.3519 42.1294 36.5019C43.0408 36.5285 43.8985 36.8312 44.5722 37.1681C45.276 37.52 45.8685 37.9543 46.2071 38.2929C46.4331 38.5189 46.5324 38.7916 46.5809 38.9561C46.636 39.143 46.6674 39.3411 46.6867 39.5253C46.7256 39.8956 46.7271 40.3271 46.7118 40.7487C46.6999 41.0777 46.6769 41.4198 46.6482 41.7505L52.2348 40.6332L53.6126 36.5H47.5C46.9799 36.5 46.5466 36.1013 46.5035 35.583L45.0789 18.4888L22.2795 18.2108ZM41.4691 31.1969C41.4688 31.197 41.4701 31.1933 41.4735 31.1853C41.471 31.1927 41.4693 31.1967 41.4691 31.1969Z" fill="#21262A"/>
</svg>
