<svg width="24" height="24" viewBox="0 0 24 24" fill="none" xmlns="http://www.w3.org/2000/svg">
    <path fill-rule="evenodd" clip-rule="evenodd" d="M20.2514 14.3609L20.9884 16.0191L20.9286 16.1984H18.7588C18.7862 16.0113 18.8836 15.7594 18.9747 15.5773C19.0289 15.4688 19.031 15.3415 18.9803 15.2313C18.9296 15.121 18.8316 15.0398 18.7139 15.0103C18.4746 14.9505 18.1519 14.8571 17.9099 14.7629L17.9106 14.7608C17.9524 14.6307 17.9681 14.486 17.97 14.3476C17.9738 14.0679 17.9219 13.7376 17.8231 13.4271C17.7254 13.1201 17.5701 12.7955 17.3415 12.5544C17.1042 12.3041 16.7601 12.1218 16.3385 12.2062C16.1994 12.234 16.1565 12.1946 16.1407 12.1784C16.1095 12.1464 16.0669 12.0658 16.0669 11.9234C16.0669 11.6331 16.2425 11.299 16.5655 11.1698C17.1152 10.9499 17.5002 10.6538 17.7099 10.3042C17.9258 9.94443 17.9397 9.54946 17.7747 9.21951C17.6455 8.9612 17.3555 8.62129 17.0868 8.3281C16.8059 8.02173 16.501 7.71683 16.3017 7.51746L16.2998 7.51555C16.1582 7.37396 15.9798 7.33737 15.8297 7.34915C15.6915 7.36 15.564 7.41106 15.4611 7.46411C15.2532 7.57131 15.0323 7.747 14.8282 7.93208C14.4744 8.25293 14.1061 8.66213 13.8356 8.98791L3.0387 8.39899C2.85528 8.38898 2.68863 8.50519 2.63461 8.68076C2.3674 9.54917 1.97633 10.8527 1.67173 11.9405C1.51971 12.4835 1.38776 12.9779 1.30361 13.3388C1.26202 13.5172 1.22955 13.6737 1.21316 13.7904C1.20555 13.8445 1.19797 13.9126 1.2008 13.9767C1.20199 14.0035 1.20597 14.0693 1.23569 14.1412C1.26379 14.2092 1.35725 14.3652 1.55298 14.3938C1.95251 14.4792 2.68915 14.5524 3.59286 14.6168C4.5252 14.6832 5.66574 14.7421 6.86495 14.793C9.10043 14.8879 11.5481 14.9553 13.2485 14.991C13.2851 15.1591 13.3377 15.3751 13.3989 15.5786C13.4368 15.7049 13.4803 15.8338 13.528 15.9463C13.5648 16.0333 13.6208 16.1524 13.7028 16.2475C13.7064 16.2608 13.7111 16.2816 13.7164 16.3129C13.7234 16.3534 13.7294 16.3981 13.737 16.4548L13.74 16.4773C13.7487 16.5415 13.7591 16.6165 13.7734 16.695C13.8301 17.0072 13.9592 17.4407 14.395 17.7312C14.5267 17.819 14.5981 17.9487 14.6307 18.1018C14.6648 18.2617 14.6493 18.4196 14.6289 18.5014C14.599 18.6209 14.6258 18.7475 14.7016 18.8446C14.7774 18.9416 14.8937 18.9984 15.0169 18.9984H16.0169C16.0357 18.9984 16.0544 18.9971 16.0728 18.9945C16.0415 19.0474 16.0224 19.1073 16.0179 19.17C16.0097 19.2857 16.0521 19.3992 16.1341 19.4812L16.3341 19.6812C16.4782 19.8254 16.7076 19.8381 16.8668 19.7107L17.7572 18.9984H18.0169C18.079 18.9984 18.1403 18.9839 18.1958 18.9562L20.1958 17.9562C20.329 17.8896 20.515 17.8484 20.7169 17.8484C20.9188 17.8484 21.1049 17.8896 21.238 17.9562C21.392 18.0332 21.578 18.003 21.6998 17.8812C21.8046 17.7764 21.938 17.6024 22.0498 17.4495C22.1671 17.2891 22.2804 17.1242 22.3497 17.0203C22.4239 16.909 22.4376 16.768 22.3861 16.6446L21.3861 14.2446C21.3492 14.1559 21.2817 14.0836 21.1958 14.0406L20.7958 13.8406C20.6448 13.7651 20.4626 13.7926 20.3406 13.9092C20.2185 14.0258 20.1828 14.2066 20.2514 14.3609ZM17.6328 17.7865L16.4009 18.7104C16.4205 18.6432 16.4224 18.5711 16.405 18.5014C16.3938 18.4569 16.3633 17.9724 17.1958 17.5562C17.3996 17.4543 17.5057 17.4486 17.5432 17.4528C17.5616 17.4549 17.5627 17.456 17.5721 17.4697C17.5909 17.4971 17.615 17.5565 17.6265 17.6552C17.6314 17.6979 17.6334 17.7424 17.6328 17.7865Z" fill="#21262A"/>
</svg>
