<svg width="60" height="60" viewBox="0 0 60 60" fill="none" xmlns="http://www.w3.org/2000/svg">
<path d="M34.528 23.4681L8.32224 22.0387C7.86369 22.0136 7.44755 22.3021 7.31347 22.7413C6.02667 26.9564 3.95466 34.0053 4.00076 34.9014C4.0045 34.9743 4.06977 35.0026 4.14122 35.0174C7.89299 35.7918 25.0078 36.3126 33.5943 36.4872C33.8465 36.4923 34.0418 36.698 34.0418 36.9502C34.0418 36.9807 34.0447 37.0105 34.0508 37.0404C34.2236 37.8904 34.6488 39.603 35.0418 39.9961C35.5418 40.4961 35.0418 42.4961 36.5418 43.4961C37.2157 43.9453 37.5007 44.6259 37.5915 45.2543C37.6823 45.8827 38.1569 46.4961 38.7918 46.4961C39.4268 46.4961 39.9452 45.8631 40.1776 45.2722C40.4605 44.5528 41.1342 43.6999 42.5418 42.9961C44.6772 41.9284 45.1237 43.4203 45.0789 44.584C45.0687 44.849 44.9226 45.0855 44.7105 45.2446L41.3603 47.7572C41.1922 47.8833 41.1748 48.129 41.3233 48.2776C41.4477 48.402 41.6458 48.413 41.7831 48.303L43.7679 46.7152C43.9452 46.5734 44.1656 46.4961 44.3926 46.4961H44.8058C44.961 46.4961 45.1132 46.4604 45.252 46.391L50.0418 43.9961C50.835 43.5995 51.9427 43.5175 52.866 43.75C53.2834 43.8551 53.7436 43.7867 54.0071 43.4463C54.2527 43.1291 54.5206 42.7549 54.7406 42.4381C54.9313 42.1635 54.9646 41.8107 54.836 41.5021L52.5925 36.1176C52.5598 36.0392 52.5 35.9752 52.4241 35.9372C52.1271 35.7887 51.8076 36.0941 51.9424 36.3975L53.3843 39.6417C53.4857 39.8697 53.4981 40.1273 53.4192 40.364L53.2698 40.8123C53.1336 41.2207 52.7517 41.4961 52.3213 41.4961H46.5418C45.7214 41.4961 45.7891 40.5612 46.0738 39.6502C46.2646 39.0396 45.9525 38.3498 45.3416 38.1599C44.1415 37.7868 42.9511 37.2915 43.5418 36.9961C44.5418 36.4961 43.5418 30.9961 41.0418 31.4961C38.5418 31.9961 38.5418 27.9961 41.0418 26.9961C43.5418 25.9961 44.0418 24.4961 43.5418 23.4961C43.0419 22.4961 41.0419 20.4962 40.0419 19.4961L40.0418 19.4961C39.3019 18.7561 36.7939 21.3812 35.3665 23.0983C35.16 23.3466 34.8505 23.4856 34.528 23.4681Z" fill="#21262A"/>
<path d="M22.0244 18.496V10H19.0604L17.2124 15.448H17.1644L15.2324 10H12.3164V18.496H14.2484L14.2004 12.484H14.2364L16.3844 18.496H17.8244L20.0324 12.484H20.0684L20.0204 18.496H22.0244Z" fill="#21262A"/>
<path d="M31.8173 18.496L28.2893 10H26.2973L22.7333 18.496H24.9653L25.5893 16.828H28.8773L29.5373 18.496H31.8173ZM28.3133 15.184H26.1773L27.2573 12.268L28.3133 15.184Z" fill="#21262A"/>
<path fill-rule="evenodd" clip-rule="evenodd" d="M38.4135 21.3117C37.4844 22.1542 36.4715 23.3096 35.8227 24.1206C35.6209 24.3728 35.3098 24.512 34.9873 24.4944L8.26865 23.0371C7.62191 25.1557 6.77725 27.9888 6.10477 30.3906C5.7265 31.7415 5.40635 32.9431 5.20631 33.8011C5.1753 33.9341 5.14777 34.0564 5.12369 34.1678C6.05915 34.2982 7.42966 34.4262 9.12381 34.5469C11.4273 34.711 14.2573 34.8574 17.2467 34.9843C23.2245 35.2381 29.8166 35.4129 34.0614 35.4961C34.6059 35.5068 35.0418 35.9513 35.0418 36.4959V36.8952C35.1235 37.2893 35.2571 37.8554 35.4119 38.3705C35.4962 38.6506 35.5812 38.8971 35.6611 39.0857C35.7305 39.2496 35.7708 39.308 35.7692 39.3092C35.7691 39.3093 35.7696 39.3095 35.7692 39.3092C35.9633 39.511 36.0684 39.7389 36.1306 39.9142C36.1959 40.098 36.2347 40.286 36.2618 40.4442C36.2858 40.5839 36.306 40.7347 36.3242 40.8706C36.3267 40.8893 36.3292 40.9076 36.3316 40.9257C36.353 41.0835 36.3738 41.232 36.4007 41.3796C36.5088 41.9741 36.686 42.3902 37.0965 42.6639C37.9673 43.2444 38.3723 44.0868 38.5323 44.8374C38.5801 45.0616 38.6076 45.2832 38.6194 45.4959H39.0672C39.3004 44.3778 40.1679 43.0649 42.0946 42.1015C42.7851 41.7562 43.4532 41.5745 44.0791 41.6443C44.7531 41.7194 45.2565 42.0728 45.5789 42.5428C45.8778 42.9784 46.0029 43.482 46.0523 43.907C46.0909 44.2386 46.0887 44.5691 46.0627 44.8675L49.5946 43.1015C50.2617 42.768 51.0466 42.6209 51.7918 42.6209C52.2696 42.6209 52.7638 42.6814 53.2327 42.8127C53.3188 42.7011 53.412 42.5766 53.5096 42.4432C53.5366 42.4062 53.5636 42.3691 53.5904 42.3321C53.4311 42.4366 53.2417 42.4959 53.0418 42.4959H46.5418C46.2529 42.4959 45.9458 42.4351 45.6636 42.2663C45.3761 42.0944 45.1807 41.85 45.06 41.5926C44.8394 41.1226 44.862 40.6037 44.914 40.2323C44.9636 39.8781 45.0635 39.5072 45.183 39.1571C44.7273 39.0188 44.2572 38.8599 43.8588 38.6947C43.5218 38.555 43.0844 38.3519 42.7948 38.0753C42.6686 37.9547 42.3331 37.5973 42.3922 37.0535C42.4377 36.6351 42.6829 36.375 42.8885 36.2263C42.906 36.1452 42.9223 36.0183 42.9247 35.8418C42.9309 35.3846 42.8419 34.7731 42.6514 34.1741C42.4581 33.5666 42.19 33.0658 41.9021 32.7622C41.6362 32.4818 41.4338 32.4374 41.2379 32.4765C40.3356 32.657 39.5054 32.4429 38.9198 31.8427C38.3728 31.2821 38.1668 30.5149 38.1668 29.8084C38.1668 28.4093 38.9778 26.7445 40.6704 26.0675C41.796 25.6172 42.3336 25.1076 42.5593 24.7314C42.7697 24.3809 42.7349 24.1183 42.6474 23.9431C42.4703 23.5889 41.9453 22.9387 41.2422 22.1717C40.6697 21.5472 40.0503 20.92 39.5692 20.4377C39.569 20.4378 39.5693 20.4376 39.5692 20.4377C39.2848 20.5843 38.8866 20.8828 38.4135 21.3117ZM42.8608 36.3186C42.8606 36.3183 42.8623 36.3138 42.8663 36.3062C42.8629 36.3152 42.8609 36.319 42.8608 36.3186ZM52.4705 40.0477L50.628 35.9021C50.4566 35.5164 50.5458 35.0646 50.8509 34.773C51.1561 34.4814 51.6115 34.4128 51.989 34.6015L52.989 35.1015C53.2037 35.2088 53.3726 35.3898 53.4649 35.6113L55.9649 41.6113C56.0935 41.92 56.0593 42.2724 55.8739 42.5506C55.7006 42.8105 55.4173 43.2226 55.124 43.6237C54.8444 44.0061 54.5109 44.4411 54.2489 44.7031C53.9446 45.0074 53.4796 45.0829 53.0946 44.8904C52.7617 44.7239 52.2966 44.6209 51.7918 44.6209C51.287 44.6209 50.8219 44.7239 50.489 44.8904L45.489 47.3904C45.3502 47.4598 45.1971 47.4959 45.0418 47.4959H44.3926L42.1665 49.2768C41.7686 49.5951 41.195 49.5634 40.8347 49.2031L40.3347 48.7031C40.1297 48.4981 40.0238 48.2142 40.0443 47.9251C40.0555 47.7683 40.1032 47.6183 40.1815 47.4861C40.1355 47.4926 40.0889 47.4959 40.0418 47.4959H37.5418C37.2339 47.4959 36.9431 47.3541 36.7536 47.1114C36.5641 46.8686 36.497 46.5521 36.5717 46.2534C36.6228 46.049 36.6615 45.6542 36.5763 45.2545C36.4947 44.8718 36.3163 44.5475 35.9871 44.328C34.8976 43.6017 34.5748 42.5178 34.4329 41.7373C34.3973 41.5412 34.3713 41.3537 34.3496 41.1932C34.347 41.174 34.3445 41.1553 34.3421 41.1371C34.323 40.9954 34.308 40.8836 34.2906 40.7821C34.2771 40.7039 34.2655 40.652 34.2566 40.6188C34.0516 40.381 33.9116 40.0833 33.8194 39.8656C33.7003 39.5844 33.5916 39.2621 33.4967 38.9464C33.3437 38.4377 33.2122 37.8978 33.1209 37.4774C28.8697 37.3881 22.7506 37.2198 17.1619 36.9825C14.1639 36.8553 11.3125 36.7079 8.98167 36.5419C6.7224 36.3809 4.88077 36.198 3.88196 35.9846C3.39265 35.913 3.15899 35.523 3.08873 35.353C3.01444 35.1733 3.00448 35.0087 3.00152 34.9416C2.99444 34.7813 3.01338 34.6112 3.0324 34.4759C3.0734 34.1843 3.15456 33.793 3.25854 33.347C3.46892 32.4446 3.79877 31.2087 4.17884 29.8513C4.94033 27.1317 5.91802 23.8729 6.58602 21.7018C6.72108 21.2629 7.13772 20.9724 7.59627 20.9974L34.5884 22.4697C35.2649 21.6553 36.1855 20.6323 37.0701 19.8301C37.5803 19.3674 38.1325 18.9282 38.6523 18.6602C38.9096 18.5276 39.2283 18.3999 39.5737 18.3728C39.949 18.3434 40.3949 18.4348 40.7489 18.7888L40.7537 18.7936C41.2521 19.292 42.0144 20.0543 42.7165 20.8202C43.3883 21.5532 44.1133 22.4029 44.4362 23.0487C44.8487 23.8736 44.814 24.861 44.2743 25.7604C43.75 26.6343 42.7876 27.3747 41.4132 27.9244C40.6058 28.2474 40.1668 29.0826 40.1668 29.8084C40.1668 30.1645 40.2733 30.366 40.3513 30.4461C40.3907 30.4864 40.498 30.5849 40.8457 30.5154C41.8999 30.3045 42.7599 30.7601 43.3534 31.386C43.9248 31.9886 44.313 32.8003 44.5572 33.5677C44.8042 34.3438 44.934 35.1697 44.9245 35.8688C44.9198 36.215 44.8806 36.5767 44.776 36.9019C44.7754 36.9036 44.7748 36.9054 44.7742 36.9072C45.3792 37.1428 46.1861 37.3762 46.7843 37.5258C47.0786 37.5994 47.3236 37.8025 47.4503 38.0781C47.5771 38.3537 47.5719 38.6719 47.4362 38.9432C47.2086 39.3985 46.9651 40.0283 46.8966 40.4959H52.321L52.4705 40.0477ZM41.0018 46.7759L44.0816 44.4661C44.0829 44.3559 44.0781 44.2447 44.0657 44.138C44.037 43.8912 43.9767 43.7427 43.9297 43.6741C43.9062 43.64 43.9034 43.6371 43.8576 43.632C43.7637 43.6215 43.4985 43.6356 42.989 43.8904C40.9078 44.931 40.9841 46.1421 41.0119 46.2534C41.0555 46.4276 41.0508 46.6078 41.0018 46.7759ZM4.30783 34.0304C4.22791 34.0086 4.13944 33.9959 4.0418 33.9959C4.11477 33.9959 4.18751 34.0039 4.25873 34.0198C4.27475 34.0233 4.29111 34.0269 4.30783 34.0304Z" fill="#21262A"/>
</svg>
