<svg width="24" height="24" viewBox="0 0 24 24" fill="none" xmlns="http://www.w3.org/2000/svg">
    <path fill-rule="evenodd" clip-rule="evenodd" d="M8.13139 1.60001C7.85833 1.60001 7.57373 1.74558 7.34977 1.88635C7.10588 2.03965 6.85026 2.2425 6.61565 2.45104C6.37985 2.66064 6.15677 2.88359 5.97782 3.08242C5.82072 3.25698 5.67259 3.44014 5.59097 3.58816C5.5845 3.59298 5.57468 3.5998 5.56061 3.60845C5.50896 3.64019 5.42946 3.67862 5.32056 3.72105C5.10415 3.80536 4.81769 3.88794 4.51304 3.96105C4.21068 4.03362 3.90143 4.09426 3.64451 4.13657C3.37688 4.18065 3.19447 4.20001 3.13139 4.20001C2.96485 4.20001 2.79839 4.24228 2.66029 4.34789C2.52054 4.45475 2.44323 4.60119 2.41416 4.74656C2.36619 4.98642 2.44315 5.2337 2.58694 5.41387C2.64058 5.52823 2.71765 5.62667 2.79544 5.70847C2.89516 5.81333 3.01601 5.91153 3.14516 6.00228C3.40338 6.18374 3.72692 6.35772 4.06377 6.51319C4.73584 6.82337 5.51595 7.08484 6.05295 7.19224C6.9319 7.36803 7.58341 7.89241 8.46148 8.69522C8.60511 8.82653 8.62228 8.92268 8.62241 8.98523C8.62259 9.07197 8.58822 9.17027 8.52513 9.2994C8.51844 9.31309 8.50988 9.3301 8.50046 9.34885C8.47699 9.39552 8.44812 9.45295 8.42918 9.49657C8.41402 9.53148 8.3947 9.58011 8.38202 9.63495C8.37007 9.68664 8.35571 9.7779 8.38387 9.8823C8.41661 10.0037 8.49527 10.1005 8.59768 10.1598C8.68581 10.2108 8.77434 10.2245 8.83296 10.229C8.94814 10.2376 9.08008 10.2182 9.20984 10.1922C9.61006 10.1122 9.8768 9.83629 10.0534 9.55821C10.2295 9.28102 10.3482 8.952 10.4376 8.67129C10.4751 8.55323 10.5064 8.44837 10.5343 8.35461C10.5692 8.2374 10.5989 8.13756 10.6294 8.05102C10.8893 8.10415 11.1732 8.08289 11.4172 8.04536C11.7743 7.99042 12.1485 7.88261 12.4579 7.77948C12.6995 7.69893 13.1401 7.64967 13.6394 7.6245C14.1239 7.60007 14.6144 7.60001 14.9314 7.60001H16.1314C16.6835 7.60001 17.0952 7.69138 17.4215 7.78462C17.5045 7.80832 17.5821 7.83219 17.6577 7.85558L17.6749 7.8609C17.7434 7.8821 17.8125 7.90346 17.8778 7.92212C18.014 7.96105 18.172 8.00001 18.3314 8.00001C18.5833 8.00001 18.7772 7.86696 18.8883 7.69664C18.9924 7.53708 19.0275 7.34412 19.0024 7.16844C18.9768 6.9897 18.8813 6.78845 18.6778 6.66638C18.4709 6.54222 18.2294 6.54569 18.0049 6.62053C17.9205 6.64866 17.881 6.63952 17.8693 6.63595C17.8555 6.63178 17.8369 6.62181 17.8137 6.59393C17.7889 6.56416 17.7662 6.52215 17.75 6.47541C17.7402 6.44718 17.7356 6.42528 17.7334 6.41242C17.7388 6.39203 17.7459 6.36923 17.756 6.33667L17.7646 6.30913C17.7895 6.22885 17.8325 6.09029 17.8402 5.9464C17.8483 5.7953 17.8202 5.57417 17.634 5.40269C17.4615 5.24373 17.229 5.20001 17.0064 5.20001C16.7356 5.20001 16.4009 5.22681 16.1038 5.2506C15.9845 5.26015 15.8712 5.26922 15.7706 5.27588C15.7263 5.27881 15.6847 5.28127 15.6459 5.28324L15.65 5.27229L15.6809 5.19046C15.7137 5.1031 15.7604 4.97825 15.7777 4.88622C15.782 4.86298 15.7911 4.81036 15.7857 4.74834C15.783 4.71662 15.7606 4.48561 15.5226 4.39496C15.4158 4.35427 15.3208 4.36815 15.2663 4.38321C15.212 4.39817 15.1716 4.42108 15.1488 4.43544C15.1097 4.46012 15.0784 4.48805 15.0576 4.50821C15.0504 4.51163 15.0324 4.51924 14.9974 4.52823C14.9236 4.5472 14.8086 4.56397 14.6298 4.57589C14.2715 4.59978 13.7384 4.60001 12.9314 4.60001C12.4587 4.60001 12.017 4.73253 11.6339 4.88442C11.4415 4.96073 11.2578 5.0445 11.09 5.12213L11.0213 5.15394C10.878 5.22039 10.7493 5.28003 10.6275 5.33078C10.3213 5.45837 10.1761 5.47489 10.1087 5.45707C10.0987 5.45492 10.0023 5.43437 9.91945 5.10299C9.69715 4.21379 9.27324 3.7713 8.77403 3.61769C8.54283 3.54656 8.32864 3.54899 8.17068 3.5644C8.09259 3.57201 8.02421 3.58332 7.97717 3.59109L7.97593 3.5913C7.9528 3.59512 7.93842 3.59733 7.93024 3.59858C7.92379 3.59957 7.92121 3.6001 7.92121 3.6001C7.83749 3.60163 7.7635 3.62189 7.70124 3.64849C7.79952 3.51369 7.92077 3.36264 8.05125 3.2203C8.17945 3.08045 8.30417 2.96277 8.41082 2.8834C8.48541 2.82789 8.5277 2.80887 8.54166 2.80259C8.54524 2.80098 8.54687 2.79988 8.54687 2.79988C8.68591 2.79758 8.90307 2.76278 9.04202 2.57751C9.21957 2.34077 9.12061 2.08563 9.02639 1.96001C8.84534 1.7186 8.49584 1.60001 8.13139 1.60001Z" fill="#21262A"/>
    <path fill-rule="evenodd" clip-rule="evenodd" d="M16.1314 8.00001C16.0944 8.00001 16.0501 7.99671 15.9851 7.99187L15.9224 7.98727C15.8341 7.98096 15.7194 7.97401 15.6074 7.98072C15.504 7.98693 15.3475 8.00692 15.2074 8.09426C15.0349 8.20173 14.9314 8.38319 14.9314 8.60001C14.9314 8.75867 14.9705 8.90547 14.9947 8.99616L14.9954 8.99886C14.9762 8.99959 14.9549 9.00001 14.9314 9.00001C14.6426 9.00001 14.3817 9.09542 14.2114 9.32251C14.0587 9.52605 14.0314 9.7694 14.0314 9.95001C14.0314 10.1374 14.0622 10.3303 14.0868 10.4783L14.0911 10.504C14.1169 10.6586 14.1314 10.7454 14.1314 10.8L14.1314 10.7981C14.1314 10.7981 14.1303 10.8072 14.1255 10.8266L14.1247 10.8095C14.1213 10.7365 14.1157 10.6641 14.1048 10.5989C14.0955 10.5441 14.0753 10.4448 14.0142 10.3531C13.9797 10.3013 13.925 10.2412 13.8426 10.1989C13.7575 10.1553 13.6699 10.1448 13.5939 10.1524C13.4639 10.1654 13.3681 10.2315 13.3284 10.2601C13.2453 10.3202 13.1499 10.4156 13.0661 10.4996L13.0485 10.5172C12.9803 10.5854 12.9008 10.6587 12.8086 10.7436C12.7752 10.7745 12.7398 10.807 12.703 10.8413C12.5699 10.9648 12.4222 11.1054 12.2854 11.2559C12.03 11.5369 11.7314 11.9365 11.7314 12.4C11.7314 12.7131 11.7291 12.8601 11.6933 13.003C11.6598 13.1371 11.5892 13.2922 11.3986 13.5781C11.1775 13.9098 11.1064 14.349 11.087 14.7085C11.0669 15.0812 11.0993 15.4406 11.1368 15.6658C11.1384 15.675 11.1402 15.6842 11.1424 15.6934C11.7275 18.1309 11.4728 19.5931 11.1357 20.4247C10.9665 20.842 10.7717 21.113 10.6339 21.2778C10.5815 21.3405 10.5407 21.3843 10.5036 21.4241C10.4892 21.4396 10.4753 21.4545 10.4615 21.4697C10.4502 21.4821 10.4357 21.4984 10.4218 21.5158C10.4116 21.5284 10.3834 21.5637 10.3604 21.6114L10.3599 21.6123C10.3497 21.6334 10.2526 21.832 10.3946 22.0297C10.4632 22.1253 10.5533 22.1655 10.6082 22.1821C10.6619 22.1983 10.7075 22.2 10.7314 22.2H15.3314C15.3663 22.2 15.4417 22.2062 15.519 22.2267C15.6028 22.2489 15.6407 22.275 15.6485 22.2829C15.724 22.3583 15.8111 22.3937 15.8595 22.4106C15.9156 22.4302 15.9736 22.4429 16.0261 22.4518C16.1315 22.4697 16.256 22.4791 16.3848 22.4841C16.6446 22.4941 16.9697 22.4873 17.2968 22.4747C17.6016 22.463 17.9033 22.4467 18.1696 22.4324C18.4964 22.4148 18.7701 22.4 18.9314 22.4C19.2238 22.4 19.457 22.2525 19.6236 22.086C19.7899 21.9196 19.9199 21.7061 20.0189 21.4942C20.2149 21.0741 20.3314 20.5666 20.3314 20.2C20.3314 20.1467 20.3359 20.1129 20.3402 20.0928C20.3442 20.0738 20.3487 20.0655 20.3487 20.0655C20.3487 20.0655 20.3519 20.0559 20.4063 20.0124L20.4281 19.9951C20.4814 19.9535 20.5718 19.8827 20.6543 19.7884C20.7567 19.6714 20.845 19.5242 20.9109 19.3265C20.9388 19.2427 20.967 19.1991 20.9835 19.1789L20.9881 19.1735C21.0822 19.2096 21.1869 19.209 21.2812 19.1709C21.3876 19.1279 21.4704 19.0413 21.5086 18.9331C22.142 17.1386 21.9387 15.6348 21.524 14.6674C21.3211 14.1939 21.0539 13.8181 20.78 13.6138C20.6524 13.5186 20.4547 13.4097 20.2269 13.4408C19.9419 13.4797 19.7937 13.7016 19.7433 13.903C19.7433 13.903 19.7426 13.9063 19.7384 13.9158C19.7342 13.9251 19.7277 13.9379 19.7179 13.9543C19.6978 13.9876 19.6679 14.0291 19.6262 14.078C19.5425 14.1762 19.4256 14.2876 19.2847 14.4026C19.0019 14.6335 18.6553 14.8523 18.3638 14.9868L18.3496 14.9933C18.3808 14.9439 18.4171 14.8894 18.4591 14.8294C19.1752 13.8063 19.5095 13.0528 19.6243 12.4499C19.7429 11.8275 19.62 11.4011 19.5109 11.0735C19.5069 11.0615 19.5033 11.0505 19.5002 11.0404C19.5379 11.005 19.5785 10.9593 19.6133 10.9023C19.7008 10.7593 19.7314 10.5892 19.7314 10.4C19.7314 10.0959 19.5582 9.85046 19.3984 9.67976C19.2307 9.50062 19.0144 9.33729 18.808 9.19539C18.6657 9.09756 18.5129 8.99991 18.3738 8.91102C18.3123 8.87172 18.2534 8.83414 18.1994 8.799C18.0071 8.67399 17.88 8.58289 17.8142 8.51716C17.5614 8.26436 17.1857 8.16492 16.912 8.11222C16.7643 8.08378 16.6187 8.06453 16.4966 8.04888L16.4687 8.0453C16.3536 8.03057 16.2709 8.01999 16.2098 8.00777C16.184 8.00261 16.1577 8.00001 16.1314 8.00001Z" fill="#21262A"/>
</svg>
