<svg width="60" height="60" viewBox="0 0 60 60" fill="none" xmlns="http://www.w3.org/2000/svg">
<path d="M7.82867 11.5C6.94005 11.5 6.84108 12.2897 7.1809 12.8164C7.26507 12.9469 7.34849 13.0784 7.42696 13.2124C8.28847 14.6828 12.945 16.5233 15.3287 17C17.8287 17.5 19.6412 19 21.8287 21C24.0162 23 20.3287 25 22.8287 24.5C25.3287 24 25.3287 18.5 26.3287 19C27.3287 19.5 29.3287 19 30.8287 18.5C32.3287 18 35.7475 18 37.3287 18H40.3287C43.3287 18 44.8287 19 45.8287 19C46.8287 19 46.8287 17 45.3287 17.5C43.8287 18 43.3287 16.5 43.3287 16C43.3287 15.5 44.3287 14 42.5162 14C40.7037 14 37.8287 14.5 37.8287 14C37.8287 13.5 38.8287 11.5 38.3287 12C37.8287 12.5 36.3287 12.5 32.3287 12.5C28.3287 12.5 24.8287 17 23.8287 13C22.8287 9 20.3287 10 19.8287 10C19.3287 10 18.8287 11 18.3287 11C17.8287 11 17.3287 10.5 17.8287 9.5C18.3287 8.5 20.3287 6 21.3287 6C22.3287 6 21.8287 5 20.3287 5C18.8287 5 15.3287 8.5 14.8287 9.5C14.3287 10.5 8.82867 11.5 7.82867 11.5Z" fill="#21262A"/>
<path d="M43.8287 22C43.0584 21.2297 41.2991 21.1702 40.4256 21.0181C40.3607 21.0068 40.2959 21.0004 40.2301 20.9981C39.5392 20.9741 38.3287 20.7377 38.3287 21.5C38.3287 22.5 39.3287 23.5 37.3287 23.5C35.3287 23.5 36.3287 26 36.3287 27C36.3287 28 34.3287 31 34.3287 28.5C34.3287 26 34.3287 26 33.3287 27C32.3287 28 30.3287 29.5 30.3287 31C30.3287 32.5 30.3287 33 29.3287 34.5C28.5287 35.7 28.662 38 28.8287 39C31.8287 51.5 26.3287 54.5 26.8287 54.5H38.3287C38.662 54.5 39.4287 54.6 39.8287 55C40.3287 55.5 45.8287 55 47.3287 55C48.8287 55 49.8287 52 49.8287 50.5C49.8287 49 50.8287 49.5 51.3287 48C51.4537 47.625 51.6145 47.3705 51.7867 47.2028C52.2176 46.7831 53.0092 46.496 53.1732 45.9173C55.4057 38.0395 50.8071 33.0863 50.3287 35C49.8287 37 41.8287 41.5 45.3287 36.5C48.8287 31.5 48.3287 29.5 47.8287 28C47.3287 26.5 48.3287 27.5 48.3287 26C48.3287 24.5 44.8287 23 43.8287 22Z" fill="#21262A"/>
<path fill-rule="evenodd" clip-rule="evenodd" d="M16.4314 9.04396C16.0101 9.51206 15.7816 9.8303 15.7232 9.94721C15.5312 10.331 15.1887 10.5777 14.949 10.725C14.6778 10.8917 14.357 11.0379 14.0277 11.1662C13.3656 11.4241 12.5505 11.6552 11.7496 11.8474C10.943 12.041 10.1224 12.2019 9.43655 12.3148C8.96685 12.3922 8.52385 12.4533 8.18416 12.4821C8.22251 12.5454 8.25383 12.6131 8.27741 12.6838C8.27702 12.6829 8.27723 12.6832 8.27741 12.6838C8.28115 12.6918 8.31447 12.7629 8.43813 12.8929C8.56773 13.0292 8.7578 13.19 9.01304 13.3693C9.52374 13.7282 10.2149 14.1057 10.9978 14.467C12.5676 15.1916 14.3673 15.7879 15.5248 16.0194C18.3275 16.5799 20.3237 18.269 22.5035 20.262C23.2382 20.9337 23.5546 21.6933 23.5563 22.4588C23.5564 22.5227 23.5543 22.5857 23.5503 22.6477C23.7964 22.2096 24.0001 21.6632 24.1883 21.0718C24.251 20.8746 24.3153 20.6601 24.3802 20.4434C24.514 19.9968 24.6505 19.5411 24.782 19.2095C24.8775 18.9687 25.0282 18.631 25.2766 18.3754C25.4131 18.2349 25.6264 18.0696 25.9252 18C26.2423 17.9261 26.5389 17.987 26.7759 18.1056C26.9762 18.2057 27.4512 18.2578 28.2392 18.1366C28.9715 18.024 29.786 17.7935 30.5125 17.5513C31.4084 17.2527 32.7665 17.1258 33.998 17.0638C35.263 17 36.5333 17 37.3225 17H40.3287C41.2081 17 41.9699 17.08 42.632 17.1959C42.4205 16.7637 42.3287 16.3185 42.3287 16C42.3287 15.7989 42.3747 15.6144 42.4022 15.5118C42.4275 15.4174 42.4602 15.3128 42.4864 15.2287C42.4918 15.2117 42.4969 15.1954 42.5015 15.1803C42.523 15.1112 42.5406 15.0518 42.5548 15.0003C42.5424 15.0001 42.5296 15 42.5162 15C41.9227 15 41.2265 15.0559 40.5203 15.1126C40.1989 15.1384 39.8755 15.1644 39.5588 15.1853C39.0875 15.2165 38.6059 15.2376 38.2278 15.2079C38.0506 15.1939 37.8033 15.1632 37.5717 15.0668C37.3561 14.9771 36.8287 14.6744 36.8287 14C36.8287 13.8048 36.872 13.6172 36.9028 13.4987C36.9096 13.4724 36.9168 13.4459 36.9244 13.4192C36.8535 13.425 36.7813 13.4304 36.7077 13.4353C35.7369 13.5 34.3359 13.5 32.3804 13.5H32.3287C31.5105 13.5 30.6773 13.7312 29.8224 14.0702C29.3972 14.2388 28.9814 14.4278 28.565 14.6205C28.5099 14.646 28.4546 14.6716 28.3991 14.6974C28.0441 14.862 27.6823 15.0298 27.3383 15.1731C26.6039 15.4791 25.6545 15.8128 24.7603 15.5761C23.7108 15.2983 23.1455 14.3902 22.8586 13.2425C22.4143 11.4656 21.7241 11.0718 21.3471 10.9558C21.1126 10.8836 20.8669 10.8776 20.6211 10.9015C20.4978 10.9136 20.3849 10.9318 20.2662 10.9515C20.2592 10.9526 20.2512 10.954 20.2422 10.9555C20.1897 10.9644 20.1052 10.9787 20.0135 10.9887C19.9617 11.0329 19.8937 11.0992 19.7858 11.2071C19.7802 11.2127 19.7744 11.2185 19.7685 11.2245C19.6561 11.337 19.487 11.5063 19.3037 11.6438C19.1213 11.7806 18.78 12 18.3287 12C17.7554 12 17.1271 11.7079 16.8093 11.0722C16.4928 10.4392 16.6035 9.71438 16.9343 9.05279C17.13 8.66136 17.4824 8.13148 17.9 7.59413C17.8893 7.60354 17.8787 7.61296 17.8681 7.62241C17.3326 8.09841 16.8278 8.60354 16.4314 9.04396ZM21.3759 4.99701C21.3764 4.99746 21.3698 4.99872 21.3544 4.99946C21.3677 4.99693 21.3754 4.99656 21.3759 4.99701ZM20.0758 10.9413C20.0757 10.9416 20.0723 10.944 20.0656 10.9477C20.0725 10.9429 20.0758 10.9411 20.0758 10.9413ZM39.0358 12.7071C39.0395 12.7035 39.0387 12.7045 39.034 12.7089C39.0346 12.7083 39.0352 12.7077 39.0358 12.7071ZM18.3747 4.71586C18.9346 4.36394 19.6461 4 20.3287 4C21.2398 4 22.1136 4.29649 22.5662 4.9C22.8018 5.21407 23.0492 5.85191 22.6053 6.44375C22.2579 6.90692 21.715 6.99394 21.3674 6.99968C21.3674 6.99968 21.3674 6.99969 21.3674 6.99968C21.3684 7.00377 21.2616 7.03412 21.0273 7.20848C20.7607 7.4069 20.4489 7.70111 20.1284 8.05072C19.8022 8.40659 19.4991 8.7842 19.2533 9.12122C19.409 9.05472 19.594 9.00406 19.8033 9.00023C19.8033 9.00023 19.8033 9.00024 19.8033 9.00023C19.8032 8.99947 19.8367 8.99532 19.9401 8.97823L19.9432 8.97772C20.0608 8.95828 20.2317 8.93002 20.4269 8.91098C20.8218 8.87245 21.3573 8.86637 21.9353 9.04422C23.1833 9.42823 24.2431 10.5344 24.7989 12.7575C25.006 13.5859 25.2453 13.6369 25.2705 13.6423C25.2712 13.6425 25.2718 13.6426 25.2721 13.6427C25.4404 13.6872 25.8035 13.6459 26.5691 13.3269C26.8736 13.2001 27.1952 13.051 27.5536 12.8848C27.6099 12.8587 27.6671 12.8322 27.7253 12.8053C28.1448 12.6112 28.604 12.4018 29.0851 12.211C30.0427 11.8313 31.147 11.5 32.3287 11.5C34.3462 11.5 35.6791 11.4994 36.5747 11.4397C37.0218 11.4099 37.3093 11.368 37.4937 11.3206C37.5812 11.2981 37.6264 11.2791 37.6443 11.2705C37.6963 11.2201 37.7744 11.1503 37.8723 11.0886C37.9293 11.0527 38.0303 10.9954 38.1659 10.958C38.3024 10.9204 38.5398 10.8857 38.8068 10.9874C39.4017 11.214 39.4578 11.7915 39.4646 11.8708C39.4779 12.0259 39.4553 12.1574 39.4444 12.2155C39.4013 12.4456 39.2845 12.7577 39.2026 12.9761C39.1767 13.0452 39.1508 13.1134 39.1253 13.1807C39.1219 13.1898 39.1184 13.199 39.115 13.2081C39.2121 13.2032 39.3161 13.197 39.4268 13.1897C39.6784 13.173 39.9615 13.1504 40.2598 13.1265C41.0026 13.067 41.8393 13 42.5162 13C43.0728 13 43.654 13.1093 44.0854 13.5067C44.5507 13.9354 44.621 14.4882 44.6007 14.866C44.5815 15.2257 44.474 15.5721 44.4118 15.7728C44.404 15.7978 44.3969 15.8206 44.3903 15.8417C44.365 15.9231 44.3478 15.9783 44.3341 16.0292C44.3339 16.0298 44.3338 16.0304 44.3336 16.031C44.3392 16.0632 44.3508 16.1179 44.3753 16.1885C44.4157 16.3053 44.4724 16.4104 44.5344 16.4848C44.5925 16.5545 44.639 16.5794 44.6734 16.5899C44.7029 16.5988 44.8015 16.6216 45.0125 16.5513C45.5738 16.3642 46.1774 16.3555 46.6948 16.6659C47.2034 16.9711 47.4423 17.4742 47.5062 17.9211C47.5689 18.3603 47.4812 18.8427 47.221 19.2416C46.9433 19.6674 46.4585 20 45.8287 20C45.4302 20 45.0353 19.9026 44.6946 19.8053C44.5314 19.7586 44.3588 19.7052 44.1876 19.6522L44.1446 19.6389C43.9554 19.5804 43.7614 19.5208 43.554 19.4615C42.7382 19.2284 41.709 19 40.3287 19H37.3287C36.5363 19 35.31 19.0002 34.0986 19.0612C32.8504 19.1242 31.7491 19.2473 31.145 19.4487C30.3715 19.7065 29.4359 19.976 28.5433 20.1134C27.9333 20.2072 27.2235 20.2604 26.5738 20.1275C26.4976 20.3439 26.4233 20.5935 26.336 20.8865C26.2662 21.1209 26.1881 21.3831 26.0942 21.6782C25.8709 22.38 25.5739 23.2025 25.1338 23.8955C24.6922 24.5907 24.0254 25.2805 23.0248 25.4806C22.7004 25.5455 22.3706 25.5941 22.0826 25.5724C21.9361 25.5613 21.7148 25.527 21.4944 25.3994C21.2384 25.2512 21.0418 25.0092 20.9599 24.7057C20.8895 24.4447 20.9254 24.2166 20.9553 24.0874C20.987 23.9503 21.0353 23.8287 21.0732 23.7414C21.1205 23.6323 21.1927 23.4888 21.2514 23.3721C21.275 23.3252 21.2963 23.2827 21.3131 23.2485C21.4708 22.9257 21.5567 22.6799 21.5563 22.4631C21.5559 22.3067 21.513 22.0663 21.154 21.738C18.9588 19.731 17.33 18.4201 15.1326 17.9806C13.7901 17.7121 11.8398 17.0584 10.1597 16.283C9.31754 15.8943 8.5087 15.4593 7.86315 15.0057C7.54026 14.7788 7.23815 14.5333 6.98884 14.2712C6.79437 14.0667 6.60169 13.8206 6.4676 13.5347C6.10812 13.0842 5.91571 12.466 6.03564 11.8664C6.10833 11.503 6.3016 11.1369 6.65096 10.8697C6.99621 10.6057 7.41238 10.5 7.82872 10.5C7.98642 10.5 8.44244 10.4516 9.11152 10.3414C9.75382 10.2356 10.5269 10.084 11.2829 9.90261C12.0445 9.71983 12.7606 9.51338 13.3016 9.3026C13.5739 9.19652 13.7726 9.10047 13.9018 9.0211C13.937 8.99948 13.9615 8.98243 13.9777 8.97038C14.1817 8.60032 14.552 8.14244 14.9448 7.70604C15.3922 7.20896 15.9499 6.65159 16.5394 6.12759C17.1259 5.60623 17.765 5.09912 18.3747 4.71586ZM18.0817 10.0587C18.0817 10.0584 18.0852 10.056 18.0919 10.0523C18.085 10.0571 18.0816 10.0589 18.0817 10.0587ZM39.4124 21.9483C39.4149 21.9576 39.4174 21.9671 39.42 21.9767C39.4245 21.9938 39.4297 22.0127 39.4353 22.0334C39.4872 22.2233 39.5787 22.5582 39.5787 22.875C39.5787 23.0775 39.5451 23.3312 39.4139 23.5872C39.2779 23.8523 39.0717 24.0524 38.8326 24.1919C38.4049 24.4414 37.8658 24.5 37.3287 24.5C37.2158 24.5 37.1532 24.5122 37.1221 24.5222C37.1082 24.5585 37.0787 24.6597 37.0787 24.875C37.0787 25.1566 37.1268 25.4867 37.1901 25.8669C37.1962 25.9034 37.2027 25.9415 37.2094 25.9811C37.262 26.2913 37.3287 26.6843 37.3287 27C37.3287 27.4918 37.1135 28.041 36.9143 28.4477C36.6967 28.8918 36.3995 29.3631 36.0761 29.7269C35.9173 29.9056 35.7167 30.0988 35.4813 30.242C35.267 30.3724 34.8514 30.5639 34.3612 30.4209C33.8316 30.2665 33.5802 29.8353 33.4715 29.5265C33.3624 29.2168 33.3287 28.8606 33.3287 28.5C33.3287 28.4573 33.3287 28.4155 33.3287 28.3745C33.2579 28.4398 33.1875 28.5047 33.1186 28.5687C32.7949 28.8693 32.4766 29.174 32.1937 29.4852C31.5822 30.1578 31.3287 30.6588 31.3287 31C31.3287 31.0244 31.3287 31.0487 31.3287 31.073C31.3289 31.7604 31.3291 32.3716 31.1739 32.9925C31.0077 33.6572 30.6842 34.2696 30.1608 35.0547C29.9136 35.4255 29.758 36.0775 29.7148 36.8788C29.6744 37.628 29.7389 38.3612 29.8097 38.8025C31.3363 45.188 30.7232 49.2719 29.693 51.8132C29.4195 52.4877 29.1201 53.0448 28.8317 53.5H38.3287C38.5749 53.5 38.9364 53.5345 39.3096 53.6333C39.6206 53.7156 40.031 53.8661 40.383 54.1546C40.3885 54.1556 40.3943 54.1566 40.4005 54.1577C40.5393 54.1813 40.7515 54.2006 41.039 54.2117C41.6083 54.2336 42.358 54.2193 43.1653 54.1882C43.8296 54.1627 44.547 54.1245 45.2106 54.0893C46.098 54.0421 46.8892 54 47.3287 54C47.3477 54 47.4521 53.9937 47.6451 53.8007C47.8386 53.6071 48.0448 53.2972 48.235 52.8896C48.62 52.0648 48.8287 51.0835 48.8287 50.5C48.8287 50.015 48.9096 49.5876 49.1135 49.2112C49.3153 48.8387 49.5901 48.6103 49.7665 48.4691C49.8003 48.4421 49.8306 48.4181 49.8581 48.3963C49.9893 48.2923 50.0564 48.239 50.1308 48.154C50.2029 48.0716 50.2948 47.9395 50.38 47.6838C50.6414 46.8996 51.0905 46.3325 51.7114 46.0677C51.8501 46.0085 51.9881 45.9686 52.1231 45.9444C53.2413 42.2645 52.7596 39.2941 51.9721 37.4564C51.6548 36.7161 51.3059 36.1998 51.0245 35.8902C50.8948 36.1107 50.7403 36.3135 50.5877 36.4925C50.2776 36.8564 49.8901 37.2185 49.4767 37.5559C48.6525 38.2288 47.6441 38.8693 46.7478 39.283C46.3044 39.4876 45.8419 39.6586 45.4164 39.7345C45.0738 39.7956 44.3879 39.8646 43.8777 39.3844C43.2923 38.8335 43.4275 38.0702 43.5679 37.6417C43.7288 37.1507 44.0527 36.5792 44.5095 35.9265C46.2191 33.4842 46.8835 31.8681 47.0964 30.7504C47.3 29.6814 47.1071 28.9974 46.88 28.3162C46.7509 27.9287 46.6423 27.5043 46.7095 27.1012C46.7496 26.8608 46.8479 26.6446 46.999 26.4633C47.1206 26.3173 47.2546 26.223 47.32 26.179C47.3246 26.1389 47.3287 26.0807 47.3287 26C47.3287 26.0009 47.3289 26.0012 47.3287 26C47.3262 25.9868 47.3001 25.8482 47.0362 25.5662C46.768 25.2797 46.3712 24.9693 45.8872 24.6365C45.5593 24.4111 45.2279 24.1995 44.8948 23.9867C44.7331 23.8834 44.571 23.7799 44.4087 23.6744C43.952 23.3775 43.4573 23.0428 43.1216 22.7071C42.9536 22.5391 42.5596 22.3711 41.9021 22.2445C41.6006 22.1864 41.2917 22.145 40.9875 22.1059C40.9587 22.1022 40.9295 22.0985 40.9001 22.0948C40.6743 22.066 40.4344 22.0355 40.2273 21.9985C40.0761 21.9941 39.9106 21.9816 39.7707 21.971C39.7329 21.9682 39.697 21.9655 39.6637 21.9631C39.5722 21.9565 39.4887 21.9514 39.4124 21.9483ZM50.6476 35.571C50.6475 35.5708 50.6506 35.5718 50.6568 35.5748C50.6508 35.5727 50.6477 35.5713 50.6476 35.571ZM33.2848 26.8049C33.285 26.8046 33.2861 26.8088 33.2879 26.8182C33.2856 26.8099 33.2847 26.8052 33.2848 26.8049ZM37.0962 24.5347C37.0955 24.5342 37.0994 24.5309 37.1101 24.5265C37.1023 24.5331 37.097 24.5353 37.0962 24.5347ZM39.963 19.9797C40.1255 19.9918 40.2362 20 40.3287 20C40.3946 20 40.4603 20.0065 40.5248 20.0194C40.6776 20.05 40.8842 20.0764 41.1719 20.1132L41.2418 20.1222C41.547 20.1613 41.911 20.2094 42.2803 20.2805C42.9645 20.4123 43.9038 20.6609 44.5358 21.2929C44.7001 21.4572 45.0179 21.685 45.4987 21.9975C45.6338 22.0853 45.7809 22.1793 45.9346 22.2775C46.2825 22.4998 46.6645 22.7439 47.0203 22.9885C47.5362 23.3432 48.077 23.7515 48.4962 24.1994C48.8958 24.6261 49.3287 25.2398 49.3287 26C49.3287 26.473 49.2521 26.8982 49.0336 27.2558C48.9465 27.3983 48.845 27.5126 48.7507 27.6009C48.7586 27.6262 48.7674 27.6538 48.7774 27.6838C49.0504 28.5026 49.3574 29.5686 49.0611 31.1246C48.774 32.6319 47.9383 34.5158 46.148 37.0735C46.043 37.2234 45.9523 37.3598 45.8742 37.4833C45.8859 37.478 45.8977 37.4725 45.9097 37.467C46.6384 37.1307 47.505 36.5837 48.212 36.0066C48.5642 35.719 48.8565 35.4405 49.0658 35.195C49.1699 35.0728 49.2448 34.9691 49.2949 34.8858C49.3195 34.8448 49.3358 34.8127 49.3462 34.7894C49.3566 34.7658 49.3591 34.7554 49.3586 34.7575C49.4844 34.2541 49.8549 33.6993 50.5674 33.602C51.1369 33.5242 51.6312 33.7965 51.9501 34.0344C52.6349 34.5453 53.303 35.4848 53.8104 36.6686C54.8469 39.0871 55.3551 42.8465 53.7717 47.3328C53.6763 47.6033 53.4692 47.8198 53.2033 47.9272C52.9676 48.0224 52.7057 48.0239 52.4706 47.9337C52.467 47.9377 52.4631 47.9421 52.459 47.9472C52.4177 47.9977 52.3473 48.1067 52.2774 48.3162C52.1126 48.8105 51.892 49.1784 51.636 49.471C51.4297 49.7068 51.2037 49.8836 51.0705 49.9878C51.05 50.0039 51.0316 50.0183 51.0159 50.0309C50.8799 50.1397 50.8734 50.1613 50.8721 50.1638C50.8706 50.1664 50.8608 50.1845 50.8507 50.232C50.8399 50.2824 50.8287 50.3668 50.8287 50.5C50.8287 51.4165 50.5375 52.6852 50.0474 53.7354C49.8001 54.2653 49.4751 54.7991 49.0593 55.2149C48.6429 55.6313 48.0597 56 47.3287 56C46.9255 56 46.2413 56.0369 45.4243 56.0809C44.7584 56.1168 44.0043 56.1574 43.2422 56.1868C42.4245 56.2182 41.6116 56.2352 40.9622 56.2102C40.6403 56.1978 40.3291 56.1742 40.0655 56.1294C39.9343 56.1071 39.7892 56.0754 39.649 56.0264C39.528 55.9841 39.3102 55.8957 39.1216 55.7071C39.102 55.6875 39.0072 55.6221 38.7978 55.5667C38.6044 55.5155 38.4159 55.5 38.3287 55.5H26.8287C26.7691 55.5 26.6551 55.4957 26.5208 55.4552C26.3836 55.4138 26.1582 55.3132 25.9866 55.0742C25.6319 54.58 25.8744 54.0834 25.9001 54.0308L25.9013 54.0284C25.9588 53.9093 26.0293 53.8209 26.0546 53.7894C26.0895 53.746 26.1258 53.7053 26.1539 53.6743C26.1884 53.6363 26.2231 53.5991 26.2592 53.5604C26.352 53.4607 26.4538 53.3514 26.585 53.1945C26.9295 52.7825 27.4166 52.1049 27.8395 51.0618C28.6823 48.9828 29.3189 45.3273 27.8563 39.2334C27.8509 39.2106 27.8462 39.1875 27.8423 39.1644C27.7485 38.6016 27.6674 37.7029 27.7177 36.7712C27.7661 35.8725 27.9439 34.7745 28.4967 33.9453C28.9733 33.2304 29.1497 32.8428 29.2336 32.5075C29.3229 32.1503 29.3287 31.7826 29.3287 31C29.3287 29.8412 30.0753 28.8422 30.7138 28.1398C31.0559 27.7635 31.4251 27.412 31.7577 27.1031C31.85 27.0174 31.938 26.9363 32.0218 26.8591C32.2523 26.6467 32.4511 26.4634 32.6216 26.2929C32.6361 26.2785 32.6506 26.2638 32.6654 26.2491C32.8751 26.0391 33.1134 25.8005 33.3214 25.6503C33.4205 25.5787 33.6601 25.4134 33.9851 25.3809C34.175 25.3619 34.394 25.3883 34.6067 25.4973C34.8128 25.6029 34.9495 25.7533 35.0358 25.8828C35.1886 26.1121 35.2391 26.3602 35.2621 26.4972C35.2896 26.6602 35.3035 26.8413 35.312 27.0239C35.3127 27.0379 35.3133 27.0521 35.3139 27.0665C35.3261 27.0179 35.3283 26.9952 35.3286 26.9952C35.3288 26.9952 35.3287 26.9968 35.3287 27C35.3287 26.8634 35.2925 26.6464 35.2281 26.26L35.2173 26.1956C35.1557 25.8258 35.0787 25.3434 35.0787 24.875C35.0787 24.4235 35.1471 23.8151 35.5287 23.3062C35.9545 22.7385 36.6067 22.5 37.3287 22.5C37.3874 22.5 37.4407 22.499 37.4888 22.4971C37.4884 22.4954 37.4879 22.4937 37.4875 22.492L37.4871 22.4904C37.4266 22.2637 37.3287 21.8967 37.3287 21.5C37.3287 20.958 37.5874 20.5043 38.0187 20.2356C38.3691 20.0173 38.7602 19.9673 39.0188 19.9518C39.2987 19.935 39.5854 19.9524 39.8062 19.9682C39.8635 19.9723 39.9154 19.9761 39.963 19.9797ZM44.9382 37.7779C44.9388 37.7772 44.9479 37.7767 44.9636 37.7786C44.9454 37.7795 44.9375 37.7786 44.9382 37.7779ZM45.4443 38.3499C45.4434 38.363 45.4418 38.3704 45.4413 38.3708C45.4407 38.3712 45.4412 38.3647 45.4443 38.3499Z" fill="#21262A"/>
<path d="M20.0366 37.496V29H17.0726L15.2246 34.448H15.1766L13.2446 29H10.3286V37.496H12.2606L12.2126 31.484H12.2486L14.3966 37.496H15.8366L18.0446 31.484H18.0806L18.0326 37.496H20.0366Z" fill="#21262A"/>
<path d="M23.8536 37.496V29H21.7896V37.496H23.8536Z" fill="#21262A"/>
</svg>
