<svg width="24" height="24" viewBox="0 0 24 24" fill="none" xmlns="http://www.w3.org/2000/svg">
    <path d="M9.03138 3.23137C9.03138 2.8575 8.91113 2.44645 8.76415 2.15248C8.69281 2.00981 8.59535 1.85401 8.46982 1.74641C8.40737 1.69289 8.30443 1.62219 8.1661 1.60423C8.00391 1.58317 7.85465 1.64241 7.74853 1.74852C7.64076 1.8563 7.58442 1.99532 7.55237 2.09349C7.51685 2.20231 7.49278 2.32072 7.47595 2.43105C7.46577 2.49778 7.45768 2.5654 7.45133 2.63137H3.23138C3.07986 2.63137 2.94135 2.71698 2.87359 2.85251C2.84043 2.91884 2.82739 2.98496 2.82123 3.02104C2.81376 3.06474 2.80917 3.1111 2.80615 3.15624C2.80007 3.24692 2.79873 3.35773 2.80056 3.48143C2.80424 3.73022 2.82123 4.05824 2.84799 4.43766C2.90163 5.198 2.99598 6.18498 3.10882 7.20053C3.3325 9.21358 3.63549 11.4017 3.84677 12.1412C4.03245 12.7911 4.0224 13.218 3.94332 13.5343C3.86233 13.8583 3.70155 14.1049 3.49856 14.4094C3.35965 14.6178 3.31772 14.8501 3.37912 15.0762C3.4354 15.2833 3.56689 15.4429 3.69179 15.5568C3.85199 15.7029 4.05011 15.8183 4.23138 15.9019V21.8313C4.23138 21.9995 4.3366 22.1497 4.49468 22.2072C5.1134 22.4322 6.17557 22.5313 7.37204 22.5686C8.58832 22.6065 10.0048 22.5812 11.371 22.531C12.7383 22.4809 14.0608 22.4056 15.09 22.3431C15.3595 22.3267 15.607 22.3113 15.829 22.2975C16.467 22.2579 16.895 22.2313 17.0314 22.2313C17.2206 22.2313 17.4585 22.2242 17.6443 22.1375C17.7541 22.0863 17.8705 21.9965 17.9374 21.8481C18.0013 21.7064 17.9959 21.5642 17.9736 21.4528C17.9324 21.2466 17.8056 21.0154 17.6494 20.7717C17.4847 20.5147 17.2521 20.1923 16.9514 19.7913C16.3101 18.9363 15.4127 18.6771 14.7715 18.4919C14.7192 18.4768 14.6686 18.4622 14.62 18.4478C14.2695 18.3439 14.0639 18.2639 13.944 18.1573C13.8661 18.0881 13.7909 17.9801 13.8283 17.6809C13.9306 16.8628 13.9352 16.2679 13.8503 15.7868C13.7632 15.2932 13.5858 14.9418 13.3642 14.6094L13.3632 14.6078C13.3653 14.6024 13.3689 14.5944 13.3751 14.5837C13.4165 14.5116 13.5166 14.4082 13.6929 14.2789C13.8618 14.155 14.0644 14.0329 14.2732 13.9114L14.3872 13.8453C14.5526 13.7497 14.7206 13.6525 14.8533 13.5641C15.108 13.3943 15.2322 13.1576 15.2549 12.8972C15.2745 12.6719 15.2155 12.4447 15.166 12.2714C15.1524 12.2237 15.139 12.1779 15.1261 12.1338C15.0296 11.8036 14.9601 11.5657 15.0194 11.3283C15.0262 11.3012 15.0631 11.2159 15.1674 11.0633C15.2648 10.921 15.4003 10.7492 15.568 10.5559C15.9027 10.1699 16.3479 9.71809 16.8277 9.27521C17.3072 8.83255 17.8149 8.4047 18.2728 8.06506C18.7424 7.71675 19.1233 7.48894 19.3579 7.41077C19.633 7.31907 19.8321 7.25983 19.9857 7.21414L20.0208 7.20368C20.1665 7.1603 20.2996 7.12068 20.4111 7.06822C20.6465 6.95743 20.7794 6.78729 20.951 6.56745C20.9733 6.53899 20.9962 6.50969 21.02 6.47957C21.0609 6.42785 21.1049 6.36416 21.1359 6.2911C21.1659 6.22061 21.201 6.10088 21.1636 5.96251C21.1224 5.81023 21.017 5.71812 20.9266 5.67045C20.8449 5.62741 20.7631 5.61251 20.7078 5.60596C20.5961 5.59269 20.4687 5.60084 20.357 5.61168C20.2408 5.62296 20.1078 5.641 19.9736 5.65919L19.9683 5.65992C19.6885 5.69785 19.3865 5.73844 19.0949 5.74709C18.7983 5.75589 18.554 5.72953 18.3799 5.6599C18.1055 5.55011 17.8771 5.49379 17.6626 5.49379C17.4414 5.49379 17.2716 5.55438 17.1328 5.6099C17.107 5.62021 17.0824 5.63028 17.0584 5.64011C16.9522 5.68354 16.8572 5.72242 16.7252 5.75648C16.5677 5.79713 16.3516 5.83129 16.0314 5.83129C15.504 5.83129 15.1579 5.54221 14.755 5.16448L14.707 5.11943C14.5302 4.95305 14.3252 4.7601 14.102 4.62409C13.8403 4.46457 13.5259 4.36446 13.1529 4.43906C12.9585 4.47795 12.678 4.48166 12.3317 4.45155C11.9912 4.42194 11.6123 4.36212 11.2324 4.28858C10.5961 4.16542 9.97804 4.0082 9.55431 3.90041C9.47106 3.87923 9.3953 3.85996 9.32839 3.84324C9.14501 3.79739 9.05345 3.75962 9.00959 3.73422C9.00897 3.71658 9.00899 3.68615 9.01194 3.63609C9.01313 3.61589 9.0148 3.59225 9.01668 3.56581C9.02292 3.47781 9.03138 3.3587 9.03138 3.23137Z" fill="#21262A"/>
</svg>
