<svg width="60" height="60" viewBox="0 0 60 60" fill="none" xmlns="http://www.w3.org/2000/svg">
<path d="M18.5789 7.57831H8.69701C8.31822 7.57831 8.01396 7.80214 8.00351 8.18079C7.91112 11.5285 9.66378 26.8751 10.5789 30.0781C11.5789 33.5781 10.5789 35.0781 9.57893 36.5781C8.93848 37.5388 9.96438 38.3499 10.9121 38.8063C11.3 38.993 11.5789 39.3685 11.5789 39.7989V53.8777C11.5789 54.2982 11.8362 54.6757 12.2437 54.7795C18.7489 56.4362 40.6512 54.5781 42.5789 54.5781C44.5789 54.5781 44.5789 54.0781 41.5789 50.0781C38.5789 46.0781 33.0789 48.0781 33.5789 44.0781C34.0789 40.0781 33.5789 38.5781 32.5789 37.0781C31.5789 35.5781 35.0789 34.0781 36.5789 33.0781C38.0789 32.0781 36.0789 30.0781 36.5789 28.0781C37.0789 26.0781 45.0789 18.5781 48.0789 17.5781C51.0789 16.5781 50.5789 17.0781 51.7664 15.5781C52.9539 14.0781 48.0789 16.0781 45.5789 15.0781C43.0789 14.0781 43.5789 15.5781 40.0789 15.5781C36.5789 15.5781 35.5789 11.5781 33.0789 12.0781C30.5789 12.5781 25.0789 11.0781 23.0789 10.5781C21.0789 10.0781 21.5789 9.57831 21.5789 8.07831C21.5789 6.57831 20.5789 4.57831 20.0789 5.07831C19.8316 5.32568 19.6989 5.96825 19.6337 6.58028C19.5752 7.12946 19.1312 7.57831 18.5789 7.57831Z" fill="#21262A"/>
<path fill-rule="evenodd" clip-rule="evenodd" d="M20.5612 7.7671C20.4729 8.22917 20.0667 8.5784 19.5789 8.5784H9.00054C9.00081 8.60935 9.00119 8.64123 9.00167 8.67402C9.01006 9.24152 9.04961 10.0191 9.11552 10.9534C9.24705 12.8181 9.47992 15.2569 9.76032 17.7804C10.3261 22.8727 11.0687 28.1522 11.5405 29.8035C12.0762 31.6788 12.1014 33.1116 11.7991 34.3208C11.5068 35.4897 10.9247 36.3627 10.4373 37.0934L10.411 37.1329C10.3969 37.1541 10.3886 37.1698 10.3838 37.1801C10.3983 37.2121 10.4453 37.2934 10.5779 37.4145C10.9082 37.7158 11.4616 37.985 11.8952 38.1295C12.3035 38.2656 12.5789 38.6478 12.5789 39.0782V53.8331C13.8862 54.1521 15.9491 54.3432 18.4929 54.4225C21.4678 54.5152 24.9578 54.4535 28.3548 54.3289C31.7491 54.2043 35.0366 54.0174 37.6042 53.8613C38.2236 53.8237 38.8053 53.7875 39.3386 53.7543C40.9853 53.6519 42.1707 53.5782 42.5789 53.5782C42.651 53.5782 42.7174 53.5775 42.7787 53.5761C42.6987 53.4276 42.5891 53.2408 42.4402 53.0085C42.0707 52.4321 41.527 51.6757 40.7789 50.6782C39.5915 49.0949 37.9634 48.6179 36.3107 48.1336C36.2013 48.1015 36.0918 48.0695 35.9823 48.037C35.171 47.7966 34.2164 47.4967 33.5318 46.8881C32.7421 46.1862 32.4301 45.2063 32.5867 43.9542C32.831 41.9995 32.8194 40.7367 32.6567 39.8145C32.4994 38.9233 32.1928 38.3019 31.7469 37.6329C31.5201 37.2928 31.3959 36.9088 31.4023 36.501C31.4085 36.1041 31.5372 35.7533 31.704 35.4629C32.0224 34.9087 32.5534 34.4485 33.0501 34.0843C33.5653 33.7064 34.1526 33.3554 34.6774 33.0499C34.7872 32.986 34.8934 32.9245 34.9958 32.8653C35.404 32.6291 35.7511 32.4283 36.0242 32.2462C36.1364 32.1714 36.1393 32.1381 36.145 32.0715L36.1452 32.0697C36.1587 31.9143 36.1186 31.6698 35.9924 31.2279C35.9671 31.1392 35.9375 31.042 35.9056 30.9373C35.6724 30.1709 35.317 29.003 35.6088 27.8357C35.7168 27.4035 35.9841 26.9448 36.2681 26.5294C36.5697 26.0884 36.9613 25.596 37.4094 25.0793C38.3069 24.0443 39.4751 22.8612 40.7132 21.7184C41.9518 20.5751 43.2764 19.4572 44.491 18.5563C45.6764 17.6771 46.849 16.9341 47.7627 16.6295C48.159 16.4974 48.4961 16.3908 48.7836 16.3024C48.4608 16.3332 48.1284 16.357 47.7971 16.3668C46.9585 16.3917 46.0224 16.3326 45.2075 16.0067C44.6437 15.7812 44.3397 15.7345 44.1571 15.7345C43.9915 15.7345 43.8533 15.7705 43.5753 15.8817C43.5314 15.8993 43.4837 15.9189 43.4322 15.9401C43.1614 16.0515 42.7869 16.2055 42.3132 16.3277C41.7382 16.4761 41.0284 16.5782 40.0789 16.5782C37.8973 16.5782 36.5127 15.3009 35.52 14.3703C35.4942 14.3461 35.4688 14.3222 35.4436 14.2986C34.951 13.8365 34.5867 13.4947 34.2148 13.2681C33.8692 13.0575 33.5926 12.9953 33.275 13.0588C32.5112 13.2116 31.5874 13.2023 30.6564 13.1213C29.7105 13.0391 28.689 12.8761 27.7014 12.685C26.0472 12.3648 24.4349 11.9545 23.3791 11.6858C23.1765 11.6342 22.9944 11.5879 22.8364 11.5484C21.8646 11.3054 20.9434 10.959 20.6303 10.0196C20.5006 9.63065 20.5183 9.23661 20.5338 8.97277C20.539 8.88422 20.5449 8.80104 20.5506 8.71965C20.5652 8.5137 20.5789 8.31923 20.5789 8.0784C20.5789 7.97884 20.5727 7.87441 20.5612 7.7671ZM42.9745 54.0307C42.9745 54.0307 42.9743 54.0301 42.9742 54.0287L42.9745 54.0307ZM10.3779 37.1953C10.3779 37.1953 10.378 37.195 10.3782 37.1942L10.3779 37.1953ZM21.9109 5.38119C22.2783 6.1161 22.5789 7.14375 22.5789 8.0784C22.5789 8.39673 22.5578 8.69451 22.5422 8.91451C22.5375 8.98062 22.5333 9.03971 22.5303 9.09022C22.523 9.21535 22.5229 9.29143 22.5245 9.33553C22.6341 9.39902 22.863 9.49346 23.3215 9.60807C23.4888 9.64989 23.6781 9.69807 23.8862 9.75101C24.9456 10.0205 26.4906 10.4135 28.0815 10.7214C29.0314 10.9053 29.9786 11.0548 30.8296 11.1289C31.6955 11.2041 32.3967 11.1949 32.8828 11.0976C33.8153 10.9111 34.6011 11.1614 35.2556 11.5602C35.8136 11.9002 36.3261 12.3826 36.7681 12.7986C36.8086 12.8367 36.8485 12.8743 36.8879 12.9112C37.8951 13.8555 38.7605 14.5782 40.0789 14.5782C40.8794 14.5782 41.4196 14.4928 41.8134 14.3912C42.1434 14.306 42.38 14.2093 42.6455 14.1007C42.7059 14.076 42.7677 14.0507 42.8325 14.0247C43.1796 13.8859 43.6039 13.7345 44.1571 13.7345C44.6932 13.7345 45.2641 13.8753 45.9503 14.1497C46.3855 14.3238 46.9962 14.3897 47.7378 14.3677C48.4667 14.3461 49.2217 14.2446 49.9211 14.1498L49.9344 14.148C50.2699 14.1025 50.6025 14.0574 50.8931 14.0292C51.1722 14.0021 51.4906 13.9817 51.77 14.0149C51.9082 14.0313 52.1127 14.0685 52.3169 14.1761C52.543 14.2953 52.8066 14.5256 52.9094 14.9063C53.0029 15.2522 52.9153 15.5515 52.8403 15.7277C52.7627 15.9104 52.6529 16.0696 52.5505 16.1989C52.4909 16.2742 52.4337 16.3474 52.3781 16.4186C51.9489 16.9682 51.6167 17.3936 51.0282 17.6705C50.7495 17.8017 50.4168 17.9007 50.0526 18.0092L49.9647 18.0353C49.5808 18.1496 49.0829 18.2977 48.3952 18.5269C47.8088 18.7223 46.8565 19.2919 45.6825 20.1626C44.5377 21.0117 43.2686 22.0814 42.0697 23.188C40.8703 24.2952 39.7572 25.4247 38.9204 26.3896C38.5012 26.8729 38.1624 27.3024 37.919 27.6583C37.6582 28.0398 37.566 28.2529 37.5491 28.3208C37.4007 28.9143 37.5739 29.5072 37.8152 30.3327C37.8476 30.4436 37.8812 30.5586 37.9155 30.6785C38.0392 31.1117 38.1867 31.6796 38.1377 32.243C38.0811 32.8939 37.7705 33.4857 37.1336 33.9103C36.8021 34.1313 36.3819 34.3743 35.9685 34.6133C35.8728 34.6686 35.7774 34.7238 35.6836 34.7784C35.1615 35.0823 34.655 35.3875 34.2328 35.6971C33.792 36.0204 33.5417 36.279 33.4382 36.4592C33.4228 36.486 33.4137 36.506 33.4084 36.5196C33.4092 36.5208 33.4101 36.5221 33.411 36.5235C33.965 37.3546 34.4085 38.2331 34.6262 39.4669C34.8385 40.6698 34.8269 42.1569 34.5712 44.2023C34.4777 44.9501 34.6657 45.2202 34.8605 45.3933C35.1602 45.6597 35.6743 45.8598 36.5505 46.1194C36.6721 46.1554 36.7985 46.192 36.9293 46.2297C38.5322 46.6927 40.7758 47.3407 42.3789 49.4782C43.1309 50.4808 43.7122 51.2868 44.1239 51.9292C44.5145 52.5385 44.8314 53.1164 44.9345 53.6321C44.9902 53.9106 45.0038 54.2659 44.844 54.6202C44.6767 54.9913 44.3856 55.2157 44.1112 55.3438C43.6467 55.5605 43.0519 55.5782 42.5789 55.5782C42.2381 55.5782 41.1679 55.6447 39.573 55.7438C39.0179 55.7782 38.3992 55.8167 37.7255 55.8576C35.1525 56.014 31.8463 56.2021 28.4281 56.3275C25.0126 56.4529 21.4713 56.5163 18.4306 56.4215C15.4394 56.3283 12.784 56.0805 11.2372 55.518C10.842 55.3743 10.5789 54.9987 10.5789 54.5782V39.7548C10.1258 39.5456 9.63046 39.2573 9.22997 38.892C8.91772 38.6071 8.58898 38.2083 8.44828 37.6904C8.29479 37.1253 8.39961 36.5444 8.74688 36.0235C9.25437 35.2623 9.6563 34.6456 9.85879 33.8357C10.0565 33.0449 10.0816 31.9777 9.61741 30.3529C9.0892 28.5042 8.33174 23.0339 7.77255 18.0013C7.49045 15.4624 7.25456 12.995 7.12047 11.0941C7.05356 10.1456 7.01108 9.32554 7.00189 8.70357C6.99732 8.3943 7.00067 8.11729 7.01586 7.89059C7.02343 7.77773 7.03489 7.66183 7.05356 7.55259C7.06897 7.46239 7.10157 7.29708 7.18447 7.13125C7.35385 6.79243 7.70013 6.5784 8.07893 6.5784H18.6288C18.6447 6.41349 18.6649 6.24445 18.6904 6.0776C18.7324 5.80177 18.7926 5.50575 18.8814 5.23371C18.9615 4.98829 19.1024 4.64073 19.3718 4.37129C19.6371 4.10601 20.0103 3.9579 20.4157 4.01055C20.7616 4.05547 21.0189 4.2322 21.175 4.36602C21.4889 4.63502 21.7325 5.02452 21.9109 5.38119Z" fill="#21262A"/>
<path d="M23.7869 25.496V17H20.8229L18.9749 22.448H18.9269L16.9949 17H14.0789V25.496H16.0109L15.9629 19.484H15.9989L18.1469 25.496H19.5869L21.7949 19.484H21.8309L21.7829 25.496H23.7869Z" fill="#21262A"/>
<path d="M33.2678 25.496V17H31.2758L31.3238 22.544H31.2878L27.8798 17H25.5398V25.496H27.5318L27.4838 19.94H27.5198L30.9398 25.496H33.2678Z" fill="#21262A"/>
</svg>
