<svg width="24" height="24" viewBox="0 0 24 24" fill="none" xmlns="http://www.w3.org/2000/svg">
    <path fill-rule="evenodd" clip-rule="evenodd" d="M10.8001 2C10.7093 2 10.6211 2.03091 10.5502 2.08765C10.3723 2.22998 10.1063 2.4638 9.8806 2.70932C9.76821 2.8316 9.65715 2.96612 9.57176 3.10063C9.49526 3.22116 9.4001 3.40093 9.4001 3.6C9.4001 3.62634 9.4027 3.65262 9.40787 3.67845C9.49916 4.13491 9.43415 4.32169 9.4028 4.37654C9.39508 4.39006 9.38884 4.39696 9.38529 4.40023C9.24004 4.40468 9.13179 4.47373 9.0752 4.51653C9.00947 4.56625 8.95376 4.62647 8.90875 4.68171C8.81775 4.79339 8.72921 4.93629 8.64894 5.08346C8.48676 5.38078 8.32755 5.75273 8.22062 6.07351C8.13202 6.33931 7.99565 6.6145 7.84894 6.88346C7.7974 6.97795 7.74155 7.0768 7.68645 7.17431C7.59543 7.3354 7.50642 7.49293 7.44233 7.62111C7.33222 7.84133 7.35353 8.10252 7.37926 8.27945C7.40811 8.47779 7.46432 8.69325 7.5136 8.87806L7.52683 8.92758C7.57347 9.10215 7.61148 9.2444 7.63077 9.35774C7.6348 9.38143 7.63738 9.40047 7.639 9.41542C7.59716 9.48041 7.56987 9.54628 7.5523 9.59218C7.51976 9.67721 7.49167 9.77484 7.46751 9.87489C7.41894 10.0761 7.37894 10.3183 7.35254 10.5558C7.32624 10.7926 7.31195 11.0381 7.31909 11.245C7.32262 11.3475 7.33175 11.4524 7.3516 11.547C7.36725 11.6216 7.40422 11.7698 7.51725 11.8828C7.51993 11.8862 7.52901 11.8982 7.54498 11.9234C7.56575 11.9562 7.59047 12.0002 7.61733 12.0539C7.67112 12.1615 7.72644 12.2939 7.77062 12.4265C7.81576 12.5619 7.84368 12.6807 7.85208 12.7648C7.85309 12.7749 7.85373 12.7836 7.85411 12.791C7.75978 12.9206 7.729 13.0666 7.71785 13.1745C7.70396 13.3087 7.71421 13.4492 7.72754 13.5692C7.73655 13.6503 7.7493 13.7396 7.7609 13.8209C7.76618 13.8579 7.77124 13.8934 7.77558 13.9254C7.78883 14.0235 7.7975 14.104 7.7996 14.1701C7.78239 14.1895 7.74845 14.219 7.69179 14.2535C7.56907 14.3284 7.40954 14.3853 7.30308 14.4119C7.1985 14.4381 7.1089 14.5053 7.05459 14.5985C6.81918 15.002 6.46584 15.6279 6.17033 16.1952C6.0229 16.4783 5.88711 16.7521 5.78722 16.9786C5.73745 17.0915 5.69398 17.1985 5.66221 17.2924C5.63503 17.3728 5.6001 17.4886 5.6001 17.6C5.6001 17.8383 5.69138 18.1315 5.77467 18.358C5.86391 18.6008 5.97012 18.8345 6.04233 18.9789C6.11008 19.1144 6.24859 19.2 6.4001 19.2H12.1287C12.0268 19.3726 11.9496 19.4848 11.9173 19.5172C11.795 19.6394 11.7822 19.7896 11.7808 19.8531C11.7791 19.9297 11.7921 20.0028 11.8059 20.0607C11.8342 20.1793 11.8853 20.3131 11.9445 20.445C12.0648 20.713 12.2456 21.0335 12.4446 21.3253C12.6391 21.6106 12.8733 21.9018 13.1073 22.0842C13.2195 22.1717 13.3775 22.271 13.5635 22.292C13.6645 22.3034 13.7768 22.2918 13.8861 22.2397C13.9946 22.188 14.0754 22.1082 14.1329 22.0219C14.1583 21.9838 14.2205 21.9257 14.3485 21.863C14.4725 21.8023 14.6307 21.7508 14.8093 21.7099C15.1671 21.6281 15.5562 21.6 15.8001 21.6H17.4001C17.5129 21.6 17.6204 21.5524 17.6962 21.4689C17.7721 21.3854 17.8091 21.2737 17.7982 21.1615L17.202 15.0006L18.3981 3.0398C18.4037 2.98368 18.3974 2.92701 18.3796 2.87351L18.1796 2.27351C18.1251 2.11017 17.9723 2 17.8001 2H10.8001ZM7.64142 9.45798C7.64116 9.46243 7.64084 9.46151 7.64149 9.45647L7.64142 9.45798Z" fill="#21262A"/>
</svg>
