<svg width="60" height="60" viewBox="0 0 60 60" fill="none" xmlns="http://www.w3.org/2000/svg">
<path d="M20 9.5C19.2936 9.5 12.2976 9.2401 7.68685 9.06454C6.92713 9.03561 6.42469 9.82755 6.82109 10.4763C7.3608 11.3596 8.00652 12.2532 8.50002 12.5C9.44386 12.9719 7.71516 13.4438 8.77929 14.7566C8.91322 14.9218 9.12035 15.0181 9.33029 15.0522C15.3788 16.0348 11.9739 17.0174 10.5 18C9.39567 18.7362 11.8766 20.9405 13.5782 22.1965C13.8408 22.3903 14 22.6943 14 23.0207V45.4845C14 46.0428 14.4563 46.493 15.0145 46.4847C26.1454 46.3198 46.8364 46.1121 48 46.5C48.7128 46.7376 48.2848 47.6926 47.5752 48.6735C47.053 49.3953 47.5237 50.4862 48.4135 50.4425C49.7594 50.3764 51 50.244 51 50C51 47 53.5 45.5 54 44.5C54.5 43.5 54.5 41.5 53.5 41C52.5 40.5 52 38.5 52 36C52 33.5 46 31 45 30C44 29 46.5 25 46 24C45.5 23 43.5 24 42.5 23.5C41.5 23 42 20.5 40.5 20C39 19.5 35.5 15.5 36 12.5C36.5 9.5 34.5 9 34 9C33.5 9 21 9.5 20 9.5Z" fill="#21262A"/>
<path d="M29.708 39.724V31.228H26.744L24.896 36.676H24.848L22.916 31.228H20V39.724H21.932L21.884 33.712H21.92L24.068 39.724H25.508L27.716 33.712H27.752L27.704 39.724H29.708Z" fill="#21262A"/>
<path d="M40.3169 35.44C40.3169 32.716 38.3489 31 35.6849 31C33.0329 31 31.0649 32.716 31.0649 35.44C31.0649 38.128 33.0329 39.952 35.6849 39.952C38.3489 39.952 40.3169 38.128 40.3169 35.44ZM38.1209 35.44C38.1209 36.976 37.1129 38.08 35.6849 38.08C34.2569 38.08 33.2609 36.976 33.2609 35.44C33.2609 33.952 34.2449 32.848 35.6849 32.848C37.1249 32.848 38.1209 33.952 38.1209 35.44Z" fill="#21262A"/>
<path fill-rule="evenodd" clip-rule="evenodd" d="M5.15961 8.45802C5.35116 8.161 5.68527 7.98716 6.03843 8.00074C10.3922 8.16819 19.2255 8.5 20 8.5C20.475 8.5 23.8179 8.37644 27.1498 8.25071C27.7126 8.22948 28.2754 8.20816 28.823 8.18742C31.4751 8.08699 33.7719 8 34 8C34.4643 8 35.3614 8.19716 36.0821 8.9179C36.8604 9.69622 37.2767 10.9226 36.9864 12.6644C36.8026 13.7672 37.3623 15.2385 38.3209 16.6164C38.7817 17.2788 39.2973 17.8644 39.7734 18.3055C40.2759 18.7711 40.6483 18.9954 40.8162 19.0513C42.1464 19.4947 42.4866 20.8231 42.6576 21.5075C42.6854 21.6185 42.7097 21.7192 42.732 21.8116C42.7972 22.0819 42.8454 22.2813 42.9129 22.4614C42.9443 22.5451 42.9694 22.5934 42.9846 22.6189C43.0411 22.6346 43.1585 22.6537 43.3752 22.6487C43.5768 22.644 43.7734 22.6239 44.0077 22.5999C44.1121 22.5892 44.2239 22.5778 44.347 22.5666C44.6903 22.5354 45.1487 22.5037 45.5789 22.5897C46.0518 22.6843 46.5904 22.9446 46.8944 23.5528C47.0808 23.9255 47.08 24.3208 47.0556 24.5932C47.0291 24.8882 46.9584 25.1973 46.8772 25.4879C46.7524 25.9344 46.5702 26.4463 46.398 26.9301C46.3495 27.0664 46.3018 27.2006 46.2564 27.3304C46.0361 27.9595 45.8619 28.5077 45.7919 28.9409C45.7597 29.1399 45.7575 29.2695 45.7652 29.3441C45.8332 29.3995 45.95 29.485 46.1331 29.6041C46.3724 29.7597 46.6717 29.9392 47.0231 30.1461C47.1302 30.2092 47.2418 30.2746 47.3569 30.3421C47.983 30.709 48.7147 31.1379 49.4222 31.6005C50.2558 32.1455 51.1114 32.7724 51.7679 33.4555C52.4014 34.1147 53 34.981 53 36C53 37.1943 53.1206 38.2195 53.3365 38.9753C53.5688 39.7881 53.8413 40.0526 53.9472 40.1056C54.9302 40.5971 55.2374 41.6912 55.3084 42.472C55.3844 43.3085 55.2425 44.2511 54.8944 44.9472C54.6928 45.3505 54.3318 45.7397 54.0531 46.0398C54.0117 46.0844 53.9702 46.129 53.9286 46.1735C53.6507 46.4716 53.3701 46.7726 53.0988 47.1178C52.4891 47.8938 52 48.8056 52 50C52 50.4056 51.7816 50.6773 51.6371 50.8094C51.4964 50.9381 51.3468 51.0123 51.252 51.0535C51.0562 51.1386 50.8341 51.1916 50.6434 51.2286C50.2447 51.3059 49.7279 51.3592 49.1968 51.3974C48.1224 51.4748 46.8464 51.5 46 51.5C45.5955 51.5 45.2309 51.2564 45.0761 50.8827C44.9213 50.509 45.0069 50.0789 45.2929 49.7929C45.8527 49.2331 46.5934 48.394 47.0402 47.6813C47.104 47.5797 47.1563 47.489 47.1989 47.4092C47.0297 47.398 46.8286 47.3874 46.596 47.3774C45.8741 47.3465 44.8868 47.3236 43.6914 47.3077C41.3028 47.2761 38.1128 47.2729 34.6167 47.2875C27.6259 47.3166 19.4299 47.4166 14.0154 47.4999C13.7475 47.504 13.4892 47.4005 13.2984 47.2125C13.1075 47.0246 13 46.7679 13 46.5V23.0126C12.1889 22.4149 11.1894 21.5973 10.4423 20.7931C10.0136 20.3315 9.5857 19.7887 9.37294 19.2356C9.26372 18.9517 9.1788 18.5829 9.2557 18.1853C9.33963 17.7513 9.59336 17.4026 9.9453 17.168C10.2321 16.9768 10.6134 16.7685 10.9395 16.5903C11.0252 16.5435 11.107 16.4988 11.1823 16.457C10.6729 16.3127 9.92203 16.1536 8.84794 15.9884C8.63772 15.956 8.44329 15.8575 8.29289 15.7071C7.82553 15.2397 7.52104 14.7412 7.44033 14.1924C7.37292 13.734 7.47951 13.3563 7.59393 13.0875C7.40225 12.9278 7.23143 12.7472 7.08635 12.5798C6.81477 12.2663 6.54759 11.8962 6.30317 11.5263C5.81367 10.7854 5.36903 9.97414 5.10557 9.44722C4.94752 9.1311 4.96806 8.75503 5.15961 8.45802ZM8.06837 13.403C8.06825 13.403 8.06604 13.4018 8.06209 13.3993C8.06651 13.4017 8.06849 13.4029 8.06837 13.403ZM7.83042 12.623C7.83165 12.62 7.83238 12.6184 7.83245 12.6184C7.83251 12.6183 7.8319 12.6198 7.83042 12.623ZM27.2252 10.2493C23.9321 10.3736 20.525 10.5 20 10.5C19.2764 10.5 12.3478 10.2427 7.74373 10.0674C7.8183 10.1874 7.89459 10.3068 7.97184 10.4237C8.18992 10.7538 8.40398 11.0462 8.59802 11.2702C8.69461 11.3817 8.77785 11.4665 8.84612 11.5269C8.90866 11.5823 8.94221 11.6025 8.94699 11.6054C8.9477 11.6058 8.94777 11.6059 8.94722 11.6056C9.14404 11.704 9.39283 11.8614 9.5733 12.1261C9.78242 12.4328 9.82331 12.7679 9.77546 13.055C9.73573 13.2934 9.63602 13.4876 9.58777 13.5796C9.54424 13.6627 9.52507 13.6962 9.50997 13.7226C9.49493 13.749 9.48393 13.7682 9.45693 13.8222C9.43366 13.8688 9.4242 13.8949 9.42062 13.9073C9.42612 13.926 9.44613 13.9792 9.51098 14.0684C10.9491 14.3027 11.9515 14.5508 12.5936 14.8362C12.9274 14.9845 13.306 15.2027 13.5506 15.5585C13.6854 15.7546 13.7801 15.9942 13.7929 16.2657C13.8054 16.5325 13.7357 16.7647 13.6444 16.9472C13.4774 17.2813 13.2028 17.5194 13.0045 17.6704C12.7872 17.836 12.5384 17.9869 12.3086 18.1182C12.119 18.2266 11.9453 18.3211 11.7845 18.4086C11.6145 18.5011 11.459 18.5857 11.3143 18.6706C11.4203 18.8563 11.6123 19.1139 11.9077 19.4319C12.6563 20.2378 13.7675 21.1166 14.5735 21.6808C14.8408 21.8679 15 22.1737 15 22.5V45.4848C20.3938 45.4049 28.0319 45.3149 34.6083 45.2875C38.108 45.2729 41.3118 45.276 43.7179 45.3079C44.92 45.3238 45.9303 45.347 46.6817 45.3792C47.0564 45.3953 47.3762 45.414 47.6272 45.4361C47.8348 45.4544 48.1107 45.4828 48.3162 45.5513C48.6623 45.6667 48.9904 45.8953 49.1893 46.2693C49.3764 46.621 49.386 46.9833 49.3491 47.2611C49.2795 47.7868 49.0023 48.3169 48.7348 48.7437C48.5885 48.977 48.422 49.2147 48.2451 49.4494C48.5217 49.4367 48.7945 49.4212 49.0532 49.4026C49.4413 49.3746 49.7775 49.3409 50.0388 49.3027C50.2029 47.8441 50.8629 46.7264 51.5262 45.8822C51.8538 45.4652 52.1959 45.0987 52.4712 44.8038C52.5115 44.7606 52.5503 44.719 52.5875 44.6789C52.9182 44.3228 53.0572 44.1495 53.1056 44.0528C53.2575 43.7489 53.3656 43.1915 53.3166 42.653C53.2626 42.0588 53.0698 41.9029 53.0528 41.8944C52.1587 41.4474 51.6812 40.4619 51.4135 39.5247C51.1294 38.5305 51 37.3057 51 36C51 35.769 50.8486 35.3853 50.3259 34.8414C49.8261 34.3213 49.1192 33.792 48.3278 33.2745C47.665 32.8411 46.9819 32.4407 46.3551 32.0732C46.2373 32.0041 46.1215 31.9362 46.0082 31.8695C45.6564 31.6623 45.3229 31.4629 45.0427 31.2807C44.7773 31.1081 44.4975 30.9117 44.2929 30.7071C43.9671 30.3813 43.8332 29.9796 43.7856 29.6316C43.7387 29.2888 43.7663 28.9383 43.8175 28.6216C43.9193 27.9923 44.1514 27.2905 44.3686 26.6697C44.4238 26.512 44.4781 26.3594 44.5305 26.2119C44.6976 25.742 44.8467 25.3226 44.951 24.9496C44.9982 24.7804 45.0294 24.6435 45.0475 24.5358C44.9283 24.5305 44.762 24.5371 44.528 24.5584C44.4565 24.5649 44.3757 24.5732 44.2889 24.5821C44.0261 24.6089 43.7077 24.6415 43.4217 24.6482C43.0374 24.6571 42.525 24.6305 42.0528 24.3944C41.4601 24.0981 41.1859 23.552 41.0402 23.1636C40.9252 22.8569 40.8378 22.4923 40.7672 22.1979C40.7496 22.1244 40.733 22.0553 40.7174 21.9925C40.5134 21.1769 40.3536 21.0053 40.1838 20.9487C39.6017 20.7547 38.9741 20.2915 38.4141 19.7726C37.8277 19.2293 37.2183 18.5337 36.6791 17.7586C35.6377 16.2615 34.6974 14.2328 35.0136 12.3356C35.2233 11.0774 34.8896 10.5538 34.6679 10.3321C34.5362 10.2004 34.384 10.1143 34.2426 10.0613C34.1112 10.012 34.0185 10.0021 34.0021 10.0004C33.9996 10.0001 33.9988 10 34 10C34.0009 10 33.997 10 33.9856 10.0002L33.9434 10.0011C33.9078 10.002 33.8607 10.0033 33.8021 10.0051C33.6849 10.0087 33.5261 10.0141 33.3308 10.0209C32.9404 10.0345 32.4082 10.054 31.7794 10.0774C30.9535 10.1082 29.9627 10.1457 28.9105 10.1856C28.3606 10.2064 27.7939 10.2278 27.2252 10.2493ZM45.0661 24.3293C45.0661 24.3293 45.0663 24.3305 45.0665 24.333C45.0662 24.3306 45.0661 24.3294 45.0661 24.3293ZM11.2241 18.4686C11.2241 18.4686 11.2243 18.4696 11.2246 18.4715L11.2241 18.4686ZM9.41873 13.9167C9.41853 13.9168 9.41861 13.9152 9.41957 13.9113C9.41941 13.9145 9.41893 13.9165 9.41873 13.9167Z" fill="#21262A"/>
</svg>
