<svg width="24" height="24" viewBox="0 0 24 24" fill="none" xmlns="http://www.w3.org/2000/svg">
    <path d="M2.41537 3.20029C2.27411 3.19486 2.14047 3.2644 2.06385 3.3832C1.98722 3.50201 1.97901 3.65244 2.04223 3.77888C2.14761 3.98965 2.32547 4.31416 2.52127 4.6105C2.61903 4.75847 2.72591 4.9065 2.83454 5.0319C2.89257 5.09889 2.9609 5.17113 3.03757 5.23501C2.99181 5.3425 2.94917 5.49359 2.97613 5.67695C3.00842 5.89648 3.13021 6.09589 3.31716 6.28284C3.37732 6.343 3.45509 6.38241 3.53918 6.39535C3.96881 6.46144 4.26915 6.52509 4.47294 6.58282C4.4428 6.59953 4.41006 6.61741 4.3758 6.63613C4.24535 6.70739 4.09284 6.7907 3.97812 6.86718C3.83735 6.96103 3.73585 7.10053 3.70228 7.27412C3.67152 7.43316 3.70549 7.5807 3.74918 7.69425C3.83428 7.91546 4.00543 8.1326 4.17693 8.31723C4.47574 8.63891 4.87554 8.96596 5.2 9.20505V18.6C5.2 18.7072 5.24299 18.8098 5.31934 18.885C5.39569 18.9602 5.49901 19.0016 5.60615 19C7.77195 18.9666 11.0503 18.9267 13.8467 18.915C15.2451 18.9092 16.5211 18.9104 17.4766 18.9231C17.9547 18.9294 18.3496 18.9386 18.6384 18.951C18.7314 18.9549 18.8119 18.9592 18.8796 18.9637C18.8625 18.9956 18.8416 19.0319 18.8161 19.0725C18.6374 19.3576 18.3411 19.6933 18.1172 19.9172C18.0028 20.0316 17.9685 20.2036 18.0304 20.3531C18.0924 20.5025 18.2382 20.6 18.4 20.6C18.7386 20.6 19.249 20.5899 19.6787 20.559C19.8912 20.5437 20.0979 20.5224 20.2574 20.4914C20.3337 20.4767 20.4225 20.4554 20.5008 20.4214C20.5387 20.4049 20.5986 20.3752 20.6548 20.3238C20.7126 20.2709 20.8 20.1622 20.8 20C20.8 19.5222 20.9957 19.1575 21.2395 18.8471C21.348 18.709 21.4603 18.5886 21.5714 18.4694L21.6212 18.4159C21.7327 18.2959 21.8771 18.1402 21.9578 17.9789C22.097 17.7004 22.1538 17.3234 22.1234 16.9888C22.095 16.6765 21.9721 16.2388 21.5789 16.0422C21.5365 16.021 21.4275 15.9152 21.3346 15.5901C21.2482 15.2878 21.2 14.8777 21.2 14.4C21.2 13.9924 20.9606 13.6459 20.7072 13.3822C20.4446 13.109 20.1023 12.8582 19.7689 12.6402C19.4859 12.4552 19.1933 12.2837 18.9429 12.1369L18.8092 12.0584C18.6687 11.9757 18.549 11.9039 18.4532 11.8416C18.38 11.794 18.3333 11.7598 18.3061 11.7376C18.303 11.7078 18.3039 11.6559 18.3167 11.5764C18.3448 11.4031 18.4145 11.1838 18.5025 10.9321C18.5207 10.8802 18.5398 10.8266 18.5592 10.772C18.6281 10.5785 18.701 10.3738 18.7509 10.1951C18.7833 10.0789 18.8117 9.95527 18.8222 9.83727C18.832 9.7283 18.8323 9.57021 18.7578 9.42111C18.6361 9.17785 18.4207 9.07372 18.2316 9.03589C18.0595 9.00148 17.8761 9.01415 17.7388 9.02664C17.6896 9.03112 17.6448 9.03569 17.6031 9.03996C17.5093 9.04956 17.4307 9.05761 17.3501 9.05948C17.2634 9.0615 17.2165 9.05383 17.1938 9.04755C17.1877 9.03737 17.1777 9.01804 17.1652 8.98455C17.1381 8.91252 17.1189 8.83276 17.0928 8.72467C17.0839 8.68782 17.0741 8.64724 17.0631 8.60298C16.9946 8.32924 16.8586 7.79788 16.3265 7.62052C16.2593 7.59814 16.1103 7.50842 15.9093 7.3222C15.7189 7.14576 15.5127 6.91151 15.3284 6.64657C14.9449 6.09538 14.721 5.5069 14.7946 5.06576C14.9107 4.36903 14.7442 3.87848 14.4328 3.56716C14.1446 3.27886 13.7857 3.2 13.6 3.2C13.5088 3.2 12.5906 3.23477 11.5301 3.27493L10.8599 3.30028C9.52717 3.35057 8.19001 3.4 8 3.4C7.6902 3.4 4.15686 3.26727 2.41537 3.20029Z" fill="#21262A"/>
</svg>
