<svg width="60" height="60" viewBox="0 0 60 60" fill="none" xmlns="http://www.w3.org/2000/svg">
<path d="M43.7792 6H27.3508C27.1237 6 26.903 6.07617 26.7295 6.22271C25.8905 6.93149 24.6177 8.16514 24.5077 8.90183C24.4979 8.96696 24.507 9.03405 24.5192 9.09876C24.9735 11.5132 23.9933 12 23.5 12C23 12 22 14 21.5 15.5C21 17 20 18.5 19.5 19.5C19 20.5 20.5 23.5 20 24C19.5 24.5 19 28.5 19.5 29C20 29.5 21 32 20.5 32.5C20 33 20.5 34.5 20.5 35.5C20.5 36.1592 19.5948 36.6373 18.9031 36.8784C18.6486 36.9672 18.4237 37.1304 18.289 37.3638C17.074 39.4694 15 43.2458 15 44C15 44.6211 15.4019 45.6843 15.7376 46.4407C15.8912 46.7869 16.2393 47 16.618 47H30.382C31.1253 47 31.6061 47.7816 31.2321 48.424C30.9625 48.8872 30.6899 49.3101 30.5 49.5C30 50 33.5 56 34.5 54.5C35.3 53.3 38.1667 53 39.5 53H42.3986C42.9889 53 43.4508 52.4913 43.3939 51.9037L42.0095 37.5979C42.0032 37.5328 42.0033 37.4672 42.0098 37.4021L44.9787 7.71282C44.9927 7.57253 44.9769 7.43085 44.9324 7.29709L44.7279 6.68377C44.5918 6.27543 44.2097 6 43.7792 6Z" fill="#21262A"/>
<path d="M32.8086 30.0001V21.5041H29.8446L27.9966 26.9521H27.9486L26.0166 21.5041H23.1006V30.0001H25.0326L24.9846 23.9881H25.0206L27.1686 30.0001H28.6086L30.8166 23.9881H30.8526L30.8046 30.0001H32.8086Z" fill="#21262A"/>
<path d="M40.3575 22.3321C39.6135 21.6481 38.5335 21.2881 37.5735 21.2881C35.9895 21.2881 34.2855 22.0681 34.2855 23.9521C34.2855 25.4881 35.3775 26.0401 36.4575 26.3881C37.5735 26.7481 38.2215 26.9521 38.2215 27.6001C38.2215 28.2841 37.6695 28.5241 37.0455 28.5241C36.3735 28.5241 35.6175 28.1401 35.2095 27.6241L33.8655 28.9921C34.6095 29.7721 35.8335 30.2161 37.0455 30.2161C38.7255 30.2161 40.2975 29.3401 40.2975 27.3841C40.2975 25.6921 38.8095 25.2001 37.6575 24.8281C36.8535 24.5761 36.3495 24.3961 36.3495 23.8321C36.3495 23.1601 37.0095 22.9801 37.5375 22.9801C38.0655 22.9801 38.7015 23.2681 39.0495 23.7121L40.3575 22.3321Z" fill="#21262A"/>
<path fill-rule="evenodd" clip-rule="evenodd" d="M26.3753 5.21913C26.5526 5.07728 26.7729 5 27 5H44.5C44.9304 5 45.3126 5.27543 45.4487 5.68377L45.9487 7.18377C45.9933 7.31753 46.0091 7.45921 45.995 7.5995L43.0048 37.5016L44.4953 52.9037C44.5225 53.1843 44.4299 53.4634 44.2404 53.6722C44.0508 53.881 43.782 54 43.5 54H39.5C38.8902 54 37.9174 54.0702 37.023 54.2748C36.5765 54.377 36.1811 54.5057 35.871 54.6575C35.5511 54.8141 35.3955 54.9595 35.3321 55.0547C35.1882 55.2705 34.9863 55.47 34.7149 55.5993C34.4418 55.7294 34.161 55.7585 33.9084 55.73C33.4434 55.6776 33.0486 55.4293 32.7679 55.2105C32.1829 54.7544 31.5975 54.0264 31.1113 53.3133C30.6138 52.5837 30.1617 51.7824 29.8611 51.1125C29.7131 50.7827 29.5852 50.4483 29.5145 50.1517C29.48 50.007 29.4475 49.8243 29.4518 49.6327C29.4553 49.4739 29.4873 49.0985 29.7929 48.7929C29.8737 48.7121 30.0669 48.4316 30.3215 48H16C15.6212 48 15.275 47.786 15.1056 47.4472C14.9251 47.0862 14.6595 46.5019 14.4364 45.8951C14.2282 45.3287 14 44.5959 14 44C14 43.7214 14.0873 43.4319 14.1553 43.2311C14.2347 42.9964 14.3434 42.7288 14.4678 42.4466C14.7175 41.8802 15.057 41.1958 15.4256 40.4881C16.1644 39.0696 17.0477 37.505 17.6362 36.4961C17.772 36.2633 17.996 36.0952 18.2575 36.0299C18.5236 35.9633 18.9224 35.821 19.2292 35.6338C19.3709 35.5474 19.4557 35.4738 19.4988 35.4252C19.4935 35.26 19.4718 35.0588 19.4387 34.8136C19.4278 34.7333 19.4152 34.6448 19.402 34.5522C19.373 34.349 19.3411 34.1256 19.3186 33.9229C19.2853 33.6229 19.2597 33.2716 19.2944 32.9362C19.3223 32.6666 19.3992 32.3014 19.635 31.9776C19.6341 31.9591 19.6325 31.9373 19.63 31.912C19.6089 31.7018 19.5392 31.4048 19.4263 31.0662C19.3159 30.7348 19.1776 30.4037 19.0431 30.1347C18.9759 30.0004 18.9141 29.8905 18.8622 29.8085C18.8144 29.733 18.7893 29.7041 18.7896 29.7038C18.7896 29.7038 18.7907 29.7049 18.7929 29.7071C18.5103 29.4245 18.4179 29.054 18.3787 28.8675C18.3291 28.6311 18.3063 28.3688 18.2975 28.1126C18.2796 27.5953 18.3154 26.9814 18.3811 26.3896C18.4471 25.7957 18.5471 25.1903 18.6685 24.6872C18.7289 24.4371 18.7992 24.193 18.8805 23.9805C18.9244 23.8657 18.9927 23.701 19.0972 23.5385C19.0932 23.5012 19.0868 23.4536 19.0767 23.3944C19.0284 23.111 18.9334 22.7554 18.8168 22.319C18.806 22.2784 18.795 22.2371 18.7838 22.1952C18.6606 21.7331 18.52 21.1945 18.4479 20.6986C18.3836 20.2563 18.3303 19.6033 18.6056 19.0528C18.7658 18.7323 18.9882 18.3387 19.2158 17.936C19.3535 17.6921 19.4932 17.4449 19.6221 17.2086C19.9889 16.5362 20.3298 15.8483 20.5513 15.1838C20.8186 14.3818 21.2167 13.452 21.6221 12.7086C21.8228 12.3407 22.0441 11.9835 22.2716 11.7043C22.3842 11.5662 22.5234 11.4156 22.6877 11.2913C22.8292 11.1843 23.0999 11.0117 23.463 11.0006C23.4719 10.9924 23.4874 10.9752 23.5068 10.9414C23.5851 10.8042 23.7477 10.3373 23.5194 9.19612C23.5065 9.13154 23.5 9.06585 23.5 9C23.5 8.50233 23.7379 8.05289 23.9292 7.75159C24.1426 7.41529 24.4203 7.07899 24.7012 6.7733C25.2654 6.15951 25.9305 5.57494 26.3753 5.21913ZM19.1033 23.6449C19.1027 23.6561 19.1019 23.6538 19.1035 23.6412C19.1034 23.6426 19.1034 23.6438 19.1033 23.6449ZM27.359 7C26.9971 7.30669 26.5518 7.71541 26.1738 8.1267C25.9339 8.38767 25.7428 8.62637 25.6177 8.82341C25.565 8.90648 25.5349 8.96522 25.5181 9.00192C25.7429 10.2636 25.6442 11.232 25.2432 11.9336C24.8775 12.5737 24.3229 12.8817 23.8191 12.9713C23.7032 13.1144 23.5507 13.3495 23.3779 13.6664C23.0333 14.298 22.6814 15.1182 22.4487 15.8162C22.1702 16.6517 21.7611 17.4638 21.3779 18.1664C21.2099 18.4744 21.0547 18.7482 20.9133 18.9978C20.7112 19.3545 20.5373 19.6615 20.3944 19.9472C20.3985 19.9391 20.4005 19.9348 20.4013 19.935C20.4055 19.9361 20.3762 20.0607 20.4271 20.4107C20.48 20.7743 20.5894 21.2044 20.7162 21.6798C20.7283 21.7252 20.7407 21.7712 20.7531 21.8178C20.8628 22.2272 20.9834 22.6775 21.0483 23.0588C21.0845 23.2714 21.1142 23.5201 21.0998 23.7633C21.0879 23.9634 21.0379 24.327 20.7727 24.6363C20.7665 24.65 20.7583 24.6693 20.7484 24.6953C20.7086 24.7992 20.6617 24.9535 20.6127 25.1565C20.5154 25.5597 20.4279 26.0793 20.3689 26.6104C20.3096 27.1436 20.2829 27.6547 20.2963 28.0437C20.3024 28.2201 20.316 28.3478 20.3309 28.4299C20.5267 28.6675 20.698 28.9725 20.8319 29.2403C21.0099 29.5963 21.1841 30.0152 21.3237 30.4338C21.4608 30.8452 21.5786 31.2982 21.62 31.713C21.6407 31.9195 21.6467 32.1558 21.6075 32.391C21.5739 32.5927 21.4936 32.8728 21.2863 33.1206C21.2854 33.127 21.2846 33.1341 21.2838 33.142C21.2716 33.2596 21.2772 33.4396 21.3064 33.7021C21.3256 33.8749 21.3496 34.0425 21.3759 34.2262C21.3902 34.3267 21.4053 34.4321 21.4207 34.5458C21.4605 34.8404 21.5 35.1782 21.5 35.5C21.5 36.4737 20.7216 37.0662 20.2708 37.3412C19.9078 37.5626 19.5093 37.7301 19.1655 37.8456C18.5989 38.827 17.8407 40.1806 17.1994 41.4119C16.8388 42.1042 16.5221 42.7448 16.2978 43.2534C16.1853 43.5087 16.1025 43.7161 16.0498 43.8721C16.018 43.9659 16.0055 44.0174 16.001 44.036C16.012 44.2526 16.1167 44.6694 16.3136 45.2049C16.4157 45.4827 16.5292 45.7575 16.6361 46H32C32.3466 46 32.6684 46.1795 32.8507 46.4743C33.0329 46.7691 33.0494 47.1372 32.8944 47.4472C32.721 47.7941 32.4367 48.337 32.1414 48.8493C31.9564 49.1703 31.731 49.5448 31.5074 49.8484C31.5464 49.9641 31.6048 50.1133 31.6858 50.2937C31.9321 50.8426 32.3237 51.5413 32.7637 52.1867C33.194 52.8178 33.6193 53.3217 33.95 53.5949C34.2558 53.2753 34.6288 53.0388 34.9915 52.8613C35.4856 52.6193 36.0402 52.448 36.577 52.3252C37.6492 52.0798 38.7764 52 39.5 52H42.3986L41.0047 37.5963C40.9983 37.5312 40.9985 37.4656 41.005 37.4005L43.9837 7.61332L43.7792 7H27.359ZM21.2949 33.0756C21.2949 33.0757 21.2944 33.0778 21.2931 33.0816C21.2941 33.0774 21.2948 33.0755 21.2949 33.0756ZM20.35 28.5086C20.3498 28.5091 20.3474 28.5032 20.3438 28.4896C20.3485 28.5013 20.3503 28.5081 20.35 28.5086Z" fill="#21262A"/>
</svg>
