<svg width="24" height="24" viewBox="0 0 24 24" fill="none" xmlns="http://www.w3.org/2000/svg">
    <path fill-rule="evenodd" clip-rule="evenodd" d="M2.62603 6.00086C2.41476 5.98708 2.22935 6.14032 2.20309 6.3504C2.13824 6.8692 2 8.04833 2 8.40001C2 8.66515 2.06637 8.91405 2.14553 9.1515C2.18227 9.26173 2.22443 9.37692 2.26699 9.49318L2.27748 9.52182C2.32428 9.64974 2.37252 9.78249 2.42053 9.9265C2.51842 10.2202 2.72773 10.5744 2.92604 10.8752C3.13028 11.185 3.34766 11.4749 3.48765 11.6499C3.53582 11.7101 3.60036 11.7551 3.67351 11.7795C3.92847 11.8645 4.25712 12.0482 4.44672 12.2973C4.53676 12.4156 4.58923 12.5399 4.59925 12.6731C4.60919 12.8053 4.5799 12.979 4.4527 13.2016C4.25245 13.552 4.11595 13.8289 4.0575 14.046C4.02792 14.1559 4.00736 14.2884 4.03586 14.4243C4.06835 14.5793 4.15685 14.702 4.27812 14.7828C4.38307 14.8528 4.49645 14.8806 4.5761 14.8951C4.65891 14.9102 4.74861 14.9177 4.82435 14.9237L4.8485 14.9257C5.00293 14.9379 5.14897 14.9496 5.30299 14.9881C5.35041 14.9999 5.39477 15.0274 5.44232 15.1316C5.49589 15.2491 5.52834 15.4143 5.55274 15.6217C5.5588 15.6732 5.56463 15.7317 5.57073 15.793C5.58542 15.9403 5.60174 16.1039 5.62683 16.2269C5.6452 16.3169 5.67751 16.4409 5.74896 16.55C5.82574 16.6673 5.95821 16.7786 6.14454 16.7973C6.15469 16.8063 6.16985 16.8211 6.19005 16.8447C6.25607 16.9217 6.32763 17.036 6.39884 17.1666C6.44616 17.2533 6.48332 17.3277 6.51806 17.3973C6.53772 17.4367 6.55663 17.4746 6.57615 17.5123L6.57856 17.5169C6.59497 17.5487 6.63249 17.6213 6.67833 17.6748C6.69068 17.6892 6.73047 17.7351 6.79577 17.7713C6.85942 17.8066 7.00685 17.8589 7.16149 17.7863C7.2471 17.787 7.34652 17.7816 7.46225 17.7698C7.6985 17.7459 8.02735 17.6926 8.48677 17.5905C9.18284 17.4358 9.56299 17.4498 9.74638 17.4939C9.77794 17.5015 9.80072 17.5088 9.81673 17.5148C9.86608 17.6798 10.019 17.8 10.2 17.8C10.4209 17.8 10.6 17.6209 10.6 17.4V16.5933L22.0068 16.4C22.1161 16.3981 22.2199 16.3516 22.294 16.2712C22.3682 16.1909 22.4062 16.0836 22.3992 15.9745L21.7992 6.57453C21.7853 6.3575 21.6006 6.19131 21.3833 6.20036C18.1919 6.33334 9.96709 6.47963 2.62603 6.00086ZM6.12907 16.7851C6.12907 16.7851 6.12951 16.7854 6.13039 16.7859L6.12907 16.7851ZM9.84978 17.5318C9.84927 17.532 9.84579 17.5301 9.84088 17.5255C9.84784 17.5293 9.8503 17.5316 9.84978 17.5318Z" fill="#21262A"/>
</svg>
