<svg width="60" height="60" viewBox="0 0 60 60" fill="none" xmlns="http://www.w3.org/2000/svg">
<path d="M7.4392 16.002C24.8903 17.0859 44.0809 16.7956 52.5287 16.4804C53.072 16.4602 53.5277 16.8758 53.5623 17.4183L54.9332 38.8964C54.9696 39.4659 54.5228 39.9503 53.9522 39.9599L26.4831 40.4255C25.9375 40.4348 25.5 40.8797 25.5 41.4254V43.4422C25.5 42.9422 24.6 42.1422 21 42.9422C18.5379 43.4893 17.7222 43.4377 17.4884 43.3607C17.4955 43.3818 17.5 43.4086 17.5 43.4422C17.5 43.9422 16.5 40.9422 15.5 40.9422C14.5 40.9422 15.5 36.9422 13.5 36.4422C11.5 35.9422 10 36.9422 12 33.4422C13.5052 30.808 11.2932 29.1474 9.77696 28.5436C9.59788 28.4723 9.43595 28.363 9.31788 28.2107C8.60102 27.2855 7.36658 25.5419 7 24.4422C6.5 22.9422 6 21.9422 6 20.9422C6 20.2992 6.21532 18.3212 6.38638 16.8773C6.44865 16.3517 6.91093 15.9691 7.4392 16.002Z" fill="#21262A"/>
<path d="M33.8672 32.9999V24.5039H30.9032L29.0552 29.9519H29.0072L27.0752 24.5039H24.1592V32.9999H26.0912L26.0432 26.9879H26.0792L28.2272 32.9999H29.6672L31.8752 26.9879H31.9112L31.8632 32.9999H33.8672Z" fill="#21262A"/>
<path d="M41.6561 26.2559V24.5039H34.8041V26.2559H37.2041V32.9999H39.2561V26.2559H41.6561Z" fill="#21262A"/>
<path fill-rule="evenodd" clip-rule="evenodd" d="M5.50772 15.876C5.57337 15.3508 6.03691 14.9677 6.56508 15.0022C24.9177 16.1991 45.4797 15.8333 53.4584 15.5009C54.0016 15.4783 54.4633 15.8938 54.498 16.4363L55.998 39.9363C56.0154 40.2091 55.9204 40.4771 55.7351 40.678C55.5497 40.879 55.2902 40.9953 55.0169 40.9999L26.5 41.4832V43.5C26.5 44.0523 26.0523 44.5 25.5 44.5C25.0475 44.5 24.6652 44.1995 24.5418 43.7871C24.5018 43.7719 24.4449 43.7538 24.3659 43.7348C23.9075 43.6244 22.9571 43.5895 21.2169 43.9762C20.0684 44.2315 19.2462 44.3647 18.6556 44.4246C18.3663 44.454 18.1178 44.4674 17.9037 44.4658C17.5171 44.6471 17.1485 44.5165 16.9894 44.4282C16.8262 44.3377 16.7267 44.223 16.6958 44.187C16.5812 44.0533 16.4874 43.8717 16.4464 43.7923C16.4442 43.7882 16.4422 43.7843 16.4404 43.7807C16.3916 43.6865 16.3443 43.5919 16.2951 43.4934C16.2083 43.3194 16.1154 43.1332 15.9971 42.9164C15.8191 42.59 15.6402 42.3043 15.4751 42.1118C15.4246 42.0529 15.3867 42.0157 15.3614 41.9932C14.8955 41.9464 14.5644 41.6681 14.3724 41.375C14.1938 41.1023 14.113 40.7922 14.0671 40.5672C14.0043 40.2598 13.9636 39.8506 13.9268 39.4824C13.9116 39.3292 13.897 39.1831 13.8818 39.0544C13.8209 38.5359 13.7397 38.1227 13.6058 37.8291C13.4869 37.5685 13.376 37.4998 13.2575 37.4702C12.8724 37.3739 12.5073 37.3449 12.1212 37.3142C12.1012 37.3126 12.0811 37.311 12.0609 37.3093C11.8715 37.2942 11.6473 37.2754 11.4403 37.2378C11.2411 37.2016 10.9577 37.132 10.6953 36.9571C10.3921 36.755 10.1709 36.4481 10.0896 36.0607C10.0184 35.7209 10.0698 35.3898 10.1438 35.1151C10.2899 34.5723 10.6311 33.88 11.1318 33.0039C11.4498 32.4474 11.523 32.0132 11.4981 31.6828C11.4731 31.3497 11.3419 31.0389 11.1168 30.7432C10.6428 30.1205 9.82117 29.6612 9.18377 29.4487C9.0009 29.3878 8.83955 29.2752 8.71913 29.1247C8.36915 28.6873 7.82569 27.9625 7.31509 27.1879C6.81934 26.4359 6.29604 25.5504 6.05132 24.8163C5.9313 24.4562 5.81069 24.1244 5.69369 23.8046C5.68495 23.7807 5.67621 23.7568 5.66748 23.7329C5.56109 23.4423 5.45568 23.1543 5.36382 22.8788C5.16594 22.2851 5 21.6629 5 21C5 20.1208 5.3456 17.173 5.50772 15.876ZM15.3227 41.9628C15.3227 41.9628 15.3238 41.9634 15.326 41.9649C15.3238 41.9636 15.3227 41.9629 15.3227 41.9628ZM18.0169 42.4649C18.1265 42.4621 18.2699 42.4535 18.4538 42.4348C18.9413 42.3854 19.6816 42.2686 20.7831 42.0238C22.4227 41.6595 23.6269 41.5892 24.5 41.7248V40.5C24.5 39.9544 24.9375 39.5094 25.4831 39.5002L53.9353 39.0179L52.5642 17.5377C44.0936 17.8536 24.8713 18.1444 7.37888 17.058C7.20835 18.4989 7 20.4194 7 21C7 21.3372 7.08406 21.7149 7.26118 22.2463C7.34338 22.4929 7.43898 22.7541 7.5482 23.0525C7.55604 23.0739 7.56395 23.0956 7.57194 23.1174C7.68931 23.4382 7.8187 23.7938 7.94868 24.1838C8.10396 24.6496 8.49733 25.3475 8.98491 26.0871C9.3797 26.686 9.79807 27.2557 10.1097 27.6578C10.9411 27.9832 11.9943 28.594 12.7082 29.5318C13.1206 30.0736 13.4332 30.7441 13.4925 31.5328C13.552 32.3244 13.3502 33.1527 12.8682 33.9962C12.5242 34.5982 12.3122 35.0206 12.1898 35.3133C12.1998 35.3141 12.21 35.3149 12.2204 35.3157C12.247 35.3178 12.2745 35.32 12.3028 35.3222C12.6724 35.3512 13.19 35.3918 13.7425 35.5299C14.624 35.7502 15.1381 36.3691 15.4254 36.9991C15.6978 37.5961 15.8042 38.2767 15.8682 38.8207C15.8955 39.0528 15.9151 39.2528 15.9324 39.4294C15.9579 39.6901 15.9785 39.8999 16.0115 40.0871C16.4697 40.246 16.8023 40.5869 16.9936 40.8102C17.2973 41.1645 17.5559 41.5976 17.7529 41.9587C17.845 42.1275 17.937 42.3067 18.0169 42.4649ZM24.6245 43.8294C24.6232 43.8299 24.6145 43.8253 24.6022 43.8138C24.6196 43.8232 24.6257 43.8289 24.6245 43.8294Z" fill="#21262A"/>
</svg>
