<svg width="60" height="60" viewBox="0 0 60 60" fill="none" xmlns="http://www.w3.org/2000/svg">
<path d="M36.1686 18.4724L6.88907 18.0001C6.35563 17.9915 5.90937 18.4032 5.87502 18.9356L5.00211 32.4657C4.96603 33.025 5.39664 33.5048 5.9566 33.5291L15.4182 33.9405C15.9774 33.9648 16.4075 34.4422 16.3771 35.0011C16.2243 37.8102 16.0825 41.9848 16.4364 41.9848C28.4364 42.4848 54.9364 41.4848 55.4364 40.9848C55.7975 40.6237 54.0125 38.6055 52.8036 37.358C52.5752 37.1224 52.4741 36.7921 52.5205 36.4673C53.2468 31.3895 50.4364 29.9687 50.4364 29.4848C50.4364 28.4848 49.4364 23.4848 46.4364 20.4848C43.4364 17.4848 40.4364 20.4848 38.9364 20.4848C38.0917 20.4848 37.5278 19.8242 37.2098 19.2004C37.0041 18.797 36.6214 18.4797 36.1686 18.4724Z" fill="#21262A"/>
<path d="M31.7192 34.9999V26.5039H29.7272L29.7752 32.0479H29.7392L26.3312 26.5039H23.9912V34.9999H25.9832L25.9352 29.4439H25.9712L29.3912 34.9999H31.7192Z" fill="#21262A"/>
<path d="M39.3997 34.9999V33.2479H35.4517V31.4839H38.9797V29.8399H35.4517V28.2439H39.1837V26.5039H33.4717V34.9999H39.3997Z" fill="#21262A"/>
<path fill-rule="evenodd" clip-rule="evenodd" d="M5.00208 17.9356C5.03643 17.4032 5.48268 16.9915 6.01613 17.0001L37.0161 17.5001C37.4689 17.5074 37.8603 17.8181 37.9701 18.2575C38.0268 18.4841 38.1736 18.8471 38.3972 19.1301C38.6158 19.4068 38.8141 19.5 39 19.5C39.0336 19.5 39.1283 19.4893 39.3173 19.4271C39.5008 19.3667 39.7156 19.2778 39.9841 19.1611C40.0465 19.1339 40.1115 19.1054 40.1789 19.0758C40.6618 18.8637 41.2671 18.598 41.9128 18.4135C42.6626 18.1992 43.5329 18.0725 44.4635 18.2526C45.4066 18.4351 46.3316 18.9174 47.2071 19.7929C48.8524 21.4382 49.9158 23.5909 50.5667 25.4137C51.1295 26.9893 51.4217 28.428 51.4862 29.207C51.5093 29.2329 51.5359 29.2623 51.5674 29.2971C51.6037 29.3373 51.6467 29.3848 51.6984 29.4426C51.9837 29.7615 52.3839 30.2319 52.7492 30.8894C53.4503 32.1515 53.9585 33.9843 53.5689 36.6604C54.1253 37.2338 54.8077 37.9736 55.3632 38.6565C55.7 39.0705 56.0207 39.5005 56.2342 39.8776C56.337 40.0591 56.4502 40.2887 56.5075 40.5333C56.5543 40.7335 56.6376 41.2766 56.2071 41.7071C56.0488 41.8654 55.8744 41.9344 55.8268 41.9532L55.8254 41.9537C55.75 41.9836 55.6782 42.0038 55.6242 42.0175C55.514 42.0455 55.3887 42.0682 55.2641 42.0874C55.0098 42.1267 54.6702 42.165 54.2657 42.2027C53.452 42.2786 52.315 42.3575 50.9397 42.4359C48.186 42.5928 44.4423 42.7494 40.343 42.8745C32.1573 43.1245 22.5091 43.2506 16.4701 42.9996C15.8476 42.9837 15.5822 42.474 15.5411 42.3932C15.4606 42.2351 15.4212 42.074 15.3995 41.9703C15.3524 41.7449 15.3261 41.4664 15.3095 41.1836C15.2755 40.6027 15.273 39.822 15.2877 38.9825C15.3104 37.6823 15.3756 36.1866 15.4426 34.955L4.95656 34.4991C4.68797 34.4874 4.43538 34.368 4.2558 34.168C4.07622 33.9679 3.98477 33.7039 4.00208 33.4356L5.00208 17.9356ZM6.93658 19.0152L6.06367 32.5453L16.5434 33.0009C16.8117 33.0126 17.064 33.1317 17.2435 33.3313C17.4231 33.5309 17.5148 33.7944 17.4981 34.0624C17.4152 35.3876 17.3162 37.3714 17.2873 39.0175C17.2732 39.8249 17.2765 40.5294 17.304 41.03C23.2991 41.2387 32.4384 41.115 40.282 40.8755C44.3702 40.7506 48.0952 40.5947 50.8259 40.4391C52.1732 40.3624 53.27 40.2861 54.0463 40.2145C53.9741 40.1207 53.8958 40.0219 53.8118 39.9185C53.1871 39.1506 52.3629 38.2772 51.7929 37.7071C51.5609 37.4751 51.4574 37.144 51.5161 36.8211C51.9779 34.2813 51.5053 32.7686 51.0008 31.8606C50.7411 31.3931 50.4538 31.051 50.2079 30.7762C50.1826 30.7479 50.1549 30.7174 50.1261 30.6855C50.0322 30.5817 49.9257 30.464 49.8476 30.3668C49.7928 30.2986 49.7189 30.2011 49.6558 30.0854C49.5975 29.9787 49.5 29.7709 49.5 29.5C49.5 29.1621 49.2898 27.7846 48.6833 26.0863C48.0842 24.4091 47.1476 22.5618 45.7929 21.2071C45.1684 20.5826 44.5934 20.3149 44.0834 20.2162C43.5608 20.115 43.0249 20.1758 42.4622 20.3365C41.9564 20.4811 41.4823 20.6886 40.9898 20.9042C40.9208 20.9344 40.8514 20.9648 40.7815 20.9952C40.511 21.1128 40.2219 21.2349 39.9425 21.3268C39.6686 21.417 39.3414 21.5 39 21.5C37.9859 21.5 37.2676 20.9265 36.8278 20.3699C36.6037 20.0863 36.4279 19.7796 36.295 19.4888L6.93658 19.0152ZM16.5567 41.0015C16.5382 41.0005 16.5193 41 16.5 41C16.5139 41 16.5278 41.0003 16.5416 41.0009C16.5466 41.0011 16.5517 41.0013 16.5567 41.0015ZM17.3601 41.5741C17.3613 41.5781 17.3618 41.5803 17.3618 41.5805C17.3618 41.5807 17.3612 41.5787 17.3601 41.5741Z" fill="#21262A"/>
</svg>
