<svg width="24" height="24" viewBox="0 0 24 24" fill="none" xmlns="http://www.w3.org/2000/svg">
    <path d="M2.40655 6.80006C2.19317 6.79661 2.01467 6.96129 2.00093 7.17425L1.60093 13.3743C1.594 13.4816 1.63059 13.5872 1.70242 13.6672C1.77425 13.7472 1.87528 13.795 1.98272 13.7996L6.17715 13.982C6.15033 14.4746 6.12426 15.0729 6.11516 15.593C6.10928 15.9288 6.11028 16.2411 6.12391 16.4734C6.13055 16.5866 6.14104 16.6979 6.15989 16.7881C6.16856 16.8296 6.18433 16.894 6.21655 16.9573C6.233 16.9896 6.33914 17.1935 6.58812 17.1999C9.00374 17.3002 12.863 17.2498 16.1373 17.1498C17.777 17.0997 19.2745 17.0371 20.376 16.9744C20.9261 16.943 21.3809 16.9114 21.7064 16.8811C21.8682 16.866 22.004 16.8507 22.1057 16.835C22.1556 16.8273 22.2057 16.8182 22.2498 16.807C22.2714 16.8015 22.3001 16.7934 22.3303 16.7815C22.3493 16.774 22.4196 16.7462 22.4829 16.6828C22.6552 16.5106 22.6218 16.2934 22.6031 16.2133C22.5802 16.1155 22.5349 16.0237 22.4938 15.951C22.4084 15.8002 22.2801 15.6282 22.1454 15.4626C21.9232 15.1894 21.6502 14.8935 21.4276 14.6641C21.5835 13.5937 21.3802 12.8606 21.0998 12.3557C20.9536 12.0927 20.7936 11.9046 20.6794 11.777C20.6588 11.7539 20.6416 11.7349 20.627 11.7188L20.5946 11.6828C20.5688 11.3712 20.4519 10.7957 20.2268 10.1655C19.9664 9.43636 19.5411 8.57528 18.8829 7.91716C18.5328 7.56697 18.1627 7.37406 17.7855 7.30104C17.4133 7.229 17.0652 7.2797 16.7652 7.36539C16.5069 7.43918 16.2648 7.5455 16.0716 7.63032L15.9937 7.66443C15.8863 7.71112 15.8004 7.74667 15.727 7.77083C15.6514 7.79571 15.6135 7.8 15.6001 7.8C15.5257 7.8 15.4464 7.76273 15.359 7.65204C15.2695 7.53885 15.2108 7.39363 15.1882 7.30299C15.1442 7.12725 14.9877 7.00298 14.8065 7.00006L2.40655 6.80006Z" fill="#21262A"/>
</svg>
