<svg width="24" height="24" viewBox="0 0 24 24" fill="none" xmlns="http://www.w3.org/2000/svg">
    <path d="M18.3997 1.99001C18.397 1.88202 18.3507 1.77972 18.2714 1.70637C18.1921 1.63301 18.0864 1.59486 17.9785 1.60057L17.8125 1.60911C17.7048 1.61456 17.5482 1.62236 17.3526 1.63171C16.9614 1.65043 16.4146 1.67538 15.7922 1.70033C14.546 1.75029 13.0027 1.80001 11.7998 1.80001C10.597 1.80001 9.05358 1.75029 7.80739 1.70033C7.18505 1.67538 6.63821 1.65043 6.247 1.63171C6.05141 1.62236 5.89476 1.61456 5.78708 1.60911L5.62095 1.60057C5.51465 1.59494 5.41048 1.63192 5.33152 1.70332C5.25256 1.77472 5.20532 1.87465 5.20026 1.98098L4.80026 10.381C4.79472 10.4972 4.84006 10.61 4.92443 10.6901L16.7244 21.8901C16.7988 21.9607 16.8973 22 16.9998 22C17.2179 22 17.4175 21.9075 17.538 21.7167C17.6368 21.5603 17.6498 21.386 17.6498 21.275C17.6498 21.155 17.633 21.0351 17.6205 20.9508L17.6146 20.9115C17.6105 20.8839 17.6071 20.8614 17.6042 20.8395C17.6009 20.8147 17.6001 20.8032 17.5999 20.8003C17.5998 20.7994 17.5999 20.7997 17.5999 20.8003C17.5999 20.7099 17.5802 20.5871 17.5628 20.4855C17.5501 20.4113 17.5342 20.3255 17.518 20.2374L17.4934 20.1035C17.4417 19.8195 17.3998 19.557 17.3998 19.4C17.3998 19.2685 17.3835 19.1441 17.3666 19.0394C17.3576 18.9835 17.3499 18.941 17.3431 18.9029C17.3349 18.8568 17.3277 18.8172 17.3208 18.7684C17.3182 18.7504 17.3163 18.7346 17.3149 18.7208C17.3218 18.7224 17.3288 18.7242 17.3359 18.7261C17.4042 18.8132 17.4979 18.9007 17.619 18.9642C17.833 19.0765 18.1021 19.0961 18.3787 18.9578C18.6553 18.8195 18.8011 18.5925 18.8397 18.3539C18.8664 18.1888 18.8398 18.0349 18.7978 17.9163L18.3997 1.99001Z" fill="#21262A"/>
</svg>
