<svg width="60" height="60" viewBox="0 0 60 60" fill="none" xmlns="http://www.w3.org/2000/svg">
<path d="M13.3116 26.2661L42.1899 53.676C42.3758 53.8524 42.6512 53.9958 42.8566 53.8426C43.33 53.4896 42.9793 52.3695 42.9793 51.9507C42.9793 51.4507 42.4793 49.4507 42.4793 48.4507C42.4793 47.4507 41.9793 46.4507 42.4793 45.9507C42.7819 45.6482 43.2943 45.708 43.6702 45.8272C43.8764 45.8926 44.0235 46.0635 44.1694 46.2234C44.4268 46.5056 44.8777 46.7516 45.4793 46.4507C46.1408 46.12 46.1642 45.5386 46.0582 45.1587L46.0536 45.1422C46.0156 45.0062 45.9773 44.8689 45.9738 44.7279L45.005 5.97871C44.991 5.41568 44.5196 4.97475 43.957 5.00233C41.3522 5.13006 34.3295 5.45074 29.4793 5.45074C24.6152 5.45074 17.5659 5.1282 14.9792 5.00123C14.4255 4.97405 13.9579 5.40119 13.9315 5.95493L13.0011 25.4932C12.9873 25.7837 13.1006 26.0659 13.3116 26.2661Z" fill="#21262A"/>
<path fill-rule="evenodd" clip-rule="evenodd" d="M45.679 4.2659C45.8773 4.44928 45.9929 4.70504 45.9997 4.97501L46.9951 44.7907C47.1001 45.0872 47.1664 45.472 47.0997 45.8847C47.0032 46.4812 46.6387 47.0487 45.9472 47.3944C45.2557 47.7402 44.5831 47.6913 44.048 47.4105C43.7452 47.2518 43.5109 47.033 43.3403 46.8153C43.3225 46.8104 43.3049 46.806 43.2877 46.802C43.2912 46.8366 43.296 46.8761 43.3025 46.9211C43.3199 47.0431 43.3376 47.142 43.3583 47.2572C43.3753 47.3525 43.3944 47.4588 43.4169 47.5986C43.4591 47.8603 43.5 48.1712 43.5 48.5C43.5 48.8924 43.6048 49.5487 43.7339 50.2586C43.754 50.3696 43.7748 50.4821 43.7954 50.5933C43.836 50.8135 43.8757 51.0281 43.9075 51.2138C43.951 51.4676 44 51.774 44 52C44 51.9933 44.0002 52.0173 44.0109 52.0988C44.0182 52.1534 44.0266 52.2097 44.037 52.2787C44.0415 52.3087 44.0464 52.3412 44.0517 52.3769C44.0829 52.5878 44.125 52.8874 44.125 53.1875C44.125 53.4649 44.0925 53.9008 43.8455 54.2918C43.5443 54.7686 43.0452 55 42.5 55C42.2438 55 41.9974 54.9017 41.8116 54.7253L12.3116 26.7253C12.1006 26.5251 11.9873 26.2429 12.0011 25.9524L13.0011 4.95244C13.0138 4.6866 13.1319 4.43678 13.3293 4.25828C13.5267 4.07978 13.7871 3.98733 14.0529 4.0014L14.4682 4.02276C14.7374 4.03639 15.129 4.05588 15.618 4.07927C16.596 4.12605 17.9631 4.18843 19.519 4.2508C22.6344 4.3757 26.4929 4.5 29.5 4.5C32.5071 4.5 36.3656 4.3757 39.481 4.2508C41.0369 4.18843 42.404 4.12605 43.382 4.07927C43.871 4.05588 44.2626 4.03639 44.5318 4.02276L44.9468 4.00142C45.2164 3.98714 45.4808 4.08252 45.679 4.2659ZM44.026 6.05043C43.8604 6.05855 43.677 6.06744 43.4776 6.07698C42.4956 6.12395 41.1233 6.18657 39.5612 6.2492C36.4407 6.3743 32.5492 6.5 29.5 6.5C26.4509 6.5 22.5593 6.3743 19.4388 6.2492C17.8767 6.18657 16.5044 6.12395 15.5224 6.07698C15.3138 6.067 15.1227 6.05773 14.9512 6.04931L14.0207 25.59L42.006 52.1524C42.0024 52.1029 42 52.0514 42 52C42 52.0008 42 52.0004 41.9999 51.9988C41.9994 51.9912 41.9972 51.9547 41.987 51.8768C41.9758 51.7913 41.9588 51.6831 41.9363 51.5518C41.9065 51.3782 41.871 51.1861 41.8321 50.9752C41.811 50.8611 41.7889 50.7416 41.7661 50.6164C41.6452 49.9513 41.5 49.1076 41.5 48.5C41.5 48.2346 41.4602 48.0125 41.4094 47.7298C41.3821 47.5775 41.3517 47.4076 41.3226 47.2039C41.2635 46.7908 41.1579 45.9279 41.7929 45.2929C42.305 44.7807 42.9701 44.7508 43.3774 44.7928C43.806 44.8369 44.1979 44.9809 44.4472 45.1056C44.6407 45.2023 44.7977 45.3593 44.8944 45.5528C44.8944 45.5528 44.906 45.5738 44.9293 45.5993C44.9474 45.619 44.9627 45.6306 44.9717 45.6363C44.9848 45.6338 45.0113 45.6263 45.0528 45.6056C45.0943 45.5848 45.1161 45.5681 45.126 45.5592C45.1269 45.5485 45.1268 45.5294 45.1218 45.503C45.1155 45.4691 45.1056 45.4472 45.1056 45.4472C45.0399 45.3159 45.004 45.1718 45.0003 45.025L44.026 6.05043Z" fill="#21262A"/>
<path d="M29.2739 23.9999V15.5039H27.2819L27.3299 21.0479H27.2939L23.8859 15.5039H21.5459V23.9999H23.5379L23.4899 18.4439H23.5259L26.9459 23.9999H29.2739Z" fill="#21262A"/>
<path d="M38.5144 15.5039H36.2464L34.2904 21.5279H34.2424L32.2744 15.5039H29.9704L33.1864 23.9999H35.2384L38.5144 15.5039Z" fill="#21262A"/>
</svg>
