<svg width="60" height="60" viewBox="0 0 60 60" fill="none" xmlns="http://www.w3.org/2000/svg">
<path d="M45.6554 12.2509L34.1138 5.14838C33.6966 4.89165 33.1549 4.97493 32.834 5.34511L27.3278 11.6984C27.063 12.004 27.0094 12.4383 27.1806 12.8046C27.3624 13.1936 27.5595 13.639 27.6998 14.011C27.8516 14.4138 27.604 14.8122 27.3334 15.147C26.0621 16.7197 25.078 21.6406 26.3904 21.2032C27.7771 20.741 27.4545 24.1245 27.7929 24.6384C27.8379 24.7067 27.9319 24.6917 28.0121 24.6759C29.8659 24.3113 29.9203 26.6699 31.3323 28.1439C31.3704 28.1836 31.4162 28.2215 31.4606 28.2541C34.8157 30.7168 29.387 31.7032 28.8904 31.7032C28.3904 31.7032 26.3904 33.7032 26.3904 34.2032C26.3904 34.7032 26.8904 35.2032 26.8904 35.7032C26.8904 36.0642 25.5331 36.1808 24.6558 36.2001C24.4818 36.204 24.3106 36.2478 24.1614 36.3373C21.7907 37.7575 17.8415 41.1053 19.3904 44.2032C21.3904 48.2032 28.3904 50.2032 28.8904 50.2032C29.1914 50.2032 29.7 50.7694 30.0753 51.2627C30.2799 51.5316 30.308 51.8895 30.188 52.2054C29.7121 53.4584 29.1926 55.3543 29.8904 55.7032C30.6904 56.1032 31.557 54.8699 31.8904 54.2032L34.277 49.4299C34.3514 49.2811 34.461 49.154 34.5966 49.0578C36.3167 47.8379 39.3904 45.4714 39.3904 44.7032C39.3904 44.087 39.9836 43.629 40.4847 43.3749C40.7353 43.2478 40.9554 43.0569 41.0695 42.8001L42.815 38.8729C42.8648 38.7607 42.9319 38.6593 42.9798 38.5462C43.548 37.2032 44.8904 28.6762 44.8904 28.2032V25.4838C44.8904 24.8332 44.2698 24.3417 43.6194 24.3284C42.9384 24.3145 42.1452 24.1741 41.4737 23.7568C41.4178 23.7221 41.3649 23.6784 41.3198 23.6304C39.4628 21.655 42.3964 19.7032 42.8904 19.7032C43.249 19.7032 44.9742 15.9518 46.0479 13.4942C46.2464 13.0398 46.0776 12.5107 45.6554 12.2509Z" fill="#21262A"/>
<path d="M18.728 31.9999V23.5039H16.736L16.784 29.0479H16.748L13.34 23.5039H11V31.9999H12.992L12.944 26.4439H12.98L16.4 31.9999H18.728Z" fill="#21262A"/>
<path d="M25.1245 29.0959V23.5039H23.0605V29.1079C23.0605 29.8519 22.9045 30.3679 22.2325 30.3679C21.8005 30.3679 21.4885 30.0679 21.3805 29.6239L19.5685 30.2359C19.8805 31.3999 20.9005 32.2279 22.3285 32.2279C24.6445 32.2279 25.1245 30.4399 25.1245 29.0959Z" fill="#21262A"/>
<path fill-rule="evenodd" clip-rule="evenodd" d="M33.2843 3.34511C33.6051 2.97493 34.1469 2.89165 34.5641 3.14838L47.5641 11.1484C47.9863 11.4082 48.1544 11.9382 47.9591 12.394C47.4559 13.568 46.6748 15.3321 45.9665 16.8078C45.6137 17.5427 45.2707 18.2235 44.9849 18.7277C44.8442 18.9757 44.7021 19.2084 44.5685 19.3892C44.504 19.4765 44.4174 19.5849 44.313 19.6814C44.2605 19.7299 44.1803 19.7973 44.0747 19.857C43.9964 19.9013 43.8624 19.9652 43.6865 19.9898C43.682 19.9919 43.677 19.9941 43.6717 19.9966C43.604 20.0281 43.5012 20.085 43.3774 20.1696C43.1266 20.3408 42.8543 20.581 42.6525 20.85C42.4481 21.1225 42.3633 21.3596 42.3601 21.548C42.3577 21.6919 42.3995 21.9167 42.6778 22.2206C43.0733 22.4584 43.5615 22.5794 44.0612 22.6151C44.5959 22.6533 45.0651 22.588 45.2974 22.5299C45.5962 22.4552 45.9127 22.5223 46.1554 22.7118C46.3981 22.9013 46.54 23.1921 46.54 23.5V27.5C46.54 27.6483 46.5023 27.9378 46.4654 28.2091C46.4224 28.5253 46.3609 28.9453 46.2863 29.4328C46.1368 30.4082 45.9325 31.6652 45.7125 32.9224C45.4929 34.1775 45.2558 35.443 45.0405 36.4315C44.9334 36.9237 44.8283 37.3626 44.7304 37.7026C44.6819 37.8709 44.63 38.0334 44.5747 38.1732L44.5733 38.1767C44.5497 38.2363 44.4992 38.364 44.4124 38.4993L42.4538 42.9062C42.3397 43.163 42.1228 43.3599 41.8562 43.4487C41.6939 43.5028 41.4327 43.6263 41.2335 43.7883C41.0728 43.919 41.0441 43.9955 41.0399 44.0088C41.0372 44.4035 40.8525 44.7311 40.7368 44.9127C40.5981 45.1303 40.4181 45.348 40.2293 45.5534C39.8488 45.9672 39.3431 46.4268 38.81 46.8767C37.8225 47.7101 36.662 48.5766 35.8218 49.1724L33.4344 53.9473C33.2364 54.3432 32.8745 54.9261 32.405 55.3738C31.9921 55.7675 31.1062 56.4012 30.0928 55.8945C29.4217 55.5589 29.2554 54.8788 29.2151 54.468C29.1711 54.0203 29.2334 53.5292 29.3223 53.0895C29.4574 52.4209 29.6881 51.711 29.907 51.1362C29.8022 50.9997 29.6877 50.8595 29.5742 50.7342C29.4687 50.6179 29.3818 50.5343 29.3185 50.4821C29.2628 50.4739 29.2143 50.4646 29.1794 50.4577C29.076 50.4373 28.9548 50.4091 28.8213 50.3748C28.5531 50.3059 28.2092 50.2055 27.8126 50.0747C27.0197 49.8131 25.9934 49.4221 24.9162 48.8999C22.8146 47.8809 20.3016 46.2592 19.1456 43.9473C18.0759 41.8078 19.051 39.7013 20.2872 38.1715C21.5475 36.612 23.3079 35.3381 24.5439 34.6318C24.695 34.5455 24.866 34.5 25.04 34.5C25.3773 34.5 25.8515 34.4821 26.2687 34.4347C26.2387 34.3687 26.2088 34.2982 26.1818 34.2262C26.1116 34.039 26.04 33.7889 26.04 33.5C26.04 33.1704 26.1811 32.8952 26.248 32.772C26.3367 32.6087 26.4491 32.4453 26.5632 32.2946C26.7937 31.9903 27.0922 31.6586 27.3954 31.3554C27.6986 31.0522 28.0303 30.7538 28.3346 30.5233C28.4852 30.4091 28.6486 30.2967 28.8119 30.2081C28.9352 30.1412 29.2103 30 29.54 30C29.5395 30 29.542 29.9997 29.5473 29.9991C29.5992 29.9926 29.92 29.9524 30.3912 29.8346C30.885 29.7111 31.4119 29.5341 31.7997 29.316C32.0549 29.1724 32.1512 29.0693 32.1854 29.0245C32.1479 28.9408 32.0036 28.7029 31.4587 28.3138C31.4139 28.2818 31.3718 28.2461 31.3329 28.2071C30.8624 27.7366 30.5281 27.2067 30.2666 26.7344C30.1496 26.5228 30.0412 26.3118 29.9439 26.1222C29.9329 26.1007 29.922 26.0795 29.9113 26.0587C29.8022 25.8463 29.7079 25.6654 29.6137 25.5039C29.4159 25.1648 29.2835 25.0308 29.1956 24.9767C29.1592 24.9543 29.0687 24.8986 28.7825 24.9702C28.7032 24.99 28.6217 25 28.54 25C28.1251 25 27.8388 24.7762 27.6871 24.5932C27.5512 24.4291 27.4826 24.2557 27.4474 24.153C27.3747 23.9408 27.3378 23.6987 27.3137 23.5095C27.2904 23.3272 27.2709 23.1212 27.2522 22.9242C27.25 22.9012 27.2478 22.8783 27.2457 22.8556C27.2242 22.63 27.2023 22.4085 27.1738 22.1947C27.1337 21.8945 27.0874 21.6717 27.0413 21.5187C26.8785 21.5369 26.7016 21.5287 26.5189 21.4766C26.204 21.3868 25.9724 21.1952 25.8165 20.9905C25.5396 20.6267 25.462 20.1742 25.4343 19.8511C25.3743 19.1521 25.4938 18.2531 25.6906 17.4002C25.891 16.5315 26.1947 15.6129 26.5633 14.8581C26.7471 14.4818 26.9609 14.1174 27.2058 13.8146C27.2616 13.7455 27.3236 13.674 27.3918 13.6032C27.3487 13.4916 27.299 13.3694 27.2442 13.2402C27.0462 12.7729 26.8057 12.2675 26.6456 11.9473C26.4647 11.5856 26.5195 11.1507 26.7843 10.8451L33.2843 3.34511ZM43.7272 19.9738C43.727 19.9741 43.7221 19.9761 43.7128 19.9788C43.7227 19.9749 43.7273 19.9735 43.7272 19.9738ZM34.2393 5.2969L28.7266 11.6577C28.8454 11.9112 28.9711 12.1895 29.0857 12.4599C29.1946 12.7168 29.2992 12.9803 29.3783 13.2152C29.4423 13.4053 29.54 13.7151 29.54 14C29.54 14.4182 29.28 14.7908 28.8908 14.9365C28.8775 14.9469 28.8329 14.9832 28.7609 15.0722C28.6425 15.2186 28.5048 15.4402 28.3604 15.7358C28.0728 16.3247 27.8139 17.0936 27.6394 17.8499C27.4908 18.4939 27.4187 19.0623 27.4186 19.4623C27.5927 19.4769 27.7682 19.5211 27.9401 19.6019C28.3235 19.7822 28.5619 20.0859 28.7078 20.3447C28.9834 20.8331 29.0934 21.4596 29.1562 21.9304C29.1902 22.1853 29.2152 22.4404 29.2366 22.666C29.2388 22.6882 29.2408 22.7101 29.2429 22.7316C29.2501 22.8075 29.2569 22.8789 29.2635 22.9462C29.6113 22.9791 29.9398 23.0863 30.2438 23.2734C30.7652 23.5943 31.1016 24.0853 31.3413 24.4962C31.4658 24.7097 31.5825 24.935 31.6902 25.1445C31.701 25.1656 31.7117 25.1865 31.7224 25.2073C31.8216 25.4004 31.9154 25.5833 32.0164 25.7657C32.2255 26.1434 32.4393 26.4704 32.6956 26.7401C33.5863 27.3928 34.2623 28.1953 34.1938 29.1716C34.1245 30.1584 33.33 30.7499 32.7802 31.0591C32.1681 31.4035 31.445 31.6327 30.8763 31.7749C30.4425 31.8833 30.0114 31.9623 29.7254 31.9896C29.6819 32.0165 29.6207 32.058 29.5423 32.1174C29.331 32.2775 29.0689 32.5104 28.8096 32.7696C28.5503 33.0289 28.3175 33.291 28.1574 33.5023C28.1299 33.5386 28.1063 33.5712 28.0861 33.6C28.1095 33.6521 28.1407 33.7153 28.1844 33.8028L28.192 33.8179C28.2496 33.9331 28.3325 34.0988 28.3982 34.2739C28.4684 34.461 28.54 34.7112 28.54 35C28.54 35.4373 28.3019 35.7354 28.1227 35.8912C27.9513 36.0401 27.7625 36.1272 27.628 36.1793C27.3519 36.2863 27.0283 36.349 26.745 36.3898C26.2713 36.458 25.7377 36.488 25.3165 36.497C24.2404 37.1427 22.8304 38.2065 21.8428 39.4286C20.7624 40.7655 20.4041 41.9923 20.9344 43.0528C21.7784 44.7409 23.7654 46.1192 25.7888 47.1002C26.7741 47.578 27.7165 47.937 28.4392 48.1754C28.8005 48.2946 29.1011 48.3817 29.3192 48.4378C29.4289 48.466 29.5113 48.4846 29.5664 48.4955C29.5799 48.4982 29.5903 48.5001 29.598 48.5014C30.0239 48.5213 30.3535 48.7554 30.5022 48.8686C30.7044 49.0226 30.8947 49.2131 31.0558 49.3909C31.3817 49.7503 31.6868 50.1675 31.872 50.4454C32.0595 50.7265 32.0922 51.0834 31.9591 51.394C31.7248 51.9407 31.4269 52.772 31.2827 53.4856C31.2689 53.5535 31.2571 53.618 31.2471 53.679C31.4085 53.4745 31.5517 53.2405 31.6455 53.0528L34.1455 48.0528C34.2199 47.9041 34.3302 47.7762 34.4665 47.6808C35.2845 47.1082 36.5086 46.202 37.52 45.3483C38.0285 44.9192 38.4603 44.5224 38.7569 44.1998C38.9025 44.0414 38.9949 43.923 39.046 43.8443C39.1052 43.0855 39.588 42.5486 39.9715 42.2367C40.2368 42.021 40.5266 41.8517 40.789 41.7275L42.6262 37.5939C42.6514 37.537 42.6819 37.4828 42.7172 37.4318C42.7387 37.3765 42.7695 37.2847 42.8085 37.1491C42.8884 36.8718 42.9825 36.4826 43.0863 36.006C43.2929 35.0571 43.5246 33.8226 43.7424 32.5777C43.9599 31.3349 44.1619 30.0918 44.3093 29.1298C44.3831 28.6485 44.4427 28.2404 44.4837 27.9394C44.5127 27.7265 44.5273 27.6004 44.5343 27.5404C44.5386 27.5028 44.54 27.4911 44.54 27.5V24.6247C44.3412 24.6293 44.1327 24.6253 43.9187 24.61C43.1707 24.5566 42.2762 24.3594 41.4853 23.8321C41.4305 23.7956 41.3794 23.7537 41.3329 23.7071C40.6736 23.0479 40.3474 22.297 40.3604 21.5146C40.3729 20.7655 40.6943 20.1276 41.0525 19.65C41.4132 19.1691 41.8596 18.7843 42.2495 18.518C42.4459 18.3838 42.6439 18.2689 42.8282 18.1832C42.8788 18.1596 42.9479 18.1287 43.0301 18.0989C43.0865 18.0125 43.1583 17.8942 43.2451 17.7412C43.4967 17.2974 43.8162 16.6657 44.1635 15.9423C44.711 14.8015 45.307 13.4758 45.7781 12.3977L34.2393 5.2969ZM42.6966 37.4787C42.6965 37.4782 42.6995 37.4713 42.7059 37.4594C42.6999 37.4733 42.6968 37.4792 42.6966 37.4787ZM39.0798 43.7852C39.0801 43.7851 39.0784 43.7895 39.0735 43.7986C39.077 43.7898 39.0795 43.7853 39.0798 43.7852ZM31.218 54.3483C31.2177 54.3486 31.2163 54.3445 31.2143 54.3349C31.2172 54.3432 31.2182 54.348 31.218 54.3483ZM27.9922 33.7543C27.9917 33.7545 27.9941 33.7485 28.0006 33.7358C27.996 33.7477 27.9927 33.7541 27.9922 33.7543ZM29.7942 31.9523C29.794 31.9527 29.7877 31.956 29.7757 31.9607C29.7884 31.9541 29.7944 31.9518 29.7942 31.9523Z" fill="#21262A"/>
</svg>
