<svg width="24" height="24" viewBox="0 0 24 24" fill="none" xmlns="http://www.w3.org/2000/svg">
    <path d="M3.1998 2C2.97889 2 2.7998 2.17909 2.7998 2.4V22C2.7998 22.2209 2.97889 22.4 3.1998 22.4H5.57818C5.7991 22.4 5.97818 22.2209 5.97818 22V20.9481H10.5728C10.6957 20.9481 10.8117 20.8917 10.8876 20.7949C10.9634 20.6982 10.9905 20.572 10.9612 20.4527L10.8423 19.9686L20.8091 19.7382C20.9164 19.7357 21.0183 19.6901 21.0917 19.6117C21.1651 19.5334 21.204 19.4287 21.1995 19.3214L20.4859 2.38317C20.4769 2.16899 20.3007 2 20.0863 2H3.1998Z" fill="#21262A"/>
</svg>
