<svg width="60" height="60" viewBox="0 0 60 60" fill="none" xmlns="http://www.w3.org/2000/svg">
<path d="M38.5819 5.41693L38.2091 5.16839C37.6656 4.80606 36.9264 5.05362 36.7106 5.67014L33.7268 14.1951C33.6677 14.3641 33.6558 14.5452 33.6867 14.7216C34.139 17.3071 34.1122 22.1809 30.6365 22.9533C26.1365 23.9533 27.1365 27.4533 27.6365 27.9533C28.1365 28.4533 24.1365 35.9533 22.1365 38.9533C20.2566 41.7731 21.9106 47.2431 21.7009 49.1358C21.6777 49.3459 21.5417 49.5173 21.3773 49.6501C19.1461 51.4527 19.9707 53.8362 20.8657 55.1044C21.0282 55.3345 21.297 55.458 21.5785 55.4663L37.8504 55.9449C38.0374 55.9504 38.2209 55.9041 38.3827 55.8103C39.5163 55.1528 44.1974 52.4533 44.6365 52.4533C44.9874 52.4533 45.6204 50.6578 45.9956 49.4293C46.087 49.1301 46.0249 48.8078 45.848 48.5497C45.3276 47.7903 44.6365 46.6184 44.6365 45.9533C44.6365 45.1551 42.7249 43.7196 42.2079 43.1729C42.0722 43.0295 42.2313 42.9015 42.3679 42.7589C43.2562 41.8322 42.9662 39.678 42.6656 38.5584C42.6468 38.4883 42.6344 38.4195 42.63 38.3469C42.0844 29.3899 40.7808 13.6878 40.3099 8.31346C40.2402 7.51781 39.2465 5.85997 38.5819 5.41693Z" fill="#21262A"/>
<path d="M20.728 18.9999V10.5039H18.736L18.784 16.0479H18.748L15.34 10.5039H13V18.9999H14.992L14.944 13.4439H14.98L18.4 18.9999H20.728Z" fill="#21262A"/>
<path d="M29.8965 18.9999V10.5039H27.8445V13.7199H24.5325V10.5039H22.4805V18.9999H24.5325V15.4479H27.8445V18.9999H29.8965Z" fill="#21262A"/>
<path fill-rule="evenodd" clip-rule="evenodd" d="M37.129 3.05174C37.4221 2.95362 37.744 2.99652 38.0012 3.16795L40.9707 5.14763C40.9757 5.14904 40.9807 5.15048 40.9856 5.15197C41.1632 5.29658 41.3425 5.54926 41.3758 5.62385C41.4123 5.71512 41.427 5.79447 41.427 5.79451C41.4376 5.84543 41.4435 5.89674 41.4445 5.90528L41.4446 5.90632C41.4495 5.94678 41.4556 6.00541 41.4624 6.07422C41.4764 6.21601 41.4967 6.43418 41.5225 6.71886C41.5741 7.28941 41.6485 8.13721 41.7397 9.19878C41.9221 11.3223 42.1722 14.3052 42.4432 17.6441C42.9815 24.2772 43.6027 32.3255 43.9382 37.8342C44.1146 38.4872 44.2893 39.457 44.2713 40.4065C44.2594 41.0356 44.159 41.8422 43.7659 42.5126C43.8887 42.6215 44.0267 42.7442 44.1816 42.8851C44.531 43.2027 44.9336 43.585 45.2538 43.9692C45.4141 44.1616 45.5744 44.3788 45.6988 44.6095C45.817 44.8288 45.9465 45.1398 45.9465 45.5C45.9465 45.4986 45.9464 45.5064 45.9489 45.5248C45.9513 45.5431 45.9558 45.5683 45.9636 45.6012C45.9794 45.668 46.0057 45.7532 46.045 45.8566C46.1244 46.065 46.2419 46.3082 46.3846 46.5671C46.6704 47.0852 47.0185 47.596 47.2465 47.9C47.4342 48.1503 47.4939 48.4739 47.408 48.7747C47.2364 49.3752 46.9519 50.2819 46.6536 51.0497C46.5065 51.4283 46.3425 51.8085 46.1742 52.1075C46.0925 52.2528 45.9859 52.4225 45.853 52.569C45.7759 52.6541 45.5199 52.9287 45.1076 52.9885C45.0701 53.0028 45.0135 53.0264 44.9352 53.0618C44.7477 53.1464 44.491 53.2735 44.1802 53.4346C43.5619 53.7553 42.7761 54.1865 41.9976 54.6225C41.2209 55.0575 40.4588 55.4929 39.8905 55.8199C39.6064 55.9833 39.3711 56.1195 39.2069 56.2147L39.0168 56.3251L38.9513 56.3632L38.9504 56.3638C38.7888 56.458 38.604 56.5051 38.4171 56.4996L21.4171 55.9996C21.1355 55.9913 20.8705 55.8647 20.6872 55.6508C20.0944 54.9592 19.3994 53.7704 19.2755 52.4027C19.1533 51.0533 19.6004 49.6137 21.0265 48.4453C21.0291 48.3888 21.0302 48.3241 21.0295 48.2506C21.027 47.9852 21.0017 47.6535 20.9597 47.2526C20.9295 46.9642 20.8884 46.6248 20.844 46.2581C20.7735 45.6765 20.6947 45.0265 20.6381 44.403C20.542 43.3466 20.489 42.1956 20.5999 41.0951C20.7103 39.9996 20.9897 38.8824 21.6144 37.9453C22.5858 36.4881 24.0666 33.8993 25.2444 31.6057C25.833 30.4594 26.3338 29.4104 26.6539 28.6288C26.798 28.2768 26.8947 28.005 26.9482 27.8153C26.9057 27.7406 26.869 27.6668 26.8375 27.5978C26.7404 27.3851 26.6569 27.1377 26.5961 26.8693C26.4752 26.3349 26.4322 25.6631 26.598 24.9585C26.9526 23.4517 28.1814 22.0901 30.7295 21.5238C31.9701 21.2481 32.6785 20.2257 33.0056 18.6804C33.3314 17.1413 33.1988 15.3607 32.9659 14.1961C32.9308 14.0205 32.9434 13.8387 33.0026 13.6697L36.5026 3.66965C36.6047 3.37795 36.8359 3.14985 37.129 3.05174ZM38.1907 54.492L38.2036 54.4845C38.3695 54.3884 38.6068 54.2511 38.8931 54.0863C39.4654 53.7571 40.2346 53.3175 41.0204 52.8775C41.8044 52.4385 42.6123 51.9947 43.2596 51.6591C43.5817 51.4921 43.8757 51.3458 44.112 51.239C44.2262 51.1875 44.3406 51.1389 44.4456 51.1009C44.5415 50.9252 44.6597 50.659 44.7894 50.3253C44.992 49.8039 45.193 49.1953 45.3489 48.6847C45.1215 48.3542 44.8631 47.9495 44.6333 47.5329C44.4636 47.2252 44.2998 46.8934 44.176 46.5684C44.0666 46.2812 43.9617 45.9315 43.948 45.5772C43.9453 45.5718 43.9421 45.5655 43.9383 45.5584C43.9005 45.4884 43.8304 45.3853 43.7173 45.2496C43.4906 44.9775 43.1744 44.6723 42.8363 44.3649C42.7214 44.2604 42.5962 44.1491 42.4731 44.0396C42.269 43.858 42.0704 43.6813 41.9325 43.5485C41.8392 43.4586 41.6665 43.2907 41.5541 43.1046C41.5209 43.0494 41.4674 42.952 41.4309 42.8237C41.3962 42.7016 41.3504 42.4574 41.4539 42.1766C41.5658 41.8735 41.7642 41.7061 41.9548 41.6138C42.0984 41.4621 42.2579 41.0945 42.2717 40.3685C42.286 39.614 42.1323 38.7905 41.9849 38.2747C41.965 38.2049 41.9527 38.133 41.9483 38.0605C41.6156 32.5716 40.9914 24.4804 40.4497 17.8059C40.179 14.4698 39.9292 11.4902 39.747 9.36998C39.6559 8.30968 39.5818 7.46529 39.5306 6.89911C39.5195 6.77607 39.5095 6.66663 39.5006 6.57129L37.9644 5.54717L34.9786 14.0782C35.2138 15.4122 35.3351 17.3334 34.9623 19.0946C34.5644 20.9743 33.5228 22.9519 31.1634 23.4762C29.2115 23.91 28.6903 24.7983 28.5449 25.4165C28.4607 25.7744 28.4802 26.1338 28.5468 26.4276C28.5797 26.5732 28.6212 26.6892 28.657 26.7674C28.6712 26.7986 28.682 26.8185 28.6881 26.829C28.9989 27.1687 28.9919 27.5833 28.9887 27.7009C28.9834 27.8902 28.9455 28.0791 28.9052 28.2383C28.8225 28.5656 28.6784 28.9625 28.5047 29.3868C28.1529 30.2458 27.6224 31.3531 27.0235 32.5193C25.8263 34.8507 24.3071 37.5119 23.2785 39.0547C22.9032 39.6176 22.6826 40.3754 22.5899 41.2956C22.4976 42.2106 22.5384 43.2159 22.6299 44.222C22.6861 44.841 22.7547 45.4024 22.8207 45.9431C22.8662 46.316 22.9106 46.679 22.9488 47.0442C22.9928 47.4637 23.026 47.8703 23.0294 48.2319C23.0326 48.575 23.0114 48.9676 22.8952 49.3162C22.8283 49.5167 22.6997 49.6909 22.5277 49.8137C21.4221 50.6035 21.1988 51.465 21.2674 52.2223C21.3278 52.8892 21.6267 53.5377 21.951 54.0144L38.1907 54.492ZM39.8955 6.82641C39.8955 6.8264 39.8955 6.82641 39.8955 6.82641V6.82641ZM45.1584 52.9711C45.158 52.9715 45.1511 52.9739 45.1386 52.9771C45.1526 52.9723 45.1588 52.9707 45.1584 52.9711ZM42.4465 43.5C42.4505 43.5 42.4546 43.5 42.4586 43.4999L42.4465 43.5Z" fill="#21262A"/>
</svg>
