<svg width="24" height="24" viewBox="0 0 24 24" fill="none" xmlns="http://www.w3.org/2000/svg">
    <path fill-rule="evenodd" clip-rule="evenodd" d="M18.283 3.72406C18.2615 3.70251 18.2133 3.65815 18.1385 3.62864C18.0509 3.59407 17.9239 3.58083 17.7985 3.6469C17.7926 3.65 17.7869 3.65318 17.7813 3.65645C17.7666 3.65953 17.7479 3.66313 17.7248 3.66704C17.6417 3.68109 17.5304 3.69469 17.3938 3.70737C17.1215 3.73265 16.771 3.75232 16.3896 3.76721C15.628 3.79694 14.7635 3.80691 14.2002 3.80691C14.1112 3.80691 14.0248 3.83655 13.9546 3.89116C13.3516 4.36015 12.4463 5.08439 11.6898 5.7333C11.3124 6.05699 10.9662 6.36694 10.7121 6.61934C10.5859 6.74461 10.4747 6.86337 10.3923 6.96721C10.3515 7.01866 10.3106 7.07533 10.278 7.13375C10.2524 7.17969 10.2002 7.28072 10.2002 7.4069C10.2002 7.51299 10.2423 7.61473 10.3174 7.68975C10.5703 7.94268 10.6462 8.41342 10.4912 8.94491C10.3369 9.47406 9.99848 9.89678 9.65164 10.0355C9.25202 10.1954 8.58851 10.2082 7.93381 10.1112C7.61577 10.0641 7.32067 9.99408 7.08743 9.91539C6.8354 9.83037 6.71292 9.75395 6.68304 9.72407C6.56755 9.60858 6.42302 9.55697 6.30924 9.53118C6.19028 9.50421 6.06186 9.49595 5.93709 9.49692C5.68712 9.49886 5.39513 9.53878 5.10535 9.59397C4.52244 9.705 3.88441 9.89053 3.4737 10.0274C3.29031 10.0886 3.17688 10.2721 3.20422 10.4635C3.2384 10.7028 3.29968 11.0808 3.37325 11.4418C3.42897 11.7152 3.49916 12.0189 3.58049 12.2397C3.56555 12.2582 3.54631 12.2806 3.52186 12.3068C3.39494 12.4431 3.19212 12.6171 2.94141 12.8098C2.44466 13.1917 1.81728 13.6037 1.39056 13.8663C1.27226 13.9391 1.2002 14.068 1.2002 14.2069V14.8069C1.2002 15.0235 1.37258 15.2008 1.58909 15.2068C3.98226 15.2732 8.83279 15.4069 9.0002 15.4069C9.04407 15.4069 9.14521 15.397 9.25243 15.3865L9.3025 15.3816C9.44683 15.3676 9.64051 15.3491 9.86711 15.3306C10.3214 15.2935 10.9031 15.2569 11.4752 15.2569C12.0545 15.2569 12.5943 15.2948 12.978 15.3941C13.1715 15.4443 13.2919 15.5019 13.3561 15.552C13.3855 15.5749 13.3953 15.5902 13.3978 15.5948C13.399 15.597 13.4002 15.5992 13.4002 15.6069C13.4002 16.2086 13.654 16.6699 13.9601 16.9923C14.2428 17.2901 14.5777 17.4789 14.8293 17.5709L16.4209 18.5258C16.2284 18.8681 16.0754 19.3572 16.2121 19.9039C16.2578 20.0865 16.3554 20.2393 16.4974 20.351C16.6334 20.4579 16.7898 20.5116 16.9349 20.538C17.2159 20.5891 17.5381 20.552 17.8217 20.5005C18.0611 20.4569 18.3104 20.3953 18.529 20.3412L18.6637 20.308C18.9344 20.242 19.1083 20.2069 19.2002 20.2069C19.4549 20.2069 19.7304 20.089 19.958 19.9721C20.2025 19.8465 20.467 19.6806 20.7182 19.5173C20.8103 19.4574 20.8999 19.3984 20.987 19.341C21.1446 19.2372 21.2945 19.1385 21.4372 19.0492C21.6643 18.9073 21.8274 18.8195 21.9267 18.7864C22.0654 18.7402 22.2212 18.684 22.3286 18.5996C22.3908 18.5507 22.4903 18.4512 22.5128 18.2899C22.5348 18.1319 22.4686 18.0134 22.433 17.96C22.3971 17.9062 22.3536 17.8619 22.3315 17.8394C22.319 17.8267 22.3092 17.8169 22.3003 17.808C22.2865 17.7943 22.2749 17.7826 22.2593 17.7662C22.2175 17.7221 22.1837 17.6795 22.158 17.628C22.0852 17.4826 21.9496 17.3573 21.7546 17.3299C21.5952 17.3076 21.4584 17.3614 21.3786 17.4002C21.2231 17.4758 21.0578 17.6111 20.9349 17.7117L20.9219 17.7223C20.7756 17.8421 20.6592 17.937 20.5585 17.9955C20.5391 18.0068 20.5237 18.0147 20.512 18.0202C20.4063 17.9811 20.2981 17.9697 20.2091 17.9672C20.0946 17.964 19.9717 17.9748 19.8499 17.9922C19.6061 18.027 19.3246 18.0948 19.0449 18.171C18.8058 18.2362 18.5581 18.3105 18.3253 18.3809C18.3449 18.3707 18.3643 18.3602 18.3833 18.3494C18.4953 18.2855 18.6355 18.1868 18.7283 18.039C18.8335 17.8715 18.8632 17.6604 18.7699 17.4533L18.7687 17.4467C18.7647 17.4232 18.7602 17.3863 18.7563 17.3336C18.7485 17.2286 18.7448 17.0849 18.7452 16.9072C18.746 16.5532 18.7631 16.0897 18.7896 15.5828C18.8427 14.5706 18.9323 13.4054 18.9987 12.6416C18.9997 12.6301 19.0002 12.6185 19.0002 12.6069V9.20693C19.0002 9.08141 18.9413 8.96317 18.8411 8.88759C18.7409 8.812 18.611 8.78783 18.4903 8.82231L18.4726 8.82731C18.5338 8.71075 18.5771 8.58557 18.6088 8.46331C18.6681 8.23507 18.6976 7.97562 18.7092 7.70865C18.7324 7.17446 18.6859 6.55648 18.6227 5.98773C18.5724 5.53498 18.5099 5.10054 18.4601 4.75447L18.4599 4.75266C18.4471 4.66363 18.4351 4.58047 18.4244 4.50438C18.4017 4.34276 18.3859 4.22055 18.3781 4.13793C18.3856 4.11632 18.3913 4.09394 18.395 4.07098C18.4156 3.94406 18.374 3.81498 18.283 3.72406Z" fill="#21262A"/>
</svg>
