<svg width="60" height="60" viewBox="0 0 60 60" fill="none" xmlns="http://www.w3.org/2000/svg">
<path d="M8 7V54.3951C8 54.7292 8.27084 55 8.60494 55H12.9459C13.4982 55 13.9459 54.5523 13.9459 54V52.3704C13.9459 51.8181 14.3937 51.3704 14.9459 51.3704H25.1718C25.8131 51.3704 26.2847 50.769 26.1316 50.1461C25.9808 49.5324 26.4368 48.9368 27.0686 48.9222L50.9811 48.3692C51.5407 48.3563 51.9807 47.8866 51.9571 47.3274L50.2566 6.95791C50.234 6.42247 49.7934 6 49.2575 6H29.4054H9C8.44772 6 8 6.44772 8 7Z" fill="#21262A"/>
<path fill-rule="evenodd" clip-rule="evenodd" d="M7 6C7 5.44772 7.44772 5 8 5H50.2162C50.7521 5 51.1928 5.42247 51.2153 5.95791L52.9991 48.3036C53.0104 48.5719 52.9134 48.8334 52.7298 49.0294C52.5462 49.2253 52.2916 49.3392 52.0231 49.3454L27.1062 49.9216L27.4035 51.1317C27.4769 51.4301 27.409 51.7456 27.2194 51.9874C27.0298 52.2291 26.7397 52.3704 26.4324 52.3704H14.9459V55C14.9459 55.5523 14.4982 56 13.9459 56H8C7.44772 56 7 55.5523 7 55V6ZM9 7V54H12.9459V51.3704C12.9459 50.8181 13.3937 50.3704 13.9459 50.3704H25.157L24.8667 49.1892C24.7944 48.8948 24.8595 48.5835 25.0438 48.3428C25.2281 48.102 25.5116 47.9579 25.8147 47.9509L50.958 47.3695L49.2575 7H9Z" fill="#21262A"/>
<path d="M28.1333 32.9999V24.5039H26.1413L26.1893 30.0479H26.1533L22.7453 24.5039H20.4053V32.9999H22.3973L22.3493 27.4439H22.3853L25.8053 32.9999H28.1333Z" fill="#21262A"/>
<path d="M39.5937 32.9999V24.5039H36.6297L34.7817 29.9519H34.7337L32.8017 24.5039H29.8857V32.9999H31.8177L31.7697 26.9879H31.8057L33.9537 32.9999H35.3937L37.6017 26.9879H37.6377L37.5897 32.9999H39.5937Z" fill="#21262A"/>
</svg>
