<svg width="60" height="60" viewBox="0 0 60 60" fill="none" xmlns="http://www.w3.org/2000/svg">
<path d="M16 25.7652C15.2948 25.06 11.9479 25.857 9.79458 26.5125C9.33224 26.6532 9.0489 27.1126 9.12716 27.5895C9.336 28.8622 9.67875 30.6227 10 31.2652C10.3731 32.0114 6.71585 34.5552 4.46382 35.9761C4.17615 36.1576 4 36.4724 4 36.8126C4 37.3429 4.41847 37.7769 4.94863 37.7916C11.1867 37.9646 22.1201 38.2652 22.5 38.2652C23 38.2652 34.5 36.7652 34.5 39.7652C34.5 42.0852 36.3688 43.3461 37.3967 43.7287C37.4651 43.7542 37.5316 43.7842 37.5941 43.8217L41.4017 46.1063C41.9596 46.441 42.0624 47.232 41.7841 47.82C41.4732 48.4768 41.268 49.3374 41.5 50.2652C42 52.2652 46.5 50.2652 48 50.2652C49.5 50.2652 53 47.2652 54.5 46.7652C56 46.2652 55 46.2652 54.5 45.2652C54 44.2652 52 47.2652 51 46.7652C50 46.2652 46 47.7652 44 48.2652C42.5715 48.6224 43.1624 47.4118 43.7799 46.5551C43.9175 46.3643 44.1271 46.2428 44.3545 46.1823C45.2059 45.9561 46.3482 45.4617 46 44.7652C45.6 43.9652 46.1667 36.0986 46.5 32.2652V25.0909C46.5 24.4266 45.8629 23.9704 45.1998 24.0122C44.4217 24.0613 43.95 23.8152 45 22.7652C46.5121 21.2531 45.452 14.8827 45.0608 12.0803C44.9665 11.4043 44.3193 10.941 43.6398 11.0061C41.6408 11.1975 38.0384 11.2589 35.8417 11.2647C35.6193 11.2653 35.4052 11.3388 35.2299 11.4757C32.4784 13.6262 27.6612 17.5431 26.6782 18.8998C26.5225 19.1146 26.6124 19.3659 26.7707 19.5786C28.3496 21.7006 26.8767 25.8145 24.5 26.7652C22 27.7652 17 26.7652 16 25.7652Z" fill="#21262A"/>
<path d="M23.3501 50.9999V42.5039H21.3581L21.4061 48.0479H21.3701L17.9621 42.5039H15.6221V50.9999H17.6141L17.5661 45.4439H17.6021L21.0221 50.9999H23.3501Z" fill="#21262A"/>
<path d="M32.4945 42.5039H30.0945L28.2825 45.6479L26.4705 42.5039H23.9865L27.1785 47.3999V50.9999H29.2305V47.3999L32.4945 42.5039Z" fill="#21262A"/>
<path fill-rule="evenodd" clip-rule="evenodd" d="M45.3458 9.07158C45.5327 9.14535 45.6532 9.25626 45.7071 9.31014C45.9344 9.53744 46.0386 9.86014 45.9871 10.1774C45.9778 10.2348 45.9636 10.2908 45.9448 10.3448C45.9641 10.5514 46.0038 10.8569 46.0606 11.2609C46.0875 11.4525 46.1176 11.6619 46.1499 11.8862C46.2744 12.7513 46.4306 13.8374 46.5564 14.9693C46.7144 16.3912 46.8306 17.9361 46.7725 19.2716C46.7435 19.939 46.6698 20.5877 46.5216 21.1583C46.4422 21.4639 46.334 21.7769 46.181 22.0683C46.1959 22.0641 46.2107 22.06 46.2253 22.0558C46.527 21.9696 46.8517 22.03 47.1022 22.219C47.3527 22.4079 47.5 22.7035 47.5 23.0173V31.5173C47.5 31.5462 47.4987 31.5751 47.4962 31.6039C47.3302 33.5136 47.1062 36.4264 46.9736 38.9571C46.9073 40.2242 46.8645 41.3829 46.8625 42.268C46.8615 42.7123 46.8708 43.0714 46.8902 43.3339C46.9 43.4658 46.9112 43.558 46.9214 43.6166C46.9225 43.6229 46.9235 43.6284 46.9244 43.6331C47.1576 44.151 47.0832 44.6788 46.8204 45.0974C46.5883 45.4671 46.2379 45.7139 45.9578 45.8735C45.9103 45.9006 45.8619 45.9268 45.8127 45.9522C46.3949 45.7762 47.0141 45.5906 47.6119 45.4275C48.3109 45.2369 49.0149 45.0675 49.6242 44.9805C49.9289 44.937 50.236 44.9101 50.5222 44.9181C50.7448 44.9243 51.0154 44.9527 51.2795 45.0504C51.3088 45.0368 51.3472 45.017 51.3958 44.9887C51.6475 44.8424 51.9385 44.6051 52.3043 44.3058L52.3367 44.2793C52.6441 44.0276 53.0572 43.6894 53.4459 43.5006C53.6456 43.4036 53.9874 43.269 54.3859 43.3248C54.8734 43.3932 55.2126 43.7064 55.3944 44.0701C55.4587 44.1987 55.5433 44.3052 55.6478 44.4155C55.6867 44.4565 55.7154 44.4852 55.7498 44.5195C55.7722 44.5418 55.7969 44.5665 55.8284 44.5985C55.8836 44.6547 55.9924 44.7656 56.0821 44.9001C56.1709 45.0334 56.3365 45.3298 56.2814 45.7248C56.2252 46.128 55.9765 46.3767 55.8209 46.4989C55.5524 46.7099 55.163 46.8504 54.8162 46.966C54.568 47.0487 54.1602 47.2683 53.5925 47.6231C53.2356 47.8462 52.8612 48.0928 52.4669 48.3526C52.2492 48.4961 52.0253 48.6435 51.795 48.7932C51.167 49.2015 50.5057 49.6161 49.8946 49.9302C49.3255 50.2226 48.6367 50.5173 48 50.5173C47.7702 50.5173 47.3355 50.605 46.6588 50.7701C46.5507 50.7964 46.4381 50.8243 46.3221 50.853C45.7756 50.9882 45.1524 51.1423 44.5539 51.2512C43.8449 51.3801 43.0392 51.4726 42.3367 51.3449C41.9739 51.2789 41.583 51.1449 41.2431 50.8775C40.8879 50.5981 40.6439 50.2161 40.5299 49.7598C40.1881 48.3929 40.5705 47.1703 41.0518 46.3146L37.0729 43.9272C36.4437 43.6973 35.6066 43.2254 34.8998 42.4808C34.1344 41.6746 33.5 40.5215 33.5 39.0173C33.5 38.998 33.4973 38.9931 33.4942 38.9875L33.4939 38.9869C33.4877 38.9755 33.4632 38.9373 33.3898 38.8799C33.2292 38.7547 32.9284 38.6107 32.4446 38.4854C31.4854 38.2369 30.1358 38.1423 28.6875 38.1423C27.2572 38.1423 25.8029 38.2338 24.6673 38.3265C24.1008 38.3727 23.6166 38.419 23.2558 38.454C23.214 38.4581 23.1721 38.4622 23.1306 38.4663C22.8625 38.4925 22.6097 38.5173 22.5 38.5173C22.0815 38.5173 9.95516 38.1831 3.97223 38.0169C3.43097 38.0019 3 37.5588 3 37.0173V35.5173C3 35.17 3.18016 34.8476 3.4759 34.6656C4.54272 34.0091 6.11115 32.9792 7.35304 32.0245C7.9798 31.5427 8.48687 31.1077 8.80416 30.767C8.86529 30.7014 8.91339 30.6455 8.95073 30.5992C8.74742 30.0473 8.57193 29.288 8.43264 28.6045C8.24872 27.7019 8.09552 26.757 8.01005 26.1587C7.9417 25.6802 8.22529 25.2214 8.68377 25.0686C9.71053 24.7263 11.3056 24.2625 12.7629 23.9849C13.4873 23.8469 14.2173 23.7471 14.8422 23.7423C15.1542 23.7399 15.4752 23.7605 15.7726 23.8279C16.0571 23.8924 16.4184 24.0214 16.7071 24.3102C16.7818 24.3849 17.088 24.5759 17.7181 24.7885C18.3012 24.9852 19.0389 25.1603 19.834 25.2781C21.4708 25.5205 23.1296 25.4884 24.1286 25.0888C24.9957 24.7419 25.8417 23.6851 26.2275 22.3623C26.615 21.0335 26.4252 19.8567 25.7929 19.2244C25.6054 19.0368 25.5 18.7825 25.5 18.5172C25.5 18.2018 25.6306 17.9492 25.6946 17.8344C25.776 17.6883 25.8782 17.5466 25.9803 17.418C26.1862 17.1584 26.4644 16.8615 26.7797 16.5483C27.415 15.9173 28.2805 15.1425 29.2239 14.3332C31.1152 12.711 33.3786 10.9003 34.8861 9.7279C35.0616 9.59137 35.2776 9.51725 35.5 9.51725C36.9084 9.51725 39.0696 9.49235 40.9735 9.41801C41.9269 9.38078 42.8034 9.33161 43.4841 9.26841C43.8255 9.2367 44.1038 9.20271 44.3116 9.16758C44.3693 9.1578 44.416 9.14882 44.4528 9.14111C44.4667 9.13295 44.481 9.12498 44.4957 9.11723C44.8093 8.95205 45.1267 8.98517 45.3458 9.07158ZM44.0363 11.2225C43.9184 11.2357 43.7956 11.2481 43.669 11.2598C42.9362 11.3279 42.0189 11.3787 41.0515 11.4165C39.2638 11.4863 37.2625 11.5131 35.8444 11.5168C34.3608 12.6763 32.276 14.3502 30.5261 15.8513C29.5945 16.6504 28.7725 17.388 28.1891 17.9674C28.0021 18.1531 27.8475 18.3148 27.7252 18.4514C28.5807 19.7751 28.5637 21.4952 28.1475 22.9223C27.6583 24.5994 26.5043 26.2926 24.8714 26.9457C23.3704 27.5461 21.2792 27.514 19.541 27.2565C18.6486 27.1243 17.7926 26.9243 17.0788 26.6835C16.4439 26.4694 15.7846 26.1791 15.3558 25.7847C15.3487 25.7828 15.3403 25.7807 15.3305 25.7785C15.2373 25.7573 15.0833 25.7405 14.8578 25.7422C14.4077 25.7457 13.8127 25.8209 13.1371 25.9496C12.1241 26.1425 11.0188 26.4382 10.1191 26.7111C10.1952 27.1727 10.2889 27.6976 10.3924 28.2051C10.5772 29.112 10.7641 29.8095 10.8944 30.0701C11.1671 30.6155 10.9549 31.1336 10.8336 31.3675C10.6907 31.643 10.4791 31.9031 10.2677 32.1301C9.83604 32.5936 9.22437 33.1086 8.57196 33.6101C7.44936 34.4731 6.09762 35.3783 5.04185 36.0458C7.98927 36.1276 11.9623 36.2372 15.3772 36.3302C17.2896 36.3823 19.0268 36.4291 20.3107 36.463C20.9528 36.4799 21.481 36.4935 21.8611 36.503C22.0512 36.5077 22.2036 36.5113 22.3144 36.5138L22.447 36.5165L22.4863 36.5171C22.4949 36.5173 22.499 36.5173 22.4999 36.5173L22.5 36.5173C22.4995 36.5173 22.5104 36.5163 22.5346 36.514C22.5997 36.5079 22.7616 36.4926 23.0626 36.4634C23.4264 36.4281 23.9226 36.3806 24.5046 36.3331C25.6658 36.2383 27.1803 36.1423 28.6875 36.1423C30.1767 36.1423 31.7334 36.2352 32.946 36.5492C33.5482 36.7052 34.1497 36.9362 34.62 37.3031C35.1201 37.6932 35.5 38.2672 35.5 39.0173C35.5 39.9131 35.8656 40.5933 36.3502 41.1038C36.851 41.6313 37.4555 41.9484 37.8162 42.0686C37.8854 42.0917 37.9519 42.1223 38.0145 42.1598L43.0143 45.1597C43.0838 45.0652 43.1528 44.9755 43.2191 44.8926C43.3661 44.7089 43.5732 44.5829 43.8039 44.5367C44.1685 44.4638 44.652 44.3158 44.9672 44.1361C44.9734 44.1325 44.9794 44.1291 44.9851 44.1257C44.9698 44.0626 44.9589 44.0051 44.9507 43.9577C44.9254 43.8114 44.9081 43.6488 44.8957 43.4815C44.8708 43.1457 44.8614 42.7291 44.8625 42.2634C44.8646 41.3287 44.9094 40.1313 44.9764 38.8525C45.1095 36.3106 45.3331 33.3982 45.5 31.474V24.2413C45.1899 24.2764 44.8294 24.2898 44.5036 24.2202C44.3054 24.1779 44.0014 24.0808 43.7506 23.8256C43.4558 23.5256 43.3556 23.1329 43.4038 22.7655C43.4453 22.4487 43.5902 22.1786 43.7283 21.9739C43.8744 21.7574 44.0664 21.5366 44.2929 21.3101C44.3624 21.2406 44.4821 21.0549 44.5858 20.6555C44.6857 20.2711 44.7487 19.7751 44.7744 19.1847C44.8257 18.0046 44.7231 16.5808 44.5686 15.1902C44.4468 14.094 44.2967 13.0501 44.1725 12.1865C44.1395 11.9572 44.1083 11.7407 44.08 11.5392C44.0648 11.4304 44.0501 11.3246 44.0363 11.2225ZM42.4658 48.1416C42.5059 48.1842 42.5502 48.2257 42.5992 48.2657C42.8813 48.4958 43.2052 48.5665 43.4644 48.5792C43.7234 48.5919 43.9883 48.551 44.2425 48.4874C44.7707 48.3554 45.4204 48.1602 46.0863 47.9589L46.209 47.9218C46.8474 47.7287 47.5072 47.5291 48.1381 47.3571C48.8141 47.1727 49.4226 47.0296 49.907 46.9604C50.1493 46.9258 50.3343 46.9136 50.4661 46.9173C50.533 46.9192 50.5702 46.9248 50.585 46.9274C50.6729 46.9689 50.7605 47.0005 50.8473 47.0236C50.7996 47.0548 50.7522 47.0857 50.705 47.1164C50.083 47.5206 49.4943 47.8872 48.9804 48.1513C48.4245 48.437 48.1133 48.5173 48 48.5173C47.4798 48.5173 46.7895 48.6796 46.1849 48.827C46.0636 48.8566 45.9418 48.8867 45.8199 48.9168C45.275 49.0515 44.7268 49.1869 44.1961 49.2834C43.5301 49.4045 43.0233 49.437 42.6945 49.3772C42.547 49.3504 42.4912 49.3142 42.4805 49.3063C42.4784 49.3018 42.4744 49.292 42.4701 49.2748C42.3714 48.8798 42.3875 48.4931 42.4658 48.1416ZM54.337 45.2921C54.3419 45.2904 54.3445 45.2892 54.3446 45.289C54.3447 45.2888 54.3423 45.2895 54.3372 45.2917C54.3371 45.2918 54.3371 45.292 54.337 45.2921ZM15.3887 25.7954C15.3887 25.7954 15.3873 25.7949 15.3847 25.7937C15.3875 25.7947 15.3888 25.7953 15.3887 25.7954ZM27.4416 18.808C27.4423 18.8068 27.4432 18.8053 27.4442 18.8036C27.4365 18.8202 27.4336 18.8224 27.4416 18.808ZM9.06519 30.4315C9.06554 30.4314 9.06374 30.436 9.05869 30.4458C9.06231 30.4366 9.06483 30.4317 9.06519 30.4315ZM51.2043 45.0788C51.2045 45.0784 51.2092 45.0769 51.2179 45.0755C51.2085 45.0785 51.2041 45.0792 51.2043 45.0788ZM44.1137 47.2498C44.1136 47.2499 44.1138 47.2484 44.1145 47.2453C44.1141 47.2482 44.1138 47.2497 44.1137 47.2498ZM46.9301 43.6593C46.9301 43.6592 46.9296 43.6577 46.9289 43.6547C46.9298 43.6578 46.9302 43.6594 46.9301 43.6593ZM45.3567 23.1412C45.3567 23.1411 45.3573 23.1398 45.3586 23.1373C45.3574 23.1399 45.3568 23.1412 45.3567 23.1412Z" fill="#21262A"/>
</svg>
