<svg width="24" height="24" viewBox="0 0 24 24" fill="none" xmlns="http://www.w3.org/2000/svg">
    <path fill-rule="evenodd" clip-rule="evenodd" d="M13.8255 1.25935C13.6587 1.15666 13.4419 1.18997 13.3136 1.33804L10.7136 4.33804C10.6077 4.46026 10.5858 4.63424 10.6581 4.7789C10.7222 4.90699 10.8184 5.10914 10.8976 5.29607C10.9195 5.34776 10.9394 5.39664 10.9566 5.44129C10.9293 5.46961 10.9046 5.4982 10.8822 5.52583C10.7843 5.64697 10.6987 5.79271 10.6252 5.94323C10.4778 6.24514 10.3563 6.61261 10.2761 6.96007C10.1974 7.30123 10.1496 7.66085 10.1736 7.94042C10.1847 8.06966 10.2157 8.25067 10.3265 8.39619C10.3889 8.4781 10.4815 8.55471 10.6075 8.59063C10.6805 8.61148 10.7513 8.61476 10.8164 8.60748C10.8349 8.66868 10.8534 8.75781 10.8694 8.87788C10.8808 8.96339 10.8896 9.052 10.8982 9.14223L10.9008 9.16967C10.9082 9.24848 10.9161 9.33087 10.9254 9.40379C10.935 9.4795 10.9498 9.5763 10.9789 9.66121C10.9929 9.70229 11.0204 9.77163 11.0748 9.83728C11.1354 9.91048 11.25 10 11.4159 10C11.4486 10 11.4812 9.996 11.5129 9.98807C11.6274 9.95945 11.6636 9.98171 11.6781 9.99068C11.7133 10.0123 11.7662 10.0659 11.8454 10.2016C11.8831 10.2662 11.9208 10.3385 11.9644 10.4235L11.9775 10.4489C12.0164 10.5247 12.0597 10.6091 12.1066 10.6937C12.2111 10.8827 12.3448 11.0947 12.5331 11.2829C12.5486 11.2984 12.5655 11.3127 12.5834 11.3255C12.8013 11.4812 12.859 11.5763 12.8741 11.6098C12.8604 11.6277 12.8219 11.669 12.7198 11.7264C12.5647 11.8136 12.3539 11.8845 12.1564 11.9338C11.9679 11.981 11.8396 11.997 11.8188 11.9996C11.8167 11.9999 11.8157 12 11.8159 12C11.684 12 11.574 12.0565 11.5247 12.0832C11.4594 12.1187 11.394 12.1637 11.3337 12.2093C11.212 12.3015 11.0793 12.4209 10.9581 12.5422C10.8368 12.6635 10.7174 12.7961 10.6252 12.9178C10.5795 12.9781 10.5346 13.0435 10.4991 13.1088C10.4724 13.1581 10.4159 13.2682 10.4159 13.4C10.4159 13.5155 10.4445 13.6156 10.4726 13.6905C10.4834 13.7193 10.4954 13.7475 10.5074 13.7739C10.3405 13.7928 10.1508 13.8 10.0159 13.8C9.94629 13.8 9.87789 13.8182 9.81745 13.8527C9.32307 14.1352 8.61892 14.6448 8.11479 15.2686C7.62029 15.8805 7.23024 16.7231 7.65813 17.5789C8.12053 18.5037 9.12574 19.1523 9.96639 19.5599C10.3973 19.7688 10.8078 19.9252 11.125 20.0299C11.2836 20.0822 11.4212 20.1223 11.5284 20.1499C11.5818 20.1636 11.6303 20.1749 11.6717 20.1831C11.6856 20.1858 11.705 20.1896 11.7273 20.1928C11.7526 20.2137 11.7874 20.2472 11.8296 20.2937C11.875 20.3438 11.9208 20.3999 11.9627 20.4545C11.8752 20.6844 11.7829 20.9684 11.7288 21.2358C11.6933 21.4117 11.6684 21.6081 11.6859 21.7872C11.7021 21.9515 11.7686 22.2236 12.037 22.3578C12.4424 22.5605 12.7968 22.307 12.9619 22.1495C13.1497 21.9705 13.2945 21.7373 13.3737 21.5789L14.3286 19.669C14.6647 19.4306 15.1289 19.0841 15.5239 18.7507C15.7371 18.5707 15.9394 18.3869 16.0916 18.2214C16.1672 18.1392 16.2391 18.0521 16.2946 17.9651C16.3409 17.8924 16.4148 17.7614 16.4159 17.6035C16.4175 17.5982 16.429 17.5676 16.4933 17.5153C16.573 17.4505 16.6775 17.4011 16.7424 17.3795C16.849 17.3439 16.9358 17.2652 16.9814 17.1625L17.7649 15.3997C17.7996 15.3456 17.8198 15.2945 17.8292 15.2707L17.8298 15.2693C17.8519 15.2133 17.8727 15.1484 17.8921 15.081C17.9312 14.9451 17.9732 14.7695 18.0161 14.5726C18.1022 14.1772 18.1971 13.671 18.2849 13.169C18.3729 12.6661 18.4546 12.1633 18.5144 11.7731C18.5443 11.5781 18.5689 11.4101 18.5861 11.2836C18.6008 11.1751 18.6159 11.0593 18.6159 11V9.40001C18.6159 9.27684 18.5591 9.16053 18.4621 9.08473C18.365 9.00893 18.2384 8.98208 18.1189 9.01196C18.0259 9.03519 17.8383 9.06131 17.6244 9.04603C17.4245 9.03175 17.2292 8.98336 17.071 8.88825C16.9597 8.76669 16.943 8.67677 16.944 8.61918C16.9452 8.54383 16.9792 8.449 17.0609 8.34001C17.1416 8.23238 17.2506 8.13633 17.3509 8.06783C17.4004 8.03401 17.4415 8.01123 17.4686 7.99864L17.4745 7.99593C17.5449 7.98609 17.5985 7.96051 17.6298 7.94279C17.672 7.9189 17.7041 7.89198 17.7251 7.87257C17.7669 7.83395 17.8015 7.79061 17.8273 7.75569C17.8807 7.68334 17.9376 7.59028 17.9938 7.49107C18.1082 7.2894 18.2454 7.01709 18.3865 6.72311C18.6698 6.13283 18.9823 5.42721 19.1835 4.95758C19.2617 4.7753 19.1944 4.56329 19.0255 4.45935L13.8255 1.25935ZM17.4887 7.99034C17.4901 7.98989 17.4907 7.9896 17.4908 7.98953C17.4908 7.98942 17.489 7.98996 17.485 7.9915C17.4866 7.99105 17.4878 7.99066 17.4887 7.99034ZM17.8159 9.88201V9.84986C17.8038 9.85014 17.7917 9.85034 17.7794 9.85046C17.7921 9.86045 17.8043 9.87097 17.8159 9.88201Z" fill="#21262A"/>
</svg>
