<svg width="24" height="24" viewBox="0 0 24 24" fill="none" xmlns="http://www.w3.org/2000/svg">
    <path d="M15.2006 1.26718C15.0977 1.19861 14.9689 1.18145 14.8517 1.22069C14.7345 1.25994 14.642 1.35118 14.6011 1.46786L13.2011 5.46786C13.1775 5.53547 13.1724 5.6082 13.1864 5.67845C13.2796 6.14428 13.3327 6.85652 13.2024 7.47216C13.0715 8.09026 12.7881 8.49925 12.2919 8.60952C11.2727 8.83602 10.7811 9.38067 10.6393 9.98338C10.573 10.2652 10.5902 10.534 10.6386 10.7477C10.6629 10.8551 10.6963 10.954 10.7351 11.0391C10.7477 11.0667 10.7624 11.0962 10.7794 11.1261C10.758 11.202 10.7193 11.3107 10.6616 11.4515C10.5336 11.7642 10.3333 12.1838 10.0979 12.6423C9.62674 13.5597 9.03444 14.5953 8.64586 15.1781C8.39596 15.553 8.28423 15.9998 8.24007 16.438C8.19571 16.8782 8.21691 17.3386 8.25532 17.7612C8.27799 18.0106 8.30949 18.2706 8.33767 18.5032C8.35544 18.6499 8.3719 18.7857 8.38398 18.9011C8.40078 19.0614 8.41091 19.1941 8.4119 19.3002C8.41218 19.3296 8.41173 19.3555 8.4107 19.3781C7.84025 19.8455 7.66143 20.4213 7.71032 20.9611C7.75986 21.5082 8.03788 21.9837 8.27498 22.2603C8.34831 22.3459 8.45431 22.3965 8.56693 22.3998L15.3669 22.5998C15.4417 22.602 15.516 22.583 15.5806 22.5453L15.6068 22.53L15.6829 22.4859C15.7485 22.4478 15.8427 22.3933 15.9563 22.328C16.1836 22.1972 16.4884 22.023 16.7991 21.849C17.1105 21.6746 17.4248 21.5021 17.6722 21.3738C17.7965 21.3094 17.8992 21.2586 17.9742 21.2247C18.0055 21.2106 18.0281 21.2011 18.0431 21.1954C18.2081 21.1715 18.3105 21.0616 18.3413 21.0276C18.3944 20.969 18.4371 20.9011 18.4698 20.843C18.5371 20.7234 18.6027 20.5713 18.6615 20.4199C18.7809 20.1128 18.8947 19.7501 18.9633 19.5099C18.9977 19.3896 18.9738 19.2601 18.8987 19.16C18.8075 19.0384 18.6682 18.8341 18.554 18.6268C18.4968 18.5233 18.4499 18.426 18.4181 18.3426C18.4024 18.3013 18.3919 18.2672 18.3855 18.2405C18.3824 18.2273 18.3806 18.2172 18.3797 18.2099C18.3787 18.2026 18.3787 18.2 18.3787 18.2C18.3787 18.0559 18.3269 17.9315 18.2796 17.8438C18.2299 17.7515 18.1657 17.6646 18.1016 17.5877C17.9735 17.434 17.8125 17.2811 17.6728 17.154C17.6108 17.0977 17.5556 17.0486 17.5065 17.005C17.6637 16.7369 17.7038 16.4142 17.7086 16.1626C17.7158 15.7828 17.6459 15.3949 17.5754 15.1337C17.4412 12.9302 17.1927 9.71086 16.9774 7.05764C16.869 5.72206 16.7689 4.52893 16.696 3.67951C16.6595 3.25488 16.6297 2.91576 16.6091 2.68754C16.5988 2.57367 16.5906 2.4864 16.585 2.42968C16.5823 2.40216 16.5798 2.3783 16.5779 2.36211C16.5775 2.35869 16.5751 2.33817 16.5709 2.3178C16.5709 2.3178 16.565 2.28604 16.5504 2.24954C16.5371 2.2197 16.4654 2.11863 16.3944 2.06079L16.3884 2.05905L15.2006 1.26718Z" fill="#21262A"/>
</svg>
