<svg width="24" height="24" viewBox="0 0 24 24" fill="none" xmlns="http://www.w3.org/2000/svg">
    <path d="M3.2695 6.00935L3.0575 6.00038C2.83884 5.99088 2.65314 6.15888 2.64077 6.3774L2.00065 17.6862C1.98822 17.9059 2.15549 18.0943 2.37506 18.1081C5.80647 18.3225 10.5784 18.3115 14.507 18.2261C14.7798 18.2202 15.0485 18.2139 15.3126 18.2073C19.0293 18.1199 21.8995 17.9686 21.9817 17.8864C22.0291 17.839 22.0343 17.7284 22.0092 17.5803C22.0376 17.4987 22.0439 17.4225 22.0455 17.3734C22.0491 17.2666 22.0335 17.1543 22.012 17.0508C21.9684 16.8407 21.8853 16.5954 21.7868 16.3563C21.6874 16.1148 21.5665 15.8657 21.4405 15.6461C21.3181 15.4327 21.1773 15.2231 21.033 15.0789L21.0284 15.0742C21.0435 15.0196 21.0605 14.9649 21.0775 14.9105L21.0775 14.9104C21.1388 14.7141 21.199 14.5212 21.1614 14.3532C21.1659 14.3333 21.17 14.3135 21.1736 14.294C21.2038 14.1296 21.2173 13.908 21.108 13.6892C21.0791 13.6316 21.0342 13.4891 20.9841 13.2618C20.9367 13.047 20.8916 12.7899 20.8524 12.5285C20.7726 11.997 20.7234 11.4889 20.7234 11.3076C20.7234 11.1548 20.6791 10.9903 20.6324 10.8521C20.5826 10.705 20.5162 10.5479 20.446 10.3972C20.3277 10.1434 20.1906 9.89022 20.0833 9.70495V7.46688C20.0833 7.20709 19.9815 6.92878 19.888 6.72115C19.789 6.50143 19.6712 6.30087 19.5894 6.17813C19.5118 6.06177 19.3789 5.99438 19.2392 6.00038L19.0159 6.0097C18.8712 6.01563 18.6607 6.02411 18.398 6.03428C17.8725 6.05461 17.1379 6.08167 16.302 6.10859C14.6288 6.16247 12.5539 6.21562 10.9355 6.21338C9.40008 6.21125 7.43164 6.1581 5.84425 6.10531C5.05116 6.07894 4.35429 6.0527 3.85573 6.03306C3.60646 6.02323 3.4068 6.01506 3.2695 6.00935Z" fill="#21262A"/>
</svg>
