<svg width="60" height="60" viewBox="0 0 60 60" fill="none" xmlns="http://www.w3.org/2000/svg">
<path d="M54.1122 18.0456C48.0043 18.5218 34.1821 19.1173 22.0838 18.1235C21.3965 18.0671 20.7225 18.7612 20.3124 19.3157C19.2041 20.8141 16.1778 22.111 16.1778 22.5C16.1778 23 14.6778 21.5 14.1778 22C12.6778 23.5 8.67778 25 7.67778 25C6.71267 25 3.41894 28.7258 4.08926 29.4352C4.13937 29.4882 4.20989 29.5088 4.28134 29.5236C6.42417 29.9671 13.7191 28.9917 16.1778 28.5C18.6778 28 22.6778 29 23.6778 29C24.3111 29 24.9862 29.8356 25.4054 30.5146C25.5874 30.8093 25.8874 31.0187 26.2321 31.0523C28.2152 31.2458 31.5878 31.6367 32.6778 32C34.1778 32.5 37.1778 36.5 38.6778 38C40.0572 39.3794 40.1681 39.0675 41.7324 38.6195C42.0131 38.5392 42.2529 38.3461 42.3901 38.0884C45.3418 32.5459 48.7365 33.4765 51.1778 32.5C53.3972 31.6123 50.4939 29.9364 50.5138 28.1721C50.5185 27.7531 50.9569 27.5386 51.3757 27.5472C55.1793 27.6251 55.2051 24.4454 55.6778 23.5C56.1778 22.5 50.6778 23 50.1778 22C49.6778 21 54.1778 21.5 55.6778 21.5C56.7325 21.5 55.8045 19.6976 54.9985 18.4689C54.8052 18.1742 54.4636 18.0182 54.1122 18.0456Z" fill="#21262A"/>
<path d="M18.686 42.9999V34.5039H16.694L16.742 40.0479H16.706L13.298 34.5039H10.958V42.9999H12.95L12.902 37.4439H12.938L16.358 42.9999H18.686Z" fill="#21262A"/>
<path d="M27.9145 41.8239L26.4865 40.4799C26.1265 40.9839 25.4905 41.3439 24.6865 41.3439C23.2705 41.3439 22.2745 40.2879 22.2745 38.7399C22.2745 37.2399 23.2945 36.1359 24.7225 36.1359C25.3705 36.1359 26.0545 36.3879 26.4385 36.9159L27.8305 35.5239C27.1225 34.7079 25.8385 34.2759 24.6505 34.2759C22.0585 34.2759 20.0425 36.0159 20.0425 38.7399C20.0425 41.4039 21.9985 43.2279 24.6145 43.2279C26.0425 43.2279 27.1705 42.6879 27.9145 41.8239Z" fill="#21262A"/>
<path fill-rule="evenodd" clip-rule="evenodd" d="M54.5947 17.0035C54.946 16.9742 55.2867 17.132 55.4915 17.4188C55.9258 18.0268 56.5278 18.9758 56.8669 19.8116C57.0225 20.195 57.1972 20.7268 57.1382 21.2329C57.1051 21.5178 56.9873 21.8753 56.6704 22.1514C56.5317 22.2723 56.3812 22.3545 56.2301 22.4085C56.2319 22.41 56.2337 22.4114 56.2355 22.4129C56.3977 22.5444 56.5926 22.7625 56.6738 23.0857C56.7579 23.4206 56.684 23.7237 56.5722 23.9472C56.5526 23.9865 56.5186 24.0758 56.4624 24.2646C56.4469 24.3169 56.4254 24.3919 56.4012 24.4765C56.3618 24.6139 56.3152 24.7768 56.2749 24.909C56.1249 25.4005 55.9035 26.0266 55.5098 26.6172C55.1066 27.222 54.5257 27.7852 53.6797 28.1463C53.0831 28.4009 52.3907 28.5398 51.589 28.5482C51.5964 28.5683 51.6044 28.5891 51.613 28.6104C51.7382 28.9208 51.9345 29.2228 52.1803 29.6008C52.2288 29.6755 52.2793 29.753 52.3315 29.8343C52.475 30.0576 52.6346 30.3152 52.7593 30.5799C52.8817 30.8399 53.0052 31.1775 53.0135 31.5564C53.0225 31.971 52.8915 32.3807 52.5933 32.7297C52.3179 33.0521 51.9452 33.2701 51.5492 33.4285C50.8667 33.7015 50.1314 33.8429 49.4717 33.9698C49.4236 33.9791 49.376 33.9883 49.3287 33.9974C48.6023 34.138 47.9207 34.2799 47.2367 34.5535C45.9354 35.074 44.4802 36.1313 43.0722 38.9472C42.9416 39.2083 42.7035 39.3993 42.4203 39.4702C42.0466 39.5636 41.756 39.6546 41.4879 39.7386C41.4216 39.7594 41.3567 39.7797 41.2922 39.7995C40.9991 39.8897 40.6294 40 40.2403 40C39.3353 40 38.6853 39.4218 37.9707 38.7071C37.4961 38.2325 36.8566 37.4946 36.1863 36.7211C35.7702 36.2409 35.3422 35.747 34.9345 35.294C34.379 34.6768 33.8428 34.1123 33.3645 33.6774C32.8539 33.2133 32.5196 33.0014 32.3615 32.9487C31.8709 32.7852 30.6825 32.5866 29.2857 32.4041C27.9307 32.227 26.4941 32.0783 25.5872 31.9959C25.2423 31.9645 24.9382 31.757 24.7833 31.4472C24.6435 31.1676 24.3864 30.7414 24.0946 30.402C23.9489 30.2326 23.8197 30.1145 23.7182 30.0454C23.6798 30.0193 23.654 30.006 23.6402 29.9997C23.2947 29.9944 22.7859 29.9178 22.2825 29.8398C22.1792 29.8238 22.0729 29.8071 21.9638 29.79C21.4772 29.7139 20.9354 29.629 20.3609 29.5541C18.9268 29.3671 17.4473 29.2659 16.3739 29.4806C15.0844 29.7385 12.5515 30.1176 10.0923 30.3698C8.86069 30.4961 7.6317 30.5923 6.57548 30.6245C5.55557 30.6557 4.58478 30.6325 3.93524 30.4702C3.86445 30.4525 3.79582 30.4271 3.73056 30.3944C3.16449 30.1114 2.99494 29.5674 3.00011 29.1507C3.00463 28.7869 3.12997 28.4392 3.25233 28.1709C3.50772 27.611 3.94476 26.9867 4.40584 26.4268C4.8745 25.8577 5.41616 25.2972 5.92304 24.8689C6.1752 24.6559 6.43882 24.4585 6.69594 24.3088C6.9172 24.1799 7.27493 24 7.67777 24C7.76419 24 8.07469 23.9494 8.61317 23.7855C9.11311 23.6334 9.71934 23.4121 10.3464 23.1434C11.6388 22.5895 12.8633 21.9003 13.4707 21.2929C14.007 20.7566 14.6936 20.8923 14.9853 20.9787C15.3203 21.078 15.6458 21.2585 15.8614 21.3818C15.8641 21.3833 15.8668 21.3848 15.8694 21.3863C16.0339 21.2656 16.2281 21.1403 16.4199 21.02C16.5582 20.9333 16.7023 20.8447 16.8507 20.7534C17.2307 20.5198 17.6391 20.2687 18.0506 19.9872C18.6237 19.5951 19.11 19.204 19.4184 18.8352C19.7397 18.4508 19.7169 18.2796 19.7076 18.2425C19.629 17.9278 19.7078 17.5945 19.9192 17.3484C20.1305 17.1024 20.4481 16.9741 20.7711 17.0044C33.4894 18.1967 48.6247 17.501 54.5947 17.0035ZM16.3236 21.6409C16.3235 21.6408 16.3233 21.6407 16.3231 21.6407L16.3236 21.6409ZM50.9142 21.3626C50.9145 21.3624 50.919 21.3648 50.9265 21.3701C50.9176 21.3653 50.9138 21.3627 50.9142 21.3626ZM50.7928 22.4892C50.7866 22.4922 50.7831 22.4935 50.7829 22.4934C50.7827 22.4933 50.7858 22.4918 50.7928 22.4892ZM21.5695 19.0839C21.4251 19.4833 21.1909 19.8332 20.9528 20.118C20.4643 20.7022 19.7943 21.2175 19.18 21.6378C18.7248 21.9492 18.2494 22.2415 17.8588 22.4817C17.7213 22.5662 17.5944 22.6442 17.4825 22.7144C17.2995 22.8292 17.1654 22.9173 17.0728 22.9841C17.0507 23.0314 17.024 23.0795 16.9919 23.1274C16.8084 23.4017 16.5381 23.5395 16.2953 23.5847C16.0848 23.6238 15.9077 23.5933 15.8115 23.5711C15.7058 23.5468 15.6143 23.5123 15.5475 23.4841C15.3663 23.4078 15.1354 23.2732 14.9703 23.1769C14.9327 23.155 14.8985 23.1351 14.8691 23.1183C14.7613 23.0566 14.672 23.0085 14.5987 22.9725C13.6889 23.7596 12.3334 24.4677 11.1342 24.9817C10.4487 25.2754 9.77369 25.5229 9.1955 25.6989C8.6973 25.8505 8.17793 25.9788 7.77567 25.9976C7.75858 26.0059 7.73439 26.0184 7.70257 26.037C7.58078 26.1079 7.41472 26.2269 7.21375 26.3967C6.81438 26.7341 6.35604 27.2048 5.9497 27.6982C5.6747 28.0321 5.44426 28.3514 5.27632 28.6251C5.61639 28.6393 6.03105 28.6402 6.51444 28.6255C7.50509 28.5952 8.68235 28.5039 9.88824 28.3802C12.304 28.1325 14.7711 27.7615 15.9817 27.5194C17.4083 27.2341 19.1787 27.383 20.6196 27.5709C21.222 27.6495 21.7943 27.7391 22.2816 27.8154C22.3882 27.8321 22.4908 27.8482 22.5887 27.8634C23.1761 27.9544 23.5232 28 23.6778 28C24.1531 28 24.5536 28.1947 24.8436 28.3921C25.14 28.5939 25.3983 28.8507 25.611 29.098C25.8768 29.4071 26.1106 29.7475 26.2957 30.0538C27.2002 30.1418 28.3987 30.2711 29.5449 30.4209C30.8897 30.5967 32.2846 30.8149 32.994 31.0513C33.586 31.2487 34.1892 31.7242 34.7098 32.1976C35.2627 32.7002 35.8515 33.3232 36.4211 33.956C36.9022 34.4907 37.3607 35.0206 37.7844 35.5105C38.4047 36.2275 38.9507 36.8587 39.3849 37.2929C39.7537 37.6617 39.9717 37.8464 40.1183 37.941C40.1837 37.9831 40.2168 37.9952 40.2255 37.998L40.226 37.9982C40.2304 37.9996 40.2317 38 40.2403 38C40.2886 38 40.3877 37.9853 40.704 37.888C40.7559 37.872 40.8122 37.8544 40.8727 37.8354C41.0449 37.7814 41.2515 37.7165 41.4915 37.6484C43.031 34.745 44.7492 33.3944 46.4939 32.6965C47.3723 32.3452 48.222 32.1745 48.9487 32.0339L49.0302 32.0181C49.7486 31.8792 50.3073 31.7712 50.8064 31.5715C50.8809 31.5417 50.9364 31.5149 50.9769 31.4928C50.9695 31.4749 50.9605 31.4546 50.9498 31.4319C50.885 31.2942 50.7868 31.13 50.6491 30.9158C50.6128 30.8593 50.573 30.7985 50.5308 30.734C50.2873 30.3621 49.9633 29.8673 49.7581 29.3584C49.5004 28.7192 49.3599 27.8997 49.7833 27.0528C49.9707 26.6781 50.3718 26.4599 50.7882 26.5061C51.7877 26.6172 52.45 26.4966 52.8946 26.3068C53.3298 26.1211 53.6239 25.8405 53.8457 25.5078C54.077 25.1609 54.2306 24.7557 54.3619 24.3254C54.404 24.1876 54.4336 24.0831 54.4642 23.9753C54.4726 23.9459 54.481 23.9162 54.4898 23.8855C54.1495 23.8337 53.7159 23.7917 53.2122 23.7459C53.1753 23.7425 53.138 23.7392 53.1004 23.7358C52.4586 23.6776 51.7338 23.612 51.1325 23.4982C50.8147 23.4381 50.4801 23.3557 50.1864 23.2306C49.9255 23.1195 49.5085 22.8976 49.2833 22.4472C49.1898 22.2601 49.1138 22.0077 49.1471 21.7161C49.1816 21.4147 49.3211 21.1738 49.4849 21.0018C49.7682 20.7043 50.146 20.5866 50.3727 20.5299C50.8783 20.4035 51.5501 20.375 52.1778 20.375C52.8307 20.375 53.5409 20.4075 54.1652 20.4388C54.2455 20.4428 54.3239 20.4467 54.4003 20.4506C54.6083 20.4611 54.8018 20.4709 54.9783 20.4789C54.7858 20.0306 54.4795 19.5033 54.1793 19.0434C47.9623 19.5275 33.8357 20.1335 21.5695 19.0839ZM14.3867 22.8888C14.3865 22.8885 14.3908 22.8892 14.4004 22.8916C14.3917 22.8903 14.3869 22.889 14.3867 22.8888Z" fill="#21262A"/>
</svg>
