<svg width="24" height="24" viewBox="0 0 24 24" fill="none" xmlns="http://www.w3.org/2000/svg">
    <path d="M22.1968 6.96751C22.1149 6.85279 21.9786 6.78968 21.8381 6.80139C19.4501 7.00039 13.396 7.27869 8.30864 6.80175C8.17945 6.78964 8.05241 6.84095 7.96787 6.93938C7.88332 7.03781 7.85178 7.17114 7.88325 7.29702C7.88695 7.31185 7.89608 7.38033 7.76755 7.53406C7.64418 7.68162 7.44968 7.83802 7.22043 7.99488C7.05586 8.10748 6.8925 8.20792 6.7405 8.30137C6.68112 8.33788 6.62347 8.37332 6.56816 8.40801C6.49144 8.45612 6.41374 8.50624 6.34797 8.55454L6.34476 8.55271C6.2585 8.50342 6.12832 8.43119 5.99432 8.39149C5.87763 8.35691 5.60298 8.30265 5.38846 8.51716C5.1455 8.76013 4.65571 9.03579 4.13874 9.25735C3.88793 9.36484 3.64544 9.45335 3.44546 9.51421C3.23007 9.57977 3.10587 9.60001 3.0713 9.60001C2.91017 9.60001 2.76708 9.67195 2.67857 9.72351C2.57572 9.78341 2.47028 9.86237 2.36941 9.94758C2.16666 10.1189 1.95 10.3431 1.76253 10.5707C1.5781 10.7947 1.40328 11.0444 1.30113 11.2684C1.25218 11.3757 1.20205 11.5148 1.20024 11.6603C1.19817 11.827 1.26599 12.0446 1.49242 12.1578C1.51852 12.1708 1.54598 12.181 1.57429 12.1881C1.83411 12.253 2.22242 12.2623 2.63039 12.2498C3.05288 12.2369 3.54447 12.1984 4.03712 12.1479C5.02081 12.047 6.03395 11.8954 6.54975 11.7922C6.97911 11.7064 7.57093 11.7468 8.14457 11.8216C8.37434 11.8516 8.59106 11.8855 8.78568 11.916L8.91319 11.9359C9.11456 11.9671 9.31809 11.9977 9.45627 11.9999C9.46179 12.0024 9.4721 12.0077 9.48749 12.0182C9.52807 12.0458 9.57975 12.0931 9.63803 12.1608C9.75477 12.2966 9.8576 12.467 9.91353 12.5789C9.97548 12.7028 10.0971 12.7858 10.2351 12.7984C10.5978 12.8313 11.1725 12.8908 11.7145 12.9616C12.2732 13.0347 12.7486 13.1141 12.9448 13.1795C13.008 13.2005 13.1417 13.2853 13.346 13.471C13.5373 13.6449 13.7518 13.8707 13.974 14.1176C14.1371 14.2988 14.3082 14.4963 14.4747 14.6884C14.7428 14.9978 14.9986 15.293 15.1885 15.4829C15.4743 15.7687 15.7343 16 16.0963 16C16.252 16 16.3998 15.9559 16.5171 15.9198L16.5954 15.8954C16.7026 15.8618 16.8188 15.8254 16.9683 15.7881C17.0816 15.7597 17.1769 15.6833 17.2291 15.5789C17.7923 14.4525 18.3744 14.0296 18.8949 13.8214C19.1685 13.7119 19.4411 13.6552 19.7317 13.599L19.7889 13.5879C20.0527 13.5372 20.3469 13.4806 20.6199 13.3714C20.7783 13.308 20.9273 13.2208 21.0375 13.0919C21.1568 12.9523 21.2092 12.7884 21.2056 12.6226C21.2023 12.471 21.1529 12.336 21.1039 12.2319C21.054 12.1261 20.9902 12.023 20.9328 11.9337C20.9119 11.9012 20.8917 11.8702 20.8723 11.8403C20.774 11.6891 20.6955 11.5683 20.6454 11.4442C20.642 11.4356 20.6388 11.4273 20.6358 11.4193C20.9565 11.4159 21.2334 11.3604 21.4721 11.2585C21.8105 11.1141 22.0428 10.8888 22.2041 10.6469C22.3616 10.4107 22.4502 10.1602 22.5101 9.9636C22.5263 9.91071 22.5449 9.84558 22.5607 9.79062C22.5703 9.75687 22.579 9.72668 22.5852 9.70584C22.6076 9.63031 22.6212 9.59461 22.6291 9.57889C22.6738 9.48947 22.7033 9.36825 22.6697 9.2343C22.6372 9.10501 22.5593 9.01778 22.4944 8.96516L22.4922 8.96341C22.5527 8.9418 22.6129 8.90893 22.6684 8.86058C22.7951 8.75014 22.8422 8.60713 22.8555 8.49316C22.8791 8.2907 22.8092 8.07802 22.747 7.92463C22.6113 7.59031 22.3705 7.21072 22.1968 6.96751Z" fill="#21262A"/>
</svg>
