<svg width="60" height="60" viewBox="0 0 60 60" fill="none" xmlns="http://www.w3.org/2000/svg">
<path d="M8.49 17.9628L7.00166 44.2569C6.97058 44.806 7.37997 45.2769 7.9291 45.3077C25.1599 46.2722 54.536 45.1347 54.9546 44.716C55.4881 44.1826 53.8878 40.4485 52.8209 39.3817C51.754 38.3148 53.3543 36.7145 52.8209 35.6476C52.2875 34.5808 51.754 30.3133 51.754 29.2464C51.754 28.4625 50.8539 26.7184 50.2939 25.7504C50.2031 25.5936 50.1537 25.417 50.1537 25.2357V22.8452V19.6446C50.1537 18.9901 49.7355 18.0848 49.3802 17.4576C49.2078 17.1534 48.8737 16.9865 48.5244 17.0009C45.9836 17.1051 35.3924 17.5207 28.2829 17.5108C21.8951 17.502 12.5452 17.1417 9.52515 17.0183C8.97844 16.996 8.52093 17.4165 8.49 17.9628Z" fill="#21262A"/>
<path fill-rule="evenodd" clip-rule="evenodd" d="M7.64376 15.001L7.60033 16C7.64376 15.001 7.64368 15.001 7.64376 15.001L8.17374 15.0234C8.51699 15.0377 9.01615 15.0581 9.63932 15.0826C10.8857 15.1318 12.6279 15.1974 14.6106 15.2633C18.5791 15.3952 23.5002 15.5281 27.3388 15.5335C31.3848 15.5391 36.5719 15.4062 40.7549 15.2715C42.8448 15.2042 44.6812 15.1365 45.995 15.0857C46.6519 15.0603 47.178 15.0391 47.5398 15.0242L48.098 15.001C48.098 15.001 48.0985 15.0009 48.1414 16L48.098 15.001C48.4472 14.986 48.7795 15.1544 48.9735 15.4453C49.178 15.7522 49.4725 16.2536 49.72 16.8029C49.9538 17.322 50.2083 18.0177 50.2083 18.6672V24.2624C50.4766 24.7256 50.8193 25.3584 51.1149 25.9931C51.2904 26.3697 51.4566 26.7626 51.5809 27.1304C51.6976 27.4758 51.8086 27.8869 51.8086 28.269C51.8086 28.7223 51.9316 29.9926 52.1309 31.3213C52.2289 31.9747 52.3418 32.6175 52.4602 33.1546C52.5855 33.7226 52.6978 34.0789 52.7699 34.223C53.0434 34.77 53.0096 35.324 52.9339 35.7349C52.8773 36.0423 52.7726 36.3769 52.6913 36.6366C52.6699 36.7051 52.6501 36.7684 52.6332 36.8246C52.4231 37.525 52.505 37.6197 52.5826 37.6972C52.9431 38.0578 53.2953 38.5819 53.6013 39.1152C53.9163 39.6642 54.2185 40.287 54.4671 40.8908C54.7132 41.4884 54.921 42.1017 55.03 42.6269C55.0837 42.8858 55.1228 43.1665 55.1139 43.4336C55.1064 43.6557 55.061 44.1011 54.7163 44.4458C54.6006 44.5615 54.4835 44.6224 54.4338 44.6467C54.3727 44.6767 54.3184 44.6963 54.2818 44.7084C54.2087 44.7327 54.1384 44.7489 54.0858 44.7598C53.9768 44.7825 53.8477 44.8017 53.7128 44.8188C53.4378 44.8536 53.0611 44.889 52.6017 44.9248C51.6788 44.9968 50.3739 45.074 48.7762 45.1509C45.5785 45.3048 41.1821 45.4584 36.2675 45.5652C26.4461 45.7787 14.5162 45.8063 5.93765 45.2701C5.38873 45.2358 4.97054 44.7647 5.00163 44.2156L6.60193 15.9435C6.63285 15.3972 7.0971 14.9772 7.64376 15.001ZM47.5931 17.0237C47.231 17.0386 46.7137 17.0594 46.0723 17.0842C44.7552 17.1352 42.9144 17.203 40.8193 17.2704C36.6321 17.4053 31.4172 17.5391 27.3361 17.5335C23.464 17.5281 18.5166 17.3943 14.5442 17.2622C12.5565 17.1961 10.8101 17.1303 9.56058 17.0811C9.17039 17.0657 8.82862 17.0519 8.54305 17.0403L7.0548 43.3327C15.4614 43.8025 26.7916 43.7708 36.2241 43.5657C41.1247 43.4592 45.5033 43.3061 48.6801 43.1532C50.2697 43.0767 51.552 43.0006 52.4462 42.9309C52.6706 42.9134 52.8675 42.8965 53.0368 42.8804C52.953 42.5419 52.8084 42.1153 52.6178 41.6523C52.3996 41.1224 52.135 40.5783 51.8666 40.1105C51.5891 39.627 51.3412 39.2842 51.1683 39.1114C50.179 38.122 50.5276 36.8831 50.7176 36.2499C50.7505 36.1401 50.7809 36.0427 50.8085 35.954C50.8808 35.7219 50.9343 35.5499 50.967 35.3726C51.008 35.1501 50.9743 35.1039 50.981 35.1175C50.7864 34.7281 50.6319 34.1509 50.5072 33.5854C50.3756 32.989 50.2551 32.2982 50.153 31.618C49.9523 30.2795 49.8086 28.8826 49.8086 28.269C49.8086 28.2244 49.7862 28.0666 49.6862 27.7707C49.5938 27.4973 49.4599 27.1767 49.302 26.8376C48.9864 26.1601 48.6038 25.4711 48.3508 25.0495C48.2575 24.8941 48.2083 24.7162 48.2083 24.535V18.6672C48.2083 18.4632 48.1071 18.0921 47.8964 17.6243C47.8003 17.4108 47.6941 17.2049 47.5931 17.0237ZM53.1132 43.3871C53.1128 43.3867 53.113 43.3798 53.1149 43.3676C53.1144 43.3813 53.1135 43.3874 53.1132 43.3871Z" fill="#21262A"/>
<path d="M28.1548 35.4013V26.9053H26.1628L26.2108 32.4493H26.1748L22.7668 26.9053H20.4268V35.4013H22.4188L22.3708 29.8453H22.4068L25.8268 35.4013H28.1548Z" fill="#21262A"/>
<path d="M37.8392 31.1293C37.8392 27.9133 35.3912 26.9053 32.9792 26.9053H29.9072V35.4013H33.0752C35.4152 35.4013 37.8392 34.1173 37.8392 31.1293ZM35.7032 31.1293C35.7032 33.0253 34.3472 33.6253 32.8832 33.6253H31.9112V28.6573H32.9312C34.3472 28.6573 35.7032 29.2213 35.7032 31.1293Z" fill="#21262A"/>
</svg>
