<svg width="60" height="60" viewBox="0 0 60 60" fill="none" xmlns="http://www.w3.org/2000/svg">
<path d="M22.0142 9.32697H8.79561C8.26072 9.32697 7.82063 9.74473 7.79723 10.2791C7.30929 21.4226 6.59935 41.8476 7.28207 43.2556C7.31081 43.3148 7.37393 43.3363 7.43735 43.354C12.8275 44.8628 11.8454 47.83 12.8394 48.327C13.8394 48.827 15.8394 49.827 17.3394 50.327C18.5437 50.7284 21.0374 51.4522 22.2324 51.7219C22.6019 51.8053 22.9479 51.6069 23.224 51.3476C24.2125 50.419 26.5662 49.4026 27.8394 49.827C29.3394 50.327 30.3394 54.827 31.3394 54.827C32.3394 54.827 34.8394 52.827 34.8394 49.827C34.8394 47.588 35.9534 46.463 37.1422 46.452C37.7903 46.4461 38.5504 46.2366 38.8316 45.6526C40.2307 42.7476 42.1609 41.8949 43.3406 41.813C43.6546 41.7912 43.9704 41.696 44.1929 41.4734L48.5465 37.1199C48.734 36.9323 48.8347 36.6789 48.863 36.4152C49.1434 33.8099 51.8133 29.1702 51.3394 26.327C51.1322 25.0839 51.2738 24.3237 51.5279 23.8797C51.8076 23.3909 52.3265 22.8621 52.3108 22.2992L51.8851 6.9731C51.8643 6.22314 51.0572 5.76189 50.4025 6.12818C47.2252 7.90569 42.6827 10.4836 42.3394 10.827C41.8394 11.327 37.8394 12.327 32.8394 12.827C29.019 13.209 24.5905 10.8848 22.6032 9.51366C22.4292 9.39364 22.2255 9.32697 22.0142 9.32697Z" fill="#21262A"/>
<path d="M27.92 29.7159C27.92 26.9919 25.952 25.2759 23.288 25.2759C20.636 25.2759 18.668 26.9919 18.668 29.7159C18.668 32.4039 20.636 34.2279 23.288 34.2279C25.952 34.2279 27.92 32.4039 27.92 29.7159ZM25.724 29.7159C25.724 31.2519 24.716 32.3559 23.288 32.3559C21.86 32.3559 20.864 31.2519 20.864 29.7159C20.864 28.2279 21.848 27.1239 23.288 27.1239C24.728 27.1239 25.724 28.2279 25.724 29.7159Z" fill="#21262A"/>
<path d="M36.687 33.9999V25.5039H34.635V28.7199H31.323V25.5039H29.271V33.9999H31.323V30.4479H34.635V33.9999H36.687Z" fill="#21262A"/>
<path fill-rule="evenodd" clip-rule="evenodd" d="M52.3345 4.13117C52.638 4.30415 52.8293 4.623 52.839 4.97223L53.339 22.9722C53.3465 23.2422 53.2445 23.5036 53.0562 23.6972C52.8895 23.8687 52.6676 23.9739 52.4314 23.9958C52.4203 24.0095 52.4047 24.0318 52.3863 24.0668C52.2917 24.246 52.1441 24.7456 52.3258 25.8356C52.482 26.7727 52.3574 27.7953 52.1349 28.776C51.9101 29.7668 51.5649 30.798 51.2193 31.7719C51.1187 32.0554 51.0188 32.3323 50.9211 32.6029C50.6756 33.2829 50.4446 33.923 50.254 34.5273C49.9842 35.3831 49.8394 36.0392 49.8394 36.5C49.8394 36.7652 49.734 37.0196 49.5465 37.2071L44.5465 42.2071C44.3239 42.4297 44.0096 42.5345 43.698 42.4899C43.1149 42.4067 40.7609 42.767 39.2792 46.8417C39.1743 47.1302 38.9427 47.3545 38.6511 47.4502C38.3595 47.5458 38.0401 47.5023 37.7847 47.3321C37.355 47.0456 36.9376 47.0741 36.6151 47.3087C36.267 47.5619 35.8394 48.2051 35.8394 49.5C35.8394 51.2861 35.0951 52.7591 34.2236 53.7758C33.7877 54.2844 33.3054 54.6966 32.8381 54.9886C32.4027 55.2607 31.8664 55.5 31.3394 55.5C30.8286 55.5 30.4634 55.2167 30.2618 55.0183C30.0472 54.807 29.8694 54.5457 29.7241 54.3036C29.4686 53.8778 29.2112 53.332 28.9702 52.8211C28.9375 52.7518 28.9052 52.6832 28.8731 52.6156C28.5891 52.016 28.3187 51.4654 28.0403 51.0376C27.9028 50.8263 27.7808 50.6727 27.6763 50.5695C27.5751 50.4694 27.5226 50.4487 27.5227 50.4485C27.5227 50.4485 27.5228 50.4486 27.5232 50.4487C27.3676 50.3968 27.0839 50.3745 26.665 50.4465C26.2613 50.5159 25.8084 50.6598 25.3652 50.8537C24.9226 51.0473 24.5186 51.2782 24.2098 51.5033C24.0558 51.6156 23.9364 51.7186 23.851 51.8058C23.8089 51.8489 23.779 51.8841 23.7588 51.9108C23.7382 51.938 23.7323 51.9503 23.7338 51.9472C23.5644 52.286 23.2182 52.5 22.8394 52.5C22.6686 52.5 22.4712 52.4649 22.3312 52.4379C22.1639 52.4055 21.964 52.3607 21.746 52.3082C21.3083 52.2028 20.7648 52.0588 20.1967 51.901C19.0623 51.5859 17.7948 51.2059 17.0232 50.9487C15.4554 50.4261 13.4088 49.4027 12.4173 48.907L12.3922 48.8944C12.044 48.7204 11.8246 48.4536 11.6824 48.2148C11.5485 47.99 11.4567 47.744 11.3889 47.5526C11.3635 47.4806 11.3392 47.4105 11.3155 47.3417C11.1994 47.0058 11.0941 46.7009 10.9053 46.3653C10.5003 45.6452 9.62488 44.6598 7.07627 43.9648C7.01274 43.9474 6.95107 43.9239 6.89217 43.8944C6.67425 43.7855 6.54592 43.6281 6.48174 43.5357C6.41295 43.4367 6.36897 43.341 6.34128 43.2722C6.28617 43.1352 6.25137 42.9919 6.22725 42.8719C6.17756 42.6244 6.1417 42.311 6.11384 41.9617C6.05741 41.2542 6.0247 40.2747 6.00978 39.1018C5.97986 36.7496 6.02083 33.5447 6.10215 30.0145C6.26488 22.9504 6.59021 14.5426 6.84039 8.95527C6.86431 8.42091 7.3045 8 7.83939 8H22.3394C22.5507 8 22.7566 8.06696 22.9276 8.19126C23.7809 8.81185 25.3335 9.7456 27.1483 10.4715C28.975 11.2022 30.9681 11.6821 32.7399 11.505C35.2034 11.2586 37.414 10.8896 39.06 10.5238C39.8846 10.3406 40.5535 10.1612 41.0352 10.003C41.2772 9.92358 41.4563 9.85454 41.5777 9.79917C41.6317 9.77453 41.6634 9.75741 41.6786 9.74884C41.7597 9.67534 41.8471 9.61266 41.9027 9.57344C41.9867 9.51413 42.0877 9.4472 42.1992 9.37567C42.423 9.232 42.716 9.05242 43.0569 8.84829C43.7403 8.43913 44.6406 7.91661 45.6174 7.35721C47.5725 6.23768 49.8515 4.96043 51.3537 4.12584C51.6591 3.95617 52.031 3.95819 52.3345 4.13117ZM52.4501 23.9766C52.4501 23.9766 52.4495 23.9771 52.4483 23.9779C52.4495 23.9769 52.4501 23.9765 52.4501 23.9766ZM43.0172 11.2355C42.8236 11.4176 42.5806 11.54 42.4077 11.6188C42.1951 11.7158 41.9406 11.8108 41.6592 11.9032C41.094 12.0888 40.3567 12.2844 39.4938 12.4762C37.7648 12.8604 35.4754 13.2414 32.9389 13.495C30.7106 13.7179 28.3704 13.1144 26.4055 12.3285C24.5995 11.6061 23.0267 10.6955 22.0211 10H8.79609C8.55299 15.5524 8.25488 23.4076 8.10162 30.0605C8.02044 33.5845 7.98016 36.7608 8.00962 39.0763C8.02439 40.2373 8.05651 41.1633 8.10751 41.8027C8.11971 41.9557 8.1325 42.0856 8.14536 42.1939C10.7257 43.0007 11.9742 44.186 12.6485 45.3847C12.9341 45.8925 13.1033 46.3872 13.2188 46.7246C13.2388 46.783 13.2571 46.8367 13.2742 46.8849C13.323 47.0226 13.3561 47.1033 13.3798 47.1522C14.4195 47.6717 16.279 48.5924 17.6556 49.0513C18.384 49.2941 19.6165 49.6641 20.732 49.974C21.289 50.1287 21.8079 50.2659 22.2141 50.3637C22.2865 50.3811 22.3543 50.3971 22.4172 50.4115C22.6091 50.2144 22.8239 50.0387 23.0315 49.8873C23.4727 49.5656 24.0062 49.2652 24.5636 49.0213C25.1204 48.7777 25.7299 48.5779 26.3262 48.4754C26.9073 48.3755 27.5612 48.3532 28.1556 48.5513C28.8796 48.7927 29.383 49.4341 29.7166 49.9467C30.0788 50.5034 30.4021 51.1715 30.6806 51.7594C30.7138 51.8295 30.7463 51.8983 30.7782 51.9658C31.0286 52.4958 31.239 52.9411 31.4391 53.2746C31.4748 53.3341 31.5069 53.3843 31.5352 53.4262C31.6005 53.3958 31.6816 53.3529 31.7781 53.2926C32.0609 53.1159 32.3911 52.8406 32.7051 52.4742C33.3337 51.7409 33.8394 50.7139 33.8394 49.5C33.8394 47.7949 34.4118 46.4381 35.4387 45.6913C36.1504 45.1736 36.9903 45.0191 37.7905 45.194C39.3767 41.6743 41.7928 40.5128 43.446 40.4792L47.8606 36.0646C47.9235 35.3864 48.1193 34.6467 48.3466 33.9258C48.5503 33.2797 48.803 32.5799 49.054 31.8844C49.1486 31.6223 49.243 31.3608 49.3345 31.1031C49.6764 30.1395 49.9874 29.202 50.1845 28.3334C50.3839 27.4547 50.4468 26.7273 50.353 26.1644C50.1347 24.8544 50.2371 23.854 50.6175 23.1332C50.8015 22.7847 51.0458 22.5151 51.3203 22.3265L50.8856 6.6768C49.5625 7.41698 48.0034 8.2956 46.6113 9.09279C45.6382 9.65006 44.751 10.165 44.0844 10.5642C43.7503 10.7642 43.4777 10.9315 43.2796 11.0587C43.1801 11.1226 43.1061 11.1721 43.0554 11.2078C43.0366 11.2211 43.0243 11.2302 43.0172 11.2355ZM31.6765 53.6035C31.6766 53.6038 31.6743 53.6019 31.6694 53.5974C31.6741 53.601 31.6765 53.6033 31.6765 53.6035Z" fill="#21262A"/>
</svg>
