<svg width="24" height="24" viewBox="0 0 24 24" fill="none" xmlns="http://www.w3.org/2000/svg">
    <path d="M21.1355 1.9889C21.1316 1.84921 21.0551 1.72167 20.9337 1.65247C20.8123 1.58328 20.6636 1.58248 20.5414 1.65034C19.9405 1.98418 19.0289 2.49508 18.2469 2.94289C17.8561 3.16665 17.496 3.37566 17.2227 3.53932C17.0863 3.62097 16.9691 3.6928 16.8796 3.75027C16.835 3.77889 16.7946 3.80566 16.761 3.82938C16.7387 3.84507 16.7038 3.87014 16.6714 3.89954C16.6653 3.90297 16.6526 3.90982 16.631 3.91967C16.5824 3.94182 16.5108 3.96944 16.414 4.00122C16.2213 4.06449 15.9537 4.13623 15.6239 4.20953C14.9655 4.35584 14.0813 4.50345 13.0959 4.60199C12.3872 4.67286 11.5899 4.4809 10.8592 4.18862C10.1333 3.89825 9.51225 3.52475 9.17093 3.27651C9.10256 3.22679 9.02019 3.20001 8.93566 3.20001H3.13566C2.9217 3.20001 2.74563 3.36837 2.73606 3.58211C2.63599 5.81706 2.50585 9.18018 2.44076 12.0058C2.40823 13.4179 2.39185 14.6999 2.40381 15.6407C2.40978 16.1099 2.42287 16.5017 2.44544 16.7847C2.45658 16.9244 2.47093 17.0498 2.4908 17.1487C2.50045 17.1968 2.51437 17.2541 2.53641 17.3089C2.54749 17.3364 2.56508 17.3747 2.5926 17.4143C2.61827 17.4513 2.6696 17.5142 2.75677 17.5578C2.78033 17.5696 2.805 17.579 2.83041 17.5859C3.84986 17.8639 4.2 18.2581 4.36203 18.5461C4.43754 18.6803 4.47968 18.8023 4.52609 18.9367C4.5356 18.9642 4.54529 18.9923 4.55548 19.021C4.5826 19.0976 4.61929 19.196 4.67285 19.2859C4.72974 19.3814 4.81752 19.4881 4.95677 19.5578L4.96684 19.5628C5.36342 19.7611 6.18206 20.1704 6.80917 20.3795C7.11783 20.4824 7.62483 20.6344 8.0786 20.7604C8.30582 20.8235 8.52324 20.8811 8.69829 20.9233C8.78552 20.9443 8.86545 20.9622 8.93239 20.9752C8.98839 20.986 9.06735 21 9.13566 21C9.28717 21 9.42567 20.9144 9.49343 20.7789C9.49281 20.7801 9.49518 20.7752 9.50342 20.7643C9.51149 20.7537 9.52346 20.7396 9.54032 20.7223C9.57444 20.6874 9.62221 20.6463 9.68383 20.6013C9.80734 20.5113 9.96894 20.4189 10.146 20.3415C10.3233 20.2639 10.5044 20.2064 10.6659 20.1786C10.8335 20.1498 10.9469 20.1587 11.0092 20.1795C11.0112 20.1804 11.032 20.1898 11.0704 20.2278C11.1122 20.2691 11.161 20.3305 11.216 20.4151C11.3274 20.5862 11.4356 20.8064 11.5492 21.0462L11.588 21.1285C11.6844 21.3328 11.7874 21.5511 11.8895 21.7214C11.9476 21.8183 12.0188 21.9228 12.1046 22.0073C12.1853 22.0867 12.3314 22.2 12.5357 22.2C12.7464 22.2 12.961 22.1043 13.1352 21.9955C13.3221 21.8786 13.515 21.7138 13.6894 21.5103C14.0379 21.1037 14.3357 20.5145 14.3357 19.8C14.3357 19.282 14.5067 19.0248 14.6459 18.9235C14.7749 18.8297 14.9419 18.8182 15.1138 18.9328C15.2159 19.0009 15.3437 19.0183 15.4603 18.9801C15.577 18.9418 15.6696 18.8521 15.7116 18.7367C16.3043 17.1068 17.2459 16.9627 17.4791 16.996C17.6037 17.0138 17.7295 16.9719 17.8185 16.8828L19.8185 14.8828C19.8935 14.8078 19.9357 14.7061 19.9357 14.6C19.9357 14.4157 19.9936 14.1532 20.1015 13.8109C20.1777 13.5692 20.2701 13.3132 20.3683 13.0412C20.4074 12.9329 20.4474 12.8222 20.4876 12.7088C20.6259 12.3192 20.7639 11.9067 20.8539 11.5104C20.9429 11.1181 20.9927 10.7091 20.9302 10.3342C20.8575 9.89826 20.9166 9.69839 20.9544 9.62671C20.9618 9.61273 20.968 9.60379 20.9725 9.59831C21.0669 9.58958 21.1557 9.54747 21.2224 9.47889C21.2977 9.40146 21.3385 9.29687 21.3355 9.1889L21.1355 1.9889Z" fill="#21262A"/>
</svg>
