<svg width="24" height="24" viewBox="0 0 24 24" fill="none" xmlns="http://www.w3.org/2000/svg">
    <path d="M2.02731 6.80093C1.91675 6.79339 1.80802 6.83205 1.72704 6.9077C1.64607 6.98334 1.6001 7.08919 1.6001 7.2V8.6C1.6001 8.81179 1.76518 8.98687 1.97661 8.99931L8.4001 9.37716V14.2C8.4001 14.279 8.42347 14.3562 8.46728 14.4219L8.86728 15.0219C8.91381 15.0917 8.9811 15.1451 9.05965 15.1745C9.33589 15.2781 9.78734 15.432 10.2538 15.5606C10.7084 15.686 11.221 15.8 11.6001 15.8C11.6264 15.8 11.6527 15.7974 11.6785 15.7922C11.9555 15.7368 12.2771 15.8139 12.5969 15.9731C12.9122 16.13 13.1776 16.3432 13.3173 16.4828C13.3923 16.5579 13.494 16.6 13.6001 16.6H14.7028C14.7182 16.6283 14.7357 16.6563 14.7555 16.6837C14.8896 16.8701 15.1097 17 15.4001 17C15.4866 17 15.5709 16.9719 15.6401 16.92C15.9685 16.6737 16.1579 16.6671 16.3035 16.6935C16.3958 16.7103 16.4934 16.7457 16.6238 16.8002C16.648 16.8104 16.6739 16.8214 16.7011 16.8331C16.8091 16.8792 16.9388 16.9346 17.0736 16.9795C17.1665 17.0105 17.2676 17.0062 17.3577 16.9677C19.4755 16.06 21.0926 16.6091 21.5782 16.9328C21.701 17.0146 21.8588 17.0223 21.9888 16.9527C22.1189 16.8831 22.2001 16.7475 22.2001 16.6V12C22.2001 11.9702 22.1968 11.9404 22.1902 11.9114L21.1902 7.51135C21.1479 7.32539 20.9802 7.19512 20.7896 7.20014C18.2519 7.26692 12.9532 7.4 12.0001 7.4C11.058 7.4 4.97259 7.00174 2.02731 6.80093Z" fill="#21262A"/>
</svg>
