<svg width="60" height="60" viewBox="0 0 60 60" fill="none" xmlns="http://www.w3.org/2000/svg">
<path d="M30.7449 19.4301C28.4555 19.4301 14.4587 18.5202 6.80783 18.0023C6.23009 17.9632 5.74487 18.4216 5.74487 19.0006V20.4872C5.74487 21.0167 6.15759 21.4544 6.68615 21.4855L21.8036 22.3748C22.3322 22.4058 22.7449 22.8436 22.7449 23.373V35.1273C22.7449 35.3248 22.8033 35.5178 22.9128 35.682L23.566 36.6617C23.6823 36.8362 23.8496 36.97 24.0469 37.0411C25.4661 37.553 28.1377 38.3929 29.6468 38.4289C29.7127 38.4305 29.7775 38.4231 29.8424 38.4122C31.6057 38.1159 33.4791 39.3069 34.4423 40.1485C34.642 40.323 34.8939 40.4301 35.1591 40.4301H37.2449C37.7972 40.4301 38.2188 40.988 38.6856 41.2832C38.7526 41.3256 38.8288 41.3608 38.9155 41.3861C39.1232 41.4467 39.338 41.3565 39.518 41.2365C41.1836 40.1259 42.1419 40.81 43.3876 41.2997C43.6155 41.3893 43.8703 41.3751 44.0974 41.2834C48.1092 39.6626 51.4749 39.982 53.5521 40.6542C54.312 40.9001 55.2449 40.3603 55.2449 39.5616V30.0423C55.2449 29.9678 55.2365 29.8934 55.22 29.8207L52.9266 19.7297C52.8209 19.2648 52.4057 18.9391 51.929 18.9515C45.3381 19.1237 33.0461 19.4301 30.7449 19.4301Z" fill="#21262A"/>
<path d="M37.4649 29.7159C37.4649 26.9919 35.4969 25.2759 32.8329 25.2759C30.1809 25.2759 28.2129 26.9919 28.2129 29.7159C28.2129 32.4039 30.1809 34.2279 32.8329 34.2279C35.4969 34.2279 37.4649 32.4039 37.4649 29.7159ZM35.2689 29.7159C35.2689 31.2519 34.2609 32.3559 32.8329 32.3559C31.4049 32.3559 30.4089 31.2519 30.4089 29.7159C30.4089 28.2279 31.3929 27.1239 32.8329 27.1239C34.2729 27.1239 35.2689 28.2279 35.2689 29.7159Z" fill="#21262A"/>
<path d="M46.6879 33.9999L42.8119 29.4159L46.4719 25.5039H43.9039L40.8679 28.9599H40.8319V25.5039H38.8159V33.9999H40.8319V30.0879H40.8559L44.0119 33.9999H46.6879Z" fill="#21262A"/>
<path fill-rule="evenodd" clip-rule="evenodd" d="M4.31737 17.2692C4.51981 17.0801 4.79163 16.9835 5.06802 17.0023C12.4312 17.5044 27.6447 18.5 30 18.5C32.3828 18.5 45.6296 18.1673 51.9737 18.0003C52.4503 17.9878 52.8695 18.3135 52.9751 18.7784L55.4751 29.7784C55.4917 29.8511 55.5 29.9254 55.5 30V41.5C55.5 41.8688 55.297 42.2077 54.9719 42.3817C54.6467 42.5557 54.2522 42.5366 53.9453 42.3321C52.7312 41.5226 48.6885 40.15 43.3939 42.4191C43.1688 42.5156 42.9161 42.5261 42.6838 42.4487C42.3469 42.3364 42.0226 42.1979 41.7526 42.0826C41.6844 42.0535 41.6197 42.0259 41.5592 42.0006C41.2332 41.8641 40.9892 41.7758 40.7586 41.7339C40.3945 41.6677 39.921 41.6842 39.1 42.3C38.9269 42.4298 38.7164 42.5 38.5 42.5C37.7741 42.5 37.2239 42.1751 36.8885 41.7093C36.8391 41.6407 36.7954 41.5706 36.7569 41.5H34C33.7348 41.5 33.4804 41.3946 33.2929 41.2071C32.9437 40.8579 32.2802 40.3251 31.492 39.9328C30.6924 39.5349 29.8884 39.3421 29.1961 39.4806C29.1315 39.4935 29.0659 39.5 29 39.5C28.0523 39.5 26.7708 39.2149 25.6342 38.9015C24.4681 38.58 23.3395 38.1953 22.6489 37.9363C22.4525 37.8627 22.2843 37.7292 22.1679 37.5547L21.1679 36.0547C21.0584 35.8904 21 35.6974 21 35.5V23.4429L4.94128 22.4983C4.41272 22.4672 4 22.0295 4 21.5V18C4 17.723 4.11492 17.4584 4.31737 17.2692ZM6 19.0702V20.5571L22.0587 21.5017C22.5873 21.5328 23 21.9705 23 22.5V35.1972L23.6511 36.1738C24.3 36.4076 25.2222 36.7133 26.1658 36.9735C27.2477 37.2718 28.2579 37.4815 28.9144 37.4988C30.1835 37.28 31.4189 37.6624 32.383 38.1422C33.1961 38.5469 33.8996 39.0617 34.3948 39.5H37.5C37.9868 39.5 38.3923 39.8478 38.4817 40.3085C39.4233 39.7491 40.2752 39.6132 41.1164 39.7661C41.5733 39.8492 41.9855 40.0109 42.3315 40.1557C42.4178 40.1918 42.4995 40.2266 42.5782 40.2602C42.7176 40.3196 42.8475 40.3749 42.9769 40.4265C47.4452 38.621 51.2229 39.0685 53.5 39.9056V30.1122L51.2066 20.0211C44.6223 20.1931 32.3171 20.5 30 20.5C27.6689 20.5 13.6315 19.5868 6 19.0702Z" fill="#21262A"/>
</svg>
