<svg width="60" height="60" viewBox="0 0 60 60" fill="none" xmlns="http://www.w3.org/2000/svg">
<path d="M5 40.5997C5 42.6298 5.75236 46.6962 6.2509 49.067C6.34739 49.5258 6.74446 49.85 7.21335 49.85H52.5606C53.9803 49.85 53.9803 32.7725 53.9803 31.3494C53.9803 29.9262 51.1408 31.3494 51.1408 29.2147C51.1408 27.08 55.4 19.2528 55.4 17.8296C55.4 16.4065 53.9803 16.4065 53.2704 16.4065C52.5606 16.4065 53.2704 14.2718 51.1408 14.2718C49.0113 14.2718 44.7521 14.9834 40.493 14.9834C36.2338 14.9834 29.1352 17.1181 24.8761 17.1181C22.6313 17.1181 22.0366 17.8297 19.1972 17.8296C17.7775 17.8296 17.0676 14.9834 17.0676 12.8487C17.0676 10.714 13.5183 10.714 11.3887 11.4256C9.25916 12.1371 9.25916 19.9643 9.25916 24.9453C9.25916 29.9262 5 37.7534 5 40.5997Z" fill="#21262A"/>
<path fill-rule="evenodd" clip-rule="evenodd" d="M14.8743 12.0581C13.9047 11.9086 12.6471 12.0595 11.7056 12.374C11.7056 12.374 11.6886 12.3793 11.6546 12.4077C11.6189 12.4375 11.5677 12.4903 11.5057 12.579C11.3779 12.762 11.2403 13.0459 11.1076 13.4498C10.8421 14.2583 10.6511 15.3741 10.5204 16.6837C10.2601 19.2931 10.2592 22.4427 10.2592 24.9453C10.2592 27.6424 9.12214 31.0126 8.06963 33.914C7.91776 34.3326 7.76743 34.7418 7.62104 35.1402C7.24657 36.1595 6.8979 37.1085 6.61527 37.9663C6.21238 39.1891 6 40.0693 6 40.5997C6 41.6454 6.22251 43.3497 6.51858 45.1126C6.7469 46.472 7.01114 47.8221 7.22715 48.85H52.0644C52.0658 48.8452 52.0672 48.8404 52.0686 48.8355C52.1817 48.4443 52.2907 47.8354 52.3888 47.0373C52.5833 45.4564 52.7151 43.3108 52.8036 41.0935C52.9654 37.0381 52.979 32.8297 52.9802 31.6072C52.9679 31.6053 52.9549 31.6034 52.9413 31.6014C52.8487 31.5883 52.7743 31.58 52.6869 31.5704C52.617 31.5626 52.5387 31.5539 52.4362 31.5411C52.0847 31.497 51.4974 31.4132 51.0056 31.064C50.4235 30.6508 50.1408 30.0032 50.1408 29.2147C50.1408 28.8104 50.2367 28.3502 50.36 27.9044C50.4878 27.4424 50.6657 26.9246 50.8709 26.3817C51.2813 25.2962 51.8242 24.0499 52.3563 22.85C52.4656 22.6035 52.5743 22.3591 52.6815 22.1183C53.1013 21.1749 53.4973 20.2852 53.8102 19.5272C54.0063 19.052 54.1619 18.6475 54.267 18.3277C54.3195 18.1679 54.3554 18.0412 54.3775 17.945C54.397 17.8599 54.3997 17.8239 54.4 17.8239C54.3991 17.6497 54.3592 17.5961 54.3559 17.5917C54.3497 17.5831 54.3239 17.5505 54.2293 17.5126C53.9944 17.4184 53.6594 17.4065 53.2704 17.4065C52.8853 17.4065 52.5533 17.2431 52.3201 16.9848C52.1269 16.7708 52.0353 16.5286 51.9888 16.3885C51.944 16.254 51.9082 16.1061 51.8823 15.9994C51.8796 15.9885 51.8771 15.978 51.8746 15.968C51.844 15.8425 51.8192 15.7451 51.7891 15.6547C51.7294 15.475 51.6757 15.4095 51.638 15.3786C51.6132 15.3582 51.5003 15.2718 51.1408 15.2718C50.3124 15.2718 49.1285 15.3875 47.6665 15.5304C47.3599 15.5604 47.041 15.5915 46.7105 15.6231C44.8422 15.8014 42.6729 15.9834 40.493 15.9834C38.478 15.9834 35.7443 16.4931 32.8692 17.0335L32.7905 17.0483C30.0104 17.5709 27.0992 18.1181 24.8761 18.1181C23.9338 18.1181 23.3369 18.2541 22.6105 18.4196C22.5678 18.4293 22.5246 18.4392 22.4808 18.4491C21.6584 18.6356 20.7198 18.8296 19.1972 18.8296C18.4704 18.8296 17.9078 18.4553 17.5173 18.015C17.1356 17.5846 16.8604 17.0332 16.6599 16.4807C16.2572 15.3704 16.0676 14.0056 16.0676 12.8487C16.0676 12.6379 15.9994 12.5206 15.86 12.4105C15.6811 12.2692 15.3599 12.133 14.8743 12.0581ZM17.0995 10.8409C17.6921 11.3089 18.0676 11.9922 18.0676 12.8487C18.0676 13.8265 18.233 14.9522 18.5401 15.7986C18.6946 16.2246 18.863 16.5181 19.0137 16.6881C19.0854 16.7689 19.1379 16.8046 19.165 16.8189C19.1857 16.8298 19.1931 16.8297 19.1966 16.8296C20.5134 16.8296 21.2924 16.6678 22.0384 16.4986C22.086 16.4878 22.1338 16.4769 22.1817 16.466C22.9201 16.2973 23.705 16.1181 24.8761 16.1181C26.8911 16.1181 29.6247 15.6083 32.4998 15.0679L32.5786 15.0531C35.3587 14.5306 38.2698 13.9834 40.493 13.9834C42.5722 13.9834 44.6621 13.8095 46.5205 13.6321C46.8297 13.6026 47.1346 13.5727 47.4332 13.5435C48.8936 13.4003 50.2049 13.2718 51.1408 13.2718C51.8462 13.2718 52.4431 13.4523 52.9063 13.8321C53.3567 14.2015 53.5692 14.6697 53.6869 15.0236C53.7344 15.1662 53.7707 15.3042 53.7989 15.4177C54.1449 15.4383 54.5738 15.4959 54.9736 15.6562C55.3226 15.7962 55.6962 16.0306 55.9784 16.4223C56.265 16.8201 56.4 17.3006 56.4 17.8296C56.4 18.1848 56.2826 18.6002 56.167 18.9521C56.0392 19.341 55.862 19.7981 55.6589 20.2903C55.3345 21.0761 54.9236 21.9993 54.5025 22.9455C54.3968 23.183 54.2904 23.422 54.1846 23.6606C53.6518 24.8623 53.13 26.0619 52.7417 27.0889C52.5477 27.6022 52.3928 28.0572 52.2877 28.4375C52.178 28.8339 52.1408 29.0852 52.1408 29.2147C52.1408 29.3541 52.1614 29.4184 52.1687 29.4368C52.2141 29.466 52.3408 29.5135 52.6849 29.5566C52.7291 29.5621 52.7889 29.5689 52.855 29.5765C52.9748 29.5901 53.1155 29.6061 53.2225 29.6213C53.4109 29.6481 53.6521 29.6907 53.8885 29.7796C54.1305 29.8705 54.4245 30.031 54.6524 30.3288C54.8888 30.6378 54.9803 30.9973 54.9803 31.3493C54.9803 32.0645 54.9803 36.706 54.802 41.1732C54.713 43.4031 54.5787 45.6158 54.3739 47.2815C54.2724 48.1067 54.1484 48.8431 53.9898 49.3913C53.9127 49.6578 53.8096 49.9448 53.6597 50.1859C53.5393 50.3796 53.1957 50.85 52.5606 50.85H5.61713L5.44342 50.0664C5.20365 48.9849 4.84525 47.2244 4.54621 45.4438C4.25073 43.6845 4 41.8309 4 40.5997C4 39.7069 4.32002 38.5414 4.71572 37.3404C5.00969 36.4482 5.37642 35.45 5.75574 34.4176C5.89962 34.026 6.04531 33.6295 6.18952 33.232C7.26659 30.2629 8.25916 27.2291 8.25916 24.9453V24.9197C8.25915 22.4445 8.25915 19.2031 8.53029 16.4851C8.66585 15.1263 8.87413 13.8406 9.20751 12.8257C9.37429 12.318 9.58606 11.8347 9.86593 11.4339C10.1461 11.0328 10.5363 10.656 11.0718 10.4771C12.26 10.0801 13.8418 9.87521 15.1792 10.0815C15.8472 10.1845 16.5463 10.404 17.0995 10.8409Z" fill="#21262A"/>
<path d="M30.825 33.3658C30.825 30.6418 28.857 28.9258 26.193 28.9258C23.541 28.9258 21.573 30.6418 21.573 33.3658C21.573 36.0538 23.541 37.8778 26.193 37.8778C28.857 37.8778 30.825 36.0538 30.825 33.3658ZM28.629 33.3658C28.629 34.9018 27.621 36.0058 26.193 36.0058C24.765 36.0058 23.769 34.9018 23.769 33.3658C23.769 31.8778 24.753 30.7738 26.193 30.7738C27.633 30.7738 28.629 31.8778 28.629 33.3658Z" fill="#21262A"/>
<path d="M39.124 37.6498L36.904 34.0138C37.996 33.6778 38.668 32.8618 38.668 31.7218C38.668 29.7778 37.048 29.1538 35.416 29.1538H32.176V37.6498H34.192V34.2778H34.888L36.724 37.6498H39.124ZM36.64 31.7578C36.64 32.6218 35.812 32.7898 35.152 32.7898H34.18V30.8098H35.272C35.884 30.8098 36.64 30.9658 36.64 31.7578Z" fill="#21262A"/>
</svg>
