<svg width="24" height="24" viewBox="0 0 24 24" fill="none" xmlns="http://www.w3.org/2000/svg">
    <path d="M7.22714 5.13947C7.22714 4.79686 7.07695 4.52357 6.83991 4.33637C6.61863 4.1616 6.33897 4.07379 6.07177 4.03258C5.53681 3.95008 4.90409 4.03204 4.42883 4.19084C4.21463 4.26241 4.05853 4.41311 3.94647 4.57358C3.83452 4.73388 3.74981 4.92718 3.6831 5.13027C3.54975 5.53625 3.46644 6.05052 3.41221 6.59405C3.30376 7.68123 3.30376 8.97781 3.30376 9.9679V9.9781C3.30376 10.8916 2.90673 12.1052 2.47591 13.2928C2.41823 13.4518 2.35997 13.6103 2.30244 13.7669C2.15071 14.1799 2.00397 14.5793 1.88639 14.9362C1.7281 15.4166 1.6001 15.8827 1.6001 16.2399C1.6001 16.7324 1.70039 17.4738 1.81858 18.1775C1.9382 18.8898 2.08156 19.5939 2.17747 20.0266L2.24695 20.34H21.0243C21.2784 20.34 21.4158 20.1518 21.464 20.0744C21.5239 19.9779 21.5652 19.8631 21.596 19.7565C21.6594 19.5372 21.709 19.2427 21.7496 18.9126C21.8316 18.2463 21.8853 17.3612 21.9209 16.4693C21.9922 14.6824 21.9922 12.8258 21.9922 12.5397C21.9922 12.3989 21.9556 12.2551 21.8611 12.1315C21.7699 12.0124 21.6523 11.9482 21.5555 11.9118C21.4609 11.8763 21.3645 11.8592 21.2891 11.8485C21.2463 11.8424 21.19 11.836 21.1421 11.8306C21.1159 11.8276 21.0916 11.8248 21.0741 11.8226C20.9364 11.8054 20.8858 11.7864 20.8676 11.7747C20.8647 11.7674 20.8564 11.7417 20.8564 11.6859C20.8564 11.6341 20.8713 11.5336 20.9152 11.375C20.9572 11.2229 21.0192 11.0409 21.0968 10.8356C21.2521 10.4248 21.4608 9.9449 21.6739 9.46425L21.8011 9.17821C21.9695 8.79979 22.1339 8.43038 22.2636 8.11612C22.3449 7.91925 22.4158 7.73641 22.4669 7.58083C22.5132 7.44008 22.5601 7.27393 22.5601 7.13185C22.5601 6.92023 22.5061 6.72805 22.3915 6.56893C22.2786 6.41225 22.1291 6.31847 21.9895 6.26249C21.8296 6.19837 21.6581 6.17533 21.5197 6.16709C21.5084 6.12169 21.4938 6.0665 21.4749 6.00945C21.4278 5.86787 21.3428 5.6806 21.1626 5.53286C20.9773 5.3809 20.7386 5.30873 20.4564 5.30873C20.0821 5.30873 19.5575 5.36013 18.9734 5.41738C18.854 5.42908 18.7319 5.44105 18.6083 5.45285C17.8649 5.52382 17.029 5.59335 16.1973 5.59335C15.308 5.59335 14.1436 5.81223 13.0315 6.02125L13 6.02717C11.85 6.24332 10.7565 6.44723 9.95052 6.44723C9.48212 6.44723 9.16814 6.51893 8.87279 6.58639L8.81545 6.59945C8.51707 6.66714 8.20546 6.73186 7.67874 6.73186C7.67734 6.73187 7.67436 6.73191 7.6661 6.72755C7.65527 6.72183 7.63425 6.70757 7.60558 6.67523C7.5453 6.60725 7.47793 6.48983 7.41612 6.31946C7.29329 5.98087 7.22714 5.5306 7.22714 5.13947Z" fill="#21262A"/>
</svg>
