<svg width="60" height="60" viewBox="0 0 60 60" fill="none" xmlns="http://www.w3.org/2000/svg">
<path d="M10.0528 15.7236L5.04072 18.2296C4.70824 18.3958 4.49541 18.7328 4.48812 19.1044L4.01949 43.0049C4.0087 43.5552 4.43746 44.0107 4.98773 44.0235C18.9529 44.3497 45.3282 44.6717 46.5 43.5C48 42 49.5 42.5 50.5 42.5C51.5 42.5 54.5 39 55 38.5C55.5 38 50 34 51 32.5C52 31 51 29.5 51.5 29.5C52 29.5 53.5 26 53.5 25.5C53.5 25 56 24.5 54.5 24C53 23.5 51.5 21.5 51.5 20.5C51.5 19.7713 50.1174 18.7109 49.2411 18.1497C49.0847 18.0495 48.9016 18.0013 48.7158 18.0037L12.5133 18.4864C11.9559 18.4939 11.5 18.044 11.5 17.4865V16.618C11.5 15.8746 10.7177 15.3911 10.0528 15.7236Z" fill="#21262A"/>
<path d="M27.444 29.616C27.444 27.672 25.98 27 24.12 27H21V35.496H23.052V32.292H24.072C25.848 32.292 27.444 31.584 27.444 29.616ZM25.392 29.628C25.392 30.432 24.684 30.66 23.916 30.66H23.052V28.656H23.952C24.684 28.656 25.392 28.812 25.392 29.628Z" fill="#21262A"/>
<path d="M36.0009 35.496L32.4729 27H30.4809L26.9169 35.496H29.1489L29.7729 33.828H33.0609L33.7209 35.496H36.0009ZM32.4969 32.184H30.3609L31.4409 29.268L32.4969 32.184Z" fill="#21262A"/>
<path fill-rule="evenodd" clip-rule="evenodd" d="M12.0257 14.1494C12.3206 14.3316 12.5 14.6534 12.5 15V17.4866L48.9867 17.0001C49.1724 16.9976 49.3552 17.0469 49.5145 17.1425C49.9683 17.4148 50.6472 17.8753 51.2265 18.3898C51.5149 18.6459 51.8073 18.9404 52.0354 19.2541C52.2447 19.542 52.5 19.9803 52.5 20.5C52.5 20.5312 52.5218 20.6841 52.6564 20.9596C52.7815 21.2158 52.9713 21.5107 53.2115 21.8043C53.7099 22.4135 54.3139 22.8839 54.8162 23.0513C55.0423 23.1267 55.308 23.2365 55.5269 23.4185C55.776 23.6255 56.0599 24.0235 55.9594 24.5593C55.8822 24.9714 55.6081 25.2241 55.4919 25.3232C55.3466 25.4472 55.1843 25.5464 55.0586 25.6182C54.9394 25.6864 54.8109 25.7532 54.7033 25.8091L54.6735 25.8246C54.579 25.8738 54.5007 25.915 54.434 25.9524C54.42 26.0075 54.406 26.0565 54.3944 26.0962C54.3432 26.2709 54.2739 26.4729 54.1949 26.685C54.0362 27.111 53.8225 27.6201 53.5937 28.1104C53.367 28.5961 53.1127 29.0911 52.8703 29.4771C52.7518 29.6659 52.6147 29.8633 52.4657 30.0254C52.4463 30.0465 52.4249 30.069 52.4016 30.0922C52.4117 30.1645 52.4222 30.2441 52.4314 30.3271C52.5032 30.973 52.5203 31.966 51.886 32.9716C51.9084 33.0673 51.9748 33.2328 52.1239 33.474C52.4324 33.9728 52.9473 34.565 53.5375 35.1863C53.7732 35.4344 54.0363 35.7023 54.293 35.9637C54.6238 36.3006 54.9443 36.6269 55.1825 36.8868C55.4011 37.1253 55.6249 37.3853 55.7775 37.6283C55.8496 37.7431 55.9538 37.9276 56.0031 38.1518C56.0556 38.3904 56.0721 38.8422 55.7071 39.2071C55.6379 39.2763 55.5067 39.4196 55.3154 39.6285C55.2143 39.7389 55.0964 39.8677 54.9619 40.0136C54.5915 40.4156 54.1277 40.9116 53.6446 41.3946C53.1658 41.8735 52.6479 42.36 52.1706 42.7331C51.9329 42.919 51.6827 43.0946 51.4358 43.2282C51.2146 43.3478 50.8787 43.5 50.5 43.5C50.2036 43.5 49.931 43.4792 49.6736 43.4596C48.7832 43.3918 48.0763 43.3379 47.2071 44.2071C47.0223 44.3919 46.8044 44.4887 46.6766 44.5389C46.5269 44.5976 46.3633 44.6435 46.2015 44.6811C45.8766 44.7566 45.4691 44.8191 45.0052 44.873C44.0721 44.9814 42.8127 45.0654 41.3184 45.1303C38.3245 45.2604 34.3143 45.3167 29.9269 45.325C21.1484 45.3417 10.814 45.1665 3.97562 44.9997C3.42537 44.9863 2.98941 44.5307 3.0002 43.9804L3.5002 18.4804C3.50748 18.1087 3.72031 17.7718 4.05279 17.6056L11.0528 14.1056C11.3628 13.9506 11.7309 13.9671 12.0257 14.1494ZM52.3504 29.7102C52.3495 29.6904 52.3515 29.6949 52.3508 29.7173C52.3507 29.7147 52.3505 29.7124 52.3504 29.7102ZM5.48796 19.1241L5.01933 43.024C11.828 43.183 21.5837 43.3409 29.9231 43.325C34.3024 43.3167 38.2797 43.2604 41.2316 43.1322C42.7103 43.0679 43.9133 42.9864 44.7745 42.8864C45.2077 42.8361 45.5303 42.7838 45.7487 42.733C45.8124 42.7182 45.8598 42.7052 45.8935 42.6949C47.4596 41.2082 49.19 41.3802 50.0918 41.4697C50.2215 41.4826 50.3341 41.4938 50.4266 41.4981C50.441 41.4915 50.4601 41.4821 50.4841 41.4691C50.5946 41.4093 50.7468 41.3076 50.9388 41.1575C51.3208 40.8588 51.7717 40.4391 52.2304 39.9804C52.6848 39.526 53.1273 39.0532 53.4912 38.6583C53.5937 38.547 53.6933 38.4383 53.7863 38.3367C53.7882 38.3347 53.79 38.3327 53.7919 38.3307C53.7658 38.3015 53.7379 38.2707 53.7082 38.2382C53.4731 37.9818 53.209 37.7136 52.9139 37.414C52.6615 37.1577 52.3864 36.8783 52.0875 36.5638C51.4902 35.935 50.8489 35.2147 50.4229 34.526C50.2106 34.1826 50.0145 33.7889 49.9269 33.3749C49.8362 32.9462 49.8501 32.4221 50.168 31.9453C50.4788 31.479 50.4949 31.0092 50.4436 30.5479C50.4319 30.4428 50.4178 30.3461 50.4026 30.2417C50.4005 30.2271 50.3983 30.2124 50.3961 30.1975L50.3961 30.1974C50.3808 30.0917 50.3593 29.9439 50.3527 29.8054C50.3478 29.7019 50.3351 29.4066 50.4855 29.1123C50.5752 28.9369 50.7216 28.7632 50.9364 28.6435C50.979 28.6199 51.0214 28.5998 51.0634 28.583C51.0937 28.541 51.1315 28.4853 51.1766 28.4135C51.3561 28.1277 51.5705 27.7164 51.7813 27.2646C51.99 26.8174 52.1826 26.3577 52.3207 25.9868C52.3902 25.8005 52.4419 25.6471 52.4748 25.5347C52.4907 25.4804 52.4985 25.4478 52.5019 25.4326C52.5271 24.9891 52.796 24.7019 52.9138 24.5894C52.9812 24.525 53.053 24.4674 53.123 24.4169C52.5578 24.039 52.0574 23.5521 51.6635 23.0707C51.3413 22.6768 51.0622 22.2529 50.8592 21.8373C50.6743 21.4586 50.5149 21.0108 50.501 20.5629C50.4905 20.5414 50.4669 20.4978 50.4178 20.4303C50.3073 20.2783 50.1309 20.0916 49.8985 19.8852C49.524 19.5526 49.0781 19.2339 48.7205 19.0038L11.5133 19.4999C11.2458 19.5035 10.9881 19.3997 10.7976 19.2118C10.6072 19.0239 10.5 18.7675 10.5 18.5V16.618L5.48796 19.1241ZM50.9883 28.6771C50.9881 28.6773 50.9888 28.6764 50.9907 28.6747C50.9893 28.6762 50.9885 28.6769 50.9883 28.6771ZM54.0939 38.7094C54.0938 38.7093 54.0924 38.7069 54.09 38.7021C54.0929 38.707 54.094 38.7094 54.0939 38.7094ZM45.9591 42.6713C45.9593 42.6714 45.9559 42.6731 45.9482 42.6762C45.9551 42.6728 45.959 42.6712 45.9591 42.6713Z" fill="#21262A"/>
</svg>
