<svg width="24" height="24" viewBox="0 0 24 24" fill="none" xmlns="http://www.w3.org/2000/svg">
    <path fill-rule="evenodd" clip-rule="evenodd" d="M5.0002 6C5.0002 5.86137 4.92842 5.73262 4.81049 5.65974C4.69256 5.58686 4.54531 5.58023 4.42131 5.64223L1.62131 7.04223C1.48832 7.10872 1.40319 7.2435 1.40027 7.39216L1.20027 17.5922C1.19596 17.8123 1.37034 17.9945 1.59044 17.9999C4.32579 18.0666 8.45956 18.1367 11.971 18.13C13.7259 18.1267 15.33 18.1042 16.5276 18.0521C17.1253 18.0262 17.6291 17.9925 18.0023 17.9492C18.1878 17.9277 18.3509 17.9026 18.4808 17.8724C18.5455 17.8574 18.6109 17.839 18.6708 17.8155C18.7219 17.7955 18.8091 17.7568 18.883 17.6828C19.2307 17.3352 19.5135 17.3567 19.8696 17.3838C19.9726 17.3917 20.0816 17.4 20.2002 17.4C20.3517 17.4 20.486 17.3391 20.5745 17.2913C20.6733 17.2378 20.7733 17.1676 20.8684 17.0932C21.0594 16.944 21.2665 16.7494 21.458 16.5578C21.6513 16.3646 21.8368 16.1662 21.985 16.0054C22.0388 15.9471 22.0859 15.8956 22.1264 15.8514C22.2029 15.7678 22.2553 15.7105 22.283 15.6828C22.429 15.5369 22.4224 15.3561 22.4014 15.2607C22.3817 15.171 22.34 15.0973 22.3112 15.0513C22.2502 14.9541 22.1606 14.8501 22.0732 14.7547C21.9779 14.6508 21.8497 14.5202 21.7174 14.3855C21.6147 14.2809 21.5095 14.1737 21.4152 14.0745C21.1791 13.826 20.9731 13.5891 20.8498 13.3896C20.7901 13.2931 20.7635 13.2269 20.7546 13.1886C21.0083 12.7864 21.0015 12.3892 20.9727 12.1308C20.9691 12.0976 20.9649 12.0658 20.9609 12.0369C20.9702 12.0276 20.9787 12.0186 20.9865 12.0101C21.0461 11.9453 21.1009 11.8664 21.1483 11.7908C21.2453 11.6364 21.347 11.4384 21.4377 11.2442C21.5292 11.048 21.6147 10.8444 21.6782 10.674C21.7098 10.5892 21.7375 10.5084 21.7579 10.4385C21.7626 10.4226 21.7682 10.403 21.7738 10.381C21.8005 10.366 21.8318 10.3495 21.8696 10.3298L21.8815 10.3236C21.9245 10.3013 21.976 10.2745 22.0237 10.2473C22.0739 10.2186 22.1388 10.1789 22.197 10.1293C22.2434 10.0896 22.3531 9.98856 22.384 9.82371C22.4242 9.60939 22.3106 9.45018 22.211 9.36738C22.1234 9.2946 22.0171 9.25067 21.9267 9.22053C21.7257 9.15354 21.4842 8.9654 21.2848 8.7217C21.1887 8.60427 21.1128 8.48632 21.0627 8.38384C21.0089 8.27363 21.0002 8.21248 21.0002 8.2C21.0002 7.99212 20.8981 7.81681 20.8143 7.70165C20.7231 7.57618 20.6062 7.45834 20.4908 7.3559C20.2591 7.15014 19.9875 6.96591 19.806 6.857C19.7423 6.81877 19.6692 6.79904 19.5949 6.80003L5.0002 6.99463V6ZM20.9404 11.8841C20.94 11.8762 20.9408 11.878 20.9405 11.8869L20.9404 11.8841Z" fill="#21262A"/>
</svg>
