<svg width="60" height="60" viewBox="0 0 60 60" fill="none" xmlns="http://www.w3.org/2000/svg">
<path d="M15.1799 6.90838L34.6865 6.0011C35.2175 5.9764 35.6756 6.37101 35.7168 6.90104C35.8592 8.73494 35.969 11.4511 35.6336 12.457C35.2946 13.4741 35.4106 13.8447 35.5553 13.934C35.6021 13.9629 35.6631 13.9617 35.7172 13.9718C38.6149 14.5132 37.629 17.4617 37.1337 17.957C36.6337 18.457 37.1337 20.957 38.1337 21.957C39.1337 22.957 44.6337 26.457 43.6337 26.957C42.6337 27.457 42.6337 29.957 42.1337 30.957C41.6337 31.957 40.1337 30.957 39.6337 29.957C39.1337 28.957 40.1337 26.457 38.1337 25.957C36.1337 25.457 36.1337 29.457 35.6336 29.457C35.1336 29.457 33.1337 28.457 32.6337 29.457C32.1337 30.457 36.1337 34.457 34.1337 35.457C32.1337 36.457 33.6337 37.957 33.6337 38.957C33.6337 39.957 34.1337 44.957 33.1337 45.457C32.1337 45.957 30.6337 49.957 30.6337 50.457C30.6337 50.8118 29.0605 50.4062 28.007 50.0774C27.766 50.0022 27.5064 50.0157 27.2753 50.1172C21.8547 52.4999 15.6012 53.457 14.1336 53.457C12.6336 53.457 11.1336 55.457 10.6336 54.457C10.1336 53.457 12.6336 51.957 12.1336 49.457C11.6336 46.957 13.1336 48.457 14.1336 47.457C15.1336 46.457 15.1336 33.457 15.6336 30.957C16.0152 29.0492 14.9106 15.4641 14.2292 7.99512C14.1774 7.42703 14.6101 6.93489 15.1799 6.90838Z" fill="#21262A"/>
<path d="M48.1337 35.4569C48.5337 34.6569 48.3003 32.7902 48.1337 31.9569C47.8003 31.6236 46.8337 31.0569 45.6336 31.4569C44.1336 31.9569 41.1337 35.4569 40.6337 36.9569C40.1336 38.4569 38.6337 39.9569 38.6337 41.9569C38.6337 43.9569 37.6337 44.4569 38.1337 45.9569C38.6337 47.4569 40.1337 45.4569 40.6337 44.4569C41.1337 43.4569 42.1337 44.4569 42.6336 44.4569C43.1336 44.4569 43.1336 41.9569 42.6336 40.4569C42.1336 38.9569 42.6336 38.9569 42.6336 37.4569C42.6336 35.9569 43.6336 35.4569 44.6336 35.4569C45.6336 35.4569 44.6336 37.9569 44.6336 39.4569C44.6336 40.9569 45.1336 42.9569 45.6336 43.4569C46.1336 43.9569 45.1336 46.4569 46.1336 45.9569C47.1336 45.4569 48.6337 43.9569 49.1337 43.4569C49.6337 42.9569 47.6337 36.4569 48.1337 35.4569Z" fill="#21262A"/>
<path fill-rule="evenodd" clip-rule="evenodd" d="M36.0207 5.0011C36.5517 4.9764 37.0093 5.37152 37.0622 5.90051C37.1474 6.75317 37.2495 8.10431 37.2794 9.402C37.2943 10.0504 37.2916 10.6989 37.2576 11.2718C37.225 11.8216 37.1598 12.3844 37.0158 12.8163C36.9692 12.9561 36.9346 13.0754 36.9094 13.1761C37.5157 13.3713 38.0107 13.6815 38.384 14.1003C38.8847 14.6621 39.0841 15.327 39.1271 15.9288C39.1696 16.5232 39.0638 17.092 38.9163 17.5444C38.7978 17.9077 38.6174 18.3024 38.3809 18.5893C38.3768 18.6196 38.3729 18.6626 38.3715 18.7197C38.3663 18.9344 38.3985 19.2387 38.4791 19.5877C38.6478 20.319 38.965 20.9836 39.2743 21.2929C39.4604 21.4791 39.921 21.8358 40.5859 22.3305C40.746 22.4496 40.9149 22.5745 41.0892 22.7034C41.6006 23.0817 42.1587 23.4945 42.6786 23.8962C43.3662 24.4276 44.0477 24.9852 44.4977 25.4622C44.7052 25.6822 44.9594 25.9822 45.0908 26.3199C45.1596 26.4965 45.2384 26.7933 45.1466 27.1331C45.0452 27.5087 44.7874 27.7538 44.5285 27.8873C44.519 27.8967 44.4652 27.9504 44.3885 28.1158C44.2851 28.3391 44.1941 28.6473 44.1041 29.0374C44.0602 29.2275 44.0194 29.4238 43.9773 29.6283L43.9663 29.6819C43.9284 29.8662 43.8889 30.0582 43.8476 30.2425C43.7612 30.627 43.6464 31.0776 43.4616 31.4472C43.198 31.9744 42.7386 32.316 42.1773 32.3962C41.6809 32.4671 41.218 32.3185 40.8699 32.1444C40.1764 31.7977 39.5195 31.1408 39.1727 30.4472C38.9356 29.9729 38.9109 29.4177 38.9033 29.0439C38.8998 28.8705 38.9 28.7185 38.9002 28.5768C38.9005 28.336 38.9007 28.125 38.8826 27.8892C38.8559 27.5419 38.7951 27.3372 38.7212 27.2159C38.6721 27.1354 38.5878 27.036 38.3246 26.9702C38.2761 26.958 38.2462 26.9565 38.2316 26.9568C38.2179 26.957 38.2122 26.9588 38.2106 26.9593C38.2105 26.9594 38.1828 26.967 38.1286 27.0242C37.9964 27.1635 37.849 27.4419 37.7033 27.8787C37.6057 28.1716 37.5351 28.4458 37.4634 28.7247C37.4275 28.8642 37.3913 29.0048 37.3513 29.1494C37.3003 29.3337 37.232 29.5642 37.1385 29.76C37.0926 29.856 37.0117 30.0072 36.8777 30.1471C36.7377 30.2932 36.4648 30.5 36.0671 30.5C35.8745 30.5 35.6874 30.4573 35.577 30.4302C35.4478 30.3985 35.305 30.3568 35.1756 30.3188L35.1437 30.3094C34.8777 30.2311 34.6213 30.1557 34.371 30.1056C34.295 30.0904 34.2272 30.0792 34.1672 30.0714C34.1942 30.1288 34.2254 30.192 34.261 30.2611C34.4141 30.5586 34.5807 30.8437 34.7658 31.1604C34.916 31.4175 35.0785 31.6956 35.2559 32.0181C35.5994 32.6428 35.9771 33.4024 36.0934 34.1216C36.1538 34.4948 36.1579 34.936 35.9846 35.3683C35.8011 35.8259 35.4593 36.172 35.0144 36.3944C34.6451 36.5791 34.5653 36.7218 34.549 36.7562C34.5329 36.7902 34.5096 36.8634 34.5477 37.0539C34.585 37.24 34.6546 37.4275 34.7535 37.6942C34.7691 37.7362 34.7854 37.78 34.8024 37.8262L34.8026 37.8269C34.9036 38.1009 35.0672 38.5449 35.0672 39C35.0672 39.1568 35.082 39.4368 35.1028 39.8266C35.1106 39.9744 35.1193 40.138 35.1284 40.3166C35.1598 40.9381 35.1922 41.6928 35.1922 42.4375C35.1922 43.1729 35.161 43.9425 35.0532 44.5807C34.9996 44.8977 34.9199 45.2281 34.7911 45.5208C34.6733 45.7888 34.4528 46.1666 34.0347 46.3841C34.0277 46.3901 33.992 46.4191 33.9292 46.4918C33.8383 46.597 33.7285 46.7492 33.6043 46.9493C33.3563 47.3488 33.0961 47.8659 32.856 48.4062C32.6175 48.9428 32.4093 49.4786 32.2625 49.9041C32.1889 50.1176 32.1339 50.2944 32.0986 50.4242C32.0761 50.5072 32.0679 50.5487 32.0656 50.5595C32.0531 50.7919 31.9677 51.0195 31.8104 51.2069C31.6546 51.3925 31.4712 51.4884 31.3433 51.5385C31.1049 51.6316 30.8676 51.6389 30.7288 51.6375C30.4214 51.6343 30.0597 51.5726 29.7335 51.503C29.2054 51.3904 28.6082 51.2207 28.1252 51.0695C25.3939 52.2715 22.4729 53.115 20.0367 53.6631C17.5174 54.23 15.4304 54.5 14.5671 54.5C14.4063 54.5 14.1882 54.5561 13.8892 54.699C13.6432 54.8167 13.41 54.958 13.1474 55.1172C13.0857 55.1547 13.0222 55.1932 12.9566 55.2325C12.6756 55.4011 12.2446 55.6593 11.8101 55.7462C11.565 55.7952 11.2328 55.8096 10.8916 55.6572C10.5396 55.4999 10.3117 55.2253 10.1727 54.9472C9.82793 54.2577 10.0749 53.5938 10.2621 53.21C10.3978 52.9319 10.6042 52.6081 10.785 52.3246C10.85 52.2227 10.9116 52.1259 10.9655 52.0384C11.438 51.2705 11.7583 50.5546 11.5866 49.6961C11.4592 49.0592 11.3978 48.4337 11.5931 47.9188C11.7075 47.6172 11.9047 47.3642 12.1784 47.1894C12.4293 47.0292 12.6856 46.9729 12.8632 46.9476C13.0211 46.925 13.1859 46.919 13.2961 46.9149C13.3061 46.9145 13.3158 46.9142 13.3249 46.9138C13.4548 46.9089 13.5418 46.9042 13.621 46.8929C13.7083 46.8804 13.7616 46.8634 13.8022 46.839C13.8028 46.8375 13.8034 46.836 13.804 46.8344C13.8366 46.745 13.8767 46.6032 13.9199 46.3991C14.0061 45.9928 14.0858 45.4328 14.1587 44.746C14.3039 43.3774 14.4122 41.6047 14.5059 39.7617C14.5473 38.9484 14.586 38.1157 14.6239 37.3025C14.6709 36.2931 14.7165 35.3137 14.7639 34.4381C14.8485 32.8779 14.9444 31.5149 15.0866 30.8039C15.1152 30.6609 15.1416 30.3013 15.1449 29.6832C15.148 29.0932 15.1307 28.3382 15.096 27.4532C15.0268 25.6846 14.8902 23.4308 14.7196 21.0077C14.3786 16.1633 13.9043 10.6712 13.5714 7.09264C13.5461 6.82057 13.6333 6.55 13.8126 6.34381C13.9919 6.13763 14.2477 6.01379 14.5207 6.0011L36.0207 5.0011ZM13.7771 46.8988C13.777 46.8987 13.7779 46.8969 13.7798 46.8935C13.778 46.8972 13.7771 46.8989 13.7771 46.8988ZM34.0208 29.6763C34.0212 29.6765 34.0223 29.6822 34.0229 29.6925C34.0207 29.6812 34.0204 29.676 34.0208 29.6763ZM15.6589 7.95032C15.9835 11.5089 16.404 16.4533 16.7147 20.8673C16.8858 23.2984 17.0241 25.5759 17.0945 27.375C17.1297 28.2738 17.1482 29.0618 17.1449 29.6938C17.1416 30.2977 17.1191 30.8391 17.0477 31.1961C16.9399 31.7351 16.8483 32.9346 16.761 34.5463C16.7135 35.4234 16.6688 36.3827 16.6225 37.3794C16.5848 38.1907 16.5459 39.0267 16.5033 39.8633C16.4096 41.7079 16.2991 43.5289 16.1475 44.9571C16.072 45.6688 15.9837 46.308 15.8765 46.8138C15.8231 47.0657 15.7601 47.3083 15.6826 47.5204C15.6156 47.704 15.4966 47.9848 15.2742 48.2071C14.8252 48.6562 14.3166 48.8138 13.9039 48.8728C13.7486 48.895 13.6008 48.9039 13.4835 48.9091C13.495 49.0092 13.5147 49.1388 13.5477 49.3039C13.8747 50.9387 13.2018 52.2189 12.6753 53.076C12.7896 53.0131 12.9075 52.9516 13.0263 52.8948C13.4461 52.694 13.978 52.5 14.5671 52.5C15.2039 52.5 17.1169 52.2701 19.5976 51.7119C22.0553 51.1589 24.985 50.3025 27.6534 49.0897C27.8831 48.9852 28.1439 48.9715 28.3834 49.0513C28.8654 49.212 29.5765 49.4245 30.1508 49.547C30.191 49.5556 30.2295 49.5635 30.2661 49.5707C30.2982 49.4695 30.3337 49.3627 30.3718 49.2522C30.5375 48.7715 30.7669 48.1822 31.0283 47.5939C31.2882 47.0091 31.5905 46.4013 31.905 45.8945C32.0621 45.6415 32.2335 45.3953 32.416 45.184C32.558 45.0197 32.7433 44.8332 32.9712 44.6896C33.0046 44.6046 33.045 44.4616 33.0811 44.2474C33.1608 43.7763 33.1922 43.1397 33.1922 42.4375C33.1922 41.7447 33.162 41.0307 33.1309 40.4178C33.1237 40.2752 33.1162 40.1347 33.109 39.9997C33.0867 39.581 33.0672 39.2146 33.0672 39C33.0672 38.9555 33.0435 38.8374 32.9257 38.5176C32.9135 38.4844 32.9 38.4485 32.8857 38.4104C32.7907 38.1569 32.6578 37.8023 32.5866 37.4461C32.4997 37.0116 32.4764 36.4598 32.7415 35.9001C33.0065 35.3407 33.4892 34.921 34.1199 34.6056C34.1238 34.6036 34.1273 34.6018 34.1304 34.6002C34.1323 34.5722 34.1321 34.5215 34.1191 34.441C34.0635 34.0976 33.8474 33.6073 33.5034 32.9819C33.3851 32.7667 33.239 32.515 33.0892 32.2568C32.87 31.879 32.6428 31.4874 32.4827 31.1764C32.3365 30.8923 32.1919 30.5782 32.1067 30.272C32.0317 30.0025 31.9384 29.5215 32.1727 29.0528C32.4753 28.4476 33.0143 28.1796 33.5027 28.0934C33.9521 28.0141 34.41 28.0738 34.7633 28.1444C35.0238 28.1966 35.281 28.2665 35.4992 28.3295C35.5008 28.3233 35.5024 28.3171 35.504 28.3109C35.5832 28.0043 35.686 27.6063 35.806 27.2463C35.9729 26.7457 36.2317 26.1178 36.6776 25.6477C36.9124 25.4002 37.2168 25.1774 37.6014 25.0544C37.9911 24.9298 38.4008 24.9277 38.8097 25.0299C39.5465 25.2141 40.0873 25.6147 40.4288 26.1747C40.7455 26.6941 40.8409 27.2707 40.8767 27.7358C40.9005 28.0445 40.9007 28.3995 40.9009 28.6865C40.901 28.8068 40.9011 28.9151 40.9029 29.003C40.9065 29.1785 40.9151 29.3116 40.9304 29.4152C40.9445 29.5105 40.9599 29.5486 40.9616 29.5527C40.9618 29.5531 40.9618 29.5532 40.9616 29.5528C41.1129 29.8554 41.4492 30.1936 41.7527 30.3496C41.7965 30.2159 41.8439 30.037 41.8961 29.8044C41.9333 29.6388 41.9691 29.4646 42.0078 29.2767L42.0183 29.2253C42.0603 29.0215 42.1054 28.8038 42.1553 28.5877C42.2528 28.1652 42.3805 27.6922 42.5739 27.2749C42.6583 27.0927 42.7681 26.8927 42.9134 26.7029C42.5733 26.3689 42.0605 25.9461 41.4557 25.4788C40.954 25.0911 40.4215 24.6972 39.9144 24.3222C39.7364 24.1905 39.5615 24.0611 39.3922 23.9352C38.7758 23.4767 38.1739 23.021 37.8601 22.7071C37.1694 22.0164 36.7365 20.931 36.5303 20.0374C36.4233 19.5738 36.3618 19.0968 36.3721 18.6709C36.3773 18.4583 36.401 18.2306 36.4608 18.0113C36.5178 17.8023 36.6282 17.5247 36.8601 17.2929C36.8473 17.3056 36.8487 17.3033 36.8597 17.284C36.8827 17.2437 36.9481 17.1292 37.0149 16.9244C37.1017 16.658 37.1522 16.3518 37.1322 16.0713C37.1127 15.798 37.0308 15.588 36.8909 15.431C36.7584 15.2823 36.4964 15.0942 35.9535 14.9953C35.2026 14.9313 34.9158 14.2361 34.8629 13.8286C34.8047 13.3797 34.902 12.833 35.1185 12.1838C35.1745 12.0156 35.2302 11.6743 35.2611 11.1533C35.2906 10.6553 35.2941 10.0663 35.2799 9.44804C35.2608 8.61994 35.2106 7.76344 35.155 7.04353L15.6589 7.95032ZM32.9409 44.7538C32.9408 44.7536 32.9426 44.7502 32.9466 44.7445C32.943 44.7512 32.941 44.7541 32.9409 44.7538ZM30.773 49.6369C30.7735 49.637 30.77 49.6374 30.762 49.6375C30.7688 49.6369 30.7726 49.6368 30.773 49.6369ZM11.9983 54.241C11.9981 54.2411 11.9985 54.2388 11.9997 54.2341C11.999 54.2385 11.9984 54.2409 11.9983 54.241ZM13.133 48.9298C13.1329 48.9297 13.1342 48.9294 13.1369 48.9289C13.1344 48.9295 13.133 48.9298 13.133 48.9298Z" fill="#21262A"/>
<path d="M28.575 24.8749L25.985 20.6329C27.259 20.2409 28.043 19.2889 28.043 17.9589C28.043 15.6909 26.153 14.9629 24.249 14.9629H20.469V24.8749H22.821V20.9409H23.633L25.775 24.8749H28.575ZM25.677 18.0009C25.677 19.0089 24.711 19.2049 23.941 19.2049H22.807V16.8949H24.081C24.795 16.8949 25.677 17.0769 25.677 18.0009Z" fill="#21262A"/>
<path d="M32.1602 24.8749V14.9629H29.7522V24.8749H32.1602Z" fill="#21262A"/>
<path fill-rule="evenodd" clip-rule="evenodd" d="M47.6511 32.558C47.3865 32.4111 46.9276 32.2671 46.3835 32.4485C46.1962 32.5109 45.847 32.7196 45.3684 33.1235C44.9136 33.5072 44.4165 34.0027 43.9397 34.5392C43.879 34.6074 43.819 34.6759 43.7596 34.7448C44.1954 34.5651 44.6532 34.4998 45.0672 34.4998C45.4208 34.4998 45.7908 34.6204 46.0761 34.918C46.3328 35.1857 46.431 35.5043 46.473 35.735C46.5531 36.1757 46.4926 36.6864 46.4306 37.0894C46.3905 37.3501 46.3339 37.6526 46.2801 37.9397C46.2487 38.107 46.2184 38.2692 46.1928 38.4148C46.1158 38.8537 46.0672 39.218 46.0672 39.4998C46.0672 40.1535 46.1784 40.9462 46.3499 41.6323C46.4351 41.9732 46.5301 42.267 46.6231 42.4902C46.7022 42.6799 46.7583 42.7658 46.7733 42.7888C46.7781 42.7961 46.7786 42.797 46.7743 42.7927C47.0379 43.0563 47.1327 43.3743 47.1728 43.58C47.2153 43.7978 47.2201 44.0169 47.2153 44.198C47.2142 44.2412 47.2123 44.2857 47.2099 44.3309C47.3344 44.2268 47.4618 44.1167 47.5904 44.0024C48.0005 43.6378 48.3778 43.2715 48.6446 43.0074C48.6356 42.8478 48.6093 42.6241 48.5638 42.3349C48.467 41.7199 48.305 40.9378 48.131 40.0976C48.1167 40.0288 48.1024 39.9595 48.088 39.8899C47.9017 38.9894 47.7076 38.0373 47.5931 37.2442C47.536 36.8486 47.4945 36.465 47.4874 36.1315C47.4814 35.8514 47.4903 35.4176 47.6728 35.0526C47.6955 35.0073 47.7386 34.8768 47.765 34.6275C47.7899 34.3921 47.7939 34.1104 47.7807 33.8057C47.7615 33.3636 47.7078 32.9148 47.6511 32.558ZM42.0822 37.1484C42.0543 37.211 42.0323 37.267 42.0159 37.316C41.8617 37.7786 41.6391 38.217 41.4196 38.6152C41.3054 38.8225 41.207 38.9939 41.1118 39.1595C40.9972 39.3591 40.8873 39.5505 40.7602 39.7864C40.3452 40.5571 40.0672 41.2528 40.0672 41.9998C40.0672 43.0729 39.815 43.8104 39.6338 44.3402C39.6144 44.397 39.5958 44.4514 39.5784 44.5035C39.4904 44.7676 39.4348 44.9626 39.4279 45.1601C39.7198 44.8246 40.0086 44.381 40.1728 44.0526C40.3944 43.6094 40.7511 43.2512 41.2573 43.1132C41.7111 42.9894 42.1253 43.0901 42.3835 43.1761C42.4026 43.1825 42.4217 43.1891 42.4409 43.196C42.4418 43.153 42.4422 43.1084 42.4422 43.0623C42.4422 42.3264 42.326 41.4384 42.1186 40.816C41.8267 39.9403 41.7994 39.399 41.8933 38.8354C41.9155 38.7027 41.9385 38.5904 41.9604 38.4842C42.0181 38.203 42.0672 37.964 42.0672 37.4998C42.0672 37.3799 42.0722 37.2627 42.0822 37.1484ZM38.986 45.5599C38.986 45.5599 38.987 45.5593 38.9891 45.5585C38.987 45.5595 38.9859 45.5599 38.986 45.5599ZM39.5401 45.7444C39.5405 45.745 39.5407 45.7453 39.5406 45.7453L39.5401 45.7444ZM45.751 30.5511C47.4041 30.0001 48.751 30.7694 49.2744 31.2927C49.414 31.4323 49.5091 31.6101 49.5478 31.8037C49.6393 32.261 49.747 32.9877 49.7788 33.7189C49.7947 34.085 49.7926 34.4721 49.7539 34.8378C49.719 35.1681 49.6483 35.5435 49.4929 35.8819C49.4904 35.9065 49.4844 35.9704 49.4869 36.0888C49.4915 36.3042 49.5203 36.5963 49.5726 36.9585C49.6769 37.681 49.8578 38.5727 50.0465 39.4847C50.0617 39.5581 50.077 39.6318 50.0922 39.7054C50.2628 40.5285 50.4348 41.3585 50.5395 42.0241C50.5961 42.3838 50.6394 42.734 50.647 43.0278C50.6507 43.1726 50.6471 43.3414 50.6185 43.5079C50.5961 43.6381 50.531 43.9503 50.2744 44.2069L50.2718 44.2095C50.0203 44.4609 49.5036 44.9776 48.9191 45.4972C48.3544 45.9991 47.6437 46.5796 47.0145 46.8942C46.8119 46.9955 46.4243 47.1483 45.9832 47.0116C45.4762 46.8545 45.2633 46.441 45.1846 46.1936C45.1089 45.9556 45.1002 45.7161 45.1014 45.5529C45.1028 45.3746 45.1183 45.1892 45.1347 45.0253C45.1457 44.9154 45.1568 44.8148 45.1671 44.721C45.1914 44.5012 45.2114 44.3193 45.216 44.1454C45.2171 44.1043 45.2169 44.0709 45.2162 44.0444C45.0239 43.8013 44.8822 43.512 44.777 43.2594C44.6356 42.9201 44.5119 42.5264 44.4096 42.1173C44.4025 42.089 44.3955 42.0604 44.3886 42.0317C44.4247 42.39 44.4422 42.7407 44.4422 43.0623C44.4422 43.5047 44.4095 43.9534 44.3203 44.3213C44.2776 44.4978 44.2051 44.7287 44.0669 44.9389C43.9305 45.1463 43.6093 45.4998 43.0672 45.4998C42.8507 45.4998 42.6639 45.4481 42.542 45.4075C42.4141 45.3648 42.2931 45.3117 42.2003 45.2696C42.1427 45.2434 42.0928 45.2202 42.0483 45.1996C41.979 45.1675 41.9229 45.1415 41.8715 45.1196C41.5663 45.6817 41.0454 46.4414 40.4757 46.9399C40.195 47.1856 39.6898 47.5606 39.0628 47.5382C38.2411 47.5089 37.8049 46.8751 37.6186 46.316C37.2686 45.2661 37.4654 44.518 37.6811 43.8711C37.7005 43.8128 37.7198 43.7557 37.739 43.6993C37.9125 43.1876 38.0672 42.7311 38.0672 41.9998C38.0672 40.7468 38.5392 39.6925 38.9993 38.8382C39.1194 38.615 39.2701 38.3512 39.4084 38.109C39.5061 37.938 39.5976 37.7777 39.668 37.65C39.8704 37.2826 40.0228 36.971 40.1186 36.6836C40.2887 36.1731 40.6344 35.5803 41.0238 35.0124C41.4255 34.4265 41.9209 33.7999 42.4448 33.2104C42.968 32.6219 43.5334 32.0549 44.0786 31.5949C44.5999 31.155 45.1883 30.7387 45.751 30.5511ZM41.6801 45.0545C41.6801 45.0544 41.6809 45.0545 41.6825 45.0548L41.6801 45.0545ZM44.1313 40.5712C44.0902 40.2071 44.0672 39.8443 44.0672 39.4998C44.0672 39.0316 44.1437 38.5209 44.2229 38.0692C44.258 37.8689 44.2925 37.686 44.3251 37.5127C44.3731 37.2576 44.4172 37.0233 44.4539 36.7853C44.4634 36.7236 44.4715 36.6664 44.4783 36.6136C44.421 36.6411 44.3724 36.6722 44.3324 36.7055C44.2254 36.7947 44.0672 36.9903 44.0672 37.4998C44.0672 38.1887 43.9668 38.6708 43.9039 38.9723C43.8883 39.0473 43.875 39.1112 43.8661 39.1642C43.8351 39.3506 43.8078 39.5593 44.0159 40.1836C44.0576 40.3085 44.096 40.4382 44.1313 40.5712ZM44.5052 36.0928C44.5053 36.0928 44.5053 36.0929 44.5053 36.093L44.5052 36.0928ZM45.2097 43.9626C45.2099 43.9633 45.21 43.964 45.2102 43.9649C45.2087 43.9589 45.2088 43.9577 45.2097 43.9626Z" fill="#21262A"/>
</svg>
