<svg width="24" height="24" viewBox="0 0 24 24" fill="none" xmlns="http://www.w3.org/2000/svg">
    <path d="M14.4083 2.00044C14.6207 1.99056 14.8037 2.14861 14.8249 2.3602C14.859 2.70127 14.8998 3.24172 14.9118 3.7608C14.9177 4.02017 14.9166 4.27957 14.903 4.5087C14.89 4.72863 14.8639 4.95377 14.8063 5.1265C14.7877 5.18245 14.7739 5.23017 14.7637 5.27046C15.0063 5.34853 15.2043 5.47259 15.3536 5.64011C15.5539 5.86483 15.6336 6.1308 15.6508 6.3715C15.6678 6.60928 15.6255 6.83681 15.5665 7.01776C15.5191 7.16309 15.447 7.32097 15.3523 7.43574C15.3507 7.44786 15.3492 7.46504 15.3486 7.48788C15.3465 7.57378 15.3594 7.69549 15.3916 7.83506C15.4591 8.1276 15.586 8.39344 15.7097 8.51716C15.7842 8.59163 15.9684 8.73434 16.2344 8.93219C16.2983 8.97977 16.3661 9.02992 16.4358 9.08143C16.6403 9.23271 16.8635 9.39781 17.0714 9.55849C17.3465 9.77103 17.6191 9.99409 17.7991 10.1849C17.8821 10.2729 17.9838 10.3929 18.0363 10.528C18.0638 10.5986 18.0953 10.7173 18.0586 10.8533C18.0181 11.0035 17.9149 11.1015 17.8114 11.1549C17.8076 11.1587 17.7861 11.1802 17.7554 11.2463C17.714 11.3356 17.6776 11.4589 17.6416 11.615C17.6241 11.691 17.6077 11.7695 17.5909 11.8513L17.5865 11.8729C17.5714 11.9465 17.5555 12.0235 17.539 12.097C17.5045 12.2508 17.4586 12.431 17.3846 12.5789C17.2792 12.7898 17.0954 12.9264 16.8709 12.9585C16.6724 12.9869 16.4872 12.9274 16.348 12.8578C16.0706 12.7191 15.8078 12.4563 15.6691 12.1789C15.5742 11.9892 15.5644 11.7671 15.5613 11.6175C15.5599 11.5482 15.56 11.4874 15.5601 11.4307C15.5602 11.3344 15.5603 11.25 15.553 11.1557C15.5424 11.0167 15.518 10.9349 15.4885 10.8864C15.4688 10.8542 15.4351 10.8144 15.3298 10.7881C15.3104 10.7832 15.2985 10.7826 15.2927 10.7827C15.2871 10.7828 15.2843 10.7837 15.2843 10.7837C15.2843 10.7837 15.2731 10.7868 15.2514 10.8097C15.1986 10.8654 15.1396 10.9768 15.0813 11.1515C15.0423 11.2686 15.0141 11.3783 14.9853 11.4899C14.971 11.5457 14.9565 11.6019 14.9405 11.6598C14.9201 11.7335 14.8928 11.8257 14.8554 11.904C14.8371 11.9424 14.8047 12.0029 14.7511 12.0588C14.6951 12.1173 14.5859 12.2 14.4269 12.2C14.3498 12.2 14.2749 12.1829 14.2308 12.1721C14.1791 12.1594 14.122 12.1427 14.0702 12.1275L14.0575 12.1237C13.9511 12.0924 13.8485 12.0623 13.7484 12.0422C13.718 12.0362 13.6909 12.0317 13.6669 12.0285C13.6777 12.0515 13.6902 12.0768 13.7044 12.1044C13.7656 12.2234 13.8323 12.3375 13.9063 12.4642C13.9664 12.567 14.0314 12.6782 14.1023 12.8072C14.2398 13.0571 14.3908 13.361 14.4374 13.6486C14.4615 13.7979 14.4632 13.9744 14.3938 14.1473C14.3204 14.3304 14.1837 14.4688 14.0057 14.5578C13.858 14.6316 13.8261 14.6887 13.8196 14.7025C13.8132 14.7161 13.8039 14.7454 13.8191 14.8216C13.834 14.896 13.8618 14.971 13.9014 15.0777L13.921 15.1305C13.9613 15.2401 14.0269 15.418 14.0269 15.6C14.0269 15.6627 14.0328 15.7747 14.0411 15.9306C14.0443 15.9898 14.0477 16.0552 14.0514 16.1267C14.0639 16.3752 14.0769 16.6771 14.0769 16.975C14.0769 17.2691 14.0644 17.577 14.0213 17.8323C13.9998 17.9591 13.9679 18.0912 13.9165 18.2083C13.8693 18.3155 13.7805 18.4672 13.6133 18.5542C13.6093 18.5575 13.5953 18.5694 13.5717 18.5967C13.5353 18.6388 13.4914 18.6997 13.4417 18.7797C13.3425 18.9395 13.2384 19.1464 13.1424 19.3625C13.047 19.5771 12.9637 19.7914 12.905 19.9617C12.8756 20.047 12.8535 20.1177 12.8394 20.1697C12.8315 20.1989 12.828 20.2153 12.8267 20.2217L12.8262 20.2238C12.8213 20.3167 12.7871 20.4078 12.7241 20.4828C12.6618 20.557 12.5885 20.5954 12.5373 20.6154C12.442 20.6526 12.347 20.6556 12.2915 20.655C12.1686 20.6537 12.0239 20.629 11.8934 20.6012C11.6822 20.5561 11.4433 20.4883 11.2501 20.4278C10.1576 20.9086 8.98915 21.246 8.01466 21.4653C7.00695 21.692 6.17216 21.8 5.82686 21.8C5.76253 21.8 5.67527 21.8224 5.55569 21.8796C5.45727 21.9267 5.36401 21.9832 5.25898 22.0469L5.18265 22.093C5.07026 22.1604 4.89783 22.2637 4.72405 22.2985C4.62601 22.3181 4.49312 22.3238 4.35664 22.2629C4.21583 22.2 4.12469 22.0901 4.06908 21.9789C3.93117 21.7031 4.02996 21.4375 4.10484 21.284C4.1591 21.1728 4.24173 21.0432 4.31402 20.9298C4.33994 20.8891 4.36471 20.8503 4.38619 20.8154C4.57521 20.5082 4.7033 20.2218 4.63462 19.8785C4.58367 19.6237 4.55911 19.3735 4.63723 19.1675C4.68299 19.0469 4.76188 18.9457 4.87135 18.8758C4.9717 18.8117 5.07424 18.7892 5.14529 18.779C5.20845 18.77 5.27437 18.7676 5.31842 18.766L5.32996 18.7655C5.3819 18.7635 5.41673 18.7617 5.44841 18.7572C5.48333 18.7522 5.50465 18.7454 5.5209 18.7356L5.52158 18.7337C5.53464 18.698 5.55066 18.6413 5.56797 18.5596C5.60242 18.3971 5.63431 18.1731 5.66346 17.8984C5.72157 17.351 5.76489 16.6419 5.80237 15.9047C5.81891 15.5795 5.83441 15.2464 5.84955 14.9212C5.86834 14.5174 5.88659 14.1255 5.90557 13.7752C5.93938 13.1512 5.97774 12.606 6.03462 12.3216C6.04606 12.2644 6.05664 12.1205 6.05795 11.8733C6.05921 11.6373 6.05226 11.3353 6.03841 10.9813C6.01073 10.2738 5.95606 9.37233 5.88784 8.40309C5.75145 6.46534 5.56173 4.26849 5.42857 2.83706C5.41845 2.72823 5.4533 2.62 5.52502 2.53752C5.59674 2.45505 5.69909 2.40552 5.80827 2.40044L14.4083 2.00044Z" fill="#21262A"/>
    <path fill-rule="evenodd" clip-rule="evenodd" d="M18.3002 12.2205C18.9614 12 19.5002 12.3077 19.7095 12.5171C19.7654 12.5729 19.8035 12.644 19.8189 12.7215C19.8555 12.9044 19.8986 13.1951 19.9113 13.4875C19.9177 13.634 19.9168 13.7889 19.9014 13.9351C19.8874 14.0672 19.8591 14.2174 19.797 14.3527C19.796 14.3626 19.7936 14.3882 19.7946 14.4355C19.7964 14.5217 19.8079 14.6385 19.8289 14.7834C19.8706 15.0724 19.9429 15.4291 20.0184 15.7939L20.0367 15.8822C20.1049 16.2114 20.1737 16.5434 20.2156 16.8096C20.2382 16.9535 20.2556 17.0936 20.2586 17.2111C20.2601 17.2691 20.2586 17.3366 20.2472 17.4031C20.2383 17.4552 20.2122 17.5801 20.1095 17.6828L20.1085 17.6838C20.0079 17.7844 19.8013 17.9911 19.5674 18.1989C19.3416 18.3997 19.0573 18.6318 18.8056 18.7577C18.7246 18.7982 18.5695 18.8593 18.3931 18.8047C18.1903 18.7418 18.1051 18.5764 18.0737 18.4775C18.0434 18.3823 18.0399 18.2864 18.0404 18.2212C18.0409 18.1499 18.0471 18.0757 18.0537 18.0101C18.0581 17.9662 18.0625 17.9259 18.0667 17.8884C18.0764 17.8005 18.0844 17.7277 18.0862 17.6582C18.0866 17.6417 18.0866 17.6284 18.0863 17.6178C18.0094 17.5205 17.9527 17.4048 17.9106 17.3038C17.854 17.168 17.8045 17.0106 17.7636 16.8469L17.7552 16.8127C17.7697 16.956 17.7767 17.0963 17.7767 17.2249C17.7767 17.4019 17.7636 17.5814 17.7279 17.7285C17.7108 17.7991 17.6818 17.8915 17.6265 17.9755C17.572 18.0585 17.4435 18.1999 17.2267 18.1999C17.1401 18.1999 17.0653 18.1792 17.0166 18.163C16.9654 18.1459 16.917 18.1247 16.8799 18.1078C16.8696 18.1031 16.8598 18.0986 16.8505 18.0944C16.8393 18.0892 16.8289 18.0844 16.8191 18.0798C16.7914 18.067 16.769 18.0566 16.7484 18.0479C16.6263 18.2727 16.418 18.5766 16.1901 18.776C16.0778 18.8742 15.8757 19.0243 15.6249 19.0153C15.2962 19.0036 15.1218 18.75 15.0472 18.5264C14.9072 18.1064 14.986 17.8072 15.0722 17.5484L15.0954 17.4797C15.1648 17.2751 15.2267 17.0924 15.2267 16.7999C15.2267 16.2987 15.4155 15.877 15.5995 15.5353C15.6476 15.446 15.7078 15.3405 15.7632 15.2436C15.8022 15.1752 15.8388 15.1111 15.867 15.06C15.948 14.913 16.0089 14.7884 16.0472 14.6734C16.1153 14.4692 16.2536 14.2321 16.4093 14.005C16.57 13.7706 16.7682 13.52 16.9777 13.2842C17.187 13.0488 17.4132 12.822 17.6312 12.638C17.8398 12.462 18.0751 12.2955 18.3002 12.2205ZM17.6523 16.2285C17.6359 16.0829 17.6267 15.9377 17.6267 15.7999C17.6267 15.6126 17.6573 15.4084 17.689 15.2277C17.703 15.1476 17.7168 15.0744 17.7298 15.0051C17.7491 14.903 17.7667 14.8093 17.7814 14.7141C17.7851 14.6894 17.7884 14.6666 17.7911 14.6455C17.7682 14.6564 17.7488 14.6689 17.7328 14.6822C17.69 14.7179 17.6267 14.7961 17.6267 14.9999C17.6267 15.2755 17.5865 15.4683 17.5614 15.5889C17.5551 15.6189 17.5498 15.6445 17.5463 15.6657C17.5338 15.7402 17.5229 15.8237 17.6062 16.0734C17.6228 16.1234 17.6382 16.1753 17.6523 16.2285Z" fill="#21262A"/>
</svg>
