<svg width="60" height="60" viewBox="0 0 60 60" fill="none" xmlns="http://www.w3.org/2000/svg">
<path d="M15.4354 10.2296C11.0138 10.9099 7.24287 13.5664 5.29083 15.3712C4.82897 15.7982 4.93669 16.5304 5.47605 16.854L9.18572 19.0799C9.3488 19.1778 9.47985 19.3194 9.56629 19.4888C10.8028 21.912 13.5066 26.5725 15.4354 27.7297C17.9354 29.2297 18.9354 33.2297 19.4354 34.2297C19.9354 35.2297 28.9354 44.2297 28.4354 47.7297C28.0462 50.4539 30.1498 50.2437 31.3384 49.7698C31.4034 49.7439 31.462 49.711 31.5192 49.6706C37.2139 45.6466 48.5374 37.2199 48.9354 35.2297C49.6176 32.8422 52.5296 30.0425 54.5093 28.4429C54.9872 28.0567 55.0424 27.3367 54.6079 26.9022L43.945 16.2393C43.6407 15.935 43.1676 15.8447 42.7463 15.9327C42.0357 16.081 40.8051 16.2296 38.9354 16.2296C35.4354 16.2296 31.9354 14.7296 31.4354 13.2296C30.9354 11.7296 21.9354 9.22964 15.4354 10.2296Z" fill="#21262A"/>
<path d="M30.4493 24.3319C29.7053 23.6479 28.6253 23.2879 27.6653 23.2879C26.0813 23.2879 24.3773 24.0679 24.3773 25.9519C24.3773 27.4879 25.4693 28.0399 26.5493 28.3879C27.6653 28.7479 28.3133 28.9519 28.3133 29.5999C28.3133 30.2839 27.7613 30.5239 27.1373 30.5239C26.4653 30.5239 25.7093 30.1399 25.3013 29.6239L23.9573 30.9919C24.7013 31.7719 25.9253 32.2159 27.1373 32.2159C28.8173 32.2159 30.3893 31.3399 30.3893 29.3839C30.3893 27.6919 28.9013 27.1999 27.7493 26.8279C26.9453 26.5759 26.4413 26.3959 26.4413 25.8319C26.4413 25.1599 27.1013 24.9799 27.6293 24.9799C28.1573 24.9799 28.7933 25.2679 29.1413 25.7119L30.4493 24.3319Z" fill="#21262A"/>
<path d="M39.2191 30.8239L37.7911 29.4799C37.4311 29.9839 36.7951 30.3439 35.9911 30.3439C34.5751 30.3439 33.5791 29.2879 33.5791 27.7399C33.5791 26.2399 34.5991 25.1359 36.0271 25.1359C36.6751 25.1359 37.3591 25.3879 37.7431 25.9159L39.1351 24.5239C38.4271 23.7079 37.1431 23.2759 35.9551 23.2759C33.3631 23.2759 31.3471 25.0159 31.3471 27.7399C31.3471 30.4039 33.3031 32.2279 35.9191 32.2279C37.3471 32.2279 38.4751 31.6879 39.2191 30.8239Z" fill="#21262A"/>
<path fill-rule="evenodd" clip-rule="evenodd" d="M25.0351 11.7688C21.981 11.0969 18.2383 10.7432 15.1521 11.218C11.0382 11.8509 7.48026 14.3282 5.61391 16.0318L9.51452 18.3722C9.67759 18.4701 9.80938 18.6124 9.89443 18.7825C10.4641 19.9219 11.4451 21.7119 12.5237 23.3562C13.063 24.1785 13.617 24.9493 14.1476 25.5792C14.6911 26.2244 15.158 26.6583 15.5145 26.8722C17.026 27.7791 18.0066 29.38 18.6529 30.7373C18.9838 31.4322 19.2456 32.1043 19.4514 32.6505C19.4953 32.7671 19.5355 32.8746 19.5726 32.9734C19.7178 33.3614 19.8135 33.6172 19.8883 33.7701C19.8889 33.7698 19.9124 33.8076 19.9827 33.8994C20.0626 34.0036 20.1735 34.14 20.3164 34.31C20.5904 34.6361 20.9544 35.0534 21.3864 35.5487L21.4411 35.6115C22.3467 36.6497 23.516 37.9926 24.6559 39.4175C25.7921 40.8377 26.9222 42.3678 27.7408 43.784C28.1501 44.4921 28.496 45.1963 28.7236 45.8624C28.947 46.516 29.0841 47.2119 28.99 47.8711C28.9059 48.4595 28.9823 48.7459 29.0379 48.8619C29.0774 48.9444 29.1233 48.9843 29.2215 49.0161C29.3504 49.058 29.5575 49.0742 29.8355 49.0328C30.0701 48.9979 30.3089 48.9287 30.5153 48.8478C33.339 46.8523 37.5446 43.7754 41.1027 40.9469C42.9033 39.5156 44.5225 38.1602 45.7098 37.047C46.305 36.489 46.7741 36.0082 47.0994 35.6203C47.2621 35.4263 47.3761 35.2706 47.4494 35.1521C47.5036 35.0645 47.5206 35.021 47.5233 35.0153C47.5277 34.9951 47.5328 34.9749 47.5385 34.955C48.0092 33.3076 49.324 31.6178 50.639 30.2394C51.601 29.231 52.6292 28.322 53.4873 27.6313L42.7217 16.8656C42.4625 16.9274 42.1587 16.9835 41.8156 17.0322C41.0276 17.1441 39.9381 17.2296 38.5 17.2296C36.6182 17.2296 34.7398 16.8286 33.2464 16.2177C32.4994 15.9121 31.8206 15.5426 31.2776 15.1213C30.7707 14.7279 30.3024 14.2276 30.0771 13.619C30.055 13.5966 29.9963 13.5402 29.8706 13.4541C29.6396 13.296 29.288 13.1091 28.8135 12.9084C27.8699 12.5092 26.5571 12.1036 25.0351 11.7688ZM31.0005 11.8039C31.337 12.0343 31.776 12.3954 31.9487 12.9134C31.9848 13.0216 32.1245 13.2469 32.5036 13.5411C32.8669 13.8229 33.3756 14.1096 34.0036 14.3666C35.2603 14.8806 36.8818 15.2296 38.5 15.2296C39.8619 15.2296 40.8557 15.1485 41.5344 15.0521C41.874 15.0039 42.1288 14.9526 42.3075 14.908C42.4613 14.8695 42.5342 14.842 42.5508 14.8357C42.5551 14.8341 42.5557 14.8339 42.5529 14.8353C42.9378 14.6428 43.4028 14.7183 43.7071 15.0226L55.7071 27.0226C55.9139 27.2294 56.0198 27.5164 55.9969 27.8079C55.9741 28.0995 55.8247 28.3664 55.5882 28.5384C54.7132 29.1748 53.3349 30.3109 52.0861 31.62C50.8196 32.9476 49.8072 34.3295 49.4696 35.4766C49.4057 35.7513 49.2758 36.0013 49.1502 36.2043C49.0094 36.432 48.8311 36.6679 48.6319 36.9055C48.2332 37.3809 47.6991 37.9235 47.0777 38.5061C45.8317 39.6743 44.1634 41.0689 42.3473 42.5125C38.711 45.4031 34.4196 48.5399 31.5767 50.5467C31.5195 50.587 31.4583 50.6213 31.3939 50.6489C30.7401 50.9291 29.6078 51.2445 28.6036 50.9183C28.0475 50.7377 27.5372 50.3587 27.234 49.7257C26.9469 49.126 26.8941 48.3999 27.0101 47.5883C27.0409 47.3725 27.0062 47.0215 26.8311 46.5091C26.6602 46.0092 26.3812 45.4283 26.0092 44.7848C25.2653 43.4979 24.208 42.0592 23.0941 40.6669C21.9841 39.2793 20.8408 37.9659 19.9339 36.9261L19.871 36.8539C19.4465 36.3673 19.0715 35.9374 18.7852 35.5967C18.6351 35.418 18.5019 35.2551 18.3952 35.1159C18.3024 34.9947 18.184 34.8338 18.1056 34.6769C17.9776 34.421 17.8298 34.0247 17.6782 33.6184C17.6455 33.5309 17.6127 33.4429 17.5799 33.3558C17.3794 32.8238 17.1412 32.2147 16.8471 31.5971C16.2435 30.3294 15.474 29.1803 14.4855 28.5872C13.842 28.2011 13.2047 27.5642 12.618 26.8677C12.0184 26.1559 11.4162 25.3143 10.8513 24.4532C9.80107 22.852 8.84648 21.1319 8.23774 19.9385L3.4855 17.0871C3.22936 16.9334 3.05533 16.6733 3.01105 16.3778C2.96678 16.0824 3.05688 15.7827 3.25671 15.5606C4.84737 13.7933 9.34087 10.0885 14.8479 9.24124C18.2617 8.71605 22.269 9.11237 25.4649 9.81547C27.0679 10.1681 28.5051 10.6063 29.5928 11.0665C30.1339 11.2954 30.6183 11.5422 31.0005 11.8039Z" fill="#21262A"/>
</svg>
