<svg width="60" height="60" viewBox="0 0 60 60" fill="none" xmlns="http://www.w3.org/2000/svg">
<path d="M29.437 16.1276C23.4516 16.1276 13.2096 15.2529 7.9542 14.7306C7.39557 14.6751 6.90043 15.0842 6.85621 15.6438C6.21644 23.7402 5.18396 37.9353 5.38424 39.9055C5.39994 40.06 5.51465 40.152 5.66805 40.1759C8.96834 40.6891 39.9526 41.6276 40.437 41.6276C40.7443 41.6276 42.0551 42.4146 43.0996 43.0817C43.565 43.379 44.1853 43.2551 44.4917 42.7955L44.6401 42.5729C44.8256 42.2947 45.1376 42.1276 45.472 42.1276H48.937C49.937 42.1276 53.437 45.6276 54.437 45.1276C55.437 44.6276 52.437 42.6276 52.437 41.6276C52.437 40.6978 54.1659 41.0647 54.0069 39.9153C53.9805 39.7243 53.8542 39.5646 53.7102 39.4364C52.341 38.2174 52.5809 37.1337 53.0598 36.5049C53.2624 36.2389 53.4259 35.9288 53.4078 35.595C53.2344 32.3848 52.937 26.1502 52.937 23.1276C52.937 19.1276 49.437 18.1276 50.937 17.6276C51.7471 17.3575 51.9951 16.6166 52.0195 15.9585C52.0374 15.4741 51.5883 15.1517 51.1047 15.184C45.9079 15.5306 35.4934 16.1276 29.437 16.1276Z" fill="#21262A"/>
<path d="M28.2322 25.0577C27.4882 24.3737 26.4082 24.0137 25.4482 24.0137C23.8642 24.0137 22.1602 24.7937 22.1602 26.6777C22.1602 28.2137 23.2522 28.7657 24.3322 29.1137C25.4482 29.4737 26.0962 29.6777 26.0962 30.3257C26.0962 31.0097 25.5442 31.2497 24.9202 31.2497C24.2482 31.2497 23.4922 30.8657 23.0842 30.3497L21.7402 31.7177C22.4842 32.4977 23.7082 32.9417 24.9202 32.9417C26.6002 32.9417 28.1722 32.0657 28.1722 30.1097C28.1722 28.4177 26.6842 27.9257 25.5322 27.5537C24.7282 27.3017 24.2242 27.1217 24.2242 26.5577C24.2242 25.8857 24.8842 25.7057 25.4122 25.7057C25.9402 25.7057 26.5762 25.9937 26.9242 26.4377L28.2322 25.0577Z" fill="#21262A"/>
<path d="M37.4581 28.4537C37.4581 25.2377 35.0101 24.2297 32.5981 24.2297H29.5261V32.7257H32.6941C35.0341 32.7257 37.4581 31.4417 37.4581 28.4537ZM35.3221 28.4537C35.3221 30.3497 33.9661 30.9497 32.5021 30.9497H31.5301V25.9817H32.5501C33.9661 25.9817 35.3221 26.5457 35.3221 28.4537Z" fill="#21262A"/>
<path fill-rule="evenodd" clip-rule="evenodd" d="M6.29742 13.9569C6.5044 13.7847 6.77208 13.7032 7.0399 13.7309C11.8752 14.2311 23.0947 15.2256 29.437 15.2256C35.7985 15.2256 47.0337 14.5614 51.8682 14.228C52.3517 14.1946 52.7896 14.5128 52.9071 14.9831C53.0189 15.4299 53.0899 16.1254 52.9206 16.8143C52.7904 17.344 52.5011 17.912 51.9603 18.3112C52.0215 18.3813 52.0832 18.4526 52.1379 18.5171C52.8979 19.4154 53.937 20.8891 53.937 23.2256C53.937 26.3929 54.2685 33.1646 54.4355 36.1701C54.454 36.504 54.3045 36.825 54.037 37.0256C53.8643 37.1551 53.7012 37.388 53.6847 37.631C53.6722 37.815 53.7262 38.2763 54.5617 38.9447C54.7122 39.0651 54.8247 39.2265 54.8857 39.4094C55.0686 39.9583 55.0918 40.5543 54.7512 41.0765C54.4562 41.5288 53.9967 41.7344 53.7684 41.8322C53.7014 41.861 53.6453 41.8843 53.5978 41.9038C53.6209 41.9349 53.6464 41.9683 53.6745 42.0038C53.8537 42.2304 54.0691 42.4645 54.3101 42.7264C54.3881 42.8113 54.4689 42.899 54.5519 42.9904C54.8478 43.3158 55.2242 43.7399 55.4357 44.1511C55.5394 44.3528 55.6827 44.6974 55.6297 45.1024C55.5649 45.5976 55.2466 45.9388 54.8842 46.12C54.4482 46.338 54.0031 46.2824 53.7143 46.211C53.4067 46.1348 53.1014 45.9968 52.8265 45.8505C52.2745 45.5567 51.6614 45.1282 51.1015 44.7238C50.9446 44.6105 50.7919 44.4991 50.6435 44.3909C50.2376 44.0948 49.864 43.8222 49.526 43.5988C49.2981 43.448 49.1165 43.3402 48.9795 43.273C48.9271 43.2474 48.892 43.2331 48.8719 43.2256H45.4722L44.769 44.2803C44.6219 44.501 44.3932 44.6542 44.1331 44.7062C43.873 44.7582 43.603 44.7048 43.3823 44.5576C42.8913 44.2303 42.1314 43.7402 41.4505 43.3349C41.1084 43.1312 40.8002 42.9574 40.562 42.8374C40.453 42.7824 40.3718 42.7455 40.3167 42.7233C39.2259 42.6974 31.2895 42.4571 23.2753 42.1624C19.024 42.0061 14.7377 41.8341 11.4188 41.6697C9.76014 41.5875 8.33739 41.507 7.27942 41.431C6.75132 41.3931 6.30632 41.3557 5.96507 41.3191C5.67183 41.2877 5.3376 41.2466 5.12077 41.1743C4.97349 41.1252 4.83966 41.0425 4.72989 40.9327C4.57759 40.7804 4.51059 40.6174 4.48653 40.5551C4.45546 40.4746 4.43735 40.4014 4.42646 40.3507C4.40447 40.2482 4.39227 40.1423 4.38437 40.0515C4.3681 39.8646 4.36097 39.6285 4.35928 39.3632C4.35588 38.8267 4.37459 38.0881 4.40966 37.2047C4.47995 35.4336 4.6181 33.0299 4.78908 30.3861C5.13119 25.0958 5.60662 18.8153 5.94018 14.6458C5.96165 14.3775 6.09045 14.1291 6.29742 13.9569ZM40.2595 42.7027C40.2594 42.7025 40.2639 42.7037 40.2738 42.707C40.2646 42.7047 40.2597 42.703 40.2595 42.7027ZM51.2024 18.6945C51.2018 18.6943 51.208 18.6909 51.2228 18.6851C51.2104 18.6918 51.203 18.6947 51.2024 18.6945ZM7.85287 15.8235C7.52701 19.9475 7.09934 25.653 6.78491 30.5151C6.61422 33.1546 6.47737 35.5384 6.40808 37.284C6.37339 38.158 6.35617 38.8595 6.35923 39.349C6.64297 39.3766 6.99938 39.4058 7.4227 39.4362C8.45847 39.5106 9.86385 39.5902 11.5177 39.6721C14.8238 39.8359 19.1 40.0076 23.3487 40.1638C27.5967 40.3199 31.8137 40.4605 35.0001 40.562C36.5932 40.6128 37.9285 40.6538 38.8808 40.6821C39.357 40.6962 39.7371 40.7072 40.0056 40.7146C40.14 40.7183 40.2458 40.7211 40.3216 40.723L40.4106 40.7251C40.4281 40.7254 40.436 40.7255 40.4379 40.7256C40.4387 40.7256 40.4392 40.7256 40.4379 40.7256C40.6913 40.7256 40.9207 40.8124 41.0219 40.8515C41.1623 40.9058 41.3135 40.9765 41.462 41.0513C41.7613 41.2021 42.1156 41.4033 42.4735 41.6163C42.8649 41.8493 43.2773 42.1065 43.654 42.3473L44.1049 41.6709C44.2904 41.3927 44.6026 41.2256 44.937 41.2256H48.937C49.3032 41.2256 49.641 41.37 49.8594 41.477C50.1091 41.5993 50.3728 41.761 50.6292 41.9305C50.9726 42.1576 51.3571 42.4359 51.7369 42.7128C51.7173 42.6789 51.6983 42.6447 51.68 42.6102C51.566 42.3947 51.437 42.0849 51.437 41.7256C51.437 41.042 51.8234 40.6072 52.1954 40.3645C52.3866 40.2399 52.6402 40.1312 52.8122 40.0617C51.9968 39.2497 51.6296 38.3733 51.6893 37.4952C51.7374 36.7885 52.0548 36.219 52.4131 35.8172C52.2403 32.63 51.937 26.3008 51.937 23.2256C51.937 21.5621 51.2261 20.5358 50.6111 19.809C50.5069 19.6859 50.4293 19.5982 50.3505 19.5091C50.2895 19.4403 50.2278 19.3705 50.1524 19.2828C50.0245 19.1341 49.8474 18.9228 49.7285 18.6928C49.6068 18.4576 49.4267 17.961 49.7259 17.442C49.969 17.0203 50.3932 16.8528 50.6208 16.7769C50.8085 16.7143 50.915 16.5947 50.9784 16.3369C50.982 16.3221 50.9854 16.3071 50.9886 16.2919C45.7305 16.6403 35.4585 17.2256 29.437 17.2256C23.3981 17.2256 13.1126 16.3463 7.85287 15.8235ZM53.6677 45.0891C53.6674 45.089 53.6655 45.085 53.6629 45.0775C53.6667 45.0855 53.668 45.0893 53.6677 45.0891Z" fill="#21262A"/>
</svg>
