<svg width="24" height="24" viewBox="0 0 24 24" fill="none" xmlns="http://www.w3.org/2000/svg">
    <path d="M12.7797 5.16535C12.7106 4.95814 12.535 4.81372 12.4004 4.72156C12.2475 4.61687 12.0538 4.51816 11.8373 4.42658C11.4022 4.24251 10.8274 4.06726 10.1861 3.92619C8.90778 3.64495 7.30488 3.48642 5.93938 3.6965C3.73654 4.03539 1.93914 5.5173 1.30288 6.22426C1.22295 6.31307 1.18691 6.43297 1.20462 6.55113C1.22233 6.6693 1.29194 6.77336 1.3944 6.83484L3.29529 7.97541C3.53879 8.45275 3.92062 9.14081 4.34073 9.78127C4.56666 10.1257 4.80755 10.4624 5.0474 10.7471C5.28208 11.0257 5.53701 11.2804 5.7944 11.4349C6.18979 11.6721 6.49758 12.1318 6.73905 12.6389C6.85668 12.8859 6.95197 13.1295 7.03214 13.3423L7.07146 13.4473C7.1321 13.6099 7.19124 13.7684 7.24243 13.8708C7.2738 13.9335 7.32114 13.9979 7.35829 14.0464C7.40096 14.1021 7.45422 14.1672 7.51428 14.2387C7.6288 14.3749 7.77881 14.5469 7.94858 14.7416L7.97375 14.7704C8.33652 15.1864 8.79382 15.7117 9.23785 16.2668C9.68338 16.8237 10.1063 17.3991 10.4039 17.9139C10.5527 18.1713 10.6643 18.4037 10.7326 18.6036C10.8027 18.8086 10.8165 18.949 10.8042 19.0353C10.7578 19.36 10.7789 19.6504 10.8938 19.8903C11.0151 20.1435 11.2192 20.2951 11.4416 20.3673C11.8433 20.4978 12.2962 20.3716 12.5578 20.2595C12.5835 20.2485 12.608 20.2348 12.6309 20.2187C13.768 19.416 15.4846 18.1612 16.9391 17.005C17.6655 16.4275 18.3329 15.8697 18.8313 15.4024C19.0799 15.1694 19.2935 14.9524 19.4529 14.7622C19.5327 14.6671 19.6039 14.5728 19.6603 14.4817C19.7105 14.4005 19.7625 14.3005 19.788 14.1907C19.9231 13.7318 20.328 13.179 20.8346 12.648C21.3342 12.1244 21.8855 11.6699 22.2355 11.4154C22.3301 11.3466 22.3898 11.2398 22.399 11.1232C22.4081 11.0065 22.3658 10.8918 22.283 10.809L17.483 6.00904C17.3613 5.88731 17.1753 5.85712 17.0213 5.9341C17.0147 5.93661 16.9847 5.94781 16.9232 5.96319C16.8517 5.98106 16.7498 6.00154 16.614 6.02083C16.3425 6.05939 15.945 6.09184 15.4002 6.09184C14.7529 6.09184 14.1043 5.95225 13.6017 5.74663C13.3504 5.64385 13.1469 5.52917 13.0016 5.41644C12.85 5.29877 12.7941 5.20864 12.7797 5.16535Z" fill="#21262A"/>
</svg>
