<svg width="24" height="24" viewBox="0 0 24 24" fill="none" xmlns="http://www.w3.org/2000/svg">
    <path fill-rule="evenodd" clip-rule="evenodd" d="M2.81606 5.49236C2.70893 5.48128 2.60186 5.51386 2.51907 5.58274C2.43628 5.65162 2.38476 5.75098 2.37617 5.85834C2.24275 7.52614 2.05258 10.0383 1.91573 12.1544C1.84734 13.212 1.79208 14.1735 1.76396 14.8819C1.74994 15.2352 1.74245 15.5307 1.74381 15.7453C1.74448 15.8514 1.74734 15.9458 1.75384 16.0206C1.757 16.0569 1.76189 16.0993 1.77068 16.1403C1.77504 16.1606 1.78228 16.1898 1.79471 16.222C1.80433 16.247 1.83113 16.3122 1.89205 16.3731C1.93596 16.417 1.98949 16.4501 2.04841 16.4697C2.13514 16.4986 2.26883 16.5151 2.38613 16.5276C2.52263 16.5423 2.70062 16.5572 2.91186 16.5724C3.33506 16.6028 3.90416 16.635 4.56761 16.6679C5.89519 16.7336 7.60971 16.8024 9.3102 16.865C12.5159 16.9828 15.6905 17.079 16.1268 17.0893C16.1488 17.0982 16.1813 17.113 16.2249 17.135C16.3202 17.183 16.4435 17.2525 16.5803 17.334C16.8527 17.4961 17.1566 17.6921 17.353 17.8231C17.4413 17.8819 17.5493 17.9033 17.6533 17.8825C17.7574 17.8617 17.8489 17.8004 17.9077 17.7121L18.189 17.2902H19.5489C19.5569 17.2932 19.5709 17.299 19.5919 17.3092C19.6467 17.3361 19.7193 17.3792 19.8105 17.4395C19.9457 17.5289 20.0951 17.6379 20.2575 17.7563C20.3169 17.7996 20.378 17.8442 20.4407 17.8895C20.6647 18.0513 20.9099 18.2227 21.1307 18.3402C21.2407 18.3987 21.3628 18.4539 21.4858 18.4844C21.6014 18.513 21.7794 18.5352 21.9538 18.448C22.0987 18.3755 22.2261 18.2391 22.252 18.041C22.2732 17.879 22.2159 17.7411 22.1744 17.6604C22.0898 17.496 21.9392 17.3263 21.8209 17.1962C21.7876 17.1596 21.7553 17.1245 21.7241 17.0906C21.6278 16.9858 21.5416 16.8921 21.4699 16.8015C21.4587 16.7873 21.4485 16.774 21.4392 16.7615C21.4582 16.7537 21.4807 16.7444 21.5075 16.7329C21.5988 16.6938 21.7826 16.6115 21.9006 16.4306C22.0368 16.2217 22.0276 15.9833 21.9544 15.7637C21.93 15.6906 21.885 15.6261 21.8248 15.5779C21.4906 15.3105 21.469 15.126 21.474 15.0524C21.4806 14.9552 21.5458 14.8621 21.6149 14.8102C21.7219 14.73 21.7817 14.6016 21.7743 14.468C21.7075 13.2658 21.5749 10.5572 21.5749 9.29024C21.5749 8.35562 21.1593 7.76615 20.8552 7.40686C20.8334 7.38102 20.8087 7.35251 20.7842 7.32449C21.0005 7.16479 21.1163 6.93762 21.1683 6.7257C21.2361 6.45014 21.2076 6.17198 21.163 5.99322C21.1159 5.80513 20.9408 5.67784 20.7474 5.69118C18.8136 5.82455 14.3195 6.09024 11.7749 6.09024C9.238 6.09024 4.75017 5.69244 2.81606 5.49236ZM16.1096 17.0828C16.1057 17.0815 16.1039 17.0811 16.1039 17.0811L16.106 17.0818L16.1096 17.0828Z" fill="#21262A"/>
</svg>
