<svg width="24" height="24" viewBox="0 0 24 24" fill="none" xmlns="http://www.w3.org/2000/svg">
    <path d="M15.7943 16.9984C15.9544 17.0007 16.1004 16.9073 16.1655 16.761L16.1665 16.759L16.1718 16.7473C16.1769 16.7365 16.1849 16.7197 16.1957 16.6977C16.2174 16.6536 16.2503 16.5893 16.2935 16.5114C16.3805 16.3548 16.507 16.1482 16.6658 15.944C17.0032 15.5102 17.3989 15.1984 17.8001 15.1984C18.1723 15.1984 18.472 15.1037 18.7168 14.9491C18.9554 14.7984 19.1213 14.6035 19.2451 14.4384C19.2872 14.3823 19.3293 14.3227 19.3661 14.2708L19.4084 14.2111C19.4572 14.143 19.4949 14.0938 19.5293 14.0562C19.5633 14.0192 19.5836 14.0053 19.5922 14.0006C19.5962 13.9984 19.5964 13.9984 19.5993 13.9984C19.6348 13.9984 19.671 13.9937 19.7053 13.9843C21.5571 13.4793 22.2001 12.4518 22.2001 11.7984C22.2001 11.6882 22.1547 11.5829 22.0745 11.5074C21.9944 11.4318 21.8866 11.3926 21.7766 11.3991L15.0833 11.7928L14.779 11.6406C14.7234 11.6129 14.6622 11.5984 14.6001 11.5984H8.88338C8.18273 11.2997 7.62949 11.2375 7.23719 11.4608C6.9991 11.5964 6.87899 11.7983 6.82604 11.9984H3.8001C3.62793 11.9984 3.47507 12.1086 3.42063 12.2719C3.35997 12.4539 3.23757 12.7654 3.07374 13.0867C2.90716 13.4135 2.71313 13.7197 2.51726 13.9156C2.20407 14.2287 1.99779 14.7267 1.86315 15.1596C1.7235 15.6086 1.63902 16.0621 1.60319 16.3488C1.58908 16.4616 1.62368 16.5751 1.69832 16.6609C1.77296 16.7467 1.88059 16.7967 1.9943 16.7984L15.7943 16.9984Z" fill="#21262A"/>
</svg>
