<svg width="60" height="60" viewBox="0 0 60 60" fill="none" xmlns="http://www.w3.org/2000/svg">
<path d="M16.6553 31.1749H10.0565C9.62606 31.1749 9.24563 31.4509 9.08706 31.8511C8.63532 32.9911 7.81289 34.6977 6.83573 35.6748C5.90392 36.6066 5.31378 38.6037 5.01852 40.0741C4.90124 40.6581 5.35636 41.1824 5.95199 41.191L38.6756 41.6652C39.076 41.671 39.4411 41.4388 39.632 41.0867C40.2931 39.867 42.0153 37.1748 44.3357 37.1748C47.2439 37.1748 47.3329 34.3558 48.702 34.1831C48.7902 34.172 48.881 34.1626 48.9665 34.1385C52.1164 33.2507 53.5351 31.7945 54.0668 30.6912C54.3167 30.1729 53.8514 29.7033 53.277 29.7371L37.6026 30.6591C37.4277 30.6694 37.2533 30.6336 37.0967 30.5553L36.5469 30.2804C36.408 30.211 36.2579 30.1749 36.1027 30.1749H22.0475C21.9076 30.1749 21.7673 30.1439 21.6385 30.0891C19.4666 29.166 18.4541 29.4561 18.0458 30.0422C17.6926 30.5493 17.2732 31.1749 16.6553 31.1749Z" fill="#21262A"/>
<path d="M28.2656 19.752V18H21.4136V19.752H23.8136V26.496H25.8656V19.752H28.2656Z" fill="#21262A"/>
<path d="M36.9302 26.496V18H34.9382L34.9862 23.544H34.9502L31.5422 18H29.2022V26.496H31.1942L31.1462 20.94H31.1822L34.6022 26.496H36.9302Z" fill="#21262A"/>
<path fill-rule="evenodd" clip-rule="evenodd" d="M19.0823 30.3902C19.0431 30.4125 18.9337 30.5158 18.9864 30.8317C19.0347 31.1217 18.953 31.4182 18.763 31.6425C18.573 31.8668 18.294 31.9961 18 31.9961H10.1986C10.0108 32.474 9.76209 33.0443 9.46591 33.6253C9.0157 34.5084 8.41743 35.4929 7.70711 36.2032C7.29007 36.6202 6.88911 37.4587 6.56739 38.4931C6.4054 39.0139 6.27645 39.5408 6.17931 40.0131L38.8871 40.4871C38.9176 40.4302 38.9503 40.3702 38.9852 40.3073C39.2364 39.8552 39.6078 39.2465 40.0857 38.6321C40.9922 37.4665 42.503 35.9961 44.5 35.9961C45.0694 35.9961 45.4453 35.8577 45.7238 35.6818C46.018 35.496 46.2596 35.2333 46.5125 34.8961C46.6007 34.7785 46.6782 34.6688 46.7619 34.5504C46.8041 34.4908 46.8478 34.429 46.8952 34.3628C47.0251 34.1815 47.1771 33.9764 47.3488 33.7891C47.6769 33.4312 48.1575 33.0525 48.8436 33.0018C51.2591 32.3243 52.4471 31.3456 53.0142 30.5852L37.5587 31.4944C37.3839 31.5046 37.2095 31.4688 37.0528 31.3905L36.264 30.9961H22C21.8601 30.9961 21.7217 30.9668 21.5939 30.91C19.8395 30.1302 19.2065 30.3194 19.0823 30.3902ZM40.4136 41.9027C40.2509 42.2683 39.8858 42.5018 39.4855 42.496L4.98551 41.996C4.70124 41.9919 4.43216 41.8669 4.24555 41.6524C4.05895 41.4379 3.97246 41.1542 4.00773 40.872C4.09731 40.1554 4.3085 39.0216 4.65762 37.8991C4.99423 36.8168 5.50994 35.5719 6.2929 34.789C6.78258 34.2993 7.26765 33.5338 7.6841 32.7169C8.09367 31.9135 8.39967 31.1349 8.55132 30.6799C8.68744 30.2716 9.06958 29.9961 9.50001 29.9961H17.0648C17.1972 29.4958 17.4975 28.991 18.0927 28.6521C19.0735 28.0937 20.4566 28.2494 22.2082 28.9961H36.5C36.6552 28.9961 36.8083 29.0323 36.9472 29.1017L37.7081 29.4821L54.4413 28.4978C54.7162 28.4816 54.9857 28.5796 55.186 28.7685C55.3864 28.9575 55.5 29.2207 55.5 29.4961C55.5 31.1296 53.8925 33.6983 49.2631 34.9608C49.1774 34.9842 49.0889 34.9961 49 34.9961L48.998 34.9961C48.9907 34.996 48.9904 34.996 48.9803 35.0016C48.9587 35.0134 48.9079 35.048 48.8231 35.1406C48.737 35.2345 48.6428 35.3576 48.5208 35.5278C48.4885 35.5729 48.4529 35.6233 48.4149 35.677C48.3231 35.8068 48.2176 35.9559 48.1125 36.0961C47.8029 36.5089 47.3882 36.9961 46.7918 37.3728C46.1797 37.7594 45.4306 37.9961 44.5 37.9961C43.497 37.9961 42.5078 38.7756 41.6644 39.86C41.2672 40.3707 40.9511 40.887 40.7335 41.2786C40.6254 41.4732 40.5432 41.6341 40.4891 41.7442C40.462 41.7992 40.442 41.8413 40.4294 41.8684L40.416 41.8975L40.4136 41.9027C40.4137 41.9025 40.4136 41.9028 40.4136 41.9027Z" fill="#21262A"/>
</svg>
