<svg width="60" height="60" viewBox="0 0 60 60" fill="none" xmlns="http://www.w3.org/2000/svg">
<path d="M30.6437 6H21.595C21.0621 6 19.5 6 19.5 7.5L19 24C18.9727 24.5466 19.2041 25.9837 18.6573 25.9635L6.57954 25.5161C6.30166 25.5058 5.00198 25.6854 5.00003 25.9635C4.99609 26.5246 5.89242 27.9946 8.00003 29.5C13.5 33 12.5 34.5 12.5 36C12.5 36.9564 15.8961 38.1879 18.1104 38.9861C18.8098 39.2382 19.176 38.669 19.5 38C19.912 37.1494 21.2426 36.2376 23.1438 36C28.1438 36 28 41.5 29.5 43C30.9627 44.4627 33.0692 46.8518 34.0683 49.7764C34.1185 49.9233 34.1987 50.057 34.3129 50.1622C36.9439 52.5848 42.4674 54.4457 41 52C39.5 49.5 40 46.5 41.5 43.5C43 40.5 49.5 39 49.5 38.5C49.5 38.0507 48.4384 36.8323 49 36.5C49.144 36.4148 50.2259 36.0461 50.3751 36.1218C55.6579 38.8022 55 31.9716 55 30C55 28 52.5 27.5161 53 25.5161C53.5 23.5161 51.5 20 51 18.5C50.5 17 45.1438 18 39.6438 18.5C35.4924 18.8774 33.4915 17.8768 32.5 16.5C32.1966 16.7629 30.6437 15.5439 30.6437 14.7571L31 7C31 6.44772 31.196 6 30.6437 6Z" fill="#21262A"/>
<path d="M32.706 26.2559V24.5039H25.854V26.2559H28.254V32.9999H30.306V26.2559H32.706Z" fill="#21262A"/>
<path d="M41.2987 32.9999L38.2267 28.5119L40.9147 24.5039H38.5267L36.9667 27.1439L35.3827 24.5039H32.9107L35.6467 28.5119L32.6707 32.9999H35.1187L36.9067 29.9999L38.7667 32.9999H41.2987Z" fill="#21262A"/>
<path fill-rule="evenodd" clip-rule="evenodd" d="M18.6451 5.95006C18.6717 5.41785 19.111 5 19.6438 5H30.6438C31.1961 5 31.6438 5.44772 31.6438 6V14.6927C32.4889 15.8405 34.8599 17.8399 38.5533 17.5041C39.4819 17.4197 40.4554 17.319 41.4307 17.2182C43.285 17.0264 45.1456 16.834 46.7163 16.7514C47.917 16.6882 49.0285 16.6832 49.8946 16.8069C50.3252 16.8684 50.7574 16.9698 51.127 17.15C51.4978 17.3308 51.9136 17.647 52.0925 18.1838C52.1588 18.3825 52.2541 18.6458 52.3653 18.9529C52.6227 19.6639 52.9654 20.6104 53.2304 21.5378C53.6054 22.8504 53.935 24.4586 53.614 25.7425C53.5591 25.9623 53.5932 26.1015 53.6859 26.2594C53.8093 26.4696 54.0252 26.6884 54.379 27.0101C54.4224 27.0495 54.4692 27.0913 54.5187 27.1354C55.1294 27.68 56.1438 28.5847 56.1438 30C56.1438 31.0202 56.0249 33.474 55.1008 35.3222C54.6288 36.2662 53.8811 37.1814 52.7097 37.5607C51.8655 37.8341 50.9284 37.7881 49.9077 37.4355C49.915 37.4596 49.9224 37.4838 49.9298 37.5083C49.9399 37.5413 49.95 37.5747 49.9602 37.6084C49.9992 37.7369 50.0412 37.8783 50.0735 38.0087C50.1011 38.12 50.1438 38.3071 50.1438 38.5C50.1438 38.7853 50.0306 38.9957 49.9575 39.1055C49.881 39.2204 49.7958 39.3042 49.7366 39.357C49.6184 39.4626 49.4845 39.5493 49.3761 39.6143C49.1514 39.7491 48.8535 39.8978 48.5386 40.0494C48.3545 40.1381 48.1574 40.2312 47.9496 40.3293C47.4139 40.5824 46.8069 40.8691 46.1658 41.2007C45.2815 41.6581 44.384 42.1755 43.6279 42.7444C42.8595 43.3225 42.3128 43.8982 42.0383 44.4472C41.3371 45.8496 41.0188 47.0706 41.0188 48.1875C41.0188 49.2949 41.3315 50.3691 42.0013 51.4855C42.2329 51.8715 42.4658 52.4266 42.2928 53.016C42.0982 53.6792 41.5327 53.9576 41.1281 54.062C40.72 54.1673 40.2604 54.164 39.8289 54.1198C39.3819 54.0739 38.8908 53.9758 38.3862 53.8412C36.4189 53.3166 33.8578 52.1281 32.4367 50.7071C32.327 50.5973 32.2443 50.4635 32.1952 50.3162C31.2089 47.3573 29.7685 44.5389 28.4367 43.2071C27.9245 42.6949 27.5443 41.9429 27.2239 41.2947C27.1807 41.2071 27.1377 41.1197 27.0949 41.0325C26.7921 40.4161 26.4937 39.8087 26.1187 39.2338C25.6979 38.5884 25.2132 38.0391 24.5992 37.6483C24.0077 37.2719 23.2459 37.0103 22.206 37.0003C20.8689 37.1801 20.2452 37.6826 19.9474 38.103C19.6233 38.5605 19.5845 39.061 19.6302 39.3356C19.6872 39.6775 19.5631 40.0245 19.3023 40.2526C19.0414 40.4808 18.681 40.5577 18.3498 40.4558C17.2385 40.1139 15.5649 39.5227 14.1532 38.8537C13.4525 38.5217 12.7723 38.1501 12.2522 37.7574C11.993 37.5617 11.7378 37.3343 11.5393 37.0742C11.3455 36.8203 11.1439 36.4531 11.1439 36C11.1439 35.6734 11.166 35.4052 11.186 35.1636C11.23 34.6304 11.2633 34.2269 11.0244 33.6124C10.7001 32.7785 9.78501 31.5479 7.10699 29.8437C7.09194 29.8341 7.07715 29.8241 7.06263 29.8137C5.60929 28.7756 4.76124 27.878 4.34001 27.1021C3.93701 26.3597 3.80437 25.4253 4.43676 24.7929C4.63338 24.5963 4.903 24.4904 5.18088 24.5007L17.6944 24.9641L18.6451 5.95006ZM20.5951 7L19.6426 26.0499C19.6153 26.5965 19.1537 27.0196 18.6068 26.9993L6.3698 26.5461C6.68785 26.9423 7.24802 27.4862 8.20381 28.171C11.01 29.9604 12.3392 31.4754 12.8884 32.8876C13.3117 33.9761 13.2203 35.0295 13.1675 35.6375C13.1595 35.7307 13.1523 35.8134 13.148 35.8842C13.2008 35.9469 13.2977 36.0408 13.4574 36.1613C13.8175 36.4332 14.3561 36.7367 15.0096 37.0463C15.8767 37.4572 16.8689 37.8432 17.7468 38.151C17.8552 37.7519 18.0368 37.3401 18.3153 36.947C19.0046 35.9738 20.1997 35.2352 22.0198 35.0077C22.061 35.0026 22.1024 35 22.1438 35C23.5721 35 24.7293 35.3605 25.6729 35.961C26.6057 36.5546 27.2773 37.3491 27.794 38.1412C28.2405 38.8259 28.5956 39.55 28.8939 40.1583C28.936 40.2442 28.977 40.3277 29.0169 40.4085C29.3684 41.1196 29.6132 41.5551 29.851 41.7929C31.4759 43.4178 32.9979 46.4787 34.0126 49.4469C35.1376 50.4717 37.2038 51.456 38.9015 51.9088C39.3344 52.0242 39.7183 52.0979 40.033 52.1302C40.045 52.1315 40.0568 52.1326 40.0684 52.1337C39.3799 50.8693 39.0188 49.5663 39.0188 48.1875C39.0188 46.6794 39.4506 45.1504 40.2494 43.5528C40.7249 42.6018 41.5532 41.8025 42.4254 41.1462C43.3099 40.4808 44.3187 39.9044 45.2469 39.4243C45.9227 39.0748 46.5833 38.7627 47.1269 38.5059C47.3255 38.4121 47.5086 38.3256 47.671 38.2474C47.8008 38.1849 47.9145 38.1291 48.013 38.0794C47.9435 37.8517 47.855 37.5601 47.7927 37.2794C47.7273 36.9855 47.6449 36.523 47.7496 36.0869C47.8082 35.8428 47.9405 35.5434 48.2253 35.3115C48.5143 35.0762 48.8499 35 49.1438 35C49.3112 35 49.4758 35.042 49.6227 35.1221C50.8608 35.7974 51.6293 35.8083 52.0936 35.658C52.5628 35.5061 52.9714 35.1088 53.3119 34.4278C54.0128 33.026 54.1438 30.9798 54.1438 30C54.1438 29.5299 53.8292 29.2131 53.0337 28.4899C52.7 28.1866 52.2596 27.7804 51.9611 27.2718C51.632 26.711 51.4786 26.0377 51.6737 25.2575C51.8527 24.5414 51.6823 23.3996 51.3073 22.0872C51.0601 21.222 50.7725 20.4297 50.5252 19.7484C50.4199 19.4584 50.322 19.1884 50.2375 18.9415C50.131 18.8924 49.9333 18.8328 49.6118 18.7868C48.9467 18.6918 47.9957 18.6868 46.8214 18.7486C45.2973 18.8288 43.532 19.0116 41.7149 19.1998C40.7266 19.3021 39.7229 19.406 38.7344 19.4959C33.8806 19.9371 30.7838 17.1108 29.7958 15.53C29.6965 15.3711 29.6438 15.1874 29.6438 15V7H20.5951ZM50.2937 18.9718C50.2936 18.9718 50.293 18.9713 50.2917 18.9704C50.2931 18.9713 50.2937 18.9718 50.2937 18.9718ZM40.3597 52.663C40.3595 52.6629 40.3585 52.66 40.3573 52.6545C40.3593 52.6603 40.3599 52.663 40.3597 52.663ZM13.1096 35.8321C13.1097 35.8321 13.1106 35.8337 13.1122 35.8367C13.1102 35.8336 13.1095 35.8321 13.1096 35.8321ZM5.99797 25.8989C5.99914 25.8994 6.00135 25.9086 6.00111 25.9248C5.99668 25.9065 5.9968 25.8983 5.99797 25.8989Z" fill="#21262A"/>
</svg>
