<svg width="24" height="24" viewBox="0 0 24 24" fill="none" xmlns="http://www.w3.org/2000/svg">
    <path d="M7.85764 2C7.64449 2 7.46878 2.16714 7.45814 2.38002L7.07785 9.98566L2.07245 9.80027C1.9613 9.79616 1.85345 9.83851 1.7748 9.91716C1.52185 10.1701 1.5749 10.5439 1.7361 10.8408C1.90459 11.1512 2.24381 11.5103 2.82515 11.9255C2.83096 11.9296 2.83687 11.9336 2.84289 11.9375C3.9141 12.6191 4.28012 13.1114 4.40984 13.445C4.50542 13.6908 4.49209 13.8522 4.47448 14.0654C4.4665 14.1621 4.45764 14.2694 4.45764 14.4C4.45764 14.5812 4.53832 14.7281 4.61584 14.8297C4.69522 14.9337 4.79728 15.0247 4.90099 15.103C5.10901 15.26 5.38109 15.4087 5.66136 15.5415C6.22607 15.8091 6.89551 16.0455 7.34 16.1823C7.4725 16.2231 7.61667 16.1923 7.72101 16.1011C7.82535 16.0098 7.87499 15.871 7.8522 15.7342C7.83389 15.6244 7.84943 15.4242 7.97905 15.2412C8.09817 15.073 8.34764 14.8721 8.88252 14.8001C9.29844 14.8041 9.60316 14.9088 9.83976 15.0593C10.0854 15.2157 10.2792 15.4354 10.4476 15.6935C10.5976 15.9235 10.7169 16.1664 10.8381 16.413L10.8897 16.5179C11.0178 16.7772 11.1699 17.078 11.3748 17.2828C11.9075 17.8156 12.4836 18.9429 12.8782 20.1265C12.8978 20.1854 12.9309 20.2389 12.9748 20.2828C13.5432 20.8513 14.5676 21.3266 15.3546 21.5365C15.5564 21.5903 15.7529 21.6296 15.9317 21.6479C16.1043 21.6656 16.2881 21.6669 16.4513 21.6248C16.6132 21.583 16.8394 21.4717 16.9172 21.2064C16.9864 20.9706 16.8933 20.7486 16.8006 20.5942C16.5327 20.1476 16.4076 19.7179 16.4076 19.275C16.4076 18.8282 16.5349 18.3399 16.8154 17.7789C16.9252 17.5593 17.1439 17.329 17.4512 17.0978C17.7537 16.8702 18.1127 16.6632 18.4664 16.4803C18.7228 16.3476 18.9657 16.233 19.1799 16.1317C19.263 16.0925 19.3419 16.0552 19.4155 16.0198C19.5415 15.9591 19.6607 15.8997 19.7505 15.8457C19.7939 15.8197 19.8475 15.7851 19.8947 15.7428C19.9184 15.7217 19.9525 15.6882 19.9831 15.6422C20.0123 15.5983 20.0576 15.5141 20.0576 15.4C20.0576 15.3228 20.0405 15.248 20.0295 15.2035C20.0166 15.1513 19.9998 15.0948 19.9842 15.0434L19.9632 14.9742C20.3715 15.1153 20.7463 15.1336 21.084 15.0243C21.5526 14.8726 21.8516 14.5065 22.0404 14.1289C22.41 13.3896 22.4576 12.4081 22.4576 12C22.4576 11.4339 22.0519 11.072 21.8076 10.8541C21.7878 10.8365 21.7691 10.8198 21.7517 10.804C21.6102 10.6753 21.5238 10.5878 21.4745 10.5038C21.4374 10.4406 21.4237 10.3849 21.4457 10.297C21.5741 9.78344 21.4423 9.14016 21.2922 8.61511C21.1863 8.24416 21.0492 7.86557 20.9462 7.58118C20.9017 7.4583 20.8636 7.35301 20.8371 7.27351C20.7655 7.05882 20.5992 6.9323 20.4509 6.86C20.3031 6.78791 20.1302 6.74737 19.958 6.72277C19.6115 6.67327 19.1669 6.67527 18.6866 6.70055C18.0583 6.73362 17.3141 6.81058 16.5724 6.88727C16.1823 6.92761 15.7929 6.96787 15.4214 7.00164C13.9441 7.13595 12.9957 6.3362 12.6576 5.87708V2.4C12.6576 2.17909 12.4785 2 12.2576 2H7.85764Z" fill="#21262A"/>
</svg>
