<svg width="60" height="60" viewBox="0 0 60 60" fill="none" xmlns="http://www.w3.org/2000/svg">
<path d="M34.2276 16.9543C27.3402 15.3636 13.9209 12.8309 8 12.0086C6 11.7256 4 18.5178 4 20.5178V29.0178C4 31.0178 7 34.5178 9 36.0178C11 37.5178 14.5 39.5178 17 39.5178C19.5 39.5178 21 42.5178 21 43.0178C21 43.5178 22.5 42.5178 24 43.0178C25.5 43.5178 25.5 46.5178 26 47.5178C26.5 48.5178 28 49.0178 27.5 48.5178C27.2417 48.2595 27.2475 47.7093 27.3289 47.2172C27.3992 46.7926 27.8081 46.5488 28.2009 46.3728C29.5526 45.7672 29.8972 43.4516 32.5 43.0178C35.5 42.5178 34.5 43.5178 36 44.0178C37.5 44.5178 36.5 43.5178 37 42.0178C37.5 40.5178 41.5 42.0178 42.5 42.0178C43.5 42.0178 44.5 42.0178 45 43.5178C45.5 45.0178 46.5 47.5178 48 47.0178C49.5 46.5178 47.5 42.5178 46.5 40.5178C45.5 38.5178 47 35.5178 48 35.5178C49 35.5178 51.5 32.3074 50.5 32.0178C49.5 31.7283 48.5 27.5178 50 27.2627C51.5 27.0077 51 26.0178 51.5 25.0178C52 24.0178 55 23.5178 54 22.5178C53 21.5178 54 19.0178 54.7171 19.0178C55.4342 19.0178 56 15.0178 54.5 14.0178C53 13.0178 53 15.5178 53 17.0178C53 18.5178 52.5 18.5178 50 19.0178C47.5 19.5178 49 21.5178 48 22.0178C47 22.5178 46.5 22.0178 46 23.0178C45.5 24.0178 44.5 24.5178 43.5 25.0178C42.7 25.4178 42.5 25.1845 42.5 25.0178C42 21.0178 41.5 21.0178 41 20.0178C40.5 19.0178 38.5 26.0178 37.5 25.5178C36.5 25.0178 37.5 21.0178 37.5 20.5178C37.5 20.0178 43 17.5178 40 18.0178C37 18.5178 33 18.5178 34 18.0178C34.5278 17.7539 34.6494 17.4755 34.6231 17.2688C34.5997 17.0843 34.4087 16.9962 34.2276 16.9543Z" fill="#21262A"/>
<path fill-rule="evenodd" clip-rule="evenodd" d="M5.31329 18.1209C5.10102 18.9611 5 19.6339 5 20.0095V28.5095C5 28.7857 5.11208 29.2171 5.39663 29.7933C5.67246 30.3518 6.07111 30.9684 6.54543 31.5909C7.49859 32.842 8.68484 34.0231 9.6 34.7095C10.5541 35.4251 11.8731 36.2642 13.244 36.9198C14.6389 37.587 15.9758 38.0095 17 38.0095C18.6713 38.0095 19.9247 39.0087 20.7009 39.926C21.0984 40.3959 21.4056 40.8829 21.617 41.2966C21.6576 41.3761 21.6956 41.4545 21.7305 41.5311C22.3192 41.4007 23.2961 41.2207 24.3162 41.5608C24.9952 41.7871 25.4414 42.2798 25.7341 42.7711C26.0231 43.2562 26.2077 43.8136 26.3412 44.3143C26.4423 44.6934 26.5264 45.0913 26.5992 45.4354C26.6062 45.4689 26.6132 45.5019 26.6201 45.5343C26.7923 45.215 27.1281 45.0095 27.5 45.0095C27.7062 45.0095 27.8549 44.9475 28.0421 44.7826C28.2465 44.6025 28.4287 44.3644 28.7015 44.008C28.7429 43.9539 28.7864 43.897 28.8324 43.8373C29.4914 42.9806 30.443 41.8385 32.3356 41.5231C33.8333 41.2735 34.7494 41.3034 35.4372 41.8536C35.5818 41.9693 35.6932 42.0904 35.7648 42.1693C35.7794 42.1854 35.7925 42.1999 35.8045 42.2132C35.8229 42.2335 35.8386 42.2509 35.8529 42.2665C35.8726 41.9408 35.9266 41.5673 36.0513 41.1933C36.3515 40.2928 37.1647 39.9818 37.7789 39.8881C38.3977 39.7937 39.1011 39.8617 39.7185 39.9592C40.2942 40.0501 40.8805 40.1819 41.3669 40.2911C41.4148 40.3019 41.4617 40.3124 41.5075 40.3227C42.0855 40.4521 42.3889 40.5095 42.5 40.5095C42.5207 40.5095 42.5419 40.5095 42.5636 40.5094C43.0194 40.5088 43.7013 40.5078 44.3314 40.7778C45.0807 41.0989 45.6268 41.7276 45.9487 42.6933C46.1958 43.4346 46.5367 44.3242 46.9571 44.9548C47.1678 45.2709 47.3505 45.4473 47.4832 45.527C47.5041 45.5395 47.5225 45.5492 47.539 45.5564C47.5391 45.5536 47.5391 45.5507 47.5392 45.5478C47.5442 45.2453 47.4484 44.7669 47.2388 44.1382C46.8279 42.9056 46.1127 41.471 45.6056 40.4567C44.9339 39.1133 45.1357 37.5496 45.5637 36.4084C45.783 35.8235 46.0862 35.2795 46.4412 34.8618C46.739 34.5114 47.2483 34.046 47.9206 34.0115C47.9301 34.0071 47.9422 34.001 47.957 33.9929C48.0401 33.9476 48.1587 33.8662 48.3054 33.7414C48.598 33.4927 48.9226 33.1403 49.1981 32.7706C49.3807 32.5256 49.5183 32.3042 49.6095 32.1272C49.5123 32.0426 49.4305 31.9548 49.3634 31.8748C49.173 31.6476 49.0158 31.3802 48.8875 31.113C48.6302 30.5768 48.4331 29.9232 48.3262 29.284C48.2213 28.657 48.1874 27.9514 48.3309 27.337C48.4714 26.7348 48.8737 25.9316 49.8323 25.7685C50.0411 25.7331 50.1251 25.689 50.1478 25.6748C50.1524 25.6654 50.1599 25.6473 50.1696 25.6159C50.1966 25.5286 50.2105 25.4516 50.2338 25.3229C50.2466 25.252 50.2623 25.1654 50.2846 25.0525C50.3379 24.7824 50.4213 24.4308 50.6056 24.0623C50.87 23.5333 51.3813 23.1896 51.7248 22.9819C51.9656 22.8363 52.2661 22.6796 52.5191 22.5477C52.6382 22.4856 52.7467 22.429 52.8336 22.3816C52.8835 22.3544 52.9283 22.3292 52.9686 22.3059C52.7371 21.9305 52.63 21.5162 52.5938 21.1354C52.5437 20.608 52.6203 20.0739 52.7532 19.6093C52.8564 19.2489 53.0036 18.895 53.1852 18.5861C53.1061 18.6467 53.0222 18.7021 52.9336 18.7527C52.5819 18.9537 52.1652 19.0733 51.7525 19.1704C51.4332 19.2455 51.0499 19.3212 50.6189 19.4062C50.4826 19.4331 50.3415 19.461 50.1961 19.4901C49.7111 19.5871 49.5697 19.7262 49.5343 19.7678C49.4973 19.8112 49.4546 19.8886 49.4325 20.109C49.4219 20.2157 49.4184 20.3244 49.4137 20.4699L49.4126 20.5048C49.4078 20.6501 49.4011 20.8487 49.3722 21.0456C49.3107 21.4639 49.1155 22.0698 48.4472 22.4039C47.8935 22.6808 47.3525 22.7544 47.1118 22.7871C47.0658 22.7934 47.0307 22.7981 47.0086 22.8026C46.9979 22.8047 46.9891 22.8066 46.9821 22.8083C46.9651 22.8307 46.9349 22.8757 46.8944 22.9567C46.2433 24.259 44.9743 24.8917 44.0455 25.3549C44.0123 25.3714 43.9795 25.3878 43.9472 25.4039C43.497 25.629 42.995 25.7981 42.5091 25.7036C42.2352 25.6503 41.9625 25.5102 41.7629 25.2607C41.5946 25.0503 41.5193 24.8132 41.5033 24.5983C41.2711 22.7516 41.0472 21.8554 40.8541 21.34C40.7395 21.5936 40.6174 21.872 40.488 22.1668C40.4438 22.2676 40.3987 22.3704 40.3528 22.4747C40.0136 23.2457 39.6311 24.098 39.2601 24.728C39.0801 25.0334 38.8595 25.3634 38.6002 25.606C38.3858 25.8064 37.78 26.2675 37.0528 25.9039C36.6466 25.7008 36.4197 25.3571 36.2949 25.0682C36.1707 24.7808 36.1124 24.4704 36.0834 24.1905C36.0254 23.6295 36.0663 22.9822 36.1311 22.3991C36.1972 21.8044 36.2955 21.2165 36.3739 20.7615C36.3837 20.7044 36.3932 20.6501 36.4021 20.5983C36.4299 20.4382 36.4534 20.3027 36.4716 20.1889C36.4941 20.0485 36.4988 19.9978 36.4998 19.9979C36.5 19.9979 36.5 20.0021 36.5 20.0095C36.5 19.7715 36.5788 19.5887 36.6329 19.487C36.6902 19.3795 36.7558 19.2958 36.8052 19.2387C36.9032 19.1257 37.0152 19.0294 37.1071 18.9561C37.1629 18.9116 37.2233 18.8662 37.2869 18.8204C36.6417 18.8632 36.0292 18.8845 35.5 18.8845C34.8726 18.8845 34.2752 18.8555 33.8768 18.7669C33.7733 18.7439 33.6361 18.7071 33.4995 18.6428C33.4079 18.5997 33.0844 18.4416 32.9246 18.0582C32.7802 17.7117 32.8451 17.4056 32.9537 17.1856C25.8801 15.6477 13.5148 13.7852 7.87242 13.0014C7.86817 13.0044 7.68108 13.0267 7.30926 13.4871C6.92516 13.9628 6.53067 14.6868 6.17196 15.5407C5.81803 16.3832 5.52087 17.2992 5.31329 18.1209ZM34.4472 18.4039C34.4486 18.4032 34.45 18.4025 34.4514 18.4018C34.4417 18.4073 34.4394 18.4078 34.4472 18.4039ZM35.6253 16.8841C36.8149 16.876 38.4431 16.7552 39.8356 16.5231C40.2072 16.4611 40.595 16.4156 40.9091 16.465C41.0293 16.4838 41.4442 16.5572 41.7109 16.9504C42.0439 17.4414 41.8454 17.9281 41.7529 18.0977C41.6528 18.2811 41.5177 18.4176 41.4337 18.4964C41.4196 18.5096 41.4053 18.5227 41.3908 18.5357C41.6702 18.6829 41.8258 18.9249 41.8944 19.0623C41.9715 19.2164 42.0421 19.3295 42.1374 19.4823C42.1649 19.5263 42.1944 19.5735 42.2267 19.626C42.3684 19.8564 42.5246 20.1285 42.6785 20.5131C42.9277 21.1362 43.1518 22.0075 43.3662 23.4567C44.249 23.0045 44.8132 22.6469 45.1056 22.0623C45.2735 21.7265 45.4839 21.4302 45.7754 21.2073C46.0752 20.978 46.38 20.8887 46.6164 20.8414C46.7727 20.8101 46.8901 20.7931 46.9886 20.7789C47.147 20.7559 47.2568 20.74 47.4015 20.6832C47.4067 20.6236 47.4101 20.5473 47.4136 20.4399C47.414 20.4265 47.4145 20.4126 47.4149 20.3982C47.4191 20.2645 47.4246 20.0881 47.4425 19.91C47.4829 19.5054 47.5965 18.9578 48.0126 18.4699C48.4303 17.9803 49.0389 17.6819 49.8039 17.5289C49.9678 17.4961 50.1203 17.466 50.2628 17.4379C50.6812 17.3553 51.0135 17.2897 51.2944 17.2236C51.6786 17.1332 51.8556 17.0652 51.9414 17.0162C51.9473 17.0128 51.9522 17.0098 51.9562 17.0073C51.9725 16.9574 52 16.8244 52 16.5095L52 16.4428C51.9997 15.736 51.9994 14.6279 52.2227 13.8089C52.3296 13.4169 52.5608 12.797 53.1472 12.4713C53.8414 12.0856 54.5515 12.3419 55.0547 12.6774C55.7085 13.1133 56.0505 13.8103 56.2294 14.439C56.4127 15.0832 56.4638 15.7877 56.4392 16.4232C56.4146 17.0574 56.3121 17.6858 56.1451 18.1856C56.0637 18.4296 55.9492 18.6971 55.7832 18.9248C55.666 19.0856 55.4058 19.3837 54.9887 19.4792C54.9844 19.4849 54.9798 19.4911 54.975 19.4978C54.8747 19.6379 54.7581 19.8728 54.676 20.1596C54.5944 20.4451 54.5637 20.7235 54.5848 20.946C54.6061 21.1692 54.6704 21.2656 54.7071 21.3024C54.9275 21.5227 55.1467 21.8373 55.1938 22.2497C55.2427 22.6785 55.0853 23.0301 54.909 23.2714C54.6087 23.6822 54.1085 23.9644 53.7914 24.1374C53.6289 24.226 53.4844 24.3009 53.3497 24.3707C53.1395 24.4797 52.9532 24.5763 52.7596 24.6933C52.5146 24.8415 52.4238 24.9313 52.3996 24.9553C52.3913 24.9635 52.3908 24.964 52.3944 24.9567C52.3287 25.0881 52.2871 25.2353 52.2467 25.44C52.24 25.4739 52.2323 25.5163 52.2236 25.5647C52.1917 25.7408 52.1456 25.9958 52.0804 26.2066C51.9817 26.526 51.8044 26.8965 51.4398 27.2025C51.1198 27.4712 50.7295 27.6278 50.2988 27.7157C50.2926 27.7356 50.2857 27.7606 50.2785 27.7916C50.2188 28.0474 50.2162 28.4604 50.2988 28.954C50.3794 29.4356 50.5261 29.9048 50.6906 30.2475C50.7724 30.4179 50.845 30.5284 50.8948 30.5883C51.068 30.6555 51.2382 30.7618 51.3826 30.9183C51.5584 31.1088 51.6532 31.3271 51.6974 31.5283C51.7786 31.8978 51.6996 32.2479 51.6243 32.4834C51.4659 32.9783 51.1414 33.5099 50.8019 33.9655C50.4524 34.4346 50.027 34.9029 49.6008 35.2652C49.3882 35.446 49.1552 35.6176 48.9141 35.749C48.7147 35.8577 48.4364 35.9798 48.1172 36.0049C48.088 36.0274 48.0368 36.0727 47.9651 36.1571C47.7888 36.3645 47.592 36.6955 47.4363 37.1106C47.1143 37.9694 47.0661 38.9056 47.3944 39.5623L47.4075 39.5883C47.901 40.5754 48.6761 42.1256 49.1362 43.5058C49.3641 44.1896 49.5496 44.9299 49.5389 45.5806C49.5335 45.9113 49.477 46.2918 49.2874 46.6434C49.0827 47.0229 48.7512 47.3132 48.3162 47.4582C47.6289 47.6873 46.9832 47.5593 46.4543 47.242C45.962 46.9466 45.5822 46.4981 45.2929 46.0642C44.7133 45.1947 44.3042 44.0844 44.0513 43.3257C43.8732 42.7914 43.6693 42.67 43.5436 42.6161C43.3287 42.524 43.0457 42.5095 42.5 42.5095C42.1202 42.5095 41.566 42.3853 41.1035 42.2818L41.0706 42.2744C41.0256 42.2643 40.9804 42.2542 40.9349 42.244C40.439 42.1326 39.915 42.015 39.4065 41.9347C38.8364 41.8447 38.3835 41.819 38.0805 41.8652C38.0056 41.8767 37.9563 41.8891 37.9255 41.8992C37.8224 42.2452 37.838 42.494 37.8572 42.802C37.8657 42.9383 37.875 43.0863 37.875 43.2595C37.875 43.3831 37.8688 43.6139 37.7763 43.8529C37.6623 44.1475 37.4298 44.4202 37.0699 44.5552C36.7738 44.6662 36.4888 44.6452 36.3048 44.6176C36.1053 44.5876 35.8947 44.5285 35.6838 44.4582C35.163 44.2846 34.8182 44.0491 34.5525 43.7961C34.4531 43.7014 34.3648 43.6033 34.3088 43.5411C34.2996 43.531 34.2914 43.5218 34.284 43.5137C34.2209 43.4442 34.1995 43.4247 34.1878 43.4154C34.1873 43.415 34.1869 43.4146 34.1866 43.4144C34.1851 43.413 34.1847 43.4128 34.1783 43.4103C34.1653 43.4055 34.1183 43.3899 34.013 43.3806C33.7872 43.3605 33.3852 43.3757 32.6644 43.4959C31.557 43.6804 31.0086 44.2884 30.4176 45.0567C30.381 45.1042 30.3431 45.1542 30.3037 45.206C30.0459 45.5451 29.7292 45.9617 29.3642 46.2833C29.0705 46.542 28.7249 46.7615 28.3127 46.8894C28.3002 46.9672 28.2904 47.0457 28.2847 47.122C28.2755 47.2437 28.2789 47.3314 28.2862 47.3864C28.3216 47.4265 28.3579 47.4716 28.3925 47.5213C28.4448 47.5967 28.5438 47.7538 28.5835 47.9722C28.6307 48.2317 28.5903 48.6065 28.2924 48.9005C28.048 49.1415 27.7651 49.188 27.6464 49.1998C27.4006 49.2244 27.1838 49.1636 27.0801 49.1314C26.9449 49.0894 26.808 49.0315 26.6778 48.9664C26.1931 48.7241 25.4872 48.22 25.1056 47.4567C24.9153 47.0762 24.7996 46.5765 24.7105 46.168C24.684 46.0467 24.6587 45.9271 24.6337 45.8086C24.5634 45.4765 24.4951 45.1534 24.4088 44.8296C24.2923 44.3928 24.1644 44.044 24.0159 43.7947C23.8711 43.5517 23.7548 43.4818 23.6838 43.4582C23.2097 43.3001 22.6918 43.3662 22.1544 43.4857C22.1129 43.4949 22.0648 43.5062 22.0123 43.5184C21.8115 43.5654 21.5479 43.627 21.3526 43.6456C21.2414 43.6562 20.9366 43.6817 20.6282 43.5309C20.445 43.4414 20.2666 43.2926 20.1448 43.0751C20.049 42.9042 20.0127 42.7347 20.003 42.5945C19.9996 42.5834 19.9947 42.5682 19.9878 42.5487C19.9595 42.4687 19.9101 42.3515 19.8361 42.2068C19.6882 41.9174 19.4641 41.5606 19.1741 41.2179C18.5753 40.5103 17.8287 40.0095 17 40.0095C15.5242 40.0095 13.8611 39.4319 12.381 38.7241C10.8769 38.0047 9.44585 37.0939 8.4 36.3095C7.31516 35.4959 6.00141 34.177 4.95457 32.803C4.42889 32.1131 3.95254 31.3859 3.60337 30.6788C3.26292 29.9894 3 29.2333 3 28.5095V20.0095C3 19.3851 3.14899 18.5225 3.37421 17.631C3.60413 16.7209 3.93197 15.7089 4.32804 14.7661C4.71933 13.8346 5.19984 12.9159 5.75324 12.2306C6.25807 11.6054 7.07498 10.8694 8.13861 11.0191C14.1327 11.8517 27.877 13.9238 34.729 15.5361C34.9101 15.5787 35.0756 15.6709 35.2071 15.8024C35.434 16.0293 35.65 16.4144 35.6253 16.8841ZM37.8805 41.9197C37.8796 41.9193 37.8838 41.9159 37.8956 41.9105C37.8873 41.9175 37.8814 41.9201 37.8805 41.9197ZM50.3268 27.6475C50.3271 27.6481 50.3248 27.6529 50.3194 27.6601C50.3239 27.6505 50.3266 27.6469 50.3268 27.6475ZM39.3262 19.8874C39.1557 19.9906 38.9945 20.0893 38.8476 20.1824C38.6846 20.2856 38.5541 20.3725 38.4563 20.4428C38.4529 20.465 38.4495 20.4861 38.4464 20.5058C38.4259 20.6331 38.3994 20.7862 38.371 20.9499C38.3624 20.9995 38.3537 21.0501 38.3448 21.1013C38.2704 21.5328 38.1856 22.0429 38.1268 22.5505C38.2559 22.271 38.3882 21.9738 38.5222 21.6692C38.5659 21.57 38.6098 21.4696 38.654 21.3689C38.8813 20.8504 39.1127 20.3225 39.3262 19.8874ZM53.7543 17.8866C53.7822 17.863 53.8109 17.8401 53.8405 17.818C53.9428 17.7415 54.0743 17.6603 54.2313 17.6004C54.2367 17.5856 54.2423 17.5695 54.2481 17.5521C54.3421 17.2707 54.4217 16.8366 54.4407 16.3458C54.4597 15.8562 54.4158 15.3732 54.3057 14.9862C54.2456 14.775 54.1758 14.6256 54.1092 14.522C54.0062 15.0515 54 15.7999 54 16.5095C54 16.9163 53.9701 17.3516 53.8136 17.7501C53.7952 17.797 53.7754 17.8424 53.7543 17.8866ZM27.6738 47.2215C27.6727 47.2212 27.6714 47.2208 27.6698 47.2202C27.6853 47.224 27.6876 47.2258 27.6738 47.2215ZM21.163 41.6546C21.1472 41.6561 21.1519 41.6542 21.1723 41.6536C21.1691 41.654 21.166 41.6543 21.163 41.6546Z" fill="#21262A"/>
</svg>
