<svg width="24" height="24" viewBox="0 0 24 24" fill="none" xmlns="http://www.w3.org/2000/svg">
    <path fill-rule="evenodd" clip-rule="evenodd" d="M15.9339 6.60924C15.3769 6.70208 14.7257 6.75041 14.2498 6.75363C14.2597 6.56576 14.1733 6.41171 14.0825 6.32096C14.03 6.26836 13.9637 6.23147 13.8913 6.21443C11.1505 5.56953 5.65279 4.74067 3.25515 4.40766C2.8297 4.34778 2.50294 4.64218 2.301 4.89225C2.07964 5.16638 1.88744 5.53386 1.73092 5.90644C1.57249 6.28358 1.44136 6.68838 1.34939 7.05241C1.2593 7.409 1.19971 7.75405 1.19971 8.0038V11.4038C1.19971 11.6933 1.30487 11.9958 1.44105 12.2715C1.58072 12.5544 1.77126 12.8452 1.98153 13.1212C2.40027 13.6708 2.92577 14.1983 3.35971 14.5238C3.77805 14.8376 4.35047 15.2019 4.95212 15.4897C5.54413 15.7728 6.2094 16.0038 6.79971 16.0038C7.13118 16.0038 7.42984 16.2041 7.66935 16.4872C7.78534 16.6243 7.87499 16.7669 7.93416 16.8827C7.96375 16.9406 7.98351 16.9875 7.99483 17.0195C7.99759 17.0273 7.99954 17.0334 8.00089 17.0378C8.0048 17.0939 8.01931 17.1617 8.05763 17.2301C8.10636 17.3171 8.17772 17.3766 8.25098 17.4124C8.37433 17.4727 8.49625 17.4625 8.54075 17.4582C8.61887 17.4508 8.72432 17.4262 8.80464 17.4074C8.82555 17.4025 8.84491 17.398 8.86148 17.3943C9.07644 17.3465 9.28357 17.3201 9.47322 17.3833C9.50163 17.3927 9.54815 17.4207 9.60607 17.5179C9.66547 17.6176 9.71662 17.7571 9.76321 17.9319C9.79774 18.0614 9.82507 18.1906 9.85317 18.3234C9.86319 18.3708 9.87332 18.4187 9.8839 18.4672C9.91956 18.6306 9.96583 18.8305 10.0419 18.9827C10.1946 19.288 10.477 19.4896 10.6708 19.5866C10.7229 19.6126 10.7776 19.6357 10.8318 19.6526C10.8732 19.6655 10.96 19.6898 11.0583 19.6799C11.1057 19.6752 11.2189 19.6566 11.3167 19.5602C11.4358 19.4426 11.452 19.2927 11.4331 19.1889C11.4172 19.1015 11.3776 19.0387 11.3567 19.0085C11.3429 18.9886 11.3283 18.9706 11.3142 18.9546C11.3113 18.9326 11.3099 18.8975 11.3136 18.8488C11.3159 18.8183 11.3198 18.7869 11.3248 18.7558C11.4897 18.7046 11.6279 18.6168 11.7454 18.5133C11.8914 18.3847 12.0181 18.218 12.1212 18.0824L12.1668 18.0227C12.4032 17.7154 12.6225 17.4722 13.0655 17.3984C13.3538 17.3503 13.5146 17.3442 13.6049 17.3522C13.647 17.356 13.6658 17.3622 13.671 17.3641C13.6736 17.3651 13.6744 17.3658 13.6744 17.3658C13.679 17.3695 13.6881 17.3777 13.7133 17.4055L13.7232 17.4164C13.7456 17.4413 13.781 17.4806 13.8207 17.5185C13.927 17.6196 14.0649 17.7138 14.2732 17.7833C14.3576 17.8114 14.4418 17.8351 14.5216 17.847C14.5952 17.8581 14.7092 17.8665 14.8277 17.8221C14.9716 17.7681 15.0646 17.659 15.1102 17.5412C15.1472 17.4456 15.1497 17.3533 15.1497 17.3038C15.1497 17.2345 15.146 17.1753 15.1426 17.1208C15.1349 16.9976 15.1287 16.8981 15.1699 16.7597C15.1822 16.7556 15.2019 16.7507 15.2319 16.7461C15.3531 16.7276 15.5343 16.7379 15.7623 16.7739C15.9657 16.806 16.1753 16.8531 16.3737 16.8976L16.4411 16.9127C16.6261 16.9541 16.8478 17.0038 16.9997 17.0038C17.218 17.0038 17.3312 17.0096 17.4171 17.0465C17.4674 17.068 17.549 17.1166 17.6202 17.3303C17.7214 17.6338 17.885 18.0779 18.1169 18.4257C18.2326 18.5992 18.3845 18.7787 18.5814 18.8968C18.793 19.0237 19.0512 19.0749 19.3262 18.9833C19.5002 18.9253 19.6328 18.8092 19.7146 18.6574C19.7905 18.5167 19.8131 18.3645 19.8153 18.2322C19.8195 17.972 19.7454 17.6758 19.6542 17.4023C19.4702 16.8502 19.1601 16.2302 18.9627 15.8353L18.9575 15.8249C18.8261 15.5623 18.8454 15.1878 18.9742 14.8442C19.0365 14.6782 19.1152 14.5458 19.1857 14.4629C19.2144 14.4291 19.2349 14.411 19.2466 14.402C19.3743 14.3919 19.4856 14.3431 19.5653 14.2996C19.6618 14.2471 19.755 14.1784 19.84 14.1061C20.0105 13.9612 20.1806 13.7739 20.3205 13.5862C20.4563 13.404 20.586 13.1913 20.6494 12.9933C20.6796 12.8992 20.7112 12.7591 20.6787 12.6113C20.661 12.5309 20.6231 12.4435 20.5527 12.3673C20.495 12.3047 20.4269 12.2622 20.3576 12.2353C20.3377 12.2114 20.3087 12.1672 20.2759 12.099C20.2101 11.9619 20.1514 11.7742 20.1192 11.5816C20.0862 11.3842 20.0872 11.219 20.1111 11.1166C20.114 11.1043 20.1167 11.0943 20.1192 11.0863C20.2915 11.0511 20.4476 10.9885 20.5756 10.881C20.7215 10.7586 20.7924 10.6104 20.8319 10.4827C20.8579 10.3983 20.8764 10.2963 20.8891 10.2259C20.8926 10.2065 20.8957 10.1896 20.8984 10.176C20.9145 10.0941 20.9312 10.0353 20.9575 9.98268C20.956 9.98562 20.9562 9.9854 20.9595 9.98213C20.9692 9.97253 21.0055 9.93661 21.1035 9.87734C21.181 9.83052 21.2555 9.79188 21.3396 9.7483C21.3935 9.72037 21.4513 9.6904 21.5162 9.65496C21.6431 9.58576 21.8432 9.47289 21.9633 9.30856C22.0338 9.21203 22.0968 9.07141 22.0772 8.89989C22.0584 8.73494 21.9707 8.60909 21.8825 8.52096C21.8678 8.50626 21.8421 8.46769 21.8336 8.37842C21.8252 8.28939 21.8374 8.17803 21.8701 8.06385C21.903 7.94913 21.9496 7.85517 21.9897 7.79913L21.9952 7.79168C22.162 7.75347 22.2661 7.63423 22.313 7.56992C22.3794 7.47885 22.4252 7.37183 22.4578 7.27425C22.5245 7.07431 22.5656 6.82297 22.5754 6.56929C22.5852 6.3151 22.5648 6.03329 22.4915 5.7756C22.4199 5.52411 22.2831 5.24534 22.0216 5.07098C21.8203 4.93678 21.5363 4.83424 21.2586 4.98851C21.024 5.11882 20.9316 5.36677 20.8888 5.52355C20.7995 5.85115 20.7996 6.2944 20.7997 6.57712L20.7997 6.6038C20.7997 6.72977 20.7887 6.78298 20.7822 6.80294L20.7763 6.8065C20.7419 6.82611 20.6711 6.85327 20.5175 6.88943C20.4051 6.91587 20.2722 6.94211 20.1048 6.97516C20.0478 6.98641 19.9868 6.99846 19.9213 7.01157C19.6153 7.07276 19.3718 7.19211 19.2047 7.38797C19.0383 7.58312 18.9929 7.80215 18.9767 7.964C18.9696 8.03526 18.9674 8.10579 18.9657 8.15928L18.9652 8.17598C18.9638 8.21891 18.9624 8.24944 18.9603 8.27328C18.9024 8.29602 18.8585 8.30238 18.7951 8.31156C18.7557 8.31726 18.7088 8.32406 18.6463 8.33657C18.5517 8.35547 18.4298 8.39122 18.3099 8.48293C18.1933 8.57209 18.1091 8.6906 18.0419 8.82491C17.925 9.05878 17.6993 9.2018 17.3462 9.38269C17.2604 8.80301 17.1708 8.45447 17.0711 8.20524C17.0096 8.05141 16.9471 7.94256 16.8904 7.85041L16.8547 7.79294C16.8165 7.73181 16.7883 7.68656 16.7575 7.62491C16.73 7.56998 16.6678 7.47316 16.556 7.41428L16.5732 7.39857C16.6068 7.36704 16.6608 7.31246 16.7009 7.23909C16.7379 7.17125 16.8173 6.97655 16.6841 6.78015C16.5774 6.62289 16.4114 6.59355 16.3634 6.58599C16.2377 6.56625 16.0826 6.58447 15.9339 6.60924ZM15.153 16.7668L15.1519 16.7679C15.1519 16.7679 15.1546 16.767 15.158 16.7642C15.1556 16.7653 15.153 16.7668 15.153 16.7668ZM20.1299 11.0603L20.1304 11.059C20.1304 11.059 20.1293 11.0602 20.1275 11.064L20.1299 11.0603ZM15.5387 8.07298C15.5975 8.03574 15.662 7.99624 15.7302 7.95497C15.6448 8.129 15.5522 8.34012 15.4613 8.54755L15.4086 8.6677C15.355 8.78955 15.3021 8.90842 15.2504 9.02021C15.2739 8.81717 15.3079 8.61313 15.3376 8.44051L15.3481 8.37996C15.3595 8.31449 15.3701 8.25324 15.3782 8.20234L15.3822 8.17714C15.4213 8.14902 15.4736 8.11425 15.5387 8.07298Z" fill="#21262A"/>
</svg>
