<svg width="60" height="60" viewBox="0 0 60 60" fill="none" xmlns="http://www.w3.org/2000/svg">
<path d="M32.5438 6.50911L14.0875 6.00039C13.5337 5.98512 13.073 6.42305 13.0602 6.97694L12.0003 52.9204C11.9882 53.4424 12.3742 53.8848 12.894 53.9343C15.6363 54.195 23.9495 54.9406 29.6506 54.9716C35.93 55.0058 45.1121 54.2062 48.0432 53.9342C48.5718 53.8852 48.9607 53.4301 48.9374 52.8997L47.3642 17.0666C47.3407 16.5318 46.9004 16.1104 46.3652 16.1104H34.5163C33.964 16.1104 33.5163 15.6627 33.5163 15.1104V7.50873C33.5163 6.96718 33.0852 6.52403 32.5438 6.50911Z" fill="#21262A"/>
<path fill-rule="evenodd" clip-rule="evenodd" d="M12.4155 5.27522C12.6083 5.09196 12.8661 4.99305 13.132 5.00038L33.5649 5.56359C34.1062 5.57851 34.5373 6.02165 34.5373 6.56321V15.1377H47.3433C47.8785 15.1377 48.3189 15.5591 48.3423 16.0938L49.999 53.8287C50.0223 54.3591 49.6271 54.8152 49.0987 54.8676L49 53.8725C49.0987 54.8676 49.0989 54.8676 49.0987 54.8676L48.9626 54.881C48.8738 54.8896 48.7429 54.9022 48.5738 54.9182C48.2356 54.9502 47.7446 54.9958 47.1319 55.0504C45.9067 55.1595 44.1942 55.3046 42.2445 55.4485C38.3526 55.7356 33.4879 56.0197 29.6662 55.9989C26.171 55.9799 21.7232 55.6958 18.1652 55.4186C16.3828 55.2797 14.8173 55.142 13.6973 55.039C13.1372 54.9875 12.6883 54.9447 12.3792 54.9147C12.2246 54.8997 12.1049 54.8879 12.0238 54.8799L11.8999 54.8675C11.8998 54.8675 11.8993 54.8674 12 53.8725L11.8999 54.8675C11.3804 54.8149 10.9882 54.3715 11.0003 53.8495L12.1047 5.97694C12.1109 5.71101 12.2227 5.45849 12.4155 5.27522ZM13.0212 52.9671C13.2655 52.9904 13.5539 53.0174 13.8804 53.0474C14.9934 53.1498 16.5494 53.2866 18.3205 53.4246C21.8697 53.7012 26.2577 53.9803 29.6771 53.999C33.4158 54.0193 38.2152 53.7403 42.0974 53.4539C44.0348 53.311 45.7368 53.1667 46.9544 53.0583C47.3409 53.0238 47.6786 52.993 47.9593 52.967L46.3862 17.1377H33.5373C32.985 17.1377 32.5373 16.69 32.5373 16.1377V7.53602L14.081 7.0273L13.0212 52.9671Z" fill="#21262A"/>
<path d="M30.16 36.7959V31.5039H28.108V36.6279C28.108 37.5399 27.676 38.3799 26.512 38.3799C25.36 38.3799 24.916 37.5399 24.916 36.6279V31.5039H22.876V36.7959C22.876 38.8359 24.268 40.2279 26.5 40.2279C28.72 40.2279 30.16 38.8359 30.16 36.7959Z" fill="#21262A"/>
<path d="M37.8554 33.2559V31.5039H31.0034V33.2559H33.4034V39.9999H35.4554V33.2559H37.8554Z" fill="#21262A"/>
</svg>
