<svg width="24" height="24" viewBox="0 0 24 24" fill="none" xmlns="http://www.w3.org/2000/svg">
    <path fill-rule="evenodd" clip-rule="evenodd" d="M5.25272 2.00015C5.14636 1.99722 5.04322 2.03678 4.9661 2.11009C4.88899 2.1834 4.84426 2.2844 4.8418 2.39077L4.40001 21.5398C4.39519 21.7486 4.55207 21.926 4.75987 21.947L4.80941 21.952L4.95157 21.9659C5.07523 21.9779 5.25478 21.995 5.47881 22.0156C5.92682 22.0568 6.553 22.1119 7.26597 22.1674C8.68919 22.2783 10.4683 22.392 11.8664 22.3996C13.3951 22.4079 15.341 22.2942 16.8977 22.1794C17.6776 22.1219 18.3626 22.0638 18.8527 22.0201C19.0977 21.9983 19.2941 21.9801 19.4294 21.9673L19.5849 21.9524L19.6394 21.9471C19.8507 21.9261 20.0088 21.7436 19.9995 21.5315L19.3368 6.43754C19.3274 6.22366 19.1513 6.05508 18.9372 6.05508H13.8148V2.62528C13.8148 2.40866 13.6424 2.2314 13.4259 2.22543L5.25272 2.00015ZM4.7999 21.549L4.75987 21.947C4.75987 21.947 4.75962 21.947 4.7999 21.549Z" fill="#21262A"/>
</svg>
