<svg width="60" height="60" viewBox="0 0 60 60" fill="none" xmlns="http://www.w3.org/2000/svg">
<path d="M46.264 7H21.2208C20.7904 7 20.411 7.2768 20.2463 7.67445C20.0398 8.17273 19.7627 8.73731 19.5001 9C19.0001 9.5 19.0001 12.5 19.0001 13.5C19.0001 14.5 21 18 20.5 19.5C20.1406 20.5784 20.0234 22.276 20.0033 23.2137C19.9993 23.4011 19.947 23.5834 19.8507 23.7442C19.0057 25.1558 17.746 27.7459 18.5 28.5C19.1383 29.1382 18.9703 33.0012 18.707 35.9761C18.6338 36.8033 19.7579 37.2962 20.3965 37.8272C20.8524 38.2063 21 38.9565 21 39.5L20.531 54.9769C20.514 55.538 20.9598 56.0031 21.5212 56.0086C25.9051 56.0515 33.1305 56.1947 33.5 56.5C30.5991 54.3243 31.8621 51.9842 33.1168 50.8208C33.3476 50.6068 33.4993 50.3157 33.504 50.0009C33.5259 48.5306 33.6444 46.067 34 45C34.5 43.5 33.5 41 34 39C34.5 37 37.5 33 38.5 31.5C39.5 30 40 27 40 26C40 25 39 23.5 39.5 22C40 20.5 48 20.5 46.5 16.5C45 12.5 47.5 10 48 9C48.3613 8.27757 47.3905 7.50078 46.7079 7.11146C46.5731 7.03455 46.4192 7 46.264 7Z" fill="#21262A"/>
<path d="M32.544 11H30.276L28.32 17.024H28.272L26.304 11H24L27.216 19.496H29.268L32.544 11Z" fill="#21262A"/>
<path d="M39.2717 12.752V11H32.4197V12.752H34.8197V19.496H36.8717V12.752H39.2717Z" fill="#21262A"/>
<path fill-rule="evenodd" clip-rule="evenodd" d="M19.5514 6.68377C19.6875 6.27543 20.0697 6 20.5001 6H46.5001C46.6554 6 46.8085 6.03615 46.9473 6.10557C47.3433 6.30354 47.9262 6.66545 48.3739 7.13492C48.7676 7.54785 49.4013 8.43374 48.8945 9.44721C48.7664 9.70341 48.5853 9.98095 48.3856 10.2869C47.549 11.5688 46.3867 13.3496 47.4364 16.1489C47.6763 16.7885 47.7502 17.4161 47.6316 18.017C47.5128 18.6184 47.2164 19.1156 46.8405 19.5183C46.1219 20.2882 45.052 20.7753 44.0944 21.1264C43.5988 21.3081 43.0926 21.467 42.6241 21.6111C42.5454 21.6353 42.4681 21.659 42.3922 21.6823C42.0068 21.8004 41.6567 21.9076 41.3403 22.0162C40.9561 22.148 40.6821 22.262 40.5038 22.3643C40.4664 22.3858 40.4386 22.4037 40.4186 22.4176C40.3045 22.8514 40.366 23.3325 40.5274 23.9244C40.5699 24.0804 40.6168 24.2357 40.6665 24.3984C40.672 24.4164 40.6776 24.4347 40.6832 24.453C40.7267 24.5953 40.7728 24.7462 40.8141 24.8926C40.9038 25.2107 41.0001 25.6038 41.0001 26C41.0001 26.6059 40.8581 27.6884 40.5985 28.7915C40.3412 29.8851 39.9338 31.1523 39.3322 32.0547C39.1146 32.3811 38.8459 32.7653 38.5426 33.199C38.0607 33.8882 37.4913 34.7024 36.9002 35.6088C36.4389 36.3162 36.0022 37.0249 35.6534 37.6706C35.2968 38.3307 35.0642 38.8669 34.9703 39.2425C34.7724 40.0341 34.864 40.9717 34.9933 42.0707C34.9964 42.0975 34.9996 42.1245 35.0028 42.1516C35.0612 42.6465 35.1238 43.1778 35.1402 43.6782C35.1574 44.2041 35.1282 44.778 34.9488 45.3162C34.794 45.7806 34.6733 46.7026 34.5976 47.7707C34.5246 48.8015 34.5001 49.8526 34.5001 50.5C34.5001 50.8148 34.3519 51.1111 34.1001 51.3C33.5427 51.7181 32.9413 52.4318 32.7774 53.1871C32.7007 53.5403 32.7166 53.9088 32.8827 54.2988C33.0515 54.6953 33.4017 55.1739 34.0893 55.6919C34.1052 55.7035 34.1211 55.7159 34.137 55.7291C34.5557 56.075 34.6218 56.6919 34.2858 57.1186C33.9949 57.4881 33.4948 57.598 33.0838 57.4094C33.0395 57.4008 32.97 57.3895 32.8704 57.3767C32.6239 57.3451 32.2694 57.314 31.8203 57.2844C30.9264 57.2255 29.7188 57.1764 28.3827 57.1365C25.7139 57.0567 22.5721 57.0144 20.4932 57C20.2239 56.9981 19.9668 56.8877 19.78 56.6938C19.5931 56.4999 19.4924 56.2388 19.5006 55.9697L20.0001 39.4864C19.9989 39.3154 19.9762 39.119 19.9272 38.9426C19.8749 38.7544 19.8104 38.6514 19.7706 38.6089C19.7694 38.6077 19.7683 38.6065 19.7673 38.6054C19.7533 38.5903 19.7512 38.588 19.7154 38.5873C19.6411 38.5859 19.4217 38.6132 19.0146 38.8575C18.6877 39.0537 18.2776 39.0468 17.9573 38.8399C17.6371 38.6329 17.4624 38.2618 17.507 37.8832C17.6715 36.4846 17.8684 34.3401 17.9256 32.4571C17.9543 31.5123 17.9468 30.6613 17.8885 30.013C17.8592 29.687 17.8195 29.4417 17.7757 29.2737C17.7591 29.2098 17.7451 29.1698 17.7366 29.1478C17.2653 28.6283 17.24 27.9426 17.2842 27.4746C17.3343 26.9448 17.503 26.3747 17.7019 25.8471C18.0598 24.8983 18.5833 23.9128 19.0032 23.2132C19.0228 22.2451 19.1416 20.4133 19.5514 19.1838C19.5889 19.0713 19.6068 18.7908 19.4983 18.277C19.3965 17.7951 19.2138 17.2404 18.9993 16.6582C18.8931 16.37 18.7827 16.0844 18.6739 15.8031L18.6702 15.7936C18.5639 15.5188 18.4581 15.2452 18.3655 14.9914C18.2723 14.7362 18.1855 14.4824 18.1212 14.2498C18.0613 14.0329 18.0001 13.7635 18.0001 13.5V13.4934C18.0001 12.9934 18.0001 11.9668 18.0649 10.996C18.0972 10.5109 18.1474 10.0112 18.2289 9.58537C18.2696 9.37311 18.3225 9.15467 18.3951 8.95472C18.4601 8.77564 18.5757 8.51021 18.793 8.29291C18.8545 8.2314 19.0006 8.00564 19.1799 7.61783C19.3411 7.26918 19.4779 6.9044 19.5514 6.68377ZM31.1138 55.2404C31.0888 55.188 31.0651 55.1353 31.0426 55.0824C30.7003 54.2787 30.6662 53.4847 30.8229 52.7629C31.0758 51.5974 31.8148 50.6473 32.5036 50.0269C32.5128 49.3616 32.5415 48.4913 32.6026 47.6293C32.6769 46.5807 32.8062 45.4194 33.0514 44.6838C33.122 44.472 33.1553 44.1709 33.1413 43.7437C33.1277 43.3303 33.0742 42.8756 33.0124 42.3501L33.0038 42.2772C32.8835 41.2552 32.7305 39.9553 33.03 38.7575C33.1861 38.1331 33.5159 37.4193 33.8937 36.72C34.2793 36.0063 34.7489 35.2463 35.225 34.5162C35.8078 33.6227 36.4652 32.6802 36.9778 31.9454C37.2672 31.5304 37.5105 31.1817 37.6681 30.9453C38.0664 30.3477 38.409 29.3649 38.6517 28.3335C38.8921 27.3116 39.0001 26.3941 39.0001 26C39.0001 25.8962 38.9714 25.7268 38.8892 25.4355C38.8543 25.3115 38.8149 25.1827 38.7704 25.0373C38.7649 25.0193 38.7593 25.001 38.7537 24.9825C38.7037 24.819 38.6491 24.6384 38.5979 24.4506C38.397 23.714 38.2048 22.7236 38.5514 21.6838C38.735 21.1332 39.1926 20.811 39.5081 20.6298C39.8572 20.4294 40.2785 20.2661 40.6912 20.1244C41.042 20.0041 41.4304 19.8851 41.8154 19.7672C41.8892 19.7446 41.9629 19.722 42.0363 19.6995C42.5014 19.5564 42.964 19.4107 43.4059 19.2486C44.3233 18.9122 45.0033 18.5555 45.3784 18.1536C45.5495 17.9704 45.6359 17.7995 45.6695 17.6295C45.7032 17.4589 45.6989 17.2115 45.5638 16.8511C44.1005 12.949 46.051 10.1121 46.8359 8.97065C46.9215 8.84614 46.9932 8.7418 47.0451 8.65845C47.0208 8.62287 46.9832 8.57468 46.9264 8.51508C46.7436 8.32334 46.4817 8.13709 46.2471 8H21.1937C21.1331 8.14839 21.0664 8.30336 20.9953 8.45717C20.8285 8.81784 20.5824 9.29742 20.2759 9.63502C20.2756 9.63569 20.2754 9.63638 20.2751 9.63707C20.252 9.7008 20.2229 9.80657 20.1932 9.96151C20.1342 10.27 20.0906 10.6766 20.0604 11.129C20.0004 12.0288 20.0001 12.9975 20.0001 13.5C20.0001 13.4971 20.0002 13.4975 20.0008 13.5018C20.0029 13.5172 20.0118 13.5824 20.049 13.717C20.0921 13.8731 20.1577 14.0685 20.2442 14.3055C20.3301 14.5409 20.43 14.7991 20.5393 15.0817C20.6472 15.3609 20.7634 15.6612 20.876 15.9668C21.099 16.5721 21.3225 17.2362 21.4551 17.8636C21.5809 18.4592 21.6613 19.1787 21.4488 19.8162C21.1038 20.8511 21.0001 22.677 21.0001 23.5C21.0001 23.6874 20.9474 23.8711 20.8481 24.03C20.4531 24.662 19.9134 25.6511 19.5733 26.5529C19.4014 27.0086 19.3013 27.3885 19.2754 27.6629C19.2657 27.7648 19.2682 27.8277 19.2718 27.8619C19.5245 28.1501 19.644 28.5118 19.7112 28.7697C19.7938 29.0867 19.8462 29.4531 19.8805 29.8339C19.9493 30.5991 19.9543 31.5418 19.9247 32.5179C19.8836 33.8684 19.7743 35.3363 19.6551 36.5879C19.6879 36.5871 19.7208 36.5871 19.7535 36.5877C20.3714 36.5995 20.8718 36.8593 21.2297 37.2411C21.868 37.9219 22.0001 38.9173 22.0001 39.5C22.0001 39.5101 22 39.5202 21.9997 39.5303L21.5306 55.0086C23.5465 55.0284 26.1629 55.0693 28.4425 55.1374C29.414 55.1664 30.3296 55.2006 31.1138 55.2404Z" fill="#21262A"/>
</svg>
