<svg width="24" height="24" viewBox="0 0 24 24" fill="none" xmlns="http://www.w3.org/2000/svg">
    <path d="M8.20014 2.39999C8.02797 2.39999 7.87512 2.51017 7.82067 2.6735C7.79125 2.76175 7.73656 2.90767 7.67208 3.04713C7.60035 3.20225 7.54191 3.29255 7.5173 3.31716C7.43039 3.40408 7.38414 3.51025 7.35814 3.58188C7.32911 3.66186 7.30793 3.74924 7.29167 3.83414C7.25905 4.00448 7.23898 4.20437 7.22604 4.39839C7.20015 4.78673 7.20015 5.19735 7.20015 5.39734V5.39999C7.20015 5.50539 7.22461 5.61315 7.24859 5.69991C7.27431 5.79295 7.30902 5.89446 7.34628 5.99654C7.38335 6.09806 7.42566 6.20748 7.46817 6.31739L7.46966 6.32123C7.51318 6.43376 7.55735 6.54801 7.59981 6.66327C7.68561 6.89617 7.75868 7.11803 7.79941 7.3108C7.84282 7.5163 7.83567 7.6285 7.82067 7.6735C7.65673 8.16532 7.60921 8.89803 7.60139 9.28528C7.43341 9.56513 7.22401 9.95929 7.08087 10.3389C7.00129 10.5499 6.93383 10.7779 6.9138 10.9898C6.89609 11.1771 6.90623 11.4513 7.09472 11.6591C7.09814 11.6679 7.10374 11.6839 7.1104 11.7095C7.12789 11.7767 7.14378 11.8748 7.1555 12.0052C7.17882 12.2645 7.18181 12.6049 7.17033 12.9829C7.14746 13.736 7.0687 14.5938 7.00288 15.1533C6.98506 15.3047 7.05494 15.4532 7.18303 15.5359C7.31113 15.6187 7.47516 15.6215 7.60594 15.543C7.76879 15.4453 7.85654 15.4344 7.88628 15.4349C7.90057 15.4352 7.90143 15.4361 7.907 15.4421L7.90833 15.4436C7.92425 15.4606 7.95007 15.5018 7.97099 15.5771C7.99059 15.6476 7.99967 15.7262 8.00013 15.7945L7.80033 22.3879C7.79707 22.4955 7.83736 22.6 7.91208 22.6775C7.98681 22.7551 8.08966 22.7992 8.19736 22.8C9.02893 22.8058 10.2856 22.8227 11.3532 22.8546C11.8876 22.8706 12.3707 22.8902 12.7282 22.9137C12.9079 22.9256 13.0497 22.938 13.1482 22.9507C13.1881 22.9558 13.2159 22.9603 13.2336 22.9638C13.398 23.0392 13.5981 22.9952 13.7144 22.8474C13.8488 22.6768 13.8224 22.43 13.6549 22.2916C13.6512 22.2886 13.6475 22.2856 13.6438 22.2828C13.6412 22.2807 13.6385 22.2787 13.6358 22.2767C13.3608 22.0696 13.2207 21.8781 13.1532 21.7195C13.0867 21.5635 13.0804 21.4161 13.111 21.2748C13.1766 20.9727 13.4172 20.6872 13.6401 20.52C13.7409 20.4445 13.8001 20.3259 13.8001 20.2C13.8001 19.941 13.8099 19.5206 13.8391 19.1083C13.8694 18.681 13.9177 18.3122 13.9796 18.1265C14.0514 17.9112 14.0631 17.6817 14.0562 17.4713C14.0496 17.2711 14.0246 17.0586 14.0012 16.8606L13.9974 16.8283C13.9457 16.3887 13.909 16.0136 13.9882 15.697C14.0258 15.5468 14.1188 15.3323 14.2614 15.0682C14.401 14.81 14.5757 14.5265 14.7602 14.2435C14.9966 13.8809 15.2244 13.5553 15.4171 13.2796C15.5384 13.1061 15.6459 12.9524 15.733 12.8219C15.9736 12.4609 16.1366 11.9541 16.2395 11.5166C16.3433 11.0754 16.4001 10.6423 16.4001 10.4C16.4001 10.2415 16.3616 10.0843 16.3258 9.95704C16.3092 9.89848 16.2908 9.83814 16.2734 9.78124L16.2667 9.75934C16.2468 9.69428 16.2281 9.63215 16.2111 9.56975C16.1465 9.333 16.1219 9.14054 16.1675 8.96705C16.1755 8.96149 16.1866 8.95433 16.2016 8.94572C16.2729 8.90479 16.3825 8.8592 16.5362 8.80647C16.6628 8.76304 16.8028 8.72013 16.957 8.6729L17.0498 8.64443C17.2371 8.58681 17.4396 8.52323 17.6378 8.45054C18.0209 8.3101 18.4489 8.11528 18.7363 7.8073C18.8867 7.64622 19.0052 7.44737 19.0527 7.20678C19.1002 6.96645 19.0706 6.71541 18.9747 6.45954C18.5548 5.33984 19.0197 4.62753 19.3543 4.11476C19.4342 3.99238 19.5067 3.88136 19.5579 3.77888C19.7606 3.37349 19.5071 3.01913 19.3496 2.85396C19.1706 2.66617 18.9374 2.52141 18.779 2.44222C18.7235 2.41445 18.6622 2.39999 18.6001 2.39999H8.20014Z" fill="#21262A"/>
</svg>
