<svg width="24" height="24" viewBox="0 0 24 24" fill="none" xmlns="http://www.w3.org/2000/svg">
    <path fill-rule="evenodd" clip-rule="evenodd" d="M16.6827 7.71714C16.558 7.5925 16.3665 7.56414 16.2111 7.64732C16.0557 7.73049 15.973 7.90559 16.0076 8.07843C16.0722 8.40154 15.9602 8.61866 15.7295 8.83012C15.6069 8.94255 15.4566 9.0459 15.2878 9.15141C15.2324 9.18605 15.1706 9.22349 15.1069 9.26202C14.9944 9.33013 14.8762 9.40168 14.778 9.46717C14.3837 9.73 14.0578 10.1432 13.8473 10.4676C13.7992 10.4281 13.7442 10.3787 13.6827 10.3171C13.6176 10.252 13.5214 10.1845 13.3926 10.1624C13.2594 10.1395 13.1418 10.1737 13.0537 10.2232C12.9027 10.3082 12.8078 10.4548 12.7525 10.5515C12.6298 10.7664 12.5185 11.0791 12.4204 11.3735C12.3846 11.4807 12.3501 11.5872 12.3162 11.6916C12.251 11.8927 12.1883 12.0863 12.1239 12.2633C12.0759 12.3953 12.0313 12.5058 11.9899 12.5911C11.9694 12.6334 11.9516 12.6655 11.937 12.6886C11.9216 12.7129 11.9144 12.7198 11.917 12.7171C11.8541 12.78 11.679 12.9085 11.4031 13.0778C11.1389 13.24 10.8116 13.4219 10.4709 13.5922C10.1297 13.7628 9.78163 13.9185 9.47506 14.0305C9.1553 14.1474 8.92447 14.2 8.79984 14.2C8.63868 14.2 8.51136 14.1222 8.40085 13.9798C8.28474 13.8301 8.21594 13.6409 8.19207 13.5215C8.16692 13.3958 8.08299 13.2897 7.96639 13.2363C7.84979 13.1829 7.71466 13.1887 7.60301 13.2518L3.00301 15.8518C2.84821 15.9393 2.76975 16.1184 2.81045 16.2915C2.85116 16.4646 3.00124 16.5901 3.17881 16.5994C5.70356 16.7323 11.0261 17 11.9998 17C12.6005 17 15.2039 17 17.658 16.9499C18.8843 16.9249 20.0788 16.8872 20.9691 16.8304C21.4123 16.8021 21.7903 16.7685 22.0618 16.7275C22.1945 16.7075 22.3201 16.6832 22.4197 16.6508C22.4668 16.6356 22.5337 16.6106 22.5966 16.5682C22.6443 16.5362 22.7998 16.4197 22.7998 16.2C22.7998 15.9894 22.6804 15.8435 22.594 15.7641C22.505 15.6823 22.3975 15.6204 22.3037 15.5735C22.1454 15.4943 21.948 15.4211 21.7788 15.3584L21.6903 15.3255C21.5949 15.2897 21.5156 15.2584 21.4518 15.2309C21.4987 15.1217 21.5211 15.009 21.5301 14.9066C21.5468 14.719 21.5232 14.524 21.4863 14.3479C21.4478 14.1641 21.3902 13.9802 21.3282 13.815C21.3752 13.7762 21.4178 13.7322 21.4557 13.6837C21.5963 13.5037 21.6568 13.2833 21.6735 13.0832C21.7057 12.6957 21.5849 12.2193 21.2827 11.9171C21.0155 11.65 20.5423 11.4261 20.108 11.2728C19.7791 11.1567 19.4194 11.0627 19.1064 11.0219C19.1189 10.9985 19.1325 10.974 19.1471 10.9484C19.239 10.7876 19.3559 10.6119 19.4702 10.4406L19.4833 10.4209C19.5851 10.2683 19.6962 10.1016 19.7576 9.97887C19.8822 9.72973 19.8312 9.4768 19.7317 9.28828C19.6348 9.10468 19.4786 8.94906 19.3101 8.82649C18.9725 8.58095 18.4912 8.39999 17.9998 8.39999C17.7819 8.39999 17.5211 8.30546 17.2609 8.15418C17.0064 8.00622 16.7935 7.828 16.6827 7.71714ZM14.0636 10.6078C14.0637 10.6079 14.0626 10.6076 14.0605 10.6069L14.0636 10.6078Z" fill="#21262A"/>
</svg>
