<svg width="60" height="60" viewBox="0 0 60 60" fill="none" xmlns="http://www.w3.org/2000/svg">
<path d="M44.9999 22.0002C44.5887 22.0002 41.9084 21.1424 41.4999 21.0002C40.5655 20.6749 40.6272 22.2754 39.8777 22.9212C39.1438 23.5536 38.2099 24.0269 37.4999 24.5002C36.5599 25.1269 35.763 26.2036 35.3016 26.9611C35.1046 27.2846 34.7555 27.4669 34.4334 27.2675C34.1867 27.1148 33.8722 26.8724 33.4999 26.5002C32.4999 25.5002 31.4999 31.5002 30.4999 32.5002C29.4999 33.5002 23.9999 36.5002 21.9999 36.5002C21.0567 36.5002 20.4146 35.9209 20.0123 35.2747C19.6527 34.6969 18.8905 34.3446 18.298 34.6795L10.9878 38.8114C10.117 39.3036 10.4282 40.6268 11.4271 40.678C18.2315 41.0264 27.9767 41.5002 29.9999 41.5002C32.9999 41.5002 55.9999 41.5002 55.9999 40.5002C55.9999 39.5002 51.4999 39.0002 52.4999 38.0002C52.9982 37.5019 52.8757 36.4604 52.5917 35.504C52.38 34.7914 52.9353 33.7388 53.1219 33.0192C53.3326 32.2061 53.0909 31.0912 52.4999 30.5002C51.4999 29.5002 48.4999 28.5002 46.9999 28.5002C45.4999 28.5002 47.9999 25.5002 48.4999 24.5002C48.9999 23.5002 46.9999 22.0002 44.9999 22.0002Z" fill="#21262A"/>
<path d="M18.5848 20.5039H16.3168L14.3608 26.5279H14.3128L12.3448 20.5039H10.0408L13.2568 28.9999H15.3088L18.5848 20.5039Z" fill="#21262A"/>
<path d="M26.9532 28.9999L23.4252 20.5039H21.4332L17.8692 28.9999H20.1012L20.7252 27.3319H24.0132L24.6732 28.9999H26.9532ZM23.4492 25.6879H21.3132L22.3932 22.7719L23.4492 25.6879Z" fill="#21262A"/>
<path fill-rule="evenodd" clip-rule="evenodd" d="M40.5282 19.1184C40.9167 18.9104 41.3956 18.9813 41.7072 19.2929C41.9843 19.57 42.5164 20.0156 43.1527 20.3855C43.8032 20.7637 44.4552 21 45.0001 21C46.2285 21 47.4317 21.4524 48.2758 22.0663C48.6971 22.3727 49.0875 22.7618 49.3298 23.2208C49.5785 23.6921 49.7059 24.3244 49.3945 24.9472C49.241 25.2542 48.9632 25.6707 48.7087 26.0523L48.6759 26.1016C48.3903 26.5299 48.0981 26.9691 47.8683 27.3712C47.8318 27.4351 47.7978 27.4964 47.7665 27.5549C48.549 27.6569 49.4481 27.8918 50.2704 28.182C51.3562 28.5653 52.5393 29.125 53.2072 29.7929C53.9627 30.5484 54.2649 31.7392 54.1841 32.7081C54.1424 33.2083 53.9913 33.7594 53.6397 34.2094C53.545 34.3306 53.4384 34.4407 53.321 34.5376C53.4759 34.9507 53.62 35.4103 53.7163 35.8698C53.8086 36.31 53.8675 36.7976 53.8258 37.2666C53.8031 37.5225 53.7472 37.8044 53.63 38.0774C53.7896 38.1461 53.9876 38.2242 54.2262 38.3137C54.297 38.3402 54.3711 38.3677 54.4474 38.396C54.8705 38.5529 55.3641 38.7359 55.7598 38.9337C55.9943 39.051 56.263 39.2058 56.4855 39.4103C56.7015 39.6089 57.0001 39.9735 57.0001 40.5C57.0001 41.0492 56.6112 41.3406 56.4921 41.4207C56.3348 41.5265 56.1676 41.589 56.0499 41.6272C55.8007 41.7081 55.4868 41.7689 55.155 41.8189C54.4763 41.9213 53.5313 42.0054 52.4232 42.0761C50.1976 42.2182 47.2112 42.3123 44.1455 42.3748C38.0103 42.5 31.5024 42.5 30.0008 42.5H30.0001C27.5657 42.5 14.2594 41.8308 7.94752 41.4986C7.50359 41.4753 7.12838 41.1617 7.02663 40.7289C6.92487 40.2962 7.12102 39.8482 7.50802 39.6295L19.008 33.1295C19.2871 32.9717 19.625 32.9573 19.9165 33.0908C20.208 33.2243 20.4178 33.4895 20.4807 33.8039C20.5403 34.1023 20.7123 34.5754 21.0026 34.9495C21.2789 35.3055 21.5972 35.5 22.0001 35.5C22.3117 35.5 22.8887 35.3685 23.6881 35.0764C24.4546 34.7963 25.3248 34.4071 26.1779 33.9806C27.0294 33.5548 27.8476 33.1 28.5083 32.6946C29.198 32.2713 29.6358 31.9501 29.793 31.7929C29.7864 31.7995 29.8044 31.7824 29.8429 31.7216C29.8795 31.6638 29.9239 31.5837 29.9753 31.4778C30.0787 31.2645 30.1903 30.9883 30.3103 30.6583C30.4712 30.2158 30.6281 29.7319 30.7911 29.2292C30.8757 28.9681 30.962 28.7019 31.0514 28.4338C31.2967 27.6978 31.5749 26.9161 31.8818 26.3789C32.02 26.1371 32.2572 25.7705 32.6348 25.5581C32.8549 25.4343 33.1491 25.3489 33.482 25.4061C33.804 25.4614 34.0444 25.6302 34.2072 25.7929C34.361 25.9467 34.4986 26.0703 34.6188 26.169C35.1449 25.358 35.9597 24.3251 36.9454 23.668C37.1909 23.5043 37.4863 23.3255 37.7676 23.1552C37.9268 23.0589 38.0815 22.9652 38.2201 22.8786C38.6421 22.6148 39.0178 22.3564 39.3244 22.0754C39.9011 21.5467 40.1811 21.0039 40.0195 20.1961C39.9331 19.764 40.1397 19.3263 40.5282 19.1184ZM35.1595 26.5197C35.1596 26.5198 35.1571 26.5191 35.1517 26.5172C35.1567 26.5186 35.1593 26.5195 35.1595 26.5197ZM53.1847 37.8402C53.1852 37.8402 53.19 37.844 53.1977 37.8516C53.188 37.8441 53.1842 37.8402 53.1847 37.8402ZM41.8302 21.9213C41.5801 22.5731 41.1554 23.1101 40.6758 23.5497C40.2324 23.9561 39.7331 24.2915 39.2801 24.5746C39.0818 24.6985 38.9035 24.8061 38.7373 24.9064C38.4918 25.0546 38.2728 25.1867 38.0548 25.3321C37.0696 25.9889 36.1991 27.338 35.8945 27.9472C35.7251 28.286 35.3789 28.5 35.0001 28.5C34.6416 28.5 34.275 28.3357 33.9793 28.1612C33.8082 28.0602 33.6223 27.9326 33.4229 27.7739C33.2791 28.1085 33.1215 28.5481 32.9488 29.0663C32.8713 29.2988 32.791 29.5462 32.7092 29.7984C32.5391 30.3226 32.3624 30.8674 32.1899 31.3418C32.0599 31.6993 31.9215 32.0481 31.7749 32.3504C31.6379 32.633 31.4542 32.9601 31.2072 33.2071C30.8644 33.5499 30.2396 33.9787 29.5543 34.3992C28.84 34.8376 27.9708 35.3202 27.0723 35.7695C26.1753 36.2179 25.2331 36.6412 24.3745 36.9549C23.5489 37.2566 22.6885 37.5 22.0001 37.5C20.803 37.5 19.9546 36.8612 19.4225 36.1756C19.2417 35.9425 19.09 35.6961 18.9648 35.4513L11.4842 39.6794C18.292 40.028 28.0057 40.5 30.0001 40.5C31.4999 40.5 37.9909 40.5 44.1047 40.3752C47.164 40.3128 50.1151 40.2194 52.2958 40.0802C52.5795 40.0621 52.8484 40.0433 53.1015 40.0238C52.7296 39.8749 52.3344 39.6955 52.0396 39.4826C51.8443 39.3415 51.5066 39.0576 51.3922 38.5921C51.2539 38.0287 51.5154 37.5736 51.7865 37.2995C51.7932 37.2877 51.8211 37.2318 51.8337 37.0897C51.8514 36.8899 51.8291 36.6151 51.7589 36.2802C51.6188 35.6122 51.3294 34.8948 51.1057 34.4472C50.9507 34.1373 50.9672 33.7691 51.1494 33.4743C51.3316 33.1795 51.6535 33 52.0001 33C52.0486 33 52.0516 32.9956 52.0591 32.9844C52.0604 32.9825 52.0618 32.9804 52.0636 32.9781C52.1026 32.9282 52.1702 32.7917 52.191 32.542C52.2353 32.0108 52.0375 31.4516 51.793 31.2071C51.4608 30.875 50.644 30.4348 49.6048 30.068C48.5882 29.7092 47.5864 29.5 47.0001 29.5C46.6692 29.5 46.2058 29.4181 45.864 29.0314C45.5258 28.6487 45.5071 28.1932 45.5368 27.911C45.5926 27.3812 45.8861 26.8089 46.1318 26.3789C46.399 25.9113 46.7272 25.419 47.0023 25.0064L47.0118 24.9922C47.2651 24.6122 47.4505 24.3315 47.5561 24.1452C47.4982 24.0408 47.3579 23.8718 47.0994 23.6838C46.5685 23.2976 45.7716 23 45.0001 23C43.9449 23 42.9303 22.5697 42.1475 22.1145C42.0392 22.0516 41.9333 21.987 41.8302 21.9213Z" fill="#21262A"/>
</svg>
