<svg width="60" height="60" viewBox="0 0 60 60" fill="none" xmlns="http://www.w3.org/2000/svg">
<path d="M35.67 14.467H19.4199C18.8676 14.467 18.42 14.9146 18.42 15.4668V19.467C18.42 19.8314 19.803 22.1596 20.6792 23.5793C20.8316 23.8262 20.871 24.1264 20.7856 24.4037L20.0491 26.7974C19.746 27.7824 18.3314 27.7205 18.1155 26.7128L17.5728 24.18C17.4817 23.7551 17.1271 23.4383 16.6953 23.3903C14.8909 23.1896 12.1172 22.8157 11.42 22.467C10.42 21.967 6.92 20.467 5.42 19.467C3.92 18.467 6.92 26.967 6.92 29.467C6.92 31.967 9.42 30.967 9.92 32.467C10.42 33.967 8.41998 34.467 8.92 34.967C9.42002 35.467 9.41998 35.967 8.41998 36.967C7.41998 37.967 9.41998 39.467 11.92 39.967C14.42 40.467 15.42 41.467 15.92 42.467C16.42 43.467 16.42 48.467 19.92 46.467C23.42 44.467 26.92 47.467 27.92 45.967C28.92 44.467 30.42 46.467 31.42 45.467C32.2097 44.6773 37.9365 43.173 40.8091 42.4932C40.8842 42.4754 40.9564 42.467 41.0335 42.467C45.5711 42.4636 54.5233 42.2603 54.92 41.467C55.2814 40.7443 54.3096 39.1509 53.6269 38.2354C53.4955 38.0591 53.4175 37.8479 53.4129 37.628L52.9411 14.9794C52.9295 14.4223 52.4652 13.9822 51.9083 14.0006C46.6314 14.1746 37.356 14.467 35.67 14.467Z" fill="#21262A"/>
<path d="M38.8469 24.5039H36.7109L35.3429 30.1559H35.3069L33.7829 24.5039H31.6469L30.1349 30.1559H30.0989L28.7549 24.5039H26.5469L28.9589 32.9999H30.9989L32.6789 27.2519H32.7149L34.3949 32.9999H36.4229L38.8469 24.5039Z" fill="#21262A"/>
<path d="M47.6269 32.9999L44.0989 24.5039H42.1069L38.5429 32.9999H40.7749L41.3989 31.3319H44.6869L45.3469 32.9999H47.6269ZM44.1229 29.6879H41.9869L43.0669 26.7719L44.1229 29.6879Z" fill="#21262A"/>
<path fill-rule="evenodd" clip-rule="evenodd" d="M53.6077 13.274C53.8018 13.4579 53.9142 13.7118 53.9198 13.9792L54.4129 37.6496C54.7473 38.096 55.1496 38.6971 55.4611 39.3087C55.6506 39.6808 55.8268 40.096 55.9222 40.5066C56.0112 40.89 56.0696 41.4368 55.8144 41.9472C55.6396 42.2967 55.3331 42.4668 55.1978 42.5353C55.0248 42.6229 54.8337 42.6869 54.6553 42.7363C54.2938 42.8365 53.8351 42.9171 53.3293 42.9849C52.3089 43.1216 50.9612 43.2232 49.5094 43.2987C46.6482 43.4473 43.2964 43.4983 41.0366 43.5C39.6309 43.8327 37.5382 44.364 35.6904 44.9091C34.7398 45.1896 33.8698 45.4691 33.1964 45.7231C32.8589 45.8505 32.5864 45.9656 32.3845 46.0653C32.2266 46.1434 32.1529 46.1924 32.1301 46.2075C32.1199 46.2143 32.1199 46.2143 32.1271 46.2071C31.6244 46.7098 31.0304 46.8268 30.5131 46.786C30.1411 46.7566 29.752 46.6352 29.4983 46.556C29.4557 46.5427 29.4169 46.5306 29.3826 46.5203C29.0654 46.4251 28.9402 46.413 28.8786 46.4211C28.8669 46.4227 28.8673 46.4235 28.8643 46.4254C28.8577 46.4298 28.8162 46.4584 28.752 46.5547C28.1997 47.3832 27.3173 47.4755 26.6659 47.4269C26.1849 47.391 25.6118 47.2596 25.0806 47.1379C24.9311 47.1036 24.7849 47.0701 24.645 47.0397C23.2476 46.7359 21.8225 46.5646 20.4161 47.3682C19.3996 47.9491 18.4077 48.1496 17.5123 47.7858C16.6556 47.4378 16.1703 46.6818 15.8812 46.0311C15.585 45.3649 15.4113 44.6177 15.2863 44.0395C15.2657 43.9439 15.2467 43.8546 15.2288 43.7705C15.1891 43.5833 15.1547 43.4217 15.1193 43.2738C15.0946 43.1706 15.0731 43.0902 15.054 43.0287C15.0356 42.9696 15.0251 42.9465 15.0252 42.9465C15.0249 42.946 15.0252 42.9465 15.0252 42.9465C14.6896 42.2753 13.9843 41.4327 11.7239 40.9806C10.361 40.708 9.07118 40.1544 8.22424 39.4615C7.81006 39.1226 7.40258 38.6694 7.23488 38.1053C7.04066 37.452 7.21266 36.7931 7.71287 36.2929C7.93722 36.0685 8.07816 35.8989 8.16337 35.7736C8.18191 35.7464 8.19672 35.7228 8.20852 35.7027C7.98441 35.4765 7.80614 35.1368 7.84402 34.72C7.87579 34.3704 8.05044 34.1186 8.14626 33.9954C8.25106 33.8607 8.37395 33.7416 8.45843 33.661C8.49328 33.6278 8.52416 33.5987 8.55298 33.5716C8.60939 33.5185 8.65791 33.4729 8.71288 33.4179C8.87122 33.2596 8.94635 33.1533 8.97969 33.0724C8.9991 33.0252 9.01926 32.9601 8.97131 32.8162C8.9526 32.7601 8.93171 32.7156 8.78399 32.6398C8.6411 32.5665 8.5154 32.5255 8.33135 32.4654C8.21447 32.4273 8.07405 32.3814 7.89075 32.3148C7.50499 32.1745 6.97535 31.9466 6.56066 31.465C6.12439 30.9584 5.91999 30.2994 5.91999 29.5C5.91999 29.0053 5.76121 28.1135 5.49962 26.9641C5.33287 26.2314 5.13857 25.4515 4.9441 24.671C4.83999 24.2531 4.73584 23.835 4.63583 23.4239C4.35772 22.2805 4.1051 21.1656 4.02663 20.3897C4.00647 20.1903 3.99499 19.9886 4.00213 19.7996C4.00859 19.6284 4.03227 19.3817 4.13661 19.1415C4.25282 18.8741 4.53368 18.4976 5.05945 18.4286C5.48453 18.3727 5.81703 18.5628 5.9747 18.668C6.65483 19.1214 7.83993 19.7174 9.03557 20.2838C9.56534 20.5347 10.1043 20.783 10.5805 21.0023C11.1302 21.2554 11.5961 21.47 11.8672 21.6056C11.9374 21.6407 12.1885 21.7218 12.6678 21.8233C13.1102 21.9169 13.6572 22.0104 14.2437 22.0986C15.4148 22.2747 16.6977 22.4228 17.5195 22.505C17.9518 22.5482 18.3067 22.8656 18.3978 23.2905L19.0933 26.5363L19.8304 24.1409C19.4306 23.4933 18.9254 22.6569 18.49 21.8974C18.2263 21.4376 17.9815 20.9943 17.8001 20.6338C17.7101 20.455 17.6282 20.2816 17.5664 20.1289C17.5356 20.053 17.5041 19.9682 17.4789 19.8817C17.4586 19.8121 17.42 19.6688 17.42 19.5V14.5C17.42 13.9477 17.8677 13.5 18.42 13.5H35.67C37.4482 13.5 47.8727 13.1677 52.8867 13.0006C53.1539 12.9916 53.4136 13.0901 53.6077 13.274ZM51.9413 15.033C46.6725 15.2067 37.3761 15.5 35.67 15.5H19.42V19.3771C19.42 19.3772 19.42 19.378 19.4201 19.3781C19.4526 19.4585 19.5074 19.5773 19.5867 19.735C19.7439 20.0474 19.9678 20.4541 20.225 20.9026C20.7375 21.7964 21.3554 22.81 21.768 23.47C21.9218 23.7161 21.9611 24.0168 21.8758 24.2941L19.8758 30.7941C19.7419 31.2292 19.3311 31.5189 18.8763 31.499C18.4215 31.4792 18.0376 31.1546 17.9422 30.7095L16.594 24.4181C15.8127 24.3313 14.8503 24.2123 13.9463 24.0764C13.341 23.9854 12.7506 23.8851 12.2534 23.7799C11.7931 23.6824 11.3026 23.5593 10.9728 23.3944C10.7162 23.2662 10.3055 23.0773 9.79725 22.8435C9.32667 22.6271 8.77243 22.3721 8.1794 22.0912C7.51118 21.7747 6.79945 21.4276 6.15891 21.0867C6.26191 21.6142 6.4082 22.2483 6.57916 22.9511C6.67339 23.3385 6.77457 23.7448 6.87732 24.1573C7.0752 24.9517 7.27887 25.7694 7.44975 26.5203C7.70378 27.6365 7.91999 28.7447 7.91999 29.5C7.91999 29.9506 8.0281 30.1041 8.0762 30.16C8.14589 30.2409 8.2725 30.3255 8.57424 30.4352C8.62659 30.4542 8.69755 30.4777 8.78038 30.5052C9.0386 30.5906 9.41213 30.7143 9.69662 30.8602C10.1583 31.0969 10.6374 31.4899 10.8687 32.1838C11.0707 32.7899 11.0284 33.3498 10.829 33.8339C10.6436 34.2842 10.3438 34.6154 10.1271 34.8321C10.1076 34.8516 10.0875 34.8714 10.0674 34.8909C10.2208 35.1998 10.3003 35.5723 10.2131 36.0086C10.0945 36.6016 9.68924 37.1324 9.20625 37.627C9.21063 37.633 9.21533 37.6393 9.2204 37.6458C9.27657 37.7186 9.36396 37.8098 9.49071 37.9135C10.0188 38.3456 10.979 38.792 12.1161 39.0194C14.8557 39.5673 16.15 40.724 16.8144 42.0528C16.9337 42.2915 17.0099 42.5808 17.0644 42.8083C17.106 42.9823 17.1489 43.1838 17.1913 43.3835C17.208 43.4622 17.2246 43.5405 17.2411 43.6168C17.3661 44.1948 17.5049 44.7601 17.7088 45.2189C17.9196 45.6932 18.1218 45.8747 18.2651 45.9329C18.3698 45.9754 18.6903 46.0509 19.4238 45.6318C21.5174 44.4354 23.5923 44.7641 25.0699 45.0853C25.2819 45.1314 25.4738 45.1752 25.6493 45.2152C26.1367 45.3264 26.4981 45.4088 26.8147 45.4325C26.9766 45.4445 27.0631 45.4338 27.1014 45.4252C27.4907 44.8514 28.0094 44.5183 28.6176 44.4382C29.1497 44.3682 29.6496 44.5124 29.9573 44.6047C30.0275 44.6257 30.0904 44.6449 30.1473 44.6622C30.4046 44.7406 30.5402 44.7819 30.6706 44.7922C30.6895 44.7937 30.7032 44.7938 30.7123 44.7935C30.712 44.7937 30.7125 44.7933 30.7123 44.7935C30.9355 44.5703 31.2422 44.3989 31.4988 44.2722C31.7819 44.1323 32.1212 43.9912 32.4904 43.8519C33.2306 43.5726 34.1543 43.2771 35.1245 42.9909C37.0684 42.4174 39.2624 41.8627 40.6909 41.5266C40.766 41.5089 40.8429 41.5 40.92 41.5C43.16 41.5 46.5414 41.4501 49.4056 41.3013C50.8412 41.2268 52.1248 41.1284 53.0638 41.0026C53.4303 40.9535 53.7246 40.9027 53.9456 40.8527C53.8934 40.6779 53.8042 40.4625 53.6789 40.2163C53.3766 39.6228 52.9436 39.0053 52.6391 38.6247C52.5017 38.453 52.4248 38.2407 52.4202 38.0208L51.9413 15.033Z" fill="#21262A"/>
</svg>
