<svg width="24" height="24" viewBox="0 0 24 24" fill="none" xmlns="http://www.w3.org/2000/svg">
    <path d="M21.568 5.59167C21.5658 5.48474 21.5208 5.38316 21.4432 5.3096C21.3655 5.23605 21.2617 5.19666 21.1548 5.20022C19.1492 5.26708 14.9794 5.4 14.2681 5.4H7.36809C7.14717 5.4 6.96809 5.57909 6.96809 5.8V7.8C6.96809 7.86754 6.98352 7.92483 6.99165 7.9527C7.00173 7.98727 7.01433 8.02118 7.02664 8.05157C7.05137 8.11263 7.08415 8.182 7.12014 8.25352C7.19269 8.39773 7.29061 8.57503 7.39608 8.75897C7.57027 9.06275 7.77234 9.39731 7.93224 9.65636L7.63742 10.6145L7.35921 9.31619C7.32279 9.14626 7.18082 9.01928 7.00789 9.00199C6.67919 8.96912 6.16601 8.90988 5.69756 8.83945C5.46299 8.80418 5.24418 8.76678 5.0672 8.7293C4.87549 8.68871 4.77506 8.65627 4.74697 8.64223C4.63853 8.58801 4.45217 8.50218 4.23229 8.4009C4.04184 8.31319 3.82623 8.21388 3.61433 8.11351C3.13607 7.88696 2.66203 7.64855 2.38998 7.46718C2.32691 7.42514 2.19391 7.3491 2.02388 7.37142C1.81357 7.39904 1.70122 7.54964 1.65474 7.65662C1.61301 7.75268 1.60353 7.85136 1.60095 7.91982C1.59809 7.99543 1.60269 8.07612 1.61075 8.15587C1.64214 8.46626 1.74318 8.9122 1.85443 9.36954C1.89443 9.534 1.9361 9.70123 1.97774 9.86838C2.05553 10.1806 2.13324 10.4926 2.19994 10.7856C2.30458 11.2454 2.3681 11.6021 2.3681 11.8C2.3681 12.1198 2.44985 12.3834 2.62436 12.586C2.79024 12.7786 3.0021 12.8698 3.1564 12.9259C3.22971 12.9526 3.28588 12.9709 3.33263 12.9862C3.40625 13.0102 3.45654 13.0266 3.51369 13.0559C3.57278 13.0862 3.58114 13.104 3.58862 13.1265C3.6078 13.184 3.59974 13.2101 3.59197 13.2289C3.57864 13.2613 3.54858 13.3038 3.48525 13.3672C3.46327 13.3891 3.44386 13.4074 3.42131 13.4286L3.38347 13.4644C3.34968 13.4966 3.30052 13.5443 3.2586 13.5982C3.22027 13.6475 3.15041 13.7482 3.1377 13.888C3.12255 14.0547 3.19386 14.1906 3.2835 14.2811C3.27878 14.2891 3.27286 14.2985 3.26545 14.3094C3.23136 14.3596 3.17499 14.4274 3.08524 14.5172C2.88516 14.7172 2.81636 14.9808 2.89405 15.2421C2.96113 15.4678 3.12412 15.649 3.28979 15.7846C3.62857 16.0618 4.14448 16.2832 4.68964 16.3922C5.59381 16.5731 5.87592 16.9101 6.01016 17.1786C6.01015 17.1785 6.01016 17.1786 6.01016 17.1786C6.0105 17.1794 6.01467 17.1889 6.02168 17.2115C6.02934 17.2361 6.03794 17.2682 6.04782 17.3095C6.06198 17.3687 6.07572 17.4333 6.09162 17.5082L6.11462 17.6158C6.16463 17.8471 6.23411 18.1459 6.35256 18.4125C6.46823 18.6727 6.66234 18.9751 7.00504 19.1143C7.36318 19.2598 7.75995 19.1796 8.16654 18.9473C8.7291 18.6258 9.29914 18.6944 9.85812 18.8159C9.91401 18.828 9.97243 18.8414 10.0322 18.8551C10.2447 18.9038 10.4741 18.9564 10.6664 18.9708C10.927 18.9902 11.28 18.9533 11.5009 18.6219C11.5266 18.5834 11.5432 18.5719 11.5458 18.5702C11.5457 18.5703 11.546 18.5701 11.5458 18.5702C11.5466 18.5696 11.5475 18.569 11.5515 18.5685C11.5762 18.5652 11.6262 18.5701 11.7531 18.6081C11.7603 18.6103 11.7679 18.6126 11.7759 18.6151C11.7834 18.6174 11.7912 18.6198 11.7994 18.6224C11.9009 18.6541 12.0565 18.7026 12.2054 18.7144C12.4123 18.7307 12.6499 18.6839 12.8509 18.4828C12.8481 18.4857 12.8481 18.4857 12.8521 18.483C12.8612 18.4769 12.8907 18.4573 12.9539 18.4261C13.0347 18.3862 13.1437 18.3402 13.2787 18.2892C13.548 18.1876 13.896 18.0758 14.2763 17.9637C15.0154 17.7456 15.8525 17.5331 16.4147 17.4C17.3186 17.3993 18.6594 17.3789 19.8038 17.3195C20.3846 17.2893 20.9237 17.2486 21.3318 17.194C21.5341 17.1669 21.7176 17.1346 21.8622 17.0945C21.9336 17.0747 22.01 17.0492 22.0792 17.0141C22.1333 16.9867 22.256 16.9187 22.3259 16.7789C22.4279 16.5747 22.4046 16.356 22.369 16.2026C22.3308 16.0384 22.2603 15.8723 22.1845 15.7235C22.0599 15.4789 21.899 15.2384 21.7653 15.0598L21.568 5.59167Z" fill="#21262A"/>
</svg>
