<svg width="60" height="60" viewBox="0 0 60 60" fill="none" xmlns="http://www.w3.org/2000/svg">
<path d="M37.8337 19.155H28.4669C27.9146 19.155 27.4669 18.7073 27.4669 18.155L27.4669 7.85588C27.4669 7.29329 26.6922 7 26.1296 7C25.461 7 24.7923 15.7786 24.1237 18.4798C23.4551 21.1809 21.4492 21.8562 20.1119 23.2067C17.7422 25.5999 16.7823 22.5749 14.1508 26.498C14.1142 26.5525 14.0703 26.6058 14.027 26.6553C13.1133 27.6983 13.1644 30.2233 12.7569 30.6348C11.4196 31.9854 12.0483 28.9567 10.751 29.2842C8.07645 29.9595 8.74507 34.0112 8.07645 35.3618C7.40782 36.7123 4.35783 37.9328 4.06461 39.4134C3.39597 42.7898 8.07643 48.1921 10.751 51.5685C13.4255 54.9449 16.7687 54.2696 18.106 54.2696C19.4433 54.2696 26.2835 51.7766 28.1356 50.2179C31.72 47.2012 34.4148 40.9502 36.22 36.7628L36.2435 36.7083C36.5228 36.0605 37.3353 35.9369 37.8756 36.3905C38.483 36.9005 39.2788 37.3876 40.171 37.3876C41.5742 37.3876 42.5683 34.6342 42.796 33.19C42.8478 32.8613 43.0042 32.5319 43.3127 32.4074C43.7272 32.2401 44.099 32.2387 44.8515 31.9854C46.6389 31.3836 49.3113 27.2072 50.976 24.2342C51.2766 23.6974 51.982 23.5432 52.4725 23.9146L55.6771 26.342C56.2496 26.7757 57.032 26.4664 56.9866 25.7496C56.9171 24.6505 56.5607 23.2176 55.5497 21.8562C54.068 19.861 51.7123 20.7826 50.4825 21.6444C50.2952 21.7757 50.0755 21.8555 49.8486 21.8268C48.8214 21.697 46.4553 21.1809 45.5201 21.1809C44.6771 21.1809 42.395 23.8362 40.3747 25.8433C39.7783 26.4358 38.8337 26.0056 38.8337 25.1649L38.8337 20.155C38.8337 19.6028 38.386 19.155 37.8337 19.155Z" fill="#21262A"/>
<path fill-rule="evenodd" clip-rule="evenodd" d="M27.8474 5.07521C28.2222 5.22941 28.467 5.59467 28.467 6.00003L28.4669 17.8303H38.8338C39.386 17.8303 39.8338 18.2781 39.8338 18.8303L39.8338 24.6457C40.257 24.2207 40.6956 23.7652 41.137 23.3067C41.3894 23.0445 41.6429 22.7813 41.8948 22.5223C42.5244 21.8752 43.1465 21.2542 43.6884 20.7919C43.9584 20.5614 44.2341 20.3482 44.4999 20.1876C44.7328 20.0469 45.1005 19.8562 45.5201 19.8562C46.1647 19.8562 47.2727 20.0475 48.1853 20.2092C48.2998 20.2295 48.4126 20.2496 48.5231 20.2693C48.8791 20.3327 49.2107 20.3919 49.4993 20.4391C49.6553 20.4647 49.7922 20.4856 49.908 20.5013C50.5658 20.0403 51.5057 19.5584 52.5352 19.3957C53.8192 19.1929 55.2833 19.4955 56.3525 20.9353C58.163 23.3732 58.1404 26.032 57.8577 27.174C57.7769 27.5004 57.5374 27.7644 57.2204 27.8765C56.9034 27.9886 56.5512 27.9339 56.2832 27.7308L51.8589 24.3797C51.1146 25.7099 50.1677 27.2849 49.18 28.6904C48.5521 29.584 47.8929 30.4305 47.2456 31.1069C46.6245 31.7561 45.9134 32.3583 45.1706 32.6084C44.7242 32.7587 44.3683 32.8372 44.1227 32.8914C44.0581 32.9057 44.001 32.9182 43.952 32.93C43.8933 32.9441 43.8408 32.9577 43.7909 32.9732C43.6794 33.7175 43.4036 34.683 43.0222 35.5315C42.7651 36.1033 42.4287 36.6945 42.0028 37.1587C41.584 37.615 40.9689 38.0629 40.1711 38.0629C39.0448 38.0629 38.1041 37.5156 37.4514 37.0085C37.3526 36.9318 37.2567 36.8528 37.1645 36.7734C37.1584 36.7877 37.1522 36.8019 37.1461 36.8162C36.3504 38.6623 35.3634 40.9519 34.2047 43.1798C32.7429 45.9904 30.942 48.8383 28.7795 50.6583C28.2179 51.131 27.3501 51.6229 26.4159 52.0815C25.461 52.5503 24.363 53.0194 23.2895 53.4359C22.2157 53.8524 21.1525 54.2217 20.2648 54.4887C19.8215 54.622 19.4128 54.7325 19.0631 54.8107C18.7333 54.8844 18.3898 54.9449 18.106 54.9449C17.9734 54.9449 17.8038 54.9549 17.6028 54.9668C16.0572 55.0579 12.6555 55.2585 9.96714 51.8647C9.72695 51.5615 9.46749 51.2383 9.19495 50.8987C7.97924 49.3843 6.50312 47.5454 5.3147 45.7097C4.58447 44.5818 3.93646 43.4165 3.51451 42.2878C3.09681 41.1704 2.86544 39.9966 3.08369 38.8945C3.21349 38.2391 3.62118 37.7138 4.00774 37.3202C4.40491 36.9158 4.89087 36.5418 5.33154 36.2128C5.42517 36.1429 5.51666 36.0751 5.60596 36.0089C5.95969 35.7467 6.27902 35.51 6.56043 35.2704C6.92224 34.9622 7.10715 34.7411 7.18029 34.5934C7.25992 34.4326 7.33117 34.0988 7.40819 33.4876C7.42298 33.3703 7.43786 33.2445 7.45346 33.1126C7.50968 32.6374 7.57536 32.0822 7.68058 31.5508C7.9433 30.2242 8.55862 28.4817 10.5062 27.99C10.8454 27.9043 11.2124 27.9098 11.5619 28.0655C11.8444 28.1914 12.0444 28.384 12.1836 28.5665C12.1981 28.4865 12.2137 28.4019 12.2308 28.3117C12.3132 27.8791 12.4216 27.3842 12.586 26.9185C12.7364 26.4923 12.9576 26.0196 13.3085 25.634C13.9986 24.6019 14.6383 23.9292 15.2927 23.5153C15.9952 23.0711 16.6315 22.978 17.1694 22.9556C17.3573 22.9477 17.5071 22.9462 17.6353 22.9449C17.9025 22.9421 18.0761 22.9403 18.3058 22.8847C18.5642 22.8222 18.9131 22.6716 19.4013 22.1784C19.7891 21.7868 20.2146 21.4548 20.6017 21.159C20.6497 21.1223 20.6971 21.0862 20.7438 21.0505C21.0887 20.7877 21.4018 20.5491 21.7005 20.2809C22.3447 19.7026 22.8786 19.0235 23.153 17.9148C23.4113 16.8716 23.6744 14.8325 23.9481 12.7115C24.0099 12.2321 24.0723 11.7486 24.1353 11.2714C24.3022 10.0072 24.4728 8.79778 24.6464 7.89948C24.7319 7.4566 24.8258 7.04802 24.9324 6.73529C24.9833 6.58581 25.0561 6.40022 25.1633 6.2335C25.2236 6.13982 25.5263 5.67531 26.1297 5.67531C26.1294 5.67531 26.1293 5.67531 26.1293 5.67531C26.1293 5.67524 26.1544 5.67415 26.2079 5.65575C26.2639 5.63649 26.3324 5.60471 26.409 5.55975C26.568 5.46638 26.7008 5.35251 26.7564 5.29643C27.0416 5.00838 27.4725 4.92101 27.8474 5.07521ZM11.938 29.7555C11.9379 29.7552 11.9395 29.7512 11.943 29.7441C11.9398 29.7522 11.9381 29.7557 11.938 29.7555ZM12.7763 29.9533C12.7844 29.9668 12.7839 29.969 12.7765 29.9537C12.7764 29.9536 12.7764 29.9534 12.7763 29.9533ZM26.4669 9.09412C26.3523 9.80189 26.2361 10.6392 26.1181 11.5332C26.0595 11.9774 26.0002 12.4373 25.9405 12.9012C25.6673 15.0231 25.3833 17.2283 25.0944 18.3954C24.7003 19.9878 23.8969 20.9968 23.0366 21.7691C22.6735 22.0951 22.2924 22.3853 21.9533 22.6435C21.9067 22.6789 21.861 22.7138 21.8161 22.748C21.4301 23.0431 21.1034 23.3019 20.8225 23.5856C20.1175 24.2977 19.4518 24.6652 18.776 24.8286C18.3056 24.9424 17.8085 24.9469 17.4767 24.9498C17.3894 24.9506 17.3136 24.9513 17.2527 24.9538C16.9188 24.9678 16.6653 25.0136 16.3617 25.2057C16.0253 25.4184 15.5572 25.8573 14.9288 26.8093C14.8926 26.8642 14.851 26.9153 14.8048 26.962C14.7079 27.0598 14.5888 27.253 14.472 27.5841C14.3586 27.9054 14.2724 28.2823 14.1955 28.6858C14.1685 28.828 14.1399 28.9897 14.111 29.1533C14.0674 29.4003 14.023 29.6515 13.982 29.8458C13.9448 30.0218 13.8987 30.2121 13.8375 30.3867C13.7851 30.5361 13.6811 30.798 13.4675 31.0137C13.2649 31.2184 13.0176 31.4278 12.7236 31.5499C12.3831 31.6914 11.9514 31.7208 11.5504 31.4821C11.2215 31.2864 11.0555 30.9884 10.9768 30.8261C10.89 30.647 10.8278 30.4543 10.7851 30.3185L10.7841 30.3152C10.7481 30.2009 10.7198 30.1108 10.6964 30.039C10.158 30.3081 9.84612 30.9111 9.64248 31.9393C9.5539 32.3866 9.50061 32.8358 9.44568 33.2986C9.42849 33.4435 9.41114 33.5897 9.3925 33.7377C9.32326 34.2871 9.22735 34.9663 8.97267 35.4807C8.71149 36.0083 8.26442 36.4462 7.85714 36.793C7.51883 37.0811 7.12934 37.3696 6.77092 37.6351C6.68795 37.6965 6.60664 37.7567 6.52802 37.8154C6.08596 38.1455 5.71266 38.4386 5.4346 38.7217C5.14592 39.0156 5.06241 39.1981 5.04559 39.283C4.92952 39.8691 5.03246 40.6367 5.38788 41.5874C5.73904 42.5267 6.30293 43.5561 6.99356 44.6228C8.12052 46.3635 9.51468 48.101 10.729 49.6143C11.009 49.9633 11.2795 50.3004 11.5349 50.6229C13.5374 53.1509 15.8599 53.0413 17.4351 52.967C17.6778 52.9555 17.9027 52.9449 18.106 52.9449C18.1565 52.9449 18.3193 52.9275 18.6268 52.8588C18.9144 52.7946 19.2739 52.6982 19.6889 52.5734C20.5178 52.3241 21.5311 51.9728 22.5661 51.5713C23.6012 51.1697 24.6441 50.7233 25.5345 50.2862C26.4455 49.839 27.1273 49.4348 27.4917 49.1281C29.341 47.5717 30.9947 45.0174 32.4303 42.257C33.5517 40.1008 34.4999 37.9017 35.2939 36.0601C35.5116 35.5552 35.7177 35.0772 35.9126 34.6343C36.0459 34.3313 36.3205 34.114 36.6459 34.0538C36.9714 33.9935 37.3056 34.0983 37.5385 34.3335C37.6066 34.4023 37.6784 34.4784 37.7551 34.5598C37.9976 34.8172 38.2901 35.1275 38.6783 35.4291C39.1845 35.8224 39.6926 36.0629 40.1711 36.0629C40.1756 36.0629 40.296 36.0606 40.5291 35.8065C40.7551 35.5602 40.9871 35.1807 41.198 34.7114C41.6302 33.7502 41.8456 32.7119 41.8456 32.3359C41.8456 32.0032 42.0111 31.6923 42.2871 31.5064C42.7449 31.1982 43.1109 31.0751 43.4854 30.9852C43.5751 30.9637 43.6582 30.9452 43.7401 30.9271C43.9746 30.8751 44.198 30.8255 44.5325 30.7129C44.7926 30.6254 45.2237 30.3272 45.8005 29.7243C46.3513 29.1487 46.9457 28.3914 47.5437 27.5405C48.7339 25.8467 49.879 23.8668 50.6478 22.4259C50.5098 22.4949 50.3568 22.5315 50.2006 22.5315C49.9363 22.5315 49.5418 22.4727 49.176 22.4128C48.8722 22.3631 48.5208 22.3004 48.1615 22.2363C48.0535 22.2171 47.9447 22.1977 47.8363 22.1785C46.9071 22.0139 46.0613 21.8751 45.6079 21.858C45.59 21.8671 45.5655 21.8804 45.5342 21.8994C45.4013 21.9797 45.2194 22.1146 44.9866 22.3133C44.5227 22.7091 43.958 23.2698 43.3283 23.917C43.1013 24.1503 42.8656 24.3953 42.6247 24.6458C41.5715 25.7405 40.4191 26.9384 39.4622 27.7116C39.1625 27.9537 38.7504 28.0021 38.4028 27.8361C38.0551 27.67 37.8338 27.319 37.8338 26.9337L37.8338 19.8303H27.4669C27.2017 19.8303 26.9474 19.725 26.7598 19.5375C26.5723 19.3499 26.4669 19.0956 26.4669 18.8303L26.4669 9.09412ZM51.4577 21.8852C51.7009 21.8657 51.9447 21.9357 52.1417 22.0849L55.931 24.9551C55.8021 24.1142 55.4706 23.1023 54.7469 22.1277C54.2113 21.4065 53.5581 21.259 52.8473 21.3712C52.3591 21.4484 51.8697 21.6513 51.4577 21.8852Z" fill="#21262A"/>
<path d="M23.0578 36.5039H20.9218L19.5538 42.1559H19.5178L17.9938 36.5039H15.8578L14.3458 42.1559H14.3098L12.9658 36.5039H10.7578L13.1698 44.9999H15.2098L16.8898 39.2519H16.9258L18.6058 44.9999H20.6338L23.0578 36.5039Z" fill="#21262A"/>
<path d="M31.4265 36.5039H29.1585L27.2025 42.5279H27.1545L25.1865 36.5039H22.8825L26.0985 44.9999H28.1505L31.4265 36.5039Z" fill="#21262A"/>
</svg>
