<svg width="24" height="24" viewBox="0 0 24 24" fill="none" xmlns="http://www.w3.org/2000/svg">
    <path d="M11.387 2.40001C11.387 2.23787 11.2891 2.09176 11.1391 2.03008C10.9892 1.9684 10.8168 2.00335 10.7027 2.11857C10.6805 2.14101 10.6274 2.18655 10.5638 2.2239C10.5332 2.24188 10.5058 2.2546 10.4834 2.2623C10.4619 2.26966 10.4521 2.27012 10.4521 2.27012C10.2107 2.27012 10.0896 2.45593 10.0655 2.4934C10.0226 2.56009 9.99352 2.63432 9.97314 2.69412C9.93052 2.81921 9.89296 2.98264 9.85874 3.15979C9.78932 3.51911 9.72108 4.00288 9.65432 4.50855C9.62912 4.69942 9.60416 4.89284 9.57942 5.08459C9.46995 5.93299 9.3647 6.74864 9.26141 7.16591C9.15163 7.60939 8.93807 7.88105 8.68041 8.11235C8.56091 8.21962 8.43569 8.31507 8.29773 8.42022L8.24086 8.4636C8.08605 8.58192 7.91582 8.71474 7.76073 8.87137C7.56541 9.06862 7.42589 9.12888 7.32252 9.15388C7.23062 9.17611 7.16119 9.17683 7.05434 9.17794C7.00305 9.17847 6.94312 9.1791 6.86795 9.18223C6.65281 9.1912 6.39826 9.22843 6.11726 9.40614C5.85552 9.57167 5.59963 9.84076 5.32359 10.2536C5.18322 10.4079 5.09476 10.5969 5.03459 10.7674C4.96884 10.9537 4.92548 11.1516 4.89253 11.3247C4.88566 11.3608 4.87942 11.3946 4.87364 11.4266C4.81795 11.3536 4.73797 11.2766 4.62494 11.2262C4.48515 11.1639 4.33836 11.1617 4.20269 11.196C3.42364 11.3927 3.17751 12.0897 3.07243 12.6203C3.03034 12.8329 3.00407 13.055 2.98158 13.245C2.97534 13.2978 2.96939 13.3481 2.96347 13.395C2.93266 13.6395 2.90416 13.773 2.87231 13.8374C2.84306 13.8965 2.76909 13.9849 2.62437 14.1081C2.5118 14.204 2.38407 14.2987 2.24258 14.4036C2.20686 14.43 2.17026 14.4572 2.13281 14.4851C1.95654 14.6167 1.76216 14.7663 1.60329 14.9281C1.44867 15.0855 1.28559 15.2956 1.23367 15.5578C1.14637 15.9986 1.23892 16.4682 1.406 16.9151C1.57478 17.3666 1.83398 17.8327 2.12607 18.2839C2.60144 19.0181 3.19189 19.7537 3.67817 20.3595C3.78719 20.4953 3.89097 20.6246 3.98705 20.7459C5.06239 22.1034 6.42308 22.0232 7.0413 21.9867C7.1217 21.982 7.18958 21.978 7.2426 21.978C7.35612 21.978 7.49353 21.9537 7.62542 21.9243C7.76532 21.893 7.92881 21.8488 8.10612 21.7955C8.46119 21.6887 8.88647 21.541 9.31598 21.3743C9.74541 21.2078 10.1846 21.0201 10.5665 20.8326C10.9402 20.6492 11.2873 20.4524 11.512 20.2633C12.377 19.5353 13.0974 18.3962 13.6821 17.2719C14.1456 16.3807 14.5403 15.4649 14.8586 14.7265L14.866 14.7094C14.9029 14.7411 14.9412 14.7727 14.9807 14.8034C15.2418 15.0062 15.6181 15.2252 16.0686 15.2252C16.3878 15.2252 16.6338 15.046 16.8013 14.8635C16.9717 14.6778 17.1062 14.4413 17.2091 14.2126C17.3617 13.8732 17.472 13.487 17.5166 13.1893C17.5365 13.1831 17.5575 13.1776 17.581 13.172C17.6006 13.1673 17.6234 13.1623 17.6493 13.1566C17.7475 13.1349 17.8899 13.1035 18.0684 13.0434C18.3655 12.9433 18.65 12.7025 18.8985 12.4428C19.1573 12.1722 19.4211 11.8336 19.6722 11.4762C20.0673 10.914 20.446 10.284 20.7437 9.75187L22.5135 11.0923C22.6207 11.1736 22.7615 11.1954 22.8884 11.1506C23.0152 11.1057 23.1109 11.0002 23.1433 10.8696C23.2563 10.4128 23.2654 9.34928 22.5412 8.37411C22.1135 7.7982 21.5279 7.67716 21.0143 7.7583C20.6025 7.82335 20.2265 8.01613 19.9634 8.20053C19.9171 8.19426 19.8623 8.18586 19.7999 8.17564C19.6845 8.15675 19.5519 8.1331 19.4095 8.10772L19.2743 8.08367C18.9093 8.01899 18.4661 7.94248 18.2082 7.94248C18.0404 7.94248 17.8933 8.01876 17.8002 8.07503C17.6938 8.13928 17.5836 8.22457 17.4755 8.31674C17.2588 8.50169 17.01 8.7501 16.7581 9.00893C16.6573 9.11252 16.556 9.2178 16.455 9.3227C16.2784 9.50608 16.103 9.68829 15.9337 9.85829L15.9337 7.53214C15.9337 7.31122 15.7546 7.13214 15.5337 7.13214H11.387L11.387 2.40001Z" fill="#21262A"/>
</svg>
