<svg width="24" height="24" viewBox="0 0 24 24" fill="none" xmlns="http://www.w3.org/2000/svg">
    <path fill-rule="evenodd" clip-rule="evenodd" d="M9.36606 22.7999C9.29342 22.7999 9.22215 22.7801 9.1599 22.7427C8.89163 22.5814 8.50209 22.2841 8.17466 21.8981C7.8516 21.5173 7.54786 21.001 7.54786 20.4097C7.54786 19.8394 7.54754 18.8651 7.44393 17.9305C7.39211 17.463 7.31569 17.0178 7.20533 16.645C7.09228 16.2631 6.95631 16.0017 6.81376 15.8588C6.62576 15.6704 6.26123 15.3862 5.78996 15.0353C5.62595 14.9132 5.45017 14.7838 5.26842 14.65C4.94257 14.4101 4.59735 14.156 4.26661 13.9045C3.75047 13.512 3.24721 13.1093 2.87034 12.7455C2.68245 12.5642 2.51499 12.3821 2.39179 12.2072C2.27771 12.0452 2.1587 11.8308 2.1587 11.5959C2.1587 11.0921 2.32509 10.6754 2.46253 10.3312L2.47083 10.3104C2.61552 9.94777 2.72598 9.66031 2.72598 9.32135C2.72598 9.19351 2.6826 9.04263 2.59514 8.85533C2.53388 8.72414 2.46538 8.60276 2.39071 8.47046C2.35463 8.40652 2.3171 8.34003 2.27826 8.26866C2.17179 8.07298 2.05089 7.83199 2.01265 7.58284C1.96965 7.30269 2.03121 7.00921 2.27552 6.76431C2.58974 6.44935 2.98756 6.32856 3.2592 6.24608C3.30679 6.23163 3.35051 6.21836 3.38923 6.20542C3.53632 6.15627 3.63315 6.11179 3.70582 6.05402C3.77017 6.00286 3.83315 5.92718 3.88098 5.78333C3.92993 5.63614 3.94906 5.42496 3.9448 5.15169C3.94173 4.95492 3.92771 4.7532 3.91313 4.54351C3.90757 4.46344 3.90192 4.38219 3.89677 4.29962C3.87917 4.01737 3.86686 3.71239 3.9046 3.45304C3.94017 3.20853 4.03928 2.87201 4.36496 2.70879C4.61465 2.58364 4.85678 2.59252 5.05726 2.63515C5.18948 2.66326 5.33733 2.71592 5.45426 2.75758C5.49245 2.77118 5.52734 2.78361 5.55732 2.79362C5.70312 2.84234 5.81881 2.86914 5.93045 2.86642C6.03337 2.8639 6.15515 2.83556 6.30741 2.73381C6.48289 2.61655 6.68356 2.47415 6.89927 2.32107L7.01636 2.23802C7.27329 2.05597 7.54569 1.86473 7.8021 1.6995C8.05432 1.53698 8.3107 1.38662 8.53317 1.29636C8.64282 1.25187 8.76916 1.21146 8.8967 1.20203C9.0229 1.19269 9.21433 1.21068 9.3656 1.3623C9.53388 1.53098 9.53043 1.74447 9.51024 1.8659C9.48939 1.99128 9.43752 2.11337 9.38718 2.21428C9.33419 2.32051 9.2662 2.4352 9.19392 2.54972C9.29567 2.52695 9.40832 2.52219 9.52677 2.5493C9.6848 2.58548 9.82005 2.67079 9.93288 2.78388C10.1938 3.04538 10.4556 3.24293 10.741 3.45745L10.7483 3.46292C11.0282 3.67335 11.3309 3.90097 11.6347 4.20546C11.638 4.20815 11.6614 4.22759 11.7206 4.26225C11.7811 4.29774 11.8625 4.33976 11.9652 4.38797C12.1705 4.4843 12.4408 4.59592 12.759 4.71912C13.3181 4.93554 14.0034 5.17948 14.7049 5.42914L14.9959 5.53277C15.792 5.81652 16.5898 6.10392 17.207 6.35683C17.5148 6.48292 17.7877 6.60447 17.9968 6.71627C18.1009 6.77192 18.1985 6.83004 18.2797 6.89009C18.3493 6.94156 18.4548 7.02818 18.5168 7.15259C18.6906 7.50098 18.7678 7.91279 18.8051 8.28654C18.8425 8.66179 18.8425 9.03358 18.8425 9.31491V9.32135L18.8425 9.32324C18.8424 9.35035 18.8422 9.3941 19.0472 9.49684C19.0653 9.50589 19.0898 9.51754 19.118 9.53091C19.1948 9.56728 19.2982 9.61633 19.3694 9.65995C19.4615 9.71633 19.6935 9.87337 19.6935 10.1743C19.6935 10.27 19.6629 10.3539 19.6484 10.3922C19.6291 10.4428 19.6044 10.4957 19.5789 10.5464C19.5278 10.6482 19.4584 10.7715 19.3832 10.9023C19.3519 10.9568 19.3191 11.0133 19.2854 11.0716C19.1529 11.3003 19.0051 11.5554 18.8676 11.8174C18.7 12.1366 18.5618 12.4399 18.4912 12.6879C18.5194 12.6556 18.5492 12.6204 18.5806 12.582C18.8869 12.2077 19.2563 11.6494 19.6294 11.0616C19.7536 10.8659 19.8786 10.6665 20.0008 10.4715C20.2384 10.0921 20.466 9.72883 20.6583 9.44111C20.8032 9.22446 20.9408 9.03098 21.0576 8.89798C21.1122 8.83588 21.1854 8.75971 21.2703 8.70608C21.3121 8.67971 21.3885 8.63805 21.4893 8.62788C21.6099 8.61572 21.7437 8.65219 21.8458 8.75453C21.9637 8.8728 21.9866 9.02236 21.9939 9.08671C22.0034 9.16973 22.0003 9.25754 21.9931 9.33884C21.9786 9.5037 21.9406 9.70664 21.8905 9.92582C21.7894 10.3678 21.6261 10.9306 21.4481 11.5017C21.1826 12.3534 20.8756 13.2502 20.6795 13.8233C20.6129 14.0179 20.559 14.1756 20.5239 14.281C20.4844 14.3998 20.43 14.5582 20.3654 14.7464C20.1912 15.2534 19.9427 15.977 19.711 16.7253C19.5527 17.2365 19.4049 17.7512 19.2971 18.2054C19.1871 18.6682 19.1262 19.0381 19.1262 19.2724C19.1262 19.4978 19.1837 19.7731 19.2776 20.0857C19.3478 20.3192 19.4313 20.552 19.5151 20.7856C19.5435 20.8647 19.5719 20.9439 19.5998 21.0232C19.7044 21.32 19.8085 21.6352 19.8412 21.9027C19.8708 22.1449 19.8632 22.5618 19.4727 22.7575C19.417 22.7854 19.3557 22.7999 19.2935 22.7999H9.36606Z" fill="#21262A"/>
</svg>
