<svg width="60" height="60" viewBox="0 0 60 60" fill="none" xmlns="http://www.w3.org/2000/svg">
<path d="M23.6925 57H47.9969C48.1525 57 48.3172 56.9734 48.4228 56.8592C49.3614 55.8449 46.8153 51.875 46.8153 49.1813C46.8153 46.3381 49.6517 38.5194 50.3608 36.387C51.0699 34.2547 54.6154 24.3036 53.9063 23.5928C53.1972 22.882 46.8153 35.6762 45.3971 34.2547C43.9789 32.8331 48.2335 27.1467 48.2335 26.4359C48.2335 25.7252 46.1062 25.7252 46.1062 24.3036C46.1062 22.882 46.1062 20.7496 45.3971 19.328C44.688 17.9064 29.7969 13.6417 28.3787 12.2201C26.9605 10.7985 25.5423 10.0877 24.1241 8.66616C22.7059 7.24458 21.2877 10.7985 20.5786 10.0877C19.8695 9.37694 23.415 5.823 22.7059 5.1122C21.9968 4.40141 18.4513 7.24457 16.324 8.66616C14.1967 10.0877 12.7785 7.95536 11.3603 8.66616C9.9421 9.37695 11.3603 13.6417 10.6512 15.7741C9.9421 17.9064 7.81481 17.1957 6.39661 18.6172C4.97841 20.0388 7.81481 22.1712 7.81481 24.3036C7.81481 26.4359 6.39661 27.8575 6.39661 29.9899C6.39661 32.1223 15.6149 37.8086 17.7422 39.941C19.8695 42.0734 19.8695 49.1813 19.8695 52.0245C19.8695 54.1568 21.9468 56.0392 23.1803 56.8519C23.3319 56.9518 23.5109 57 23.6925 57Z" fill="#21262A"/>
<path fill-rule="evenodd" clip-rule="evenodd" d="M18.4107 7.43011C17.873 7.81175 17.344 8.18717 16.8798 8.4974C16.1968 8.95382 15.5262 9.14952 14.875 9.16544C14.2455 9.18083 13.6927 9.02573 13.2595 8.88097C13.0914 8.8248 12.952 8.77503 12.8296 8.73136C12.593 8.64686 12.4202 8.58518 12.2272 8.54414C12.026 8.50137 11.9214 8.51297 11.8416 8.54501C11.8208 8.58092 11.7752 8.68308 11.7407 8.92055C11.6799 9.33835 11.6934 9.90864 11.7381 10.6246C11.7489 10.7989 11.7617 10.9819 11.7748 11.1705C11.8124 11.7118 11.8532 12.2978 11.8617 12.848C11.8733 13.5864 11.8324 14.3912 11.6003 15.0894C11.3653 15.796 10.9909 16.3176 10.5092 16.7006C10.0482 17.067 9.53688 17.2668 9.10688 17.4105C8.93266 17.4687 8.77151 17.5196 8.62142 17.567C7.95634 17.777 7.50861 17.9184 7.10471 18.3233C7.00638 18.4219 6.98302 18.4878 7.00848 18.6537C7.04584 18.8971 7.18678 19.2275 7.45241 19.7157C7.51859 19.8373 7.59436 19.9717 7.67489 20.1146C7.87886 20.4764 8.11336 20.8924 8.30001 21.2921C8.56886 21.8678 8.81496 22.5568 8.81496 23.3034C8.81496 24.5629 8.399 25.6046 8.0554 26.4652L8.03464 26.5172C7.67467 27.4192 7.39946 28.1353 7.39678 28.9773C7.39677 28.9814 7.39676 28.9856 7.39676 28.9897M7.39678 28.9773C7.39683 28.9767 7.39692 28.9764 7.39705 28.9764C7.39985 28.9759 7.42389 29.0955 7.61454 29.3662C7.81898 29.6564 8.13713 30.0119 8.56486 30.4248C9.41761 31.2479 10.597 32.1958 11.8771 33.1693C12.6941 33.7905 13.5299 34.4057 14.3345 34.9979C14.7927 35.3352 15.2407 35.6649 15.6694 35.9841C16.818 36.8394 17.8566 37.6395 18.4503 38.2345C19.1576 38.9435 19.6154 39.9783 19.9311 41.0448C20.2535 42.134 20.4613 43.3755 20.5976 44.6058C20.8697 47.0597 20.8697 49.5918 20.8696 51.0117V51.0243C20.8696 51.8206 21.2921 52.6622 21.9618 53.4515C22.5302 54.1216 23.2029 54.6657 23.7051 54.9998H47.6178C47.6178 54.9997 47.6177 54.9995 47.6177 54.9993C47.5665 54.5797 47.3837 53.9906 47.1131 53.2222C47.0518 53.048 46.9864 52.8658 46.919 52.6778C46.7053 52.0823 46.4709 51.429 46.2788 50.7902C46.0263 49.9503 45.8154 49.0392 45.8154 48.1811C45.8154 47.3453 46.0176 46.2265 46.2968 45.0513C46.581 43.8545 46.9649 42.5203 47.367 41.2217C47.9563 39.3181 48.599 37.447 49.0347 36.1787C49.1912 35.7229 49.321 35.3449 49.412 35.0713C49.5063 34.7877 49.6469 34.3769 49.8188 33.8745C50.3099 32.4395 51.0566 30.2574 51.7108 28.159C51.905 27.5363 52.0891 26.9267 52.2544 26.3518C52.0813 26.6267 51.903 26.9113 51.7206 27.2026C51.4114 27.6963 51.0902 28.209 50.762 28.726C49.8334 30.1887 48.8512 31.6805 47.9993 32.7216C47.5828 33.2305 47.14 33.7046 46.7042 34.0016C46.4887 34.1485 46.1924 34.3102 45.8415 34.3536C45.4353 34.4039 45.0129 34.2851 44.6893 33.9607C44.2912 33.5617 44.1441 33.0586 44.1141 32.6056C44.0847 32.1612 44.1616 31.7017 44.2762 31.2741C44.5054 30.419 44.9472 29.4726 45.3982 28.6137C45.7635 27.918 46.1599 27.2337 46.4923 26.6599C46.5739 26.5191 46.6516 26.385 46.7241 26.259C46.8504 26.0392 46.9584 25.8483 47.0458 25.6867C46.9606 25.6468 46.8568 25.5977 46.7219 25.5301C46.1828 25.2599 45.1063 24.6575 45.1063 23.3034C45.1063 22.587 45.1056 21.7466 45.0226 20.9149C44.9428 20.1144 44.793 19.3998 44.5427 18.8582C44.5338 18.8511 44.5231 18.8429 44.5104 18.8335C44.4167 18.7643 44.2667 18.6708 44.0491 18.5545C43.6163 18.3231 43.0078 18.0495 42.2592 17.7427C40.7665 17.1311 38.8165 16.428 36.8182 15.7158C36.5766 15.6297 36.3344 15.5435 36.0922 15.4573C34.3432 14.8348 32.6008 14.2147 31.1755 13.6629C30.3645 13.3489 29.6387 13.0505 29.0633 12.7804C28.7759 12.6455 28.5132 12.5118 28.2903 12.3812C28.0806 12.2583 27.8511 12.1068 27.6709 11.9262C27.0187 11.2724 26.364 10.7785 25.6506 10.2422L25.6325 10.2286C24.9327 9.70251 24.1757 9.13346 23.4163 8.37223C23.403 8.35888 23.3916 8.34843 23.382 8.34034C23.2682 8.39009 23.0806 8.52875 22.7935 8.81647C22.6957 8.91456 22.606 9.00902 22.51 9.11007C22.462 9.16061 22.4124 9.2128 22.3595 9.26793C22.2153 9.41811 22.0454 9.59051 21.8702 9.73559C21.7122 9.86644 21.4486 10.063 21.1109 10.1444C20.681 10.248 20.2188 10.1427 19.8708 9.7938C19.4501 9.37209 19.4587 8.83838 19.5092 8.53481C19.5613 8.22135 19.691 7.91614 19.8169 7.66384C20.0665 7.16335 20.4494 6.58778 20.7862 6.08137L20.8097 6.04599C20.9095 5.89596 21.0054 5.75155 21.0959 5.61324C20.9358 5.70949 20.7664 5.81535 20.5886 5.92994C19.9887 6.3165 19.3401 6.77133 18.6972 7.2269C18.6016 7.29461 18.506 7.36246 18.4107 7.43011M23.347 8.31496C23.347 8.31491 23.3478 8.31527 23.3494 8.31617C23.3478 8.31546 23.347 8.31501 23.347 8.31496ZM44.5798 18.8903C44.5797 18.8902 44.5786 18.8892 44.5767 18.8872C44.5789 18.8892 44.5798 18.8903 44.5798 18.8903ZM47.4287 25.8898C47.4279 25.8899 47.4211 25.8852 47.4104 25.8756C47.424 25.885 47.4294 25.8898 47.4287 25.8898ZM47.2548 25.2609C47.2573 25.2515 47.2591 25.2465 47.2594 25.2464C47.2596 25.2464 47.2583 25.251 47.2548 25.2609ZM52.9977 22.9432C52.9979 22.9449 52.9981 22.9472 52.9983 22.95C52.9942 22.9293 52.9956 22.9247 52.9977 22.9432ZM47.6238 55.2865C47.623 55.2854 47.624 55.2761 47.6294 55.2615C47.6273 55.2803 47.6246 55.2876 47.6238 55.2865ZM11.8527 8.52862C11.8528 8.5287 11.852 8.52972 11.8503 8.53147C11.8518 8.52942 11.8527 8.52855 11.8527 8.52862ZM22.2417 3.00506C22.5573 2.98173 23.0358 3.02669 23.414 3.40575C23.8347 3.82746 23.8261 4.36117 23.7756 4.66474C23.7235 4.9782 23.5938 5.28341 23.4679 5.53571C23.3355 5.80128 23.1655 6.08799 22.9848 6.37429C23.2392 6.31737 23.5208 6.30548 23.8169 6.37326C24.212 6.46369 24.5501 6.67697 24.8322 6.9597C25.4844 7.61344 26.1391 8.10733 26.8525 8.64362L26.8706 8.65729C27.5704 9.18337 28.3274 9.75241 29.0868 10.5137C29.0865 10.5134 29.0868 10.5136 29.0877 10.5143C29.0958 10.5211 29.1536 10.569 29.3015 10.6556C29.4529 10.7443 29.6562 10.8494 29.913 10.9699C30.4262 11.2108 31.102 11.4898 31.8976 11.7978C33.2952 12.3388 35.0086 12.9487 36.7621 13.5728C37.0041 13.659 37.2469 13.7454 37.4897 13.8319C39.4801 14.5413 41.4744 15.2598 43.0175 15.8921C43.7869 16.2073 44.4692 16.5112 44.992 16.7907C45.2522 16.9298 45.4962 17.0751 45.6993 17.2252C45.8734 17.3539 46.1369 17.5704 46.2921 17.8815C46.7265 18.7524 46.9195 19.782 47.0128 20.7163C47.1063 21.6545 47.1063 22.5839 47.1063 23.2873V23.3034C47.1063 23.3049 47.1063 23.3065 47.1063 23.3081C47.106 23.3759 47.1056 23.4853 47.618 23.7421C47.6632 23.7647 47.7246 23.7938 47.7951 23.8273C47.9869 23.9182 48.2455 24.0408 48.4236 24.1499C48.6537 24.2908 49.2336 24.6834 49.2336 25.4357C49.2336 25.6751 49.1573 25.8847 49.1209 25.9805C49.0728 26.1069 49.0109 26.2393 48.9473 26.366C48.8196 26.6205 48.6459 26.9288 48.458 27.2558C48.3796 27.392 48.2978 27.5333 48.2134 27.679C47.8823 28.2506 47.5128 28.8885 47.169 29.5434C46.75 30.3414 46.4046 31.0996 46.228 31.7198C46.2985 31.6391 46.373 31.5509 46.4515 31.455C47.2172 30.5192 48.1407 29.1234 49.0735 27.6541C49.3841 27.1648 49.6964 26.6663 50.0019 26.1787C50.5962 25.23 51.1648 24.3223 51.6458 23.6028C52.0079 23.0611 52.352 22.5774 52.6441 22.2449C52.7805 22.0897 52.9634 21.8993 53.1758 21.7652C53.2802 21.6993 53.4713 21.5951 53.7233 21.5697C54.0248 21.5393 54.3591 21.6305 54.6144 21.8863C54.9094 22.182 54.9665 22.5559 54.9848 22.7168C55.0085 22.9243 55.0008 23.1439 54.9829 23.3471C54.9464 23.7593 54.8514 24.2666 54.7262 24.8146C54.4735 25.9196 54.0653 27.3265 53.6202 28.7542C52.9564 30.8835 52.1891 33.1256 51.6989 34.5582C51.5322 35.0453 51.3975 35.4388 51.3098 35.7024C51.211 35.9997 51.0748 36.3961 50.913 36.8671C50.4776 38.1347 49.8567 39.9426 49.2775 41.8132C48.8818 43.0912 48.5123 44.378 48.2426 45.5135C47.9678 46.6706 47.8154 47.5953 47.8154 48.1811C47.8154 48.7445 47.9591 49.4328 48.1941 50.2143C48.3696 50.798 48.5784 51.3801 48.788 51.9644C48.8588 52.1619 48.9298 52.3598 48.9996 52.558C49.2609 53.3 49.5213 54.0881 49.603 54.7568C49.6769 55.3622 49.6579 56.4045 48.6817 56.8938C48.5426 56.9635 48.3892 56.9998 48.2336 56.9998H23.4151C23.2335 56.9998 23.0554 56.9504 22.8997 56.8568C22.2291 56.4534 21.2552 55.7103 20.4366 54.7453C19.629 53.7933 18.8696 52.5024 18.8696 51.0243C18.8696 49.5986 18.8688 47.1628 18.6098 44.8262C18.4803 43.6575 18.2892 42.5446 18.0133 41.6124C17.7307 40.6576 17.3908 40.0043 17.0344 39.6471C16.5644 39.1759 15.6531 38.4656 14.4749 37.5883C14.0647 37.2828 13.6251 36.9592 13.1705 36.6246C12.3559 36.0249 11.4934 35.39 10.6665 34.7613C9.37618 33.78 8.11801 32.7732 7.17586 31.8638C6.70614 31.4104 6.28748 30.9552 5.97948 30.518C5.69427 30.1131 5.39676 29.577 5.39676 28.9897C5.39676 27.7302 5.81272 26.6885 6.15632 25.8279C6.16327 25.8105 6.17019 25.7932 6.17708 25.7759C6.53881 24.8694 6.81496 24.1508 6.81496 23.3034C6.81496 22.9838 6.70651 22.6066 6.48785 22.1383C6.3347 21.8103 6.16344 21.5069 5.97678 21.1762C5.88657 21.0163 5.79276 20.8501 5.69566 20.6716C5.42947 20.1825 5.12722 19.58 5.03162 18.9571C4.92413 18.2567 5.07804 17.523 5.68881 16.9108C6.47434 16.1234 7.4689 15.8214 8.148 15.6152C8.26698 15.5791 8.37627 15.5459 8.47306 15.5136C8.84079 15.3907 9.08288 15.2795 9.26455 15.135C9.42542 15.0071 9.58286 14.8179 9.70245 14.4583C9.82482 14.0903 9.87264 13.5624 9.86199 12.8792C9.85432 12.3873 9.81927 11.883 9.78283 11.3588C9.76892 11.1586 9.7548 10.9555 9.74193 10.7491C9.69793 10.0434 9.66716 9.28098 9.76149 8.6326C9.85042 8.02131 10.0982 7.18003 10.9124 6.77196C11.5366 6.4591 12.1419 6.4813 12.6432 6.58787C12.9737 6.65815 13.3433 6.78981 13.6357 6.89394C13.7311 6.92794 13.8184 6.95901 13.8933 6.98405C14.2578 7.10584 14.547 7.17286 14.8261 7.16604C15.0834 7.15975 15.3879 7.0889 15.7685 6.83452C16.2072 6.54137 16.7089 6.18536 17.2482 5.80268C17.3446 5.73425 17.4422 5.66497 17.5409 5.59504C18.1832 5.13991 18.8642 4.66183 19.5053 4.24875C20.1358 3.84244 20.7767 3.46656 21.3329 3.24091C21.607 3.12969 21.9229 3.02864 22.2417 3.00506ZM46.1281 32.579C46.128 32.5791 46.1274 32.5778 46.1263 32.575C46.1277 32.5775 46.1282 32.579 46.1281 32.579ZM20.5352 8.23981C20.5352 8.23978 20.5361 8.23926 20.5377 8.23833C20.536 8.23938 20.5352 8.23984 20.5352 8.23981Z" fill="#21262A"/>
<path d="M35.237 29.5039H33.101L31.733 35.1559H31.697L30.173 29.5039H28.037L26.525 35.1559H26.489L25.145 29.5039H22.937L25.349 37.9999H27.389L29.069 32.2519H29.105L30.785 37.9999H32.813L35.237 29.5039Z" fill="#21262A"/>
<path d="M38.1817 37.9999V29.5039H36.1177V37.9999H38.1817Z" fill="#21262A"/>
</svg>
