<svg width="24" height="24" viewBox="0 0 24 24" fill="none" xmlns="http://www.w3.org/2000/svg">
    <path d="M21.439 3.69715C21.357 3.62644 21.2499 3.59196 21.1421 3.60158L21.0759 3.60743L20.8838 3.6241C20.7163 3.63849 20.4728 3.65914 20.1687 3.68409C19.5605 3.73401 18.7103 3.80116 17.7425 3.87006C15.8047 4.00802 13.4033 4.15246 11.529 4.18055C9.65729 4.20861 7.25589 4.13646 5.3175 4.05689C4.34935 4.01715 3.49866 3.97565 2.89004 3.94408C2.58576 3.9283 2.34205 3.91501 2.1745 3.90566L1.98225 3.89479L1.91596 3.89095C1.80729 3.88454 1.7007 3.92269 1.62079 3.99661C1.54087 4.07053 1.49454 4.17382 1.49247 4.28266L1.20027 19.6662C1.19611 19.8849 1.36847 20.0664 1.58714 20.0736C9.64001 20.3366 14.1382 20.2371 22.0916 19.4915C22.306 19.4714 22.4661 19.2851 22.4536 19.0701L21.577 3.97681C21.5707 3.86875 21.5209 3.76785 21.439 3.69715Z" fill="#21262A"/>
</svg>
