<svg width="60" height="60" viewBox="0 0 60 60" fill="none" xmlns="http://www.w3.org/2000/svg">
<path d="M55.0606 47.6845L52.9849 11.9447C52.9522 11.3812 52.462 10.9559 51.8996 11.0037C48.4073 11.3006 36.7551 12.2472 28.8185 12.3662C20.9003 12.4849 9.25525 11.891 5.74824 11.6989C5.18114 11.6678 4.70297 12.1133 4.69218 12.6811L4.00018 49.1131C3.98979 49.66 4.42699 50.114 4.97368 50.1312C24.1257 50.7367 35.2343 50.4856 54.1494 48.7381C54.6856 48.6886 55.0918 48.2221 55.0606 47.6845Z" fill="#21262A"/>
<path fill-rule="evenodd" clip-rule="evenodd" d="M52.8547 9.00396C53.1243 8.97991 53.392 9.0661 53.5969 9.24287C53.8018 9.41964 53.9263 9.67188 53.942 9.94202L56.1335 47.6752C56.1647 48.2128 55.7646 48.6785 55.2285 48.7288C35.3451 50.5927 24.0995 50.8414 3.96736 50.1839C3.42069 50.1661 2.9898 49.7123 3.00018 49.1654L3.73069 10.7066C3.73585 10.4346 3.8517 10.1763 4.05148 9.99152C4.25127 9.80673 4.51774 9.71135 4.78941 9.72738L4.73051 10.7256C4.78941 9.72738 4.78932 9.72737 4.78941 9.72738L4.95514 9.73699C5.06449 9.74327 5.22632 9.75248 5.43575 9.76416C5.85464 9.78752 6.46392 9.82076 7.22462 9.86021C8.74615 9.93913 10.8729 10.0429 13.2933 10.1422C18.1392 10.3411 24.1427 10.5215 28.8221 10.4514C33.5079 10.3812 39.5114 10.0201 44.3557 9.67516C46.7753 9.5029 48.9008 9.33503 50.4213 9.21024C51.1815 9.14785 51.7904 9.09624 52.2089 9.06024C52.4182 9.04225 52.5799 9.02815 52.6891 9.01857L52.8547 9.00396C52.8548 9.00395 52.8547 9.00396 52.9436 10L52.8547 9.00396ZM52.005 11.085C51.6236 11.1174 51.1451 11.1576 50.5849 11.2035C49.059 11.3288 46.9261 11.4972 44.4978 11.6701C39.6465 12.0155 33.5967 12.3801 28.8521 12.4512C24.114 12.5222 18.0642 12.3397 13.2112 12.1406C10.7821 12.0408 8.64801 11.9367 7.12103 11.8575C6.56565 11.8287 6.0905 11.8032 5.71061 11.7824L5.01857 48.2167C24.138 48.8212 35.2062 48.5709 54.0808 46.827L52.005 11.085Z" fill="#21262A"/>
<path d="M32.4445 26.5039H30.3085L28.9405 32.1559H28.9045L27.3805 26.5039H25.2445L23.7325 32.1559H23.6965L22.3525 26.5039H20.1445L22.5565 34.9999H24.5965L26.2765 29.2519H26.3125L27.9925 34.9999H30.0205L32.4445 26.5039Z" fill="#21262A"/>
<path d="M40.7172 26.5039H38.3172L36.5052 29.6479L34.6932 26.5039H32.2092L35.4012 31.3999V34.9999H37.4532V31.3999L40.7172 26.5039Z" fill="#21262A"/>
</svg>
